<svg width="32" height="32" viewBox="0 0 32 32" fill="none" xmlns="http://www.w3.org/2000/svg">
<path d="M4.75343 25.1295C4.72625 25.519 4.70047 25.9074 4.67606 26.2946C4.2412 19.0614 4.26552 12.2034 4.74902 4.92834C4.82209 3.82903 5.6798 2.94389 6.77697 2.84389C13.1001 2.26753 18.8994 2.26753 25.2223 2.84389C26.3197 2.94389 27.1773 3.82903 27.2505 4.92834C27.6708 11.2528 27.7439 17.2622 27.4703 23.4767C27.1492 23.2406 26.7625 23.0879 26.341 23.0511M4.75343 25.1295C4.83018 24.0294 5.69297 23.1471 6.79158 23.0511C13.4964 22.4641 19.6361 22.4641 26.341 23.0511M4.75343 25.1295C4.72641 25.5167 4.70088 25.9026 4.6766 26.2875C4.70088 26.6724 4.72652 27.0582 4.75354 27.4454C4.8303 28.5455 5.69309 29.4276 6.79169 29.5238C13.4965 30.1108 19.6362 30.1108 26.341 29.5238C26.7492 29.4882 27.1247 29.3439 27.4397 29.1204C26.7762 28.3666 26.3739 27.3773 26.3739 26.2943C26.3739 25.2072 26.7791 24.2148 27.447 23.4598C27.1307 23.2333 26.7524 23.0872 26.341 23.0511M16.0009 14.0697C16.0009 13.2755 16.6469 12.7883 17.7866 12.0267C18.8438 11.3204 19.4014 10.4041 19.1534 9.1571C18.9053 7.91013 17.875 6.87979 16.628 6.63175C14.6706 6.2424 12.7868 7.78832 12.7868 9.78409M15.9997 18.5389V17.9889" stroke="#111827" stroke-width="2" stroke-linecap="round" stroke-linejoin="round"/>
</svg>
