<svg width="32" height="32" viewBox="0 0 32 32" fill="none" xmlns="http://www.w3.org/2000/svg">
<g clip-path="url(#clip0_217_851)">
<path d="M13.4282 26.1429C13.9804 26.1429 14.4282 25.6952 14.4282 25.1429C14.4282 24.5906 13.9804 24.1429 13.4282 24.1429V26.1429ZM7.26674 24.7276L7.15597 25.7215L7.15602 25.7215L7.26674 24.7276ZM2.10722 19.5548L3.10154 19.4484L2.10722 19.5548ZM2.10722 7.30249L3.10154 7.40888L3.10154 7.40887L2.10722 7.30249ZM7.26674 2.12971L7.37751 3.12356L7.37751 3.12356L7.26674 2.12971ZM19.5896 2.12971L19.4788 3.12356V3.12356L19.5896 2.12971ZM24.7491 7.30249L25.7434 7.19611V7.1961L24.7491 7.30249ZM24.0927 11.4775C24.1196 12.0291 24.5887 12.4544 25.1403 12.4274C25.692 12.4005 26.1173 11.9314 26.0903 11.3798L24.0927 11.4775ZM13.4281 19.7211C13.9804 19.7211 14.4281 19.2733 14.4281 18.7211C14.4281 18.1688 13.9804 17.7211 13.4281 17.7211V19.7211ZM8.882 20.3426L8.24916 19.5683L8.24914 19.5683L8.882 20.3426ZM6.35197 24.5498L5.37399 24.3411C5.2638 24.8574 5.57399 25.3705 6.08241 25.5128L6.35197 24.5498ZM19.683 22.2647C19.683 22.817 20.1307 23.2647 20.683 23.2647C21.2353 23.2647 21.683 22.817 21.683 22.2647H19.683ZM20.9599 19.0539L20.0361 18.6712L20.036 18.6712L20.9599 19.0539ZM21.7485 17.8738L22.4555 18.5809L22.4556 18.5809L21.7485 17.8738ZM22.9285 17.0853L22.5458 16.1614L22.5458 16.1614L22.9285 17.0853ZM25.7127 17.0853L26.0955 16.1614L26.0954 16.1614L25.7127 17.0853ZM26.8928 17.8738L27.6001 17.1669L27.5999 17.1667L26.8928 17.8738ZM27.6812 19.0539L26.7572 19.4363L26.7573 19.4367L27.6812 19.0539ZM26.9582 22.2647C26.9582 22.817 27.4059 23.2647 27.9582 23.2647C28.5105 23.2647 28.9582 22.817 28.9582 22.2647H26.9582ZM18.4771 29.2606L19.4639 29.0988L19.4639 29.0988L18.4771 29.2606ZM19.5567 30.2552L19.6321 29.258L19.632 29.258L19.5567 30.2552ZM29.0844 30.2552L29.0091 29.258L29.0089 29.258L29.0844 30.2552ZM30.1639 29.2606L31.1507 29.4226L31.1507 29.4225L30.1639 29.2606ZM30.1639 23.371L31.1507 23.2092L31.1507 23.2091L30.1639 23.371ZM29.0844 22.3765L29.009 23.3737H29.009L29.0844 22.3765ZM19.5567 22.3765L19.4813 21.3794H19.4812L19.5567 22.3765ZM18.4771 23.371L19.4639 23.5329L19.4639 23.5329L18.4771 23.371ZM13.4283 15.6983C15.9642 15.6983 18.02 13.6425 18.02 11.1065H16.02C16.02 12.5379 14.8597 13.6983 13.4283 13.6983V15.6983ZM18.02 11.1065C18.02 8.57055 15.9642 6.51474 13.4283 6.51474V8.51474C14.8597 8.51474 16.02 9.67512 16.02 11.1065H18.02ZM13.4283 6.51474C10.8923 6.51474 8.8365 8.57055 8.8365 11.1065H10.8365C10.8365 9.67512 11.9969 8.51474 13.4283 8.51474V6.51474ZM8.8365 11.1065C8.8365 13.6425 10.8923 15.6983 13.4283 15.6983V13.6983C11.9969 13.6983 10.8365 12.5379 10.8365 11.1065H8.8365ZM13.4282 24.1429C11.387 24.1429 9.37358 23.9561 7.37745 23.7338L7.15602 25.7215C9.16917 25.9457 11.2723 26.1429 13.4282 26.1429V24.1429ZM7.3775 23.7338C5.14264 23.4847 3.34029 21.68 3.10154 19.4484L1.11289 19.6612C1.45192 22.83 3.99307 25.3689 7.15597 25.7215L7.3775 23.7338ZM3.10154 19.4484C2.88931 17.4647 2.71387 15.4606 2.71387 13.4286H0.713867C0.713867 15.5694 0.898605 17.6583 1.11289 19.6612L3.10154 19.4484ZM2.71387 13.4286C2.71387 11.3967 2.88931 9.39259 3.10154 7.40888L1.11289 7.19611C0.898603 9.199 0.713867 11.2879 0.713867 13.4286H2.71387ZM3.10154 7.40887C3.34029 5.17733 5.14263 3.37267 7.37751 3.12356L7.15596 1.13587C3.99309 1.48841 1.45192 4.02724 1.11289 7.19611L3.10154 7.40887ZM7.37751 3.12356C9.37356 2.90107 11.387 2.71436 13.4282 2.71436V0.714355C11.2723 0.714355 9.1692 0.911465 7.15596 1.13587L7.37751 3.12356ZM13.4282 2.71436C15.4693 2.71436 17.4827 2.90107 19.4788 3.12356L19.7003 1.13587C17.6871 0.911465 15.584 0.714355 13.4282 0.714355V2.71436ZM19.4788 3.12356C21.7137 3.37266 23.516 5.17734 23.7547 7.40888L25.7434 7.1961C25.4043 4.02728 22.8632 1.48841 19.7003 1.13587L19.4788 3.12356ZM23.7547 7.40888C23.8986 8.75377 24.0257 10.1086 24.0927 11.4775L26.0903 11.3798C26.0206 9.95449 25.8889 8.55581 25.7434 7.19611L23.7547 7.40888ZM13.4281 17.7211C11.5404 17.7211 9.71075 18.3737 8.24916 19.5683L9.51485 21.1168C10.6192 20.2142 12.0018 19.7211 13.4281 19.7211V17.7211ZM8.24914 19.5683C6.79792 20.7545 5.76024 22.5312 5.37399 24.3411L7.32995 24.7585C7.6269 23.367 8.43571 21.9989 9.51487 21.1168L8.24914 19.5683ZM6.08241 25.5128C6.43045 25.6102 6.78913 25.6804 7.15557 25.7214L7.3779 23.7338C7.11906 23.7049 6.86631 23.6553 6.62153 23.5868L6.08241 25.5128ZM21.683 22.2647V20.4459H19.683V22.2647H21.683ZM21.683 20.4459C21.683 20.0996 21.7513 19.7566 21.8838 19.4366L20.036 18.6712C19.803 19.2339 19.683 19.8369 19.683 20.4459H21.683ZM21.8838 19.4366C22.0164 19.1166 22.2106 18.8258 22.4555 18.5809L21.0414 17.1667C20.6107 17.5973 20.2691 18.1086 20.0361 18.6712L21.8838 19.4366ZM22.4556 18.5809C22.7005 18.336 22.9913 18.1417 23.3112 18.0092L22.5458 16.1614C21.9832 16.3945 21.472 16.7361 21.0413 17.1667L22.4556 18.5809ZM23.3112 18.0092C23.6312 17.8766 23.9743 17.8084 24.3205 17.8084V15.8084C23.7117 15.8084 23.1085 15.9283 22.5458 16.1614L23.3112 18.0092ZM24.3205 17.8084C24.6669 17.8084 25.01 17.8766 25.3301 18.0092L26.0954 16.1614C25.5327 15.9283 24.9295 15.8084 24.3205 15.8084V17.8084ZM25.3299 18.0091C25.6499 18.1417 25.9408 18.336 26.1858 18.581L27.5999 17.1667C27.1692 16.736 26.6578 16.3944 26.0955 16.1614L25.3299 18.0091ZM26.1856 18.5807C26.4306 18.8259 26.6249 19.1167 26.7572 19.4363L28.6052 18.6715C28.3722 18.1085 28.0303 17.5973 27.6001 17.1669L26.1856 18.5807ZM26.7573 19.4367C26.89 19.7568 26.9582 20.0997 26.9582 20.4459H28.9582C28.9582 19.8368 28.8381 19.2337 28.605 18.6711L26.7573 19.4367ZM26.9582 20.4459V22.2647H28.9582V20.4459H26.9582ZM17.4903 29.4225C17.6524 30.4107 18.4703 31.1759 19.4813 31.2523L19.632 29.258C19.5537 29.2521 19.4786 29.1886 19.4639 29.0988L17.4903 29.4225ZM19.4812 31.2523C20.9808 31.3658 22.6294 31.5226 24.3205 31.5226V29.5226C22.7268 29.5226 21.184 29.3754 19.6321 29.258L19.4812 31.2523ZM24.3205 31.5226C26.0117 31.5226 27.6603 31.3658 29.1598 31.2523L29.0089 29.258C27.457 29.3754 25.9143 29.5226 24.3205 29.5226V31.5226ZM29.1597 31.2523C30.1709 31.1759 30.9886 30.4106 31.1507 29.4226L29.1771 29.0987C29.1624 29.1887 29.0872 29.2521 29.0091 29.258L29.1597 31.2523ZM31.1507 29.4225C31.3023 28.4984 31.4924 27.4255 31.4924 26.316H29.4924C29.4924 27.2292 29.3364 28.1276 29.1771 29.0988L31.1507 29.4225ZM31.4924 26.316C31.4924 25.2062 31.3023 24.1333 31.1507 23.2092L29.1771 23.5329C29.3364 24.5041 29.4924 25.4024 29.4924 26.316H31.4924ZM31.1507 23.2091C30.9886 22.221 30.1708 21.4558 29.1598 21.3794L29.009 23.3737C29.0873 23.3796 29.1624 23.4431 29.1771 23.533L31.1507 23.2091ZM29.1598 21.3794C27.6604 21.266 26.0117 21.1091 24.3205 21.1091V23.1091C25.9143 23.1091 27.457 23.2563 29.009 23.3737L29.1598 21.3794ZM24.3205 21.1091C22.6294 21.1091 20.9807 21.266 19.4813 21.3794L19.6321 23.3737C21.1841 23.2563 22.7268 23.1091 24.3205 23.1091V21.1091ZM19.4812 21.3794C18.4704 21.4558 17.6524 22.2209 17.4903 23.2092L19.4639 23.5329C19.4786 23.4432 19.5537 23.3796 19.6321 23.3737L19.4812 21.3794ZM17.4903 23.2092C17.3387 24.1334 17.1487 25.2062 17.1487 26.316H19.1487C19.1487 25.4024 19.3046 24.504 19.4639 23.5329L17.4903 23.2092ZM17.1487 26.316C17.1487 27.4255 17.3387 28.4983 17.4903 29.4225L19.4639 29.0988C19.3046 28.1276 19.1487 27.2293 19.1487 26.316H17.1487Z" fill="#111827"/>
</g>
<defs>
<clipPath id="clip0_217_851">
<rect width="32" height="32" fill="white"/>
</clipPath>
</defs>
</svg>
