<svg width="32" height="32" viewBox="0 0 32 32" fill="none" xmlns="http://www.w3.org/2000/svg">
<g clip-path="url(#clip0_217_2717)">
<path d="M15.9996 10.2854V21.714M21.7139 15.9997H10.2853M2.19356 23.4706C2.54587 26.7636 5.19432 29.4121 8.48566 29.7789C13.5412 30.3424 18.458 30.3424 23.5134 29.7789C26.8048 29.4121 29.4533 26.7636 29.8055 23.4706C30.0656 21.0397 30.2853 18.544 30.2853 15.9997C30.2853 13.4553 30.0656 10.9596 29.8055 8.52875C29.4533 5.23584 26.8048 2.58736 23.5134 2.22049C18.458 1.65697 13.5412 1.65697 8.48566 2.22049C5.19432 2.58736 2.54587 5.23584 2.19356 8.52875C1.93349 10.9596 1.71387 13.4553 1.71387 15.9997C1.71387 18.544 1.93349 21.0397 2.19356 23.4706Z" stroke="#111827" stroke-width="2" stroke-linecap="round"/>
</g>
<defs>
<clipPath id="clip0_217_2717">
<rect width="32" height="32" fill="white"/>
</clipPath>
</defs>
</svg>
