<svg width="32" height="32" viewBox="0 0 32 32" fill="none" xmlns="http://www.w3.org/2000/svg">
<path d="M23.4861 4.20048L24.4833 4.12482L24.4832 4.1247L23.4861 4.20048ZM21.4279 2.14344L21.5033 1.14628L21.5033 1.14628L21.4279 2.14344ZM4.33917 2.14344L4.26384 1.14628L4.26383 1.14628L4.33917 2.14344ZM2.28104 4.20066L3.27817 4.2763L3.27817 4.27629L2.28104 4.20066ZM2.28104 21.2241L3.27817 21.1485L3.27817 21.1485L2.28104 21.2241ZM4.33894 23.2813L4.26357 24.2785L4.2636 24.2785L4.33894 23.2813ZM8.52267 27.2303L7.52553 27.306L7.52554 27.306L8.52267 27.2303ZM10.5808 29.2875L10.5055 30.2846L10.5055 30.2846L10.5808 29.2875ZM27.6697 29.2875L27.745 30.2846L27.745 30.2846L27.6697 29.2875ZM29.7277 27.2303L28.7306 27.1547L28.7306 27.1547L29.7277 27.2303ZM29.7277 10.2068L28.7306 10.2824L28.7306 10.2824L29.7277 10.2068ZM27.6697 8.14958L27.745 7.15242L27.745 7.15242L27.6697 8.14958ZM10.5808 8.14958L10.5055 7.15242L10.5055 7.15242L10.5808 8.14958ZM8.52267 10.2068L7.52553 10.1312L7.52553 10.1312L8.52267 10.2068ZM14.3066 17.7184C13.7544 17.7184 13.3066 18.1661 13.3066 18.7184C13.3066 19.2707 13.7544 19.7184 14.3066 19.7184V17.7184ZM23.9442 19.7184C24.4965 19.7184 24.9442 19.2707 24.9442 18.7184C24.9442 18.1661 24.4965 17.7184 23.9442 17.7184V19.7184ZM20.1247 13.8998C20.1247 13.3475 19.677 12.8998 19.1247 12.8998C18.5724 12.8998 18.1247 13.3475 18.1247 13.8998H20.1247ZM18.1247 23.5373C18.1247 24.0896 18.5724 24.5373 19.1247 24.5373C19.677 24.5373 20.1247 24.0896 20.1247 23.5373H18.1247ZM24.7115 7.93351C24.6566 6.67642 24.5807 5.40948 24.4833 4.12482L22.489 4.27614C22.5849 5.53987 22.6594 6.78543 22.7134 8.02073L24.7115 7.93351ZM24.4832 4.1247C24.3621 2.53111 23.0966 1.26666 21.5033 1.14628L21.3526 3.1406C21.9608 3.18655 22.4428 3.66834 22.489 4.27626L24.4832 4.1247ZM21.5033 1.14628C15.6214 0.701891 10.1457 0.701891 4.26384 1.14628L4.41451 3.1406C10.1961 2.70379 15.571 2.70379 21.3526 3.1406L21.5033 1.14628ZM4.26383 1.14628C2.67052 1.26666 1.40477 2.53137 1.2839 4.12504L3.27817 4.27629C3.32427 3.66849 3.80632 3.18655 4.41451 3.1406L4.26383 1.14628ZM1.2839 4.12503C0.840262 9.97378 0.840262 15.451 1.2839 21.2997L3.27817 21.1485C2.84217 15.4004 2.84217 10.0243 3.27817 4.2763L1.2839 4.12503ZM1.2839 21.2997C1.40476 22.8933 2.67019 24.158 4.26357 24.2785L4.41431 22.2841C3.80619 22.2382 3.32428 21.7564 3.27817 21.1485L1.2839 21.2997ZM4.2636 24.2785C5.59916 24.3794 6.91416 24.4573 8.21806 24.5124L8.30252 22.5142C7.02147 22.46 5.72856 22.3835 4.41429 22.2841L4.2636 24.2785ZM7.52554 27.306C7.64643 28.8995 8.91215 30.1642 10.5055 30.2846L10.6562 28.2903C10.0479 28.2443 9.56591 27.7623 9.5198 27.1547L7.52554 27.306ZM10.5055 30.2846C16.3874 30.7291 21.863 30.7291 27.745 30.2846L27.5943 28.2903C21.8126 28.7272 16.4377 28.7272 10.6562 28.2903L10.5055 30.2846ZM27.745 30.2846C29.3381 30.1642 30.6041 28.8995 30.7249 27.3059L28.7306 27.1547C28.6845 27.7623 28.2024 28.2443 27.5943 28.2903L27.745 30.2846ZM30.7249 27.306C31.1684 21.4571 31.1684 15.9799 30.7249 10.1312L28.7306 10.2824C29.1665 16.0305 29.1665 21.4066 28.7306 27.1547L30.7249 27.306ZM30.7249 10.1312C30.6041 8.53748 29.3381 7.27282 27.745 7.15242L27.5943 9.14673C28.2024 9.19269 28.6845 9.67468 28.7306 10.2824L30.7249 10.1312ZM27.745 7.15242C21.863 6.70803 16.3874 6.70803 10.5055 7.15242L10.6562 9.14673C16.4377 8.70993 21.8126 8.70993 27.5943 9.14673L27.745 7.15242ZM10.5055 7.15242C8.91214 7.27281 7.64642 8.5375 7.52553 10.1312L9.51981 10.2824C9.56591 9.67461 10.0479 9.19269 10.6562 9.14673L10.5055 7.15242ZM7.52553 10.1312C7.0819 15.9799 7.0819 21.4571 7.52553 27.306L9.51981 27.1547C9.08381 21.4066 9.08381 16.0305 9.51981 10.2824L7.52553 10.1312ZM14.3066 19.7184H23.9442V17.7184H14.3066V19.7184ZM18.1247 13.8998V23.5373H20.1247V13.8998H18.1247Z" fill="#111827"/>
</svg>
