<svg width="32" height="32" viewBox="0 0 32 32" fill="none" xmlns="http://www.w3.org/2000/svg">
<path d="M19.6115 29.2374C20.1444 29.092 20.4585 28.5423 20.3131 28.0095C20.1677 27.4767 19.618 27.1626 19.0852 27.3079L19.6115 29.2374ZM9.63907 27.0169L9.13906 27.8829L9.13908 27.8829L9.63907 27.0169ZM4.98282 9.63951L5.84884 10.1395L5.84885 10.1395L4.98282 9.63951ZM6.97024 8.19718C7.24638 7.71888 7.0825 7.1073 6.60421 6.83115C6.12592 6.55501 5.51433 6.71889 5.23819 7.19719L6.97024 8.19718ZM12.5091 2.73038C11.975 2.87089 11.6559 3.41778 11.7964 3.95189C11.9369 4.48601 12.4838 4.80508 13.0179 4.66457L12.5091 2.73038ZM22.3602 4.98328L21.8602 5.84931V5.84931L22.3602 4.98328ZM27.0166 22.3607L27.8826 22.8607L27.0166 22.3607ZM24.7007 24.372C24.4246 24.8503 24.5884 25.4619 25.0667 25.738C25.545 26.0141 26.1566 25.8503 26.4328 25.372L24.7007 24.372ZM28.8382 26.028C29.3805 25.9237 29.7357 25.3996 29.6315 24.8572C29.5273 24.3149 29.0031 23.9597 28.4608 24.0639L28.8382 26.028ZM25.0675 25.7341L24.1227 26.0618C24.2855 26.5312 24.7683 26.8099 25.2562 26.7162L25.0675 25.7341ZM24.8174 21.9604C24.6364 21.4386 24.0667 21.1622 23.5449 21.3432C23.0231 21.5241 22.7468 22.0938 22.9277 22.6156L24.8174 21.9604ZM2.86699 6.3887C2.32462 6.4929 1.96942 7.01705 2.07362 7.55941C2.17783 8.10178 2.70197 8.45698 3.24434 8.35278L2.86699 6.3887ZM6.69875 6.6708L7.64356 6.34318C7.48077 5.87374 6.99801 5.59502 6.51007 5.68877L6.69875 6.6708ZM6.96932 10.5034C7.15026 11.0252 7.71995 11.3015 8.24176 11.1206C8.76356 10.9396 9.03988 10.3699 8.85894 9.84814L6.96932 10.5034ZM15.6179 12.4447C15.6179 12.9969 16.0656 13.4447 16.6179 13.4447C17.1702 13.4447 17.6179 12.9969 17.6179 12.4447H15.6179ZM17.6179 10.6669C17.6179 10.1146 17.1702 9.66687 16.6179 9.66687C16.0656 9.66687 15.6179 10.1146 15.6179 10.6669H17.6179ZM15.6179 21.3336C15.6179 21.8859 16.0656 22.3336 16.6179 22.3336C17.1702 22.3336 17.6179 21.8859 17.6179 21.3336H15.6179ZM17.6179 19.5558C17.6179 19.0035 17.1702 18.5558 16.6179 18.5558C16.0656 18.5558 15.6179 19.0035 15.6179 19.5558H17.6179ZM19.1958 13.3564C18.7175 13.6325 18.5536 14.2441 18.8297 14.7224C19.1059 15.2007 19.7175 15.3646 20.1958 15.0885L19.1958 13.3564ZM21.7354 14.1996C22.2137 13.9234 22.3775 13.3118 22.1014 12.8335C21.8253 12.3552 21.2137 12.1914 20.7354 12.4675L21.7354 14.1996ZM11.4999 17.8009C11.0216 18.0771 10.8577 18.6887 11.1338 19.1669C11.41 19.6452 12.0216 19.8091 12.4999 19.533L11.4999 17.8009ZM14.0395 18.6441C14.5178 18.3679 14.6817 17.7563 14.4055 17.2781C14.1294 16.7998 13.5178 16.6359 13.0395 16.912L14.0395 18.6441ZM20.1958 16.9114C19.7175 16.6353 19.1059 16.7992 18.8297 17.2775C18.5536 17.7558 18.7175 18.3674 19.1958 18.6435L20.1958 16.9114ZM20.7354 19.5324C21.2137 19.8085 21.8253 19.6447 22.1014 19.1664C22.3775 18.6881 22.2137 18.0765 21.7354 17.8003L20.7354 19.5324ZM12.4999 12.4675C12.0216 12.1914 11.41 12.3552 11.1338 12.8335C10.8577 13.3118 11.0216 13.9234 11.4999 14.1996L12.4999 12.4675ZM13.0395 15.0885C13.5178 15.3646 14.1294 15.2007 14.4055 14.7225C14.6817 14.2442 14.5178 13.6326 14.0395 13.3564L13.0395 15.0885ZM19.0852 27.3079C16.1724 28.1025 12.9591 27.779 10.1391 26.1509L9.13908 27.8829C12.4398 29.7885 16.2051 30.1667 19.6115 29.2374L19.0852 27.3079ZM10.1391 26.1509C4.53294 22.9141 2.61214 15.7456 5.84884 10.1395L4.11679 9.13951C0.327801 15.7022 2.57637 24.0939 9.13906 27.8829L10.1391 26.1509ZM5.84885 10.1395L6.97024 8.19718L5.23819 7.19719L4.11679 9.13952L5.84885 10.1395ZM13.0179 4.66457C15.903 3.90558 19.0736 4.24046 21.8602 5.84931L22.8602 4.11726C19.5987 2.23422 15.8834 1.84271 12.5091 2.73038L13.0179 4.66457ZM21.8602 5.84931C27.4664 9.08601 29.3871 16.2545 26.1505 21.8607L27.8826 22.8607C31.6714 16.298 29.423 7.90625 22.8602 4.11726L21.8602 5.84931ZM26.1505 21.8607L24.7007 24.372L26.4328 25.372L27.8826 22.8607L26.1505 21.8607ZM28.4608 24.0639L24.8788 24.7521L25.2562 26.7162L28.8382 26.028L28.4608 24.0639ZM26.0123 25.4065L24.8174 21.9604L22.9277 22.6156L24.1227 26.0618L26.0123 25.4065ZM3.24434 8.35278L6.88742 7.65284L6.51007 5.68877L2.86699 6.3887L3.24434 8.35278ZM5.75394 6.99843L6.96932 10.5034L8.85894 9.84814L7.64356 6.34318L5.75394 6.99843ZM19.1743 16.0007C19.1743 17.4116 18.0304 18.5555 16.6195 18.5555V20.5555C19.135 20.5555 21.1743 18.5162 21.1743 16.0007H19.1743ZM16.6195 18.5555C15.2085 18.5555 14.0647 17.4116 14.0647 16.0007H12.0647C12.0647 18.5162 14.1039 20.5555 16.6195 20.5555V18.5555ZM14.0647 16.0007C14.0647 14.5897 15.2085 13.4459 16.6195 13.4459V11.4459C14.1039 11.4459 12.0647 13.4851 12.0647 16.0007H14.0647ZM16.6195 13.4459C18.0304 13.4459 19.1743 14.5897 19.1743 16.0007H21.1743C21.1743 13.4851 19.135 11.4459 16.6195 11.4459V13.4459ZM17.6179 12.4447V10.6669H15.6179V12.4447H17.6179ZM17.6179 21.3336V19.5558H15.6179V21.3336H17.6179ZM20.1958 15.0885L21.7354 14.1996L20.7354 12.4675L19.1958 13.3564L20.1958 15.0885ZM12.4999 19.533L14.0395 18.6441L13.0395 16.912L11.4999 17.8009L12.4999 19.533ZM19.1958 18.6435L20.7354 19.5324L21.7354 17.8003L20.1958 16.9114L19.1958 18.6435ZM11.4999 14.1996L13.0395 15.0885L14.0395 13.3564L12.4999 12.4675L11.4999 14.1996Z" fill="#111827"/>
</svg>
