<svg width="32" height="32" viewBox="0 0 32 32" fill="none" xmlns="http://www.w3.org/2000/svg">
<g clip-path="url(#clip0_217_2666)">
<path d="M24.5172 30.286V19.2969M19.0222 24.7918H30.0112M2.17376 10.0823C2.30926 11.3488 3.32789 12.3675 4.59379 12.5085C5.53406 12.6133 6.49946 12.7034 7.48376 12.7034C8.46805 12.7034 9.43347 12.6133 10.3737 12.5085C11.6396 12.3675 12.6583 11.3488 12.7938 10.0823C12.8938 9.14734 12.9783 8.18745 12.9783 7.20887C12.9783 6.23026 12.8938 5.27038 12.7938 4.33543C12.6583 3.06892 11.6396 2.05028 10.3737 1.90918C9.43347 1.80437 8.46805 1.71436 7.48376 1.71436C6.49946 1.71436 5.53406 1.80437 4.59379 1.90918C3.32789 2.05028 2.30926 3.06892 2.17376 4.33543C2.07373 5.27038 1.98926 6.23026 1.98926 7.20887C1.98926 8.18745 2.07373 9.14734 2.17376 10.0823ZM2.17376 27.665C2.30926 28.9315 3.32789 29.95 4.59379 30.091C5.53406 30.196 6.49946 30.286 7.48376 30.286C8.46805 30.286 9.43347 30.196 10.3737 30.091C11.6396 29.95 12.6583 28.9315 12.7938 27.665C12.8938 26.7299 12.9783 25.7701 12.9783 24.7914C12.9783 23.8129 12.8938 22.853 12.7938 21.918C12.6583 20.6515 11.6396 19.6329 10.3737 19.4918C9.43347 19.387 8.46805 19.2969 7.48376 19.2969C6.49946 19.2969 5.53406 19.387 4.59379 19.4918C3.32789 19.6329 2.30926 20.6515 2.17376 21.918C2.07373 22.853 1.98926 23.8129 1.98926 24.7914C1.98926 25.7701 2.07373 26.7299 2.17376 27.665ZM19.2067 10.0823C19.3422 11.3488 20.3608 12.3675 21.6267 12.5085C22.567 12.6133 23.5323 12.7034 24.5168 12.7034C25.501 12.7034 26.4665 12.6133 27.4066 12.5085C28.6726 12.3675 29.6912 11.3488 29.8267 10.0823C29.9268 9.14734 30.0112 8.18745 30.0112 7.20887C30.0112 6.23026 29.9268 5.27038 29.8267 4.33543C29.6912 3.06892 28.6726 2.05028 27.4066 1.90918C26.4665 1.80437 25.501 1.71436 24.5168 1.71436C23.5323 1.71436 22.567 1.80437 21.6267 1.90918C20.3608 2.05028 19.3422 3.06892 19.2067 4.33543C19.1067 5.27038 19.0222 6.23026 19.0222 7.20887C19.0222 8.18745 19.1067 9.14734 19.2067 10.0823Z" stroke="#111827" stroke-width="2" stroke-linecap="round" stroke-linejoin="round"/>
</g>
<defs>
<clipPath id="clip0_217_2666">
<rect width="32" height="32" fill="white"/>
</clipPath>
</defs>
</svg>
