<svg width="32" height="32" viewBox="0 0 32 32" fill="none" xmlns="http://www.w3.org/2000/svg">
<path d="M9.39965 25.8803H7.99958V12.8028L14.9003 2.98087C15.4581 2.18691 16.3676 1.71436 17.338 1.71436C19.1474 1.71436 20.5391 3.31422 20.2884 5.10624L19.7683 8.82455H24.318C26.307 8.82455 30.2853 10.8136 30.2853 14.7919C30.2853 18.7701 26.2853 27.8693 22.0541 27.8693C16.4845 27.8693 11.7203 26.5434 9.39965 25.8803Z" stroke="#111827" stroke-width="2" stroke-linejoin="round"/>
<path d="M1.71387 12.2858C1.71387 10.55 3.12098 9.14293 4.85672 9.14293C6.59247 9.14293 7.99958 10.55 7.99958 12.2858V25.4286C7.99958 27.1644 6.59247 28.5715 4.85672 28.5715C3.12098 28.5715 1.71387 27.1644 1.71387 25.4286V12.2858Z" stroke="#111827" stroke-width="2" stroke-linejoin="round"/>
</svg>
