<svg width="32" height="32" viewBox="0 0 32 32" fill="none" xmlns="http://www.w3.org/2000/svg">
<g clip-path="url(#clip0_217_1345)">
<path d="M30.101 27.6648C29.9655 28.9313 28.9467 29.9498 27.6809 30.091C26.7408 30.1957 25.7753 30.2858 24.7911 30.2858C23.8066 30.2858 22.8412 30.1957 21.901 30.091C20.6351 29.9498 19.6165 28.9313 19.4809 27.6648C19.3809 26.7299 19.2965 25.7699 19.2965 24.7914C19.2965 23.8126 19.3809 22.8528 19.4809 21.9179C19.6165 20.6514 20.6351 19.6327 21.901 19.4916C22.8412 19.3868 23.8066 19.2968 24.7911 19.2968C25.7753 19.2968 26.7408 19.3868 27.6809 19.4916C28.9467 19.6327 29.9655 20.6514 30.101 21.9179C30.2009 22.8528 30.2855 23.8126 30.2855 24.7914C30.2855 25.7699 30.2009 26.7299 30.101 27.6648Z" stroke="#111827" stroke-width="2" stroke-linecap="round" stroke-linejoin="round"/>
<path d="M24.6057 1.71436C20.9708 1.71436 18.9261 3.75904 18.9261 7.39404C18.9261 11.0291 20.9708 13.0737 24.6057 13.0737C28.2407 13.0737 30.2855 11.0291 30.2855 7.39404C30.2855 3.75904 28.2407 1.71436 24.6057 1.71436Z" stroke="#111827" stroke-width="2" stroke-linecap="round" stroke-linejoin="round"/>
<path d="M7.39372 18.9264C3.75873 18.9264 1.71404 20.9711 1.71404 24.606C1.71404 28.241 3.75873 30.2858 7.39372 30.2858C11.0287 30.2858 13.0734 28.241 13.0734 24.606C13.0734 20.9711 11.0287 18.9264 7.39372 18.9264Z" stroke="#111827" stroke-width="2" stroke-linecap="round" stroke-linejoin="round"/>
<path d="M12.5184 10.0823C12.3829 11.3488 11.3642 12.3675 10.0983 12.5085C9.15809 12.6133 8.19267 12.7034 7.20838 12.7034C6.22408 12.7034 5.25866 12.6133 4.31841 12.5085C3.05251 12.3675 2.03387 11.3488 1.89837 10.0823C1.79834 9.14734 1.71387 8.18745 1.71387 7.20887C1.71387 6.23026 1.79834 5.27038 1.89837 4.33543C2.03387 3.06892 3.05251 2.05028 4.31841 1.90918C5.25866 1.80437 6.22408 1.71436 7.20838 1.71436C8.19267 1.71436 9.15809 1.80437 10.0983 1.90918C11.3642 2.05028 12.3829 3.06892 12.5184 4.33543C12.6184 5.27038 12.7029 6.23026 12.7029 7.20887C12.7029 8.18745 12.6184 9.14734 12.5184 10.0823Z" stroke="#111827" stroke-width="2" stroke-linecap="round" stroke-linejoin="round"/>
</g>
<defs>
<clipPath id="clip0_217_1345">
<rect width="32" height="32" fill="white"/>
</clipPath>
</defs>
</svg>
