<svg width="32" height="32" viewBox="0 0 32 32" fill="none" xmlns="http://www.w3.org/2000/svg">
<path d="M4.44922 9.02775H8.44922M4 15.9996H8M4 22.9734H8M25.7134 29.5355C26.2052 29.4829 26.6633 29.2462 27.0056 28.8677C27.3478 28.4893 27.5519 27.9939 27.5812 27.4703C27.7955 23.7542 27.9101 20.1328 27.9101 16.0001C27.9101 11.8674 27.7955 8.24599 27.579 4.52995C27.5498 4.00636 27.3457 3.51095 27.0034 3.13251C26.6612 2.75407 26.2031 2.51734 25.7113 2.46474C20.1332 1.84509 14.5093 1.84509 8.9312 2.46474C8.43977 2.51784 7.98219 2.75479 7.64036 3.13319C7.29854 3.51158 7.09478 4.00671 7.06557 4.52995C6.84114 8.34867 6.73071 12.174 6.73447 16.0001C6.73447 20.1328 6.84908 23.7542 7.06557 27.4703C7.12924 28.5513 7.91455 29.4274 8.93332 29.5355C14.7658 30.1548 19.8788 30.1548 25.7134 29.5355ZM14.2715 7.98323H20.3714C20.3714 7.98323 21.9633 7.98323 21.9633 9.67234V11.947C21.9633 11.947 21.9633 13.6361 20.3714 13.6361H14.2715C14.2715 13.6361 12.6797 13.6361 12.6797 11.947V9.67234C12.6797 9.67234 12.6797 7.98323 14.2715 7.98323Z" stroke="#111827" stroke-width="2" stroke-linecap="round" stroke-linejoin="round"/>
</svg>
