<svg width="32" height="32" viewBox="0 0 32 32" fill="none" xmlns="http://www.w3.org/2000/svg">
<g clip-path="url(#clip0_217_840)">
<path d="M10.5375 26.7038C7.74896 26.6672 7.27582 26.5369 4.87582 26.0592C4.18634 25.9157 3.55204 25.5787 3.04723 25.0876C2.54242 24.5966 2.18801 23.9719 2.02553 23.2866C1.4541 20.978 1.4541 16.1095 1.4541 12.3769C1.4541 8.64433 1.4541 6.97347 2.02553 4.66719C2.1884 3.98189 2.54288 3.35707 3.04759 2.86572C3.5523 2.37437 4.1864 2.03676 4.87582 1.89233C8.1901 1.23633 12.1832 1.23633 16.0004 1.23633C19.8175 1.23633 23.8107 1.23633 27.125 1.89233C27.8143 2.03638 28.4483 2.3739 28.9527 2.86535C29.4571 3.3568 29.811 3.98182 29.973 4.66719C30.5444 6.97347 30.5444 8.64433 30.5444 12.3769C30.5444 16.1095 30.5444 20.9803 29.973 23.2866C29.8267 23.8855 29.5387 24.4295 29.1501 24.8775M16.1421 22.5095C15.8951 24.9977 15.8737 27.5031 16.0781 29.9952C16.0839 30.0692 16.1099 30.1403 16.1532 30.2006C16.1965 30.261 16.2555 30.3083 16.3238 30.3375C16.3921 30.3667 16.467 30.3766 16.5406 30.3663C16.6141 30.3559 16.6834 30.3256 16.741 30.2786L19.0564 28.4112C19.233 28.2683 19.4532 28.1903 19.6804 28.1903C19.9075 28.1903 20.1278 28.2683 20.3044 28.4112L22.6175 30.2786C22.8712 30.4843 23.253 30.322 23.2804 29.9952C23.4854 27.5031 23.464 24.9976 23.2164 22.5095M19.6804 23.602C21.1353 23.602 22.5306 23.0241 23.5594 21.9953C24.5881 20.9665 25.1661 19.5712 25.1661 18.1163C25.1661 16.6614 24.5881 15.2661 23.5594 14.2373C22.5306 13.2086 21.1353 12.6306 19.6804 12.6306C18.2255 12.6306 16.8302 13.2086 15.8014 14.2373C14.7726 15.2661 14.1947 16.6614 14.1947 18.1163C14.1947 19.5712 14.7726 20.9665 15.8014 21.9953C16.8302 23.0241 18.2255 23.602 19.6804 23.602ZM19.6804 18.8523C19.4852 18.8523 19.298 18.7748 19.16 18.6368C19.0219 18.4987 18.9444 18.3115 18.9444 18.1163C18.9444 17.9211 19.0219 17.7339 19.16 17.5959C19.298 17.4579 19.4852 17.3803 19.6804 17.3803C19.8756 17.3803 20.0628 17.4579 20.2008 17.5959C20.3388 17.7339 20.4164 17.9211 20.4164 18.1163C20.4164 18.3115 20.3388 18.4987 20.2008 18.6368C20.0628 18.7748 19.8756 18.8523 19.6804 18.8523Z" stroke="#111827" stroke-width="2" stroke-linecap="round" stroke-linejoin="round"/>
</g>
<defs>
<clipPath id="clip0_217_840">
<rect width="32" height="32" fill="white"/>
</clipPath>
</defs>
</svg>
