<svg width="32" height="32" viewBox="0 0 32 32" fill="none" xmlns="http://www.w3.org/2000/svg">
<path d="M1.62695 7.45624H13.0555M1.62695 14.8802H13.0555M1.73667 29.7305H29.8007M1.73667 22.3065H29.8007M21.0121 7.21167C21.9515 6.27224 22.0978 5.41052 22.779 4.54195C22.9018 4.38302 23.0594 4.25435 23.2396 4.16581C23.4199 4.07728 23.6181 4.03125 23.819 4.03125C24.0198 4.03125 24.218 4.07728 24.3983 4.16581C24.5786 4.25435 24.7361 4.38302 24.859 4.54195C25.5401 5.41052 25.6864 6.27224 26.6235 7.21167C27.563 8.14881 28.4247 8.2951 29.2932 8.97624C29.4522 9.09904 29.5808 9.25664 29.6694 9.43693C29.7579 9.61721 29.8039 9.81539 29.8039 10.0162C29.8039 10.2171 29.7579 10.4153 29.6694 10.5956C29.5808 10.7758 29.4522 10.9334 29.2932 11.0562C28.4247 11.7374 27.563 11.8837 26.6235 12.8231C25.6864 13.7602 25.5401 14.622 24.859 15.4905C24.7361 15.6495 24.5786 15.7781 24.3983 15.8667C24.218 15.9552 24.0198 16.0012 23.819 16.0012C23.6181 16.0012 23.4199 15.9552 23.2396 15.8667C23.0594 15.7781 22.9018 15.6495 22.779 15.4905C22.0978 14.622 21.9515 13.7602 21.0121 12.8231C20.075 11.8837 19.2132 11.7374 18.3447 11.0562C18.1857 10.9334 18.0571 10.7758 17.9685 10.5956C17.88 10.4153 17.834 10.2171 17.834 10.0162C17.834 9.81539 17.88 9.61721 17.9685 9.43693C18.0571 9.25664 18.1857 9.09904 18.3447 8.97624C19.2132 8.2951 20.0727 8.14881 21.0121 7.21167Z" stroke="#111827" stroke-width="2" stroke-linecap="round" stroke-linejoin="round"/>
</svg>
