<svg width="32" height="32" viewBox="0 0 32 32" fill="none" xmlns="http://www.w3.org/2000/svg">
<path d="M19.3484 28.2727C16.1888 29.1346 12.6994 28.7837 9.63907 27.0169C3.55466 23.504 1.46997 15.7239 4.98282 9.63951L6.10421 7.69718M12.7635 3.69748C15.8932 2.87414 19.3361 3.23734 22.3602 4.98328C28.4447 8.49613 30.5292 16.2762 27.0166 22.3607L25.5667 24.872M28.6495 25.0459L25.0675 25.7341L23.8726 22.288M3.05566 7.37074L6.69875 6.67081L7.91413 10.1758M11.9999 20.0001L14.865 11.4046C15.0119 10.964 15.4243 10.6668 15.8888 10.6668C16.3532 10.6668 16.7655 10.964 16.9125 11.4046L19.7776 20.0001M13.0364 16.8889H18.7402" stroke="#111827" stroke-width="2" stroke-linecap="round" stroke-linejoin="round"/>
</svg>
