<svg width="32" height="32" viewBox="0 0 32 32" fill="none" xmlns="http://www.w3.org/2000/svg">
<g clip-path="url(#clip0_217_461)">
<path d="M13.9654 28.4751C14.2582 29.0222 14.694 29.4796 15.2264 29.7985C15.7588 30.1174 16.3677 30.2858 16.9882 30.2858C17.6088 30.2858 18.2177 30.1174 18.7501 29.7985C19.2824 29.4796 19.7183 29.0222 20.0111 28.4751M9.38938 9.77795C9.78587 7.84408 10.8865 6.12641 12.4778 4.95815C14.0691 3.78989 16.0376 3.25432 18.0015 3.45534C19.9653 3.65637 21.7845 4.57965 23.1061 6.04609C24.4277 7.51252 25.1575 9.41757 25.154 11.3917C25.154 12.5962 25.4351 14.1117 25.666 14.9985C25.73 15.1951 25.7985 15.3848 25.8717 15.5654C26.3677 16.8271 27.8762 17.2317 28.8888 18.13C30.1642 19.2614 29.8557 21.4328 28.6877 22.2991C28.6877 22.2991 27.666 23.1814 23.5265 23.6751M17.1882 23.9997C7.65681 23.9997 5.69109 22.2991 5.69109 22.2991C4.52309 21.4328 4.21452 19.2591 5.48995 18.13C6.50252 17.2317 8.00881 16.8271 8.50709 15.5654C8.58202 15.3788 8.65063 15.1897 8.71281 14.9985M1.37109 1.37109C11.4191 14.2442 17.4808 20.2328 30.6282 30.6282" stroke="#111827" stroke-width="2" stroke-linecap="round" stroke-linejoin="round"/>
</g>
<defs>
<clipPath id="clip0_217_461">
<rect width="32" height="32" fill="white"/>
</clipPath>
</defs>
</svg>
