<svg width="32" height="32" viewBox="0 0 32 32" fill="none" xmlns="http://www.w3.org/2000/svg">
<path d="M6.28012 1.7207C4.53105 3.46978 3.30458 5.64375 2.70117 8.00002M25.6246 1.7207C27.3737 3.46978 28.6002 5.64375 29.2036 8.00002M12.9763 28.4752C13.5542 29.5529 14.6914 30.2857 15.9997 30.2857C17.3081 30.2857 18.4452 29.5529 19.0232 28.4752M10.3682 5.76128C11.8618 4.26768 13.8876 3.42857 15.9999 3.42857C18.1122 3.42857 20.1379 4.26768 21.6315 5.76128C23.1252 7.2549 23.9643 9.28066 23.9643 11.393C23.9643 12.6358 24.1693 13.8036 24.4779 14.9982C24.541 15.1957 24.6089 15.385 24.6806 15.5666C25.1796 16.827 26.6864 17.2309 27.7001 18.1308C28.9737 19.2615 28.6665 21.4339 27.4973 22.2984C27.4973 22.2984 25.5316 24 15.9999 24C6.46803 24 4.50247 22.2984 4.50247 22.2984C3.33338 21.4339 3.02604 19.2615 4.29973 18.1308C5.31349 17.2309 6.82019 16.8269 7.31907 15.5665C7.74993 14.4779 8.0355 13.1082 8.0355 11.393C8.0355 9.28066 8.87459 7.2549 10.3682 5.76128Z" stroke="#111827" stroke-width="2" stroke-linecap="round" stroke-linejoin="round"/>
</svg>
