<svg width="32" height="32" viewBox="0 0 32 32" fill="none" xmlns="http://www.w3.org/2000/svg">
<path d="M12.9769 28.4753C13.5548 29.553 14.692 30.2858 16.0003 30.2858C17.3086 30.2858 18.4458 29.553 19.0237 28.4753M9.74291 4.30626C11.4025 2.6467 13.6533 1.71436 16.0003 1.71436C18.3473 1.71436 20.5981 2.6467 22.2577 4.30626C23.9173 5.96583 24.8497 8.21669 24.8497 10.5637C24.8497 11.9446 25.0775 13.2422 25.4204 14.5695C25.5164 14.8699 25.6222 15.1534 25.7361 15.4209C26.2663 16.6684 27.7265 17.0941 28.8161 17.9006C30.4423 19.1046 30.1278 21.6806 28.7751 22.6808C28.7751 22.6808 26.5911 24.5715 16.0003 24.5715C5.40938 24.5715 3.22542 22.6808 3.22542 22.6808C1.87278 21.6806 1.55837 19.1046 3.1846 17.9006C4.27409 17.0941 5.7342 16.6685 6.26465 15.421C6.79338 14.1776 7.151 12.587 7.151 10.5637C7.151 8.21669 8.08334 5.96583 9.74291 4.30626Z" stroke="#111827" stroke-width="2" stroke-linecap="round" stroke-linejoin="round"/>
</svg>
