<svg width="32" height="32" viewBox="0 0 32 32" fill="none" xmlns="http://www.w3.org/2000/svg">
<g clip-path="url(#clip0_217_1362)">
<path d="M15.9996 11.8572C17.6465 11.8572 19.0744 11.3909 20.0895 10.3757C21.1047 9.36058 21.571 7.93271 21.571 6.28578H19.571C19.571 7.56457 19.2144 8.42242 18.6753 8.96153C18.1362 9.50065 17.2784 9.85721 15.9996 9.85721V11.8572ZM21.571 6.28578C21.571 4.63886 21.1047 3.21099 20.0895 2.19582C19.0744 1.18065 17.6465 0.714355 15.9996 0.714355V2.71436C17.2784 2.71436 18.1362 3.07092 18.6753 3.61003C19.2144 4.14915 19.571 5.007 19.571 6.28578H21.571ZM15.9996 0.714355C14.3527 0.714355 12.9248 1.18065 11.9096 2.19582C10.8944 3.21099 10.4282 4.63886 10.4282 6.28578H12.4282C12.4282 5.007 12.7847 4.14915 13.3238 3.61003C13.8629 3.07092 14.7208 2.71436 15.9996 2.71436V0.714355ZM10.4282 6.28578C10.4282 7.93271 10.8944 9.36058 11.9096 10.3757C12.9248 11.3909 14.3527 11.8572 15.9996 11.8572V9.85721C14.7208 9.85721 13.8629 9.50065 13.3238 8.96153C12.7847 8.42242 12.4282 7.56457 12.4282 6.28578H10.4282ZM5.14244 31.2858C6.42365 31.2858 7.5658 30.9223 8.38669 30.1015C9.20757 29.2806 9.57101 28.1384 9.57101 26.8572H7.57101C7.57101 27.7703 7.3173 28.3424 6.97248 28.6873C6.62765 29.0321 6.05551 29.2858 5.14244 29.2858V31.2858ZM9.57101 26.8572C9.57101 25.576 9.20757 24.4339 8.38669 23.613C7.5658 22.7921 6.42365 22.4286 5.14244 22.4286V24.4286C6.05551 24.4286 6.62765 24.6824 6.97248 25.0272C7.3173 25.372 7.57101 25.9441 7.57101 26.8572H9.57101ZM5.14244 22.4286C3.86123 22.4286 2.71908 22.7921 1.89819 23.613C1.0773 24.4339 0.713867 25.576 0.713867 26.8572H2.71387C2.71387 25.9441 2.96757 25.372 3.3124 25.0272C3.65723 24.6824 4.22936 24.4286 5.14244 24.4286V22.4286ZM0.713867 26.8572C0.713867 28.1384 1.0773 29.2806 1.89819 30.1015C2.71908 30.9223 3.86123 31.2858 5.14244 31.2858V29.2858C4.22936 29.2858 3.65723 29.0321 3.3124 28.6873C2.96757 28.3424 2.71387 27.7703 2.71387 26.8572H0.713867ZM15.9996 31.2858C17.2808 31.2858 18.4229 30.9223 19.2438 30.1015C20.0647 29.2806 20.4282 28.1384 20.4282 26.8572H18.4282C18.4282 27.7703 18.1744 28.3424 17.8296 28.6873C17.4848 29.0321 16.9127 29.2858 15.9996 29.2858V31.2858ZM20.4282 26.8572C20.4282 25.576 20.0647 24.4339 19.2438 23.613C18.4229 22.7921 17.2808 22.4286 15.9996 22.4286V24.4286C16.9127 24.4286 17.4848 24.6824 17.8296 25.0272C18.1744 25.372 18.4282 25.9441 18.4282 26.8572H20.4282ZM15.9996 22.4286C14.7184 22.4286 13.5762 22.7921 12.7553 23.613C11.9344 24.4339 11.571 25.576 11.571 26.8572H13.571C13.571 25.9441 13.8247 25.372 14.1695 25.0272C14.5144 24.6824 15.0865 24.4286 15.9996 24.4286V22.4286ZM11.571 26.8572C11.571 28.1384 11.9344 29.2806 12.7553 30.1015C13.5762 30.9223 14.7184 31.2858 15.9996 31.2858V29.2858C15.0865 29.2858 14.5144 29.0321 14.1695 28.6873C13.8247 28.3424 13.571 27.7703 13.571 26.8572H11.571ZM26.8567 31.2858C28.1379 31.2858 29.2801 30.9223 30.101 30.1015C30.9219 29.2806 31.2853 28.1384 31.2853 26.8572H29.2853C29.2853 27.7703 29.0316 28.3424 28.6868 28.6873C28.3419 29.0321 27.7698 29.2858 26.8567 29.2858V31.2858ZM31.2853 26.8572C31.2853 25.576 30.9219 24.4339 30.101 23.613C29.2801 22.7921 28.1379 22.4286 26.8567 22.4286V24.4286C27.7698 24.4286 28.3419 24.6824 28.6868 25.0272C29.0316 25.372 29.2853 25.9441 29.2853 26.8572H31.2853ZM26.8567 22.4286C25.5755 22.4286 24.4334 22.7921 23.6125 23.613C22.7916 24.4339 22.4282 25.576 22.4282 26.8572H24.4282C24.4282 25.9441 24.6819 25.372 25.0267 25.0272C25.3715 24.6824 25.9437 24.4286 26.8567 24.4286V22.4286ZM22.4282 26.8572C22.4282 28.1384 22.7916 29.2806 23.6125 30.1015C24.4334 30.9223 25.5755 31.2858 26.8567 31.2858V29.2858C25.9437 29.2858 25.3715 29.0321 25.0267 28.6873C24.6819 28.3424 24.4282 27.7703 24.4282 26.8572H22.4282ZM5.57101 23.4286V21.1429H3.57101V23.4286H5.57101ZM5.57101 21.1429C5.57101 19.1705 7.16999 17.5715 9.14244 17.5715V15.5715C6.06542 15.5715 3.57101 18.0659 3.57101 21.1429H5.57101ZM9.14244 17.5715H22.8567V15.5715H9.14244V17.5715ZM22.8567 17.5715C24.8292 17.5715 26.4282 19.1705 26.4282 21.1429H28.4282C28.4282 18.0659 25.9338 15.5715 22.8567 15.5715V17.5715ZM26.4282 21.1429V23.4286H28.4282V21.1429H26.4282ZM14.9996 10.8572V23.4286H16.9996V10.8572H14.9996Z" fill="#111827"/>
</g>
<defs>
<clipPath id="clip0_217_1362">
<rect width="32" height="32" fill="white"/>
</clipPath>
</defs>
</svg>
