<svg width="32" height="32" viewBox="0 0 32 32" fill="none" xmlns="http://www.w3.org/2000/svg">
<path d="M5.89672 5.89721L6.74015 6.74064M15.9996 1.71436V2.90293M30.2853 16.0001H29.0967M2.90244 16.0001H1.71387M26.1024 5.89721L25.259 6.74064M18.6419 30.2858H13.3573M22.619 12.6355C23.3047 13.8172 23.659 15.1589 23.6499 16.5258C23.6441 17.9422 23.2436 19.329 22.4933 20.5304C22.2419 20.9326 22.0064 21.2846 21.7916 21.6046C21.0144 22.7704 20.4796 23.5704 20.3287 25.0012H11.6727C11.5242 23.5246 10.9847 22.7224 10.1413 21.4744C9.96987 21.2229 9.78473 20.9486 9.59273 20.6515C9.03412 19.7958 8.6526 18.837 8.47068 17.8314C8.28875 16.8259 8.31012 15.7941 8.53351 14.797C8.7569 13.7998 9.17779 12.8576 9.77133 12.0258C10.3649 11.194 11.119 10.4895 11.9893 9.95395C12.8596 9.41841 13.8283 9.06264 14.8384 8.90765C15.8484 8.75266 16.8792 8.80158 17.8701 9.05153C18.8609 9.30148 19.7916 9.7474 20.6072 10.363C21.4228 10.9785 22.1069 11.7512 22.619 12.6355Z" stroke="#111827" stroke-width="2" stroke-linecap="round" stroke-linejoin="round"/>
</svg>
