<svg width="32" height="32" viewBox="0 0 32 32" fill="none" xmlns="http://www.w3.org/2000/svg">
<path d="M10.8652 1.71387V7.51771M21.1198 1.71387V7.51771M9.14323 13.8271H10.2861M9.14323 20.6839H10.2861M15.429 13.8271H16.5719M21.7145 13.8271H22.8574M15.429 20.6839H16.5719M2.49603 24.0565C2.86481 27.3463 5.53896 29.9587 8.84574 30.118C11.1313 30.2279 13.4662 30.2851 16.0002 30.2851C18.5342 30.2851 20.8691 30.2279 23.1547 30.118C26.4614 29.9587 29.1355 27.3463 29.5044 24.0565C29.7526 21.8408 29.9565 19.5693 29.9565 17.2554C29.9565 14.9414 29.7526 12.67 29.5044 10.4544C29.1355 7.16435 26.4614 4.55212 23.1547 4.39288C20.8691 4.2828 18.5342 4.22559 16.0002 4.22559C13.4662 4.22559 11.1313 4.2828 8.84574 4.39288C5.53896 4.55212 2.86481 7.16435 2.49603 10.4544C2.24769 12.67 2.04395 14.9414 2.04395 17.2554C2.04395 19.5693 2.24769 21.8408 2.49603 24.0565Z" stroke="#111827" stroke-width="2" stroke-linecap="round"/>
</svg>
