<svg width="32" height="32" viewBox="0 0 32 32" fill="none" xmlns="http://www.w3.org/2000/svg">
<path d="M14.1215 11.1929C14.1215 10.6406 13.6738 10.1929 13.1215 10.1929C12.5693 10.1929 12.1215 10.6406 12.1215 11.1929H14.1215ZM12.1215 12.1525C12.1215 12.7048 12.5693 13.1525 13.1215 13.1525C13.6738 13.1525 14.1215 12.7048 14.1215 12.1525H12.1215ZM19.8793 11.1929C19.8793 10.6406 19.4316 10.1929 18.8793 10.1929C18.3271 10.1929 17.8793 10.6406 17.8793 11.1929H19.8793ZM17.8793 12.1525C17.8793 12.7048 18.3271 13.1525 18.8793 13.1525C19.4316 13.1525 19.8793 12.7048 19.8793 12.1525H17.8793ZM13.005 16.4118C12.7076 15.9464 12.0893 15.8102 11.6239 16.1075C11.1585 16.4049 11.0222 17.0232 11.3196 17.4886L13.005 16.4118ZM20.6817 17.4886C20.979 17.0232 20.8427 16.4048 20.3773 16.1075C19.9119 15.8102 19.2936 15.9464 18.9963 16.4118L20.6817 17.4886ZM28.4153 10.5093L28.8905 9.62947C28.7445 9.55063 28.5812 9.50935 28.4153 9.50935V10.5093ZM25.1577 10.5093V9.50935C24.6054 9.50935 24.1577 9.95706 24.1577 10.5093H25.1577ZM25.1577 17.9696H24.1577C24.1577 18.5218 24.6054 18.9696 25.1577 18.9696V17.9696ZM28.4153 17.9696V18.9696C28.5812 18.9696 28.7445 18.9283 28.8905 18.8494L28.4153 17.9696ZM3.70721 10.5093V9.50935C3.5413 9.50935 3.378 9.55062 3.23203 9.62946L3.70721 10.5093ZM6.96479 10.5093H7.96479C7.96479 9.95706 7.51707 9.50935 6.96479 9.50935V10.5093ZM6.96479 17.9696V18.9696C7.51705 18.9696 7.96475 18.5219 7.96479 17.9696L6.96479 17.9696ZM3.70721 17.9696L3.232 18.8494C3.37798 18.9283 3.54129 18.9696 3.70721 18.9696V17.9696ZM24.0352 17.9696C24.0352 18.5219 24.4829 18.9696 25.0352 18.9696C25.5875 18.9696 26.0352 18.5219 26.0352 17.9696H24.0352ZM25.0352 9.37602L24.0355 9.35075L24.0352 9.36338V9.37602H25.0352ZM6.96529 9.37602L7.96529 9.37608L7.96529 9.36342L7.96497 9.35076L6.96529 9.37602ZM15.2492 27.3305C14.7043 27.4206 14.3356 27.9353 14.4257 28.4802C14.5158 29.0251 15.0305 29.3938 15.5754 29.3037L15.2492 27.3305ZM24.4484 21.1L25.3971 21.4164L25.3971 21.4162L24.4484 21.1ZM26.0368 17.4619C26.0368 16.9096 25.5891 16.4619 25.0368 16.4619C24.4845 16.4619 24.0368 16.9096 24.0368 17.4619H26.0368ZM12.1215 11.1929V12.1525H14.1215V11.1929H12.1215ZM17.8793 11.1929V12.1525H19.8793V11.1929H17.8793ZM11.3196 17.4886C11.8557 18.3277 13.4214 19.4521 16.0006 19.4521V17.4521C13.9738 17.4521 13.1086 16.574 13.005 16.4118L11.3196 17.4886ZM16.0006 19.4521C18.5798 19.4521 20.1456 18.3277 20.6817 17.4886L18.9963 16.4118C18.8926 16.574 18.0274 17.4521 16.0006 17.4521V19.4521ZM31.1422 14.2394C31.1422 11.646 29.7998 10.1206 28.8905 9.62947L27.9401 11.3892C28.1819 11.5198 29.1422 12.3568 29.1422 14.2394H31.1422ZM28.4153 9.50935H25.1577V11.5093H28.4153V9.50935ZM24.1577 10.5093V17.9696H26.1577V10.5093H24.1577ZM25.1577 18.9696H28.4153V16.9696H25.1577V18.9696ZM28.8905 18.8494C29.7998 18.3583 31.1422 16.8329 31.1422 14.2394H29.1422C29.1422 16.1221 28.1819 16.9591 27.9401 17.0897L28.8905 18.8494ZM2.98047 14.2394C2.98047 12.3567 3.94067 11.5198 4.18239 11.3892L3.23203 9.62946C2.32261 10.1206 0.980469 11.6461 0.980469 14.2394H2.98047ZM3.70721 11.5093H6.96479V9.50935H3.70721V11.5093ZM5.96479 10.5093V17.9696H7.96479V10.5093H5.96479ZM6.96479 16.9696H3.70721V18.9696H6.96479V16.9696ZM4.18242 17.0897C3.94066 16.9591 2.98047 16.1222 2.98047 14.2394H0.980469C0.980469 16.8328 2.32262 18.3583 3.232 18.8494L4.18242 17.0897ZM26.0352 17.9696V9.37602H24.0352V17.9696H26.0352ZM26.0349 9.40129C26.0789 7.65855 25.0947 5.51119 23.4147 3.82998C21.7002 2.1143 19.1714 0.786133 15.9785 0.786133V2.78613C18.5831 2.78613 20.6178 3.86059 21.9999 5.24369C23.4165 6.66126 24.0618 8.30885 24.0355 9.35075L26.0349 9.40129ZM15.9785 0.786133C12.785 0.786133 10.2659 2.1149 8.56163 3.83248C6.89122 5.51589 5.92167 7.66265 5.96561 9.40129L7.96497 9.35076C7.93853 8.30475 8.57688 6.65657 9.98132 5.2412C11.3519 3.85999 13.3746 2.78613 15.9785 2.78613V0.786133ZM5.96529 9.37596L5.96479 17.9695L7.96479 17.9696L7.96529 9.37608L5.96529 9.37596ZM15.5754 29.3037C18.7291 28.7823 20.9315 27.6514 22.4857 26.1864C24.0337 24.7273 24.8676 23.0035 25.3971 21.4164L23.4998 20.7835C23.032 22.186 22.3391 23.5762 21.1139 24.731C19.895 25.88 18.0779 26.8629 15.2492 27.3305L15.5754 29.3037ZM25.3971 21.4162C25.5599 20.9278 25.7171 20.1836 25.8325 19.4756C25.9479 18.767 26.0368 18 26.0368 17.4619H24.0368C24.0368 17.8369 23.9687 18.4776 23.8585 19.154C23.7482 19.8311 23.6112 20.4494 23.4998 20.7837L25.3971 21.4162Z" fill="#111827"/>
</svg>
