<svg width="32" height="32" viewBox="0 0 32 32" fill="none" xmlns="http://www.w3.org/2000/svg">
<g clip-path="url(#clip0_217_854)">
<path d="M30.8569 15.9997C30.8569 18.9382 29.9856 21.8107 28.3531 24.2539C26.7204 26.6971 24.4002 28.6016 21.6853 29.7259C18.9705 30.8505 15.9832 31.1446 13.1012 30.5714C10.2192 29.9981 7.57196 28.583 5.49415 26.5053C3.41632 24.4276 2.00133 21.7802 1.42806 18.8982C0.854794 16.0162 1.14902 13.0289 2.27352 10.3141C3.39801 7.59936 5.30229 5.27899 7.74553 3.64647C10.1888 2.01395 13.0613 1.14259 15.9997 1.14259C20.2558 1.13788 24.3497 2.7754 27.4283 5.71401M27.4283 5.71401L26.2854 1.14258M27.4283 5.71401L22.8569 6.85687M24.7058 27.9282C24.1145 26.0838 22.9526 24.4752 21.3879 23.3337C19.8232 22.1922 17.9364 21.5772 15.9996 21.5772C14.0628 21.5772 12.176 22.1922 10.6112 23.3337C9.04654 24.4752 7.88469 26.0838 7.29326 27.9282M15.9998 18.113C18.3233 18.113 20.2069 16.2294 20.2069 13.9058C20.2069 11.5823 18.3233 9.69874 15.9998 9.69874C13.6763 9.69874 11.7927 11.5823 11.7927 13.9058C11.7927 16.2294 13.6763 18.113 15.9998 18.113Z" stroke="#111827" stroke-width="2" stroke-linecap="round" stroke-linejoin="round"/>
</g>
<defs>
<clipPath id="clip0_217_854">
<rect width="32" height="32" fill="white"/>
</clipPath>
</defs>
</svg>
