<svg width="32" height="32" viewBox="0 0 32 32" fill="none" xmlns="http://www.w3.org/2000/svg">
<rect width="32" height="32" fill="#F7F8F9"/>
<path d="M-248 -1750C-248 -1751.1 -247.105 -1752 -246 -1752H614C615.105 -1752 616 -1751.1 616 -1750V1628C616 1629.1 615.105 1630 614 1630H-246C-247.105 1630 -248 1629.1 -248 1628V-1750Z" fill="white"/>
<path d="M-246 -1752V-1751H614V-1752V-1753H-246V-1752ZM616 -1750H615V1628H616H617V-1750H616ZM614 1630V1629H-246V1630V1631H614V1630ZM-248 1628H-247V-1750H-248H-249V1628H-248ZM-246 1630V1629C-246.552 1629 -247 1628.55 -247 1628H-248H-249C-249 1629.66 -247.657 1631 -246 1631V1630ZM616 1628H615C615 1628.55 614.552 1629 614 1629V1630V1631C615.657 1631 617 1629.66 617 1628H616ZM614 -1752V-1751C614.552 -1751 615 -1750.55 615 -1750H616H617C617 -1751.66 615.657 -1753 614 -1753V-1752ZM-246 -1752V-1753C-247.657 -1753 -249 -1751.66 -249 -1750H-248H-247C-247 -1750.55 -246.552 -1751 -246 -1751V-1752Z" fill="black" fill-opacity="0.1"/>
<rect width="664" height="360" transform="translate(-148 -164)" fill="white"/>
<g clip-path="url(#clip0_163_2012)">
<path d="M10.9996 12.5715H22.1424M10.9996 19.4286H19.4282M7.33101 2.31664C10.3084 1.97923 13.5748 1.71436 16.571 1.71436C19.5676 1.71436 22.8365 1.97928 25.8154 2.31676C27.8661 2.54905 29.4757 4.17333 29.6992 6.22492C30.0218 9.18677 30.2853 12.4498 30.2853 15.4286C30.2853 18.4083 30.0218 21.6775 29.699 24.643C29.4757 26.6947 27.8661 28.3189 25.8151 28.5491C22.8363 28.8835 19.5675 29.1429 16.571 29.1429C13.9578 29.1429 11.1392 28.9457 8.486 28.6734L1.71387 30.2858L3.28342 23.0659C3.03794 20.5452 2.85682 17.8882 2.85682 15.4286C2.85682 12.4497 3.12246 9.1867 3.44637 6.22482C3.67069 4.17333 5.2804 2.54903 7.33101 2.31664Z" stroke="#111827" stroke-width="2" stroke-linecap="round" stroke-linejoin="round"/>
</g>
<defs>
<clipPath id="clip0_163_2012">
<rect width="32" height="32" fill="white"/>
</clipPath>
</defs>
</svg>
