<svg width="32" height="32" viewBox="0 0 32 32" fill="none" xmlns="http://www.w3.org/2000/svg">
<path d="M27.1008 17.9797L26.317 18.6007L26.3175 18.6014L27.1008 17.9797ZM26.9906 17.6613L27.9906 17.6653V17.6613H26.9906ZM26.9906 14.3388H27.9906L27.9906 14.3349L26.9906 14.3388ZM27.1008 14.0205L26.3191 13.3967L26.317 13.3995L27.1008 14.0205ZM28.6333 12.1001L27.8519 11.476L27.8517 11.4763L28.6333 12.1001ZM28.8192 9.63067L29.685 9.13038L29.685 9.13033L28.8192 9.63067ZM27.9252 8.08375L27.0587 8.58295L27.0594 8.58409L27.9252 8.08375ZM26.976 7.20156L27.4103 6.3008L27.4103 6.30078L26.976 7.20156ZM25.6946 7.00823L25.5454 6.01943L25.5442 6.0196L25.6946 7.00823ZM23.266 7.37762L23.4051 8.36797L23.4164 8.36625L23.266 7.37762ZM22.9335 7.31436L22.4335 8.18043L22.4403 8.18429L22.9335 7.31436ZM20.0558 5.65312L19.5407 6.51027L19.5482 6.51479L19.5558 6.51917L20.0558 5.65312ZM19.8354 5.38782L20.7724 5.03845L20.7692 5.03008L20.766 5.02176L19.8354 5.38782ZM18.9395 3.11026L18.008 3.474L18.0089 3.47633L18.9395 3.11026ZM18.1344 2.09743L18.699 1.27205L18.699 1.27205L18.1344 2.09743ZM16.8986 1.71436L16.8999 0.714355H16.8986V1.71436ZM15.1068 1.71436V0.714355L15.1055 0.714356L15.1068 1.71436ZM13.871 2.09743L14.4356 2.92282L14.4356 2.92281L13.871 2.09743ZM13.066 3.11026L13.996 3.47777L13.9975 3.47396L13.066 3.11026ZM12.166 5.38782L13.0952 5.75738L13.096 5.75533L12.166 5.38782ZM11.9456 5.64496L12.4466 6.51042L12.4529 6.50672L11.9456 5.64496ZM9.06191 7.31436L9.55581 8.18391L9.56292 8.1798L9.06191 7.31436ZM8.72927 7.37762L8.57852 8.36625L8.58892 8.36773L8.72927 7.37762ZM6.3068 7.00823L6.45754 6.01966L6.45601 6.01942L6.3068 7.00823ZM5.02543 7.20156L4.59115 6.30077L4.59109 6.3008L5.02543 7.20156ZM4.07619 8.08375L4.94204 8.58407L4.94277 8.58279L4.07619 8.08375ZM3.18232 9.63067L4.04815 10.131L4.04816 10.131L3.18232 9.63067ZM2.89388 10.8941L3.89107 10.8191L3.89107 10.819L2.89388 10.8941ZM3.36803 12.1001L4.14963 11.4763L4.1493 11.4759L3.36803 12.1001ZM4.9007 14.0205L5.68478 13.3998L5.68229 13.3967L4.9007 14.0205ZM5.01089 14.3388L4.01089 14.3357V14.3388H5.01089ZM5.01089 17.6613H4.01088L4.01089 17.6645L5.01089 17.6613ZM4.9007 17.9797L5.6823 18.6034L5.68478 18.6003L4.9007 17.9797ZM3.36803 19.9001L4.1493 20.5243L4.14963 20.5239L3.36803 19.9001ZM2.89388 21.1061L3.89107 21.1811L3.89107 21.181L2.89388 21.1061ZM3.18232 22.3695L4.04816 21.8692L4.04814 21.8691L3.18232 22.3695ZM4.07619 23.9164L4.94277 23.4174L4.94204 23.4161L4.07619 23.9164ZM5.02543 24.7985L5.45995 23.8978L5.45955 23.8976L5.02543 24.7985ZM6.3068 24.9918L6.45631 25.9806L6.45716 25.9805L6.3068 24.9918ZM8.73537 24.6225L8.59543 23.6323L8.585 23.6338L8.73537 24.6225ZM9.06803 24.6858L9.56802 23.8197L9.56252 23.8166L9.06803 24.6858ZM11.9456 26.347L12.4522 25.4848L12.4456 25.481L11.9456 26.347ZM12.166 26.6042L13.097 26.2392L13.0953 26.2348L12.166 26.6042ZM13.0619 28.8899L13.9934 28.5261L13.9929 28.525L13.0619 28.8899ZM15.1027 30.2858L15.1017 31.2858H15.1027V30.2858ZM16.8905 30.2858V31.2858L16.8915 31.2858L16.8905 30.2858ZM18.1263 29.9027L18.6907 30.7282L18.6907 30.7282L18.1263 29.9027ZM18.9313 28.8899L18.0003 28.525L17.9998 28.5261L18.9313 28.8899ZM19.8272 26.6042L18.8979 26.2348L18.8962 26.2393L19.8272 26.6042ZM20.0476 26.347L19.5476 25.481L19.541 25.4848L20.0476 26.347ZM22.9252 24.6858L22.432 23.8158L22.4253 23.8197L22.9252 24.6858ZM23.2578 24.6225L23.4082 23.6338L23.3959 23.632L23.2578 24.6225ZM25.6864 24.9918L25.536 25.9805L25.5368 25.9806L25.6864 24.9918ZM26.9677 24.7985L26.5336 23.8976L26.5332 23.8978L26.9677 24.7985ZM27.917 23.9164L27.0512 23.4161L27.0503 23.4176L27.917 23.9164ZM28.8109 22.3695L29.6768 22.8698L29.6768 22.8698L28.8109 22.3695ZM28.6251 19.9001L27.8419 20.5218L27.844 20.5244L28.6251 19.9001ZM12.7176 16.779C12.3331 16.3825 11.7 16.3728 11.3035 16.7573C10.907 17.1417 10.8973 17.7748 11.2818 18.1713L12.7176 16.779ZM15.1851 20.7602L14.4672 21.4563C14.7088 21.7054 15.0621 21.8115 15.4009 21.7366C15.7397 21.6617 16.0155 21.4166 16.1295 21.0889L15.1851 20.7602ZM21.4316 12.7408C21.8406 12.3698 21.8714 11.7373 21.5003 11.3283C21.1293 10.9192 20.4969 10.8884 20.0878 11.2595L21.4316 12.7408ZM27.8846 17.3586C27.9535 17.4457 27.991 17.5538 27.9906 17.6653L25.9906 17.6573C25.9892 17.9999 26.1045 18.3325 26.317 18.6007L27.8846 17.3586ZM27.9906 17.6613V14.3388H25.9906V17.6613H27.9906ZM27.9906 14.3349C27.991 14.4464 27.9535 14.5545 27.8846 14.6415L26.317 13.3995C26.1045 13.6677 25.9892 14.0003 25.9906 14.3428L27.9906 14.3349ZM27.8824 14.6442L29.415 12.7238L27.8517 11.4763L26.3191 13.3967L27.8824 14.6442ZM29.4147 12.7241C29.8158 12.2219 30.0563 11.6102 30.1046 10.9691L28.1102 10.819C28.0922 11.059 28.0021 11.2879 27.8519 11.476L29.4147 12.7241ZM30.1046 10.9691C30.1528 10.3282 30.0068 9.68733 29.685 9.13038L27.9533 10.131C28.0736 10.3391 28.1283 10.5789 28.1102 10.819L30.1046 10.9691ZM29.685 9.13033L28.791 7.5834L27.0594 8.58409L27.9533 10.131L29.685 9.13033ZM28.7917 7.58455C28.4708 7.02757 27.9895 6.58011 27.4103 6.3008L26.5416 8.10231C26.7583 8.20677 26.9385 8.37421 27.0587 8.58295L28.7917 7.58455ZM27.4103 6.30078C26.8311 6.02155 26.1811 5.92348 25.5454 6.01943L25.8438 7.99703C26.0817 7.96114 26.3249 7.99783 26.5417 8.10233L27.4103 6.30078ZM25.5442 6.0196L23.1156 6.38899L23.4164 8.36625L25.845 7.99686L25.5442 6.0196ZM23.1269 6.38734C23.2302 6.37284 23.3355 6.39276 23.4266 6.44442L22.4403 8.18429C22.733 8.35023 23.0723 8.41464 23.4051 8.36791L23.1269 6.38734ZM23.4334 6.44831L20.5557 4.78707L19.5558 6.51917L22.4335 8.18041L23.4334 6.44831ZM20.5708 4.79597C20.6636 4.85173 20.7346 4.93724 20.7724 5.03845L18.8984 5.73718C19.0188 6.06006 19.2452 6.33268 19.5407 6.51027L20.5708 4.79597ZM20.766 5.02176L19.8701 2.7442L18.0089 3.47633L18.9048 5.75388L20.766 5.02176ZM19.871 2.74653C19.6374 2.1484 19.229 1.63456 18.699 1.27205L17.5699 2.92281C17.768 3.05833 17.9207 3.25042 18.008 3.474L19.871 2.74653ZM18.699 1.27205C18.169 0.909521 17.542 0.715175 16.8999 0.714356L16.8974 2.71435C17.1374 2.71466 17.3718 2.78731 17.5699 2.92281L18.699 1.27205ZM16.8986 0.714355H15.1068V2.71436H16.8986V0.714355ZM15.1055 0.714356C14.4634 0.715175 13.8364 0.909527 13.3065 1.27205L14.4356 2.92281C14.6337 2.78731 14.868 2.71466 15.1081 2.71435L15.1055 0.714356ZM13.3065 1.27204C12.7765 1.63455 12.368 2.1484 12.1345 2.74657L13.9975 3.47396C14.0848 3.25041 14.2374 3.05834 14.4356 2.92282L13.3065 1.27204ZM12.136 2.74276L11.236 5.02031L13.096 5.75533L13.996 3.47777L12.136 2.74276ZM11.2368 5.01826C11.276 4.91969 11.3469 4.837 11.4383 4.7832L12.4529 6.50672C12.7442 6.33521 12.9702 6.07158 13.0952 5.75737L11.2368 5.01826ZM11.4446 4.77952L8.56089 6.44892L9.56292 8.1798L12.4466 6.5104L11.4446 4.77952ZM8.56802 6.44483C8.65931 6.39298 8.76535 6.37274 8.86961 6.38752L8.58892 8.36773C8.92281 8.41505 9.26281 8.35029 9.55579 8.18388L8.56802 6.44483ZM8.88001 6.38905L6.45754 6.01966L6.15605 7.9968L8.57852 8.3662L8.88001 6.38905ZM6.45601 6.01942C5.82022 5.92348 5.17031 6.02156 4.59115 6.30077L5.4597 8.10234C5.67648 7.99783 5.91969 7.96114 6.15759 7.99704L6.45601 6.01942ZM4.59109 6.3008C4.01193 6.58007 3.53048 7.02753 3.20962 7.5847L4.94277 8.58279C5.06286 8.37426 5.24304 8.20681 5.45976 8.10231L4.59109 6.3008ZM3.21035 7.58343L2.31648 9.13036L4.04816 10.131L4.94203 8.58407L3.21035 7.58343ZM2.31648 9.13035C1.99478 9.68707 1.84846 10.3279 1.8967 10.9691L3.89107 10.819C3.87302 10.5791 3.92776 10.3394 4.04815 10.131L2.31648 9.13035ZM1.8967 10.969C1.9449 11.6102 2.18543 12.2219 2.58677 12.7243L4.1493 11.4759C3.99909 11.2879 3.9091 11.059 3.89107 10.8191L1.8967 10.969ZM2.58644 12.7239L4.1191 14.6443L5.68229 13.3967L4.14963 11.4763L2.58644 12.7239ZM4.11661 14.6411C4.04783 14.5542 4.01054 14.4466 4.01089 14.3357L6.01088 14.342C6.01197 14.0001 5.89696 13.6679 5.68478 13.3998L4.11661 14.6411ZM4.01089 14.3388V17.6613H6.01089V14.3388H4.01089ZM4.01089 17.6645C4.01054 17.5536 4.04783 17.4459 4.11661 17.359L5.68478 18.6003C5.89696 18.3323 6.01197 18.0001 6.01088 17.6581L4.01089 17.6645ZM4.1191 17.3559L2.58644 19.2763L4.14963 20.5239L5.68229 18.6034L4.1191 17.3559ZM2.58677 19.2759C2.18543 19.7782 1.9449 20.3899 1.8967 21.0311L3.89107 21.181C3.9091 20.9412 3.99909 20.7123 4.1493 20.5243L2.58677 19.2759ZM1.8967 21.0311C1.84846 21.6722 1.99477 22.3131 2.3165 22.8698L4.04814 21.8691C3.92776 21.6608 3.87302 21.421 3.89107 21.1811L1.8967 21.0311ZM2.31647 22.8698L3.21035 24.4167L4.94204 23.4161L4.04816 21.8692L2.31647 22.8698ZM3.20962 24.4155C3.53049 24.9726 4.01198 25.4201 4.5913 25.6993L5.45955 23.8976C5.24298 23.7933 5.06286 23.6259 4.94277 23.4174L3.20962 24.4155ZM4.5909 25.6991C5.17013 25.9786 5.82024 26.0768 6.45631 25.9806L6.15728 24.0031C5.91966 24.039 5.67665 24.0024 5.45995 23.8978L4.5909 25.6991ZM6.45716 25.9805L8.88573 25.6111L8.585 23.6338L6.15643 24.0032L6.45716 25.9805ZM8.8753 25.6126C8.77186 25.6272 8.66564 25.6074 8.57355 25.555L9.56252 23.8166C9.26873 23.6495 8.92854 23.5852 8.59544 23.6323L8.8753 25.6126ZM8.56806 25.5518L11.4456 27.2131L12.4456 25.481L9.56801 23.8197L8.56806 25.5518ZM11.439 27.2092C11.3467 27.155 11.2758 27.0719 11.2367 26.9735L13.0953 26.2348C12.9704 25.9207 12.7444 25.6565 12.4522 25.4848L11.439 27.2092ZM11.235 26.9691L12.1309 29.2548L13.9929 28.525L13.097 26.2393L11.235 26.9691ZM12.1304 29.2537C12.3639 29.8515 12.7723 30.3656 13.3025 30.7282L14.4314 29.0772C14.2335 28.9419 14.0808 28.7498 13.9934 28.5261L12.1304 29.2537ZM13.3025 30.7282C13.8322 31.0903 14.4591 31.2851 15.1017 31.2858L15.1038 29.2858C14.8642 29.2855 14.6298 29.2129 14.4314 29.0772L13.3025 30.7282ZM15.1027 31.2858H16.8905V29.2858H15.1027V31.2858ZM16.8915 31.2858C17.5341 31.2851 18.161 31.0903 18.6907 30.7282L17.5619 29.0772C17.3634 29.2129 17.129 29.2855 16.8894 29.2858L16.8915 31.2858ZM18.6907 30.7282C19.2209 30.3656 19.6293 29.8515 19.8628 29.2537L17.9998 28.5261C17.9125 28.7498 17.7597 28.9419 17.5618 29.0772L18.6907 30.7282ZM19.8623 29.2548L20.7582 26.9691L18.8962 26.2393L18.0003 28.525L19.8623 29.2548ZM20.7565 26.9735C20.7174 27.0719 20.6465 27.155 20.5542 27.2092L19.541 25.4848C19.2488 25.6565 19.0228 25.9207 18.8979 26.2348L20.7565 26.9735ZM20.5476 27.2131L23.4252 25.5518L22.4253 23.8197L19.5476 25.481L20.5476 27.2131ZM23.4184 25.5557C23.3269 25.6076 23.2219 25.6271 23.1197 25.6129L23.3959 23.632C23.0642 23.5858 22.7251 23.6497 22.4321 23.8158L23.4184 25.5557ZM23.1074 25.6111L25.536 25.9805L25.8367 24.0032L23.4082 23.6338L23.1074 25.6111ZM25.5368 25.9806C26.1729 26.0768 26.8231 25.9786 27.4023 25.6991L26.5332 23.8978C26.3165 24.0024 26.0735 24.039 25.8359 24.0031L25.5368 25.9806ZM27.4019 25.6993C27.981 25.4202 28.4628 24.9728 28.7837 24.4152L27.0503 23.4176C26.9305 23.6258 26.7504 23.7932 26.5336 23.8976L27.4019 25.6993ZM28.7828 24.4168L29.6768 22.8698L27.9451 21.8691L27.0512 23.4161L28.7828 24.4168ZM29.6768 22.8698C29.9984 22.3131 30.1448 21.6723 30.0966 21.0311L28.1022 21.1811C28.1203 21.4209 28.0655 21.6608 27.9451 21.8692L29.6768 22.8698ZM30.0966 21.0311C30.0483 20.3899 29.8078 19.7781 29.4062 19.2757L27.844 20.5244C27.9942 20.7124 28.0842 20.9412 28.1022 21.1811L30.0966 21.0311ZM29.4084 19.2784L27.884 17.3579L26.3175 18.6014L27.8419 20.5218L29.4084 19.2784ZM11.2818 18.1713L14.4672 21.4563L15.903 20.064L12.7176 16.779L11.2818 18.1713ZM16.1295 21.0889C16.8669 18.9707 17.5234 17.5042 18.3163 16.2667C19.1052 15.0353 20.0562 13.9885 21.4316 12.7408L20.0878 11.2595C18.636 12.5765 17.5491 13.7567 16.6323 15.1877C15.7194 16.6126 15.0023 18.2438 14.2407 20.4314L16.1295 21.0889Z" fill="#111827"/>
</svg>
