<svg width="32" height="32" viewBox="0 0 32 32" fill="none" xmlns="http://www.w3.org/2000/svg">
<path d="M27.1008 17.9797C27.029 17.8891 26.9901 17.7768 26.9906 17.6613V14.3388C26.9901 14.2233 27.029 14.1111 27.1008 14.0205L28.6333 12.1001C28.909 11.7549 29.0742 11.3346 29.1074 10.8941C29.1405 10.4535 29.0402 10.0132 28.8192 9.63068L27.9252 8.08375C27.7046 7.70089 27.3739 7.39344 26.976 7.20156C26.578 7.00969 26.1314 6.94231 25.6946 7.00823L23.266 7.37762C23.1513 7.39374 23.0342 7.3715 22.9334 7.31436L20.0558 5.65312C19.9544 5.59221 19.8767 5.49865 19.8354 5.38782L18.9395 3.11026C18.779 2.69941 18.4985 2.34645 18.1344 2.09743C17.7704 1.84842 17.3397 1.71492 16.8986 1.71436H15.1068C14.6657 1.71492 14.2351 1.84842 13.871 2.09743C13.507 2.34645 13.2264 2.69941 13.066 3.11026L12.166 5.38782C12.1231 5.49564 12.0456 5.5861 11.9456 5.64496L9.06191 7.31436C8.96106 7.37164 8.84408 7.3939 8.72927 7.37762L6.3068 7.00823C5.86995 6.94231 5.42339 7.00969 5.02543 7.20156C4.62748 7.39344 4.29667 7.70089 4.07619 8.08375L3.18232 9.63068C2.96127 10.0132 2.86074 10.4535 2.89388 10.8941C2.927 11.3346 3.09226 11.7549 3.36803 12.1001L4.9007 14.0205C4.9724 14.1111 5.01126 14.2233 5.01089 14.3388V17.6613C5.01126 17.7768 4.9724 17.8891 4.9007 17.9797L3.36803 19.9001C3.09226 20.2452 2.927 20.6655 2.89388 21.1061C2.86074 21.5466 2.96127 21.9869 3.18232 22.3695L4.07619 23.9164C4.29667 24.2993 4.62748 24.6067 5.02543 24.7985C5.42339 24.9905 5.86995 25.0579 6.3068 24.9918L8.73537 24.6225C8.8502 24.6062 8.96719 24.6284 9.06803 24.6858L11.9456 26.347C12.0456 26.4058 12.1231 26.4963 12.166 26.6042L13.0619 28.8899C13.2223 29.3006 13.5029 29.6538 13.8669 29.9027C14.231 30.1516 14.6617 30.2853 15.1027 30.2858H16.8905C17.3316 30.2853 17.7622 30.1516 18.1263 29.9027C18.4903 29.6538 18.7709 29.3006 18.9313 28.8899L19.8272 26.6042C19.8701 26.4963 19.9476 26.4058 20.0476 26.347L22.9252 24.6858C23.026 24.6286 23.143 24.6065 23.2578 24.6225L25.6864 24.9918C26.1232 25.0579 26.5698 24.9905 26.9677 24.7985C27.3657 24.6067 27.6966 24.2993 27.917 23.9164L28.8109 22.3695C29.032 21.9869 29.1325 21.5466 29.0994 21.1061C29.0662 20.6655 28.901 20.2452 28.6251 19.9001L27.1008 17.9797ZM16.0007 20.5919C15.0925 20.5919 14.2047 20.3226 13.4496 19.818C12.6945 19.3135 12.1059 18.5963 11.7584 17.7573C11.4108 16.9182 11.3199 15.995 11.4971 15.1043C11.6742 14.2135 12.1116 13.3953 12.7538 12.7531C13.3959 12.111 14.2141 11.6736 15.1049 11.4965C15.9956 11.3193 16.9188 11.4102 17.7579 11.7578C18.5969 12.1053 19.3141 12.6939 19.8187 13.449C20.3232 14.2041 20.5925 15.0919 20.5925 16.0001C20.5925 17.2179 20.1087 18.3859 19.2476 19.247C18.3865 20.1081 17.2185 20.5919 16.0007 20.5919Z" stroke="#111827" stroke-width="2"/>
</svg>
