<svg width="32" height="32" viewBox="0 0 32 32" fill="none" xmlns="http://www.w3.org/2000/svg">
<path d="M15.7145 5.35593C16.2117 6.24988 16.3614 7.29591 16.1348 8.2934M22.3069 11.3688C23.1659 10.7986 24.204 10.5623 25.2252 10.7045M29.7269 16.7216C28.0078 16.1613 26.1485 16.2335 24.4802 16.9296M23.1304 5.00361V3.94238M16.8161 15.8408C15.4429 14.4506 13.0127 12.672 11.3571 11.5153C11.132 11.3554 10.8763 11.2438 10.606 11.1875C10.3357 11.1311 10.0567 11.1313 9.78643 11.1879C9.51619 11.2445 9.26057 11.3563 9.0356 11.5164C8.81063 11.6765 8.62117 11.8813 8.47911 12.1181C5.65413 16.8341 3.64629 22.0129 3.8649 26.9221C3.88375 27.3684 4.06808 27.7917 4.38197 28.1095C4.69586 28.4274 5.11683 28.6169 5.56286 28.6413C10.4657 28.9279 15.6721 26.9901 20.4264 24.2266C20.665 24.0877 20.8723 23.901 21.0353 23.6782C21.1983 23.4554 21.3135 23.2013 21.3737 22.9319C21.4339 22.6624 21.4378 22.3835 21.385 22.1125C21.3323 21.8415 21.2242 21.5843 21.0674 21.3571C19.934 19.6867 18.1893 17.2332 16.8161 15.8408Z" stroke="#111827" stroke-width="2" stroke-linecap="round" stroke-linejoin="round"/>
</svg>
