<svg width="32" height="32" viewBox="0 0 32 32" fill="none" xmlns="http://www.w3.org/2000/svg">
<g clip-path="url(#clip0_217_394)">
<path d="M2.19356 23.4709L3.18789 23.3646L3.18789 23.3645L2.19356 23.4709ZM8.48566 29.7793L8.37489 30.7731L8.3749 30.7731L8.48566 29.7793ZM23.5134 29.7793L23.6242 30.7731L23.6242 30.7731L23.5134 29.7793ZM29.8055 23.4709L28.8112 23.3645L28.8112 23.3646L29.8055 23.4709ZM29.8055 8.52914L28.8112 8.6355L28.8112 8.63554L29.8055 8.52914ZM23.5134 2.22089L23.4026 3.21474L23.4026 3.21474L23.5134 2.22089ZM8.48566 2.22089L8.59644 3.21474L8.59644 3.21474L8.48566 2.22089ZM2.19356 8.52914L3.18789 8.63553L3.18789 8.63553L2.19356 8.52914ZM22.7138 9.1433C22.7138 8.59101 22.2661 8.1433 21.7138 8.1433C21.1615 8.1433 20.7138 8.59101 20.7138 9.1433H22.7138ZM9.28539 22.8572C9.28539 23.4095 9.7331 23.8572 10.2854 23.8572C10.8377 23.8572 11.2854 23.4095 11.2854 22.8572H9.28539ZM1.19924 23.5773C1.60168 27.339 4.61955 30.3545 8.37489 30.7731L8.59644 28.7854C5.7691 28.4703 3.49005 26.1889 3.18789 23.3646L1.19924 23.5773ZM8.3749 30.7731C10.8282 31.0465 13.3831 31.2858 15.9996 31.2858V29.2858C13.4978 29.2858 11.0325 29.0569 8.59643 28.7854L8.3749 30.7731ZM15.9996 31.2858C18.6161 31.2858 21.171 31.0465 23.6242 30.7731L23.4026 28.7854C20.9666 29.0569 18.5014 29.2858 15.9996 29.2858V31.2858ZM23.6242 30.7731C27.3796 30.3545 30.3975 27.339 30.7999 23.5773L28.8112 23.3646C28.5091 26.1889 26.2301 28.4703 23.4026 28.7854L23.6242 30.7731ZM30.7998 23.5773C31.061 21.1369 31.2853 18.5988 31.2853 16.0001H29.2853C29.2853 18.49 29.0703 20.9433 28.8112 23.3645L30.7998 23.5773ZM31.2853 16.0001C31.2853 13.4013 31.061 10.8632 30.7999 8.42275L28.8112 8.63554C29.0703 11.0568 29.2853 13.5101 29.2853 16.0001H31.2853ZM30.7999 8.42279C30.3975 4.66118 27.3796 1.64562 23.6242 1.22704L23.4026 3.21474C26.2301 3.52988 28.5091 5.81128 28.8112 8.6355L30.7999 8.42279ZM23.6242 1.22705C21.171 0.953591 18.6161 0.714355 15.9996 0.714355V2.71436C18.5014 2.71436 20.9666 2.9432 23.4026 3.21474L23.6242 1.22705ZM15.9996 0.714355C13.3831 0.714355 10.8282 0.953591 8.37488 1.22705L8.59644 3.21474C11.0325 2.9432 13.4978 2.71436 15.9996 2.71436V0.714355ZM8.37489 1.22704C4.61955 1.64562 1.60168 4.66119 1.19924 8.42276L3.18789 8.63553C3.49005 5.81127 5.7691 3.52988 8.59644 3.21474L8.37489 1.22704ZM1.19924 8.42276C0.938134 10.8632 0.713867 13.4013 0.713867 16.0001H2.71387C2.71387 13.5101 2.92884 11.0568 3.18789 8.63553L1.19924 8.42276ZM0.713867 16.0001C0.713867 18.5988 0.938136 21.1369 1.19924 23.5773L3.18789 23.3645C2.92884 20.9433 2.71387 18.49 2.71387 16.0001H0.713867ZM20.7138 9.1433V16.0004H22.7138V9.1433H20.7138ZM11.2854 22.8572V16.0001H9.28539V22.8572H11.2854ZM17.2853 19.4286C17.2853 21.8745 19.2681 23.8572 21.7139 23.8572V21.8572C20.3726 21.8572 19.2853 20.7699 19.2853 19.4286H17.2853ZM21.7139 23.8572C24.1598 23.8572 26.1425 21.8745 26.1425 19.4286H24.1425C24.1425 20.7699 23.0552 21.8572 21.7139 21.8572V23.8572ZM26.1425 19.4286C26.1425 16.9826 24.1594 15.0004 21.7138 15.0004V17.0004C23.0552 17.0004 24.1425 18.0876 24.1425 19.4286H26.1425ZM21.7138 15.0004C19.268 15.0004 17.2853 16.9827 17.2853 19.4286H19.2853C19.2853 18.0875 20.3724 17.0004 21.7138 17.0004V15.0004ZM7.85663 12.5719C7.85663 11.2306 8.94399 10.1433 10.2852 10.1433L10.2852 8.1433C7.83945 8.1433 5.85663 10.126 5.85663 12.5719H7.85663ZM10.2852 10.1433C11.6265 10.1433 12.7138 11.2306 12.7138 12.5719H14.7138C14.7138 10.126 12.731 8.1433 10.2852 8.1433L10.2852 10.1433ZM12.7138 12.5719C12.7138 13.9131 11.6267 15.0001 10.2854 15.0001V17.0001C12.7312 17.0001 14.7138 15.0178 14.7138 12.5719H12.7138ZM10.2854 15.0001C8.94396 15.0001 7.85663 13.9129 7.85663 12.5719H5.85663C5.85663 15.0179 7.83984 17.0001 10.2854 17.0001V15.0001Z" fill="#111827"/>
</g>
<defs>
<clipPath id="clip0_217_394">
<rect width="32" height="32" fill="white"/>
</clipPath>
</defs>
</svg>
