<svg width="32" height="32" viewBox="0 0 32 32" fill="none" xmlns="http://www.w3.org/2000/svg">
<path d="M23.7124 7.97712C23.658 6.73092 23.5828 5.47467 23.4861 4.20048C23.4025 3.09972 22.5287 2.2266 21.4279 2.14344C15.5962 1.70284 10.1709 1.70284 4.33917 2.14344C3.23842 2.2266 2.36452 3.09993 2.28104 4.20066C1.84122 9.99906 1.84122 15.4257 2.28104 21.2241C2.36452 22.3248 3.23819 23.1981 4.33894 23.2813C5.66386 23.3814 6.96781 23.4587 8.26029 23.5133M8.52267 27.2303C8.60617 28.3309 9.48004 29.2043 10.5808 29.2875C16.4125 29.7282 21.8378 29.7282 27.6697 29.2875C28.7702 29.2043 29.6443 28.3309 29.7277 27.2303C30.1675 21.4319 30.1675 16.0052 29.7277 10.2068C29.6443 9.10608 28.7702 8.23275 27.6697 8.14958C21.8378 7.70898 16.4125 7.70898 10.5808 8.14958C9.48004 8.23275 8.60617 9.10606 8.52267 10.2068C8.08285 16.0052 8.08285 21.4319 8.52267 27.2303Z" stroke="#111827" stroke-width="2"/>
</svg>
