<svg width="32" height="32" viewBox="0 0 32 32" fill="none" xmlns="http://www.w3.org/2000/svg">
<g clip-path="url(#clip0_217_2720)">
<path d="M29.7123 12.7041C30.0108 14.8034 30.2853 16.9675 30.2853 19.1788C30.2853 21.3902 30.0108 23.5544 29.7123 25.6536C29.4028 27.8296 27.6096 29.5253 25.4208 29.7224C22.3804 29.9964 19.2291 30.2862 15.9996 30.2862C12.7701 30.2862 9.61878 29.9964 6.57844 29.7224C4.38943 29.5251 2.5964 27.8296 2.2869 25.6536C1.98829 23.5544 1.71387 21.3902 1.71387 19.1788C1.71387 16.9675 1.98829 14.8034 2.2869 12.7041M29.7123 12.7041C29.4028 10.5281 27.6096 8.83248 25.4208 8.63525M29.7123 12.7041C29.9198 14.1642 30.1159 15.6557 30.216 17.1727C29.4499 18.4552 28.0992 19.3472 26.5477 19.4866C26.3772 19.502 26.2062 19.5174 26.035 19.5328C22.7939 19.825 19.4375 20.1275 15.9995 20.1275C12.5616 20.1275 9.20521 19.825 5.96402 19.5328C5.79282 19.5173 5.62194 19.5019 5.4514 19.4866C3.89972 19.3472 2.54916 18.4551 1.78306 17.1726C1.88316 15.6557 2.07922 14.1642 2.2869 12.7041M25.4208 8.63525C22.3804 8.36128 19.2291 8.0715 15.9996 8.0715M25.4208 8.63525L25.2453 8.61943C22.2592 8.35024 19.167 8.0715 15.9996 8.0715M15.9996 8.0715C12.7701 8.0715 9.61878 8.36128 6.57842 8.63525M15.9996 8.0715C12.8321 8.0715 9.73983 8.35024 6.75369 8.61943C6.69522 8.62471 6.63682 8.62997 6.57842 8.63525M6.57842 8.63525C4.38943 8.83248 2.5964 10.5281 2.2869 12.7041M23.6409 8.42919C23.6409 7.61625 23.5865 6.81385 23.5081 6.02441C23.2901 3.8301 21.4668 2.07821 19.2705 1.8821C18.2005 1.78657 17.1086 1.71436 15.9995 1.71436C14.8904 1.71436 13.7986 1.78657 12.7286 1.8821C10.5322 2.07821 8.70895 3.8301 8.49087 6.02441C8.4124 6.81385 8.35812 7.61625 8.35812 8.42919M16.2197 17.0715V23.5" stroke="#111827" stroke-width="2" stroke-linecap="round" stroke-linejoin="round"/>
</g>
<defs>
<clipPath id="clip0_217_2720">
<rect width="32" height="32" fill="white"/>
</clipPath>
</defs>
</svg>
