<svg width="32" height="32" viewBox="0 0 32 32" fill="none" xmlns="http://www.w3.org/2000/svg">
<path d="M15.0008 29.1455C15.0008 29.6978 15.4485 30.1455 16.0008 30.1455C16.5531 30.1455 17.0008 29.6978 17.0008 29.1455H15.0008ZM16.1477 16.2264L15.1483 16.1932V16.1932L16.1477 16.2264ZM26.2409 6.23536L26.2169 5.23565L26.2169 5.23565L26.2409 6.23536ZM29.8912 7.18352C30.4434 7.18212 30.89 6.73328 30.8886 6.181C30.8872 5.62871 30.4384 5.18213 29.8861 5.18352L29.8912 7.18352ZM14.9988 29.1455C14.9988 29.6978 15.4465 30.1455 15.9988 30.1455C16.5511 30.1455 16.9988 29.6978 16.9988 29.1455H14.9988ZM15.8519 16.2264L14.8525 16.2597V16.2597L15.8519 16.2264ZM5.75869 6.23588L5.73466 7.2356L5.73467 7.2356L5.75869 6.23588ZM2.08649 5.18352C1.53421 5.18214 1.08537 5.62873 1.08399 6.18101C1.0826 6.73329 1.52919 7.18213 2.08148 7.18352L2.08649 5.18352ZM26.421 1.42375C26.0238 1.04009 25.3907 1.05111 25.007 1.44838C24.6234 1.84564 24.6344 2.47871 25.0317 2.86238L26.421 1.42375ZM29.9101 6.18361L30.6048 6.90292C30.7999 6.71448 30.9101 6.45487 30.9101 6.18361C30.9101 5.91235 30.7999 5.65274 30.6048 5.4643L29.9101 6.18361ZM25.0317 9.50485C24.6344 9.88851 24.6234 10.5216 25.007 10.9188C25.3907 11.3161 26.0238 11.3271 26.421 10.9435L25.0317 9.50485ZM5.57902 10.9436C5.97629 11.3272 6.60936 11.3162 6.99302 10.9189C7.37669 10.5217 7.36566 9.8886 6.96839 9.50494L5.57902 10.9436ZM2.08993 6.1837L1.39524 5.46439C1.20012 5.65283 1.08993 5.91245 1.08993 6.1837C1.08993 6.45496 1.20012 6.71458 1.39524 6.90301L2.08993 6.1837ZM6.96839 2.86248C7.36566 2.47881 7.37669 1.84574 6.99302 1.44848C6.60936 1.05121 5.97629 1.04018 5.57902 1.42385L6.96839 2.86248ZM17.0008 29.1455C17.0008 24.7122 17.0054 20.5193 17.1471 16.2597L15.1483 16.1932C15.0052 20.4908 15.0008 24.7157 15.0008 29.1455H17.0008ZM17.1471 16.2597C17.3131 11.2741 21.2757 7.35477 26.2648 7.23507L26.2169 5.23565C20.1702 5.38072 15.3495 10.1458 15.1483 16.1932L17.1471 16.2597ZM26.2648 7.23507C27.5876 7.20335 28.8299 7.18619 29.8912 7.18352L29.8861 5.18352C28.8084 5.18624 27.5515 5.20364 26.2169 5.23565L26.2648 7.23507ZM16.9988 29.1455C16.9988 24.7157 16.9944 20.4908 16.8514 16.1932L14.8525 16.2597C14.9942 20.5193 14.9988 24.7122 14.9988 29.1455H16.9988ZM16.8514 16.1932C16.6501 10.1457 11.8293 5.38147 5.78271 5.23617L5.73467 7.2356C10.724 7.35549 14.6866 11.2743 14.8525 16.2597L16.8514 16.1932ZM5.78272 5.23617C4.43695 5.20382 3.17007 5.18624 2.08649 5.18352L2.08148 7.18352C3.14845 7.18619 4.40079 7.20353 5.73466 7.2356L5.78272 5.23617ZM25.0317 2.86238L29.2154 6.90292L30.6048 5.4643L26.421 1.42375L25.0317 2.86238ZM29.2154 5.4643L25.0317 9.50485L26.421 10.9435L30.6048 6.90292L29.2154 5.4643ZM6.96839 9.50494L2.78461 5.46439L1.39524 6.90301L5.57902 10.9436L6.96839 9.50494ZM2.78461 6.90302L6.96839 2.86248L5.57902 1.42385L1.39524 5.46439L2.78461 6.90302Z" fill="#111827"/>
</svg>
