<svg width="32" height="32" viewBox="0 0 32 32" fill="none" xmlns="http://www.w3.org/2000/svg">
<g clip-path="url(#clip0_217_858)">
<path d="M2.03655 14.6332C2.17743 16.5696 3.23652 18.127 4.55266 18.3428C5.53026 18.503 6.53401 18.6406 7.55737 18.6406C8.58075 18.6406 9.58448 18.503 10.5621 18.3428C11.8782 18.127 12.9373 16.5696 13.0782 14.6332C13.1822 13.2038 13.27 11.7362 13.27 10.24C13.27 8.74379 13.1822 7.27622 13.0782 5.84676C12.9373 3.91037 11.8782 2.35296 10.5621 2.13722C9.58448 1.97698 8.58075 1.83936 7.55737 1.83936C6.53401 1.83936 5.53026 1.97698 4.55266 2.13722C3.23652 2.35296 2.17743 3.91037 2.03655 5.84676C1.93255 7.27622 1.84473 8.74379 1.84473 10.24C1.84473 11.7362 1.93255 13.2038 2.03655 14.6332Z" stroke="#111827" stroke-width="2"/>
<path d="M30.0129 17.459C29.8719 15.5239 28.8104 13.9675 27.4913 13.7519C26.5114 13.5917 25.5055 13.4542 24.4799 13.4542C23.4543 13.4542 22.4482 13.5917 21.4684 13.7519C20.1493 13.9675 19.0879 15.5239 18.9467 17.459C18.8425 18.8876 18.7544 20.3542 18.7544 21.8494C18.7544 23.3447 18.8425 24.8112 18.9467 26.2398C19.0879 28.1749 20.1493 29.7314 21.4684 29.947C22.4482 30.107 23.4543 30.2446 24.4799 30.2446C25.5055 30.2446 26.5114 30.107 27.4913 29.947C28.8104 29.7314 29.8719 28.1749 30.0129 26.2398C30.1171 24.8112 30.2051 23.3447 30.2051 21.8494C30.2051 20.3542 30.1171 18.8876 30.0129 17.459Z" stroke="#111827" stroke-width="2"/>
<path d="M2.03655 28.7966C2.17743 29.4962 3.23652 30.059 4.55266 30.1369C5.53026 30.195 6.53401 30.2446 7.55737 30.2446C8.58075 30.2446 9.58448 30.195 10.5621 30.1369C11.8782 30.059 12.9373 29.4962 13.0782 28.7966C13.1822 28.28 13.27 27.7495 13.27 27.2089C13.27 26.6681 13.1822 26.1378 13.0782 25.6213C12.9373 24.9216 11.8782 24.3589 10.5621 24.2809C9.58448 24.2229 8.58075 24.1733 7.55737 24.1733C6.53401 24.1733 5.53026 24.2229 4.55266 24.2809C3.23652 24.3589 2.17743 24.9216 2.03655 25.6213C1.93255 26.1378 1.84473 26.6681 1.84473 27.2089C1.84473 27.7495 1.93255 28.28 2.03655 28.7966Z" stroke="#111827" stroke-width="2"/>
<path d="M30.0129 3.28749C29.8719 2.58774 28.8104 2.02495 27.4913 1.94699C26.5114 1.88909 25.5055 1.83936 24.4799 1.83936C23.4543 1.83936 22.4482 1.88909 21.4684 1.94699C20.1493 2.02495 19.0879 2.58774 18.9467 3.28749C18.8425 3.80406 18.7544 4.3344 18.7544 4.87506C18.7544 5.41574 18.8425 5.94608 18.9467 6.46265C19.0879 7.16237 20.1493 7.72518 21.4684 7.80315C22.4482 7.86105 23.4543 7.91078 24.4799 7.91078C25.5055 7.91078 26.5114 7.86105 27.4913 7.80315C28.8104 7.72518 29.8719 7.16237 30.0129 6.46265C30.1171 5.94608 30.2051 5.41574 30.2051 4.87506C30.2051 4.3344 30.1171 3.80406 30.0129 3.28749Z" stroke="#111827" stroke-width="2"/>
</g>
<defs>
<clipPath id="clip0_217_858">
<rect width="32" height="32" fill="white"/>
</clipPath>
</defs>
</svg>
