<svg width="32" height="32" viewBox="0 0 32 32" fill="none" xmlns="http://www.w3.org/2000/svg">
<g clip-path="url(#clip0_217_1371)">
<path d="M1.71387 4.00007C1.71387 2.73772 2.73723 1.71436 3.99958 1.71436H10.8567C12.1191 1.71436 13.1424 2.73772 13.1424 4.00007V10.8572C13.1424 12.1196 12.1191 13.1429 10.8567 13.1429H3.99958C2.73723 13.1429 1.71387 12.1196 1.71387 10.8572V4.00007Z" stroke="#111827" stroke-width="2" stroke-linecap="round" stroke-linejoin="round"/>
<path d="M1.71387 21.1429C1.71387 19.8806 2.73723 18.8572 3.99958 18.8572H10.8567C12.1191 18.8572 13.1424 19.8806 13.1424 21.1429V28.0001C13.1424 29.2625 12.1191 30.2858 10.8567 30.2858H3.99958C2.73723 30.2858 1.71387 29.2625 1.71387 28.0001V21.1429Z" stroke="#111827" stroke-width="2" stroke-linecap="round" stroke-linejoin="round"/>
<path d="M18.8567 4.00007C18.8567 2.73772 19.8801 1.71436 21.1424 1.71436H27.9996C29.262 1.71436 30.2853 2.73772 30.2853 4.00007V10.8572C30.2853 12.1196 29.262 13.1429 27.9996 13.1429H21.1424C19.8801 13.1429 18.8567 12.1196 18.8567 10.8572V4.00007Z" stroke="#111827" stroke-width="2" stroke-linecap="round" stroke-linejoin="round"/>
<path d="M18.8567 21.1429C18.8567 19.8806 19.8801 18.8572 21.1424 18.8572H27.9996C29.262 18.8572 30.2853 19.8806 30.2853 21.1429V28.0001C30.2853 29.2625 29.262 30.2858 27.9996 30.2858H21.1424C19.8801 30.2858 18.8567 29.2625 18.8567 28.0001V21.1429Z" stroke="#111827" stroke-width="2" stroke-linecap="round" stroke-linejoin="round"/>
</g>
<defs>
<clipPath id="clip0_217_1371">
<rect width="32" height="32" fill="white"/>
</clipPath>
</defs>
</svg>
