<svg width="32" height="32" viewBox="0 0 32 32" fill="none" xmlns="http://www.w3.org/2000/svg">
<g clip-path="url(#clip0_217_2709)">
<path d="M1.71387 8.56062H30.2853M10.2898 8.56055V7.41952C10.2898 5.9064 10.8908 4.45529 11.9608 3.38535C13.0307 2.31543 14.4818 1.71436 15.9949 1.71436C17.508 1.71436 18.9591 2.31543 20.0291 3.38535C21.099 4.45529 21.7001 5.9064 21.7001 7.41952V8.56055M12.5716 14.6712V24.1292M19.4181 14.6712V24.1292M26.264 8.56048H5.72543C5.39389 14.5549 5.39906 20.503 6.29256 26.4597C6.62244 28.6588 8.51154 30.2858 10.7353 30.2858H21.2541C23.478 30.2858 25.3669 28.6588 25.697 26.4597C26.5904 20.503 26.5955 14.5549 26.264 8.56048Z" stroke="#111827" stroke-width="2" stroke-linecap="round" stroke-linejoin="round"/>
</g>
<defs>
<clipPath id="clip0_217_2709">
<rect width="32" height="32" fill="white"/>
</clipPath>
</defs>
</svg>
