<svg width="32" height="32" viewBox="0 0 32 32" fill="none" xmlns="http://www.w3.org/2000/svg">
<g clip-path="url(#clip0_217_2687)">
<path d="M8.62864 18.6575L15.2939 28.9576C15.8789 29.7902 16.8327 30.2858 17.8503 30.2858C19.7479 30.2858 21.2073 28.6081 20.9444 26.7288L20.399 22.8294H24.5988C26.6847 22.8294 30.8566 20.7434 30.8566 16.5715C30.8566 12.3996 27.2333 2.85721 22.796 2.85721C17.598 2.85721 12.3586 4.41122 9.55302 5.24334C9.20612 5.34624 8.89643 5.43808 8.62864 5.51461H6.85686V18.6575H8.62864Z" stroke="#111827" stroke-width="2" stroke-linecap="round" stroke-linejoin="round"/>
<path d="M6.85686 4.5715V19.0629C6.85686 20.6409 5.57769 21.9201 3.99972 21.9201C2.42176 21.9201 1.14258 20.6409 1.14258 19.0629V4.5715C1.14258 2.99353 2.42176 1.71436 3.99972 1.71436C5.57769 1.71436 6.85686 2.99353 6.85686 4.5715Z" stroke="#111827" stroke-width="2" stroke-linecap="round" stroke-linejoin="round"/>
</g>
<defs>
<clipPath id="clip0_217_2687">
<rect width="32" height="32" fill="white"/>
</clipPath>
</defs>
</svg>
