<svg width="32" height="32" viewBox="0 0 32 32" fill="none" xmlns="http://www.w3.org/2000/svg">
<path d="M6.89272 29.9285C9.97843 29.9285 11.7141 28.1928 11.7141 25.1071C11.7141 22.0214 9.97843 20.2856 6.89272 20.2856C3.807 20.2856 2.07129 22.0214 2.07129 25.1071C2.07129 28.1928 3.807 29.9285 6.89272 29.9285Z" stroke="#111827" stroke-width="2" stroke-linecap="round" stroke-linejoin="round"/>
<path d="M25.1066 29.9285C28.1923 29.9285 29.928 28.1928 29.928 25.1071C29.928 22.0214 28.1923 20.2856 25.1066 20.2856C22.0209 20.2856 20.2852 22.0214 20.2852 25.1071C20.2852 28.1928 22.0209 29.9285 25.1066 29.9285Z" stroke="#111827" stroke-width="2" stroke-linecap="round" stroke-linejoin="round"/>
<path d="M12.1828 12.7896C9.76208 14.8851 8.20197 17.2477 7.18555 20.2854" stroke="#111827" stroke-width="2" stroke-linecap="round" stroke-linejoin="round"/>
<path d="M11.7148 24.9258C14.6196 25.4574 17.3808 25.4574 20.2856 24.9258" stroke="#111827" stroke-width="2" stroke-linecap="round" stroke-linejoin="round"/>
<path d="M16.0003 13.857C19.7717 13.857 21.8931 11.7356 21.8931 7.96415C21.8931 4.19272 19.7717 2.07129 16.0003 2.07129C12.2289 2.07129 10.1074 4.19272 10.1074 7.96415C10.1074 11.7356 12.2289 13.857 16.0003 13.857Z" stroke="#111827" stroke-width="2" stroke-linecap="round" stroke-linejoin="round"/>
<path d="M19.8164 12.7896C22.2371 14.8851 23.7971 17.2477 24.8137 20.2854" stroke="#111827" stroke-width="2" stroke-linecap="round" stroke-linejoin="round"/>
</svg>
