<svg width="32" height="32" viewBox="0 0 32 32" fill="none" xmlns="http://www.w3.org/2000/svg">
<g clip-path="url(#clip0_217_2697)">
<path d="M24.8499 21.8579C26.1884 21.3421 27.3646 20.6782 28.2912 19.8619C29.3859 18.8977 30.0816 17.5735 30.2471 16.14C30.4126 14.7066 30.0362 13.2634 29.1893 12.0838C28.3422 10.9041 27.0835 10.0699 25.6512 9.73913C25.5523 9.71017 25.4638 9.6541 25.3964 9.57751C25.329 9.50092 25.2853 9.407 25.2704 9.30681C25.0933 7.40448 24.2565 5.61916 22.8992 4.24855C21.5421 2.87794 19.7466 2.00491 17.8123 1.77505C15.878 1.54519 13.9218 1.97239 12.2699 2.9854C10.618 3.99842 9.37028 5.53602 8.73476 7.34181C8.69272 7.42601 8.62696 7.49664 8.54527 7.5454C8.46358 7.59415 8.36939 7.61895 8.27378 7.61692C7.35254 7.67756 6.4525 7.9155 5.62507 8.31714C4.79762 8.71879 4.05896 9.2763 3.45131 9.95783C2.22404 11.3342 1.60475 13.1322 1.72968 14.9563C1.8546 16.7803 2.7135 18.481 4.11741 19.6842C4.86091 20.3214 5.76898 20.8757 6.7954 21.3447M7.946 7.62284C10.6642 7.62284 13.0952 9.41449 13.862 11.0513M15.9996 17.9296V30.2211M11.3082 26.1496C12.7338 27.9708 13.7047 28.8184 15.1518 29.9267C15.6638 30.3189 16.3355 30.3189 16.8475 29.9267C18.2946 28.8184 19.2655 27.9708 20.6911 26.1496" stroke="#111827" stroke-width="2" stroke-linecap="round" stroke-linejoin="round"/>
</g>
<defs>
<clipPath id="clip0_217_2697">
<rect width="32" height="32" fill="white"/>
</clipPath>
</defs>
</svg>
