<svg width="32" height="32" viewBox="0 0 32 32" fill="none" xmlns="http://www.w3.org/2000/svg">
<path d="M13.8287 5.14337C13.8287 6.00722 13.4856 6.83569 12.8747 7.44652C12.2639 8.05735 11.4354 8.40052 10.5716 8.40052C9.70775 8.40052 8.87928 8.05735 8.26845 7.44652C7.65762 6.83569 7.31445 6.00722 7.31445 5.14337C7.31445 4.27953 7.65762 3.45106 8.26845 2.84023C8.87928 2.22939 9.70775 1.88623 10.5716 1.88623C11.4354 1.88623 12.2639 2.22939 12.8747 2.84023C13.4856 3.45106 13.8287 4.27953 13.8287 5.14337Z" stroke="#111827" stroke-width="2" stroke-linecap="round" stroke-linejoin="round"/>
<path d="M13.8287 16.0005C13.8287 16.8644 13.4856 17.6928 12.8747 18.3037C12.2639 18.9145 11.4354 19.2577 10.5716 19.2577C9.70775 19.2577 8.87928 18.9145 8.26845 18.3037C7.65762 17.6928 7.31445 16.8644 7.31445 16.0005C7.31445 15.1367 7.65762 14.3082 8.26845 13.6974C8.87928 13.0865 9.70775 12.7434 10.5716 12.7434C11.4354 12.7434 12.2639 13.0865 12.8747 13.6974C13.4856 14.3082 13.8287 15.1367 13.8287 16.0005Z" stroke="#111827" stroke-width="2" stroke-linecap="round" stroke-linejoin="round"/>
<path d="M13.8287 26.8577C13.8287 27.7215 13.4856 28.55 12.8747 29.1608C12.2639 29.7716 11.4354 30.1148 10.5716 30.1148C9.70775 30.1148 8.87928 29.7716 8.26845 29.1608C7.65762 28.55 7.31445 27.7215 7.31445 26.8577C7.31445 25.9938 7.65762 25.1653 8.26845 24.5545C8.87928 23.9437 9.70775 23.6005 10.5716 23.6005C11.4354 23.6005 12.2639 23.9437 12.8747 24.5545C13.4856 25.1653 13.8287 25.9938 13.8287 26.8577Z" stroke="#111827" stroke-width="2" stroke-linecap="round" stroke-linejoin="round"/>
<path d="M24.6859 5.14337C24.6859 6.00722 24.3427 6.83569 23.7319 7.44652C23.1211 8.05735 22.2926 8.40052 21.4287 8.40052C20.5649 8.40052 19.7364 8.05735 19.1256 7.44652C18.5148 6.83569 18.1716 6.00722 18.1716 5.14337C18.1716 4.27953 18.5148 3.45106 19.1256 2.84023C19.7364 2.22939 20.5649 1.88623 21.4287 1.88623C22.2926 1.88623 23.1211 2.22939 23.7319 2.84023C24.3427 3.45106 24.6859 4.27953 24.6859 5.14337Z" stroke="#111827" stroke-width="2" stroke-linecap="round" stroke-linejoin="round"/>
<path d="M24.6859 16.0005C24.6859 16.8644 24.3427 17.6928 23.7319 18.3037C23.1211 18.9145 22.2926 19.2577 21.4287 19.2577C20.5649 19.2577 19.7364 18.9145 19.1256 18.3037C18.5148 17.6928 18.1716 16.8644 18.1716 16.0005C18.1716 15.1367 18.5148 14.3082 19.1256 13.6974C19.7364 13.0865 20.5649 12.7434 21.4287 12.7434C22.2926 12.7434 23.1211 13.0865 23.7319 13.6974C24.3427 14.3082 24.6859 15.1367 24.6859 16.0005Z" stroke="#111827" stroke-width="2" stroke-linecap="round" stroke-linejoin="round"/>
<path d="M24.6859 26.8577C24.6859 27.7215 24.3427 28.55 23.7319 29.1608C23.1211 29.7716 22.2926 30.1148 21.4287 30.1148C20.5649 30.1148 19.7364 29.7716 19.1256 29.1608C18.5148 28.55 18.1716 27.7215 18.1716 26.8577C18.1716 25.9938 18.5148 25.1653 19.1256 24.5545C19.7364 23.9437 20.5649 23.6005 21.4287 23.6005C22.2926 23.6005 23.1211 23.9437 23.7319 24.5545C24.3427 25.1653 24.6859 25.9938 24.6859 26.8577Z" stroke="#111827" stroke-width="2" stroke-linecap="round" stroke-linejoin="round"/>
</svg>
