<svg width="32" height="32" viewBox="0 0 32 32" fill="none" xmlns="http://www.w3.org/2000/svg">
<path d="M2.7002 10.934C2.7002 11.7737 3.03375 12.5789 3.62748 13.1727C4.22121 13.7664 5.02648 14.1 5.86614 14.1C6.7058 14.1 7.51107 13.7664 8.1048 13.1727C8.69853 12.5789 9.03208 11.7737 9.03208 10.934C9.03208 10.0943 8.69853 9.28908 8.1048 8.69535C7.51107 8.10162 6.7058 7.76807 5.86614 7.76807C5.02648 7.76807 4.22121 8.10162 3.62748 8.69535C3.03375 9.28908 2.7002 10.0943 2.7002 10.934Z" stroke="#111827" stroke-width="2" stroke-linecap="round" stroke-linejoin="round"/>
<path d="M22.9683 10.934C22.9683 11.7737 23.3019 12.5789 23.8956 13.1727C24.4893 13.7664 25.2946 14.1 26.1343 14.1C26.9739 14.1 27.7792 13.7664 28.3729 13.1727C28.9666 12.5789 29.3002 11.7737 29.3002 10.934C29.3002 10.0943 28.9666 9.28908 28.3729 8.69535C27.7792 8.10162 26.9739 7.76807 26.1343 7.76807C25.2946 7.76807 24.4893 8.10162 23.8956 8.69535C23.3019 9.28908 22.9683 10.0943 22.9683 10.934Z" stroke="#111827" stroke-width="2" stroke-linecap="round" stroke-linejoin="round"/>
<path d="M12.8343 10.934C12.8343 11.7737 13.1678 12.5789 13.7615 13.1727C14.3553 13.7664 15.1605 14.1 16.0002 14.1C16.8399 14.1 17.6451 13.7664 18.2389 13.1727C18.8326 12.5789 19.1661 11.7737 19.1661 10.934C19.1661 10.0943 18.8326 9.28908 18.2389 8.69535C17.6451 8.10162 16.8399 7.76807 16.0002 7.76807C15.1605 7.76807 14.3553 8.10162 13.7615 8.69535C13.1678 9.28908 12.8343 10.0943 12.8343 10.934Z" stroke="#111827" stroke-width="2" stroke-linecap="round" stroke-linejoin="round"/>
<path d="M2.7002 21.0659C2.7002 21.9056 3.03375 22.7108 3.62748 23.3046C4.22121 23.8983 5.02648 24.2318 5.86614 24.2318C6.7058 24.2318 7.51107 23.8983 8.1048 23.3046C8.69853 22.7108 9.03208 21.9056 9.03208 21.0659C9.03208 20.2262 8.69853 19.421 8.1048 18.8272C7.51107 18.2335 6.7058 17.9 5.86614 17.9C5.02648 17.9 4.22121 18.2335 3.62748 18.8272C3.03375 19.421 2.7002 20.2262 2.7002 21.0659Z" stroke="#111827" stroke-width="2" stroke-linecap="round" stroke-linejoin="round"/>
<path d="M22.9683 21.0659C22.9683 21.9056 23.3019 22.7108 23.8956 23.3046C24.4893 23.8983 25.2946 24.2318 26.1343 24.2318C26.9739 24.2318 27.7792 23.8983 28.3729 23.3046C28.9666 22.7108 29.3002 21.9056 29.3002 21.0659C29.3002 20.2262 28.9666 19.421 28.3729 18.8272C27.7792 18.2335 26.9739 17.9 26.1343 17.9C25.2946 17.9 24.4893 18.2335 23.8956 18.8272C23.3019 19.421 22.9683 20.2262 22.9683 21.0659Z" stroke="#111827" stroke-width="2" stroke-linecap="round" stroke-linejoin="round"/>
<path d="M12.8343 21.0659C12.8343 21.9056 13.1678 22.7108 13.7615 23.3046C14.3553 23.8983 15.1605 24.2318 16.0002 24.2318C16.8399 24.2318 17.6451 23.8983 18.2389 23.3046C18.8326 22.7108 19.1661 21.9056 19.1661 21.0659C19.1661 20.2262 18.8326 19.421 18.2389 18.8272C17.6451 18.2335 16.8399 17.9 16.0002 17.9C15.1605 17.9 14.3553 18.2335 13.7615 18.8272C13.1678 19.421 12.8343 20.2262 12.8343 21.0659Z" stroke="#111827" stroke-width="2" stroke-linecap="round" stroke-linejoin="round"/>
</svg>
