<svg width="32" height="32" viewBox="0 0 32 32" fill="none" xmlns="http://www.w3.org/2000/svg">
<path d="M9.00371 2.7906C9.53582 11.6615 9.49582 20.1475 8.88366 29.0764M13.3327 6.28613H19.6184M3.64375 27.2562C3.72407 28.3568 4.59114 29.2359 5.69072 29.3285C12.7654 29.925 19.2345 29.925 26.3092 29.3285C27.4086 29.2359 28.2758 28.3568 28.3561 27.2562C28.9149 19.598 28.9149 12.4016 28.3561 4.74327C28.2758 3.64272 27.4086 2.7637 26.3092 2.67099C19.2345 2.07451 12.7654 2.07451 5.69072 2.67099C4.59114 2.7637 3.72407 3.64272 3.64375 4.74327C3.0849 12.4016 3.0849 19.598 3.64375 27.2562Z" stroke="#111827" stroke-width="2" stroke-linecap="round" stroke-linejoin="round"/>
</svg>
