<svg width="32" height="32" viewBox="0 0 32 32" fill="none" xmlns="http://www.w3.org/2000/svg">
<path d="M12.6508 25.0915C12.5899 24.5426 12.0955 24.147 11.5466 24.208C10.9976 24.269 10.6021 24.7634 10.6631 25.3123L12.6508 25.0915ZM13.748 27.2957L13.8612 26.3021H13.8612L13.748 27.2957ZM27.6361 27.2957L27.5229 26.3021H27.5229L27.6361 27.2957ZM29.7272 25.2019L28.7333 25.0915L28.7333 25.0915L29.7272 25.2019ZM29.7272 6.79826L28.7333 6.90865L28.7333 6.90866L29.7272 6.79826ZM27.6361 4.70455L27.7494 3.71098L27.7494 3.71098L27.6361 4.70455ZM13.748 4.70455L13.6347 3.71098L13.6347 3.71098L13.748 4.70455ZM10.6631 6.68788C10.6021 7.23679 10.9976 7.73119 11.5466 7.79215C12.0955 7.85311 12.5899 7.45756 12.6508 6.90865L10.6631 6.68788ZM19.3095 17.0002C19.8618 17.0002 20.3095 16.5525 20.3095 16.0002C20.3095 15.4479 19.8618 15.0002 19.3095 15.0002L19.3095 17.0002ZM2.28652 15.0002C1.73424 15.0002 1.28652 15.4479 1.28652 16.0002C1.28652 16.5525 1.73424 17.0002 2.28652 17.0002L2.28652 15.0002ZM7.52645 11.4015C7.95951 11.0588 8.03272 10.4298 7.68997 9.99679C7.34722 9.56372 6.7183 9.49051 6.28524 9.83326L7.52645 11.4015ZM2.6199 15.0271L1.82284 14.4232L1.82282 14.4233L2.6199 15.0271ZM2.6199 16.9727L1.82281 17.5765L1.82284 17.5766L2.6199 16.9727ZM6.28524 22.1665C6.7183 22.5093 7.34722 22.4361 7.68997 22.003C8.03272 21.5699 7.95951 20.941 7.52645 20.5983L6.28524 22.1665ZM10.6631 25.3123C10.8366 26.8751 12.0761 28.1116 13.6347 28.2893L13.8612 26.3021C13.2262 26.2298 12.721 25.723 12.6508 25.0915L10.6631 25.3123ZM13.6347 28.2893C18.4444 28.8375 22.9397 28.8375 27.7494 28.2893L27.5229 26.3021C22.8637 26.8332 18.5204 26.8332 13.8612 26.3021L13.6347 28.2893ZM27.7494 28.2893C29.308 28.1116 30.5475 26.8751 30.7211 25.3123L28.7333 25.0915C28.6632 25.723 28.1579 26.2298 27.5229 26.3021L27.7494 28.2893ZM30.7211 25.3123C31.2517 20.5349 31.2517 11.4652 30.7211 6.68786L28.7333 6.90866C29.2477 11.5393 29.2477 20.4609 28.7333 25.0915L30.7211 25.3123ZM30.7211 6.68788C30.5475 5.125 29.3079 3.88865 27.7494 3.71098L27.5229 5.69811C28.158 5.77051 28.6632 6.27724 28.7333 6.90865L30.7211 6.68788ZM27.7494 3.71098C22.9397 3.16275 18.4444 3.16275 13.6347 3.71098L13.8612 5.69811C18.5204 5.16703 22.8637 5.16704 27.5229 5.69811L27.7494 3.71098ZM13.6347 3.71098C12.0762 3.88864 10.8366 5.125 10.6631 6.68788L12.6508 6.90865C12.721 6.27724 13.2262 5.77051 13.8612 5.69811L13.6347 3.71098ZM19.3095 15.0002L2.28652 15.0002L2.28652 17.0002L19.3095 17.0002L19.3095 15.0002ZM6.28524 9.83326C4.1376 11.533 3.11869 12.7129 1.82284 14.4232L3.41697 15.631C4.63678 14.021 5.54107 12.9729 7.52645 11.4015L6.28524 9.83326ZM1.82282 14.4233C1.10723 15.3678 1.10725 16.6319 1.82281 17.5765L3.417 16.3688C3.2425 16.1385 3.24252 15.8613 3.41699 15.631L1.82282 14.4233ZM1.82284 17.5766C3.11869 19.2869 4.1376 20.4667 6.28524 22.1665L7.52645 20.5983C5.54107 19.0269 4.63678 17.9787 3.41697 16.3688L1.82284 17.5766Z" fill="#111827"/>
</svg>
