<svg width="32" height="32" viewBox="0 0 32 32" fill="none" xmlns="http://www.w3.org/2000/svg">
<path d="M14.4707 3.85902C14.1546 3.00554 13.3623 2.41882 12.4531 2.37744C9.16926 2.22799 7.18801 2.26803 4.55317 2.45354C3.45233 2.53104 2.57704 3.3987 2.45107 4.49504C1.67992 11.2068 1.42409 17.9419 2.22739 24.669C2.49998 26.9517 4.36917 28.6109 6.60533 28.8544C12.9196 29.5419 19.143 29.5243 25.4569 28.837C27.6509 28.5981 29.4125 26.8605 29.6742 24.669C30.1707 20.5114 30.303 16.2495 29.9938 11.0218C29.8658 8.85605 28.1675 7.11317 26.0052 6.93415C22.9323 6.67975 20.7963 6.66517 17.0193 6.58526C16.0833 6.56545 15.254 5.9742 14.9289 5.0963L14.4707 3.85902Z" stroke="#111827" stroke-width="2" stroke-linejoin="round"/>
</svg>
