<svg width="32" height="32" viewBox="0 0 32 32" fill="none" xmlns="http://www.w3.org/2000/svg">
<g clip-path="url(#clip0_217_395)">
<path d="M27.0514 2.27294C21.823 1.9044 17.978 1.90443 12.8602 2.26934C11.0884 2.39566 9.73034 3.88378 9.73034 5.66005V9.64311C9.73034 11.4161 11.0835 12.9025 12.8516 13.0333C18.063 13.4186 21.9123 13.4196 27.0694 13.0356C28.8361 12.9041 30.1869 11.4182 30.1869 9.6467V5.66535C30.1869 3.88686 28.8256 2.39799 27.0514 2.27294Z" stroke="#111827" stroke-width="2" stroke-linecap="round" stroke-linejoin="round"/>
<path d="M27.0514 19.2459C21.823 18.8773 17.978 18.8774 12.8602 19.2423C11.0884 19.3686 9.73034 20.8567 9.73034 22.633V26.6161C9.73034 28.3891 11.0835 29.8755 12.8516 30.0062C18.063 30.3916 21.9123 30.3925 27.0694 30.0085C28.8361 29.8771 30.1869 28.3911 30.1869 26.6197V22.6383C30.1869 20.8598 28.8256 19.3709 27.0514 19.2459Z" stroke="#111827" stroke-width="2" stroke-linecap="round" stroke-linejoin="round"/>
<path d="M3.51228 6.29994C4.70076 6.29994 5.66421 5.33648 5.66421 4.14803C5.66421 2.95955 4.70076 1.99609 3.51228 1.99609C2.3238 1.99609 1.36035 2.95955 1.36035 4.14803C1.36035 5.33648 2.3238 6.29994 3.51228 6.29994Z" stroke="#111827" stroke-width="2" stroke-linecap="round" stroke-linejoin="round"/>
<path d="M3.51228 23.273C4.70076 23.273 5.66421 22.3094 5.66421 21.121C5.66421 19.9325 4.70076 18.969 3.51228 18.969C2.3238 18.969 1.36035 19.9325 1.36035 21.121C1.36035 22.3094 2.3238 23.273 3.51228 23.273Z" stroke="#111827" stroke-width="2" stroke-linecap="round" stroke-linejoin="round"/>
</g>
<defs>
<clipPath id="clip0_217_395">
<rect width="32" height="32" fill="white"/>
</clipPath>
</defs>
</svg>
