<svg width="32" height="32" viewBox="0 0 32 32" fill="none" xmlns="http://www.w3.org/2000/svg">
<g clip-path="url(#clip0_217_837)">
<path d="M30.0617 14.3087C30.0351 13.0811 29.9848 11.8542 29.9108 10.6287C29.8494 9.58136 29.4122 8.59138 28.6795 7.84059C27.9468 7.08979 26.9677 6.62862 25.9222 6.5418C22.8502 6.2858 20.7131 6.27209 16.9371 6.19209C16.4794 6.18254 16.0352 6.03552 15.6622 5.77015C15.2892 5.50478 15.0047 5.13332 14.8456 4.70409L14.3885 3.46523C14.2349 3.04731 13.9615 2.68393 13.6026 2.4205C13.2436 2.15707 12.815 2.00528 12.3702 1.98409C9.73823 1.838 7.09952 1.86319 4.47079 2.05952C3.93693 2.10127 3.43448 2.3284 3.05045 2.70159C2.66641 3.07477 2.42497 3.5705 2.36793 4.10294C1.59993 10.8115 1.34165 17.5498 2.14851 24.2744C2.42051 26.5555 4.29022 28.2149 6.52565 28.4572C8.92011 28.719 11.3245 28.8799 13.7325 28.9395M30.7268 30.6332L28.0136 27.9201M23.2982 29.4904C27.3211 29.4904 29.5839 27.2275 29.5839 23.2047C29.5839 19.1818 27.3211 16.9189 23.2982 16.9189C19.2754 16.9189 17.0125 19.1818 17.0125 23.2047C17.0125 27.2275 19.2754 29.4904 23.2982 29.4904Z" stroke="#111827" stroke-width="2" stroke-linecap="round" stroke-linejoin="round"/>
</g>
<defs>
<clipPath id="clip0_217_837">
<rect width="32" height="32" fill="white"/>
</clipPath>
</defs>
</svg>
