<svg width="32" height="32" viewBox="0 0 32 32" fill="none" xmlns="http://www.w3.org/2000/svg">
<g clip-path="url(#clip0_217_2674)">
<path d="M2.19356 23.4709L3.18789 23.3646L3.18789 23.3645L2.19356 23.4709ZM8.48566 29.7793L8.37489 30.7731L8.3749 30.7731L8.48566 29.7793ZM23.5134 29.7793L23.6242 30.7731L23.6242 30.7731L23.5134 29.7793ZM29.8055 23.4709L28.8112 23.3645L28.8112 23.3646L29.8055 23.4709ZM29.8055 8.52914L28.8112 8.6355L28.8112 8.63554L29.8055 8.52914ZM23.5134 2.22089L23.4026 3.21474L23.4026 3.21474L23.5134 2.22089ZM8.48566 2.22089L8.59644 3.21474L8.59644 3.21474L8.48566 2.22089ZM2.19356 8.52914L3.18789 8.63553L3.18789 8.63553L2.19356 8.52914ZM21.6971 23.0801C22.0911 23.4672 22.7243 23.4615 23.1113 23.0675C23.4983 22.6735 23.4926 22.0404 23.0986 21.6533L21.6971 23.0801ZM19.5112 18.1294C19.1172 17.7424 18.484 17.7481 18.097 18.1421C17.71 18.5361 17.7157 19.1692 18.1097 19.5562L19.5112 18.1294ZM1.19924 23.5773C1.60168 27.339 4.61955 30.3545 8.37489 30.7731L8.59644 28.7854C5.7691 28.4703 3.49005 26.1889 3.18789 23.3646L1.19924 23.5773ZM8.3749 30.7731C10.8282 31.0465 13.3831 31.2858 15.9996 31.2858V29.2858C13.4978 29.2858 11.0325 29.0569 8.59643 28.7854L8.3749 30.7731ZM15.9996 31.2858C18.6161 31.2858 21.171 31.0465 23.6242 30.7731L23.4026 28.7854C20.9666 29.0569 18.5014 29.2858 15.9996 29.2858V31.2858ZM23.6242 30.7731C27.3796 30.3545 30.3975 27.339 30.7999 23.5773L28.8112 23.3646C28.5091 26.1889 26.2301 28.4703 23.4026 28.7854L23.6242 30.7731ZM30.7998 23.5773C31.061 21.1369 31.2853 18.5988 31.2853 16.0001H29.2853C29.2853 18.49 29.0703 20.9433 28.8112 23.3645L30.7998 23.5773ZM31.2853 16.0001C31.2853 13.4013 31.061 10.8632 30.7999 8.42275L28.8112 8.63554C29.0703 11.0568 29.2853 13.5101 29.2853 16.0001H31.2853ZM30.7999 8.42279C30.3975 4.66118 27.3796 1.64562 23.6242 1.22704L23.4026 3.21474C26.2301 3.52988 28.5091 5.81128 28.8112 8.6355L30.7999 8.42279ZM23.6242 1.22705C21.171 0.953591 18.6161 0.714355 15.9996 0.714355V2.71436C18.5014 2.71436 20.9666 2.9432 23.4026 3.21474L23.6242 1.22705ZM15.9996 0.714355C13.3831 0.714355 10.8282 0.953591 8.37488 1.22705L8.59644 3.21474C11.0325 2.9432 13.4978 2.71436 15.9996 2.71436V0.714355ZM8.37489 1.22704C4.61955 1.64562 1.60168 4.66119 1.19924 8.42276L3.18789 8.63553C3.49005 5.81127 5.7691 3.52988 8.59644 3.21474L8.37489 1.22704ZM1.19924 8.42276C0.938134 10.8632 0.713867 13.4013 0.713867 16.0001H2.71387C2.71387 13.5101 2.92884 11.0568 3.18789 8.63553L1.19924 8.42276ZM0.713867 16.0001C0.713867 18.5988 0.938136 21.1369 1.19924 23.5773L3.18789 23.3645C2.92884 20.9433 2.71387 18.49 2.71387 16.0001H0.713867ZM14.9937 21.4185C18.5242 21.4185 21.3862 18.5565 21.3862 15.026H19.3862C19.3862 17.4519 17.4196 19.4185 14.9937 19.4185V21.4185ZM21.3862 15.026C21.3862 11.4955 18.5242 8.63344 14.9937 8.63344V10.6334C17.4196 10.6334 19.3862 12.6 19.3862 15.026H21.3862ZM14.9937 8.63344C11.4632 8.63344 8.60114 11.4955 8.60114 15.026H10.6011C10.6011 12.6 12.5677 10.6334 14.9937 10.6334V8.63344ZM8.60114 15.026C8.60114 18.5565 11.4632 21.4185 14.9937 21.4185V19.4185C12.5677 19.4185 10.6011 17.4519 10.6011 15.026H8.60114ZM23.0986 21.6533L19.5112 18.1294L18.1097 19.5562L21.6971 23.0801L23.0986 21.6533Z" fill="#111827"/>
</g>
<defs>
<clipPath id="clip0_217_2674">
<rect width="32" height="32" fill="white"/>
</clipPath>
</defs>
</svg>
