<svg width="32" height="32" viewBox="0 0 32 32" fill="none" xmlns="http://www.w3.org/2000/svg">
<path d="M6.84938 13.9735C6.8429 10.9974 6.95809 8.02222 7.19464 5.05548C7.22357 4.60003 7.40209 4.16688 7.70247 3.82331C8.00285 3.47974 8.40827 3.24497 8.85578 3.15548C11.1532 2.72119 13.4657 2.53662 16.3364 2.53662C19.207 2.53662 21.5196 2.71902 23.8169 3.15548C24.7398 3.32919 25.4086 4.11959 25.4781 5.05548C25.8298 9.75879 25.9124 13.4632 25.73 17.6888M2.58687 16.1688C2.85612 21.2912 4.21109 25.7601 5.22298 28.2398C5.38105 28.608 5.64509 28.9209 5.9815 29.1386C6.31791 29.3563 6.71148 29.469 7.11212 29.4623H25.8342C26.7245 29.4623 27.5279 28.9238 27.8058 28.0813C28.7461 25.215 29.189 22.1642 29.3628 20.0796C29.4561 18.9809 28.6332 18.0515 27.5366 17.9386C23.906 17.5607 19.6673 17.2394 16.7663 17.2611C16.3348 17.2582 15.9112 17.1458 15.5351 16.9342C15.1591 16.7226 14.843 16.4189 14.6166 16.0516C14.348 15.6214 14.0475 15.212 13.7176 14.8269C13.4582 14.5313 13.1074 14.331 12.7209 14.258C10.1065 13.7455 6.59098 13.8888 4.30012 14.1364C3.80768 14.1891 3.3546 14.4299 3.0354 14.8086C2.71619 15.1873 2.55551 15.6746 2.58687 16.1688Z" stroke="#111827" stroke-width="2" stroke-linecap="round" stroke-linejoin="round"/>
</svg>
