<svg width="32" height="32" viewBox="0 0 32 32" fill="none" xmlns="http://www.w3.org/2000/svg">
<path d="M16.0004 29.7142C23.5746 29.7142 29.7147 23.5741 29.7147 15.9999M16.0004 29.7142C8.42622 29.7142 2.28613 23.5741 2.28613 15.9999M16.0004 29.7142C19.1688 25.818 21.275 22.5962 21.275 15.9999C21.275 9.00711 19.1688 6.18187 16.0004 2.28564M16.0004 29.7142C12.8321 25.818 10.7256 22.5962 10.7256 15.9999C10.7256 9.08018 12.8321 6.18187 16.0004 2.28564M29.7147 15.9999C29.7147 8.42574 23.5746 2.28564 16.0004 2.28564M29.7147 15.9999H2.28613M16.0004 2.28564C8.42622 2.28564 2.28613 8.42574 2.28613 15.9999" stroke="#111827" stroke-width="2" stroke-linecap="round" stroke-linejoin="round"/>
</svg>
