<svg width="32" height="32" viewBox="0 0 32 32" fill="none" xmlns="http://www.w3.org/2000/svg">
<path d="M11.0157 4.96481L11.7228 5.67192L11.7228 5.6719L11.0157 4.96481ZM12.5228 3.51095L13.2007 4.24604L13.2007 4.24603L12.5228 3.51095ZM20.7449 3.61255L20.0928 4.37066L20.0928 4.37066L20.7449 3.61255ZM24.7538 7.38917L25.4609 6.68206L25.4609 6.68202L24.7538 7.38917ZM28.5173 11.3795L27.7602 12.0329L27.7603 12.0329L28.5173 11.3795ZM28.605 19.7148L29.3438 20.3887L29.3439 20.3887L28.605 19.7148ZM25.7659 22.5538L25.0921 21.8149L25.092 21.815L25.7659 22.5538ZM17.4307 22.4661L18.0842 21.7091L18.0841 21.7091L17.4307 22.4661ZM9.66375 14.6937L8.90564 15.3459L8.90565 15.3459L9.66375 14.6937ZM9.56215 6.47157L10.2972 7.14955L10.2972 7.14955L9.56215 6.47157ZM3.15099 24.3182L3.82048 25.061L3.82052 25.0609L3.15099 24.3182ZM11.6216 16.8846L12.3287 16.1775C11.9585 15.8074 11.3655 15.7853 10.9689 16.127L11.6216 16.8846ZM15.2581 20.5212L16.0157 21.1739C16.3575 20.7773 16.3354 20.1843 15.9653 19.8141L15.2581 20.5212ZM7.82471 28.9918L7.08191 28.3222L7.08189 28.3223L7.82471 28.9918ZM3.06699 29.0759L2.35988 29.783L2.35988 29.783L3.06699 29.0759ZM11.7228 5.6719C12.6488 4.74589 12.5255 4.86887 13.2007 4.24604L11.8448 2.77587C11.1483 3.41823 11.2522 3.31401 10.3085 4.25771L11.7228 5.6719ZM13.2007 4.24603C15.0655 2.52615 18.0577 2.62002 20.0928 4.37066L21.3971 2.85445C18.7067 0.540148 14.562 0.26969 11.8448 2.77587L13.2007 4.24603ZM20.0928 4.37066C21.1625 5.2908 22.2495 6.29923 24.0468 8.09632L25.4609 6.68202C23.6408 4.86216 22.516 3.817 21.3971 2.85445L20.0928 4.37066ZM24.0467 8.09628C25.8224 9.87201 26.8383 10.9648 27.7602 12.0329L29.2743 10.7261C28.3109 9.61 27.2591 8.48028 25.4609 6.68206L24.0467 8.09628ZM27.7603 12.0329C29.5312 14.0844 29.6113 17.1274 27.8661 19.041L29.3439 20.3887C31.8507 17.6399 31.6268 13.4514 29.2742 10.7261L27.7603 12.0329ZM27.8662 19.0409C27.2549 19.7111 27.402 19.5744 26.5137 20.4629L27.9279 21.877C28.8517 20.9532 28.7314 21.0601 29.3438 20.3887L27.8662 19.0409ZM26.5137 20.4629C25.6254 21.3512 25.7624 21.2036 25.0921 21.8149L26.4398 23.2927C27.1112 22.6804 27.0041 22.8009 27.9279 21.877L26.5137 20.4629ZM25.092 21.815C23.1787 23.5602 20.1357 23.48 18.0842 21.7091L16.7773 23.2231C19.5025 25.5755 23.6912 25.7998 26.4399 23.2926L25.092 21.815ZM18.0841 21.7091C17.016 20.7872 15.9232 19.7712 14.1475 17.9954L12.7333 19.4096C14.5315 21.2078 15.6612 22.2597 16.7773 23.2231L18.0841 21.7091ZM14.1475 17.9954C12.3504 16.1984 11.342 15.1113 10.4218 14.0416L8.90565 15.3459C9.86821 16.4648 10.9133 17.5897 12.7333 19.4096L14.1475 17.9954ZM10.4219 14.0416C8.67123 12.0065 8.57735 9.01429 10.2972 7.14955L8.82707 5.79359C6.32089 8.51085 6.59135 12.6555 8.90564 15.3459L10.4219 14.0416ZM10.2972 7.14955C10.92 6.47432 10.7969 6.59773 11.7228 5.67192L10.3086 4.25769C9.36504 5.20119 9.46935 5.09721 8.82706 5.7936L10.2972 7.14955ZM3.82052 25.0609C5.51584 23.5328 7.62841 21.6789 9.31961 20.2048C10.1647 19.4683 10.9036 18.8275 11.4311 18.3708C11.6949 18.1425 11.9058 17.9603 12.0507 17.8351C12.1232 17.7726 12.1791 17.7243 12.217 17.6917C12.2359 17.6754 12.2502 17.663 12.2599 17.6547C12.2647 17.6506 12.2683 17.6474 12.2707 17.6453C12.2719 17.6443 12.2728 17.6435 12.2734 17.643C12.2737 17.6427 12.274 17.6426 12.2741 17.6424C12.2742 17.6424 12.2742 17.6423 12.2743 17.6423C12.2743 17.6423 12.2743 17.6422 11.6216 16.8846C10.9689 16.127 10.9689 16.1271 10.9688 16.1271C10.9688 16.1271 10.9687 16.1272 10.9686 16.1273C10.9685 16.1274 10.9682 16.1276 10.9679 16.1279C10.9673 16.1284 10.9663 16.1292 10.9651 16.1303C10.9626 16.1324 10.9589 16.1356 10.9541 16.1398C10.9443 16.1482 10.9298 16.1607 10.9108 16.1772C10.8727 16.21 10.8165 16.2585 10.7437 16.3213C10.5982 16.4469 10.3867 16.6297 10.1222 16.8586C9.59331 17.3164 8.85267 17.9588 8.00552 18.6971C6.31226 20.173 4.18953 22.0357 2.48146 23.5754L3.82052 25.0609ZM10.9145 17.5918L14.551 21.2283L15.9653 19.8141L12.3287 16.1775L10.9145 17.5918ZM15.2581 20.5212C14.5006 19.8685 14.5005 19.8685 14.5005 19.8685C14.5005 19.8685 14.5004 19.8686 14.5004 19.8687C14.5002 19.8688 14.5001 19.869 14.4998 19.8693C14.4993 19.8699 14.4985 19.8709 14.4975 19.8721C14.4954 19.8745 14.4922 19.8781 14.4881 19.8829C14.4798 19.8925 14.4674 19.9069 14.4511 19.9258C14.4185 19.9636 14.3702 20.0196 14.3077 20.0921C14.1825 20.237 14.0003 20.4479 13.772 20.7116C13.3153 21.2392 12.6745 21.9781 11.938 22.8231C10.464 24.5143 8.61001 26.6269 7.08191 28.3222L8.5675 29.6613C10.1071 27.9532 11.9699 25.8305 13.4457 24.1372C14.184 23.2901 14.8264 22.5495 15.2842 22.0206C15.5131 21.7561 15.6959 21.5446 15.8215 21.3991C15.8843 21.3263 15.9328 21.2701 15.9656 21.232C15.9821 21.213 15.9946 21.1985 16.003 21.1887C16.0072 21.1839 16.0103 21.1802 16.0125 21.1777C16.0136 21.1765 16.0144 21.1755 16.0149 21.1749C16.0152 21.1746 16.0154 21.1743 16.0155 21.1742C16.0156 21.1741 16.0156 21.174 16.0157 21.174C16.0157 21.1739 16.0157 21.1739 15.2581 20.5212ZM7.08189 28.3223C6.21217 29.2872 4.72379 29.3185 3.77411 28.3688L2.35988 29.783C4.08809 31.5112 6.9017 31.5095 8.56753 29.6612L7.08189 28.3223ZM3.77411 28.3688C2.82438 27.419 2.85567 25.9305 3.82048 25.061L2.48151 23.5753C0.633282 25.2411 0.631728 28.0548 2.35988 29.783L3.77411 28.3688Z" fill="#111827"/>
</svg>
