<svg width="32" height="32" viewBox="0 0 32 32" fill="none" xmlns="http://www.w3.org/2000/svg">
<path d="M16.3479 9.07449V15.8334M16.3479 20.9827V21.6971M9.20566 3.76336C11.3661 2.46931 13.837 1.78546 16.3554 1.78467C18.4506 1.78344 20.5192 2.25514 22.4068 3.16462C24.2943 4.07411 25.9524 5.3979 27.257 7.03735C28.5617 8.6768 29.4797 10.5896 29.9423 12.6331C30.4049 14.6767 30.4004 16.7983 29.9288 18.8399C29.4573 20.8814 28.5311 22.7902 27.2191 24.4238C25.9073 26.0577 24.2436 27.3742 22.352 28.2755C20.4605 29.1768 18.3899 29.6394 16.2947 29.6289C14.5459 29.6204 12.8176 29.2824 11.1993 28.636L3.58975 29.9029C2.73953 30.0446 2.04456 29.2298 2.31839 28.4126L4.26504 22.6024C3.1807 20.7005 2.55789 18.5653 2.45325 16.3695C2.33341 13.854 2.89809 11.3531 4.08719 9.13321C5.27626 6.91328 7.04522 5.05744 9.20566 3.76336Z" stroke="#111827" stroke-width="2" stroke-linecap="round" stroke-linejoin="round"/>
</svg>
