<svg width="32" height="32" viewBox="0 0 32 32" fill="none" xmlns="http://www.w3.org/2000/svg">
<path d="M16.4289 16.8429C16.4289 16.0612 17.0673 15.5791 18.1921 14.8278C19.2343 14.1286 19.7859 13.2253 19.5427 11.9941C19.4132 11.3818 19.1087 10.8203 18.6662 10.3778C18.2237 9.93525 17.6622 9.63076 17.0499 9.5013C16.5905 9.41579 16.118 9.43176 15.6654 9.54809C15.2129 9.66443 14.7912 9.87831 14.43 10.1748C14.0688 10.4712 13.7768 10.843 13.5745 11.2642C13.3721 11.6854 13.2643 12.1457 13.2586 12.613M16.4288 22.2715V21.7286M16.4288 29.4285C25.1146 29.4285 30.0003 24.5428 30.0003 15.8571C30.0003 7.17136 25.1146 2.28564 16.4288 2.28564C7.74314 2.28564 2.85742 7.17136 2.85742 15.8571C2.85742 24.5428 7.74314 29.4285 16.4288 29.4285Z" stroke="#111827" stroke-width="2" stroke-linecap="round" stroke-linejoin="round"/>
</svg>
