<svg width="32" height="32" viewBox="0 0 32 32" fill="none" xmlns="http://www.w3.org/2000/svg">
<path d="M4.67325 12.4544C5.01895 12.0237 4.95003 11.3943 4.51931 11.0486C4.0886 10.7029 3.4592 10.7718 3.1135 11.2025L4.67325 12.4544ZM19.1726 27.4465C19.7075 27.3089 20.0295 26.7637 19.8919 26.2289C19.7543 25.694 19.2091 25.3719 18.6743 25.5095L19.1726 27.4465ZM3.64583 1.099C3.30598 0.663662 2.67757 0.586254 2.24223 0.926105C1.80689 1.26596 1.72948 1.89437 2.06933 2.32971L3.64583 1.099ZM29.666 29.9274C30.0992 30.2699 30.7281 30.1963 31.0706 29.7631C31.4131 29.3298 31.3396 28.701 30.9063 28.3585L29.666 29.9274ZM8.42892 8.87748C10.6327 7.28164 13.2431 6.14293 16.0004 6.14293V4.14293C12.692 4.14293 9.67806 5.5036 7.25589 7.25761L8.42892 8.87748ZM16.0004 6.14293C19.5929 6.14293 22.9315 8.07878 25.4195 10.4023C26.6541 11.5553 27.6455 12.7735 28.3211 13.8298C28.659 14.3583 28.9091 14.8325 29.0716 15.226C29.2416 15.6379 29.2862 15.8911 29.2862 16.0001H31.2862C31.2862 15.5089 31.1308 14.9728 30.9202 14.4628C30.7021 13.9344 30.3909 13.3542 30.006 12.7523C29.2357 11.5479 28.1351 10.2018 26.7845 8.94056C24.1021 6.43553 20.2978 4.14293 16.0004 4.14293V6.14293ZM29.2862 16.0001C29.2862 16.1523 29.2046 16.5219 28.9195 17.1127C28.6489 17.6734 28.239 18.3437 27.6998 19.0655C26.621 20.5098 25.071 22.099 23.211 23.3773L24.3437 25.0256C26.4017 23.6113 28.1061 21.8636 29.3022 20.2623C29.9005 19.4613 30.3831 18.6816 30.7207 17.982C31.0438 17.3125 31.2862 16.6117 31.2862 16.0001H29.2862ZM3.1135 11.2025C2.38989 12.1041 1.80593 12.9909 1.39761 13.7831C1.00805 14.5389 0.714844 15.3284 0.714844 16H2.71484C2.71484 15.8237 2.82074 15.3874 3.17537 14.6993C3.51124 14.0477 4.01655 13.2726 4.67325 12.4544L3.1135 11.2025ZM0.714844 16C0.714844 16.4911 0.870197 17.0273 1.08075 17.5373C1.2989 18.0657 1.6101 18.6459 1.99503 19.2478C2.76528 20.4522 3.86595 21.7983 5.2165 23.0596C7.8989 25.5646 11.7032 27.8572 16.0006 27.8572V25.8572C12.4081 25.8572 9.06957 23.9213 6.58156 21.5978C5.34691 20.4448 4.35549 19.2266 3.67994 18.1703C3.34197 17.6418 3.09186 17.1676 2.92941 16.7741C2.75936 16.3622 2.71484 16.109 2.71484 16H0.714844ZM16.0006 27.8572C17.0936 27.8572 18.155 27.7083 19.1726 27.4465L18.6743 25.5095C17.8048 25.7332 16.9109 25.8572 16.0006 25.8572V27.8572ZM2.06933 2.32971C11.396 14.2768 17.473 20.2881 29.666 29.9274L30.9063 28.3585C18.8299 18.8113 12.8678 12.912 3.64583 1.099L2.06933 2.32971Z" fill="#111827"/>
</svg>
