<svg width="32" height="32" viewBox="0 0 32 32" fill="none" xmlns="http://www.w3.org/2000/svg">
<g clip-path="url(#clip0_213_7047)">
<path d="M11.7878 30.1029C11.7366 29.0193 11.6999 27.9162 11.6999 26.7975C11.6999 25.1621 11.7784 23.5598 11.866 22.0025C11.8725 21.8879 11.8045 21.7809 11.6978 21.7422C8.80333 20.6905 7.23284 18.4173 7.23284 15.1275C7.23284 11.6226 9.01538 9.27154 12.2824 8.32228C12.4596 8.27081 12.6325 8.40957 12.6325 8.59634C12.6325 13.3354 13.9132 14.5074 16.1901 14.5074C18.467 14.5074 19.7478 13.3354 19.7478 8.59634C19.7478 8.47062 19.8673 8.37963 19.9854 8.41833C23.0544 9.42413 24.7239 11.7355 24.7239 15.1275C24.7239 18.4173 23.1534 20.6905 20.2591 21.7421C20.1524 21.7809 20.0844 21.8879 20.0909 22.0025C20.1785 23.5598 20.257 25.1621 20.257 26.7975C20.257 27.9173 20.2202 29.0215 20.1688 30.1063M2.19356 23.4709C2.54587 26.764 5.19432 29.4124 8.48566 29.7793C10.9303 30.0517 13.4404 30.2858 15.9996 30.2858C18.5587 30.2858 21.0688 30.0517 23.5134 29.7793C26.8048 29.4124 29.4533 26.764 29.8055 23.4709C30.0656 21.0401 30.2853 18.5444 30.2853 16.0001C30.2853 13.4557 30.0656 10.96 29.8055 8.52914C29.4533 5.23623 26.8048 2.58775 23.5134 2.22089C21.0688 1.94839 18.5587 1.71436 15.9996 1.71436C13.4404 1.71436 10.9303 1.94839 8.48566 2.22089C5.19432 2.58775 2.54587 5.23623 2.19356 8.52914C1.93349 10.96 1.71387 13.4557 1.71387 16.0001C1.71387 18.5444 1.93349 21.0401 2.19356 23.4709Z" stroke="#111827" stroke-width="2" stroke-linecap="round" stroke-linejoin="round"/>
</g>
<defs>
<clipPath id="clip0_213_7047">
<rect width="32" height="32" fill="white"/>
</clipPath>
</defs>
</svg>
