<svg width="32" height="32" viewBox="0 0 32 32" fill="none" xmlns="http://www.w3.org/2000/svg">
<path d="M13.6704 1.83532C13.5379 1.75616 13.3864 1.71436 13.2321 1.71436C13.0777 1.71436 12.9262 1.75616 12.7937 1.83532C12.6844 1.92193 12.6106 2.04562 12.5864 2.18296C12.5621 2.3203 12.5891 2.46176 12.6622 2.58057C14.6162 5.96434 15.4533 10.2347 14.3642 13.6642C13.6593 15.8838 10.7991 16.0115 9.61402 14.0067C9.3708 13.5952 9.15158 13.1687 8.95786 12.7291C7.5961 13.4854 6.46753 14.6003 5.69471 15.9527C4.92186 17.3052 4.5343 18.8435 4.57407 20.4007C4.80495 26.1025 8.47565 30.2643 15.5335 30.2643C22.5915 30.2643 26.252 25.8805 26.4931 20.4007C26.7779 13.825 22.1092 5.73689 13.6704 1.83532Z" stroke="#111827" stroke-width="2" stroke-linecap="round" stroke-linejoin="round"/>
</svg>
