<svg width="32" height="32" viewBox="0 0 32 32" fill="none" xmlns="http://www.w3.org/2000/svg">
<path d="M3.58272 23.6583L2.58899 23.7701L2.58899 23.7701L3.58272 23.6583ZM6.63987 28.1047L6.2313 29.0174L6.23136 29.0174L6.63987 28.1047ZM25.3607 28.1047L25.7692 29.0174L25.7693 29.0174L25.3607 28.1047ZM28.4179 23.6583L29.4116 23.7701L29.4116 23.77L28.4179 23.6583ZM3.52493 17.3943C3.03262 17.144 2.43062 17.3402 2.18031 17.8325C1.93 18.3248 2.12618 18.9268 2.61849 19.1771L3.52493 17.3943ZM29.3843 19.176C29.876 18.9245 30.0708 18.3221 29.8193 17.8303C29.5678 17.3386 28.9654 17.1439 28.4737 17.3953L29.3843 19.176ZM2.24206 7.68645C2.08096 9.86738 1.96387 12.5204 1.96387 14.6532H3.96387C3.96387 12.5801 4.07827 9.97751 4.23662 7.83378L2.24206 7.68645ZM1.96387 14.6532C1.96387 17.6115 2.30678 21.2615 2.58899 23.7701L4.57646 23.5465C4.29569 21.0508 3.96387 17.4934 3.96387 14.6532H1.96387ZM2.58899 23.7701C2.83775 25.9813 4.08377 28.0561 6.2313 29.0174L7.04843 27.192C5.65937 26.5702 4.76088 25.1858 4.57646 23.5465L2.58899 23.7701ZM6.23136 29.0174C8.48475 30.026 11.9565 31.1899 16.0003 31.1899V29.1899C12.3289 29.1899 9.14315 28.1295 7.04838 27.1919L6.23136 29.0174ZM16.0003 31.1899C20.0441 31.1899 23.5158 30.026 25.7692 29.0174L24.9522 27.1919C22.8574 28.1295 19.6717 29.1899 16.0003 29.1899V31.1899ZM25.7693 29.0174C27.9168 28.0561 29.1627 25.9813 29.4116 23.7701L27.4242 23.5464C27.2396 25.1858 26.3411 26.5702 24.9522 27.192L25.7693 29.0174ZM29.4116 23.77C29.6937 21.2615 30.0366 17.6115 30.0366 14.6532H28.0366C28.0366 17.4934 27.7048 21.0508 27.4241 23.5465L29.4116 23.77ZM30.0366 14.6532C30.0366 12.3804 29.9037 10.1503 29.7273 7.98019L27.7339 8.14223C27.9081 10.2853 28.0366 12.456 28.0366 14.6532H30.0366ZM15.9995 14.1204C20.1451 14.1204 23.5002 13.6079 25.8571 12.5645C28.2394 11.5098 29.7735 9.813 29.7735 7.46523H27.7735C27.7735 8.73678 27.0084 9.86756 25.0475 10.7357C23.0612 11.615 20.0292 12.1204 15.9995 12.1204V14.1204ZM29.7735 7.46523C29.7735 5.11747 28.2394 3.42066 25.8571 2.366C23.5002 1.32256 20.1451 0.810059 15.9995 0.810059V2.81006C20.0292 2.81006 23.0612 3.31548 25.0475 4.1948C27.0084 5.06291 27.7735 6.19369 27.7735 7.46523H29.7735ZM15.9995 0.810059C11.8538 0.810059 8.49882 1.32256 6.14188 2.366C3.75961 3.42065 2.22544 5.11747 2.22544 7.46523H4.22544C4.22544 6.19369 4.9906 5.06291 6.9515 4.1948C8.93773 3.31548 11.9697 2.81006 15.9995 2.81006V0.810059ZM2.22544 7.46523C2.22544 9.813 3.75961 11.5098 6.14188 12.5645C8.49882 13.6079 11.8538 14.1204 15.9995 14.1204V12.1204C11.9697 12.1204 8.93773 11.615 6.9515 10.7357C4.9906 9.86756 4.22544 8.73678 4.22544 7.46523H2.22544ZM2.61849 19.1771C11.0096 23.4434 20.9986 23.4643 29.3843 19.176L28.4737 17.3953C20.6629 21.3896 11.3495 21.3726 3.52493 17.3943L2.61849 19.1771Z" fill="#111827"/>
</svg>
