<svg width="32" height="32" viewBox="0 0 32 32" fill="none" xmlns="http://www.w3.org/2000/svg">
<g clip-path="url(#clip0_217_1377)">
<path d="M21.6741 14.4936C21.7491 15.0408 22.2534 15.4236 22.8006 15.3486C23.3478 15.2737 23.7306 14.7694 23.6556 14.2222L21.6741 14.4936ZM18.36 10.3721L18.3141 11.371L18.3141 11.371L18.36 10.3721ZM6.378 10.3721L6.42383 11.371L6.42383 11.371L6.378 10.3721ZM2.0731 14.3579L1.08235 14.2222L1.08235 14.2222L2.0731 14.3579ZM2.0731 23.1676L1.08235 23.3033L1.08235 23.3033L2.0731 23.1676ZM3.24348 27.0199C3.68186 27.3558 4.30956 27.2727 4.64548 26.8344C4.98139 26.396 4.89833 25.7683 4.45995 25.4324L3.24348 27.0199ZM17.3357 10.2384C17.3357 10.7907 17.7834 11.2384 18.3357 11.2384C18.8879 11.2384 19.3357 10.7907 19.3357 10.2384H17.3357ZM16.588 3.46201L15.8809 4.16911L15.8809 4.16913L16.588 3.46201ZM8.14957 3.46201L7.44246 2.75491L8.14957 3.46201ZM5.40194 10.2384C5.40194 10.7907 5.84965 11.2384 6.40194 11.2384C6.95422 11.2384 7.40194 10.7907 7.40194 10.2384H5.40194ZM21.4673 25.1548C22.0196 25.1548 22.4673 24.7071 22.4673 24.1548C22.4673 23.6025 22.0196 23.1548 21.4673 23.1548V25.1548ZM8.61693 30.2849C8.61693 30.8372 9.06465 31.2849 9.61693 31.2849C10.1692 31.2849 10.6169 30.8372 10.6169 30.2849H8.61693ZM17.3551 24.1546C17.3551 23.6023 16.9073 23.1546 16.3551 23.1546C15.8028 23.1546 15.3551 23.6023 15.3551 24.1546H17.3551ZM15.3551 28.8225C15.3551 29.3748 15.8028 29.8225 16.3551 29.8225C16.9073 29.8225 17.3551 29.3748 17.3551 28.8225H15.3551ZM22.761 27.2341L23.4681 26.527L23.4681 26.527L22.761 27.2341ZM22.761 21.0749L23.4681 21.782L23.4681 21.782L22.761 21.0749ZM28.92 21.0749L28.2129 21.782L28.2129 21.782L28.92 21.0749ZM13.369 17.1431C13.369 16.5908 12.9213 16.1431 12.369 16.1431C11.8167 16.1431 11.369 16.5908 11.369 17.1431H13.369ZM11.369 18.2323C11.369 18.7846 11.8167 19.2323 12.369 19.2323C12.9213 19.2323 13.369 18.7846 13.369 18.2323H11.369ZM23.6556 14.2222C23.2938 11.5805 21.1018 9.49682 18.4058 9.37314L18.3141 11.371C20.0139 11.449 21.4388 12.7756 21.6741 14.4936L23.6556 14.2222ZM18.4058 9.37314C16.4785 9.28472 14.5232 9.23863 12.369 9.23863V11.2386C14.4935 11.2386 16.4182 11.2841 18.3141 11.371L18.4058 9.37314ZM12.369 9.23863C10.2148 9.23863 8.25951 9.28472 6.33217 9.37314L6.42383 11.371C8.31977 11.2841 10.2445 11.2386 12.369 11.2386V9.23863ZM6.33218 9.37314C3.63616 9.49682 1.44421 11.5805 1.08235 14.2222L3.06384 14.4936C3.29918 12.7756 4.7241 11.449 6.42383 11.371L6.33218 9.37314ZM1.08235 14.2222C0.883853 15.6713 0.713867 17.1957 0.713867 18.7627H2.71387C2.71387 17.3331 2.86911 15.9153 3.06385 14.4936L1.08235 14.2222ZM0.713867 18.7627C0.713867 20.3297 0.883855 21.8542 1.08235 23.3033L3.06385 23.0319C2.86911 21.6102 2.71387 20.1924 2.71387 18.7627H0.713867ZM1.08235 23.3033C1.2896 24.8162 2.09449 26.1394 3.24348 27.0199L4.45995 25.4324C3.7172 24.8632 3.19746 24.0073 3.06385 23.0319L1.08235 23.3033ZM19.3357 10.2384V7.68121H17.3357V10.2384H19.3357ZM19.3357 7.68121C19.3357 5.83351 18.6017 4.06144 17.2951 2.7549L15.8809 4.16913C16.8124 5.10058 17.3357 6.36393 17.3357 7.68121H19.3357ZM17.2951 2.75491C15.9886 1.44835 14.2165 0.714355 12.3688 0.714355V2.71436C13.6861 2.71436 14.9494 3.23764 15.8809 4.16911L17.2951 2.75491ZM12.3688 0.714355C10.5211 0.714355 8.74902 1.44835 7.44246 2.75491L8.85668 4.16912C9.78816 3.23764 11.0515 2.71436 12.3688 2.71436V0.714355ZM7.44246 2.75491C6.13593 4.06144 5.40194 5.83351 5.40194 7.68121H7.40194C7.40194 6.36393 7.92522 5.10057 8.85668 4.16912L7.44246 2.75491ZM5.40194 7.68121V10.2384H7.40194V7.68121H5.40194ZM21.4673 23.1548H11.9026V25.1548H21.4673V23.1548ZM11.9026 23.1548C10.088 23.1548 8.61693 24.6258 8.61693 26.4405H10.6169C10.6169 25.7304 11.1925 25.1548 11.9026 25.1548V23.1548ZM8.61693 26.4405V30.2849H10.6169V26.4405H8.61693ZM15.3551 24.1546V28.8225H17.3551V24.1546H15.3551ZM28.2129 26.527C26.9027 27.8373 24.7783 27.8373 23.4681 26.527L22.0539 27.9412C24.1452 30.0326 27.5358 30.0326 29.6271 27.9412L28.2129 26.527ZM23.4681 26.527C22.1578 25.2167 22.1578 23.0923 23.4681 21.782L22.0539 20.3678C19.9625 22.4591 19.9625 25.8499 22.0539 27.9412L23.4681 26.527ZM23.4681 21.782C24.7783 20.4717 26.9027 20.4717 28.2129 21.782L29.6272 20.3678C27.5358 18.2765 24.1452 18.2765 22.0538 20.3678L23.4681 21.782ZM28.2129 21.782C29.5232 23.0923 29.5232 25.2167 28.2129 26.527L29.6271 27.9412C31.7185 25.8499 31.7185 22.4591 29.6271 20.3678L28.2129 21.782ZM11.369 17.1431V18.2323H13.369V17.1431H11.369Z" fill="#111827"/>
</g>
<defs>
<clipPath id="clip0_217_1377">
<rect width="32" height="32" fill="white"/>
</clipPath>
</defs>
</svg>
