<svg width="32" height="32" viewBox="0 0 32 32" fill="none" xmlns="http://www.w3.org/2000/svg">
<path d="M4.57122 20.0417L3.59899 7.06345C3.50674 5.83195 4.55414 4.78564 5.87915 4.78564H26.1205C27.4455 4.78564 28.4928 5.83195 28.4005 7.06345L27.4284 20.0417M1.71387 21.8005C1.71387 20.7257 2.64628 19.88 3.71823 19.9588C6.00651 20.1269 10.1976 20.3571 15.9996 20.3571C21.8015 20.3571 25.9927 20.1269 28.281 19.9588C29.353 19.88 30.2853 20.7257 30.2853 21.8005C30.2853 24.5572 28.2117 26.8495 25.4586 26.9894C23.0999 27.1094 19.9168 27.2141 15.9996 27.2141C12.0823 27.2141 8.89935 27.1094 6.54054 26.9894C3.78738 26.8495 1.71387 24.5572 1.71387 21.8005Z" stroke="#111827" stroke-width="2" stroke-linecap="round" stroke-linejoin="round"/>
</svg>
