<svg width="32" height="32" viewBox="0 0 32 32" fill="none" xmlns="http://www.w3.org/2000/svg">
<g clip-path="url(#clip0_217_1373)">
<path d="M20.2551 11.7442L11.7647 20.2346M11.8636 15.6276C10.5808 14.3448 8.55966 14.1746 7.08044 15.2249L6.43744 15.6815C5.05934 16.66 3.85202 17.859 2.86409 19.2304C1.54219 21.0654 1.74586 23.5882 3.34501 25.1873L6.81202 28.6543C8.41118 30.2534 10.934 30.457 12.7689 29.1352C14.1403 28.1473 15.3394 26.94 16.3179 25.5619L16.8193 24.8557C17.8437 23.4129 17.6777 21.4417 16.4266 20.1906L11.8636 15.6276ZM28.6541 6.81202L25.1871 3.34501C23.588 1.74586 21.0652 1.54219 19.2302 2.86409C17.8589 3.85202 16.6598 5.05934 15.6813 6.43744L15.2248 7.08044C14.1745 8.55966 14.3446 10.5808 15.6274 11.8636L20.1904 16.4266C21.4416 17.6777 23.4127 17.8437 24.8554 16.8193L25.5617 16.3179C26.9398 15.3394 28.1471 14.1403 29.135 12.7689C30.457 10.934 30.2534 8.41118 28.6541 6.81202Z" stroke="#111827" stroke-width="2" stroke-linecap="round" stroke-linejoin="round"/>
</g>
<defs>
<clipPath id="clip0_217_1373">
<rect width="32" height="32" fill="white"/>
</clipPath>
</defs>
</svg>
