<svg width="32" height="32" viewBox="0 0 32 32" fill="none" xmlns="http://www.w3.org/2000/svg">
<path d="M4.31497 24.2426L5.30861 24.13L5.30861 24.1299L4.31497 24.2426ZM10.758 30.1957L10.7935 29.1964H10.7934L10.758 30.1957ZM21.243 30.1957L21.2075 29.1964H21.2075L21.243 30.1957ZM27.686 24.2426L26.6924 24.1299L26.6924 24.13L27.686 24.2426ZM27.686 17.2814L26.6924 17.394L26.6924 17.3941L27.686 17.2814ZM21.243 11.3283L21.2784 10.3289H21.2784L21.243 11.3283ZM10.758 11.3283L10.7225 10.3289H10.7225L10.758 11.3283ZM4.31497 17.2814L3.32133 17.1688L3.32133 17.1688L4.31497 17.2814ZM21.6668 11.2382C21.6668 11.7905 22.1145 12.2382 22.6668 12.2382C23.2191 12.2382 23.6668 11.7905 23.6668 11.2382H21.6668ZM11.286 3.66697L10.5789 2.95986L10.5789 2.95987L11.286 3.66697ZM8.33342 11.2382C8.33342 11.7905 8.78113 12.2382 9.33342 12.2382C9.8857 12.2382 10.3334 11.7905 10.3334 11.2382H8.33342ZM17.0003 19.4288C17.0003 18.8765 16.5526 18.4288 16.0003 18.4288C15.448 18.4288 15.0003 18.8765 15.0003 19.4288H17.0003ZM15.0003 21.7144C15.0003 22.2666 15.448 22.7144 16.0003 22.7144C16.5526 22.7144 17.0003 22.2666 17.0003 21.7144H15.0003ZM3.32133 24.3552C3.74903 28.1285 6.93138 31.0606 10.7225 31.1951L10.7934 29.1964C7.98816 29.0968 5.62432 26.9153 5.30861 24.13L3.32133 24.3552ZM10.7225 31.1951C12.4079 31.255 14.1377 31.2858 16.0005 31.2858V29.2858C14.1602 29.2858 12.4541 29.2553 10.7935 29.1964L10.7225 31.1951ZM16.0005 31.2858C17.8633 31.2858 19.593 31.255 21.2785 31.1951L21.2075 29.1964C19.5468 29.2553 17.8407 29.2858 16.0005 29.2858V31.2858ZM21.2784 31.1951C25.0694 31.0606 28.252 28.1286 28.6796 24.3552L26.6924 24.13C26.3767 26.9152 24.0127 29.0968 21.2075 29.1964L21.2784 31.1951ZM28.6796 24.3553C28.8118 23.1894 28.9052 21.9881 28.9052 20.762H26.9052C26.9052 21.8885 26.8194 23.0101 26.6924 24.1299L28.6796 24.3553ZM28.9052 20.762C28.9052 19.5359 28.8118 18.3348 28.6796 17.1688L26.6924 17.3941C26.8194 18.5141 26.9052 19.6355 26.9052 20.762H28.9052ZM28.6796 17.1688C28.252 13.3955 25.0694 10.4634 21.2784 10.3289L21.2075 12.3276C24.0127 12.4272 26.3767 14.6088 26.6924 17.394L28.6796 17.1688ZM21.2784 10.3289C19.593 10.2691 17.8633 10.2382 16.0005 10.2382V12.2382C17.8407 12.2382 19.5468 12.2687 21.2075 12.3276L21.2784 10.3289ZM16.0005 10.2382C14.1376 10.2382 12.4079 10.2691 10.7225 10.3289L10.7934 12.3276C12.4541 12.2687 14.1602 12.2382 16.0005 12.2382V10.2382ZM10.7225 10.3289C6.93138 10.4634 3.74903 13.3955 3.32133 17.1688L5.30861 17.394C5.62432 14.6088 7.98817 12.4272 10.7934 12.3276L10.7225 10.3289ZM3.32133 17.1688C3.18918 18.3347 3.0957 19.5359 3.0957 20.762H5.0957C5.0957 19.6356 5.18165 18.5141 5.30861 17.394L3.32133 17.1688ZM3.0957 20.762C3.0957 21.9882 3.18918 23.1895 3.32134 24.3552L5.30861 24.1299C5.18165 23.01 5.0957 21.8885 5.0957 20.762H3.0957ZM23.6668 11.2382V8.38103H21.6668V11.2382H23.6668ZM23.6668 8.38103C23.6668 6.34769 22.859 4.39764 21.4212 2.95987L20.007 4.37408C21.0697 5.43679 21.6668 6.87814 21.6668 8.38103H23.6668ZM21.4212 2.95987C19.9835 1.52209 18.0334 0.714355 16.0001 0.714355V2.71436C17.503 2.71436 18.9443 3.31138 20.007 4.37408L21.4212 2.95987ZM16.0001 0.714355C13.9668 0.714355 12.0167 1.52209 10.5789 2.95986L11.9931 4.37409C13.0559 3.31137 14.4972 2.71436 16.0001 2.71436V0.714355ZM10.5789 2.95987C9.14115 4.39764 8.33342 6.3477 8.33342 8.38103H10.3334C10.3334 6.87813 10.9304 5.43678 11.9931 4.37408L10.5789 2.95987ZM8.33342 8.38103V11.2382H10.3334V8.38103H8.33342ZM15.0003 19.4288V21.7144H17.0003V19.4288H15.0003Z" fill="#111827"/>
</svg>
