<svg width="32" height="32" viewBox="0 0 32 32" fill="none" xmlns="http://www.w3.org/2000/svg">
<path d="M19.7544 6.90872C19.8153 7.45763 20.3097 7.85319 20.8586 7.79222C21.4076 7.73126 21.8031 7.23686 21.7421 6.68795L19.7544 6.90872ZM18.6572 4.70453L18.544 5.6981L18.544 5.6981L18.6572 4.70453ZM4.76906 4.70453L4.8823 5.6981L4.8823 5.6981L4.76906 4.70453ZM2.67802 6.79834L3.6719 6.90874L3.67191 6.90872L2.67802 6.79834ZM2.67802 25.202L3.67191 25.0916L3.6719 25.0916L2.67802 25.202ZM4.76906 27.2957L4.6558 28.2892H4.65581L4.76906 27.2957ZM18.6572 27.2957L18.7705 28.2892H18.7705L18.6572 27.2957ZM21.7421 25.3124C21.8031 24.7634 21.4076 24.269 20.8586 24.2081C20.3097 24.1471 19.8153 24.5427 19.7544 25.0916L21.7421 25.3124ZM13.0958 15.0001C12.5436 15.0001 12.0958 15.4479 12.0958 16.0001C12.0958 16.5524 12.5436 17.0001 13.0958 17.0001V15.0001ZM30.1188 17.0001C30.6711 17.0001 31.1188 16.5524 31.1188 16.0001C31.1188 15.4479 30.6711 15.0001 30.1188 15.0001V17.0001ZM24.8788 20.5988C24.4457 20.9416 24.3725 21.5705 24.7153 22.0036C25.058 22.4366 25.6869 22.5098 26.12 22.1671L24.8788 20.5988ZM29.7853 16.9732L30.5824 17.5771L30.5824 17.5771L29.7853 16.9732ZM29.7853 15.0277L30.5824 14.4238L30.5824 14.4238L29.7853 15.0277ZM26.12 9.83382C25.6869 9.49107 25.058 9.56428 24.7153 9.99734C24.3725 10.4304 24.4457 11.0593 24.8788 11.4021L26.12 9.83382ZM21.7421 6.68795C21.5686 5.12514 20.3291 3.8886 18.7705 3.71096L18.544 5.6981C19.179 5.77047 19.6842 6.27725 19.7544 6.90872L21.7421 6.68795ZM18.7705 3.71096C13.9608 3.16275 9.46551 3.16275 4.65581 3.71096L4.8823 5.6981C9.5415 5.16704 13.8848 5.16704 18.544 5.6981L18.7705 3.71096ZM4.65582 3.71096C3.09721 3.8886 1.8577 5.12511 1.68413 6.68795L3.67191 6.90872C3.74204 6.27723 4.2473 5.77047 4.8823 5.6981L4.65582 3.71096ZM1.68413 6.68794C1.15347 11.4653 1.15347 20.535 1.68413 25.3124L3.6719 25.0916C3.15754 20.4609 3.15754 11.5393 3.6719 6.90874L1.68413 6.68794ZM1.68413 25.3124C1.85771 26.8752 3.09727 28.1116 4.6558 28.2892L4.88232 26.3021C4.24724 26.2297 3.74203 25.723 3.67191 25.0916L1.68413 25.3124ZM4.65581 28.2892C9.46551 28.8375 13.9608 28.8375 18.7705 28.2892L18.544 26.3021C13.8848 26.8332 9.5415 26.8332 4.88231 26.3021L4.65581 28.2892ZM18.7705 28.2892C20.329 28.1116 21.5686 26.8752 21.7421 25.3124L19.7544 25.0916C19.6842 25.723 19.179 26.2297 18.544 26.3021L18.7705 28.2892ZM13.0958 17.0001H30.1188V15.0001H13.0958V17.0001ZM26.12 22.1671C28.2676 20.4673 29.2865 19.2875 30.5824 17.5771L28.9883 16.3693C27.7685 17.9793 26.8642 19.0275 24.8788 20.5988L26.12 22.1671ZM30.5824 17.5771C31.298 16.6325 31.298 15.3684 30.5824 14.4238L28.9882 15.6315C29.1627 15.8619 29.1627 16.1391 28.9882 16.3694L30.5824 17.5771ZM30.5824 14.4238C29.2865 12.7134 28.2676 11.5336 26.12 9.83382L24.8788 11.4021C26.8642 12.9734 27.7685 14.0216 28.9883 15.6316L30.5824 14.4238Z" fill="#111827"/>
</svg>
