<svg width="32" height="32" viewBox="0 0 32 32" fill="none" xmlns="http://www.w3.org/2000/svg">
<path d="M2.35768 24.0836L3.35007 23.9604L3.35006 23.9604L2.35768 24.0836ZM6.59222 28.2317L6.4882 29.2263L6.48829 29.2263L6.59222 28.2317ZM25.4069 28.2317L25.5108 29.2263L25.5109 29.2263L25.4069 28.2317ZM29.6414 24.0836L28.649 23.9604L28.649 23.9604L29.6414 24.0836ZM29.6414 7.9158L28.649 8.039L28.649 8.03903L29.6414 7.9158ZM25.4069 3.76771L25.5109 2.77313L25.5109 2.77313L25.4069 3.76771ZM6.59222 3.76771L6.48826 2.77313L6.48825 2.77313L6.59222 3.76771ZM2.35766 7.9158L1.36528 7.79259L1.36528 7.7926L2.35766 7.9158ZM13.1692 15.7981L13.7883 15.0129L13.7883 15.0129L13.1692 15.7981ZM18.83 15.7981L18.2108 15.0129L18.83 15.7981ZM1.3653 24.2068C1.69462 26.8594 3.83286 28.9486 6.4882 29.2263L6.69625 27.2371C4.96334 27.0559 3.56434 25.6863 3.35007 23.9604L1.3653 24.2068ZM6.48829 29.2263C9.51493 29.5426 12.7139 29.8841 15.9996 29.8841V27.8841C12.836 27.8841 9.74174 27.5554 6.69615 27.2371L6.48829 29.2263ZM15.9996 29.8841C19.2852 29.8841 22.4842 29.5426 25.5108 29.2263L25.303 27.2371C22.2574 27.5554 19.1631 27.8841 15.9996 27.8841V29.8841ZM25.5109 29.2263C28.1662 28.9486 30.3045 26.8594 30.6338 24.2068L28.649 23.9604C28.4348 25.6863 27.0357 27.0559 25.3029 27.2371L25.5109 29.2263ZM30.6338 24.2068C30.958 21.5962 31.2853 18.8362 31.2853 15.9997H29.2853C29.2853 18.697 28.974 21.3432 28.649 23.9604L30.6338 24.2068ZM31.2853 15.9997C31.2853 13.1631 30.958 10.4031 30.6338 7.79258L28.649 8.03903C28.974 10.6561 29.2853 13.3023 29.2853 15.9997H31.2853ZM30.6338 7.79261C30.3045 5.14004 28.1662 3.05073 25.5109 2.77313L25.3029 4.76229C27.0357 4.94344 28.4348 6.31305 28.649 8.039L30.6338 7.79261ZM25.5109 2.77313C22.4842 2.45675 19.2852 2.11523 15.9996 2.11523V4.11523C19.1631 4.11523 22.2574 4.44394 25.3029 4.7623L25.5109 2.77313ZM15.9996 2.11523C12.7139 2.11523 9.5149 2.45675 6.48826 2.77313L6.69619 4.7623C9.74173 4.44394 12.8361 4.11523 15.9996 4.11523V2.11523ZM6.48825 2.77313C3.83283 3.05073 1.69462 5.14005 1.36528 7.79259L3.35004 8.03902C3.56434 6.31304 4.96336 4.94344 6.69619 4.76229L6.48825 2.77313ZM1.36528 7.7926C1.04118 10.4031 0.713867 13.1631 0.713867 15.9997H2.71387C2.71387 13.3023 3.02513 10.6561 3.35004 8.03901L1.36528 7.7926ZM0.713867 15.9997C0.713867 18.8362 1.04118 21.5962 1.3653 24.2068L3.35006 23.9604C3.02513 21.3432 2.71387 18.697 2.71387 15.9997H0.713867ZM1.8023 8.10921L12.55 16.5834L13.7883 15.0129L3.04061 6.53868L1.8023 8.10921ZM12.55 16.5834C14.5731 18.1786 17.4261 18.1786 19.4492 16.5834L18.2108 15.0129C16.914 16.0354 15.0852 16.0354 13.7883 15.0129L12.55 16.5834ZM19.4492 16.5834L30.1968 8.10921L28.9585 6.53868L18.2108 15.0129L19.4492 16.5834Z" fill="#111827"/>
</svg>
