<svg width="32" height="32" viewBox="0 0 32 32" fill="none" xmlns="http://www.w3.org/2000/svg">
<path d="M6.54343 18.1108V9.41637M2.72171 26.0886C2.83029 28.158 4.41543 30.0992 6.48697 30.1144H6.59989C8.67143 30.0992 10.2566 28.158 10.3651 26.0886C10.3999 25.4524 10.4216 24.8075 10.4216 24.156C10.4216 22.8836 10.3369 21.6437 10.2479 20.4429C10.1741 19.4093 9.39017 18.5537 8.35874 18.4712C7.15192 18.3744 5.93928 18.3744 4.73246 18.4712C3.69886 18.5516 2.9128 19.4093 2.8368 20.4429C2.74994 21.6437 2.66309 22.8836 2.66309 24.156C2.66309 24.8075 2.68697 25.4524 2.72171 26.0886ZM3.84434 6.61957C3.87909 8.10917 5.05166 9.35774 6.54343 9.35774C8.0352 9.35774 9.20777 8.10917 9.24251 6.61957C9.26423 5.69888 9.25554 4.79123 9.21863 3.8662C9.20113 3.36043 8.99558 2.87938 8.64218 2.51714C8.28878 2.15491 7.81295 1.93754 7.30777 1.90757C6.79786 1.87977 6.28682 1.87977 5.77691 1.90757C5.27212 1.93806 4.79682 2.15566 4.44387 2.51784C4.09092 2.88003 3.88568 3.36078 3.86823 3.8662C3.83131 4.79123 3.8248 5.69888 3.84651 6.61957H3.84434ZM18.1085 2.18985C18.1085 6.53271 19.2984 7.6054 21.4112 7.6054C23.5262 7.6054 24.7139 6.53271 24.7139 2.18985C24.7139 2.01614 24.8746 1.8902 25.0397 1.93797C28.0731 2.80654 29.7278 4.96277 29.7278 8.17431C29.7278 11.1883 28.2707 13.2707 25.5825 14.2348C25.5342 14.2524 25.4929 14.2852 25.4647 14.3283C25.4366 14.3713 25.423 14.4223 25.4262 14.4736C25.5087 15.9003 25.5803 18.9967 25.5803 20.4972C25.5803 21.9955 25.5087 25.1288 25.4283 26.5555C25.3285 28.2557 24.1038 29.8256 22.4101 30.0167C21.7462 30.0905 21.0762 30.0905 20.4123 30.0167C18.7208 29.8256 17.4939 28.2557 17.3984 26.5555C17.3159 25.1288 17.2442 21.9955 17.2442 20.4972C17.2442 18.9989 17.3159 15.9003 17.3962 14.4736C17.3995 14.4226 17.3863 14.3718 17.3585 14.3288C17.3308 14.2858 17.29 14.2528 17.2421 14.2348C14.5538 13.2707 13.0946 11.1883 13.0946 8.17431C13.0946 4.9606 14.7514 2.80871 17.7849 1.93797C17.8234 1.92711 17.864 1.92542 17.9033 1.93305C17.9426 1.94067 17.9795 1.9574 18.0112 1.98189C18.0429 2.00638 18.0684 2.03795 18.0856 2.07406C18.1029 2.11018 18.1115 2.14983 18.1106 2.18985H18.1085Z" stroke="#111827" stroke-width="2" stroke-linecap="round" stroke-linejoin="round"/>
</svg>
