<svg width="32" height="32" viewBox="0 0 32 32" fill="none" xmlns="http://www.w3.org/2000/svg">
<path d="M12.626 5.21422C12.626 7.4085 13.8603 8.64279 16.0545 8.64279C18.2488 8.64279 19.4831 7.4085 19.4831 5.21422C19.4831 3.01993 18.2488 1.78564 16.0545 1.78564C13.8603 1.78564 12.626 3.01993 12.626 5.21422Z" stroke="#111827" stroke-width="2" stroke-linecap="round" stroke-linejoin="round"/>
<path d="M12.626 15.9999C12.626 18.1942 13.8603 19.4285 16.0545 19.4285C18.2488 19.4285 19.4831 18.1942 19.4831 15.9999C19.4831 13.8056 18.2488 12.5714 16.0545 12.5714C13.8603 12.5714 12.626 13.8056 12.626 15.9999Z" stroke="#111827" stroke-width="2" stroke-linecap="round" stroke-linejoin="round"/>
<path d="M12.626 26.7855C12.626 28.9798 13.8603 30.2141 16.0545 30.2141C18.2488 30.2141 19.4831 28.98 19.4831 26.7858C19.4831 24.5912 18.2488 23.357 16.0545 23.357C13.8603 23.357 12.626 24.5912 12.626 26.7855Z" stroke="#111827" stroke-width="2" stroke-linecap="round" stroke-linejoin="round"/>
</svg>
