<svg width="32" height="32" viewBox="0 0 32 32" fill="none" xmlns="http://www.w3.org/2000/svg">
<path d="M14.4304 23.2341H17.5696M5.58288 25.3804C5.77122 27.5697 7.46697 29.3564 9.65744 29.5285C13.9756 29.8675 18.0243 29.8675 22.3426 29.5285C24.5329 29.3564 26.2287 27.5697 26.417 25.3804C26.6776 22.3531 26.9462 19.2154 26.9462 16C26.9462 12.7846 26.6776 9.64699 26.417 6.61961C26.2287 4.43049 24.5329 2.64356 22.3426 2.47159C18.0243 2.13252 13.9756 2.13252 9.65744 2.47159C7.46697 2.64356 5.77122 4.43049 5.58288 6.61961C5.32244 9.64699 5.05371 12.7846 5.05371 16C5.05371 19.2154 5.32247 22.3531 5.58288 25.3804Z" stroke="#111827" stroke-width="2" stroke-linecap="round" stroke-linejoin="round"/>
</svg>
