<svg width="32" height="32" viewBox="0 0 32 32" fill="none" xmlns="http://www.w3.org/2000/svg">
<g clip-path="url(#clip0_217_1680)">
<path d="M13.8516 21.6345C13.5088 21.7479 13.1755 21.8885 12.8551 22.0551C11.7762 22.6151 11.7671 24.0413 12.5922 24.9351L14.3042 26.7865C14.5182 27.0181 14.7779 27.203 15.0668 27.3294C15.3557 27.4558 15.6677 27.5211 15.9831 27.5211C16.2984 27.5211 16.6104 27.4558 16.8993 27.3294C17.1883 27.203 17.4479 27.0181 17.6619 26.7865L18.4162 25.9728M6.40934 17.0973C6.88477 16.6173 7.39448 16.1762 7.93391 15.7762M25.4471 17.0973C23.7816 15.422 21.7036 14.2158 19.4229 13.6006C17.1421 12.9853 14.7394 12.9828 12.4573 13.5933M1.68934 11.0128C1.99105 10.7111 2.30191 10.4185 2.61962 10.1396M30.1465 11.0128C27.092 7.95762 23.1352 5.96684 18.8614 5.33496C14.5877 4.70308 10.2241 5.46367 6.41619 7.50419M1.2002 1.2002C11.2093 14.0208 17.7031 20.4459 30.8002 30.8002" stroke="#111827" stroke-width="2" stroke-linecap="round" stroke-linejoin="round"/>
</g>
<defs>
<clipPath id="clip0_217_1680">
<rect width="32" height="32" fill="white"/>
</clipPath>
</defs>
</svg>
