<svg width="32" height="32" viewBox="0 0 32 32" fill="none" xmlns="http://www.w3.org/2000/svg">
<path d="M8.96411 14.8618H23.035M8.96411 21.6481H15.7093M9.1424 1.71436V7.52007M22.8567 1.71436V7.52007M15.9995 1.71436V7.52007M2.49554 24.0572C2.86354 27.3486 5.53783 29.9589 8.84525 30.1189C11.131 30.2286 13.4647 30.2858 15.9995 30.2858C18.5344 30.2858 20.8681 30.2286 23.1538 30.1189C26.4613 29.9589 29.1355 27.3464 29.5035 24.0572C29.7527 21.8401 29.9561 19.5704 29.9561 17.2549C29.9561 14.9418 29.7504 12.6698 29.5035 10.4549C29.1355 7.1635 26.4613 4.55321 23.1538 4.39321C20.8681 4.2835 18.5344 4.22636 15.9995 4.22636C13.4647 4.22636 11.131 4.2835 8.84525 4.39321C5.53783 4.55321 2.86354 7.16578 2.49554 10.4549C2.2464 12.6721 2.04297 14.9418 2.04297 17.2549C2.04297 19.5704 2.24868 21.8424 2.49554 24.0572Z" stroke="#111827" stroke-width="2" stroke-linecap="round" stroke-linejoin="round"/>
</svg>
