<svg width="32" height="32" viewBox="0 0 32 32" fill="none" xmlns="http://www.w3.org/2000/svg">
<path d="M8.30353 4.6678L7.30464 4.62082L7.30464 4.62083L8.30353 4.6678ZM10.2519 2.60289L10.3337 3.59954L10.3337 3.59954L10.2519 2.60289ZM27.6427 2.60289L27.5609 3.59954L27.5609 3.59954L27.6427 2.60289ZM29.5911 4.66803L28.5922 4.71495L28.5922 4.715L29.5911 4.66803ZM29.5911 21.6637L28.5922 21.6167L28.5922 21.6168L29.5911 21.6637ZM27.6398 23.7292L27.7214 24.7258L27.7216 24.7258L27.6398 23.7292ZM2.85946 27.268L1.86057 27.315L1.86057 27.315L2.85946 27.268ZM4.80785 29.3332L4.726 30.3298L4.72607 30.3298L4.80785 29.3332ZM22.1987 29.3332L22.2805 30.3298L22.2806 30.3298L22.1987 29.3332ZM24.1471 27.268L23.1482 27.2211L23.1482 27.2211L24.1471 27.268ZM24.1471 10.2723L23.1482 10.3193L23.1482 10.3193L24.1471 10.2723ZM22.1987 8.2072L22.2805 7.21055L22.2805 7.21055L22.1987 8.2072ZM4.80785 8.2072L4.72604 7.21055H4.72604L4.80785 8.2072ZM2.85946 10.2723L1.86057 10.2254L1.86057 10.2254L2.85946 10.2723ZM9.17501 8.04298C9.2072 6.94427 9.24967 5.8367 9.30243 4.71478L7.30464 4.62083C7.25134 5.75417 7.20841 6.87353 7.17587 7.98442L9.17501 8.04298ZM9.30243 4.71479C9.33122 4.10267 9.78047 3.64495 10.3337 3.59954L10.1701 1.60624C8.55807 1.73856 7.37792 3.06279 7.30464 4.62082L9.30243 4.71479ZM10.3337 3.59954C14.9089 3.22398 22.9859 3.22398 27.5609 3.59954L27.7245 1.60624C23.0406 1.22175 14.8541 1.22175 10.1701 1.60624L10.3337 3.59954ZM27.5609 3.59954C28.1141 3.64494 28.5634 4.10274 28.5922 4.71495L30.59 4.62111C30.5168 3.06318 29.3368 1.73857 27.7245 1.60624L27.5609 3.59954ZM28.5922 4.715C28.8629 10.4734 28.8629 15.8583 28.5922 21.6167L30.59 21.7107C30.8637 15.8897 30.8637 10.442 30.59 4.62106L28.5922 4.715ZM28.5922 21.6168C28.5635 22.2272 28.1128 22.687 27.5579 22.7325L27.7216 24.7258C29.3322 24.5936 30.5167 23.2703 30.59 21.7106L28.5922 21.6168ZM27.5581 22.7325C26.5924 22.8117 25.4653 22.8745 24.2417 22.9205L24.3169 24.9191C25.5605 24.8723 26.7183 24.8081 27.7214 24.7258L27.5581 22.7325ZM1.86057 27.315C1.93385 28.8729 3.11391 30.1974 4.726 30.3298L4.8897 28.3365C4.33653 28.2911 3.88715 27.8332 3.85836 27.2211L1.86057 27.315ZM4.72607 30.3298C9.4101 30.7142 17.5965 30.7142 22.2805 30.3298L22.1169 28.3365C17.5418 28.712 9.4648 28.712 4.88963 28.3365L4.72607 30.3298ZM22.2806 30.3298C23.8925 30.1974 25.0728 28.873 25.146 27.315L23.1482 27.2211C23.1195 27.8332 22.6701 28.2911 22.1169 28.3365L22.2806 30.3298ZM25.146 27.315C25.4197 21.494 25.4197 16.0463 25.146 10.2254L23.1482 10.3193C23.419 16.0777 23.419 21.4627 23.1482 27.2211L25.146 27.315ZM25.146 10.2254C25.0728 8.66739 23.8925 7.34288 22.2805 7.21055L22.1169 9.20385C22.67 9.24926 23.1195 9.70715 23.1482 10.3193L25.146 10.2254ZM22.2805 7.21055C17.5965 6.82606 9.41009 6.82606 4.72604 7.21055L4.88966 9.20385C9.46481 8.8283 17.5417 8.8283 22.1169 9.20385L22.2805 7.21055ZM4.72604 7.21055C3.1139 7.34289 1.93385 8.66746 1.86057 10.2254L3.85836 10.3193C3.88716 9.70708 4.33654 9.24925 4.88966 9.20385L4.72604 7.21055ZM1.86057 10.2254C1.58684 16.0463 1.58684 21.494 1.86057 27.315L3.85836 27.2211C3.58758 21.4627 3.58758 16.0777 3.85836 10.3193L1.86057 10.2254ZM21.2312 29.5316V27.501H19.2312V29.5316H21.2312ZM21.2312 27.501C21.2312 25.8725 20.3413 24.5083 18.9504 23.5925C17.5747 22.6867 15.6866 22.1922 13.5035 22.1922V24.1922C15.4089 24.1922 16.8846 24.6269 17.8506 25.2629C18.8014 25.889 19.2312 26.6791 19.2312 27.501H21.2312ZM13.5035 22.1922C11.3204 22.1922 9.43231 22.6867 8.05658 23.5925C6.66567 24.5083 5.77583 25.8725 5.77583 27.501H7.77583C7.77583 26.6791 8.20559 25.889 9.15642 25.2629C10.1224 24.6269 11.5981 24.1922 13.5035 24.1922V22.1922ZM5.77583 27.501V29.5316H7.77583V27.501H5.77583ZM13.5028 21.1567C16.1101 21.1567 18.2236 19.0431 18.2236 16.4358H16.2236C16.2236 17.9385 15.0055 19.1567 13.5028 19.1567V21.1567ZM18.2236 16.4358C18.2236 13.8286 16.1101 11.715 13.5028 11.715V13.715C15.0055 13.715 16.2236 14.9332 16.2236 16.4358H18.2236ZM13.5028 11.715C10.8955 11.715 8.78195 13.8286 8.78195 16.4358H10.782C10.782 14.9332 12.0001 13.715 13.5028 13.715V11.715ZM8.78195 16.4358C8.78195 19.0431 10.8955 21.1567 13.5028 21.1567V19.1567C12.0001 19.1567 10.782 17.9385 10.782 16.4358H8.78195Z" fill="#111827"/>
</svg>
