<svg width="32" height="32" viewBox="0 0 32 32" fill="none" xmlns="http://www.w3.org/2000/svg">
<g clip-path="url(#clip0_217_2700)">
<path d="M15.0685 21.4501L14.5983 20.5675L14.5983 20.5675L15.0685 21.4501ZM15.0685 10.5502L14.5983 11.4327L14.5983 11.4327L15.0685 10.5502ZM15.9996 30.2858V31.2858C20.7551 31.2858 24.6115 29.9452 27.2781 27.2786C29.9447 24.612 31.2853 20.7556 31.2853 16.0001H30.2853H29.2853C29.2853 20.3874 28.0544 23.6739 25.8639 25.8644C23.6734 28.0549 20.3869 29.2858 15.9996 29.2858V30.2858ZM30.2853 16.0001H31.2853C31.2853 11.2446 29.9447 7.38814 27.2781 4.72153C24.6115 2.05493 20.7551 0.714355 15.9996 0.714355V1.71436V2.71436C20.3869 2.71436 23.6734 3.94521 25.8639 6.13575C28.0544 8.32629 29.2853 11.6127 29.2853 16.0001H30.2853ZM15.9996 1.71436V0.714355C11.2441 0.714355 7.38765 2.05493 4.72105 4.72153C2.05445 7.38814 0.713867 11.2446 0.713867 16.0001H1.71387H2.71387C2.71387 11.6127 3.94472 8.32629 6.13526 6.13575C8.3258 3.94521 11.6122 2.71436 15.9996 2.71436V1.71436ZM1.71387 16.0001H0.713867C0.713867 20.7556 2.05445 24.612 4.72105 27.2786C7.38765 29.9452 11.2441 31.2858 15.9996 31.2858V30.2858V29.2858C11.6122 29.2858 8.3258 28.0549 6.13526 25.8644C3.94472 23.6739 2.71387 20.3874 2.71387 16.0001H1.71387ZM15.0685 21.4501L15.5387 22.3326C17.0175 21.5448 18.7721 20.5382 20.1685 19.5203C20.8639 19.0135 21.5062 18.4783 21.9846 17.942C22.4283 17.4445 22.8924 16.7704 22.8924 16.0001H21.8924H20.8924C20.8924 15.9934 20.8699 16.1871 20.4921 16.6107C20.1489 16.9954 19.6347 17.4345 18.9905 17.9041C17.7077 18.8391 16.0503 19.794 14.5983 20.5675L15.0685 21.4501ZM21.8924 16.0001H22.8924C22.8924 15.2298 22.4283 14.5557 21.9846 14.0583C21.5062 13.5219 20.8639 12.9868 20.1685 12.4799C18.7721 11.462 17.0175 10.4554 15.5387 9.66759L15.0685 10.5502L14.5983 11.4327C16.0503 12.2063 17.7077 13.1611 18.9905 14.0961C19.6347 14.5657 20.1489 15.0049 20.4921 15.3896C20.8699 15.8132 20.8924 16.0069 20.8924 16.0001H21.8924ZM15.0685 10.5502L15.5388 9.6676C13.3636 8.5087 10.8814 10.1445 10.8814 12.5208H11.8814H12.8814C12.8814 11.5652 13.8329 11.0249 14.5983 11.4327L15.0685 10.5502ZM11.8814 12.5208H10.8814V19.4794H11.8814H12.8814V12.5208H11.8814ZM11.8814 19.4794H10.8814C10.8814 21.8558 13.3636 23.4915 15.5388 22.3326L15.0685 21.4501L14.5983 20.5675C13.8329 20.9754 12.8814 20.4351 12.8814 19.4794H11.8814Z" fill="#111827"/>
</g>
<defs>
<clipPath id="clip0_217_2700">
<rect width="32" height="32" fill="white"/>
</clipPath>
</defs>
</svg>
