<svg width="32" height="32" viewBox="0 0 32 32" fill="none" xmlns="http://www.w3.org/2000/svg">
<path d="M2.76736 20.6957V19.6957C2.30809 19.6957 1.90786 20.0085 1.79696 20.4542L2.76736 20.6957ZM22.8375 30.6553C23.3898 30.6553 23.8375 30.2076 23.8375 29.6553C23.8375 29.103 23.3898 28.6553 22.8375 28.6553V30.6553ZM18.3656 20.6957L19.297 21.0595C19.4173 20.7518 19.3777 20.4045 19.1914 20.1317C19.005 19.8589 18.696 19.6957 18.3656 19.6957V20.6957ZM29.7147 2.34375L30.0058 3.30043C30.4798 3.15618 30.7767 2.68662 30.7038 2.19657C30.6309 1.70653 30.2101 1.34375 29.7147 1.34375V2.34375ZM12.448 2.34375V1.34375C12.3453 1.34375 12.2432 1.35957 12.1453 1.39066L12.448 2.34375ZM15.6477 7.89852C15.0954 7.89852 14.6477 8.34623 14.6477 8.89852C14.6477 9.4508 15.0954 9.89852 15.6477 9.89852V7.89852ZM19.8708 9.89852C20.4231 9.89852 20.8708 9.4508 20.8708 8.89852C20.8708 8.34623 20.4231 7.89852 19.8708 7.89852V9.89852ZM15.6477 13.8036C15.0954 13.8036 14.6477 14.2513 14.6477 14.8036C14.6477 15.3559 15.0954 15.8036 15.6477 15.8036V13.8036ZM19.8708 15.8036C20.4231 15.8036 20.8708 15.3559 20.8708 14.8036C20.8708 14.2513 20.4231 13.8036 19.8708 13.8036V15.8036ZM1.79696 20.4542C1.44169 21.8819 1.00899 24.3193 1.52211 26.4555C1.78417 27.5466 2.30796 28.6213 3.2727 29.4186C4.24359 30.221 5.55555 30.6553 7.2264 30.6553V28.6553C5.90789 28.6553 5.08099 28.3184 4.5468 27.877C4.00646 27.4304 3.65896 26.7884 3.4668 25.9884C3.07147 24.3426 3.39862 22.3001 3.73777 20.9372L1.79696 20.4542ZM7.2264 30.6553H22.8375V28.6553H7.2264V30.6553ZM22.8375 28.6553C21.1391 28.6553 19.9437 27.7282 19.299 26.3115C18.6378 24.8585 18.5777 22.901 19.297 21.0595L17.4341 20.3318C16.5386 22.6244 16.5716 25.1466 17.4787 27.1399C18.4023 29.1695 20.2502 30.6553 22.8375 30.6553V28.6553ZM22.527 30.6557C24.0825 30.6557 25.3343 30.2134 26.2555 29.3212C27.1555 28.4497 27.6248 27.2591 27.8591 25.9827C28.32 23.4717 27.9426 20.1658 27.5631 16.985C27.1726 13.7109 26.7709 10.5177 27.0349 7.9554C27.1656 6.68625 27.4536 5.65735 27.9273 4.88531C28.3846 4.14011 29.0368 3.59534 30.0058 3.30043L29.4236 1.38707C27.9748 1.82797 26.9288 2.68855 26.2227 3.83936C25.533 4.96334 25.1926 6.32112 25.0454 7.75043C24.7533 10.5851 25.1972 14.0359 25.5772 17.2219C25.9684 20.5012 26.2867 23.4715 25.892 25.6216C25.6985 26.6757 25.3522 27.4119 24.8642 27.8845C24.3975 28.3365 23.6889 28.6557 22.527 28.6557V30.6557ZM29.7147 1.34375H12.448V3.34375H29.7147V1.34375ZM12.1453 1.39066C10.1833 2.01378 9.03578 3.57677 8.40602 5.38609C7.78194 7.17907 7.61909 9.32716 7.67256 11.4001C7.77976 15.5559 8.76857 19.7322 9.11058 20.9511L11.0362 20.4109C10.7186 19.2789 9.77325 15.2779 9.6719 11.3485C9.62109 9.37884 9.78538 7.50733 10.2949 6.04353C10.7987 4.59607 11.5912 3.66508 12.7507 3.29684L12.1453 1.39066ZM15.6477 9.89852H19.8708V7.89852H15.6477V9.89852ZM15.6477 15.8036H19.8708V13.8036H15.6477V15.8036ZM18.3656 19.6957H2.76736V21.6957H18.3656V19.6957Z" fill="#111827"/>
</svg>
