<svg width="32" height="32" viewBox="0 0 32 32" fill="none" xmlns="http://www.w3.org/2000/svg">
<path d="M12.5717 29.7144L4.39534 24.2634C3.19027 23.4602 2.77203 21.8851 3.41971 20.5897C4.07518 19.2788 5.61264 18.6718 6.98684 19.1814L10.7352 20.5715V6.28578C10.7352 4.70782 12.0144 3.42864 13.5923 3.42864C15.1703 3.42864 16.4495 4.70782 16.4495 6.28578V14.9199V4.5715C16.4495 2.99355 17.7287 1.71436 19.3066 1.71436C20.8846 1.71436 22.1638 2.99353 22.1638 4.5715V14.8573V8.00011C22.1638 6.42217 23.443 5.14297 25.0208 5.14297C26.5989 5.14297 27.878 6.42217 27.878 8.00011V24.0001C27.8361 27.3658 27.2956 28.5784 25.5923 29.7772M10.7502 20.5715C13.9946 20.5715 16.4607 21.7144 17.6501 24.3075" stroke="#111827" stroke-width="2" stroke-linecap="round" stroke-linejoin="round"/>
</svg>
