<svg width="32" height="32" viewBox="0 0 32 32" fill="none" xmlns="http://www.w3.org/2000/svg">
<g clip-path="url(#clip0_217_861)">
<path d="M22.3463 16.0002H13.333M22.3419 9.04704H13.333M22.3419 22.8081H13.333M10.4668 16.0002H9.45345M10.6219 9.04704H9.61296M10.6219 22.8081H9.61296M2.19356 23.4709C2.54587 26.764 5.19432 29.4124 8.48566 29.7793C10.9303 30.0517 13.4404 30.2858 15.9996 30.2858C18.5587 30.2858 21.0688 30.0517 23.5134 29.7793C26.8048 29.4124 29.4533 26.764 29.8055 23.4709C30.0656 21.0401 30.2853 18.5444 30.2853 16.0001C30.2853 13.4557 30.0656 10.96 29.8055 8.52914C29.4533 5.23623 26.8048 2.58775 23.5134 2.22089C21.0688 1.94839 18.5587 1.71436 15.9996 1.71436C13.4404 1.71436 10.9303 1.94839 8.48566 2.22089C5.19432 2.58775 2.54587 5.23623 2.19356 8.52914C1.93349 10.96 1.71387 13.4557 1.71387 16.0001C1.71387 18.5444 1.93349 21.0401 2.19356 23.4709Z" stroke="#111827" stroke-width="2" stroke-linecap="round" stroke-linejoin="round"/>
</g>
<defs>
<clipPath id="clip0_217_861">
<rect width="32" height="32" fill="white"/>
</clipPath>
</defs>
</svg>
