<svg width="32" height="32" viewBox="0 0 32 32" fill="none" xmlns="http://www.w3.org/2000/svg">
<path d="M6.91696 15.9997C7.12267 12.0386 7.87696 6.87286 9.79696 3.07628C9.94111 2.79163 10.1535 2.54706 10.4151 2.3644C10.6767 2.18175 10.9795 2.06667 11.2964 2.02943C13.3228 1.80609 15.3606 1.70077 17.3992 1.714C19.4084 1.714 21.1798 1.86257 22.5512 2.04314C23.9341 2.226 24.6587 3.666 24.1055 4.946L21.9295 9.99743C23.8358 10.066 25.3238 10.2191 26.7067 10.5003C26.9979 10.5522 27.2722 10.6739 27.506 10.8551C27.7398 11.0363 27.9262 11.2715 28.0491 11.5405C28.1721 11.8095 28.2279 12.1044 28.2118 12.3997C28.1958 12.6951 28.1083 12.9822 27.957 13.2363C25.5341 17.4191 19.8198 24.3083 11.5547 30.2854C11.5547 25.8169 12.3387 22.7426 13.7147 18.2854H9.14324C8.84454 18.29 8.54805 18.2336 8.27193 18.1196C7.9958 18.0056 7.74587 17.8364 7.53743 17.6224C7.32899 17.4084 7.16645 17.1541 7.05976 16.8751C6.95307 16.5961 6.90447 16.2982 6.91696 15.9997Z" stroke="#111827" stroke-width="2" stroke-linecap="round" stroke-linejoin="round"/>
</svg>
