<svg width="32" height="32" viewBox="0 0 32 32" fill="none" xmlns="http://www.w3.org/2000/svg">
<path d="M28.5623 19.1428C27.6318 21.7798 25.9415 24.0824 23.7043 25.7601C21.4673 27.438 18.7836 28.4161 15.9915 28.571C13.4105 28.5715 10.8919 27.7774 8.77783 26.2968C6.66375 24.8163 5.05664 22.7208 4.17481 20.2951M3.42034 12.8574C5.18027 8.03855 10.5858 3.4292 15.9913 3.4292C18.5848 3.43649 21.1127 4.24582 23.2282 5.74618C25.3438 7.24657 26.9434 9.36458 27.808 11.8098M30.0286 23.7614C29.6272 21.8637 29.3066 20.8532 28.5651 19.1517C26.7475 19.5275 25.737 19.8484 23.9552 20.6153M2.31934 8.16659C2.5792 10.0889 2.82427 11.1204 3.43778 12.8721C5.27812 12.6318 6.3096 12.3866 8.14329 11.7537" stroke="#111827" stroke-width="2" stroke-linecap="round" stroke-linejoin="round"/>
</svg>
