<svg width="32" height="32" viewBox="0 0 32 32" fill="none" xmlns="http://www.w3.org/2000/svg">
<path d="M6.04297 30.144V18.144M8.1504 19.8172C10.6693 20.0594 13.2933 20.3543 15.9904 20.3543C18.7653 20.3543 21.4624 20.0434 24.0475 19.7943C25.1447 19.6892 25.995 18.8114 25.6818 17.7554C24.8247 14.8594 22.2395 11.0217 22.2395 11.0217C22.2395 11.0217 24.8087 7.37144 25.675 4.54401C25.9973 3.4903 25.1447 2.61259 24.0475 2.50744C21.4647 2.25601 18.7675 1.94287 15.9927 1.94287C13.2955 1.94287 10.667 2.24001 8.1504 2.48459C6.96183 2.59887 6.04297 3.59316 6.04297 4.78859V17.5086C6.04297 18.704 6.96183 19.6983 8.1504 19.8126V19.8172Z" stroke="#111827" stroke-width="2" stroke-linecap="round" stroke-linejoin="round"/>
</svg>
