<svg width="32" height="32" viewBox="0 0 32 32" fill="none" xmlns="http://www.w3.org/2000/svg">
<path d="M10.736 14.3131L13.7847 10.4849L17.6824 14.3131L20.9287 9.39914M10.6057 18.5886H21.3933M10.6057 22.862H21.3933M27.6688 24.8684C27.9016 21.1311 27.9863 17.3861 27.9228 13.6421C27.9091 11.9483 27.346 10.3047 26.3181 8.95834C24.746 6.93457 23.3172 5.50577 21.161 3.84028C20.47 3.31077 19.6276 3.01629 18.7572 2.99994C17.8381 2.98046 16.9188 2.97105 15.9995 2.97171C13.0529 2.97171 10.6752 3.05857 8.21711 3.23011C7.20608 3.29817 6.25428 3.73155 5.53916 4.44947C4.82403 5.1674 4.39436 6.12088 4.33025 7.13217C4.14658 10.0846 4.05534 13.0421 4.05665 16.0003C4.05665 19.0403 4.15003 22.0065 4.33025 24.8684C4.46054 26.9617 6.12385 28.6271 8.21711 28.7705C10.6752 28.942 13.0529 29.0289 15.9995 29.0289C18.9461 29.0289 21.3239 28.942 23.7819 28.7705C24.7929 28.7024 25.7447 28.269 26.4599 27.5511C27.175 26.8332 27.6047 25.8797 27.6688 24.8684Z" stroke="#111827" stroke-width="2" stroke-linecap="round" stroke-linejoin="round"/>
</svg>
