<svg width="32" height="32" viewBox="0 0 32 32" fill="none" xmlns="http://www.w3.org/2000/svg">
<path d="M8.46775 11.8718L10.57 13.8268C11.5593 11.2642 12.3831 10.1397 14.249 8.61342M8.46775 21.0949L10.57 23.05C11.5593 20.4874 12.3831 19.3629 14.249 17.8366M17.868 12.3136H23.5823M17.868 22.0371H23.5823M28.2831 25.3343C28.4721 22.3215 28.5716 19.1992 28.5716 15.9999C28.5716 14.7042 28.5553 13.4211 28.5233 12.1528C28.5009 11.2618 28.2118 10.3959 27.6845 9.67742C25.6742 6.93886 24.0728 5.23632 21.4335 3.1994C20.7082 2.63963 19.8182 2.33593 18.9023 2.31591C17.9838 2.29584 17.0247 2.28564 16.0001 2.28564C12.8985 2.28564 10.3966 2.37906 7.80745 2.55707C5.60485 2.70852 3.85552 4.46196 3.71721 6.66544C3.52812 9.6784 3.42871 12.8006 3.42871 15.9999C3.42871 19.1992 3.52812 22.3215 3.71721 25.3343C3.85552 27.538 5.60485 29.2914 7.80745 29.4427C10.3966 29.6207 12.8985 29.7142 16.0001 29.7142C19.1017 29.7142 21.6037 29.6207 24.1928 29.4427C26.3953 29.2914 28.1448 27.538 28.2831 25.3343Z" stroke="#111827" stroke-width="2" stroke-linecap="round" stroke-linejoin="round"/>
</svg>
