<svg width="32" height="32" viewBox="0 0 32 32" fill="none" xmlns="http://www.w3.org/2000/svg">
<g clip-path="url(#clip0_217_856)">
<path d="M23.6696 12.011C23.9913 11.5621 23.8881 10.9374 23.4391 10.6157C22.9901 10.2941 22.3655 10.3973 22.0438 10.8463L23.6696 12.011ZM15.1867 20.4177C14.865 20.8666 14.9682 21.4913 15.4172 21.813C15.8662 22.1346 16.4909 22.0314 16.8125 21.5825L15.1867 20.4177ZM29.3859 21.0001L30.3226 21.3501C30.4373 21.0431 30.3943 20.6993 30.2075 20.43C30.0206 20.1607 29.7136 20.0001 29.3859 20.0001V21.0001ZM2.61341 21.0001V20.0001C2.28563 20.0001 1.97867 20.1607 1.79181 20.43C1.60496 20.6993 1.56194 21.0431 1.67668 21.3501L2.61341 21.0001ZM29.2853 16.0001C29.2853 23.3376 23.3371 29.2858 15.9996 29.2858V31.2858C24.4416 31.2858 31.2853 24.4421 31.2853 16.0001H29.2853ZM15.9996 29.2858C8.66208 29.2858 2.71387 23.3376 2.71387 16.0001H0.713867C0.713867 24.4421 7.55751 31.2858 15.9996 31.2858V29.2858ZM2.71387 16.0001C2.71387 8.66257 8.66208 2.71436 15.9996 2.71436V0.714355C7.55751 0.714355 0.713867 7.558 0.713867 16.0001H2.71387ZM15.9996 2.71436C23.3371 2.71436 29.2853 8.66257 29.2853 16.0001H31.2853C31.2853 7.558 24.4416 0.714355 15.9996 0.714355V2.71436ZM22.0438 10.8463L15.1867 20.4177L16.8125 21.5825L23.6696 12.011L22.0438 10.8463ZM28.4491 20.65C26.5637 25.6957 21.6996 29.2858 15.9996 29.2858V31.2858C22.561 31.2858 28.1546 27.152 30.3226 21.3501L28.4491 20.65ZM15.9996 29.2858C10.2996 29.2858 5.43562 25.6957 3.55014 20.65L1.67668 21.3501C3.84473 27.152 9.4381 31.2858 15.9996 31.2858V29.2858ZM2.61341 22.0001H29.3859V20.0001H2.61341V22.0001Z" fill="#111827"/>
</g>
<defs>
<clipPath id="clip0_217_856">
<rect width="32" height="32" fill="white"/>
</clipPath>
</defs>
</svg>
