<svg width="32" height="32" viewBox="0 0 32 32" fill="none" xmlns="http://www.w3.org/2000/svg">
<g clip-path="url(#clip0_217_2676)">
<path d="M4.87614 29.1713L4.76723 30.1653L4.7674 30.1653L4.87614 29.1713ZM27.1244 29.1713L27.2331 30.1653L27.2333 30.1653L27.1244 29.1713ZM29.2106 27.0835L30.2048 27.1903L30.2048 27.1903L29.2106 27.0835ZM29.2106 4.91715L30.2048 4.81035L30.2048 4.81031L29.2106 4.91715ZM27.1244 2.82935L27.2332 1.83529L27.2332 1.83529L27.1244 2.82935ZM9.92748 2.26362L10.029 3.25846L10.029 3.25845L9.92748 2.26362ZM8.56204 2.91246L9.26693 3.62178L9.26694 3.62177L8.56204 2.91246ZM2.90874 8.53043L3.61361 9.23977L3.61362 9.23975L2.90874 8.53043ZM2.24882 9.91525L3.24406 10.0128L3.24406 10.0127L2.24882 9.91525ZM2.79002 27.0835L1.79573 27.1903L1.79574 27.1903L2.79002 27.0835ZM23.0679 29.6327L23.1768 30.6268C23.6839 30.5713 24.0679 30.1429 24.0679 29.6327H23.0679ZM20.7829 18.66L20.7832 17.66H20.7832L20.7829 18.66ZM11.2192 18.6571L11.2195 17.6571H11.2194L11.2192 18.6571ZM8.93276 29.6327H7.93276C7.93276 30.1429 8.31679 30.5713 8.82392 30.6268L8.93276 29.6327ZM11.6123 2.10638L11.5293 1.10983C11.011 1.15299 10.6123 1.58627 10.6123 2.10638H11.6123ZM13.8972 11.2311L13.8969 12.2311H13.8969L13.8972 11.2311ZM21.0682 11.2335L21.0685 10.2335H21.0685L21.0682 11.2335ZM23.3546 2.39946H24.3546C24.3546 1.88993 23.9715 1.46187 23.465 1.40558L23.3546 2.39946ZM4.7674 30.1653C8.28163 30.5497 12.0902 31.0942 16.0003 31.0942V29.0942C12.2326 29.0942 8.58741 28.5713 4.98489 28.1772L4.7674 30.1653ZM16.0003 31.0942C19.9103 31.0942 23.7189 30.5497 27.2331 30.1653L27.0157 28.1772C23.4131 28.5713 19.7679 29.0942 16.0003 29.0942V31.0942ZM27.2333 30.1653C28.7959 29.9941 30.0366 28.7564 30.2048 27.1903L28.2163 26.9766C28.1487 27.6057 27.6476 28.1079 27.0155 28.1772L27.2333 30.1653ZM30.2048 27.1903C30.5816 23.6822 31.0942 19.894 31.0942 16.0003H29.0942C29.0942 19.7558 28.6011 23.394 28.2163 26.9767L30.2048 27.1903ZM31.0942 16.0003C31.0942 12.1065 30.5816 8.31842 30.2048 4.81035L28.2163 5.02394C28.6011 8.60661 29.0942 12.2447 29.0942 16.0003H31.0942ZM30.2048 4.81031C30.0366 3.24432 28.796 2.00629 27.2332 1.83529L27.0156 3.82342C27.6475 3.89256 28.1487 4.39478 28.2163 5.02399L30.2048 4.81031ZM27.2332 1.83529C23.7189 1.45079 19.9103 0.90625 16.0003 0.90625V2.90625C19.7679 2.90625 23.4131 3.42927 27.0156 3.82342L27.2332 1.83529ZM16.0003 0.90625C13.8925 0.90625 11.8277 1.06445 9.82593 1.26879L10.029 3.25845C11.9998 3.05727 13.9891 2.90625 16.0003 2.90625V0.90625ZM9.82594 1.26879C9.07862 1.34507 8.38521 1.67836 7.85714 2.20316L9.26694 3.62177C9.47482 3.41518 9.74411 3.28753 10.029 3.25846L9.82594 1.26879ZM7.85715 2.20314L2.20385 7.82111L3.61362 9.23975L9.26693 3.62178L7.85715 2.20314ZM2.20387 7.82109C1.66748 8.3541 1.32795 9.05854 1.25358 9.81776L3.24406 10.0127C3.27242 9.72318 3.40247 9.44957 3.61361 9.23977L2.20387 7.82109ZM1.25359 9.81775C1.05712 11.8231 0.90625 13.8904 0.90625 16.0003H2.90625C2.90625 13.9826 3.0506 11.9874 3.24406 10.0128L1.25359 9.81775ZM0.90625 16.0003C0.90625 19.894 1.41897 23.6822 1.79573 27.1903L3.7843 26.9767C3.39951 23.394 2.90625 19.7557 2.90625 16.0003H0.90625ZM1.79574 27.1903C1.96397 28.7561 3.20452 29.9941 4.76723 30.1653L4.98505 28.1772C4.35302 28.108 3.85186 27.6056 3.7843 26.9767L1.79574 27.1903ZM24.0679 29.6327V20.9457H22.0679V29.6327H24.0679ZM24.0679 20.9457C24.0679 19.1314 22.5975 17.6605 20.7832 17.66L20.7826 19.66C21.4925 19.6602 22.0679 20.2358 22.0679 20.9457H24.0679ZM20.7832 17.66L11.2195 17.6571L11.2189 19.6571L20.7826 19.66L20.7832 17.66ZM11.2194 17.6571C9.40444 17.6566 7.93276 19.1278 7.93276 20.9428H9.93276C9.93276 20.2326 10.5086 19.6569 11.2189 19.6571L11.2194 17.6571ZM7.93276 20.9428V29.6327H9.93276V20.9428H7.93276ZM8.82392 30.6268C11.1375 30.8801 13.5408 31.0942 16.0003 31.0942V29.0942C13.6509 29.0942 11.3334 28.8896 9.0416 28.6387L8.82392 30.6268ZM16.0003 31.0942C18.4597 31.0942 20.8632 30.8801 23.1768 30.6268L22.9591 28.6387C20.6673 28.8896 18.3496 29.0942 16.0003 29.0942V31.0942ZM10.6123 2.10638V8.94538H12.6123V2.10638H10.6123ZM10.6123 8.94538C10.6123 10.7596 12.0827 12.2305 13.8969 12.2311L13.8976 10.2311C13.1877 10.2308 12.6123 9.65529 12.6123 8.94538H10.6123ZM13.8969 12.2311L21.0678 12.2335L21.0685 10.2335L13.8976 10.2311L13.8969 12.2311ZM21.0678 12.2335C22.883 12.2342 24.3546 10.7629 24.3546 8.94782H22.3546C22.3546 9.65814 21.7787 10.2338 21.0685 10.2335L21.0678 12.2335ZM24.3546 8.94782V2.39946H22.3546V8.94782H24.3546ZM23.465 1.40558C21.0628 1.13854 18.5616 0.90625 16.0003 0.90625V2.90625C18.4477 2.90625 20.8598 3.12831 23.2441 3.39334L23.465 1.40558ZM16.0003 0.90625C14.4844 0.90625 12.9918 0.988041 11.5293 1.10983L11.6953 3.10293C13.1205 2.98424 14.5553 2.90625 16.0003 2.90625V0.90625Z" fill="#111827"/>
</g>
<defs>
<clipPath id="clip0_217_2676">
<rect width="32" height="32" fill="white"/>
</clipPath>
</defs>
</svg>
