<svg width="32" height="32" viewBox="0 0 32 32" fill="none" xmlns="http://www.w3.org/2000/svg">
<g clip-path="url(#clip0_217_849)">
<path d="M10.3955 20.2253C10.011 19.8289 9.37794 19.8191 8.98145 20.2036C8.58496 20.588 8.57522 21.2211 8.95968 21.6176L10.3955 20.2253ZM13.8344 25.2083L13.1165 25.9044C13.358 26.1535 13.7114 26.2596 14.0502 26.1847C14.389 26.1099 14.6648 25.8647 14.7788 25.5371L13.8344 25.2083ZM21.7808 14.5176C22.1898 14.1465 22.2206 13.5141 21.8495 13.105C21.4785 12.696 20.8461 12.6652 20.437 13.0363L21.7808 14.5176ZM2.19356 23.4709L3.18789 23.3645L3.18789 23.3645L2.19356 23.4709ZM8.48566 29.7793L8.37489 30.7731H8.3749L8.48566 29.7793ZM23.5134 29.7793L23.6242 30.7731H23.6242L23.5134 29.7793ZM29.8055 23.4709L28.8112 23.3645L28.8112 23.3646L29.8055 23.4709ZM23.5134 2.22089L23.4026 3.21473L23.4026 3.21474L23.5134 2.22089ZM8.48566 2.22089L8.59644 3.21474L8.59644 3.21474L8.48566 2.22089ZM2.19356 8.52914L3.18789 8.63553V8.63553L2.19356 8.52914ZM29.8702 9.14293V10.1429C30.1534 10.1429 30.4233 10.0229 30.6129 9.81259C30.8025 9.60229 30.8941 9.32146 30.8649 9.03981L29.8702 9.14293ZM2.12905 9.14293L1.13433 9.04026C1.10527 9.32185 1.19691 9.60256 1.38653 9.81275C1.57614 10.0229 1.84596 10.1429 2.12905 10.1429V9.14293ZM8.95968 21.6176L13.1165 25.9044L14.5523 24.5122L10.3955 20.2253L8.95968 21.6176ZM14.7788 25.5371C15.7448 22.7622 16.6107 20.8234 17.6637 19.18C18.7126 17.5427 19.9743 16.1563 21.7808 14.5176L20.437 13.0363C18.5541 14.7443 17.1565 16.2641 15.9796 18.1011C14.8067 19.9318 13.8801 22.0354 12.89 24.8795L14.7788 25.5371ZM1.19924 23.5773C1.60168 27.339 4.61955 30.3545 8.37489 30.7731L8.59644 28.7854C5.7691 28.4703 3.49005 26.1889 3.18789 23.3645L1.19924 23.5773ZM8.3749 30.7731C10.8282 31.0465 13.3831 31.2858 15.9996 31.2858V29.2858C13.4978 29.2858 11.0325 29.0569 8.59642 28.7854L8.3749 30.7731ZM15.9996 31.2858C18.6161 31.2858 21.171 31.0465 23.6242 30.7731L23.4026 28.7854C20.9666 29.0569 18.5014 29.2858 15.9996 29.2858V31.2858ZM23.6242 30.7731C27.3796 30.3545 30.3975 27.339 30.7999 23.5773L28.8112 23.3646C28.5091 26.1889 26.2301 28.4703 23.4026 28.7854L23.6242 30.7731ZM30.7998 23.5773C31.061 21.1369 31.2853 18.5988 31.2853 16.0001H29.2853C29.2853 18.49 29.0703 20.9433 28.8112 23.3645L30.7998 23.5773ZM31.2853 16.0001C31.2853 13.4013 31.061 10.8632 30.7998 8.42275L28.8112 8.63554C29.0703 11.0568 29.2853 13.5101 29.2853 16.0001H31.2853ZM30.7999 8.42278C30.3975 4.66118 27.3796 1.64562 23.6242 1.22704L23.4026 3.21474C26.2301 3.52988 28.5091 5.81128 28.8112 8.6355L30.7999 8.42278ZM23.6242 1.22705C21.171 0.953591 18.6161 0.714355 15.9996 0.714355V2.71436C18.5014 2.71436 20.9666 2.9432 23.4026 3.21473L23.6242 1.22705ZM15.9996 0.714355C13.3831 0.714355 10.8282 0.953591 8.37488 1.22705L8.59644 3.21474C11.0325 2.9432 13.4978 2.71436 15.9996 2.71436V0.714355ZM8.37489 1.22704C4.61955 1.64562 1.60168 4.66119 1.19924 8.42276L3.18789 8.63553C3.49005 5.81127 5.76909 3.52988 8.59644 3.21474L8.37489 1.22704ZM1.19924 8.42276C0.938134 10.8632 0.713867 13.4013 0.713867 16.0001H2.71387C2.71387 13.5101 2.92884 11.0568 3.18789 8.63553L1.19924 8.42276ZM0.713867 16.0001C0.713867 18.5988 0.938136 21.1369 1.19924 23.5773L3.18789 23.3645C2.92884 20.9433 2.71387 18.49 2.71387 16.0001H0.713867ZM29.8702 8.14293H2.12905V10.1429H29.8702V8.14293ZM3.12376 9.24559C3.1448 9.0418 3.16618 8.83845 3.18789 8.63553L1.19924 8.42275C1.17727 8.62811 1.15562 8.83395 1.13433 9.04026L3.12376 9.24559ZM28.8111 8.63492C28.8328 8.83905 28.8544 9.04246 28.8755 9.24604L30.8649 9.03981C30.8435 8.83329 30.8216 8.62751 30.7999 8.42337L28.8111 8.63492Z" fill="#111827"/>
</g>
<defs>
<clipPath id="clip0_217_849">
<rect width="32" height="32" fill="white"/>
</clipPath>
</defs>
</svg>
