<svg width="32" height="32" viewBox="0 0 32 32" fill="none" xmlns="http://www.w3.org/2000/svg">
<path d="M9.78392 11.7221C14.2467 9.20501 14.5175 9.18382 19.5963 7.75122M9.78392 20.2781C14.2467 22.7951 14.5175 22.8163 19.5963 24.249M7.5171 20.8873C10.2162 20.8873 12.4043 18.6992 12.4043 16.0001C12.4043 13.3009 10.2162 11.1128 7.5171 11.1128C4.81797 11.1128 2.62988 13.3009 2.62988 16.0001C2.62988 18.6992 4.81797 20.8873 7.5171 20.8873ZM24.4836 11.4888C27.1828 11.4888 29.3709 9.30071 29.3709 6.60158C29.3709 3.90245 27.1828 1.71436 24.4836 1.71436C21.7845 1.71436 19.5964 3.90245 19.5964 6.60158C19.5964 9.30071 21.7845 11.4888 24.4836 11.4888ZM24.4836 30.2858C27.1828 30.2858 29.3709 28.0977 29.3709 25.3985C29.3709 22.6994 27.1828 20.5113 24.4836 20.5113C21.7845 20.5113 19.5964 22.6994 19.5964 25.3985C19.5964 28.0977 21.7845 30.2858 24.4836 30.2858Z" stroke="#111827" stroke-width="2" stroke-linecap="round" stroke-linejoin="round"/>
</svg>
