<svg width="32" height="32" viewBox="0 0 32 32" fill="none" xmlns="http://www.w3.org/2000/svg">
<path d="M5.81917 23.707C5.21478 23.3754 4.64508 22.9841 4.1186 22.539C3.42622 21.949 2.85838 21.2269 2.44826 20.4149C2.03815 19.6029 1.79398 18.7173 1.73003 17.8099C1.66946 16.9043 1.79052 15.9959 2.08609 15.1378C2.38166 14.2797 2.84578 13.4894 3.45117 12.8133C4.0616 12.1295 4.80008 11.572 5.62488 11.1722C6.45446 10.7697 7.35401 10.5314 8.27403 10.4704C8.36889 10.4722 8.46237 10.4475 8.54394 10.399C8.62551 10.3506 8.69193 10.2803 8.73574 10.1962C9.37832 8.3812 10.6261 6.84281 12.2695 5.83958C13.9262 4.82798 15.8749 4.40263 17.8025 4.63187C19.7301 4.86111 21.5247 5.73163 22.898 7.10358C24.2557 8.47501 25.0923 10.2579 25.2706 12.1619C25.2852 12.2632 25.3292 12.3581 25.397 12.4349C25.4648 12.5116 25.5535 12.5669 25.6523 12.5939C27.0832 12.9253 28.3426 13.7596 29.1883 14.939C30.0358 16.1137 30.4138 17.5628 30.248 19.0018C30.0823 20.4409 29.3847 21.766 28.2923 22.7173C27.6066 23.3207 26.7837 23.8419 25.8603 24.2807M7.94717 10.4773C10.6649 10.4773 13.0946 12.2693 13.8626 13.9059M15.1834 24.7318C15.1834 25.3813 14.9254 26.0042 14.4661 26.4635C14.0068 26.9227 13.3839 27.1807 12.7344 27.1807C12.0849 27.1807 11.462 26.9227 11.0027 26.4635C10.5435 26.0042 10.2854 25.3813 10.2854 24.7318C10.2854 24.0823 10.5435 23.4593 11.0027 23.0001C11.462 22.5408 12.0849 22.2828 12.7344 22.2828C13.3839 22.2828 14.0068 22.5408 14.4661 23.0001C14.9254 23.4593 15.1834 24.0823 15.1834 24.7318ZM15.1834 24.7318H20.0814C20.5144 24.7318 20.9296 24.9038 21.2358 25.21C21.542 25.5161 21.714 25.9314 21.714 26.3644V27.1807M18.4487 24.7318V27.1807" stroke="#111827" stroke-width="2" stroke-linecap="round" stroke-linejoin="round"/>
</svg>
