<svg width="32" height="32" viewBox="0 0 32 32" fill="none" xmlns="http://www.w3.org/2000/svg">
<g clip-path="url(#clip0_217_846)">
<path d="M2.53583 20.1401L3.52007 19.9633L3.52007 19.9633L2.53583 20.1401ZM4.52344 22.0852L4.4052 23.0781L4.40522 23.0781L4.52344 22.0852ZM27.4691 22.0824L27.5863 23.0755H27.5863L27.4691 22.0824ZM29.4613 20.1337L30.4461 20.3071L30.4462 20.307L29.4613 20.1337ZM29.5719 4.27408L30.5454 4.04527L30.5454 4.04522L29.5719 4.27408ZM27.699 2.62009L27.5826 3.61329L27.5826 3.61329L27.699 2.62009ZM4.2733 2.60487L4.39894 3.59694H4.39894L4.2733 2.60487ZM2.42936 4.24953L3.40142 4.48428L3.40142 4.48428L2.42936 4.24953ZM12.8887 22.6742V21.6742C12.4241 21.6742 12.0207 21.9942 11.9149 22.4466L12.8887 22.6742ZM19.1106 22.6742L20.0843 22.4466C19.9785 21.9942 19.5751 21.6742 19.1106 21.6742V22.6742ZM20.8248 30.0065V31.0065C21.1301 31.0065 21.4186 30.8671 21.6083 30.6279C21.798 30.3888 21.8681 30.0761 21.7986 29.7788L20.8248 30.0065ZM11.1744 30.0065L10.2007 29.7788C10.1312 30.0761 10.2012 30.3888 10.3909 30.6279C10.5806 30.8671 10.8691 31.0065 11.1744 31.0065V30.0065ZM7.44559 29.0063C6.89331 29.0063 6.44559 29.454 6.44559 30.0063C6.44559 30.5585 6.89331 31.0063 7.44559 31.0063V29.0063ZM24.5536 31.0063C25.1059 31.0063 25.5536 30.5585 25.5536 30.0063C25.5536 29.454 25.1059 29.0063 24.5536 29.0063V31.0063ZM1.55159 20.317C1.8029 21.7157 2.90603 22.8996 4.4052 23.0781L4.64169 21.0922C4.10241 21.028 3.63179 20.5851 3.52007 19.9633L1.55159 20.317ZM4.40522 23.0781C8.09785 23.5178 12.0181 23.6741 15.9996 23.6741V21.6741C12.0656 21.6741 8.22977 21.5194 4.64167 21.0922L4.40522 23.0781ZM15.9996 23.6741C19.9906 23.6741 23.8449 23.517 27.5863 23.0755L27.3519 21.0893C23.7122 21.5188 19.9408 21.6741 15.9996 21.6741V23.6741ZM27.5863 23.0755C29.0869 22.8984 30.1983 21.7146 30.4461 20.3071L28.4764 19.9603C28.3673 20.5802 27.8955 21.0251 27.3519 21.0893L27.5863 23.0755ZM30.4462 20.307C30.8179 18.1936 31.2853 16.2308 31.2853 12.3336H29.2853C29.2853 16.0268 28.8535 17.8171 28.4764 19.9605L30.4462 20.307ZM31.2853 12.3336C31.2853 8.36143 31.087 6.34971 30.5454 4.04527L28.5984 4.50288C29.0913 6.59986 29.2853 8.44245 29.2853 12.3336H31.2853ZM30.5454 4.04522C30.2369 2.73293 29.1319 1.7812 27.8154 1.62689L27.5826 3.61329C28.0855 3.67224 28.4878 4.03214 28.5985 4.50294L30.5454 4.04522ZM27.8154 1.62689C24.0636 1.18708 20.0689 0.993164 15.9996 0.993164V2.99316C20.008 2.99316 23.9232 3.18432 27.5826 3.61329L27.8154 1.62689ZM15.9996 0.993164C11.9316 0.993164 7.91951 1.13508 4.14765 1.61279L4.39894 3.59694C8.05237 3.13423 11.9706 2.99316 15.9996 2.99316V0.993164ZM4.14765 1.61279C2.84301 1.77803 1.76772 2.72939 1.45731 4.01478L3.40142 4.48428C3.51514 4.01337 3.91113 3.65872 4.39894 3.59694L4.14765 1.61279ZM1.45731 4.01478C0.891911 6.35596 0.713867 8.17633 0.713867 12.3336H2.71387C2.71387 8.25091 2.88866 6.60751 3.40142 4.48428L1.45731 4.01478ZM0.713867 12.3336C0.713867 16.3711 1.17962 18.2467 1.55159 20.317L3.52007 19.9633C3.14404 17.8704 2.71387 16.1657 2.71387 12.3336H0.713867ZM12.8887 23.6742H19.1106V21.6742H12.8887V23.6742ZM18.1368 22.9019L19.8511 30.2341L21.7986 29.7788L20.0843 22.4466L18.1368 22.9019ZM20.8248 29.0065H11.1744V31.0065H20.8248V29.0065ZM12.1481 30.2341L13.8624 22.9019L11.9149 22.4466L10.2007 29.7788L12.1481 30.2341ZM7.44559 31.0063H24.5536V29.0063H7.44559V31.0063Z" fill="#111827"/>
</g>
<defs>
<clipPath id="clip0_217_846">
<rect width="32" height="32" fill="white"/>
</clipPath>
</defs>
</svg>
