<svg width="32" height="32" viewBox="0 0 32 32" fill="none" xmlns="http://www.w3.org/2000/svg">
<path d="M13.4529 5.08179C14.4322 2.71059 17.7154 2.63459 18.7012 5.00362C19.3809 6.64522 19.902 8.33242 20.4253 10.5408C22.7401 10.519 24.551 10.5668 26.375 10.7318C28.9438 10.962 29.9796 14.0845 27.9819 15.7109C26.7519 16.7001 25.461 17.611 24.1167 18.4382C23.9089 18.5691 23.7505 18.7653 23.6664 18.9961C23.5822 19.2268 23.5772 19.479 23.6521 19.7129C24.3621 21.9125 24.842 23.6996 25.2155 25.5736C25.7106 28.0642 23.0853 29.9664 20.9508 28.5875C19.3157 27.5278 17.8283 26.3118 15.9999 24.5747C14.1868 26.2424 12.7081 27.4258 11.0925 28.4768C8.94497 29.873 6.26326 27.9925 6.76268 25.4802C7.12314 23.667 7.60303 21.9017 8.33263 19.7237C8.412 19.4877 8.40953 19.2319 8.32561 18.9975C8.24169 18.763 8.08122 18.5637 7.87011 18.4317C6.48249 17.5853 5.1528 16.6473 3.88988 15.6241C1.92474 14.0085 2.92794 10.9273 5.462 10.6949C7.31857 10.5212 9.1708 10.4865 11.5746 10.5408C12.1009 8.68831 12.728 6.86594 13.4529 5.08179Z" stroke="#111827" stroke-width="2" stroke-linecap="round" stroke-linejoin="round"/>
</svg>
