<svg width="32" height="32" viewBox="0 0 32 32" fill="none" xmlns="http://www.w3.org/2000/svg">
<g clip-path="url(#clip0_217_2683)">
<path d="M10.5185 19.3674L11.5124 19.2572L11.5124 19.2572L10.5185 19.3674ZM12.6153 21.4688L12.501 22.4622L12.501 22.4622L12.6153 21.4688ZM19.3839 21.4688L19.4981 22.4622L19.4982 22.4622L19.3839 21.4688ZM21.4806 19.3674L20.4867 19.2572V19.2572L21.4806 19.3674ZM21.4806 12.6328L20.4867 12.743V12.743L21.4806 12.6328ZM19.3839 10.5314L19.4982 9.53791L19.4981 9.53791L19.3839 10.5314ZM12.6153 10.5314L12.501 9.53791L12.501 9.53791L12.6153 10.5314ZM10.5185 12.6328L11.5124 12.743L11.5124 12.743L10.5185 12.6328ZM15.9996 30.2858V31.2858C20.7551 31.2858 24.6115 29.9452 27.2781 27.2786C29.9447 24.612 31.2853 20.7556 31.2853 16.0001H30.2853H29.2853C29.2853 20.3874 28.0544 23.6739 25.8639 25.8644C23.6734 28.0549 20.3869 29.2858 15.9996 29.2858V30.2858ZM30.2853 16.0001H31.2853C31.2853 11.2446 29.9447 7.38814 27.2781 4.72153C24.6115 2.05493 20.7551 0.714355 15.9996 0.714355V1.71436V2.71436C20.3869 2.71436 23.6734 3.94521 25.8639 6.13575C28.0544 8.32629 29.2853 11.6127 29.2853 16.0001H30.2853ZM15.9996 1.71436V0.714355C11.2441 0.714355 7.38765 2.05493 4.72105 4.72153C2.05445 7.38814 0.713867 11.2446 0.713867 16.0001H1.71387H2.71387C2.71387 11.6127 3.94472 8.32629 6.13526 6.13575C8.3258 3.94521 11.6122 2.71436 15.9996 2.71436V1.71436ZM1.71387 16.0001H0.713867C0.713867 20.7556 2.05445 24.612 4.72105 27.2786C7.38765 29.9452 11.2441 31.2858 15.9996 31.2858V30.2858V29.2858C11.6122 29.2858 8.3258 28.0549 6.13526 25.8644C3.94472 23.6739 2.71387 20.3874 2.71387 16.0001H1.71387ZM10.5185 19.3674L9.52462 19.4775C9.69787 21.0405 10.9432 22.2831 12.501 22.4622L12.6153 21.4688L12.7295 20.4753C12.0939 20.4022 11.5824 19.8886 11.5124 19.2572L10.5185 19.3674ZM12.6153 21.4688L12.501 22.4622C13.5983 22.5884 14.7802 22.7144 15.9996 22.7144V21.7144V20.7144C14.9063 20.7144 13.8258 20.6014 12.7295 20.4753L12.6153 21.4688ZM15.9996 21.7144V22.7144C17.2189 22.7144 18.4009 22.5884 19.4981 22.4622L19.3839 21.4688L19.2697 20.4753C18.1734 20.6014 17.0928 20.7144 15.9996 20.7144V21.7144ZM19.3839 21.4688L19.4982 22.4622C21.0559 22.2831 22.3013 21.0405 22.4745 19.4775L21.4806 19.3674L20.4867 19.2572C20.4167 19.8886 19.9053 20.4022 19.2696 20.4753L19.3839 21.4688ZM21.4806 19.3674L22.4745 19.4775C22.5958 18.3838 22.7139 17.2104 22.7139 16.0001H21.7139H20.7139C20.7139 17.0905 20.6074 18.1683 20.4867 19.2572L21.4806 19.3674ZM21.7139 16.0001H22.7139C22.7139 14.7897 22.5958 13.6164 22.4745 12.5226L21.4806 12.6328L20.4867 12.743C20.6074 13.8319 20.7139 14.9096 20.7139 16.0001H21.7139ZM21.4806 12.6328L22.4745 12.5226C22.3013 10.9597 21.0559 9.71706 19.4982 9.53791L19.3839 10.5314L19.2696 11.5248C19.9053 11.5979 20.4167 12.1115 20.4867 12.743L21.4806 12.6328ZM19.3839 10.5314L19.4981 9.53791C18.4009 9.41172 17.2189 9.28578 15.9996 9.28578V10.2858V11.2858C17.0928 11.2858 18.1734 11.3987 19.2697 11.5248L19.3839 10.5314ZM15.9996 10.2858V9.28578C14.7802 9.28578 13.5983 9.41172 12.501 9.53791L12.6153 10.5314L12.7295 11.5248C13.8258 11.3987 14.9063 11.2858 15.9996 11.2858V10.2858ZM12.6153 10.5314L12.501 9.53791C10.9432 9.71706 9.69787 10.9597 9.52462 12.5226L10.5185 12.6328L11.5124 12.743C11.5824 12.1115 12.0939 11.5979 12.7295 11.5248L12.6153 10.5314ZM10.5185 12.6328L9.52462 12.5226C9.40337 13.6164 9.2853 14.7897 9.2853 16.0001H10.2853H11.2853C11.2853 14.9096 11.3917 13.8319 11.5124 12.743L10.5185 12.6328ZM10.2853 16.0001H9.2853C9.2853 17.2104 9.40337 18.3838 9.52462 19.4775L10.5185 19.3674L11.5124 19.2572C11.3917 18.1683 11.2853 17.0905 11.2853 16.0001H10.2853Z" fill="#111827"/>
</g>
<defs>
<clipPath id="clip0_217_2683">
<rect width="32" height="32" fill="white"/>
</clipPath>
</defs>
</svg>
