<svg width="32" height="32" viewBox="0 0 32 32" fill="none" xmlns="http://www.w3.org/2000/svg">
<path d="M29.7147 6.85721H6.85756C5.64514 6.85721 4.48238 7.33884 3.62507 8.19615C2.76776 9.05346 2.28613 10.2162 2.28613 11.4286V13.7144M29.7147 6.85721C28.8576 9.42864 27.1433 11.1429 24.5718 12.0001M29.7147 6.85721C28.8576 4.28578 27.1433 2.5715 24.5718 1.71436M2.28613 25.1429H25.1433C26.3557 25.1429 27.5185 24.6613 28.3758 23.804C29.2331 22.9467 29.7147 21.7839 29.7147 20.5715V18.2858M2.28613 25.1429C3.14328 22.5715 4.85756 20.8572 7.42899 20.0001M2.28613 25.1429C3.14328 27.7144 4.85756 29.4286 7.42899 30.2858" stroke="#111827" stroke-width="2" stroke-linecap="round" stroke-linejoin="round"/>
</svg>
