<svg width="32" height="32" viewBox="0 0 32 32" fill="none" xmlns="http://www.w3.org/2000/svg">
<g clip-path="url(#clip0_217_2732)">
<path d="M15.0291 8.44557C15.5813 8.45555 16.0371 8.016 16.047 7.4638C16.057 6.91161 15.6175 6.45587 15.0653 6.44589L15.0291 8.44557ZM6.38431 7.64255L6.32201 6.6445H6.322L6.38431 7.64255ZM2.19532 11.7317L3.18961 11.8384L3.18961 11.8384L2.19532 11.7317ZM2.19532 25.9826L3.18961 25.8759L3.18961 25.8759L2.19532 25.9826ZM6.38452 30.0717L6.32219 31.0697L6.32224 31.0698L6.38452 30.0717ZM19.9004 30.0717L19.9626 31.0698L19.9627 31.0697L19.9004 30.0717ZM24.0896 25.9826L25.0839 26.0893L25.0839 26.0892L24.0896 25.9826ZM25.5257 16.9074C25.5009 16.3557 25.0335 15.9285 24.4818 15.9533C23.9301 15.9781 23.5029 16.4455 23.5277 16.9972L25.5257 16.9074ZM15.8641 14.5705C15.4736 14.961 15.4736 15.5942 15.8642 15.9847C16.2547 16.3752 16.8879 16.3752 17.2784 15.9847L15.8641 14.5705ZM30.4292 2.8336C30.8197 2.44307 30.8197 1.80991 30.4292 1.41939C30.0387 1.02887 29.4055 1.02887 29.015 1.4194L30.4292 2.8336ZM28.7835 11.2939C28.7289 11.8435 29.1301 12.3333 29.6797 12.3879C30.2293 12.4425 30.7191 12.0412 30.7737 11.4917L28.7835 11.2939ZM29.7786 2.11145L30.7732 2.00806C30.7243 1.53757 30.3524 1.1657 29.8819 1.11681L29.7786 2.11145ZM20.3984 1.11635C19.8489 1.17093 19.4476 1.6607 19.5022 2.21028C19.5568 2.75986 20.0465 3.16114 20.5961 3.10656L20.3984 1.11635ZM15.0653 6.44589C12.1618 6.39342 9.28255 6.45968 6.32201 6.6445L6.44662 8.64061C9.35538 8.45903 12.181 8.39409 15.0291 8.44557L15.0653 6.44589ZM6.322 6.6445C3.60755 6.81396 1.48583 8.97051 1.20103 11.625L3.18961 11.8384C3.37583 10.1028 4.75436 8.74626 6.44662 8.64061L6.322 6.6445ZM1.20103 11.625C0.953325 13.9335 0.713867 16.3626 0.713867 18.8571H2.71387C2.71387 16.48 2.9421 14.1452 3.18961 11.8384L1.20103 11.625ZM0.713867 18.8571C0.713867 21.3515 0.953324 23.7807 1.20103 26.0892L3.18961 25.8759C2.9421 23.5691 2.71387 21.2341 2.71387 18.8571H0.713867ZM1.20103 26.0892C1.48584 28.7437 3.60784 30.9002 6.32219 31.0697L6.44685 29.0736C4.75453 28.968 3.37582 27.6113 3.18961 25.8759L1.20103 26.0892ZM6.32224 31.0698C10.9355 31.3576 15.3494 31.3576 19.9626 31.0698L19.8381 29.0736C15.3078 29.3563 10.9771 29.3563 6.44679 29.0736L6.32224 31.0698ZM19.9627 31.0697C22.6771 30.9002 24.7989 28.7437 25.0839 26.0893L23.0954 25.8758C22.909 27.6114 21.5303 28.968 19.838 29.0736L19.9627 31.0697ZM25.0839 26.0892C25.3316 23.7807 25.571 21.3515 25.571 18.8571H23.571C23.571 21.2341 23.3428 23.5691 23.0953 25.8759L25.0839 26.0892ZM25.571 18.8571C25.571 18.2017 25.5546 17.5516 25.5257 16.9074L23.5277 16.9972C23.5554 17.615 23.571 18.235 23.571 18.8571H25.571ZM17.2784 15.9847L30.4292 2.8336L29.015 1.4194L15.8641 14.5705L17.2784 15.9847ZM30.7737 11.4917C31.148 7.72322 31.1487 5.62082 30.7732 2.00806L28.7839 2.21484C29.1448 5.68709 29.1451 7.65382 28.7835 11.2939L30.7737 11.4917ZM29.8819 1.11681C26.2693 0.741402 24.167 0.742077 20.3984 1.11635L20.5961 3.10656C24.2363 2.74503 26.203 2.74529 29.6752 3.1061L29.8819 1.11681Z" fill="#111827"/>
</g>
<defs>
<clipPath id="clip0_217_2732">
<rect width="32" height="32" fill="white"/>
</clipPath>
</defs>
</svg>
