<svg width="32" height="32" viewBox="0 0 32 32" fill="none" xmlns="http://www.w3.org/2000/svg">
<path d="M21.4789 15.0203C20.9266 15.0203 20.4789 15.468 20.4789 16.0203C20.4789 16.5725 20.9266 17.0203 21.4789 17.0203V15.0203ZM23.7811 4.47493C23.2648 4.27878 22.6873 4.5383 22.4912 5.05458C22.295 5.57085 22.5545 6.14839 23.0708 6.34454L23.7811 4.47493ZM21.357 23.2838L21.9114 22.4515L21.9114 22.4515L21.357 23.2838ZM3.14117 23.2838L2.58685 22.4515L2.58682 22.4515L3.14117 23.2838ZM18.3026 27.9546C17.7503 27.9546 17.3026 28.4024 17.3026 28.9546C17.3026 29.5069 17.7503 29.9546 18.3026 29.9546V27.9546ZM28.9686 23.7229L29.523 22.8906L29.5229 22.8906L28.9686 23.7229ZM27.0161 21.5241C26.5097 21.3037 25.9205 21.5355 25.7001 22.0419C25.4797 22.5483 25.7116 23.1375 26.218 23.3579L27.0161 21.5241ZM21.4789 17.0203C25.0594 17.0203 27.962 14.1176 27.962 10.5371H25.962C25.962 13.0131 23.9548 15.0203 21.4789 15.0203V17.0203ZM27.962 10.5371C27.962 7.7658 26.2238 5.40296 23.7811 4.47493L23.0708 6.34454C24.7626 6.9873 25.962 8.62332 25.962 10.5371H27.962ZM12.253 15.9332C16.0878 15.9332 19.1966 12.8244 19.1966 8.98958H17.1966C17.1966 11.7199 14.9833 13.9332 12.253 13.9332V15.9332ZM19.1966 8.98958C19.1966 5.15469 16.0878 2.0459 12.253 2.0459V4.0459C14.9833 4.0459 17.1966 6.25926 17.1966 8.98958H19.1966ZM12.253 2.0459C8.41807 2.0459 5.30928 5.15469 5.30928 8.98958H7.30928C7.30928 6.25926 9.52264 4.0459 12.253 4.0459V2.0459ZM5.30928 8.98958C5.30928 12.8244 8.41807 15.9332 12.253 15.9332V13.9332C9.52264 13.9332 7.30928 11.7199 7.30928 8.98958H5.30928ZM20.8027 24.1161C21.357 24.4853 21.6138 24.8919 21.7119 25.2506C21.8116 25.615 21.7713 26.0166 21.5811 26.413C21.1959 27.216 20.1994 27.9549 18.808 27.9549V29.9549C20.9098 29.9549 22.6416 28.8264 23.3843 27.278C23.7582 26.4987 23.8819 25.6035 23.6411 24.7231C23.3988 23.837 22.8108 23.0505 21.9114 22.4515L20.8027 24.1161ZM18.808 27.9549H5.69017V29.9549H18.808V27.9549ZM5.69017 27.9549C4.29876 27.9549 3.30234 27.216 2.91708 26.413C2.72692 26.0166 2.68661 25.615 2.78626 25.2506C2.88437 24.8919 3.14119 24.4853 3.69551 24.1161L2.58682 22.4515C1.68746 23.0505 1.09942 23.837 0.857095 24.7231C0.616311 25.6035 0.739992 26.4987 1.11385 27.278C1.85664 28.8264 3.58841 29.9549 5.69017 29.9549V27.9549ZM3.69548 24.1161C6.14421 22.4852 9.08413 21.5347 12.2491 21.5347V19.5347C8.67751 19.5347 5.35375 20.6087 2.58685 22.4515L3.69548 24.1161ZM12.2491 21.5347C15.4141 21.5347 18.354 22.4852 20.8027 24.1161L21.9114 22.4515C19.1445 20.6087 15.8207 19.5347 12.2491 19.5347V21.5347ZM18.3026 29.9546H26.6171V27.9546H18.3026V29.9546ZM26.6171 29.9546C28.5834 29.9546 30.2095 28.8985 30.9086 27.4413C31.2606 26.7075 31.378 25.8625 31.1504 25.0303C30.9213 24.1924 30.366 23.4522 29.523 22.8906L28.4142 24.5552C28.9122 24.8869 29.1363 25.2472 29.2212 25.5578C29.3077 25.874 29.2737 26.2253 29.1054 26.5762C28.7638 27.2882 27.8731 27.9546 26.6171 27.9546V29.9546ZM29.5229 22.8906C28.7336 22.3648 27.8951 21.9066 27.0161 21.5241L26.218 23.3579C26.9879 23.693 27.7225 24.0944 28.4142 24.5552L29.5229 22.8906Z" fill="#111827"/>
</svg>
