<svg width="32" height="32" viewBox="0 0 32 32" fill="none" xmlns="http://www.w3.org/2000/svg">
<path d="M9.56663 5.42194C8.76083 5.52229 7.96392 5.62668 7.17685 5.72336C6.08181 5.8579 5.2164 6.73564 5.13893 7.83618C4.66853 14.5181 4.66853 20.8309 5.13893 27.513C5.21642 28.6133 6.08202 29.4938 7.18142 29.5861C13.2334 30.0933 18.7674 30.0933 24.8194 29.5861C25.9188 29.4938 26.7844 28.6133 26.8619 27.513C27.3323 20.8309 27.3323 14.5181 26.8619 7.83618C26.7844 6.73566 25.919 5.8579 24.824 5.72338C24.037 5.62668 23.24 5.52229 22.4342 5.42194M11.6433 14.8929H20.3576M11.6433 21.5358H16.9019M12.9284 1.71436H19.0724C20.9458 1.71436 22.4644 3.23301 22.4644 5.10636V5.10864C22.4644 6.98199 20.9458 8.50064 19.0724 8.50064H12.9284C11.0551 8.50064 9.53642 6.98199 9.53642 5.10864V5.10636C9.53642 3.23301 11.0551 1.71436 12.9284 1.71436Z" stroke="#111827" stroke-width="2" stroke-linecap="round" stroke-linejoin="round"/>
</svg>
