<svg width="32" height="32" viewBox="0 0 32 32" fill="none" xmlns="http://www.w3.org/2000/svg">
<g clip-path="url(#clip0_217_2672)">
<path d="M7.4475 5.42155C6.64169 5.52189 5.84478 5.62628 5.05771 5.72297C3.96267 5.8575 3.09726 6.73524 3.01979 7.83579C2.54939 14.5177 2.54939 20.8306 3.01979 27.5126C3.09728 28.6129 3.96288 29.4934 5.06228 29.5857C6.74077 29.7264 8.37942 29.8281 10.0003 29.8907M20.3151 5.42155C21.1208 5.52189 21.9179 5.62628 22.7048 5.72299C23.7999 5.8575 24.6653 6.73526 24.7428 7.83579C24.8574 9.46434 24.9441 11.071 25.0029 12.6663M10.667 13.5602H18.2384M10.667 20.2035H14.7828M10.809 1.71387H16.953C18.8263 1.71387 20.345 3.23252 20.345 5.10587V5.10815C20.345 6.9815 18.8263 8.50015 16.953 8.50015H10.809C8.93564 8.50015 7.41699 6.9815 7.41699 5.10815V5.10587C7.41699 3.23252 8.93564 1.71387 10.809 1.71387ZM22.681 18.2408L16.1302 25.6737L15.2328 29.8945C15.0884 30.5739 15.7963 31.2164 16.4593 31.0079L20.6598 29.6875L27.4261 22.5678C28.5498 21.3853 28.3536 19.4076 26.9934 18.2044C25.665 17.0294 23.7342 17.0457 22.681 18.2408Z" stroke="#111827" stroke-width="2" stroke-linecap="round" stroke-linejoin="round"/>
</g>
<defs>
<clipPath id="clip0_217_2672">
<rect width="32" height="32" fill="white"/>
</clipPath>
</defs>
</svg>
