<svg width="32" height="32" viewBox="0 0 32 32" fill="none" xmlns="http://www.w3.org/2000/svg">
<path d="M24.2441 17.0111L23.4939 16.3499V16.3499L24.2441 17.0111ZM17.6934 24.4441L16.9432 23.7829C16.8295 23.9119 16.751 24.068 16.7153 24.2361L17.6934 24.4441ZM16.796 28.6649L15.8178 28.4569L15.8178 28.457L16.796 28.6649ZM18.0225 29.7783L17.7226 28.8243L17.7225 28.8243L18.0225 29.7783ZM22.2229 28.4578L22.5228 29.4118C22.6846 29.3609 22.8309 29.2697 22.9478 29.1467L22.2229 28.4578ZM28.9893 21.3382L29.7141 22.0271L29.7142 22.027L28.9893 21.3382ZM28.5566 16.9747L29.2191 16.2257L29.2191 16.2257L28.5566 16.9747ZM15.8538 7.78259C15.8538 7.2303 15.406 6.78259 14.8538 6.78259C14.3015 6.78259 13.8538 7.2303 13.8538 7.78259H15.8538ZM13.8538 20.044C13.8538 20.5963 14.3015 21.044 14.8538 21.044C15.406 21.044 15.8538 20.5963 15.8538 20.044H13.8538ZM7.65491 11.5984C7.65491 12.1507 8.10262 12.5984 8.65491 12.5984C9.20719 12.5984 9.65491 12.1507 9.65491 11.5984H7.65491ZM8.65491 7.78259V6.78259C8.10262 6.78259 7.65491 7.2303 7.65491 7.78259H8.65491ZM21.0526 7.78259H22.0526C22.0526 7.2303 21.6049 6.78259 21.0526 6.78259V7.78259ZM20.0526 11.5984C20.0526 12.1507 20.5003 12.5984 21.0526 12.5984C21.6049 12.5984 22.0526 12.1507 22.0526 11.5984H20.0526ZM26.2757 11.1328C26.3175 11.6835 26.7978 12.0961 27.3485 12.0543C27.8992 12.0125 28.3118 11.5322 28.27 10.9815L26.2757 11.1328ZM27.0747 8.86167L28.0695 8.76015L28.0695 8.76008L27.0747 8.86167ZM20.784 2.55347L20.89 1.55911L20.89 1.55911L20.784 2.55347ZM8.92165 2.55347L8.81558 1.55911L8.81558 1.55911L8.92165 2.55347ZM2.63106 8.86167L1.63623 8.76013L1.63623 8.76014L2.63106 8.86167ZM2.63106 20.6477L1.63623 20.7492L1.63623 20.7492L2.63106 20.6477ZM8.92165 26.9559L8.81556 27.9502L8.81564 27.9502L8.92165 26.9559ZM11.1669 28.1711C11.7176 28.2141 12.1988 27.8027 12.2418 27.2521C12.2848 26.7014 11.8734 26.2202 11.3227 26.1772L11.1669 28.1711ZM23.4939 16.3499L16.9432 23.7829L18.4436 25.1053L24.9943 17.6723L23.4939 16.3499ZM16.7153 24.2361L15.8178 28.4569L17.7741 28.8729L18.6715 24.6521L16.7153 24.2361ZM15.8178 28.457C15.6586 29.2058 15.9788 29.8815 16.4343 30.295C16.8898 30.7084 17.5928 30.9616 18.3224 30.7322L17.7225 28.8243C17.7348 28.8204 17.7481 28.8184 17.7607 28.8182C17.7729 28.8181 17.7815 28.8197 17.7861 28.8209C17.7933 28.8228 17.7882 28.8228 17.7785 28.814C17.7689 28.8053 17.7686 28.8003 17.7713 28.8078C17.773 28.8124 17.7755 28.8211 17.7766 28.8335C17.7776 28.8463 17.7768 28.86 17.7741 28.8728L15.8178 28.457ZM18.3224 30.7322L22.5228 29.4118L21.923 27.5038L17.7226 28.8243L18.3224 30.7322ZM22.9478 29.1467L29.7141 22.0271L28.2644 20.6493L21.498 27.7689L22.9478 29.1467ZM29.7142 22.027C31.2993 20.3589 30.9216 17.7316 29.2191 16.2257L27.894 17.7237C28.912 18.6242 28.9265 19.9525 28.2643 20.6493L29.7142 22.027ZM29.2191 16.2257C27.5543 14.7532 24.9779 14.666 23.4939 16.3499L24.9943 17.6723C25.6168 16.966 26.9019 16.8462 27.8941 17.7237L29.2191 16.2257ZM13.8538 7.78259V20.044H15.8538V7.78259H13.8538ZM9.65491 11.5984V7.78259H7.65491V11.5984H9.65491ZM8.65491 8.78259H21.0526V6.78259H8.65491V8.78259ZM20.0526 7.78259V11.5984H22.0526V7.78259H20.0526ZM28.27 10.9815C28.2131 10.2326 28.1441 9.49161 28.0695 8.76015L26.0798 8.96319C26.1533 9.68312 26.2205 10.4061 26.2757 11.1328L28.27 10.9815ZM28.0695 8.76008C27.6848 4.99319 24.651 1.96029 20.89 1.55911L20.6779 3.54782C23.5029 3.84918 25.7916 6.14099 26.0798 8.96327L28.0695 8.76008ZM20.89 1.55911C18.9411 1.35122 16.9201 1.18213 14.8528 1.18213V3.18213C16.8157 3.18213 18.7556 3.34277 20.6779 3.54783L20.89 1.55911ZM14.8528 1.18213C12.7856 1.18213 10.7645 1.35122 8.81558 1.55911L9.02771 3.54783C10.9501 3.34277 12.8899 3.18213 14.8528 3.18213V1.18213ZM8.81558 1.55911C5.05462 1.96029 2.02072 4.99318 1.63623 8.76013L3.6259 8.96321C3.91396 6.14099 6.20262 3.84918 9.02772 3.54782L8.81558 1.55911ZM1.63623 8.76014C1.43854 10.6972 1.28027 12.7033 1.28027 14.7547H3.28027C3.28027 12.8021 3.431 10.8728 3.6259 8.9632L1.63623 8.76014ZM1.28027 14.7547C1.28027 16.806 1.43854 18.8122 1.63623 20.7492L3.6259 20.5462C3.431 18.6365 3.28027 16.7072 3.28027 14.7547H1.28027ZM1.63623 20.7492C2.02072 24.5161 5.05464 27.549 8.81556 27.9502L9.02773 25.9615C6.20264 25.6601 3.91395 23.3682 3.6259 20.5461L1.63623 20.7492ZM8.81564 27.9502C9.58905 28.0327 10.3736 28.1091 11.1669 28.1711L11.3227 26.1772C10.5541 26.1171 9.78937 26.0427 9.02765 25.9615L8.81564 27.9502Z" fill="#111827"/>
</svg>
