<svg width="32" height="32" viewBox="0 0 32 32" fill="none" xmlns="http://www.w3.org/2000/svg">
<g clip-path="url(#clip0_217_1695)">
<path d="M2.19356 23.4704L3.18789 23.3641L3.18789 23.3641L2.19356 23.4704ZM8.48566 29.7788L8.37489 30.7726H8.3749L8.48566 29.7788ZM23.5134 29.7788L23.6242 30.7726H23.6242L23.5134 29.7788ZM29.8055 23.4704L28.8112 23.364L28.8112 23.3641L29.8055 23.4704ZM29.8055 8.52866L28.8112 8.63501L28.8112 8.63505L29.8055 8.52866ZM23.5134 2.2204L23.4026 3.21425L23.4026 3.21425L23.5134 2.2204ZM8.48566 2.2204L8.59644 3.21425L8.59644 3.21425L8.48566 2.2204ZM2.19356 8.52866L3.18789 8.63504V8.63504L2.19356 8.52866ZM11.0034 16.7322C10.6189 16.3357 9.98582 16.326 9.58934 16.7104C9.19285 17.0949 9.18311 17.728 9.56758 18.1245L11.0034 16.7322ZM14.4413 21.7141L13.7234 22.4102C13.965 22.6593 14.3183 22.7654 14.6571 22.6905C14.9959 22.6156 15.2717 22.3705 15.3857 22.0428L14.4413 21.7141ZM22.3859 11.0261C22.795 10.6551 22.8258 10.0227 22.4547 9.6136C22.0836 9.20455 21.4512 9.17375 21.0422 9.54482L22.3859 11.0261ZM1.19924 23.5768C1.60168 27.3385 4.61955 30.3541 8.37489 30.7726L8.59644 28.7849C5.7691 28.4698 3.49005 26.1884 3.18789 23.3641L1.19924 23.5768ZM8.3749 30.7726C10.8282 31.046 13.3831 31.2853 15.9996 31.2853V29.2853C13.4978 29.2853 11.0325 29.0564 8.59642 28.7849L8.3749 30.7726ZM15.9996 31.2853C18.6161 31.2853 21.171 31.046 23.6242 30.7726L23.4026 28.7849C20.9666 29.0564 18.5014 29.2853 15.9996 29.2853V31.2853ZM23.6242 30.7726C27.3796 30.3541 30.3975 27.3385 30.7999 23.5768L28.8112 23.3641C28.5091 26.1884 26.2301 28.4698 23.4026 28.7849L23.6242 30.7726ZM30.7998 23.5768C31.061 21.1364 31.2853 18.5983 31.2853 15.9996H29.2853C29.2853 18.4895 29.0703 20.9428 28.8112 23.364L30.7998 23.5768ZM31.2853 15.9996C31.2853 13.4008 31.061 10.8627 30.7998 8.42226L28.8112 8.63505C29.0703 11.0563 29.2853 13.5096 29.2853 15.9996H31.2853ZM30.7999 8.4223C30.3975 4.66069 27.3796 1.64513 23.6242 1.22656L23.4026 3.21425C26.2301 3.52939 28.5091 5.81079 28.8112 8.63501L30.7999 8.4223ZM23.6242 1.22656C21.171 0.953102 18.6161 0.713867 15.9996 0.713867V2.71387C18.5014 2.71387 20.9666 2.94271 23.4026 3.21425L23.6242 1.22656ZM15.9996 0.713867C13.3831 0.713867 10.8282 0.953102 8.37488 1.22656L8.59644 3.21425C11.0325 2.94271 13.4978 2.71387 15.9996 2.71387V0.713867ZM8.37489 1.22656C4.61955 1.64513 1.60168 4.6607 1.19924 8.42227L3.18789 8.63504C3.49005 5.81078 5.76909 3.52939 8.59644 3.21425L8.37489 1.22656ZM1.19924 8.42227C0.938134 10.8627 0.713867 13.4008 0.713867 15.9996H2.71387C2.71387 13.5096 2.92884 11.0563 3.18789 8.63504L1.19924 8.42227ZM0.713867 15.9996C0.713867 18.5983 0.938136 21.1364 1.19924 23.5768L3.18789 23.3641C2.92884 20.9428 2.71387 18.4895 2.71387 15.9996H0.713867ZM9.56758 18.1245L13.7234 22.4102L15.1592 21.0179L11.0034 16.7322L9.56758 18.1245ZM15.3857 22.0428C16.3515 19.2687 17.2172 17.3304 18.2699 15.6874C19.3186 14.0505 20.5799 12.6645 22.3859 11.0261L21.0422 9.54482C19.1597 11.2525 17.7625 12.7719 16.5858 14.6085C15.4132 16.4388 14.4868 18.5418 13.4969 21.3853L15.3857 22.0428Z" fill="#111827"/>
</g>
<defs>
<clipPath id="clip0_217_1695">
<rect width="32" height="32" fill="white"/>
</clipPath>
</defs>
</svg>
