<svg width="32" height="32" viewBox="0 0 32 32" fill="none" xmlns="http://www.w3.org/2000/svg">
<g clip-path="url(#clip0_217_1697)">
<path d="M16.9997 10.3135C16.9997 9.76119 16.552 9.31348 15.9997 9.31348C15.4474 9.31348 14.9997 9.76119 14.9997 10.3135H16.9997ZM15.9997 16.0278H14.9997C14.9997 16.293 15.105 16.5473 15.2926 16.7349L15.9997 16.0278ZM18.7211 20.1634C19.1117 20.554 19.7448 20.554 20.1354 20.1634C20.5259 19.7729 20.5259 19.1397 20.1354 18.7492L18.7211 20.1634ZM29.2853 15.9996C29.2853 23.3371 23.3371 29.2853 15.9996 29.2853V31.2853C24.4416 31.2853 31.2853 24.4416 31.2853 15.9996H29.2853ZM15.9996 29.2853C8.66208 29.2853 2.71387 23.3371 2.71387 15.9996H0.713867C0.713867 24.4416 7.55751 31.2853 15.9996 31.2853V29.2853ZM2.71387 15.9996C2.71387 8.66208 8.66208 2.71387 15.9996 2.71387V0.713867C7.55751 0.713867 0.713867 7.55751 0.713867 15.9996H2.71387ZM15.9996 2.71387C23.3371 2.71387 29.2853 8.66208 29.2853 15.9996H31.2853C31.2853 7.55751 24.4416 0.713867 15.9996 0.713867V2.71387ZM14.9997 10.3135V16.0278H16.9997V10.3135H14.9997ZM15.2926 16.7349L18.7211 20.1634L20.1354 18.7492L16.7068 15.3207L15.2926 16.7349Z" fill="#111827"/>
</g>
<defs>
<clipPath id="clip0_217_1697">
<rect width="32" height="32" fill="white"/>
</clipPath>
</defs>
</svg>
