<svg width="32" height="32" viewBox="0 0 32 32" fill="none" xmlns="http://www.w3.org/2000/svg">
<g clip-path="url(#clip0_217_1683)">
<path d="M30.2724 15.8244C30.2511 18.2641 29.6966 20.6698 28.6475 22.8725M15.9996 30.0965C14.1253 30.0965 12.2695 29.7273 10.5379 29.0101C8.80635 28.2928 7.233 27.2416 5.90772 25.9161C3.2312 23.2398 1.72754 19.6095 1.72754 15.8244M19.2274 19.6342L15.7671 15.3088H10.5765M2.65006 10.5547C3.1286 9.35888 3.77153 8.23557 4.56033 7.21728M8.79785 3.4408C10.0353 2.72629 11.3759 2.2078 12.7721 1.90381M29.3499 10.5547C28.8715 9.35888 28.2286 8.23557 27.4398 7.21728M23.2017 3.4408C21.9643 2.72629 20.6237 2.2078 19.2275 1.90381M26.9784 28.9986C28.7974 28.9986 30.2719 27.5241 30.2719 25.7051C30.2719 23.8862 28.7974 22.4116 26.9784 22.4116C25.1594 22.4116 23.6849 23.8862 23.6849 25.7051C23.6849 27.5241 25.1594 28.9986 26.9784 28.9986Z" stroke="#111827" stroke-width="2" stroke-linecap="round" stroke-linejoin="round"/>
</g>
<defs>
<clipPath id="clip0_217_1683">
<rect width="32" height="32" fill="white"/>
</clipPath>
</defs>
</svg>
