<svg width="32" height="32" viewBox="0 0 32 32" fill="none" xmlns="http://www.w3.org/2000/svg">
<path d="M3.73443 23.7624C5.00512 23.7624 6.03525 24.7923 6.03525 26.0632C6.03525 27.3338 5.00512 28.364 3.73443 28.364C2.46371 28.364 1.43359 27.3338 1.43359 26.0632C1.43359 24.7923 2.46371 23.7624 3.73443 23.7624ZM3.73443 23.7624L3.73443 13.1025M23.7596 15.5795C23.7811 16.017 23.7934 16.4575 23.7934 16.9007C23.7934 18.0062 23.7164 19.0947 23.6129 20.1618C23.395 22.405 21.6064 24.2177 19.4097 24.4419C18.2949 24.5558 17.1565 24.6428 15.9998 24.6428C14.8431 24.6428 13.7048 24.5558 12.5899 24.4419C10.3932 24.2177 8.60473 22.405 8.38684 20.1618C8.28318 19.0947 8.20617 18.0062 8.20617 16.9007C8.20617 16.4575 8.21856 16.017 8.24007 15.5795M2.30512 9.66714C1.1435 10.3961 1.14419 11.4411 2.30057 12.1721C3.90149 13.1841 5.5566 14.235 7.4798 15.1982C9.40297 16.1614 11.5013 16.9904 13.522 17.7921C14.9816 18.3713 17.068 18.3717 18.5235 17.7899C20.5286 16.9883 22.6054 16.1571 24.5198 15.1982C26.4344 14.2394 28.0942 13.1992 29.6945 12.195C30.8561 11.466 30.8556 10.4211 29.699 9.69004C28.0981 8.67804 26.443 7.62711 24.5198 6.66391C22.5967 5.70069 20.4984 4.87175 18.4777 4.06997C17.0181 3.49079 14.9317 3.49045 13.4762 4.07223C11.4711 4.87377 9.39429 5.70506 7.4798 6.66389C5.56528 7.62275 3.90549 8.66289 2.30512 9.66714Z" stroke="#111827" stroke-width="2" stroke-linecap="round" stroke-linejoin="round"/>
</svg>
