<svg width="32" height="32" viewBox="0 0 32 32" fill="none" xmlns="http://www.w3.org/2000/svg">
<path d="M4.314 24.2421L5.30763 24.1295L5.30763 24.1295L4.314 24.2421ZM10.757 30.1953L10.7925 29.1959H10.7924L10.757 30.1953ZM21.242 30.1953L21.2065 29.1959H21.2065L21.242 30.1953ZM27.6851 24.2421L28.6787 24.3548L28.6787 24.3546L27.6851 24.2421ZM27.6851 17.281L28.6787 17.1685L28.6787 17.1683L27.6851 17.281ZM21.242 11.3278L21.2774 10.3285H21.2774L21.242 11.3278ZM10.757 11.3278L10.7215 10.3285H10.7215L10.757 11.3278ZM4.314 17.281L5.30763 17.3937L5.30763 17.3936L4.314 17.281ZM20.0066 4.37409C20.3972 4.76461 21.0303 4.7646 21.4208 4.37407C21.8114 3.98355 21.8113 3.35038 21.4208 2.95986L20.0066 4.37409ZM11.2856 3.66697L11.9927 4.37409L11.9927 4.37408L11.2856 3.66697ZM8.33299 11.2382C8.33299 11.7905 8.78071 12.2382 9.33299 12.2382C9.88527 12.2382 10.333 11.7905 10.333 11.2382H8.33299ZM16.9996 19.6189C16.9996 19.0666 16.5519 18.6189 15.9996 18.6189C15.4473 18.6189 14.9996 19.0666 14.9996 19.6189H16.9996ZM14.9996 21.9045C14.9996 22.4568 15.4473 22.9045 15.9996 22.9045C16.5519 22.9045 16.9996 22.4568 16.9996 21.9045H14.9996ZM3.32036 24.3548C3.74806 28.1281 6.93038 31.0601 10.7215 31.1946L10.7924 29.1959C7.98717 29.0964 5.62334 26.9148 5.30763 24.1295L3.32036 24.3548ZM10.7215 31.1946C12.4069 31.2545 14.1367 31.2853 15.9995 31.2853V29.2853C14.1592 29.2853 12.4532 29.2549 10.7925 29.1959L10.7215 31.1946ZM15.9995 31.2853C17.8623 31.2853 19.592 31.2545 21.2775 31.1946L21.2065 29.1959C19.5458 29.2549 17.8398 29.2853 15.9995 29.2853V31.2853ZM21.2774 31.1946C25.0686 31.0601 28.2508 28.1281 28.6787 24.3548L26.6914 24.1294C26.3756 26.9148 24.0117 29.0964 21.2065 29.1959L21.2774 31.1946ZM28.6787 24.3546C28.8107 23.189 28.9043 21.9878 28.9043 20.7616H26.9043C26.9043 21.888 26.8182 23.0095 26.6914 24.1296L28.6787 24.3546ZM28.9043 20.7616C28.9043 19.5354 28.8107 18.3342 28.6787 17.1685L26.6914 17.3935C26.8182 18.5137 26.9043 19.6352 26.9043 20.7616H28.9043ZM28.6787 17.1683C28.2508 13.3951 25.0686 10.463 21.2774 10.3285L21.2065 12.3272C24.0117 12.4268 26.3756 14.6083 26.6914 17.3937L28.6787 17.1683ZM21.2774 10.3285C19.5921 10.2687 17.8623 10.2378 15.9995 10.2378V12.2378C17.8397 12.2378 19.5458 12.2683 21.2065 12.3272L21.2774 10.3285ZM15.9995 10.2378C14.1366 10.2378 12.4069 10.2687 10.7215 10.3285L10.7924 12.3272C12.4532 12.2683 14.1592 12.2378 15.9995 12.2378V10.2378ZM10.7215 10.3285C6.93038 10.463 3.74806 13.3951 3.32036 17.1684L5.30763 17.3936C5.62334 14.6083 7.98717 12.4268 10.7925 12.3272L10.7215 10.3285ZM3.32036 17.1684C3.18818 18.3343 3.09473 19.5355 3.09473 20.7616H5.09473C5.09473 19.6351 5.18065 18.5137 5.30763 17.3937L3.32036 17.1684ZM3.09473 20.7616C3.09473 21.9877 3.18818 23.189 3.32036 24.3548L5.30763 24.1295C5.18065 23.0096 5.09473 21.8881 5.09473 20.7616H3.09473ZM21.4208 2.95986C19.983 1.52209 18.033 0.714355 15.9997 0.714355V2.71436C17.5026 2.71436 18.9439 3.31137 20.0066 4.37409L21.4208 2.95986ZM15.9997 0.714355C13.9663 0.714355 12.0163 1.52209 10.5785 2.95987L11.9927 4.37408C13.0554 3.31138 14.4968 2.71436 15.9997 2.71436V0.714355ZM10.5785 2.95986C9.14072 4.39764 8.33299 6.3477 8.33299 8.38103H10.333C10.333 6.87813 10.93 5.43679 11.9927 4.37409L10.5785 2.95986ZM8.33299 8.38103V11.2382H10.333V8.38103H8.33299ZM14.9996 19.6189V21.9045H16.9996V19.6189H14.9996Z" fill="#111827"/>
</svg>
