<svg width="32" height="32" viewBox="0 0 32 32" fill="none" xmlns="http://www.w3.org/2000/svg">
<path d="M8.98145 17.6297L2.95369 14.2975C5.35631 9.69178 10.0851 8.57749 13.7357 9.5899M14.3767 23.025L17.709 29.0528C22.2998 26.648 23.4183 21.9298 22.4144 18.2835M21.4615 10.5386L22.2128 9.78729M8.98145 17.6106L9.03239 17.6404C11.2152 18.9882 13.0503 20.8306 14.3894 23.0186C18.7192 20.4271 23.637 17.9163 25.8825 15.5901C30.7387 10.7297 27.9222 4.0779 27.9222 4.0779C27.9222 4.0779 21.2683 1.26141 16.41 6.11758C14.0838 8.36313 11.5539 13.3021 8.98145 17.6106ZM7.73982 27.9491C7.26439 28.4097 6.00365 28.8469 4.80447 29.1801C4.5289 29.262 4.23635 29.2679 3.9577 29.1972C3.67905 29.1266 3.42466 28.982 3.22139 28.7787C3.01812 28.5754 2.87352 28.321 2.80287 28.0424C2.73221 27.7637 2.73812 27.4712 2.81998 27.1956C3.15321 25.9964 3.59043 24.7357 4.051 24.2603C4.28835 23.9968 4.57687 23.7843 4.89897 23.6359C5.22107 23.4875 5.57002 23.4062 5.92455 23.397C6.27908 23.3878 6.63177 23.4509 6.96114 23.5824C7.29051 23.7139 7.58966 23.9111 7.84036 24.1619C8.09107 24.4128 8.28808 24.712 8.41939 25.0415C8.5507 25.3709 8.61357 25.7236 8.60416 26.0782C8.59476 26.4327 8.51327 26.7816 8.36467 27.1036C8.21607 27.4256 8.00347 27.7119 7.73982 27.9491Z" stroke="#111827" stroke-width="2" stroke-linecap="round" stroke-linejoin="round"/>
</svg>
