<svg width="32" height="32" viewBox="0 0 32 32" fill="none" xmlns="http://www.w3.org/2000/svg">
<path d="M2.48172 8.68351C2.51977 8.32541 2.96739 8.23589 3.17553 8.53355L6.62891 13.529C6.84748 13.8455 7.14394 14.1003 7.48968 14.2689C7.83542 14.4375 8.21878 14.5141 8.60275 14.4914C8.98673 14.4687 9.35838 14.3474 9.68183 14.1392C10.0053 13.931 10.2696 13.643 10.4493 13.3029L15.5298 3.69032C15.5747 3.60449 15.6422 3.5326 15.7251 3.48244C15.808 3.43228 15.903 3.40576 15.9998 3.40576C16.0967 3.40576 16.1917 3.43228 16.2745 3.48244C16.3574 3.5326 16.4249 3.60449 16.4698 3.69032L21.5503 13.3007C21.73 13.6408 21.9943 13.9288 22.3178 14.137C22.6412 14.3451 23.0129 14.4664 23.3969 14.4892C23.7809 14.5119 24.1642 14.4353 24.5099 14.2667C24.8557 14.0981 25.1521 13.8433 25.3707 13.5267L28.8241 8.53132C29.0322 8.23365 29.4799 8.32093 29.5179 8.68127C29.773 11.0626 29.9879 13.5066 29.9879 15.9976C29.9879 18.4886 29.773 20.9326 29.5179 23.3117C29.3402 24.8861 28.6343 26.3539 27.5153 27.4757C26.3964 28.5975 24.9304 29.3071 23.3564 29.4888C20.9617 29.7574 18.5065 29.9857 15.9998 29.9857C13.4931 29.9857 11.0357 29.7574 8.64319 29.4888C7.06921 29.3071 5.60323 28.5975 4.48429 27.4757C3.36534 26.3539 2.65945 24.8861 2.48172 23.3117C2.22658 20.9348 2.01172 18.4931 2.01172 15.9998C2.01172 13.5066 2.22658 11.0648 2.48172 8.68351Z" stroke="#111827" stroke-width="2" stroke-linecap="round" stroke-linejoin="round"/>
</svg>
