<svg width="32" height="32" viewBox="0 0 32 32" fill="none" xmlns="http://www.w3.org/2000/svg">
<g clip-path="url(#clip0_217_2710)">
<path d="M26.1685 21.306C26.9671 20.9002 27.683 20.43 28.2912 19.8941C29.3859 18.9299 30.0816 17.6057 30.2471 16.1723C30.4126 14.7388 30.0362 13.2956 29.1893 12.116C28.3422 10.9364 27.0835 10.1022 25.6512 9.77136C25.5523 9.7424 25.4638 9.68633 25.3964 9.60974C25.329 9.53314 25.2853 9.43922 25.2704 9.33904C25.0933 7.43671 24.2565 5.65138 22.8992 4.28078C21.5421 2.91017 19.7466 2.03714 17.8123 1.80728C15.878 1.57742 13.9218 2.00462 12.2699 3.01764C10.618 4.03065 9.37028 5.56825 8.73476 7.37403C8.69272 7.45824 8.62696 7.52887 8.54527 7.57762C8.46358 7.62638 8.36939 7.65118 8.27378 7.64914C7.35254 7.70978 6.4525 7.94772 5.62507 8.34937C4.79762 8.75102 4.05896 9.30852 3.45131 9.99006C2.22404 11.3664 1.60475 13.1644 1.72968 14.9885C1.8546 16.8125 2.7135 18.5132 4.11741 19.7164C4.71261 20.2265 5.41327 20.6835 6.19567 21.0861M7.946 7.65506C10.6642 7.65506 13.0952 9.44672 13.862 11.0836M15.9996 30.2534V17.962M20.691 22.0334C19.2654 20.2122 18.2944 19.3647 16.8474 18.2563C16.3354 17.864 15.6637 17.864 15.1516 18.2563C13.7046 19.3647 12.7336 20.2122 11.308 22.0334" stroke="#111827" stroke-width="2" stroke-linecap="round" stroke-linejoin="round"/>
</g>
<defs>
<clipPath id="clip0_217_2710">
<rect width="32" height="32" fill="white"/>
</clipPath>
</defs>
</svg>
