<svg width="32" height="32" viewBox="0 0 32 32" fill="none" xmlns="http://www.w3.org/2000/svg">
<path d="M25.3176 20.0205C24.7764 20.1306 24.427 20.6587 24.5372 21.1998C24.6473 21.741 25.1753 22.0905 25.7165 21.9803L25.3176 20.0205ZM29.337 19.8197L29.7294 20.7395C30.1645 20.5538 30.41 20.0887 30.3178 19.6247L29.337 19.8197ZM29.0777 15.6117C28.8632 15.1027 28.2768 14.864 27.7679 15.0784C27.2589 15.2929 27.0202 15.8793 27.2346 16.3883L29.0777 15.6117ZM26.7192 19.6187C27.1662 19.943 27.7915 19.8435 28.1158 19.3964C28.4401 18.9494 28.3405 18.3241 27.8935 17.9998L26.7192 19.6187ZM23.4519 17.5601L23.4527 18.5601H23.4527L23.4519 17.5601ZM19.5995 18.8151L19.0111 18.0065L19.0111 18.0065L19.5995 18.8151ZM17.2204 22.0947L16.2691 21.7864L16.2691 21.7865L17.2204 22.0947ZM17.2235 26.1465L16.2726 26.4562L16.2726 26.4562L17.2235 26.1465ZM19.6075 29.4226L19.0202 30.232L19.0203 30.2321L19.6075 29.4226ZM23.4618 30.6718L23.4624 31.6718H23.4626L23.4618 30.6718ZM27.3143 29.4167L27.9027 30.2253L27.9028 30.2252L27.3143 29.4167ZM30.6446 26.4454C30.8148 25.92 30.5269 25.3561 30.0015 25.1858C29.4761 25.0156 28.9122 25.3035 28.742 25.8289L30.6446 26.4454ZM28.377 12.7935C28.6992 13.2421 29.324 13.3447 29.7726 13.0225C30.2212 12.7004 30.3237 12.0756 30.0016 11.627L28.377 12.7935ZM25.6512 9.86558L25.3706 10.8254C25.389 10.8308 25.4075 10.8356 25.4262 10.8399L25.6512 9.86558ZM25.3964 9.70398L24.6457 10.3646L24.6458 10.3647L25.3964 9.70398ZM25.2704 9.43328L24.2747 9.526C24.2764 9.54406 24.2786 9.56207 24.2813 9.58001L25.2704 9.43328ZM22.8992 4.37502L22.1887 5.07864L22.1887 5.07866L22.8992 4.37502ZM17.8123 1.90152L17.9303 0.908504L17.9303 0.908504L17.8123 1.90152ZM12.2699 3.11187L11.7471 2.25939L11.7471 2.2594L12.2699 3.11187ZM8.73476 7.46828L9.62943 7.91501C9.64801 7.8778 9.66424 7.83948 9.67805 7.80025L8.73476 7.46828ZM8.27378 7.74336L8.29529 6.74359C8.26621 6.74297 8.23712 6.74361 8.20809 6.74552L8.27378 7.74336ZM5.62507 8.44361L6.06174 9.34323L6.06177 9.34322L5.62507 8.44361ZM3.45131 10.0843L4.1977 10.7498L4.1977 10.7498L3.45131 10.0843ZM1.72968 15.0827L2.72734 15.0144V15.0144L1.72968 15.0827ZM4.11741 19.8106L3.46667 20.5699L3.46667 20.5699L4.11741 19.8106ZM11.6654 23.9463C12.2098 24.0396 12.7267 23.674 12.8201 23.1297C12.9134 22.5853 12.5478 22.0684 12.0034 21.975L11.6654 23.9463ZM8.53698 6.74944C7.98469 6.74944 7.53698 7.19716 7.53698 7.74944C7.53698 8.30173 7.98469 8.74944 8.53698 8.74944V6.74944ZM13.5474 11.6022C13.7817 12.1023 14.3771 12.3178 14.8772 12.0835C15.3773 11.8492 15.5928 11.2538 15.3585 10.7537L13.5474 11.6022ZM25.7165 21.9803C27.3511 21.6476 28.2533 21.3693 29.7294 20.7395L28.9445 18.8999C27.5982 19.4744 26.8259 19.7135 25.3176 20.0205L25.7165 21.9803ZM30.3178 19.6247C30.0048 18.0507 29.7253 17.1487 29.0777 15.6117L27.2346 16.3883C27.8322 17.8066 28.0707 18.5792 28.3562 20.0147L30.3178 19.6247ZM27.8935 17.9998C26.6019 17.0629 25.0468 16.5589 23.4512 16.5601L23.4527 18.5601C24.626 18.5592 25.7694 18.9298 26.7192 19.6187L27.8935 17.9998ZM23.4512 16.5601C21.8556 16.5613 20.3013 17.0677 19.0111 18.0065L20.1879 19.6236C21.1366 18.9333 22.2794 18.561 23.4527 18.5601L23.4512 16.5601ZM19.0111 18.0065C17.7209 18.9454 16.7611 20.2685 16.2691 21.7864L18.1717 22.4031C18.5334 21.2869 19.2392 20.314 20.1879 19.6236L19.0111 18.0065ZM16.2691 21.7865C15.7772 23.3045 15.7784 24.9391 16.2726 26.4562L18.1743 25.8368C17.8109 24.7212 17.81 23.5193 18.1717 22.403L16.2691 21.7865ZM16.2726 26.4562C16.7669 27.9734 17.7287 29.295 19.0202 30.232L20.1947 28.6132C19.2449 27.9241 18.5377 26.9523 18.1743 25.8367L16.2726 26.4562ZM19.0203 30.2321C20.3119 31.1689 21.8669 31.6728 23.4624 31.6718L23.4611 29.6718C22.2878 29.6725 21.1443 29.3019 20.1946 28.6131L19.0203 30.2321ZM23.4626 31.6718C25.0582 31.6704 26.6124 31.1641 27.9027 30.2253L26.726 28.6081C25.7771 29.2985 24.6342 29.6708 23.4609 29.6718L23.4626 31.6718ZM27.9028 30.2252C29.1927 29.2864 30.1527 27.9634 30.6446 26.4454L28.742 25.8289C28.3804 26.9449 27.6746 27.9177 26.7259 28.6081L27.9028 30.2252ZM30.0016 11.627C29.0109 10.2473 27.5421 9.27603 25.8763 8.89124L25.4262 10.8399C26.6248 11.1168 27.6735 11.8139 28.377 12.7935L30.0016 11.627ZM25.9319 8.90576C26.0125 8.92935 26.0877 8.97592 26.147 9.04321L24.6458 10.3647C24.8399 10.5852 25.092 10.7439 25.3706 10.8254L25.9319 8.90576ZM26.1471 9.04332C26.2062 9.1105 26.246 9.19475 26.2596 9.28655L24.2813 9.58001C24.3246 9.87213 24.4517 10.1442 24.6457 10.3646L26.1471 9.04332ZM26.2661 9.34056C26.0673 7.20538 25.1283 5.2048 23.6098 3.67138L22.1887 5.07866C23.3847 6.28645 24.1193 7.85652 24.2747 9.526L26.2661 9.34056ZM23.6098 3.6714C22.0918 2.13839 20.0868 1.16477 17.9303 0.908504L17.6943 2.89453C19.4064 3.09799 20.9923 3.87044 22.1887 5.07864L23.6098 3.6714ZM17.9303 0.908504C15.774 0.652256 13.5919 1.12815 11.7471 2.25939L12.7927 3.96434C14.2518 3.06956 15.9821 2.69106 17.6943 2.89453L17.9303 0.908504ZM11.7471 2.2594C9.90208 3.39089 8.50425 5.111 7.79147 7.1363L9.67805 7.80025C10.2363 6.21399 11.334 4.8589 12.7927 3.96433L11.7471 2.2594ZM7.84009 7.02155C7.88446 6.93268 7.95228 6.86122 8.03279 6.81317L9.05775 8.53056C9.30165 8.385 9.50099 8.17224 9.62943 7.91501L7.84009 7.02155ZM8.03279 6.81317C8.11327 6.76514 8.20429 6.74164 8.29529 6.74359L8.25227 8.74313C8.53448 8.7492 8.81389 8.6761 9.05775 8.53056L8.03279 6.81317ZM8.20809 6.74552C7.15851 6.81461 6.13242 7.08573 5.18836 7.54401L6.06177 9.34322C6.77258 8.99817 7.54658 8.7934 8.33946 8.7412L8.20809 6.74552ZM5.18839 7.544C4.24428 8.00227 3.40018 8.63901 2.70492 9.41877L4.1977 10.7498C4.71775 10.1665 5.35095 9.68825 6.06174 9.34323L5.18839 7.544ZM2.70492 9.41877C1.30032 10.9941 0.588527 13.0559 0.732012 15.151L2.72734 15.0144C2.62098 13.4614 3.14776 11.9273 4.1977 10.7498L2.70492 9.41877ZM0.732012 15.151C0.875487 17.246 1.86175 19.1945 3.46667 20.5699L4.76816 19.0513C3.56525 18.0204 2.83371 16.5675 2.72734 15.0144L0.732012 15.151ZM3.46667 20.5699C5.47395 22.2902 8.47012 23.3984 11.6654 23.9463L12.0034 21.975C8.98906 21.4582 6.39182 20.4429 4.76815 19.0513L3.46667 20.5699ZM8.53698 8.74944C9.67899 8.74944 10.785 9.1277 11.6965 9.69772C12.6199 10.2752 13.265 10.9993 13.5474 11.6022L15.3585 10.7537C14.8741 9.71976 13.9203 8.72957 12.757 8.00202C11.5817 7.26701 10.1131 6.74944 8.53698 6.74944V8.74944Z" fill="#111827"/>
</svg>
