<svg width="32" height="32" viewBox="0 0 32 32" fill="none" xmlns="http://www.w3.org/2000/svg">
<g clip-path="url(#clip0_217_2694)">
<path d="M5.81853 20.852C5.18694 20.5004 4.61528 20.1109 4.11741 19.6842C2.7135 18.481 1.8546 16.7803 1.72968 14.9563C1.60475 13.1322 2.22404 11.3342 3.45131 9.95783C4.05896 9.2763 4.79762 8.71879 5.62507 8.31714C6.4525 7.9155 7.35254 7.67756 8.27378 7.61692C8.36939 7.61895 8.46358 7.59415 8.54527 7.5454C8.62696 7.49664 8.69272 7.42601 8.73476 7.34181C9.37028 5.53602 10.618 3.99842 12.2699 2.9854C13.9218 1.97239 15.878 1.54519 17.8123 1.77505C19.7466 2.00491 21.5421 2.87794 22.8992 4.24855C24.2565 5.61916 25.0933 7.40448 25.2704 9.30681C25.2853 9.407 25.329 9.50092 25.3964 9.57751C25.4638 9.6541 25.5523 9.71017 25.6512 9.73913C27.0835 10.0699 28.3422 10.9041 29.1893 12.0838C30.0362 13.2634 30.4126 14.7066 30.2471 16.14C30.0816 17.5735 29.3859 18.8977 28.2912 19.8619C27.6055 20.466 26.7831 20.9867 25.8592 21.4256M7.94601 7.62284C10.6642 7.62284 13.0952 9.41449 13.862 11.0513M20.571 21.1429L11.4285 30.2856M11.4282 21.1429L20.5707 30.2856" stroke="#111827" stroke-width="2" stroke-linecap="round" stroke-linejoin="round"/>
</g>
<defs>
<clipPath id="clip0_217_2694">
<rect width="32" height="32" fill="white"/>
</clipPath>
</defs>
</svg>
