<svg width="32" height="32" viewBox="0 0 32 32" fill="none" xmlns="http://www.w3.org/2000/svg">
<g clip-path="url(#clip0_217_550)">
<path d="M14.0795 19.169C14.6279 19.2344 15.1255 18.8428 15.1908 18.2944C15.2562 17.746 14.8646 17.2484 14.3162 17.1831L14.0795 19.169ZM3.12162 20.8086L2.56729 19.9763L2.56728 19.9763L3.12162 20.8086ZM11.4546 27.4796C12.0069 27.4796 12.4546 27.0319 12.4546 26.4796C12.4546 25.9273 12.0069 25.4796 11.4546 25.4796V27.4796ZM27.0247 22.3304C27.0247 22.8827 27.4724 23.3304 28.0247 23.3304C28.577 23.3304 29.0247 22.8827 29.0247 22.3304H27.0247ZM27.7477 19.0955L26.8237 19.4778L26.8239 19.4783L27.7477 19.0955ZM26.9594 17.9154L27.6666 17.2084L27.6664 17.2082L26.9594 17.9154ZM25.7792 17.1269L25.3966 18.0507L25.3966 18.0508L25.7792 17.1269ZM22.995 17.1269L22.6123 16.203L22.6123 16.203L22.995 17.1269ZM21.0265 19.0955L21.9504 19.4782L21.9504 19.4781L21.0265 19.0955ZM19.7496 22.3304C19.7496 22.8827 20.1973 23.3304 20.7496 23.3304C21.3019 23.3304 21.7496 22.8827 21.7496 22.3304H19.7496ZM18.5439 29.3022L19.5307 29.1404L19.5307 29.1404L18.5439 29.3022ZM19.6235 30.297L19.5478 31.2941L19.5482 31.2941L19.6235 30.297ZM29.1511 30.297L29.2264 31.2941L29.2269 31.2941L29.1511 30.297ZM30.2307 29.3022L29.2439 29.1404L29.2438 29.1408L30.2307 29.3022ZM30.2307 23.4126L29.2438 23.5742L29.2439 23.5745L30.2307 23.4126ZM29.1511 22.4182L29.2265 21.421H29.2265L29.1511 22.4182ZM19.6235 22.4182L19.5481 21.421H19.5481L19.6235 22.4182ZM18.5439 23.4126L17.5571 23.2508L17.5571 23.2508L18.5439 23.4126ZM12.2334 14.6017C16.0683 14.6017 19.1771 11.4929 19.1771 7.65804H17.1771C17.1771 10.3883 14.9638 12.6017 12.2334 12.6017V14.6017ZM19.1771 7.65804C19.1771 3.82315 16.0683 0.714355 12.2334 0.714355V2.71436C14.9638 2.71436 17.1771 4.92771 17.1771 7.65804H19.1771ZM12.2334 0.714355C8.39855 0.714355 5.28976 3.82315 5.28976 7.65804H7.28976C7.28976 4.92771 9.50312 2.71436 12.2334 2.71436V0.714355ZM5.28976 7.65804C5.28976 11.4929 8.39855 14.6017 12.2334 14.6017V12.6017C9.50311 12.6017 7.28976 10.3883 7.28976 7.65804H5.28976ZM14.3162 17.1831C13.6317 17.1014 12.9353 17.0595 12.2296 17.0595V19.0595C12.856 19.0595 13.4733 19.0967 14.0795 19.169L14.3162 17.1831ZM12.2296 17.0595C8.65798 17.0595 5.33422 18.1335 2.56729 19.9763L3.67595 21.6409C6.1247 20.01 9.06461 19.0595 12.2296 19.0595V17.0595ZM2.56728 19.9763C1.66792 20.5753 1.07988 21.3617 0.837562 22.2478C0.596779 23.1283 0.720463 24.0235 1.09432 24.8028C1.83711 26.3511 3.56887 27.4796 5.67062 27.4796V25.4796C4.27922 25.4796 3.28281 24.7408 2.89755 23.9377C2.70739 23.5413 2.66708 23.1398 2.76672 22.7754C2.86483 22.4167 3.12165 22.0101 3.67596 21.6409L2.56728 19.9763ZM5.67062 27.4796H11.4546V25.4796H5.67062V27.4796ZM29.0247 22.3304V20.4875H27.0247V22.3304H29.0247ZM29.0247 20.4875C29.0247 19.8784 28.9046 19.2753 28.6715 18.7127L26.8239 19.4783C26.9565 19.7983 27.0247 20.1413 27.0247 20.4875H29.0247ZM28.6717 18.7131C28.4387 18.15 28.0968 17.6388 27.6666 17.2084L26.2521 18.6223C26.4971 18.8675 26.6914 19.1583 26.8237 19.4778L28.6717 18.7131ZM27.6664 17.2082C27.2358 16.7777 26.7247 16.436 26.1619 16.203L25.3966 18.0508C25.7165 18.1833 26.0072 18.3775 26.2523 18.6225L27.6664 17.2082ZM26.1619 16.203C25.5992 15.9699 24.996 15.85 24.3872 15.85V17.85C24.7334 17.85 25.0765 17.9182 25.3966 18.0507L26.1619 16.203ZM24.3872 15.85C23.7782 15.85 23.1751 15.9699 22.6123 16.203L23.3777 18.0507C23.6977 17.9182 24.0408 17.85 24.3872 17.85V15.85ZM22.6123 16.203C22.0497 16.436 21.5385 16.7777 21.1079 17.2083L22.5221 18.6225C22.767 18.3775 23.0578 18.1833 23.3777 18.0507L22.6123 16.203ZM21.1079 17.2083C20.6773 17.6389 20.3356 18.1501 20.1026 18.7128L21.9504 19.4781C22.0829 19.1582 22.2772 18.8674 22.5221 18.6225L21.1079 17.2083ZM20.1026 18.7128C19.8695 19.2754 19.7496 19.8785 19.7496 20.4875H21.7496C21.7496 20.1412 21.8178 19.7982 21.9504 19.4782L20.1026 18.7128ZM19.7496 20.4875V22.3304H21.7496V20.4875H19.7496ZM17.5571 29.4641C17.7192 30.4527 18.5372 31.2174 19.5478 31.2941L19.6992 29.2999C19.6204 29.2939 19.5455 29.2302 19.5307 29.1404L17.5571 29.4641ZM19.5482 31.2941C21.0474 31.4073 22.6962 31.5644 24.3872 31.5644V29.5644C22.7936 29.5644 21.2511 29.417 19.6988 29.2998L19.5482 31.2941ZM24.3872 31.5644C26.0784 31.5644 27.7272 31.4073 29.2264 31.2941L29.0758 29.2998C27.5236 29.417 25.9811 29.5644 24.3872 29.5644V31.5644ZM29.2269 31.2941C30.2372 31.2174 31.0557 30.4529 31.2175 29.4637L29.2438 29.1408C29.2292 29.23 29.1544 29.2939 29.0754 29.2999L29.2269 31.2941ZM31.2175 29.4641C31.369 28.54 31.5591 27.4674 31.5591 26.3576H29.5591C29.5591 27.2711 29.4031 28.1691 29.2439 29.1404L31.2175 29.4641ZM31.5591 26.3576C31.5591 25.2478 31.369 24.1749 31.2175 23.2508L29.2439 23.5745C29.4031 24.5457 29.5591 25.444 29.5591 26.3576H31.5591ZM31.2175 23.2511C31.0557 22.2623 30.2372 21.4975 29.2265 21.421L29.0757 23.4153C29.1544 23.4213 29.2292 23.485 29.2438 23.5742L31.2175 23.2511ZM29.2265 21.421C27.7271 21.3077 26.0785 21.1507 24.3872 21.1507V23.1507C25.981 23.1507 27.5237 23.298 29.0757 23.4153L29.2265 21.421ZM24.3872 21.1507C22.6962 21.1507 21.0475 21.3077 19.5481 21.421L19.6989 23.4153C21.251 23.298 22.7936 23.1507 24.3872 23.1507V21.1507ZM19.5481 21.421C18.5372 21.4975 17.7192 22.2625 17.5571 23.2508L19.5307 23.5745C19.5454 23.4849 19.6204 23.4213 19.6989 23.4153L19.5481 21.421ZM17.5571 23.2508C17.4056 24.1749 17.2155 25.2478 17.2155 26.3576H19.2155C19.2155 25.444 19.3715 24.5457 19.5307 23.5745L17.5571 23.2508ZM17.2155 26.3576C17.2155 27.4673 17.4056 28.54 17.5571 29.4641L19.5307 29.1404C19.3715 28.1692 19.2155 27.2711 19.2155 26.3576H17.2155Z" fill="#111827"/>
</g>
<defs>
<clipPath id="clip0_217_550">
<rect width="32" height="32" fill="white"/>
</clipPath>
</defs>
</svg>
