<svg width="32" height="32" viewBox="0 0 32 32" fill="none" xmlns="http://www.w3.org/2000/svg">
<path d="M13.8668 19.1451C14.416 19.203 14.9081 18.8046 14.966 18.2553C15.0238 17.7061 14.6254 17.2139 14.0761 17.1561L13.8668 19.1451ZM3.12162 20.8086L2.56729 19.9763L2.56729 19.9763L3.12162 20.8086ZM12.2296 27.4796C12.7819 27.4796 13.2296 27.0319 13.2296 26.4796C13.2296 25.9273 12.7819 25.4796 12.2296 25.4796V27.4796ZM26.0766 23.9798L25.2441 23.4259L25.2441 23.4259L26.0766 23.9798ZM23.375 25.1118L23.564 24.1298L23.564 24.1298L23.375 25.1118ZM22.0204 24.4003L21.3192 25.1132L21.3192 25.1132L22.0204 24.4003ZM21.4192 21.5334L20.4907 21.1623L20.4907 21.1623L21.4192 21.5334ZM22.3738 20.3377L21.8062 19.5144L21.8062 19.5144L22.3738 20.3377ZM23.8308 19.8707L23.8142 18.8709H23.8141L23.8308 19.8707ZM24.8564 20.0593L24.4852 20.9878L24.4853 20.9878L24.8564 20.0593ZM25.7293 20.6295L26.4306 19.9166L26.4306 19.9166L25.7293 20.6295ZM26.314 21.493L27.2363 21.1065L27.2363 21.1065L26.314 21.493ZM26.5194 23.6617L25.5194 23.6616V23.6617H26.5194ZM28.8113 19.6596L27.9483 20.1649C27.9508 20.1691 27.9533 20.1733 27.9559 20.1775L28.8113 19.6596ZM26.7015 17.5633L27.2013 16.6971L27.2013 16.6971L26.7015 17.5633ZM23.8308 16.7859L23.8363 15.7859L23.8277 15.7859L23.8308 16.7859ZM21.3833 17.3433L21.8135 18.246L21.3833 17.3433ZM19.409 18.8933L20.1838 19.5255L20.1838 19.5255L19.409 18.8933ZM18.2866 21.1385L17.3159 20.8982V20.8982L18.2866 21.1385ZM18.2316 23.648L17.2514 23.8456L17.2514 23.8457L18.2316 23.648ZM19.2546 25.9402L20.0564 25.3426L20.0563 25.3425L19.2546 25.9402ZM21.1592 27.5752L20.6898 28.4582L20.6899 28.4583L21.1592 27.5752ZM26.4367 28.7279C26.9466 28.5155 27.1877 27.93 26.9753 27.4202C26.7629 26.9104 26.1774 26.6693 25.6676 26.8817L26.4367 28.7279ZM12.2334 14.6017C16.0683 14.6017 19.1771 11.4929 19.1771 7.65804H17.1771C17.1771 10.3883 14.9638 12.6017 12.2334 12.6017V14.6017ZM19.1771 7.65804C19.1771 3.82315 16.0683 0.714355 12.2334 0.714355V2.71436C14.9638 2.71436 17.1771 4.92771 17.1771 7.65804H19.1771ZM12.2334 0.714355C8.39855 0.714355 5.28976 3.82314 5.28976 7.65804H7.28976C7.28976 4.92771 9.50312 2.71436 12.2334 2.71436V0.714355ZM5.28976 7.65804C5.28976 11.4929 8.39855 14.6017 12.2334 14.6017V12.6017C9.50311 12.6017 7.28976 10.3883 7.28976 7.65804H5.28976ZM14.0761 17.1561C13.469 17.0922 12.8529 17.0595 12.2296 17.0595V19.0595C12.7829 19.0595 13.3291 19.0885 13.8668 19.1451L14.0761 17.1561ZM12.2296 17.0595C8.65798 17.0595 5.33422 18.1335 2.56729 19.9763L3.67595 21.6409C6.1247 20.01 9.06461 19.0595 12.2296 19.0595V17.0595ZM2.56729 19.9763C1.66793 20.5753 1.07989 21.3617 0.837562 22.2478C0.596779 23.1283 0.720464 24.0235 1.09432 24.8028C1.83711 26.3511 3.56887 27.4796 5.67063 27.4796V25.4796C4.27922 25.4796 3.28281 24.7408 2.89755 23.9377C2.70739 23.5413 2.66708 23.1398 2.76672 22.7754C2.86483 22.4167 3.12164 22.0101 3.67595 21.6409L2.56729 19.9763ZM5.67063 27.4796H12.2296V25.4796H5.67063V27.4796ZM25.5194 22.5151C25.5194 22.8392 25.4236 23.1561 25.2441 23.4259L26.9092 24.5338C27.307 23.9358 27.5193 23.2336 27.5194 22.5154L25.5194 22.5151ZM25.2441 23.4259C25.0645 23.6957 24.8093 23.9065 24.5104 24.0317L25.2833 25.8763C25.9457 25.5988 26.5113 25.1317 26.9092 24.5338L25.2441 23.4259ZM24.5104 24.0317C24.2115 24.1569 23.8822 24.1911 23.564 24.1298L23.1859 26.0937C23.8912 26.2295 24.6208 26.1539 25.2833 25.8763L24.5104 24.0317ZM23.564 24.1298C23.2458 24.0685 22.9527 23.9146 22.7217 23.6873L21.3192 25.1132C21.8312 25.6168 22.4807 25.958 23.1859 26.0937L23.564 24.1298ZM22.7217 23.6873C22.4906 23.4601 22.3319 23.1696 22.2654 22.8524L20.3079 23.2629C20.4554 23.9659 20.8072 24.6096 21.3192 25.1132L22.7217 23.6873ZM22.2654 22.8524C22.1989 22.5353 22.2275 22.2055 22.3478 21.9045L20.4907 21.1623C20.2241 21.8292 20.1605 22.56 20.3079 23.2629L22.2654 22.8524ZM22.3478 21.9046C22.4681 21.6036 22.6746 21.3449 22.9414 21.161L21.8062 19.5144C21.2149 19.9221 20.7572 20.4954 20.4907 21.1623L22.3478 21.9046ZM22.9414 21.161C23.2082 20.977 23.5234 20.876 23.8475 20.8706L23.8141 18.8709C23.096 18.8829 22.3975 19.1067 21.8062 19.5144L22.9414 21.161ZM23.8475 20.8706C24.0657 20.867 24.2825 20.9068 24.4852 20.9878L25.2275 19.1307C24.7783 18.9511 24.2978 18.8628 23.8142 18.8709L23.8475 20.8706ZM24.4853 20.9878C24.6879 21.0688 24.8725 21.1894 25.0281 21.3425L26.4306 19.9166C26.0857 19.5774 25.6767 19.3102 25.2275 19.1307L24.4853 20.9878ZM25.0281 21.3425C25.1837 21.4955 25.3073 21.6781 25.3917 21.8794L27.2363 21.1065C27.0494 20.6603 26.7755 20.2559 26.4306 19.9166L25.0281 21.3425ZM25.3917 21.8794C25.476 22.0807 25.5195 22.2968 25.5194 22.5151L27.5194 22.5154C27.5195 22.0317 27.4233 21.5527 27.2363 21.1065L25.3917 21.8794ZM25.5194 22.5152L25.5194 23.6616L27.5194 23.6617L27.5194 22.5153L25.5194 22.5152ZM25.5194 23.6617C25.5194 24.1669 25.6171 24.6561 25.8691 25.0671C26.1337 25.4986 26.5361 25.7869 27.0078 25.8961C27.8872 26.0996 28.7428 25.6496 29.3104 25.0989C30.5461 23.8999 31.1642 21.6149 29.6667 19.1417L27.9559 20.1775C28.9883 21.8827 28.4604 23.1369 27.9177 23.6635C27.5961 23.9756 27.4043 23.935 27.4587 23.9476C27.4794 23.9524 27.5073 23.9634 27.5346 23.9831C27.5473 23.9924 27.5572 24.0016 27.5642 24.0093C27.5712 24.017 27.5742 24.0217 27.5741 24.0216C27.5723 24.0187 27.5194 23.9255 27.5194 23.6617H25.5194ZM29.6742 19.1543C29.0771 18.1345 28.2248 17.2877 27.2013 16.6971L26.2017 18.4294C26.9247 18.8466 27.5266 19.4447 27.9483 20.1649L29.6742 19.1543ZM27.2013 16.6971C26.1777 16.1065 25.0181 15.7925 23.8363 15.7859L23.8252 17.7859C24.6598 17.7905 25.4788 18.0123 26.2018 18.4294L27.2013 16.6971ZM23.8277 15.7859C22.8329 15.789 21.8511 16.0125 20.9531 16.4405L21.8135 18.246C22.4447 17.9452 23.1347 17.788 23.8338 17.7859L23.8277 15.7859ZM20.9531 16.4405C20.055 16.8685 19.2631 17.4903 18.6341 18.2611L20.1838 19.5255C20.6258 18.9838 21.1824 18.5468 21.8135 18.246L20.9531 16.4405ZM18.6341 18.2611C18.0052 19.0319 17.555 19.9325 17.3159 20.8982L19.2573 21.3789C19.4253 20.7002 19.7417 20.0672 20.1838 19.5255L18.6341 18.2611ZM17.3159 20.8982C17.0768 21.8638 17.0548 22.8705 17.2514 23.8456L19.2119 23.4504C19.0737 22.765 19.0892 22.0575 19.2573 21.3789L17.3159 20.8982ZM17.2514 23.8457C17.448 24.8208 17.8583 25.7403 18.4529 26.5379L20.0563 25.3425C19.6385 24.782 19.3501 24.1358 19.2119 23.4504L17.2514 23.8457ZM18.4528 26.5378C19.0475 27.3355 19.8115 27.9913 20.6898 28.4582L21.6286 26.6923C21.0112 26.364 20.4742 25.9031 20.0564 25.3426L18.4528 26.5378ZM20.6899 28.4583C21.5684 28.9252 22.5394 29.1915 23.5331 29.2381L23.6268 27.2403C22.9284 27.2075 22.2459 27.0203 21.6286 26.6922L20.6899 28.4583ZM23.5331 29.2381C24.5268 29.2847 25.5184 29.1105 26.4367 28.7279L25.6676 26.8817C25.0222 27.1506 24.3252 27.273 23.6268 27.2403L23.5331 29.2381Z" fill="#111827"/>
</svg>
