<svg width="32" height="32" viewBox="0 0 32 32" fill="none" xmlns="http://www.w3.org/2000/svg">
<path d="M19.4092 25.9062C19.1893 25.9393 18.9672 25.956 18.7448 25.9561H6.28294C2.965 25.9561 1.09974 22.4059 3.8618 20.5688C6.42382 18.8601 9.43537 17.9502 12.5149 17.9544C14.3324 17.9544 16.0761 18.2649 17.7003 18.836M23.7629 20.7643C23.7999 19.8284 24.4035 17.9523 26.5207 17.9523C29.1633 17.9523 29.3631 20.2713 29.3869 20.7643C29.3869 22.6273 26.4989 22.788 26.6401 24.5643M26.5163 29.0635V29.4413M12.4216 13.7201C16.037 13.7201 18.0673 11.6899 18.0673 8.07443C18.0673 4.46117 16.037 2.42871 12.4216 2.42871C8.80831 2.42871 6.77586 4.46117 6.77586 8.07443C6.77586 11.6899 8.80831 13.7201 12.4216 13.7201Z" stroke="#111827" stroke-width="2" stroke-linecap="round" stroke-linejoin="round"/>
</svg>
