<svg width="32" height="32" viewBox="0 0 32 32" fill="none" xmlns="http://www.w3.org/2000/svg">
<g clip-path="url(#clip0_217_551)">
<path d="M28.6815 24.2145L28.1261 25.0461L28.1262 25.0461L28.6815 24.2145ZM3.31854 24.2145L3.8739 25.0461L3.87394 25.0461L3.31854 24.2145ZM16.0001 17.0001C20.4973 17.0001 24.143 13.3544 24.143 8.85721H22.143C22.143 12.2498 19.3927 15.0001 16.0001 15.0001V17.0001ZM24.143 8.85721C24.143 4.36004 20.4973 0.714355 16.0001 0.714355V2.71436C19.3927 2.71436 22.143 5.46461 22.143 8.85721H24.143ZM16.0001 0.714355C11.503 0.714355 7.85728 4.36004 7.85728 8.85721H9.85728C9.85728 5.46461 12.6075 2.71436 16.0001 2.71436V0.714355ZM7.85728 8.85721C7.85728 13.3544 11.503 17.0001 16.0001 17.0001V15.0001C12.6075 15.0001 9.85728 12.2498 9.85728 8.85721H7.85728ZM28.1262 25.0461C28.7197 25.4424 29.0142 25.8919 29.1341 26.3048C29.2555 26.723 29.2189 27.1764 29.0259 27.6131C28.638 28.491 27.6107 29.286 26.1405 29.286V31.286C28.3532 31.286 30.1278 30.0679 30.8553 28.4214C31.2201 27.5958 31.3195 26.6591 31.0548 25.7472C30.7885 24.8299 30.1747 24.0091 29.2369 23.3829L28.1262 25.0461ZM26.1405 29.286H5.85952V31.286H26.1405V29.286ZM5.85952 29.286C4.38939 29.286 3.36213 28.491 2.97419 27.6131C2.78124 27.1764 2.74458 26.723 2.866 26.3048C2.98585 25.8919 3.28041 25.4424 3.8739 25.0461L2.76318 23.3829C1.82537 24.0091 1.21156 24.8299 0.945284 25.7472C0.680578 26.6591 0.78005 27.5958 1.14482 28.4214C1.87233 30.0679 3.64686 31.286 5.85952 31.286V29.286ZM3.87394 25.0461C7.34355 22.7288 11.5125 21.3779 16 21.3779V19.3779C11.105 19.3779 6.55136 20.8528 2.76315 23.3829L3.87394 25.0461ZM16 21.3779C20.4875 21.3779 24.6564 22.7288 28.1261 25.0461L29.2369 23.3829C25.4486 20.8528 20.8951 19.3779 16 19.3779V21.3779Z" fill="#111827"/>
</g>
<defs>
<clipPath id="clip0_217_551">
<rect width="32" height="32" fill="white"/>
</clipPath>
</defs>
</svg>
