<svg width="32" height="32" viewBox="0 0 32 32" fill="none" xmlns="http://www.w3.org/2000/svg">
<g clip-path="url(#clip0_217_549)">
<path d="M18.0538 20.1945C18.5653 20.4028 19.1488 20.1571 19.3571 19.6456C19.5654 19.1341 19.3197 18.5506 18.8082 18.3422L18.0538 20.1945ZM3.12162 20.8086L2.56729 19.9763L2.56729 19.9763L3.12162 20.8086ZM12.2296 27.4796C12.7819 27.4796 13.2296 27.0319 13.2296 26.4796C13.2296 25.9273 12.7819 25.4796 12.2296 25.4796V27.4796ZM25.571 18.8572C25.571 18.3049 25.1233 17.8572 24.571 17.8572C24.0187 17.8572 23.571 18.3049 23.571 18.8572H25.571ZM23.571 30.2858C23.571 30.8381 24.0187 31.2858 24.571 31.2858C25.1233 31.2858 25.571 30.8381 25.571 30.2858H23.571ZM18.8567 23.5715C18.3044 23.5715 17.8567 24.0192 17.8567 24.5715C17.8567 25.1238 18.3044 25.5715 18.8567 25.5715V23.5715ZM30.2853 25.5715C30.8376 25.5715 31.2853 25.1238 31.2853 24.5715C31.2853 24.0192 30.8376 23.5715 30.2853 23.5715V25.5715ZM12.2334 14.6017C16.0683 14.6017 19.1771 11.4929 19.1771 7.65804H17.1771C17.1771 10.3883 14.9638 12.6017 12.2334 12.6017V14.6017ZM19.1771 7.65804C19.1771 3.82315 16.0683 0.714355 12.2334 0.714355V2.71436C14.9638 2.71436 17.1771 4.92771 17.1771 7.65804H19.1771ZM12.2334 0.714355C8.39855 0.714355 5.28976 3.82315 5.28976 7.65804H7.28976C7.28976 4.92771 9.50312 2.71436 12.2334 2.71436V0.714355ZM5.28976 7.65804C5.28976 11.4929 8.39855 14.6017 12.2334 14.6017V12.6017C9.50311 12.6017 7.28976 10.3883 7.28976 7.65804H5.28976ZM18.8082 18.3422C16.7766 17.5149 14.555 17.0595 12.2296 17.0595V19.0595C14.292 19.0595 16.2577 19.463 18.0538 20.1945L18.8082 18.3422ZM12.2296 17.0595C8.65798 17.0595 5.33422 18.1335 2.56729 19.9763L3.67595 21.6409C6.1247 20.01 9.06461 19.0595 12.2296 19.0595V17.0595ZM2.56729 19.9763C1.66793 20.5753 1.07989 21.3617 0.837562 22.2478C0.596779 23.1283 0.720464 24.0235 1.09432 24.8028C1.83711 26.3511 3.56887 27.4796 5.67063 27.4796V25.4796C4.27922 25.4796 3.28281 24.7408 2.89755 23.9377C2.70739 23.5413 2.66708 23.1398 2.76672 22.7754C2.86483 22.4167 3.12164 22.0101 3.67595 21.6409L2.56729 19.9763ZM5.67063 27.4796H12.2296V25.4796H5.67063V27.4796ZM23.571 18.8572V30.2858H25.571V18.8572H23.571ZM18.8567 25.5715H30.2853V23.5715H18.8567V25.5715Z" fill="#111827"/>
</g>
<defs>
<clipPath id="clip0_217_549">
<rect width="32" height="32" fill="white"/>
</clipPath>
</defs>
</svg>
