<svg width="32" height="32" viewBox="0 0 32 32" fill="none" xmlns="http://www.w3.org/2000/svg">
<g clip-path="url(#clip0_217_548)">
<path d="M13.8668 19.1451C14.416 19.203 14.9081 18.8046 14.966 18.2553C15.0238 17.7061 14.6254 17.2139 14.0761 17.1561L13.8668 19.1451ZM3.12162 20.8086L2.56729 19.9763L2.56729 19.9763L3.12162 20.8086ZM12.2296 27.4796C12.7819 27.4796 13.2296 27.0319 13.2296 26.4796C13.2296 25.9273 12.7819 25.4796 12.2296 25.4796V27.4796ZM27.9019 29.3168C28.2924 29.7073 28.9255 29.7073 29.3161 29.3168C29.7066 28.9262 29.7066 28.2931 29.3161 27.9026L27.9019 29.3168ZM21.2399 19.8264C20.8494 19.4359 20.2162 19.4359 19.8257 19.8265C19.4351 20.217 19.4351 20.8501 19.8257 21.2407L21.2399 19.8264ZM12.2334 14.6017C16.0683 14.6017 19.1771 11.4929 19.1771 7.65804H17.1771C17.1771 10.3883 14.9638 12.6017 12.2334 12.6017V14.6017ZM19.1771 7.65804C19.1771 3.82315 16.0683 0.714355 12.2334 0.714355V2.71436C14.9638 2.71436 17.1771 4.92771 17.1771 7.65804H19.1771ZM12.2334 0.714355C8.39855 0.714355 5.28976 3.82315 5.28976 7.65804H7.28976C7.28976 4.92771 9.50312 2.71436 12.2334 2.71436V0.714355ZM5.28976 7.65804C5.28976 11.4929 8.39855 14.6017 12.2334 14.6017V12.6017C9.50311 12.6017 7.28976 10.3883 7.28976 7.65804H5.28976ZM14.0761 17.1561C13.469 17.0922 12.8529 17.0595 12.2296 17.0595V19.0595C12.7829 19.0595 13.3291 19.0885 13.8668 19.1451L14.0761 17.1561ZM12.2296 17.0595C8.65798 17.0595 5.33422 18.1335 2.56729 19.9763L3.67595 21.6409C6.1247 20.01 9.06461 19.0595 12.2296 19.0595V17.0595ZM2.56729 19.9763C1.66793 20.5753 1.07989 21.3617 0.837562 22.2478C0.596779 23.1283 0.720464 24.0235 1.09432 24.8028C1.83711 26.3511 3.56887 27.4796 5.67062 27.4796V25.4796C4.27922 25.4796 3.28281 24.7408 2.89755 23.9377C2.70739 23.5413 2.66708 23.1398 2.76672 22.7754C2.86483 22.4167 3.12164 22.0101 3.67595 21.6409L2.56729 19.9763ZM5.67062 27.4796H12.2296V25.4796H5.67062V27.4796ZM24.571 29.2858C21.9674 29.2858 19.8567 27.1751 19.8567 24.5715H17.8567C17.8567 28.2797 20.8628 31.2858 24.571 31.2858V29.2858ZM19.8567 24.5715C19.8567 21.9679 21.9674 19.8572 24.571 19.8572V17.8572C20.8628 17.8572 17.8567 20.8633 17.8567 24.5715H19.8567ZM24.571 19.8572C27.1746 19.8572 29.2853 21.9679 29.2853 24.5715H31.2853C31.2853 20.8633 28.2792 17.8572 24.571 17.8572V19.8572ZM29.2853 24.5715C29.2853 27.1751 27.1746 29.2858 24.571 29.2858V31.2858C28.2792 31.2858 31.2853 28.2797 31.2853 24.5715H29.2853ZM29.3161 27.9026L21.2399 19.8264L19.8257 21.2407L27.9019 29.3168L29.3161 27.9026Z" fill="#111827"/>
</g>
<defs>
<clipPath id="clip0_217_548">
<rect width="32" height="32" fill="white"/>
</clipPath>
</defs>
</svg>
