<svg width="32" height="32" viewBox="0 0 32 32" fill="none" xmlns="http://www.w3.org/2000/svg">
<path d="M11.3722 29.8772H10.3722C10.3722 30.3175 10.6602 30.706 11.0815 30.834L11.3722 29.8772ZM20.6279 29.8772L20.878 30.8454C21.3195 30.7314 21.6279 30.3332 21.6279 29.8772H20.6279ZM4.72638 21.7477L5.7222 21.6563L5.7222 21.6563L4.72638 21.7477ZM6.81093 23.7798L6.74438 24.7776L6.74446 24.7776L6.81093 23.7798ZM25.1897 23.7798L25.2561 24.7776L25.2562 24.7776L25.1897 23.7798ZM27.2742 21.7477L28.2701 21.8392L28.2701 21.8392L27.2742 21.7477ZM24.6146 30.9506C25.1669 30.9506 25.6146 30.5028 25.6146 29.9506C25.6146 29.3983 25.1669 28.9506 24.6146 28.9506V30.9506ZM7.38625 28.9506C6.83396 28.9506 6.38625 29.3983 6.38625 29.9506C6.38625 30.5028 6.83396 30.9506 7.38625 30.9506V28.9506ZM29.8848 9.95762L29.7629 10.9502C30.0472 10.9851 30.3328 10.8964 30.5474 10.7066C30.7619 10.5168 30.8848 10.2441 30.8848 9.95762H29.8848ZM26.2555 3.01568L25.3671 3.47467L25.3671 3.47482L26.2555 3.01568ZM25.0507 2.1663L25.0963 1.16735L25.0963 1.16735L25.0507 2.1663ZM6.94949 2.1663L6.90388 1.16735L6.90388 1.16735L6.94949 2.1663ZM5.74472 3.01568L4.85633 2.55658L4.85633 2.55658L5.74472 3.01568ZM2.11551 9.95762H1.11551C1.11551 10.2384 1.23352 10.5062 1.44071 10.6956C1.6479 10.8851 1.92518 10.9787 2.2048 10.9536L2.11551 9.95762ZM10.9187 23.9274C10.8674 24.4994 10.7331 25.8033 10.6094 27.0603C10.4906 28.2684 10.3722 29.5176 10.3722 29.8772H12.3722C12.3722 29.6455 12.4733 28.5419 12.5998 27.2562C12.7215 26.0196 12.8585 24.6888 12.9107 24.1058L10.9187 23.9274ZM11.0815 30.834C11.19 30.867 11.2925 30.8774 11.3148 30.8799C11.3615 30.8851 11.4113 30.8891 11.4588 30.8922C11.5549 30.8986 11.6758 30.9041 11.8127 30.9088C12.0883 30.9183 12.4583 30.9261 12.8874 30.9323C13.7472 30.9446 14.8637 30.9507 15.9797 30.9506C17.0957 30.9506 18.2156 30.9444 19.082 30.9321C19.5145 30.9259 19.8885 30.9182 20.1688 30.9087C20.3082 30.9039 20.431 30.8986 20.5291 30.8923C20.5831 30.8888 20.7434 30.8802 20.878 30.8454L20.3779 28.9089C20.4652 28.8864 20.5144 28.8892 20.4014 28.8964C20.3325 28.9008 20.2324 28.9054 20.1011 28.9098C19.8401 28.9186 19.4812 28.9262 19.0535 28.9323C18.1996 28.9444 17.0899 28.9506 15.9796 28.9506C14.8693 28.9507 13.763 28.9446 12.9161 28.9325C12.4918 28.9264 12.1375 28.9188 11.8819 28.91C11.7532 28.9055 11.6567 28.901 11.5919 28.8967C11.5588 28.8945 11.5421 28.8928 11.5375 28.8923C11.5084 28.8891 11.5746 28.8935 11.6629 28.9204L11.0815 30.834ZM21.6279 29.8772C21.6279 29.5176 21.5095 28.2684 21.3907 27.0603C21.267 25.8033 21.1327 24.4994 21.0815 23.9274L19.0894 24.1058C19.1417 24.6888 19.2786 26.0196 19.4003 27.2562C19.5268 28.5419 19.6279 29.6455 19.6279 29.8772H21.6279ZM3.41063 14.0528C3.35061 16.5391 3.45863 18.8774 3.73057 21.8392L5.7222 21.6563C5.45507 18.747 5.3524 16.4892 5.41005 14.1011L3.41063 14.0528ZM3.73057 21.8392C3.87634 23.427 5.1547 24.6716 6.74438 24.7776L6.87749 22.782C6.26726 22.7413 5.77798 22.264 5.7222 21.6563L3.73057 21.8392ZM6.74446 24.7776C13.0644 25.1986 18.9362 25.1986 25.2561 24.7776L25.1232 22.782C18.8918 23.1971 13.1088 23.1971 6.8774 22.782L6.74446 24.7776ZM25.2562 24.7776C26.8458 24.6716 28.1243 23.4271 28.2701 21.8392L26.2784 21.6563C26.2226 22.264 25.7333 22.7413 25.1231 22.782L25.2562 24.7776ZM28.2701 21.8392C28.5413 18.8846 28.6495 16.5504 28.5903 14.0707L26.5909 14.1185C26.6478 16.5001 26.5448 18.7539 26.2784 21.6563L28.2701 21.8392ZM24.6146 28.9506H7.38625V30.9506H24.6146V28.9506ZM10.3713 10.0829C10.3713 12.0869 8.74672 13.7114 6.74275 13.7114V15.7114C9.85128 15.7114 12.3713 13.1915 12.3713 10.0829H10.3713ZM6.74275 13.7114C4.73878 13.7114 3.11426 12.0869 3.11426 10.0829H1.11426C1.11426 13.1915 3.63422 15.7114 6.74275 15.7114V13.7114ZM19.628 10.0829C19.628 12.0869 18.0034 13.7114 15.9995 13.7114V15.7114C19.108 15.7114 21.628 13.1915 21.628 10.0829H19.628ZM15.9995 13.7114C13.9956 13.7114 12.3713 12.087 12.3713 10.0829H10.3713C10.3713 13.1914 12.8908 15.7114 15.9995 15.7114V13.7114ZM28.8848 10.0829C28.8848 12.0869 27.2601 13.7114 25.2562 13.7114V15.7114C28.3645 15.7114 30.8848 13.1915 30.8848 10.0829H28.8848ZM25.2562 13.7114C23.2523 13.7114 21.628 12.087 21.628 10.0829H19.628C19.628 13.1914 22.1475 15.7114 25.2562 15.7114V13.7114ZM30.8848 9.95762C30.8848 9.77779 30.8453 9.61655 30.8172 9.51677C30.785 9.40258 30.743 9.2854 30.6985 9.17281C30.6093 8.94722 30.488 8.68484 30.3506 8.40635C30.0746 7.84686 29.7018 7.15825 29.3074 6.44794C28.5034 4.99996 27.6194 3.47661 27.1439 2.55654L25.3671 3.47482C25.8596 4.42769 26.7902 6.03447 27.5589 7.41881C27.9508 8.12466 28.3037 8.77776 28.557 9.29114C28.6842 9.54909 28.7784 9.75594 28.8385 9.90807C28.8687 9.98434 28.8848 10.0331 28.8921 10.059C28.9034 10.0993 28.8848 10.0522 28.8848 9.95762H30.8848ZM27.1439 2.55669C26.7922 1.87579 26.0564 1.21119 25.0963 1.16735L25.0051 3.16526C25.0667 3.16808 25.2493 3.24681 25.3671 3.47467L27.1439 2.55669ZM25.0963 1.16735C21.6496 1.00997 10.3507 1.00997 6.90388 1.16735L6.9951 3.16526C10.3811 3.01067 21.6191 3.01067 25.0051 3.16526L25.0963 1.16735ZM6.90388 1.16735C5.94361 1.21119 5.20808 1.87591 4.85633 2.55658L6.6331 3.47478C6.75097 3.24669 6.93353 3.16808 6.9951 3.16526L6.90388 1.16735ZM4.85633 2.55658C4.38088 3.47661 3.49686 4.99997 2.69288 6.44794C2.29849 7.15825 1.92564 7.84686 1.64965 8.40635C1.51227 8.68483 1.39097 8.94721 1.30179 9.17281C1.25728 9.28539 1.21526 9.40258 1.1831 9.51676C1.15499 9.61655 1.11551 9.77779 1.11551 9.95762H3.11551C3.11551 10.0522 3.09683 10.0993 3.10818 10.059C3.11547 10.0332 3.13157 9.98435 3.16173 9.90808C3.22187 9.75594 3.31604 9.5491 3.44329 9.29114C3.69653 8.77776 4.04951 8.12466 4.44143 7.41881C5.21008 6.03446 6.14066 4.42768 6.6331 3.47477L4.85633 2.55658ZM2.2048 10.9536C2.20472 10.9536 2.2343 10.9516 2.3138 10.9489C2.38556 10.9465 2.48141 10.944 2.60131 10.9415C2.8407 10.9365 3.16604 10.9318 3.56658 10.9273C4.36709 10.9184 5.4594 10.9106 6.74723 10.904C9.32243 10.8909 12.6737 10.883 16.0237 10.8814C19.3738 10.8798 22.7209 10.8846 25.288 10.8969C26.5718 10.903 27.6586 10.9111 28.4525 10.9211C28.8498 10.9261 29.1708 10.9316 29.4052 10.9375C29.6669 10.9441 29.7645 10.9504 29.7629 10.9502L30.0066 8.96508C29.8197 8.94212 29.234 8.93079 28.4777 8.92125C27.6761 8.91113 26.5832 8.90308 25.2976 8.89692C22.7257 8.8846 19.3747 8.87984 16.0228 8.88142C12.6707 8.883 9.31622 8.89094 6.73707 8.90405C4.20047 8.91693 2.32969 8.93441 2.02623 8.96162L2.2048 10.9536Z" fill="#111827"/>
</svg>
