<svg width="32" height="32" viewBox="0 0 32 32" fill="none" xmlns="http://www.w3.org/2000/svg">
<path d="M29.8055 8.52914C30.0656 10.96 30.2853 13.4557 30.2853 16.0001C30.2853 18.5444 30.0656 21.0401 29.8055 23.4709C29.4533 26.764 26.8048 29.4124 23.5134 29.7793C21.0688 30.0517 18.5587 30.2858 15.9996 30.2858C13.4404 30.2858 10.9303 30.0517 8.48566 29.7793C5.19432 29.4124 2.54587 26.764 2.19356 23.4709C1.93349 21.0401 1.71387 18.5444 1.71387 16.0001C1.71387 13.4557 1.93349 10.96 2.19356 8.52914M29.8055 8.52914C29.4533 5.23623 26.8048 2.58775 23.5134 2.22089C21.0688 1.94839 18.5587 1.71436 15.9996 1.71436C13.4404 1.71436 10.9303 1.94839 8.48566 2.22089C5.19432 2.58775 2.54587 5.23623 2.19356 8.52914M29.8055 8.52914C29.8272 8.73328 29.849 8.93788 29.8702 9.14293H2.12905C2.15021 8.93788 2.17172 8.73328 2.19356 8.52914M15.9996 13.7144V18.3512M15.9996 22.8572V23.9672" stroke="#111827" stroke-width="2" stroke-linecap="round" stroke-linejoin="round"/>
</svg>
