<svg width="100" height="100" viewBox="0 0 100 100" fill="none" xmlns="http://www.w3.org/2000/svg">
<g clip-path="url(#clip0_15910_61470)">
<path d="M41.6624 22.5871C44.8689 19.2501 49.3254 17.174 54.2602 17.174C60.8254 17.174 66.5428 20.8371 69.5972 26.261C72.2494 25.0762 75.1841 24.4132 78.2602 24.4132C90.0972 24.4132 99.6841 34.0871 99.6841 46.0327C99.6841 57.9784 90.0863 67.6523 78.2602 67.6523C76.8146 67.6523 75.4015 67.511 74.0428 67.2284C71.3581 72.011 66.2385 75.2501 60.3689 75.2501C57.9124 75.2501 55.5863 74.6849 53.5211 73.674C50.8037 80.0762 44.4559 84.5653 37.0755 84.5653C29.695 84.5653 22.8254 79.6958 20.3037 72.8697C19.2059 73.0979 18.0646 73.2284 16.8907 73.2284C7.72762 73.2284 0.303711 65.7284 0.303711 56.4675C0.303711 50.261 3.64067 44.8479 8.59719 41.9458C7.57545 39.5979 7.01023 37.0001 7.01023 34.2827C7.01023 23.6306 15.6515 15.0001 26.3146 15.0001C32.5754 15.0001 38.1407 17.9784 41.6624 22.5871Z" fill="#0D9DDA"/>
<path d="M14.7074 51.0762C14.6422 51.2393 14.7292 51.2719 14.7509 51.3045C14.9357 51.4349 15.1313 51.5327 15.3161 51.6523C16.327 52.1849 17.2835 52.348 18.2835 52.348C20.327 52.348 21.5879 51.261 21.5879 49.5219V49.4893C21.5879 47.8806 20.1531 47.2936 18.8161 46.8697L18.6422 46.8154C17.6313 46.4893 16.7618 46.2067 16.7618 45.5327V45.5001C16.7618 44.9349 17.2726 44.511 18.0661 44.511C18.9466 44.511 19.99 44.8045 20.6531 45.174C20.6531 45.174 20.8487 45.3045 20.9248 45.1088C20.9683 45.0001 21.3053 44.0871 21.3379 43.9893C21.3813 43.8806 21.3053 43.8045 21.24 43.761C20.4683 43.2936 19.414 42.9784 18.3161 42.9784H18.1096C16.24 42.9784 14.9357 44.1088 14.9357 45.7175V45.7501C14.9357 47.4567 16.3705 48.0001 17.7183 48.3914L17.9357 48.4567C18.9139 48.761 19.7618 49.0219 19.7618 49.7067V49.7393C19.7618 50.3697 19.2074 50.8371 18.327 50.8371C17.9792 50.8371 16.8813 50.8371 15.6966 50.0762C15.5553 49.9893 15.4683 49.9349 15.3596 49.8697C15.3053 49.8371 15.1531 49.7719 15.0879 49.9567L14.6857 51.0762H14.7074Z" fill="white"/>
<path d="M44.5434 51.0762C44.4781 51.2393 44.5651 51.2719 44.5868 51.3045C44.7716 51.4349 44.9673 51.5327 45.1521 51.6523C46.1629 52.1849 47.1195 52.348 48.1195 52.348C50.1629 52.348 51.4238 51.261 51.4238 49.5219V49.4893C51.4238 47.8806 49.9999 47.2936 48.6521 46.8697L48.4781 46.8154C47.4673 46.4893 46.5977 46.2067 46.5977 45.5327V45.5001C46.5977 44.9349 47.1086 44.511 47.9021 44.511C48.7825 44.511 49.826 44.8045 50.489 45.174C50.489 45.174 50.6847 45.3045 50.7608 45.1088C50.8042 45.0001 51.1412 44.0871 51.1738 43.9893C51.2173 43.8806 51.1412 43.8045 51.076 43.761C50.3042 43.2936 49.2499 42.9784 48.1521 42.9784H47.9455C46.076 42.9784 44.7716 44.1088 44.7716 45.7175V45.7501C44.7716 47.4567 46.2064 48.0001 47.5542 48.3914L47.7716 48.4567C48.7499 48.761 49.5977 49.0219 49.5977 49.7067V49.7393C49.5977 50.3697 49.0434 50.8371 48.1629 50.8371C47.8151 50.8371 46.7173 50.8371 45.5325 50.0762C45.3912 49.9893 45.3042 49.9349 45.1955 49.8697C45.1629 49.848 44.989 49.7827 44.9238 49.9567L44.5216 51.0762H44.5434Z" fill="white"/>
<path d="M66.6198 45.8262C66.4567 45.261 66.1959 44.761 65.848 44.348C65.5002 43.9349 65.0654 43.598 64.5437 43.3588C64.022 43.1197 63.4133 42.9893 62.7176 42.9893C62.022 42.9893 61.4133 43.1088 60.8915 43.3588C60.3698 43.598 59.935 43.9349 59.5872 44.348C59.2393 44.761 58.9785 45.261 58.8154 45.8262C58.6524 46.3914 58.5654 47.0001 58.5654 47.6523C58.5654 48.3045 58.6524 48.924 58.8154 49.4784C58.9785 50.0436 59.2393 50.5436 59.5872 50.9567C59.935 51.3697 60.3806 51.7067 60.8915 51.9458C61.4133 52.1849 62.022 52.3045 62.7176 52.3045C63.4133 52.3045 64.022 52.1849 64.5437 51.9458C65.0654 51.7067 65.5002 51.3806 65.848 50.9567C66.1959 50.5436 66.4567 50.0436 66.6198 49.4784C66.7828 48.9132 66.8698 48.3045 66.8698 47.6523C66.8698 47.0001 66.7828 46.3806 66.6198 45.8262ZM64.9133 47.6523C64.9133 48.6414 64.7285 49.4132 64.3698 49.9675C64.0111 50.511 63.4676 50.7719 62.7176 50.7719C61.9676 50.7719 61.4241 50.511 61.0654 49.9675C60.7067 49.4132 60.522 48.6414 60.522 47.6523C60.522 46.6632 60.7067 45.8914 61.0546 45.348C61.4133 44.8045 61.9459 44.5436 62.7067 44.5436C63.4676 44.5436 64.0002 44.8045 64.3589 45.348C64.7176 45.8914 64.9024 46.6632 64.9024 47.6523" fill="white"/>
<path fill-rule="evenodd" clip-rule="evenodd" d="M80.5982 50.511C80.5438 50.3479 80.3808 50.4132 80.3808 50.4132C80.1308 50.511 79.8699 50.5979 79.5873 50.6414C79.3047 50.6849 78.9895 50.7066 78.6525 50.7066C77.8264 50.7066 77.1743 50.4566 76.7069 49.9784C76.2395 49.4893 75.9677 48.7066 75.9786 47.6523C75.9786 46.6849 76.2177 45.9675 76.6308 45.4132C77.0438 44.8588 77.6743 44.5871 78.5221 44.5871C79.2286 44.5871 79.7612 44.6632 80.3264 44.8479C80.3264 44.8479 80.4569 44.9023 80.5221 44.7284C80.6743 44.3153 80.783 44.0219 80.946 43.5653C80.9895 43.4349 80.8808 43.3806 80.8373 43.3697C80.6199 43.2827 80.0982 43.1414 79.7069 43.0871C79.3373 43.0327 78.9134 43.0001 78.4351 43.0001C77.7177 43.0001 77.0873 43.1197 76.533 43.3697C75.9895 43.6088 75.533 43.9458 75.1634 44.3588C74.7938 44.7719 74.5221 45.2719 74.3373 45.8371C74.1525 46.4023 74.0547 47.011 74.0547 47.674C74.0547 49.0871 74.4351 50.2284 75.1851 51.0653C75.9351 51.9023 77.0656 52.3262 78.5438 52.3262C79.4134 52.3262 80.3047 52.1523 80.9569 51.8914C80.9569 51.8914 81.0764 51.8371 81.0221 51.6849L80.609 50.5327L80.5982 50.511Z" fill="white"/>
<path fill-rule="evenodd" clip-rule="evenodd" d="M89.3047 45.511C89.1634 44.9675 88.8047 44.4132 88.5656 44.1632C88.196 43.761 87.8373 43.4893 87.4677 43.3262C87.0003 43.1197 86.4351 42.9893 85.8156 42.9893C85.0982 42.9893 84.446 43.1088 83.9134 43.3588C83.3808 43.6088 82.9351 43.9458 82.5873 44.3697C82.2395 44.7936 81.9786 45.2936 81.8047 45.8697C81.6416 46.4349 81.5547 47.0545 81.5547 47.7066C81.5547 48.3588 81.6416 48.9893 81.8156 49.5436C81.9895 50.1088 82.2721 50.598 82.6525 51.011C83.033 51.424 83.5221 51.7501 84.0982 51.9675C84.6743 52.1958 85.3808 52.3045 86.1851 52.3045C87.8482 52.3045 88.7286 51.924 89.0873 51.7284C89.1525 51.6958 89.2069 51.6306 89.1416 51.4566L88.7612 50.4023C88.7069 50.2501 88.5438 50.3045 88.5438 50.3045C88.1308 50.4566 87.5438 50.7284 86.1743 50.7284C85.2829 50.7284 84.6199 50.4675 84.2069 50.0545C83.783 49.6306 83.5764 49.011 83.5329 48.1414H89.2938C89.2938 48.1414 89.446 48.1414 89.4569 48.0001C89.4569 47.9349 89.6525 46.8153 89.2829 45.5219L89.3047 45.511ZM83.5764 46.7175C83.6525 46.174 83.8047 45.7175 84.0438 45.3588C84.3916 44.8153 84.9351 44.5219 85.696 44.5219C86.4569 44.5219 86.946 44.8153 87.3047 45.3588C87.5438 45.7175 87.6416 46.1849 87.6851 46.7175H83.5764Z" fill="white"/>
<path fill-rule="evenodd" clip-rule="evenodd" d="M43.1748 45.511C43.0335 44.9675 42.6748 44.4132 42.4357 44.1632C42.0661 43.761 41.7074 43.4893 41.3378 43.3262C40.8705 43.1197 40.3052 42.9893 39.6857 42.9893C38.9683 42.9893 38.3161 43.1088 37.7835 43.3588C37.2509 43.6088 36.8052 43.9458 36.4574 44.3697C36.1096 44.7936 35.8487 45.2936 35.6748 45.8697C35.5118 46.4349 35.4248 47.0545 35.4248 47.7066C35.4248 48.3588 35.5118 48.9893 35.6857 49.5436C35.8596 50.1088 36.1422 50.598 36.5226 51.011C36.9031 51.424 37.3922 51.7501 37.9683 51.9675C38.5444 52.1958 39.2509 52.3045 40.0552 52.3045C41.7183 52.3045 42.5987 51.924 42.9574 51.7284C43.0226 51.6958 43.077 51.6306 43.0009 51.4566L42.6205 50.4023C42.5661 50.2501 42.4031 50.3045 42.4031 50.3045C41.99 50.4566 41.4031 50.7284 40.0335 50.7284C39.1422 50.7284 38.4792 50.4675 38.0661 50.0545C37.6422 49.6306 37.4357 49.011 37.3922 48.1414H43.1531C43.1531 48.1414 43.3052 48.1414 43.3161 48.0001C43.3161 47.9349 43.5118 46.8153 43.1422 45.5219L43.1748 45.511ZM37.4465 46.7175C37.5226 46.174 37.6748 45.7175 37.9139 45.3588C38.2726 44.8153 38.8052 44.5219 39.5661 44.5219C40.327 44.5219 40.8161 44.8153 41.1857 45.3588C41.4248 45.7175 41.5226 46.1849 41.5661 46.7175H37.4574H37.4465Z" fill="white"/>
<path d="M27.2823 46.4349C27.0432 46.4132 26.7497 46.4132 26.3801 46.4132C25.891 46.4132 25.4127 46.4784 24.9562 46.598C24.5106 46.7175 24.0975 46.9023 23.7497 47.1523C23.4019 47.4023 23.1193 47.7175 22.9127 48.098C22.7062 48.4784 22.6084 48.924 22.6084 49.424C22.6084 49.924 22.6954 50.3806 22.8693 50.7393C23.0432 51.098 23.2932 51.4023 23.6193 51.6414C23.9345 51.8697 24.3367 52.0436 24.7932 52.1523C25.2497 52.2501 25.7606 52.3045 26.3149 52.3045C26.9019 52.3045 27.4997 52.2501 28.0649 52.1632C28.6301 52.0653 29.3258 51.924 29.5106 51.8806C29.7062 51.8371 29.9127 51.7827 29.9127 51.7827C30.0541 51.7501 30.0432 51.598 30.0432 51.598V46.3262C30.0432 45.174 29.728 44.3153 29.1193 43.7827C28.5106 43.2501 27.6301 42.9893 26.478 42.9893C26.0432 42.9893 25.3475 43.0436 24.9345 43.1306C24.9345 43.1306 23.6736 43.3697 23.1627 43.7827C23.1627 43.7827 23.0541 43.848 23.1084 44.011L23.5214 45.1088C23.5758 45.2501 23.7062 45.2067 23.7062 45.2067C23.7062 45.2067 23.7497 45.1849 23.8041 45.1632C24.9127 44.5653 26.3149 44.5762 26.3149 44.5762C26.9345 44.5762 27.4127 44.7066 27.7388 44.9458C28.0541 45.1849 28.2171 45.5545 28.2171 46.3153V46.5545C27.728 46.4784 27.2714 46.4458 27.2714 46.4458L27.2823 46.4349ZM24.9888 50.4784C24.7606 50.2936 24.728 50.2501 24.6519 50.1414C24.5432 49.9675 24.478 49.7175 24.478 49.3914C24.478 48.8806 24.641 48.5219 24.9888 48.2719C24.9888 48.2719 25.4888 47.8371 26.6627 47.8588C27.4888 47.8588 28.228 47.9893 28.228 47.9893V50.6088C28.228 50.6088 27.4997 50.761 26.6736 50.8153C25.4997 50.8806 24.978 50.4784 24.9888 50.4784Z" fill="white"/>
<path fill-rule="evenodd" clip-rule="evenodd" d="M73.7401 43.4676C73.7836 43.3372 73.6967 43.272 73.6532 43.2611C73.5554 43.2285 73.0662 43.1198 72.6858 43.0981C71.9575 43.0546 71.5554 43.1741 71.1967 43.3372C70.838 43.5002 70.4467 43.7611 70.2184 44.0546V43.3481C70.2184 43.2502 70.1532 43.1741 70.0554 43.1741H68.5771C68.4793 43.1741 68.4141 43.2502 68.4141 43.3481V51.9459C68.4141 52.0437 68.4901 52.1198 68.588 52.1198H70.0988C70.1967 52.1198 70.2728 52.0437 70.2728 51.9459V47.6524C70.2728 47.0763 70.338 46.5002 70.4684 46.1415C70.588 45.7828 70.7619 45.5002 70.9684 45.2937C71.1749 45.0872 71.4141 44.9459 71.6749 44.8698C71.9467 44.7828 72.2402 44.7611 72.4467 44.7611C72.751 44.7611 73.0771 44.8372 73.0771 44.8372C73.1858 44.8481 73.251 44.7828 73.2836 44.685C73.3815 44.4241 73.6641 43.6307 73.7184 43.4785L73.7401 43.4676Z" fill="white"/>
<path fill-rule="evenodd" clip-rule="evenodd" d="M59.5336 39.4894C59.3488 39.435 59.1857 39.3915 58.9683 39.3589C58.751 39.3154 58.4792 39.2937 58.1857 39.2937C57.1423 39.2937 56.327 39.5872 55.751 40.1741C55.1749 40.7502 54.7836 41.6307 54.5988 42.7828L54.5336 43.1741H53.2292C53.2292 43.1741 53.0662 43.1741 53.0336 43.3372L52.8162 44.5328C52.8053 44.6524 52.8488 44.7176 53.001 44.7176H54.2727L52.9792 51.9241C52.8814 52.5002 52.7618 52.9785 52.6314 53.348C52.501 53.7067 52.3814 53.9676 52.2292 54.1633C52.077 54.348 51.9466 54.4894 51.7075 54.5654C51.5118 54.6307 51.2836 54.6633 51.0336 54.6633C50.8923 54.6633 50.7075 54.6415 50.5662 54.6089C50.4249 54.5872 50.3597 54.5546 50.251 54.5111C50.251 54.5111 50.0988 54.4567 50.0444 54.6089C50.001 54.7285 49.6531 55.6633 49.6205 55.7828C49.577 55.8915 49.6423 55.9894 49.7075 56.0111C49.8814 56.0763 50.001 56.1089 50.2292 56.1633C50.5444 56.2394 50.8162 56.2394 51.077 56.2394C51.6097 56.2394 52.0879 56.1633 52.4901 56.022C52.8923 55.8807 53.2401 55.6198 53.5553 55.2828C53.8923 54.9133 54.0988 54.522 54.3053 53.9894C54.501 53.4676 54.6749 52.8154 54.8162 52.0546L56.1097 44.7067H58.0118C58.0118 44.7067 58.1749 44.7067 58.2075 44.5437L58.4249 43.348C58.4357 43.2285 58.3923 43.1633 58.2401 43.1633H56.4031C56.4031 43.1633 56.501 42.4785 56.7075 41.8589C56.7944 41.598 56.9683 41.3915 57.1097 41.2394C57.251 41.098 57.414 41.0002 57.5879 40.935C57.7727 40.8807 57.9792 40.848 58.2075 40.848C58.3814 40.848 58.5553 40.8698 58.6857 40.8915C58.8597 40.9241 58.9357 40.9459 58.9792 40.9676C59.164 41.022 59.1966 40.9676 59.2292 40.8807L59.6749 39.6741C59.7183 39.5437 59.6097 39.4894 59.5662 39.4785L59.5336 39.4894Z" fill="white"/>
<path fill-rule="evenodd" clip-rule="evenodd" d="M33.806 51.9458C33.806 52.0436 33.7407 52.1197 33.6429 52.1197H32.1103C32.0125 52.1197 31.9473 52.0436 31.9473 51.9458V39.6523C31.9473 39.5545 32.0125 39.4784 32.1103 39.4784H33.6429C33.7407 39.4784 33.806 39.5545 33.806 39.6523V51.9458Z" fill="white"/>
</g>
<defs>
<clipPath id="clip0_15910_61470">
<rect width="100" height="69.5652" fill="white" transform="translate(0 15)"/>
</clipPath>
</defs>
</svg>
