<svg width="101" height="100" viewBox="0 0 101 100" fill="none" xmlns="http://www.w3.org/2000/svg">
<g clip-path="url(#clip0_15381_206664)">
<path d="M99.2986 55.8617C99.1483 55.8617 98.998 55.9619 98.8978 56.2124C97.8958 59.1182 96.493 60.8717 95.3407 60.8717C94.6894 60.8717 94.4389 60.1202 94.4389 59.018C94.4389 56.1623 96.1423 50.1002 96.994 47.2945C97.0942 46.9438 97.1443 46.6432 97.1443 46.3927C97.1443 45.5911 96.6934 45.1903 95.5912 45.1903C94.4389 45.1903 93.1363 45.6412 91.9339 47.7956C91.5331 45.8917 90.2305 45.0901 88.4269 45.0901C86.3727 45.0901 84.3687 46.4428 82.7154 48.5972C81.0621 50.7515 79.1082 51.4529 77.6553 51.1022C78.7074 48.5471 79.1082 46.5931 79.1082 45.1903C79.1082 42.9358 78.006 41.5831 76.2024 41.5831C73.497 41.5831 71.9439 44.1883 71.9439 46.8937C71.9439 48.998 72.8958 51.1523 75 52.2044C73.2465 56.1623 70.6914 59.7695 69.6894 59.7695C68.4369 59.7695 68.0361 53.6072 68.1363 49.1984C68.1864 46.6933 68.3868 46.543 68.3868 45.7915C68.3868 45.3406 68.0862 45.04 66.9339 45.04C64.2786 45.04 63.4269 47.2945 63.3267 49.8998C63.2766 50.9018 63.1263 51.8537 62.8758 52.8056C61.7735 56.7635 59.4689 59.8196 57.9659 59.8196C57.2645 59.8196 57.0641 59.1182 57.0641 58.2164C57.0641 55.3607 58.6673 51.7535 58.6673 48.6974C58.6673 46.4428 57.6653 45.04 55.8116 45.04C53.6072 45.04 50.7515 47.6453 47.996 52.505C48.8978 48.7976 49.2485 45.1903 46.5932 45.1903C45.992 45.1903 45.4409 45.3406 44.9399 45.6412C44.5892 45.7915 44.3888 46.1422 44.3888 46.543C44.6393 50.501 41.1824 60.6713 37.9258 60.6713C37.3246 60.6713 37.024 60.02 37.024 58.9679C37.024 56.1122 38.7275 50.0501 39.5792 47.2444C39.6794 46.8937 39.7295 46.5931 39.7295 46.2925C39.7295 45.541 39.2786 45.1402 38.1764 45.1402C37.024 45.1402 35.7214 45.5911 34.519 47.7455C34.0681 45.8416 32.8156 45.04 31.012 45.04C28.0561 45.04 24.7996 48.1463 23.3467 52.2044C21.3928 57.6152 17.5351 62.8757 12.2745 62.8757C7.51503 62.8757 5.01002 58.9178 5.01002 52.6553C5.01002 43.5871 11.6733 36.2224 16.5832 36.2224C18.9379 36.2224 20.0401 37.7254 20.0401 40.03C20.0401 42.8356 18.487 44.0881 18.487 45.1903C18.487 45.4909 18.7375 45.8416 19.2886 45.8416C21.4429 45.8416 23.9479 43.3366 23.9479 39.8797C23.9479 36.4228 21.2425 33.9679 16.3327 33.9679C8.16633 33.9679 0 42.1342 0 52.6553C0 61.022 4.10822 66.032 11.2224 66.032C16.0822 66.032 20.3407 62.2745 22.5952 57.8657C22.8457 61.523 24.499 63.4268 27.0541 63.4268C29.3086 63.4268 31.1122 62.0741 32.515 59.7194C33.0661 62.1743 34.4689 63.3767 36.3226 63.3767C38.4269 63.3767 40.2305 62.024 41.8838 59.5691C41.8838 61.523 42.2846 63.3767 43.988 63.3767C44.7896 63.3767 45.7415 63.1763 45.8918 62.4749C47.6954 55.1102 52.1042 49.0481 53.4569 49.0481C53.8577 49.0481 53.9579 49.4489 53.9579 49.8998C53.9579 51.9038 52.5551 56.012 52.5551 58.6172C52.5551 61.4729 53.7575 63.3266 56.2625 63.3266C59.018 63.3266 61.8236 59.9699 63.6774 55.01C64.2786 59.6192 65.5311 63.3266 67.485 63.3266C69.8898 63.3266 74.2485 58.2164 76.8537 52.8056C77.8557 52.9559 79.4088 52.9058 80.9118 51.8537C80.2605 53.4569 79.9098 55.2104 79.9098 56.9138C79.9098 61.9238 82.3146 63.3266 84.3687 63.3266C86.6232 63.3266 88.4269 61.9739 89.8297 59.6192C90.2806 61.7234 91.483 63.2765 93.6373 63.2765C96.994 63.2765 99.9499 59.8196 99.9499 56.9639C100 56.3627 99.6493 55.8617 99.2986 55.8617ZM29.1583 60.6212C27.8056 60.6212 27.2545 59.2685 27.2545 57.2144C27.2545 53.6573 29.7094 47.6954 32.2645 47.6954C33.3667 47.6954 33.8176 48.998 33.8176 50.6513C33.8176 54.2585 31.513 60.6212 29.1583 60.6212ZM75.9018 50C75.1002 49.0481 74.7996 47.6954 74.7996 46.543C74.7996 45.0901 75.3507 43.8877 75.9519 43.8877C76.5531 43.8877 76.8036 44.4889 76.8036 45.3907C76.7535 46.7935 76.2525 48.9479 75.9018 50ZM86.473 60.6212C85.1202 60.6212 84.5691 59.018 84.5691 57.2144C84.5691 53.7575 87.024 47.6954 89.5792 47.6954C90.6814 47.6954 91.0822 48.998 91.0822 50.6513C91.1323 54.2585 88.8778 60.6212 86.473 60.6212Z" fill="url(#paint0_linear_15381_206664)"/>
<path d="M99.2986 55.8617C99.1483 55.8617 98.998 55.9619 98.8978 56.2124C97.8958 59.1182 96.493 60.8717 95.3407 60.8717C94.6894 60.8717 94.4389 60.1202 94.4389 59.018C94.4389 56.1623 96.1423 50.1002 96.994 47.2945C97.0942 46.9438 97.1443 46.6432 97.1443 46.3927C97.1443 45.5911 96.6934 45.1903 95.5912 45.1903C94.4389 45.1903 93.1363 45.6412 91.9339 47.7956C91.5331 45.8917 90.2305 45.0901 88.4269 45.0901C86.3727 45.0901 84.3687 46.4428 82.7154 48.5972C81.0621 50.7515 79.1082 51.4529 77.6553 51.1022C78.7074 48.5471 79.1082 46.5931 79.1082 45.1903C79.1082 42.9358 78.006 41.5831 76.2024 41.5831C73.497 41.5831 71.9439 44.1883 71.9439 46.8937C71.9439 48.998 72.8958 51.1523 75 52.2044C73.2465 56.1623 70.6914 59.7695 69.6894 59.7695C68.4369 59.7695 68.0361 53.6072 68.1363 49.1984C68.1864 46.6933 68.3868 46.543 68.3868 45.7915C68.3868 45.3406 68.0862 45.04 66.9339 45.04C64.2786 45.04 63.4269 47.2945 63.3267 49.8998C63.2766 50.9018 63.1263 51.8537 62.8758 52.8056C61.7735 56.7635 59.4689 59.8196 57.9659 59.8196C57.2645 59.8196 57.0641 59.1182 57.0641 58.2164C57.0641 55.3607 58.6673 51.7535 58.6673 48.6974C58.6673 46.4428 57.6653 45.04 55.8116 45.04C53.6072 45.04 50.7515 47.6453 47.996 52.505C48.8978 48.7976 49.2485 45.1903 46.5932 45.1903C45.992 45.1903 45.4409 45.3406 44.9399 45.6412C44.5892 45.7915 44.3888 46.1422 44.3888 46.543C44.6393 50.501 41.1824 60.6713 37.9258 60.6713C37.3246 60.6713 37.024 60.02 37.024 58.9679C37.024 56.1122 38.7275 50.0501 39.5792 47.2444C39.6794 46.8937 39.7295 46.5931 39.7295 46.2925C39.7295 45.541 39.2786 45.1402 38.1764 45.1402C37.024 45.1402 35.7214 45.5911 34.519 47.7455C34.0681 45.8416 32.8156 45.04 31.012 45.04C28.0561 45.04 24.7996 48.1463 23.3467 52.2044C21.3928 57.6152 17.5351 62.8757 12.2745 62.8757C7.51503 62.8757 5.01002 58.9178 5.01002 52.6553C5.01002 43.5871 11.6733 36.2224 16.5832 36.2224C18.9379 36.2224 20.0401 37.7254 20.0401 40.03C20.0401 42.8356 18.487 44.0881 18.487 45.1903C18.487 45.4909 18.7375 45.8416 19.2886 45.8416C21.4429 45.8416 23.9479 43.3366 23.9479 39.8797C23.9479 36.4228 21.2425 33.9679 16.3327 33.9679C8.16633 33.9679 0 42.1342 0 52.6553C0 61.022 4.10822 66.032 11.2224 66.032C16.0822 66.032 20.3407 62.2745 22.5952 57.8657C22.8457 61.523 24.499 63.4268 27.0541 63.4268C29.3086 63.4268 31.1122 62.0741 32.515 59.7194C33.0661 62.1743 34.4689 63.3767 36.3226 63.3767C38.4269 63.3767 40.2305 62.024 41.8838 59.5691C41.8838 61.523 42.2846 63.3767 43.988 63.3767C44.7896 63.3767 45.7415 63.1763 45.8918 62.4749C47.6954 55.1102 52.1042 49.0481 53.4569 49.0481C53.8577 49.0481 53.9579 49.4489 53.9579 49.8998C53.9579 51.9038 52.5551 56.012 52.5551 58.6172C52.5551 61.4729 53.7575 63.3266 56.2625 63.3266C59.018 63.3266 61.8236 59.9699 63.6774 55.01C64.2786 59.6192 65.5311 63.3266 67.485 63.3266C69.8898 63.3266 74.2485 58.2164 76.8537 52.8056C77.8557 52.9559 79.4088 52.9058 80.9118 51.8537C80.2605 53.4569 79.9098 55.2104 79.9098 56.9138C79.9098 61.9238 82.3146 63.3266 84.3687 63.3266C86.6232 63.3266 88.4269 61.9739 89.8297 59.6192C90.2806 61.7234 91.483 63.2765 93.6373 63.2765C96.994 63.2765 99.9499 59.8196 99.9499 56.9639C100 56.3627 99.6493 55.8617 99.2986 55.8617ZM29.1583 60.6212C27.8056 60.6212 27.2545 59.2685 27.2545 57.2144C27.2545 53.6573 29.7094 47.6954 32.2645 47.6954C33.3667 47.6954 33.8176 48.998 33.8176 50.6513C33.8176 54.2585 31.513 60.6212 29.1583 60.6212ZM75.9018 50C75.1002 49.0481 74.7996 47.6954 74.7996 46.543C74.7996 45.0901 75.3507 43.8877 75.9519 43.8877C76.5531 43.8877 76.8036 44.4889 76.8036 45.3907C76.7535 46.7935 76.2525 48.9479 75.9018 50ZM86.473 60.6212C85.1202 60.6212 84.5691 59.018 84.5691 57.2144C84.5691 53.7575 87.024 47.6954 89.5792 47.6954C90.6814 47.6954 91.0822 48.998 91.0822 50.6513C91.1323 54.2585 88.8778 60.6212 86.473 60.6212Z" fill="url(#paint1_radial_15381_206664)"/>
<path d="M99.2986 55.8617C99.1483 55.8617 98.998 55.9619 98.8978 56.2124C97.8958 59.1182 96.493 60.8717 95.3407 60.8717C94.6894 60.8717 94.4389 60.1202 94.4389 59.018C94.4389 56.1623 96.1423 50.1002 96.994 47.2945C97.0942 46.9438 97.1443 46.6432 97.1443 46.3927C97.1443 45.5911 96.6934 45.1903 95.5912 45.1903C94.4389 45.1903 93.1363 45.6412 91.9339 47.7956C91.5331 45.8917 90.2305 45.0901 88.4269 45.0901C86.3727 45.0901 84.3687 46.4428 82.7154 48.5972C81.0621 50.7515 79.1082 51.4529 77.6553 51.1022C78.7074 48.5471 79.1082 46.5931 79.1082 45.1903C79.1082 42.9358 78.006 41.5831 76.2024 41.5831C73.497 41.5831 71.9439 44.1883 71.9439 46.8937C71.9439 48.998 72.8958 51.1523 75 52.2044C73.2465 56.1623 70.6914 59.7695 69.6894 59.7695C68.4369 59.7695 68.0361 53.6072 68.1363 49.1984C68.1864 46.6933 68.3868 46.543 68.3868 45.7915C68.3868 45.3406 68.0862 45.04 66.9339 45.04C64.2786 45.04 63.4269 47.2945 63.3267 49.8998C63.2766 50.9018 63.1263 51.8537 62.8758 52.8056C61.7735 56.7635 59.4689 59.8196 57.9659 59.8196C57.2645 59.8196 57.0641 59.1182 57.0641 58.2164C57.0641 55.3607 58.6673 51.7535 58.6673 48.6974C58.6673 46.4428 57.6653 45.04 55.8116 45.04C53.6072 45.04 50.7515 47.6453 47.996 52.505C48.8978 48.7976 49.2485 45.1903 46.5932 45.1903C45.992 45.1903 45.4409 45.3406 44.9399 45.6412C44.5892 45.7915 44.3888 46.1422 44.3888 46.543C44.6393 50.501 41.1824 60.6713 37.9258 60.6713C37.3246 60.6713 37.024 60.02 37.024 58.9679C37.024 56.1122 38.7275 50.0501 39.5792 47.2444C39.6794 46.8937 39.7295 46.5931 39.7295 46.2925C39.7295 45.541 39.2786 45.1402 38.1764 45.1402C37.024 45.1402 35.7214 45.5911 34.519 47.7455C34.0681 45.8416 32.8156 45.04 31.012 45.04C28.0561 45.04 24.7996 48.1463 23.3467 52.2044C21.3928 57.6152 17.5351 62.8757 12.2745 62.8757C7.51503 62.8757 5.01002 58.9178 5.01002 52.6553C5.01002 43.5871 11.6733 36.2224 16.5832 36.2224C18.9379 36.2224 20.0401 37.7254 20.0401 40.03C20.0401 42.8356 18.487 44.0881 18.487 45.1903C18.487 45.4909 18.7375 45.8416 19.2886 45.8416C21.4429 45.8416 23.9479 43.3366 23.9479 39.8797C23.9479 36.4228 21.2425 33.9679 16.3327 33.9679C8.16633 33.9679 0 42.1342 0 52.6553C0 61.022 4.10822 66.032 11.2224 66.032C16.0822 66.032 20.3407 62.2745 22.5952 57.8657C22.8457 61.523 24.499 63.4268 27.0541 63.4268C29.3086 63.4268 31.1122 62.0741 32.515 59.7194C33.0661 62.1743 34.4689 63.3767 36.3226 63.3767C38.4269 63.3767 40.2305 62.024 41.8838 59.5691C41.8838 61.523 42.2846 63.3767 43.988 63.3767C44.7896 63.3767 45.7415 63.1763 45.8918 62.4749C47.6954 55.1102 52.1042 49.0481 53.4569 49.0481C53.8577 49.0481 53.9579 49.4489 53.9579 49.8998C53.9579 51.9038 52.5551 56.012 52.5551 58.6172C52.5551 61.4729 53.7575 63.3266 56.2625 63.3266C59.018 63.3266 61.8236 59.9699 63.6774 55.01C64.2786 59.6192 65.5311 63.3266 67.485 63.3266C69.8898 63.3266 74.2485 58.2164 76.8537 52.8056C77.8557 52.9559 79.4088 52.9058 80.9118 51.8537C80.2605 53.4569 79.9098 55.2104 79.9098 56.9138C79.9098 61.9238 82.3146 63.3266 84.3687 63.3266C86.6232 63.3266 88.4269 61.9739 89.8297 59.6192C90.2806 61.7234 91.483 63.2765 93.6373 63.2765C96.994 63.2765 99.9499 59.8196 99.9499 56.9639C100 56.3627 99.6493 55.8617 99.2986 55.8617ZM29.1583 60.6212C27.8056 60.6212 27.2545 59.2685 27.2545 57.2144C27.2545 53.6573 29.7094 47.6954 32.2645 47.6954C33.3667 47.6954 33.8176 48.998 33.8176 50.6513C33.8176 54.2585 31.513 60.6212 29.1583 60.6212ZM75.9018 50C75.1002 49.0481 74.7996 47.6954 74.7996 46.543C74.7996 45.0901 75.3507 43.8877 75.9519 43.8877C76.5531 43.8877 76.8036 44.4889 76.8036 45.3907C76.7535 46.7935 76.2525 48.9479 75.9018 50ZM86.473 60.6212C85.1202 60.6212 84.5691 59.018 84.5691 57.2144C84.5691 53.7575 87.024 47.6954 89.5792 47.6954C90.6814 47.6954 91.0822 48.998 91.0822 50.6513C91.1323 54.2585 88.8778 60.6212 86.473 60.6212Z" fill="url(#paint2_radial_15381_206664)"/>
<path d="M99.2986 55.8617C99.1483 55.8617 98.998 55.9619 98.8978 56.2124C97.8958 59.1182 96.493 60.8717 95.3407 60.8717C94.6894 60.8717 94.4389 60.1202 94.4389 59.018C94.4389 56.1623 96.1423 50.1002 96.994 47.2945C97.0942 46.9438 97.1443 46.6432 97.1443 46.3927C97.1443 45.5911 96.6934 45.1903 95.5912 45.1903C94.4389 45.1903 93.1363 45.6412 91.9339 47.7956C91.5331 45.8917 90.2305 45.0901 88.4269 45.0901C86.3727 45.0901 84.3687 46.4428 82.7154 48.5972C81.0621 50.7515 79.1082 51.4529 77.6553 51.1022C78.7074 48.5471 79.1082 46.5931 79.1082 45.1903C79.1082 42.9358 78.006 41.5831 76.2024 41.5831C73.497 41.5831 71.9439 44.1883 71.9439 46.8937C71.9439 48.998 72.8958 51.1523 75 52.2044C73.2465 56.1623 70.6914 59.7695 69.6894 59.7695C68.4369 59.7695 68.0361 53.6072 68.1363 49.1984C68.1864 46.6933 68.3868 46.543 68.3868 45.7915C68.3868 45.3406 68.0862 45.04 66.9339 45.04C64.2786 45.04 63.4269 47.2945 63.3267 49.8998C63.2766 50.9018 63.1263 51.8537 62.8758 52.8056C61.7735 56.7635 59.4689 59.8196 57.9659 59.8196C57.2645 59.8196 57.0641 59.1182 57.0641 58.2164C57.0641 55.3607 58.6673 51.7535 58.6673 48.6974C58.6673 46.4428 57.6653 45.04 55.8116 45.04C53.6072 45.04 50.7515 47.6453 47.996 52.505C48.8978 48.7976 49.2485 45.1903 46.5932 45.1903C45.992 45.1903 45.4409 45.3406 44.9399 45.6412C44.5892 45.7915 44.3888 46.1422 44.3888 46.543C44.6393 50.501 41.1824 60.6713 37.9258 60.6713C37.3246 60.6713 37.024 60.02 37.024 58.9679C37.024 56.1122 38.7275 50.0501 39.5792 47.2444C39.6794 46.8937 39.7295 46.5931 39.7295 46.2925C39.7295 45.541 39.2786 45.1402 38.1764 45.1402C37.024 45.1402 35.7214 45.5911 34.519 47.7455C34.0681 45.8416 32.8156 45.04 31.012 45.04C28.0561 45.04 24.7996 48.1463 23.3467 52.2044C21.3928 57.6152 17.5351 62.8757 12.2745 62.8757C7.51503 62.8757 5.01002 58.9178 5.01002 52.6553C5.01002 43.5871 11.6733 36.2224 16.5832 36.2224C18.9379 36.2224 20.0401 37.7254 20.0401 40.03C20.0401 42.8356 18.487 44.0881 18.487 45.1903C18.487 45.4909 18.7375 45.8416 19.2886 45.8416C21.4429 45.8416 23.9479 43.3366 23.9479 39.8797C23.9479 36.4228 21.2425 33.9679 16.3327 33.9679C8.16633 33.9679 0 42.1342 0 52.6553C0 61.022 4.10822 66.032 11.2224 66.032C16.0822 66.032 20.3407 62.2745 22.5952 57.8657C22.8457 61.523 24.499 63.4268 27.0541 63.4268C29.3086 63.4268 31.1122 62.0741 32.515 59.7194C33.0661 62.1743 34.4689 63.3767 36.3226 63.3767C38.4269 63.3767 40.2305 62.024 41.8838 59.5691C41.8838 61.523 42.2846 63.3767 43.988 63.3767C44.7896 63.3767 45.7415 63.1763 45.8918 62.4749C47.6954 55.1102 52.1042 49.0481 53.4569 49.0481C53.8577 49.0481 53.9579 49.4489 53.9579 49.8998C53.9579 51.9038 52.5551 56.012 52.5551 58.6172C52.5551 61.4729 53.7575 63.3266 56.2625 63.3266C59.018 63.3266 61.8236 59.9699 63.6774 55.01C64.2786 59.6192 65.5311 63.3266 67.485 63.3266C69.8898 63.3266 74.2485 58.2164 76.8537 52.8056C77.8557 52.9559 79.4088 52.9058 80.9118 51.8537C80.2605 53.4569 79.9098 55.2104 79.9098 56.9138C79.9098 61.9238 82.3146 63.3266 84.3687 63.3266C86.6232 63.3266 88.4269 61.9739 89.8297 59.6192C90.2806 61.7234 91.483 63.2765 93.6373 63.2765C96.994 63.2765 99.9499 59.8196 99.9499 56.9639C100 56.3627 99.6493 55.8617 99.2986 55.8617ZM29.1583 60.6212C27.8056 60.6212 27.2545 59.2685 27.2545 57.2144C27.2545 53.6573 29.7094 47.6954 32.2645 47.6954C33.3667 47.6954 33.8176 48.998 33.8176 50.6513C33.8176 54.2585 31.513 60.6212 29.1583 60.6212ZM75.9018 50C75.1002 49.0481 74.7996 47.6954 74.7996 46.543C74.7996 45.0901 75.3507 43.8877 75.9519 43.8877C76.5531 43.8877 76.8036 44.4889 76.8036 45.3907C76.7535 46.7935 76.2525 48.9479 75.9018 50ZM86.473 60.6212C85.1202 60.6212 84.5691 59.018 84.5691 57.2144C84.5691 53.7575 87.024 47.6954 89.5792 47.6954C90.6814 47.6954 91.0822 48.998 91.0822 50.6513C91.1323 54.2585 88.8778 60.6212 86.473 60.6212Z" fill="url(#paint3_radial_15381_206664)"/>
<path d="M99.2986 55.8617C99.1483 55.8617 98.998 55.9619 98.8978 56.2124C97.8958 59.1182 96.493 60.8717 95.3407 60.8717C94.6894 60.8717 94.4389 60.1202 94.4389 59.018C94.4389 56.1623 96.1423 50.1002 96.994 47.2945C97.0942 46.9438 97.1443 46.6432 97.1443 46.3927C97.1443 45.5911 96.6934 45.1903 95.5912 45.1903C94.4389 45.1903 93.1363 45.6412 91.9339 47.7956C91.5331 45.8917 90.2305 45.0901 88.4269 45.0901C86.3727 45.0901 84.3687 46.4428 82.7154 48.5972C81.0621 50.7515 79.1082 51.4529 77.6553 51.1022C78.7074 48.5471 79.1082 46.5931 79.1082 45.1903C79.1082 42.9358 78.006 41.5831 76.2024 41.5831C73.497 41.5831 71.9439 44.1883 71.9439 46.8937C71.9439 48.998 72.8958 51.1523 75 52.2044C73.2465 56.1623 70.6914 59.7695 69.6894 59.7695C68.4369 59.7695 68.0361 53.6072 68.1363 49.1984C68.1864 46.6933 68.3868 46.543 68.3868 45.7915C68.3868 45.3406 68.0862 45.04 66.9339 45.04C64.2786 45.04 63.4269 47.2945 63.3267 49.8998C63.2766 50.9018 63.1263 51.8537 62.8758 52.8056C61.7735 56.7635 59.4689 59.8196 57.9659 59.8196C57.2645 59.8196 57.0641 59.1182 57.0641 58.2164C57.0641 55.3607 58.6673 51.7535 58.6673 48.6974C58.6673 46.4428 57.6653 45.04 55.8116 45.04C53.6072 45.04 50.7515 47.6453 47.996 52.505C48.8978 48.7976 49.2485 45.1903 46.5932 45.1903C45.992 45.1903 45.4409 45.3406 44.9399 45.6412C44.5892 45.7915 44.3888 46.1422 44.3888 46.543C44.6393 50.501 41.1824 60.6713 37.9258 60.6713C37.3246 60.6713 37.024 60.02 37.024 58.9679C37.024 56.1122 38.7275 50.0501 39.5792 47.2444C39.6794 46.8937 39.7295 46.5931 39.7295 46.2925C39.7295 45.541 39.2786 45.1402 38.1764 45.1402C37.024 45.1402 35.7214 45.5911 34.519 47.7455C34.0681 45.8416 32.8156 45.04 31.012 45.04C28.0561 45.04 24.7996 48.1463 23.3467 52.2044C21.3928 57.6152 17.5351 62.8757 12.2745 62.8757C7.51503 62.8757 5.01002 58.9178 5.01002 52.6553C5.01002 43.5871 11.6733 36.2224 16.5832 36.2224C18.9379 36.2224 20.0401 37.7254 20.0401 40.03C20.0401 42.8356 18.487 44.0881 18.487 45.1903C18.487 45.4909 18.7375 45.8416 19.2886 45.8416C21.4429 45.8416 23.9479 43.3366 23.9479 39.8797C23.9479 36.4228 21.2425 33.9679 16.3327 33.9679C8.16633 33.9679 0 42.1342 0 52.6553C0 61.022 4.10822 66.032 11.2224 66.032C16.0822 66.032 20.3407 62.2745 22.5952 57.8657C22.8457 61.523 24.499 63.4268 27.0541 63.4268C29.3086 63.4268 31.1122 62.0741 32.515 59.7194C33.0661 62.1743 34.4689 63.3767 36.3226 63.3767C38.4269 63.3767 40.2305 62.024 41.8838 59.5691C41.8838 61.523 42.2846 63.3767 43.988 63.3767C44.7896 63.3767 45.7415 63.1763 45.8918 62.4749C47.6954 55.1102 52.1042 49.0481 53.4569 49.0481C53.8577 49.0481 53.9579 49.4489 53.9579 49.8998C53.9579 51.9038 52.5551 56.012 52.5551 58.6172C52.5551 61.4729 53.7575 63.3266 56.2625 63.3266C59.018 63.3266 61.8236 59.9699 63.6774 55.01C64.2786 59.6192 65.5311 63.3266 67.485 63.3266C69.8898 63.3266 74.2485 58.2164 76.8537 52.8056C77.8557 52.9559 79.4088 52.9058 80.9118 51.8537C80.2605 53.4569 79.9098 55.2104 79.9098 56.9138C79.9098 61.9238 82.3146 63.3266 84.3687 63.3266C86.6232 63.3266 88.4269 61.9739 89.8297 59.6192C90.2806 61.7234 91.483 63.2765 93.6373 63.2765C96.994 63.2765 99.9499 59.8196 99.9499 56.9639C100 56.3627 99.6493 55.8617 99.2986 55.8617ZM29.1583 60.6212C27.8056 60.6212 27.2545 59.2685 27.2545 57.2144C27.2545 53.6573 29.7094 47.6954 32.2645 47.6954C33.3667 47.6954 33.8176 48.998 33.8176 50.6513C33.8176 54.2585 31.513 60.6212 29.1583 60.6212ZM75.9018 50C75.1002 49.0481 74.7996 47.6954 74.7996 46.543C74.7996 45.0901 75.3507 43.8877 75.9519 43.8877C76.5531 43.8877 76.8036 44.4889 76.8036 45.3907C76.7535 46.7935 76.2525 48.9479 75.9018 50ZM86.473 60.6212C85.1202 60.6212 84.5691 59.018 84.5691 57.2144C84.5691 53.7575 87.024 47.6954 89.5792 47.6954C90.6814 47.6954 91.0822 48.998 91.0822 50.6513C91.1323 54.2585 88.8778 60.6212 86.473 60.6212Z" fill="url(#paint4_radial_15381_206664)"/>
<path d="M99.2986 55.8617C99.1483 55.8617 98.998 55.9619 98.8978 56.2124C97.8958 59.1182 96.493 60.8717 95.3407 60.8717C94.6894 60.8717 94.4389 60.1202 94.4389 59.018C94.4389 56.1623 96.1423 50.1002 96.994 47.2945C97.0942 46.9438 97.1443 46.6432 97.1443 46.3927C97.1443 45.5911 96.6934 45.1903 95.5912 45.1903C94.4389 45.1903 93.1363 45.6412 91.9339 47.7956C91.5331 45.8917 90.2305 45.0901 88.4269 45.0901C86.3727 45.0901 84.3687 46.4428 82.7154 48.5972C81.0621 50.7515 79.1082 51.4529 77.6553 51.1022C78.7074 48.5471 79.1082 46.5931 79.1082 45.1903C79.1082 42.9358 78.006 41.5831 76.2024 41.5831C73.497 41.5831 71.9439 44.1883 71.9439 46.8937C71.9439 48.998 72.8958 51.1523 75 52.2044C73.2465 56.1623 70.6914 59.7695 69.6894 59.7695C68.4369 59.7695 68.0361 53.6072 68.1363 49.1984C68.1864 46.6933 68.3868 46.543 68.3868 45.7915C68.3868 45.3406 68.0862 45.04 66.9339 45.04C64.2786 45.04 63.4269 47.2945 63.3267 49.8998C63.2766 50.9018 63.1263 51.8537 62.8758 52.8056C61.7735 56.7635 59.4689 59.8196 57.9659 59.8196C57.2645 59.8196 57.0641 59.1182 57.0641 58.2164C57.0641 55.3607 58.6673 51.7535 58.6673 48.6974C58.6673 46.4428 57.6653 45.04 55.8116 45.04C53.6072 45.04 50.7515 47.6453 47.996 52.505C48.8978 48.7976 49.2485 45.1903 46.5932 45.1903C45.992 45.1903 45.4409 45.3406 44.9399 45.6412C44.5892 45.7915 44.3888 46.1422 44.3888 46.543C44.6393 50.501 41.1824 60.6713 37.9258 60.6713C37.3246 60.6713 37.024 60.02 37.024 58.9679C37.024 56.1122 38.7275 50.0501 39.5792 47.2444C39.6794 46.8937 39.7295 46.5931 39.7295 46.2925C39.7295 45.541 39.2786 45.1402 38.1764 45.1402C37.024 45.1402 35.7214 45.5911 34.519 47.7455C34.0681 45.8416 32.8156 45.04 31.012 45.04C28.0561 45.04 24.7996 48.1463 23.3467 52.2044C21.3928 57.6152 17.5351 62.8757 12.2745 62.8757C7.51503 62.8757 5.01002 58.9178 5.01002 52.6553C5.01002 43.5871 11.6733 36.2224 16.5832 36.2224C18.9379 36.2224 20.0401 37.7254 20.0401 40.03C20.0401 42.8356 18.487 44.0881 18.487 45.1903C18.487 45.4909 18.7375 45.8416 19.2886 45.8416C21.4429 45.8416 23.9479 43.3366 23.9479 39.8797C23.9479 36.4228 21.2425 33.9679 16.3327 33.9679C8.16633 33.9679 0 42.1342 0 52.6553C0 61.022 4.10822 66.032 11.2224 66.032C16.0822 66.032 20.3407 62.2745 22.5952 57.8657C22.8457 61.523 24.499 63.4268 27.0541 63.4268C29.3086 63.4268 31.1122 62.0741 32.515 59.7194C33.0661 62.1743 34.4689 63.3767 36.3226 63.3767C38.4269 63.3767 40.2305 62.024 41.8838 59.5691C41.8838 61.523 42.2846 63.3767 43.988 63.3767C44.7896 63.3767 45.7415 63.1763 45.8918 62.4749C47.6954 55.1102 52.1042 49.0481 53.4569 49.0481C53.8577 49.0481 53.9579 49.4489 53.9579 49.8998C53.9579 51.9038 52.5551 56.012 52.5551 58.6172C52.5551 61.4729 53.7575 63.3266 56.2625 63.3266C59.018 63.3266 61.8236 59.9699 63.6774 55.01C64.2786 59.6192 65.5311 63.3266 67.485 63.3266C69.8898 63.3266 74.2485 58.2164 76.8537 52.8056C77.8557 52.9559 79.4088 52.9058 80.9118 51.8537C80.2605 53.4569 79.9098 55.2104 79.9098 56.9138C79.9098 61.9238 82.3146 63.3266 84.3687 63.3266C86.6232 63.3266 88.4269 61.9739 89.8297 59.6192C90.2806 61.7234 91.483 63.2765 93.6373 63.2765C96.994 63.2765 99.9499 59.8196 99.9499 56.9639C100 56.3627 99.6493 55.8617 99.2986 55.8617ZM29.1583 60.6212C27.8056 60.6212 27.2545 59.2685 27.2545 57.2144C27.2545 53.6573 29.7094 47.6954 32.2645 47.6954C33.3667 47.6954 33.8176 48.998 33.8176 50.6513C33.8176 54.2585 31.513 60.6212 29.1583 60.6212ZM75.9018 50C75.1002 49.0481 74.7996 47.6954 74.7996 46.543C74.7996 45.0901 75.3507 43.8877 75.9519 43.8877C76.5531 43.8877 76.8036 44.4889 76.8036 45.3907C76.7535 46.7935 76.2525 48.9479 75.9018 50ZM86.473 60.6212C85.1202 60.6212 84.5691 59.018 84.5691 57.2144C84.5691 53.7575 87.024 47.6954 89.5792 47.6954C90.6814 47.6954 91.0822 48.998 91.0822 50.6513C91.1323 54.2585 88.8778 60.6212 86.473 60.6212Z" fill="url(#paint5_radial_15381_206664)"/>
</g>
<defs>
<linearGradient id="paint0_linear_15381_206664" x1="98.8934" y1="66.5858" x2="15.7086" y2="46.7894" gradientUnits="userSpaceOnUse">
<stop stop-color="#7D2AE7"/>
<stop offset="0.7708" stop-color="#7D2AE7"/>
<stop offset="1" stop-color="#7D2AE7" stop-opacity="0"/>
</linearGradient>
<radialGradient id="paint1_radial_15381_206664" cx="0" cy="0" r="1" gradientUnits="userSpaceOnUse" gradientTransform="translate(51.1935 69.5095) rotate(-45.8069) scale(30.1202 20.0174)">
<stop stop-color="#6420FF"/>
<stop offset="1" stop-color="#6420FF" stop-opacity="0"/>
</radialGradient>
<radialGradient id="paint2_radial_15381_206664" cx="0" cy="0" r="1" gradientUnits="userSpaceOnUse" gradientTransform="translate(2.39309 55.3228) rotate(5.08826) scale(58.6203 46.7216)">
<stop offset="0.25" stop-color="#00C4CC"/>
<stop offset="1" stop-color="#00C4CC" stop-opacity="0"/>
</radialGradient>
<radialGradient id="paint3_radial_15381_206664" cx="0" cy="0" r="1" gradientUnits="userSpaceOnUse" gradientTransform="translate(42.6747 66.0081) rotate(-38.8493) scale(37.7756 25.8298)">
<stop stop-color="#6420FF"/>
<stop offset="1" stop-color="#6420FF" stop-opacity="0"/>
</radialGradient>
<radialGradient id="paint4_radial_15381_206664" cx="0" cy="0" r="1" gradientUnits="userSpaceOnUse" gradientTransform="translate(5.60176 71.6039) rotate(-34.2673) scale(44.0374 30.1114)">
<stop stop-color="#6420FF"/>
<stop offset="1" stop-color="#6420FF" stop-opacity="0"/>
</radialGradient>
<radialGradient id="paint5_radial_15381_206664" cx="0" cy="0" r="1" gradientUnits="userSpaceOnUse" gradientTransform="translate(9.62152 36.906) rotate(12.4717) scale(87.0381 106.749)">
<stop stop-color="#00C4CC"/>
<stop offset="1" stop-color="#00C4CC" stop-opacity="0"/>
</radialGradient>
<clipPath id="clip0_15381_206664">
<rect width="100" height="32.0641" fill="white" transform="translate(0 33.9679)"/>
</clipPath>
</defs>
</svg>
