<svg width="100" height="100" viewBox="0 0 100 100" fill="none" xmlns="http://www.w3.org/2000/svg">
<g clip-path="url(#clip0_15397_208535)">
<path d="M90.8203 0H9.57031C4.39264 0 0.195312 4.19733 0.195312 9.375V90.625C0.195312 95.8027 4.39264 100 9.57031 100H90.8203C95.998 100 100.195 95.8027 100.195 90.625V9.375C100.195 4.19733 95.998 0 90.8203 0Z" fill="#05A6CF"/>
<path d="M70.9609 28.8984C74.9453 33 76.9414 39.0898 76.9414 47.1563V78.7461H61.7656V49.6211C61.7656 45.2461 60.8555 41.9805 59.043 39.8281C57.2305 37.6758 54.6016 36.5977 51.168 36.5977C47.3398 36.5977 44.293 37.8438 42.0234 40.3398C39.75 42.8359 38.6172 46.5469 38.6172 51.4687V78.75H23.4453V28.1797L37.9414 21.2578V30.0273C39.9492 27.7031 42.4453 25.9063 45.4258 24.6445C48.4062 23.3789 51.6836 22.7461 55.25 22.7461C61.7305 22.7461 66.9687 24.8008 70.957 28.8984" fill="white"/>
</g>
<defs>
<clipPath id="clip0_15397_208535">
<rect width="100" height="100" fill="white"/>
</clipPath>
</defs>
</svg>
