<svg width="101" height="100" viewBox="0 0 101 100" fill="none" xmlns="http://www.w3.org/2000/svg">
<path d="M16.3193 89.5078V10.3926H44.1826C52.8408 10.3926 60.1074 12.2822 66.1777 16.1641C72.1494 19.9453 76.7246 24.9219 79.7129 30.9922C82.7012 37.0625 84.2881 43.4316 84.2881 50C84.2881 56.668 82.7949 63.0361 79.71 69.0078C76.7246 75.0791 72.1465 79.9551 66.1748 83.8359C60.2031 87.6182 52.8379 89.6074 44.1797 89.6074H21.4951C19.999 89.5078 16.417 89.5078 16.3193 89.5078Z" fill="#080808"/>
<path d="M27.5625 28.2061H55.8271C58.2158 28.2061 60.2061 30.1963 60.2061 32.584C60.2061 34.9717 58.2139 36.9639 55.8271 36.9639H27.5625V28.2061Z" fill="#3DDC97"/>
<path d="M27.5625 62.8379H62.1973C64.585 62.8379 66.5752 64.8281 66.5752 67.2168C66.5752 69.6055 64.585 71.5957 62.1973 71.5957H27.5625V62.8379Z" fill="#F12A1F"/>
<path d="M27.5625 45.5225H47.1689C49.5566 45.5225 51.5469 47.5117 51.5469 49.9004C51.5469 52.2891 49.5566 54.2803 47.1689 54.2803H27.5625V45.5225Z" fill="#FFB400"/>
</svg>
