<svg width="100" height="100" viewBox="0 0 100 100" fill="none" xmlns="http://www.w3.org/2000/svg">
<g clip-path="url(#clip0_15910_61491)">
<g clip-path="url(#clip1_15910_61491)">
<path d="M97.8642 50.7887C99.4417 60.4647 91.0333 65.9154 82.5262 66.4788C77.1037 77.7464 58.0051 85.1971 41.4558 77.0845C34.4135 78.169 30.484 76.3943 27.498 73.014C33.5544 65.2253 51.8783 51.1971 74.2727 58.4366C86.2304 62.2957 89.329 53.2253 86.3149 49.8168C75.0473 37.014 49.5685 48.5492 48.6671 49.507C58.6671 34.2112 94.4417 29.9154 97.8642 50.7887Z" fill="#236BF5"/>
<path d="M63.5687 33.1971C63.5687 33.1971 55.4137 30.2816 43.9771 35.2393L42.5687 34.6478C53.6391 27.3238 63.3011 24.2252 71.5687 25.4365C66.5687 19.6759 42.5264 15.4365 28.7659 29.2393C11.7518 25.8872 -0.163715 40.3097 0.484172 53.4788C1.13206 66.6478 15.5687 74.9295 23.7518 72.6337C23.949 72.6055 24.1461 72.6055 24.3433 72.6337C26.1602 63.9295 33.5687 43.6759 63.5687 33.1971Z" fill="#236BF5"/>
</g>
</g>
<defs>
<clipPath id="clip0_15910_61491">
<rect width="100" height="60.5634" fill="white" transform="translate(0 20)"/>
</clipPath>
<clipPath id="clip1_15910_61491">
<rect width="100" height="60.5634" fill="white" transform="translate(0 20)"/>
</clipPath>
</defs>
</svg>
