<svg width="100" height="100" viewBox="0 0 100 100" fill="none" xmlns="http://www.w3.org/2000/svg">
<path d="M95.054 59.9581C97.0272 63.3233 98.0666 67.1413 98.0674 71.0279C98.0683 74.9144 97.0306 78.733 95.0589 82.099C93.0872 85.465 90.2509 88.2599 86.8352 90.2024C83.4194 92.1453 79.5452 93.167 75.6014 93.1656H25.3465C21.4033 93.1664 17.5293 92.1439 14.1143 90.201C10.6992 88.2579 7.86349 85.463 5.89224 82.0973C3.92097 78.7313 2.88371 74.9133 2.88477 71.027C2.88582 67.1404 3.92516 63.323 5.89824 59.9581L31.0278 17.074C32.9983 13.7092 35.8326 10.915 39.2463 8.97232C42.6597 7.02961 46.5323 6.00684 50.474 6.00684C54.4157 6.00684 58.2883 7.02961 61.7017 8.97232C65.1154 10.915 67.9497 13.7092 69.9203 17.074L95.054 59.9581ZM29.446 32.0235L37.1289 45.1616C37.584 45.9379 38.2386 46.5824 39.0266 47.0304C39.8149 47.4781 40.7086 47.7139 41.6186 47.7133H59.5689C60.4783 47.7133 61.372 47.4776 62.1603 47.0299C62.9483 46.5819 63.6029 45.9376 64.0583 45.1616L71.7203 32.0731L63.748 18.4552L53.5937 35.7867C53.2906 36.3056 52.854 36.7364 52.328 37.0359C51.802 37.3356 51.2051 37.4933 50.5977 37.4933C49.9903 37.4933 49.3934 37.3356 48.8677 37.0359C48.3417 36.7364 47.9052 36.3056 47.602 35.7867L37.414 18.418L29.446 32.0235ZM47.346 68.9941L38.3874 53.6724C37.9334 52.8956 37.28 52.2504 36.4926 51.8019C35.7052 51.3533 34.8117 51.1167 33.902 51.1167H18.4861L10.5138 64.7387H30.8852C31.4923 64.7393 32.0886 64.8973 32.6143 65.1967C33.14 65.4962 33.5766 65.9267 33.88 66.445C34.1837 66.9633 34.3434 67.551 34.3437 68.1493C34.3437 68.7479 34.1843 69.3359 33.8811 69.8541L23.7269 87.1856H39.6714L47.3374 74.1013C47.7923 73.3253 48.0326 72.445 48.034 71.5487C48.0354 70.6524 47.7983 69.7716 47.346 68.9941ZM70.2769 64.7387H90.644L82.6717 51.1167H67.2683C66.3589 51.1167 65.4654 51.3533 64.678 51.8019C63.8906 52.2504 63.2369 52.8956 62.7829 53.6724L53.8077 68.9941C53.352 69.7701 53.112 70.651 53.112 71.5476C53.112 72.4444 53.352 73.3253 53.8077 74.1013L61.4654 87.1856H77.41L67.2557 69.8541C66.9514 69.3339 66.792 68.7439 66.7932 68.1433C66.7943 67.5427 66.9566 66.953 67.2632 66.4342C67.5694 65.915 68.0097 65.485 68.5389 65.1873C69.068 64.8896 69.6674 64.735 70.2769 64.7387Z" fill="#EDEDED"/>
</svg>
