<svg width="100" height="100" viewBox="0 0 100 100" fill="none" xmlns="http://www.w3.org/2000/svg">
<path d="M68.7741 80.5521C60.6293 80.5521 52.9559 77.3972 47.168 71.67L30.2522 54.7541C28.2825 52.7844 27.2017 50.1649 27.2118 47.3804C27.2219 44.5959 28.3162 41.9831 30.296 40.0269C34.3431 36.0269 40.9121 36.0471 44.9357 40.0706L60.4273 55.5622C62.2421 57.377 65.2017 57.3838 67.0232 55.5791C67.9155 54.6969 68.4071 53.5218 68.4104 52.2659C68.4138 51.0134 67.929 49.8316 67.0401 48.946L50.1478 32.0538C45.4273 27.3838 39.1579 24.8114 32.5114 24.8316C25.7303 24.8484 19.4003 27.5117 14.6865 32.3299C9.966 37.1548 7.44074 43.5487 7.57542 50.3333C7.84142 63.8383 19.0535 74.8282 32.5687 74.8282C34.9862 74.8282 37.3734 74.4848 39.6663 73.808C41.1815 73.3602 42.7741 74.2255 43.2185 75.7407C43.6663 77.2558 42.801 78.8484 41.2859 79.2962C38.4677 80.1279 35.535 80.5521 32.5687 80.5521C15.9593 80.5521 2.18149 67.0471 1.85489 50.4477C1.6899 42.1144 4.79428 34.2592 10.5956 28.3299C16.3936 22.404 24.1714 19.1279 32.498 19.111C40.6293 19.0908 48.37 22.2457 54.1781 27.9932L71.0872 44.9023C73.0569 46.8753 74.1411 49.4949 74.1343 52.2828C74.1276 55.0706 73.03 57.6868 71.0502 59.6464C66.9963 63.6565 60.4172 63.6397 56.3835 59.606L40.8919 44.1144C39.0838 42.3063 36.1377 42.2996 34.3195 44.0942C33.4306 44.973 32.9391 46.1447 32.9357 47.3972C32.9323 48.6464 33.4172 49.8248 34.2993 50.707L51.1983 67.6094C55.902 72.2626 62.1478 74.8316 68.7741 74.8316C82.5451 74.8316 93.7606 63.6296 93.7741 49.8585C93.7808 43.1851 91.1815 36.9023 86.4542 32.1683C81.7269 27.4343 75.4475 24.8282 68.7741 24.8282C66.6461 24.8282 64.535 25.0942 62.4946 25.6228C62.1983 25.7003 61.902 25.7811 61.6091 25.8686C60.0939 26.3198 58.5014 25.4578 58.0502 23.9461C57.599 22.4309 58.4609 20.8383 59.9727 20.3871C60.333 20.2794 60.6966 20.1784 61.0603 20.0841C63.5653 19.4376 66.1613 19.1077 68.7707 19.1077C76.9727 19.1077 84.6899 22.3097 90.498 28.1245C96.3061 33.9393 99.5013 41.6599 99.4912 49.8619C99.4744 66.7844 85.6899 80.5487 68.7707 80.5487L68.7741 80.5521Z" fill="#006EB9"/>
</svg>
