<svg width="100" height="100" viewBox="0 0 100 100" fill="none" xmlns="http://www.w3.org/2000/svg">
<g clip-path="url(#clip0_15910_61480)">
<path fill-rule="evenodd" clip-rule="evenodd" d="M47.8794 25.1548V56.2299H22.1377L47.8794 25.1548Z" fill="#16140C"/>
<path fill-rule="evenodd" clip-rule="evenodd" d="M47.8794 14C47.8794 21.1087 42.1172 26.8708 35.0085 26.8708C27.8998 26.8708 22.1377 21.1087 22.1377 14H47.8794Z" fill="#16140C"/>
<path fill-rule="evenodd" clip-rule="evenodd" d="M52.1201 56.2281C52.1201 49.1194 57.8823 43.3574 64.991 43.3574C72.0996 43.3574 77.8592 49.1194 77.8592 56.2281H52.1201Z" fill="#16140C"/>
<path fill-rule="evenodd" clip-rule="evenodd" d="M52.1201 45.0777V14H77.8592L52.1201 45.0777Z" fill="#16140C"/>
<path fill-rule="evenodd" clip-rule="evenodd" d="M69.5848 77.5863C69.3123 75.8324 68.2647 74.5413 66.1694 74.5413C64.2222 74.5413 62.8729 75.6471 62.5132 77.5863H69.5848ZM66.4974 82.8167C68.1457 82.8167 69.3441 82.1394 70.0636 81.4304L71.8336 83.3379C70.6616 84.5389 69.0451 85.4306 66.5291 85.4306C62.2142 85.4306 59.4258 82.5707 59.4258 78.6923C59.4258 74.8482 62.3649 71.9565 66.1376 71.9565C70.4208 71.9565 72.8495 75.2159 72.6405 79.7399H62.5132C62.8729 81.6156 64.1904 82.8167 66.4974 82.8167Z" fill="#16140C"/>
<path fill-rule="evenodd" clip-rule="evenodd" d="M0 82.6729L7.79392 74.7547H0.1799V72.2705H11.4078V74.8049L3.61124 82.7259H11.511V85.2074H0V82.6729Z" fill="#16140C"/>
<path fill-rule="evenodd" clip-rule="evenodd" d="M23.3524 77.5863C23.0799 75.8324 22.0323 74.5413 19.9343 74.5413C17.9872 74.5413 16.6405 75.6471 16.2807 77.5863H23.3524ZM20.265 82.8167C21.9132 82.8167 23.1117 82.1394 23.8312 81.4304L25.5985 83.3379C24.4292 84.5389 22.8126 85.4306 20.2967 85.4306C15.9791 85.4306 13.1934 82.5707 13.1934 78.6923C13.1934 74.8482 16.1325 71.9565 19.9051 71.9565C24.1884 71.9565 26.617 75.2159 26.4054 79.7399H16.2807C16.6405 81.6156 17.958 82.8167 20.265 82.8167Z" fill="#16140C"/>
<path fill-rule="evenodd" clip-rule="evenodd" d="M54.1994 78.6761C54.1994 76.3744 52.4586 74.4854 50.0934 74.4854C47.7811 74.4854 45.9874 76.3214 45.9874 78.6761C45.9874 81.0306 47.7811 82.8957 50.0934 82.8957C52.4586 82.8957 54.1994 81.0042 54.1994 78.6761ZM43.2334 78.7025C43.2334 74.5621 46.3235 71.9721 49.731 71.9721C51.4453 71.9721 53.0829 72.7234 54.0433 73.9139V66.2788H56.7973V85.1736H54.0433V83.3851C53.0565 84.6551 51.4189 85.4302 49.7045 85.4302C46.4054 85.4302 43.2334 82.8163 43.2334 78.7025Z" fill="#16140C"/>
<path fill-rule="evenodd" clip-rule="evenodd" d="M74.4346 82.4302L76.9267 81.1365C77.6304 82.327 78.7734 83.0255 80.2548 83.0255C81.8131 83.0255 82.62 82.2238 82.62 81.3191C82.62 80.282 81.1121 80.0492 79.4745 79.7132C77.2654 79.2475 74.9796 78.5226 74.9796 75.8586C74.9796 73.8135 76.9267 71.9245 79.9956 71.951C82.411 71.951 84.2021 72.9061 85.218 74.4591L82.9031 75.7289C82.3079 74.8214 81.2946 74.2526 79.9956 74.2526C78.5141 74.2526 77.7601 74.9776 77.7601 75.8056C77.7601 76.7369 78.9559 76.9962 80.8264 77.4088C82.9586 77.8745 85.3741 78.573 85.3741 81.2662C85.3741 83.0519 83.8159 85.4594 80.1225 85.433C77.4215 85.433 75.5246 84.3456 74.4346 82.4302Z" fill="#16140C"/>
<path fill-rule="evenodd" clip-rule="evenodd" d="M92.8556 79.4272L90.673 81.8083V85.1735H87.9189V66.2812H90.673V78.6521L96.5198 72.2339H99.8717L94.8028 77.7711L100.001 85.1735H96.8822L92.8556 79.4272Z" fill="#16140C"/>
<path fill-rule="evenodd" clip-rule="evenodd" d="M34.9148 71.9707C31.6422 71.9707 28.9014 74.0925 28.9014 77.6112V85.1696H31.7057V77.963C31.7057 75.8386 32.9253 74.5687 35.0047 74.5687C37.0815 74.5687 38.1239 75.8386 38.1239 77.963V85.1696H40.9309V77.6112C40.9309 74.0925 38.1873 71.9707 34.9148 71.9707Z" fill="#16140C"/>
</g>
<defs>
<clipPath id="clip0_15910_61480">
<rect width="100" height="72.619" fill="white" transform="translate(0 14)"/>
</clipPath>
</defs>
</svg>
