<svg width="100" height="100" viewBox="0 0 100 100" fill="none" xmlns="http://www.w3.org/2000/svg">
<g clip-path="url(#clip0_15397_208495)">
<path d="M22.1046 49.2667C21.906 49.024 21.6634 48.8255 21.3986 48.671C21.1118 48.5166 20.7589 48.4284 20.3618 48.4284C19.9868 48.4284 19.6338 48.5166 19.347 48.671C19.0602 48.8255 18.9279 49.0681 18.9279 49.377C18.9279 49.6196 19.0161 49.8402 19.1705 49.9947C19.325 50.1491 19.5235 50.2815 19.7441 50.3697C19.9647 50.4579 20.2074 50.5462 20.45 50.5903C20.6927 50.6344 20.9133 50.6785 21.1118 50.7227C21.4648 50.8109 21.7957 50.8991 22.1046 51.0315C22.4134 51.1418 22.6781 51.3183 22.8987 51.4948C23.1193 51.6933 23.2958 51.9139 23.4282 52.2007C23.5606 52.4875 23.6267 52.8184 23.6267 53.2155C23.6267 53.7008 23.5164 54.12 23.3179 54.4509C23.1193 54.8038 22.8546 55.0686 22.5237 55.2892C22.1928 55.5098 21.8178 55.6642 21.4207 55.7524C21.0015 55.8407 20.5824 55.9069 20.1632 55.9069C19.4573 55.9069 18.8176 55.7966 18.2881 55.576C17.7587 55.3554 17.2733 54.9583 16.8542 54.3847L18.0896 53.3699C18.3543 53.6346 18.6411 53.8773 18.972 54.0759C19.3029 54.2744 19.7 54.3847 20.1632 54.3847C20.3618 54.3847 20.5824 54.3626 20.7809 54.3185C21.0015 54.2744 21.178 54.2082 21.3325 54.12C21.4869 54.0317 21.6192 53.9214 21.7295 53.767C21.8398 53.6346 21.884 53.4582 21.884 53.2817C21.884 53.039 21.8178 52.8405 21.6634 52.686C21.5089 52.5316 21.3325 52.3993 21.1118 52.311C20.8912 52.2228 20.6706 52.1566 20.45 52.0904C20.2074 52.0463 20.0088 51.9801 19.8323 51.958C19.4794 51.8698 19.1485 51.7816 18.8396 51.6713C18.5308 51.561 18.244 51.4286 18.0013 51.2301C17.7587 51.0536 17.5601 50.8109 17.4278 50.5462C17.2733 50.2594 17.2071 49.9285 17.2071 49.5093C17.2071 49.0681 17.2954 48.671 17.4939 48.3401C17.6704 48.0092 17.9351 47.7445 18.244 47.5239C18.5528 47.3033 18.9058 47.1489 19.3029 47.0386C19.7 46.9283 20.0971 46.8841 20.4942 46.8841C21.0677 46.8841 21.6192 46.9944 22.1487 47.2151C22.6781 47.4357 23.0973 47.7886 23.4061 48.296L22.1046 49.2667ZM24.3547 47.1048H25.8769V48.4504H25.921C25.9651 48.3401 26.0534 48.1857 26.2078 48.0092C26.3622 47.8327 26.5608 47.6563 26.7814 47.5018C27.024 47.3474 27.2888 47.193 27.6197 47.0827C27.9285 46.9724 28.2815 46.9062 28.6786 46.9062C29.3183 46.9062 29.8478 47.0386 30.289 47.3033C30.7302 47.568 31.0832 47.9651 31.3479 48.4946C31.6347 47.9651 32.0097 47.568 32.5171 47.3033C33.0245 47.0386 33.5319 46.9062 34.0613 46.9062C34.7231 46.9062 35.2747 47.0165 35.6938 47.2371C36.113 47.4577 36.4439 47.7445 36.6865 48.0975C36.9292 48.4504 37.0836 48.8475 37.1939 49.3108C37.2822 49.7741 37.3263 50.2373 37.3263 50.7227V55.7083H35.6938V50.9433C35.6938 50.6124 35.6717 50.3035 35.6276 49.9947C35.5835 49.6858 35.4953 49.4211 35.3629 49.2005C35.2305 48.9799 35.0541 48.7813 34.8114 48.649C34.5687 48.5166 34.2599 48.4504 33.8628 48.4504C33.0686 48.4504 32.5171 48.6931 32.1862 49.1784C31.8553 49.6638 31.6788 50.2815 31.6788 51.0315V55.7083H30.0463V51.2301C30.0463 50.8109 30.0243 50.4359 29.9801 50.105C29.936 49.7741 29.8478 49.4652 29.7375 49.2226C29.6051 48.9799 29.4286 48.7813 29.186 48.649C28.9433 48.5166 28.6345 48.4504 28.2374 48.4504C27.9506 48.4504 27.6638 48.5166 27.3991 48.6269C27.1343 48.7372 26.8917 48.9137 26.6931 49.1343C26.4946 49.3549 26.3181 49.6638 26.2078 50.0167C26.0975 50.3697 26.0313 50.7888 26.0313 51.2742V55.7304H24.3989L24.3547 47.1048ZM38.5175 48.1637C38.9808 47.7445 39.5103 47.4357 40.1059 47.2151C40.7015 46.9944 41.3192 46.9062 41.9148 46.9062C42.5325 46.9062 43.0841 46.9944 43.5253 47.1489C43.9665 47.3033 44.3415 47.5239 44.6283 47.7886C44.9151 48.0534 45.1357 48.3622 45.268 48.6931C45.4004 49.0461 45.4666 49.399 45.4666 49.7741V54.142C45.4666 54.4509 45.4666 54.7156 45.4886 54.9803C45.5107 55.223 45.5107 55.4657 45.5328 55.7083H44.0768C44.0326 55.2671 44.0327 54.848 44.0327 54.4068H43.9885C43.6356 54.9583 43.1944 55.3554 42.709 55.576C42.2237 55.7966 41.6501 55.9289 40.9883 55.9289C40.5912 55.9289 40.2162 55.8848 39.8412 55.7745C39.4882 55.6642 39.1573 55.5098 38.8926 55.2892C38.6278 55.0686 38.4072 54.8038 38.2528 54.495C38.0984 54.1862 38.0102 53.8111 38.0102 53.392C38.0102 52.8405 38.1425 52.3772 38.3852 52.0022C38.6278 51.6271 38.9808 51.3183 39.4 51.0977C39.8191 50.855 40.3265 50.7006 40.9001 50.5903C41.4736 50.48 42.0913 50.4359 42.7311 50.4359H43.9224V50.0829C43.9224 49.8623 43.8782 49.6417 43.79 49.4211C43.7017 49.2005 43.5694 49.002 43.415 48.8255C43.2385 48.649 43.0399 48.5166 42.7752 48.4063C42.5325 48.296 42.2237 48.2519 41.8707 48.2519C41.5619 48.2519 41.2751 48.274 41.0545 48.3401C40.8118 48.4063 40.6133 48.4725 40.4147 48.5607C40.2162 48.649 40.0397 48.7593 39.8853 48.8696C39.7309 48.9799 39.5764 49.1123 39.4441 49.2226L38.5175 48.1637ZM43.1061 51.561C42.7311 51.561 42.334 51.583 41.9148 51.6271C41.5178 51.6713 41.1427 51.7595 40.8118 51.8698C40.4809 51.9801 40.2162 52.1566 39.9956 52.3772C39.775 52.5978 39.6867 52.8625 39.6867 53.2155C39.6867 53.7008 39.8632 54.0759 40.1941 54.2744C40.525 54.495 40.9663 54.6053 41.5398 54.6053C41.981 54.6053 42.3561 54.5391 42.687 54.3847C42.9958 54.2303 43.2605 54.0317 43.437 53.7891C43.6356 53.5464 43.7679 53.2817 43.8562 52.9949C43.9444 52.7081 43.9885 52.3993 43.9885 52.1125V51.561H43.1061ZM64.8577 49.2667C64.6592 49.024 64.4165 48.8255 64.1518 48.671C63.865 48.5166 63.512 48.4284 63.1149 48.4284C62.7178 48.4284 62.3869 48.5166 62.1002 48.671C61.8134 48.8255 61.681 49.0681 61.681 49.377C61.681 49.6196 61.7693 49.8402 61.9237 49.9947C62.0781 50.1491 62.2766 50.2815 62.4972 50.3697C62.7178 50.4579 62.9605 50.5462 63.2032 50.5903C63.4458 50.6344 63.6664 50.6785 63.865 50.7227C64.218 50.8109 64.5489 50.8991 64.8577 51.0315C65.1666 51.1418 65.4313 51.3183 65.6519 51.4948C65.8725 51.6933 66.049 51.9139 66.1813 52.2007C66.3137 52.4875 66.3799 52.8184 66.3799 53.2155C66.3799 53.7008 66.2696 54.12 66.071 54.4509C65.8725 54.8038 65.6078 55.0686 65.2769 55.2892C64.946 55.5098 64.5709 55.6642 64.1738 55.7524C63.7547 55.8407 63.3355 55.9069 62.9164 55.9069C62.2105 55.9069 61.5707 55.7966 61.0413 55.576C60.5118 55.3554 60.0265 54.9583 59.6073 54.3847L60.8427 53.3699C61.1074 53.6346 61.3942 53.8773 61.7251 54.0759C62.056 54.2744 62.4531 54.3847 62.9164 54.3847C63.1149 54.3847 63.3355 54.3626 63.5341 54.3185C63.7547 54.2744 63.9312 54.2082 64.0856 54.12C64.24 54.0317 64.3724 53.9214 64.4827 53.767C64.593 53.6346 64.6371 53.4582 64.6371 53.2817C64.6371 53.039 64.5709 52.8405 64.4165 52.686C64.2621 52.5316 64.0856 52.3993 63.865 52.311C63.6444 52.2228 63.4238 52.1566 63.2032 52.0904C62.9605 52.0463 62.762 51.9801 62.5855 51.958C62.2325 51.8698 61.9016 51.7816 61.5928 51.6713C61.2839 51.561 60.9971 51.4286 60.7545 51.2301C60.5118 51.0536 60.3133 50.8109 60.1809 50.5462C60.0265 50.2594 59.9603 49.9285 59.9603 49.5093C59.9603 49.0681 60.0485 48.671 60.2471 48.3401C60.4236 48.0092 60.6883 47.7445 60.9971 47.5239C61.306 47.3033 61.6589 47.1489 62.056 47.0386C62.4531 46.9283 62.8502 46.8841 63.2473 46.8841C63.8209 46.8841 64.3724 46.9944 64.9018 47.2151C65.4313 47.4357 65.8504 47.7886 66.1593 48.296L64.8577 49.2667ZM67.1741 42.0088H68.8065V48.4284H68.8507C69.0492 47.9651 69.4022 47.5901 69.9096 47.3254C70.4169 47.0386 70.9905 46.9062 71.6744 46.9062C72.0935 46.9062 72.4686 46.9724 72.8657 47.1048C73.2407 47.2371 73.5716 47.4357 73.8584 47.7004C74.1452 47.9651 74.3658 48.296 74.5422 48.7152C74.7187 49.1343 74.7849 49.6196 74.7849 50.1932V55.7083H73.1524V50.6344C73.1524 50.2373 73.1083 49.9064 72.998 49.6196C72.8877 49.3329 72.7553 49.1123 72.5568 48.9358C72.3803 48.7593 72.1597 48.6269 71.9391 48.5607C71.6964 48.4725 71.4538 48.4504 71.2111 48.4504C70.8802 48.4504 70.5493 48.4946 70.2625 48.6049C69.9757 48.7152 69.711 48.8916 69.5125 49.1123C69.2919 49.3549 69.1154 49.6417 69.0051 50.0167C68.8948 50.3697 68.8286 50.8109 68.8286 51.2962V55.7083H67.1961L67.1741 42.0088ZM77.3439 52.0022C77.3439 52.3772 77.4322 52.7081 77.5866 53.017C77.741 53.3258 77.9616 53.5905 78.2263 53.8111C78.4911 54.0317 78.7999 54.2082 79.1529 54.3185C79.5058 54.4288 79.8588 54.495 80.2338 54.495C80.7412 54.495 81.1824 54.3847 81.5575 54.142C81.9325 53.8994 82.2855 53.5905 82.5943 53.2155L83.8297 54.1641C82.9252 55.3333 81.6678 55.9289 80.0353 55.9289C79.3514 55.9289 78.7558 55.8186 78.2043 55.576C77.6528 55.3554 77.1895 55.0245 76.8145 54.6274C76.4395 54.2303 76.1527 53.7449 75.9321 53.1934C75.7335 52.6419 75.6232 52.0463 75.6232 51.4065C75.6232 50.7668 75.7335 50.1712 75.9541 49.6196C76.1747 49.0681 76.4836 48.6049 76.8807 48.1857C77.2777 47.7886 77.741 47.4577 78.2925 47.2371C78.844 47.0165 79.4176 46.8841 80.0574 46.8841C80.8074 46.8841 81.4692 47.0165 81.9766 47.2812C82.5061 47.546 82.9252 47.8989 83.2782 48.3181C83.6091 48.7372 83.8518 49.2226 84.0062 49.7741C84.1606 50.3035 84.2268 50.855 84.2268 51.4065V51.9801L77.3439 52.0022ZM82.4619 50.7006C82.4399 50.3476 82.3958 50.0167 82.2855 49.7079C82.1752 49.399 82.0207 49.1343 81.8222 48.9137C81.6236 48.6931 81.3589 48.5166 81.0501 48.3843C80.7412 48.2519 80.3883 48.1857 79.9691 48.1857C79.572 48.1857 79.197 48.2519 78.8661 48.4063C78.5352 48.5607 78.2484 48.7593 78.0278 49.002C77.8072 49.2446 77.6307 49.5093 77.4983 49.7961C77.366 50.0829 77.2998 50.3918 77.2998 50.6785L82.4619 50.7006ZM86.852 52.0022C86.852 52.3772 86.9402 52.7081 87.0946 53.017C87.2491 53.3258 87.4697 53.5905 87.7344 53.8111C87.9991 54.0317 88.308 54.2082 88.6609 54.3185C89.0139 54.4288 89.3669 54.495 89.7419 54.495C90.2493 54.495 90.6905 54.3847 91.0655 54.142C91.4405 53.8994 91.7935 53.5905 92.1024 53.2155L93.3378 54.1641C92.4333 55.3333 91.1758 55.9289 89.5434 55.9289C88.8595 55.9289 88.2638 55.8186 87.7123 55.576C87.1608 55.3554 86.6976 55.0245 86.3225 54.6274C85.9475 54.2303 85.6607 53.7449 85.4401 53.1934C85.2416 52.6419 85.1313 52.0463 85.1313 51.4065C85.1313 50.7668 85.2416 50.1712 85.4622 49.6196C85.6828 49.0681 85.9916 48.6049 86.3887 48.1857C86.7858 47.7886 87.2491 47.4577 87.8006 47.2371C88.3521 47.0165 88.9257 46.8841 89.5654 46.8841C90.3155 46.8841 90.9773 47.0165 91.4847 47.2812C92.0141 47.546 92.4333 47.8989 92.7862 48.3181C93.1171 48.7372 93.3598 49.2226 93.5142 49.7741C93.6687 50.3035 93.7348 50.855 93.7348 51.4065V51.9801L86.852 52.0022ZM91.9921 50.7006C91.97 50.3476 91.9259 50.0167 91.8156 49.7079C91.7053 49.399 91.5509 49.1343 91.3523 48.9137C91.1538 48.6931 90.889 48.5166 90.5802 48.3843C90.2713 48.2519 89.9184 48.1857 89.4992 48.1857C89.1021 48.1857 88.7271 48.2519 88.3962 48.4063C88.0653 48.5607 87.7785 48.7593 87.5579 49.002C87.3373 49.2446 87.1608 49.5093 87.0285 49.7961C86.8961 50.0829 86.8299 50.3918 86.8299 50.6785L91.9921 50.7006ZM51.842 47.1268C51.842 47.1268 50.8714 46.9944 50.364 47.0386C49.7463 47.0827 49.5257 47.1709 49.1948 47.3474C48.9742 47.4798 48.7756 47.6342 48.5992 47.8327C48.4227 48.0092 48.2683 48.2298 48.158 48.4504H48.1138V47.1268H46.4814V55.7083H48.1138C48.1138 55.7083 48.0697 52.1787 48.1138 51.3183C48.158 50.4579 48.3124 49.5535 48.7536 49.1343C49.2169 48.7152 49.4375 48.6269 49.989 48.5387C50.5184 48.4725 51.2023 48.5387 51.2023 48.5387L51.842 47.1268ZM57.8425 54.3185C57.6439 54.3626 57.4454 54.3626 57.2469 54.3626C56.938 54.3626 56.6953 54.2965 56.5409 54.1862C56.3865 54.0759 56.2541 53.9214 56.188 53.7229C56.0997 53.5464 56.0556 53.3258 56.0556 53.0831C56.0335 52.8405 56.0335 52.6199 56.0335 52.3772V48.4946H58.3719V47.0827H56.0335V44.7002H54.4011V47.1048H52.7686L52.1509 48.5166H54.4011V52.9949C54.4011 53.3479 54.4231 53.7008 54.4452 54.0317C54.4672 54.3847 54.5775 54.6935 54.732 54.9583C54.8864 55.2451 55.1511 55.4657 55.482 55.6421C55.835 55.8186 56.3203 55.9069 56.938 55.9069C57.1145 55.9069 57.3351 55.8848 57.6439 55.8407C57.9528 55.7966 58.1955 55.7304 58.394 55.6201V54.142C58.2396 54.2303 58.041 54.2965 57.8425 54.3185ZM99.4485 54.3185C99.2499 54.3626 99.0514 54.3626 98.8529 54.3626C98.544 54.3626 98.3013 54.2965 98.1469 54.1862C97.9925 54.0759 97.8601 53.9214 97.794 53.7229C97.7057 53.5464 97.6616 53.3258 97.6616 53.0831C97.6395 52.8405 97.6395 52.6199 97.6395 52.3772V48.4946H99.9779V47.0827H97.6395V44.7002H96.0071V47.1048H94.3746L93.7569 48.5166H96.0071V52.9949C96.0071 53.3479 96.0291 53.7008 96.0512 54.0317C96.0732 54.3847 96.1835 54.6935 96.338 54.9583C96.4924 55.2451 96.7571 55.4657 97.088 55.6421C97.441 55.8186 97.9263 55.9069 98.544 55.9069C98.7205 55.9069 98.9411 55.8848 99.2499 55.8407C99.5588 55.7966 99.8015 55.7304 100 55.6201V54.142C99.8235 54.2303 99.647 54.2965 99.4485 54.3185ZM2.05162 50.2815C2.05162 50.2815 2.62519 49.4652 3.39731 49.4432C4.58857 49.4211 5.55923 51.561 5.71366 51.8698C7.03728 48.9137 9.22127 46.4209 10.9861 44.7443H0.110302C0.110302 45.7591 0.132363 56.1054 0.132363 56.9437C0.132363 57.6055 0.0441209 58.0909 0 58.3115C0.48533 58.2453 2.31635 57.9144 4.16942 57.2526C7.47849 56.0613 8.78006 54.8038 8.78006 54.7818L8.8683 54.6935L8.91242 54.8038C8.91242 54.8038 9.33157 55.7304 9.72866 56.2157C10.1919 56.7452 10.4346 56.8113 10.567 56.7672C10.7434 56.701 10.8758 56.4143 10.9199 55.9069C10.964 55.4215 11.0082 54.2965 11.0082 52.9508V45.6929C7.83146 49.6196 5.47099 55.5318 5.47099 55.5318C5.47099 55.5318 3.9047 50.2373 2.05162 50.2815Z" fill="#003059"/>
</g>
<defs>
<clipPath id="clip0_15397_208495">
<rect width="100" height="16.32" fill="white" transform="translate(0 42)"/>
</clipPath>
</defs>
</svg>
