<svg width="100" height="100" viewBox="0 0 100 100" fill="none" xmlns="http://www.w3.org/2000/svg">
<g clip-path="url(#clip0_15397_208490)">
<path d="M95.679 60.9L77.015 81.813L93.355 50.768C93.8398 49.8481 94.1276 48.8373 94.2 47.8L96.79 55.492C97.0979 56.4113 97.1573 57.3957 96.9622 58.3455C96.7671 59.2952 96.3244 60.1764 95.679 60.9ZM67.454 92.529C66.8188 93.2377 66.0108 93.7698 65.1088 94.0734C64.2067 94.3769 63.2414 94.4415 62.307 94.2609L36.328 89.193L69.866 87.493C70.7817 87.4454 71.6808 87.2291 72.518 86.8549L67.454 92.531V92.529ZM16.546 82.508L7.77897 56.471L26.416 85.871C26.8134 86.4956 27.301 87.058 27.863 87.54L20.696 86.14C19.7454 85.9532 18.861 85.5187 18.1322 84.8804C17.4035 84.2421 16.8563 83.4227 16.546 82.505V82.508ZM4.32097 37.5079L22.985 16.594L6.64497 47.639C6.16195 48.5603 5.87589 49.5721 5.80497 50.61L3.21497 42.9179C2.90677 41.9993 2.84675 41.0155 3.04096 40.0662C3.23518 39.1169 3.67675 38.2358 4.32097 37.512V37.5079ZM32.546 5.87895C33.1807 5.16958 33.9886 4.63693 34.8907 4.33302C35.7928 4.0291 36.7583 3.96431 37.693 4.14495L63.673 9.21395L30.135 10.914C29.2193 10.9623 28.3204 11.1786 27.483 11.552L32.546 5.87795V5.87895ZM82.885 32.679L90.578 44.815C91.0074 45.4961 91.2505 46.2781 91.283 47.0827C91.3155 47.8873 91.1362 48.6864 90.763 49.4L83 64.158V33.858C82.9991 33.4607 82.9616 33.0643 82.888 32.674L82.885 32.679ZM17.115 65.729L9.42197 53.593C8.99062 52.911 8.74651 52.1274 8.71421 51.3211C8.6819 50.5148 8.86255 49.7142 9.23797 49L17 34.25V64.55C17.0009 64.9472 17.0384 65.3436 17.112 65.734L17.115 65.729ZM80.067 64.545C80.0652 65.1726 79.8994 65.7889 79.5859 66.3327C79.2724 66.8765 78.8222 67.3289 78.28 67.645L51.8 82.976C51.2541 83.2906 50.6351 83.4563 50.005 83.4563C49.3749 83.4563 48.7558 83.2906 48.21 82.976L21.721 67.646C21.1781 67.3304 20.7274 66.8782 20.4137 66.3343C20.1 65.7904 19.9342 65.1738 19.933 64.546V33.8619C19.934 33.234 20.0997 32.6174 20.4134 32.0734C20.7271 31.5295 21.178 31.0773 21.721 30.762L48.205 15.432C48.7507 15.1169 49.3698 14.951 50 14.951C50.6301 14.951 51.2492 15.1169 51.795 15.432L78.28 30.761C78.8227 31.0765 79.2733 31.5288 79.5868 32.0727C79.9004 32.6166 80.0659 33.2331 80.067 33.861V64.545ZM71.11 14.1L80.287 28.577C80.113 28.452 79.935 28.332 79.747 28.223L53.263 12.9C53.139 12.829 53.014 12.762 52.887 12.7L67.006 11.984C67.8161 11.9444 68.6222 12.12 69.3424 12.4931C70.0625 12.8662 70.671 13.4234 71.106 14.108L71.11 14.1ZM30.283 13.839L46.527 13.015L20.253 28.225C20.213 28.249 20.175 28.275 20.135 28.299L26.459 16.284C26.8308 15.5809 27.3785 14.9863 28.0488 14.5581C28.719 14.1299 29.4888 13.8828 30.283 13.841V13.839ZM28.89 84.305L19.713 69.827C19.8868 69.9541 20.067 70.0723 20.253 70.181L46.737 85.512C46.861 85.583 46.986 85.651 47.113 85.712L32.994 86.428C32.184 86.4667 31.3782 86.2907 30.6582 85.9177C29.9381 85.5447 29.3295 84.9879 28.894 84.3039L28.89 84.305ZM69.717 84.5659L53.473 85.39L79.747 70.181C79.787 70.159 79.826 70.132 79.865 70.108L73.541 82.1219C73.1693 82.8252 72.6216 83.42 71.9513 83.8484C71.2811 84.2767 70.5113 84.524 69.717 84.5659ZM83.454 15.9L92.221 41.936L73.584 12.536C73.1866 11.9107 72.6983 11.3481 72.135 10.867L79.304 12.267C80.2543 12.4535 81.1386 12.8877 81.8673 13.5256C82.596 14.1636 83.1433 14.9826 83.454 15.9ZM99.562 54.555L86.231 14.964C85.755 13.5562 84.9156 12.2991 83.7978 11.3199C82.6799 10.3408 81.3232 9.67431 79.865 9.38795L38.254 1.26995C36.8208 0.993693 35.3405 1.09332 33.9573 1.55912C32.5741 2.02493 31.3351 2.84103 30.361 3.92795L2.13497 35.562C1.14638 36.6715 0.468507 38.0225 0.169978 39.4783C-0.128551 40.9341 -0.0371363 42.4429 0.434967 43.852L13.77 83.443C14.2456 84.8508 15.0847 86.1079 16.2025 87.0871C17.3202 88.0663 18.6768 88.7327 20.135 89.019L61.747 97.137C62.2741 97.2395 62.8099 97.2911 63.347 97.2909C64.5357 97.291 65.711 97.0406 66.7965 96.5561C67.882 96.0716 68.8532 95.3638 69.647 94.479L97.865 62.845C98.8535 61.7354 99.5313 60.3843 99.8298 58.9286C100.128 57.4728 100.037 55.964 99.565 54.555H99.562Z" fill="#0B1F41"/>
</g>
<defs>
<clipPath id="clip0_15397_208490">
<rect width="100" height="100" fill="white"/>
</clipPath>
</defs>
</svg>
