<svg width="100" height="101" viewBox="0 0 100 101" fill="none" xmlns="http://www.w3.org/2000/svg">
<path d="M45.9756 99.3899C18.5976 99.3899 0 77.0728 0 53.3533C0 29.268 18.9634 8.47527 44.2073 7.49966C45.1829 7.43869 46.0366 8.29234 46.0366 9.26795V16.646C46.0366 17.5606 45.3049 18.3533 44.3293 18.4143C25.7927 19.268 10.8537 34.4509 10.8537 53.4143C10.8537 71.9509 25.4878 88.5362 45.9756 88.5362C65.9146 88.5362 80.061 72.6216 80.9146 55.0606C80.9756 54.146 81.7073 53.3533 82.6829 53.3533H90.061C91.0366 53.3533 91.8293 54.146 91.8293 55.1826C90.9756 78.5972 72.1341 99.3899 45.9756 99.3899Z" fill="#1856ED"/>
<path d="M46.037 74.9998C33.8418 74.9998 24.3906 65.3047 24.3906 53.3535C24.3906 42.195 32.9882 32.8657 44.1467 31.951C45.1833 31.8901 46.037 32.6828 46.037 33.7193V41.0974C46.037 41.951 45.4272 42.7437 44.5126 42.8657C39.1467 43.5974 35.2443 48.1706 35.2443 53.4145C35.2443 59.2681 39.8175 64.2071 46.037 64.2071C51.2199 64.2071 55.854 60.3047 56.5858 54.9389C56.7077 54.0852 57.5004 53.4145 58.354 53.4145H65.7321C66.7687 53.4145 67.5614 54.2681 67.5004 55.3047C66.5248 66.2193 57.3784 74.9998 46.037 74.9998Z" fill="#1856ED"/>
<path d="M88.5364 44.3292C87.6828 26.4634 73.4145 11.7073 55.0608 10.8536C54.1462 10.7927 53.3535 10.0609 53.3535 9.08534V1.76829C53.3535 0.792683 54.1462 0 55.1828 0C79.0242 0.914635 98.4755 20 99.3901 44.2073C99.4511 45.1829 98.5974 46.0366 97.6218 46.0366H90.2438C89.3901 46.0366 88.5974 45.3048 88.5364 44.3292Z" fill="#FF9E1A"/>
<path d="M55.3658 35.4267C54.2683 35.2437 53.4756 34.3291 53.4756 33.4145V26.2193C53.4756 25.1828 54.3292 24.3901 55.3658 24.451C65.9756 25.3657 74.1463 33.8413 75.061 44.0852C75.1219 45.1218 74.3292 45.9754 73.2927 45.9754H65.5488C64.8171 45.9754 64.2683 45.4876 64.1463 44.7559C63.5975 40.4267 60.3049 36.2803 55.3658 35.4267Z" fill="#FF9E1A"/>
</svg>
