<svg width="100" height="101" viewBox="0 0 100 101" fill="none" xmlns="http://www.w3.org/2000/svg">
<g clip-path="url(#clip0_15381_206663)">
<path d="M16.2843 40.8565C18.57 31.9994 24.57 24.2851 32.57 19.7137L24.8557 6.5708C13.4272 13.4279 5.14146 24.2851 1.71289 37.1422L16.2843 40.8565Z" fill="black"/>
<path d="M40.8569 16.2857C43.714 15.4286 46.8569 15.1429 49.9997 15.1429V0C45.714 0 41.4283 0.571429 37.1426 1.71429L40.8569 16.2857Z" fill="black"/>
<path d="M59.1436 16.2862C68.0007 18.5719 75.715 24.5719 80.2864 32.5719L93.4293 25.1433C86.8578 13.7148 76.0007 5.42906 63.1436 2.00049L59.1436 16.2862Z" fill="black"/>
<path d="M0 49.9996C0 54.2853 0.571429 58.571 1.71429 62.8567L16.2857 58.8567C15.4286 55.9996 15.1429 52.8567 15.1429 49.7139L0 49.9996Z" fill="black"/>
<path d="M6.57129 75.1434C8.857 78.8577 11.4284 82.2863 14.5713 85.4291L25.1427 74.8577C22.857 72.572 21.1427 70.2863 19.7141 67.7148L6.57129 75.1434Z" fill="black"/>
<path d="M24.8574 93.4289C32.5717 97.7146 41.1431 100 49.7146 100V85.1432C43.7146 85.1432 37.4289 83.4289 32.286 80.5718L24.8574 93.4289Z" fill="black"/>
<path d="M80.2864 67.4287C75.715 75.4287 68.0007 81.143 59.1436 83.7144L63.1436 98.2859C76.0007 94.8573 86.8578 86.5716 93.4293 75.143L80.2864 67.4287Z" fill="black"/>
<path d="M98.2853 63.4287C100.571 54.8573 100.571 46.0001 98.2853 37.4287L83.7139 41.4287C85.4282 47.4287 85.4282 53.7144 83.7139 59.7144L98.2853 63.4287Z" fill="black"/>
</g>
<defs>
<clipPath id="clip0_15381_206663">
<rect width="100" height="100" fill="white"/>
</clipPath>
</defs>
</svg>
