<svg width="100" height="100" viewBox="0 0 100 100" fill="none" xmlns="http://www.w3.org/2000/svg">
<path d="M21.667 77.426C23.7781 78.7408 27.2966 80.213 31.0188 80.213C34.4077 80.213 37.5466 79.2315 40.1577 77.5556C40.1577 77.5556 40.167 77.5556 40.167 77.5464L50.0003 71.4075V93.6112C48.4448 93.6112 46.8707 93.1852 45.5096 92.3334L21.667 77.426Z" fill="#225086"/>
<path d="M43.7503 9.15743L2.86144 55.2686C-0.295964 58.8334 0.52811 64.2223 4.6207 66.7778C4.6207 66.7778 19.7503 76.2315 21.6577 77.426C23.7688 78.7408 27.2874 80.213 31.0096 80.213C34.3985 80.213 37.5374 79.2315 40.1485 77.5556C40.1485 77.5556 40.1577 77.5556 40.1577 77.5463L50.0003 71.4074L26.2133 56.5371L50.0096 29.6945V6.38892C47.6948 6.38892 45.3892 7.31484 43.7503 9.15743Z" fill="#66DDFF"/>
<path d="M26.2129 56.5372L26.4907 56.7131L49.9999 71.4075H50.0092V29.7038L49.9999 29.6946L26.2129 56.5372Z" fill="#CBF8FF"/>
<path d="M95.3796 66.7779C99.4722 64.2223 100.296 58.8334 97.1389 55.2686L70.3148 25.0094C68.1481 24.0001 65.7222 23.426 63.1574 23.426C58.1111 23.426 53.6111 25.602 50.6111 29.0186L50.0185 29.6853L73.7963 56.5279L50 71.3982V93.602C51.5648 93.602 53.1204 93.176 54.4907 92.3242L95.3796 66.7779Z" fill="#074793"/>
<path d="M50.0088 6.38892V29.6945L50.6014 29.0278C53.6014 25.6111 58.1106 23.4352 63.1477 23.4352C65.7218 23.4352 68.1384 24.0185 70.3051 25.0185L56.2495 9.15743C54.6199 7.31484 52.3051 6.39818 50.0088 6.38892Z" fill="#0294E4"/>
<path d="M73.7958 56.5369L50.0088 29.7036V71.3981L73.7958 56.5369Z" fill="#96BCC2"/>
</svg>
