<svg width="100" height="100" viewBox="0 0 100 100" fill="none" xmlns="http://www.w3.org/2000/svg">
<path d="M35.915 67.7302V64.0198H38.2632V64.6824H36.6412V65.5251H38.0405V66.1718H36.6412V67.0676H38.2844V67.7302H35.915Z" fill="black"/>
<path d="M33.6061 67.7939C33.2457 67.7939 32.9259 67.7125 32.6467 67.55C32.3676 67.384 32.1485 67.1578 31.9895 66.8716C31.8305 66.5818 31.751 66.2496 31.751 65.8751C31.751 65.5005 31.8305 65.1701 31.9895 64.8839C32.1485 64.5941 32.3658 64.368 32.6414 64.2054C32.9206 64.0393 33.2404 63.9563 33.6008 63.9563C33.8552 63.9563 34.092 64.0022 34.3111 64.0941C34.5302 64.1824 34.721 64.3079 34.8836 64.4704C35.0496 64.6295 35.1769 64.8132 35.2652 65.0217L34.5921 65.2708C34.532 65.14 34.4525 65.027 34.3535 64.9315C34.2546 64.8326 34.1415 64.7566 34.0143 64.7036C33.8871 64.6471 33.7492 64.6188 33.6008 64.6188C33.3853 64.6188 33.1927 64.6736 33.0231 64.7831C32.857 64.8891 32.7262 65.0358 32.6308 65.2231C32.539 65.4104 32.493 65.6277 32.493 65.8751C32.493 66.1225 32.5407 66.3416 32.6361 66.5323C32.7316 66.7196 32.8641 66.868 33.0336 66.9775C33.2033 67.0835 33.3976 67.1366 33.6167 67.1366C33.7686 67.1366 33.9065 67.1083 34.0301 67.0518C34.1574 66.9917 34.2687 66.9105 34.3641 66.808C34.4631 66.7055 34.5426 66.5871 34.6026 66.4528L35.2758 66.6966C35.1875 66.9122 35.0602 67.1031 34.8941 67.2691C34.7316 67.4352 34.5408 67.5642 34.3217 67.656C34.1026 67.748 33.8641 67.7939 33.6061 67.7939Z" fill="black"/>
<path d="M27.7637 67.7302V64.0198H28.5217L30.3344 66.511V64.0198H31.0553V67.7302H30.3344L28.4898 65.1912V67.7302H27.7637Z" fill="black"/>
<path d="M25.3794 67.8044C25.0719 67.8044 24.8051 67.7443 24.579 67.6241C24.3529 67.504 24.1779 67.3361 24.0543 67.1206C23.9341 66.9015 23.874 66.6435 23.874 66.3467V64.0198H24.6002V66.3467C24.6002 66.5057 24.632 66.6453 24.6956 66.7654C24.7628 66.882 24.8546 66.9722 24.9712 67.0358C25.0914 67.0994 25.2309 67.1312 25.3899 67.1312C25.549 67.1312 25.6868 67.0994 25.8034 67.0358C25.9235 66.9722 26.0154 66.882 26.079 66.7654C26.1462 66.6453 26.1798 66.5057 26.1798 66.3467V64.0198H26.9059V66.3467C26.9059 66.6435 26.8424 66.9015 26.7151 67.1206C26.5914 67.3361 26.4148 67.504 26.185 67.6241C25.9589 67.7443 25.6904 67.8044 25.3794 67.8044Z" fill="black"/>
<path d="M21.3451 67.794C20.9706 67.794 20.6384 67.7128 20.3486 67.5502C20.0624 67.3841 19.8381 67.1579 19.6755 66.8717C19.5129 66.5819 19.4316 66.2515 19.4316 65.8805C19.4316 65.5024 19.5129 65.1703 19.6755 64.884C19.8381 64.5943 20.0606 64.3681 20.3433 64.2055C20.6296 64.043 20.9582 63.9617 21.3292 63.9617C21.7038 63.9617 22.0325 64.0448 22.3151 64.2108C22.6014 64.3733 22.8258 64.5995 22.9883 64.8893C23.1509 65.1755 23.2321 65.5059 23.2321 65.8805C23.2321 66.2515 23.1509 66.5819 22.9883 66.8717C22.8293 67.1579 22.6067 67.3841 22.3205 67.5502C22.0377 67.7128 21.7126 67.794 21.3451 67.794ZM21.3451 67.1314C21.5713 67.1314 21.7692 67.0784 21.9388 66.9724C22.112 66.8628 22.2462 66.7144 22.3416 66.5272C22.4406 66.3398 22.4901 66.1243 22.4901 65.8805C22.4901 65.6331 22.4406 65.4158 22.3416 65.2285C22.2427 65.0413 22.1066 64.8946 21.9335 64.7886C21.7604 64.679 21.559 64.6243 21.3292 64.6243C21.1066 64.6243 20.907 64.679 20.7303 64.7886C20.5571 64.8946 20.4211 65.0413 20.3221 65.2285C20.2232 65.4158 20.1737 65.6331 20.1737 65.8805C20.1737 66.1243 20.2232 66.3398 20.3221 66.5272C20.4211 66.7144 20.5589 66.8628 20.7356 66.9724C20.9123 67.0784 21.1155 67.1314 21.3451 67.1314Z" fill="black"/>
<path d="M16.2979 67.7302V64.0198H17.5541C17.8085 64.0198 18.0311 64.0586 18.2219 64.1364C18.4128 64.2141 18.5612 64.3325 18.6672 64.4915C18.7732 64.647 18.8262 64.8414 18.8262 65.0746C18.8262 65.2194 18.7891 65.3538 18.7149 65.4774C18.6442 65.5975 18.5435 65.7018 18.4128 65.7901C18.5859 65.8785 18.7184 65.9969 18.8103 66.1453C18.9057 66.2902 18.9534 66.4651 18.9534 66.67C18.9534 66.8962 18.9022 67.0888 18.7997 67.2478C18.6972 67.4068 18.5541 67.5269 18.3704 67.6083C18.1866 67.6895 17.971 67.7302 17.7237 67.7302H16.2979ZM17.0081 67.0888H17.6548C17.8279 67.0888 17.964 67.0464 18.0629 66.9616C18.1619 66.8732 18.2114 66.7566 18.2114 66.6118C18.2114 66.4598 18.1566 66.3414 18.047 66.2566C17.9374 66.1683 17.7873 66.1241 17.5964 66.1241H17.0081V67.0888ZM17.0081 65.5304H17.5699C17.729 65.5304 17.8544 65.4898 17.9463 65.4085C18.0382 65.3273 18.0841 65.2124 18.0841 65.0639C18.0841 64.9155 18.0329 64.8007 17.9304 64.7194C17.8279 64.6382 17.6884 64.5975 17.5117 64.5975H17.0081V65.5304Z" fill="black"/>
<path d="M12.0928 67.7302V64.0198H12.8508L14.6636 66.511V64.0198H15.3844V67.7302H14.6636L12.819 65.1912V67.7302H12.0928Z" fill="black"/>
<path d="M9.70852 67.8044C9.40102 67.8044 9.13427 67.7443 8.9081 67.6241C8.68193 67.504 8.50702 67.3361 8.38335 67.1206C8.2632 66.9015 8.20312 66.6435 8.20312 66.3467V64.0198H8.92927V66.3467C8.92927 66.5057 8.9611 66.6453 9.02468 66.7654C9.09185 66.882 9.18377 66.9722 9.30035 67.0358C9.42052 67.0994 9.5601 67.1312 9.7191 67.1312C9.8781 67.1312 10.0159 67.0994 10.1325 67.0358C10.2527 66.9722 10.3445 66.882 10.4082 66.7654C10.4753 66.6453 10.5089 66.5057 10.5089 66.3467V64.0198H11.235V66.3467C11.235 66.6435 11.1714 66.9015 11.0442 67.1206C10.9205 67.3361 10.7438 67.504 10.5142 67.6241C10.288 67.7443 10.0194 67.8044 9.70852 67.8044Z" fill="black"/>
<path d="M5.00487 66.1983L4.32109 66.0234L5.51372 64.0198H6.34061L5.00487 66.1983ZM4.29989 67.7302V65.9492H5.02607V67.7302H4.29989ZM4.32109 66.1983L2.98535 64.0198H3.81224L5.00487 66.0234L4.32109 66.1983Z" fill="black"/>
<path d="M0 67.7302V64.0198H1.25623C1.51066 64.0198 1.73328 64.0586 1.9241 64.1364C2.11492 64.2141 2.26333 64.3325 2.36935 64.4915C2.47536 64.647 2.52837 64.8414 2.52837 65.0746C2.52837 65.2194 2.49126 65.3538 2.41705 65.4774C2.34638 65.5975 2.24567 65.7018 2.11492 65.7901C2.28807 65.8785 2.42058 65.9969 2.51247 66.1453C2.60787 66.2902 2.65558 66.4651 2.65558 66.67C2.65558 66.8962 2.60434 67.0888 2.50186 67.2478C2.39938 67.4068 2.25627 67.5269 2.07252 67.6083C1.88877 67.6895 1.67321 67.7302 1.42585 67.7302H0ZM0.710274 67.0888H1.35694C1.53009 67.0888 1.66614 67.0464 1.76508 66.9616C1.86402 66.8732 1.9135 66.7566 1.9135 66.6118C1.9135 66.4598 1.85872 66.3414 1.74918 66.2566C1.63964 66.1683 1.48946 66.1241 1.29863 66.1241H0.710274V67.0888ZM0.710274 65.5304H1.27213C1.43115 65.5304 1.5566 65.4898 1.64848 65.4085C1.74035 65.3273 1.78628 65.2124 1.78628 65.0639C1.78628 64.9155 1.73505 64.8007 1.63257 64.7194C1.53009 64.6382 1.39052 64.5975 1.21382 64.5975H0.710274V65.5304Z" fill="black"/>
<path fill-rule="evenodd" clip-rule="evenodd" d="M99.7818 54.0816C99.7818 53.3433 99.3568 52.9406 98.9618 52.9406C98.5118 52.9406 98.2893 53.313 97.9501 53.881C97.5926 54.4805 97.1051 55.2978 96.0826 56.1249C95.8368 54.3128 95.6201 52.2992 95.6201 50.3528C95.6201 48.1499 95.9393 46.3143 96.1701 44.9854C96.3009 44.2317 96.4034 43.6406 96.4034 43.2384C96.4034 42.2988 95.7251 41.8961 95.1951 41.8961C94.1293 41.8961 92.3168 43.0743 91.7801 44.2079C91.2134 45.2818 90.8551 49.9128 90.8551 52.5678C90.8551 53.6714 90.6093 54.8796 89.6468 54.8796C88.6851 54.8796 88.2601 53.8057 88.2601 50.3528C88.2601 48.1498 88.5943 46.3141 88.8359 44.9853C88.9726 44.2313 89.0801 43.6406 89.0801 43.2384C89.0801 42.2988 88.3718 41.8961 87.7976 41.8961C86.7309 41.8961 84.9484 43.0743 84.3818 44.2079C83.8826 45.2818 83.5243 49.9128 83.5243 52.5678C83.5243 53.0525 83.5618 53.5298 83.6143 53.9847C83.6143 54.0219 83.6218 54.0518 83.6284 54.0816C83.6809 54.5589 83.1963 54.8796 82.7787 54.8796C81.9584 54.8796 81.5705 53.8057 81.5705 50.3528C81.5705 48.1473 82.4134 42.2693 83.0224 38.0226L83.0225 38.0215C83.3668 35.6205 83.6359 33.741 83.6359 33.3424C83.6359 32.4027 82.8905 32 82.3536 32C81.2872 32 79.475 33.1783 78.9381 34.282C78.4011 35.3932 76.8425 49.9203 76.8425 52.5678C76.8425 52.7318 76.8425 52.8884 76.8574 53.045C76.8499 53.9473 75.9999 54.8796 74.6799 54.8796C73.7924 54.8796 73.0765 53.8057 73.0765 50.3528C73.0765 48.9434 73.3599 46.3258 73.6805 43.7083C75.1422 43.4771 76.0669 43.2086 76.671 42.6343C76.9917 42.3286 77.5584 40.8222 77.5584 39.987C77.5584 39.6514 77.454 39.2487 77.0588 39.2487C76.5844 39.2487 75.9787 39.495 75.3544 39.7488C74.9481 39.9141 74.5339 40.0825 74.1429 40.1883C74.4636 37.9734 74.7097 36.1986 74.7097 35.7586C74.7097 34.8189 74.0012 34.4162 73.427 34.4162C72.3606 34.4162 70.5782 35.587 70.0114 36.6982C69.7952 37.1009 69.5118 39.2188 69.2284 41.732C67.9458 42.2317 67.021 42.7388 67.021 43.1042C67.021 43.9096 67.9458 44.0737 68.9749 44.1109C68.5871 47.6309 68.3335 51.2925 68.3335 52.605V52.784C68.3709 53.9324 68.3335 54.887 67.5878 54.887C66.9464 54.887 66.3424 54.1114 66.3424 51.7325C66.3424 50.6029 66.4517 49.6033 66.5554 48.6555C66.6488 47.8013 66.7376 46.989 66.7376 46.1618C66.7376 43.8798 66.1336 41.9035 63.3967 41.9035C61.6516 41.9035 60.1601 43.0445 59.2354 44.2899C59.5119 41.6897 59.9073 38.8335 60.2052 36.6812C60.4455 34.9446 60.6225 33.6662 60.6225 33.3498C60.6225 32.4102 59.914 32.0075 59.4144 32.0075C58.3479 32.0075 56.5358 33.1857 55.9989 34.2895C55.447 35.3708 54.2165 49.1597 54.1494 54.5067C54.1494 55.4662 53.6846 55.7314 53.1514 56.0357C53.092 56.0696 53.0317 56.104 52.9711 56.1398C52.725 54.3948 52.5088 52.4857 52.5088 50.3678C52.5088 48.1648 52.8579 46.329 53.1106 45.0002C53.254 44.2463 53.3664 43.6555 53.3664 43.2533C53.3664 42.3137 52.6206 41.911 52.0837 41.911C51.3379 41.911 50.2715 42.4778 49.5258 43.1564C49.2051 42.5151 48.4966 41.911 46.7889 41.911C44.0893 41.911 39.9951 44.2601 39.9951 51.2105C39.9951 52.1352 40.1219 53.1718 40.4053 54.1562C40.1741 54.5514 39.9056 54.8945 39.4284 54.8945C38.608 54.8945 38.2202 53.8206 38.2202 50.3678C38.2202 48.1648 38.5542 46.329 38.7959 45.0002C38.933 44.2464 39.0405 43.6555 39.0405 43.2533C39.0405 42.3137 38.3321 41.911 37.7579 41.911C36.6914 41.911 34.9091 43.1191 34.3796 44.2228C33.8427 45.2967 33.4922 49.9278 33.4922 52.6125C33.4922 55.6998 34.6332 58.1833 37.9741 58.1833C39.652 58.1833 40.7781 57.3331 41.4791 56.3934C42.2547 57.4524 43.3808 58.1833 44.9469 58.1833C46.2295 58.1833 47.5048 57.7134 48.5041 56.811C48.5294 56.9161 48.557 57.0255 48.5853 57.1377C48.6734 57.4877 48.7683 57.8648 48.8248 58.2205C48.4049 58.3681 47.9851 58.5113 47.5699 58.6528C43.9354 59.8921 40.6439 61.0143 40.6439 63.9926C40.6439 65.8421 42.3517 67.8854 46.1923 67.8854C52.5609 67.8854 53.6274 63.8583 53.6274 61.7404C53.6274 60.935 53.4857 59.794 53.2694 58.4517C53.7094 58.1982 54.0898 57.9371 54.4328 57.6836C54.567 58.0042 54.7759 58.1833 55.089 58.1833C58.43 58.1833 59.0714 56.7439 59.0714 55.8341C59.0714 55.1054 59.0584 54.5835 59.0478 54.1542C59.0404 53.8542 59.034 53.5992 59.034 53.3507C59.034 50.1292 59.3174 45.2296 61.4875 45.2296C62.1289 45.2296 62.3079 45.8337 62.3079 46.736C62.3079 47.5287 62.1616 48.549 62.013 49.5853C61.8596 50.6548 61.7039 51.7414 61.7039 52.6125C61.7039 55.6998 62.8747 58.1833 66.1485 58.1833C67.7444 58.1833 68.8332 57.4524 69.5416 56.5873C70.3321 57.5643 71.5403 58.1833 73.2629 58.1833C75.3138 58.1833 76.6859 56.9528 77.4466 55.8043C78.0879 57.2361 79.3035 58.1833 81.3394 58.1833C82.8533 58.1833 83.9126 57.4823 84.6209 56.647C85.3293 57.5941 86.4251 58.1833 88.0284 58.1833C89.6318 58.1833 90.8401 57.348 91.5118 56.3711L91.9368 58.2131C91.5168 58.3607 91.0968 58.5038 90.6818 58.6453C87.0468 59.8846 83.7559 61.0068 83.7559 63.9852C83.7559 65.8346 85.4634 67.8779 89.3043 67.8779C95.6726 67.8779 96.7393 63.8509 96.7393 61.733C96.7393 60.9276 96.5976 59.7866 96.3809 58.4443C99.2601 56.7663 99.7968 55.0213 99.7968 54.0816H99.7818ZM48.4295 50.8451C48.3251 51.8369 48.1014 52.5081 47.6763 53.2016C47.281 53.843 46.6099 54.268 45.8567 54.3501C45.2974 54.4098 43.8059 54.447 43.8059 50.2932C43.8059 48.22 44.7231 46.378 46.0208 45.5577C49.2247 43.5288 48.6217 49.0708 48.4407 50.7343L48.4295 50.8376V50.8451ZM46.8485 65.0218C45.8865 65.0218 44.9618 64.4177 44.9618 63.2096C44.9618 61.9343 47.199 60.9947 49.1976 60.2564C49.302 60.9276 49.3394 61.5614 49.3394 62.0686C49.3394 63.478 48.3773 65.0218 46.8485 65.0218ZM89.9601 65.0218C88.9984 65.0218 88.0734 64.4177 88.0734 63.2096C88.0734 61.9343 90.3109 60.9947 92.3093 60.2564C92.4134 60.9276 92.4509 61.5614 92.4509 62.0686C92.4509 63.478 91.4893 65.0218 89.9601 65.0218Z" fill="#F95616"/>
<path d="M37.2431 40.9413C36.214 40.9413 35.1924 40.5461 35.1924 38.2044C35.1924 36.1312 37.2805 35.1543 38.5184 35.1543C39.652 35.1543 40.6438 35.654 40.6438 36.959C40.6438 39.6064 38.66 40.9338 37.2431 40.9338V40.9413Z" fill="#F95616"/>
<path d="M22.2213 57.0814C23.3302 57.8956 24.899 58.4664 26.7064 58.4664C30.2786 58.4664 32.747 56.9899 32.747 54.0144C32.747 51.6854 30.5965 50.2564 28.6387 48.9555C28.4212 48.811 28.2061 48.6681 27.9966 48.5256C27.2657 48.026 26.52 47.3474 26.0203 46.5644C25.7518 46.1467 25.5654 45.744 25.5654 45.3264C25.5654 44.5508 26.08 44.0809 26.96 44.0884C28.1979 44.0959 28.8243 45.2518 29.0853 46.3704C29.1599 46.6985 29.2122 47.0267 29.2271 47.325C29.2792 48.1602 29.4657 48.6674 30.0623 48.6748C30.9124 48.6823 32.8439 47.2728 32.8588 45.5129C32.8588 45.0206 32.6724 44.506 32.3368 44.0214C31.7775 43.2159 30.8006 42.4851 29.5477 42.0674C28.8617 41.8363 28.0935 41.6946 27.2657 41.6871C24.7898 41.6648 22.9031 42.4329 22.135 44.0064C21.8963 44.4911 21.7696 45.0504 21.7621 45.6844C21.7472 47.2206 22.5675 48.369 23.6862 49.2714C24.0915 49.6002 24.5186 49.9276 24.9445 50.2541C25.9289 51.0088 26.9067 51.7584 27.5938 52.5079C28.1756 53.1493 28.5559 53.7906 28.5559 54.4394C28.5559 55.2896 28.004 55.8116 27.0271 55.8116C25.4312 55.8116 24.7451 54.0889 24.5437 52.7168C24.5235 52.5817 24.5093 52.4467 24.4958 52.3172C24.4944 52.3036 24.493 52.2902 24.4916 52.2768C24.4244 51.3595 24.2156 50.8002 23.5519 50.8002C22.6122 50.8002 20.4943 52.3737 20.4943 54.3052C20.4943 54.4961 20.5202 54.6899 20.5701 54.8843C19.8517 54.7918 19.4502 54.0447 19.4502 52.0157C19.4502 50.8334 19.5985 49.7039 19.7433 48.6C19.8817 47.5454 20.017 46.5141 20.017 45.4829C20.017 43.5067 19.4502 41.9332 17.2428 41.9332C15.289 41.9332 13.1562 44.148 12.3432 45.8857C12.4492 45.2133 12.6215 44.6359 12.7696 44.1393C12.9237 43.6224 13.0517 43.193 13.0517 42.8355C13.0517 42.0301 12.664 41.6274 11.8809 41.6274C10.7474 41.6274 8.18947 42.7013 7.8688 44.2749C7.65253 45.0429 7.54812 45.647 7.51084 51.1432C7.49615 52.0753 7.40925 53.0074 7.3283 53.8755L7.3244 53.9174C7.17525 54.4021 6.93661 54.8943 5.98205 54.8943C5.16173 54.8943 4.77394 53.8204 4.77394 50.3676C4.77394 48.1645 5.1079 46.3289 5.34965 44.9999C5.4868 44.2461 5.59426 43.6554 5.59426 43.2532C5.59426 42.3135 4.8858 41.9108 4.31158 41.9108C3.24515 41.9108 1.46282 43.1189 0.933338 44.2226C0.3964 45.2965 0.0458984 49.9276 0.0458984 52.6123C0.0458984 55.6997 1.1869 58.183 4.52785 58.183C5.63901 58.183 6.50408 57.8102 7.1678 57.2807C7.24982 57.8474 7.4661 58.183 7.94337 58.183C11.2843 58.183 11.9257 56.7438 11.9257 55.8339C11.9257 50.472 13.1711 46.3182 14.588 46.3182C15.1921 46.3182 15.4083 46.9223 15.4083 47.7948C15.4083 48.5235 15.2844 49.4408 15.1564 50.3879C15.0199 51.3984 14.8788 52.4428 14.8788 53.3282C14.8788 56.341 16.4449 58.1905 19.2862 58.1905C20.5704 58.1905 21.5284 57.7156 22.2213 57.0814Z" fill="#F95616"/>
<path d="M3.79655 40.9413C2.76741 40.9413 1.73828 40.5461 1.73828 38.2044C1.73828 36.1312 3.82638 35.1543 5.07178 35.1543C6.20531 35.1543 7.19716 35.654 7.19716 36.959C7.19716 39.6064 5.21347 40.9338 3.79655 40.9338V40.9413Z" fill="#F95616"/>
</svg>
