<svg width="100" height="100" viewBox="0 0 100 100" fill="none" xmlns="http://www.w3.org/2000/svg">
<g clip-path="url(#clip0_15384_206896)">
<mask id="mask0_15384_206896" style="mask-type:luminance" maskUnits="userSpaceOnUse" x="-1" y="38" width="21" height="24">
<path d="M0.849357 55.6748L5.16136 53.1777L9.49153 55.6709L9.49785 60.6528L0.849357 55.6748ZM5.71757 52.8557L9.76096 50.519L13.8092 52.8557L9.77149 55.1886L5.71757 52.8557ZM10.0486 55.6717L18.9703 50.5178V55.5029L10.0555 60.6531L10.0486 55.6717ZM5.43926 47.703L9.48183 45.3611V50.0368L5.43926 52.3734V47.703ZM10.0397 50.0364V45.3603L14.0887 47.6985V52.3746L10.0397 50.0364ZM0.557295 45.2164L4.88222 47.7044V52.6958L0.570221 55.1926L0.557295 45.2164ZM0.835198 44.7338L9.48183 39.7352V44.7171L5.16013 47.2208L0.835198 44.7338ZM10.0397 44.7168V39.7352L18.6794 44.7236L14.3675 47.2163L10.0397 44.7168ZM9.64203 38.9997L0.138591 44.4934L0.117542 44.5047L-0.000976562 44.7098L0.0135934 55.6764V55.6998L0.132934 55.9053L9.63973 61.3767L9.66037 61.3888L9.89661 61.3884L19.3883 55.9049L19.4089 55.8932L19.5275 55.6881V49.983L19.1545 49.7681L14.6462 52.3722V47.6978L19.4209 44.9387V44.5079L9.90012 39.0119L9.87948 38.9997H9.64203Z" fill="white"/>
</mask>
<g mask="url(#mask0_15384_206896)">
<path d="M19.5273 38.9997H-0.000976562V61.389H19.5273V38.9997Z" fill="url(#paint0_linear_15384_206896)"/>
</g>
<path d="M28.1449 54.8039H27.1727V58.0743H26.3763V54.8039H25.4199V54.1422H28.1449V54.8039Z" fill="#173159"/>
<path d="M29.4468 55.4089C29.5169 55.3126 29.6087 55.2344 29.7148 55.1804C29.8209 55.1264 29.9383 55.0983 30.0573 55.0983C30.1739 55.0915 30.2903 55.1135 30.3963 55.1625C30.5023 55.2115 30.5946 55.286 30.6649 55.3792C30.8207 55.6294 30.8944 55.9221 30.8755 56.2162V58.0743H30.1085V56.2243C30.1185 56.0954 30.0909 55.9664 30.0289 55.853C29.9991 55.8136 29.9598 55.7825 29.9147 55.7624C29.8696 55.7423 29.8201 55.734 29.7709 55.7382C29.7045 55.7373 29.6391 55.7547 29.5819 55.7886C29.5247 55.8225 29.478 55.8715 29.4468 55.9302V58.0743H28.6826V53.9261H29.4468V55.4089Z" fill="#173159"/>
<path d="M32.6319 58.1283C32.4628 58.1381 32.2935 58.1119 32.1352 58.0515C31.9769 57.991 31.8333 57.8976 31.7137 57.7775C31.478 57.4979 31.3599 57.1378 31.3843 56.7729V56.5405C31.3599 56.1608 31.4667 55.7842 31.6867 55.4738C31.7918 55.3478 31.9249 55.2482 32.0755 55.183C32.226 55.1178 32.3898 55.0889 32.5535 55.0985C32.7097 55.0876 32.8662 55.1138 33.0103 55.175C33.1544 55.2361 33.282 55.3305 33.3827 55.4504C33.5894 55.7571 33.6891 56.1235 33.6662 56.4927V56.8673H32.146C32.1416 57.0372 32.1918 57.204 32.2892 57.3433C32.339 57.3962 32.4 57.4372 32.4678 57.4632C32.5355 57.4893 32.6083 57.4998 32.6807 57.4939C32.7997 57.4969 32.918 57.4752 33.0282 57.4301C33.1384 57.385 33.238 57.3175 33.3207 57.2318L33.6205 57.6936C33.5148 57.8327 33.3742 57.9413 33.2128 58.0084C33.03 58.0894 32.8319 58.1302 32.6319 58.1283ZM32.1512 56.3353H32.9156V56.2652C32.9206 56.1277 32.8909 55.9911 32.8292 55.868C32.7992 55.822 32.7571 55.7852 32.7076 55.7614C32.6581 55.7376 32.603 55.7278 32.5483 55.7331C32.4915 55.7288 32.4346 55.7398 32.3835 55.765C32.3324 55.7902 32.289 55.8287 32.2579 55.8764C32.1857 56.0185 32.1491 56.1759 32.1512 56.3353Z" fill="#173159"/>
<path d="M36.5166 58.0743H35.7227V54.1422H36.5167L36.5166 58.0743Z" fill="#173159"/>
<path d="M37.0984 56.5243C37.0724 56.1508 37.1568 55.7779 37.3412 55.4521C37.4188 55.3372 37.5247 55.2442 37.6486 55.1823C37.7726 55.1203 37.9105 55.0914 38.049 55.0983C38.1592 55.098 38.2679 55.1243 38.3657 55.1751C38.4635 55.2259 38.5476 55.2997 38.6107 55.39V53.9261H39.3803V58.0743H38.6863L38.6511 57.7774C38.5896 57.8835 38.5014 57.9717 38.3953 58.0332C38.2892 58.0947 38.1688 58.1275 38.0462 58.1282C37.9091 58.1349 37.7725 58.1062 37.6498 58.0448C37.527 57.9833 37.4222 57.8912 37.3454 57.7774C37.1638 57.4651 37.0779 57.1063 37.0984 56.7456V56.5243ZM37.8653 56.716C37.851 56.9215 37.8823 57.1276 37.957 57.3196C37.9865 57.3753 38.0316 57.4211 38.0868 57.4516C38.142 57.482 38.2048 57.4956 38.2677 57.4909C38.3381 57.493 38.4077 57.4751 38.4685 57.4393C38.5292 57.4034 38.5785 57.3511 38.6107 57.2884V55.9542C38.5815 55.8887 38.5336 55.8333 38.473 55.7949C38.4125 55.7565 38.342 55.7367 38.2703 55.7382C38.2081 55.7345 38.1462 55.7486 38.0917 55.7787C38.0372 55.8089 37.9924 55.8539 37.9625 55.9085C37.8833 56.0998 37.85 56.307 37.8653 56.5135V56.716Z" fill="#173159"/>
<path d="M41.1505 58.1283C40.9814 58.1381 40.812 58.1119 40.6538 58.0514C40.4955 57.991 40.3518 57.8976 40.2323 57.7775C39.9966 57.4979 39.8784 57.1378 39.9028 56.7729V56.5405C39.8785 56.1608 39.9853 55.7842 40.2053 55.4738C40.3103 55.3478 40.4435 55.2482 40.594 55.183C40.7446 55.1178 40.9084 55.0889 41.0721 55.0985C41.2283 55.0876 41.3848 55.1138 41.5289 55.175C41.673 55.2361 41.8006 55.3305 41.9013 55.4504C42.108 55.7571 42.2076 56.1235 42.1848 56.4927V56.8673H40.6644C40.66 57.0372 40.7102 57.204 40.8076 57.3433C40.8574 57.3962 40.9184 57.4372 40.9862 57.4632C41.054 57.4893 41.1267 57.4998 41.1991 57.4939C41.3181 57.4969 41.4365 57.4752 41.5466 57.4301C41.6568 57.385 41.7564 57.3175 41.8391 57.2318L42.1389 57.6936C42.0332 57.8327 41.8925 57.9414 41.7311 58.0084C41.5483 58.0893 41.3504 58.1302 41.1505 58.1283ZM40.6698 56.3351H41.4341V56.2651C41.4391 56.1275 41.4094 55.9909 41.3477 55.8679C41.3176 55.8219 41.2756 55.785 41.2261 55.7612C41.1766 55.7375 41.1215 55.7277 41.0669 55.733C41.01 55.7286 40.9531 55.7396 40.902 55.7648C40.8509 55.79 40.8075 55.8285 40.7764 55.8762C40.7042 56.0183 40.6677 56.1757 40.6698 56.3351Z" fill="#173159"/>
<path d="M43.4538 55.1524L43.4754 55.4413C43.5518 55.3331 43.6535 55.2453 43.7717 55.1855C43.8899 55.1257 44.0209 55.0958 44.1533 55.0984C44.6555 55.0984 44.9138 55.4504 44.9283 56.1543V58.0744H44.1613V56.2111C44.1706 56.0863 44.1449 55.9615 44.0871 55.8506C44.057 55.8111 44.0171 55.7799 43.9715 55.7603C43.9258 55.7406 43.8759 55.733 43.8265 55.7382C43.7576 55.7388 43.6903 55.7592 43.6328 55.7971C43.5753 55.835 43.53 55.8887 43.5024 55.9518V58.0744H42.7354V55.1524H43.4538Z" fill="#173159"/>
<path d="M46.5032 54.4339V55.1524H46.8949V55.725H46.5032V57.1774C46.4957 57.2596 46.5121 57.3423 46.5505 57.4154C46.5736 57.4398 46.6022 57.4584 46.6339 57.4696C46.6656 57.4809 46.6995 57.4845 46.7329 57.4802C46.7937 57.4816 46.8545 57.4753 46.9137 57.4613L46.9083 58.0554C46.7734 58.1048 46.6307 58.1294 46.487 58.1281C45.9936 58.1281 45.7443 57.8452 45.739 57.2794V55.725H45.4014V55.1524H45.739V54.4339H46.5032Z" fill="#173159"/>
<path d="M47.4524 54.3963C47.4505 54.3425 47.4595 54.2889 47.4791 54.2387C47.4986 54.1885 47.5282 54.1429 47.566 54.1046C47.6497 54.0314 47.7572 53.991 47.8685 53.991C47.9797 53.991 48.0872 54.0314 48.1709 54.1046C48.2087 54.1429 48.2382 54.1886 48.2577 54.2387C48.2772 54.2889 48.2862 54.3425 48.2842 54.3963C48.2853 54.4516 48.2753 54.5065 48.2549 54.5579C48.2345 54.6093 48.204 54.6561 48.1653 54.6956C48.1266 54.7351 48.0804 54.7665 48.0294 54.7879C47.9784 54.8093 47.9236 54.8204 47.8683 54.8204C47.813 54.8204 47.7582 54.8093 47.7072 54.7879C47.6563 54.7665 47.61 54.7351 47.5713 54.6956C47.5326 54.6561 47.5021 54.6093 47.4817 54.5579C47.4613 54.5065 47.4513 54.4516 47.4524 54.3963ZM48.2546 58.0743H47.4876V55.1524H48.2546V58.0743Z" fill="#173159"/>
<path d="M49.8724 54.4339V55.1524H50.264V55.725H49.8724V57.1774C49.8648 57.2596 49.8812 57.3423 49.9196 57.4154C49.9427 57.4398 49.9713 57.4584 50.003 57.4696C50.0347 57.4809 50.0686 57.4845 50.102 57.4802C50.1629 57.4816 50.2236 57.4753 50.2829 57.4613L50.2775 58.0554C50.1426 58.1048 49.9998 58.1294 49.8562 58.1281C49.3628 58.1281 49.1134 57.8452 49.1082 57.2794V55.725H48.7705V55.1524H49.1082V54.4339H49.8724Z" fill="#173159"/>
<path d="M51.7582 56.8024L52.1469 55.1524H52.9625L52.0011 58.5121C51.8569 59.0072 51.5859 59.2548 51.1881 59.2548C51.0818 59.2524 50.9764 59.2351 50.8748 59.2035V58.6065L50.964 58.6092C51.0586 58.6158 51.1528 58.5916 51.2327 58.5404C51.303 58.4777 51.3509 58.3937 51.3691 58.3012L51.4285 58.104L50.5859 55.1524H51.4069L51.7582 56.8024Z" fill="#173159"/>
<path d="M56.4289 57.0428C56.4337 56.9772 56.4253 56.9112 56.4042 56.8488C56.3831 56.7864 56.3497 56.7289 56.306 56.6796C56.1738 56.5679 56.0224 56.4814 55.8591 56.4243C55.537 56.321 55.2449 56.1407 55.0083 55.899C54.8368 55.702 54.7445 55.4484 54.7491 55.1873C54.7436 55.0363 54.7724 54.886 54.8335 54.7478C54.8946 54.6095 54.9863 54.487 55.1016 54.3894C55.3189 54.2232 55.5784 54.1211 55.8507 54.0949C56.123 54.0686 56.3972 54.1192 56.6422 54.2409C56.8269 54.3383 56.9786 54.4881 57.0784 54.6715C57.1822 54.8657 57.2348 55.0833 57.231 55.3036H56.4398C56.4499 55.1542 56.4085 55.0059 56.3223 54.8835C56.2809 54.8347 56.2287 54.7963 56.1699 54.7712C56.111 54.7462 56.0471 54.7352 55.9833 54.7391C55.9237 54.7356 55.864 54.7448 55.8082 54.7659C55.7523 54.7871 55.7016 54.8198 55.6592 54.8619C55.5786 54.9527 55.537 55.0715 55.5432 55.1928C55.5438 55.2478 55.5556 55.3022 55.5779 55.3525C55.6002 55.4029 55.6324 55.4482 55.6727 55.4857C55.8081 55.6031 55.9637 55.6952 56.1318 55.7573C56.449 55.8542 56.7365 56.0297 56.9677 56.2674C57.1463 56.4832 57.2392 56.7573 57.2283 57.0372C57.2364 57.1868 57.2113 57.3362 57.1548 57.4749C57.0983 57.6136 57.0117 57.7381 56.9014 57.8394C56.6516 58.043 56.3348 58.146 56.013 58.1283C55.7726 58.1313 55.5349 58.0777 55.319 57.9718C55.1158 57.8726 54.9456 57.7169 54.8288 57.5233C54.707 57.3147 54.6458 57.0763 54.6518 56.8348H55.4485C55.4334 57.0099 55.4802 57.1847 55.5808 57.3289C55.6371 57.3846 55.705 57.4273 55.7797 57.454C55.8544 57.4806 55.934 57.4905 56.0129 57.4829C56.2901 57.483 56.4287 57.3363 56.4289 57.0428Z" fill="#173159"/>
<path d="M58.9249 58.1283C58.7557 58.1381 58.5864 58.1119 58.4282 58.0515C58.2699 57.991 58.1262 57.8976 58.0067 57.7775C57.771 57.4979 57.6528 57.1378 57.6772 56.7729V56.5405C57.6529 56.1608 57.7597 55.7842 57.9797 55.4738C58.0847 55.3478 58.2179 55.2482 58.3684 55.183C58.519 55.1178 58.6827 55.0889 58.8465 55.0985C59.0027 55.0876 59.1592 55.1138 59.3033 55.175C59.4474 55.2361 59.575 55.3305 59.6757 55.4504C59.8824 55.7571 59.982 56.1235 59.9592 56.4927V56.8673H58.4388C58.4344 57.0372 58.4846 57.204 58.582 57.3433C58.6318 57.3962 58.6928 57.4372 58.7606 57.4632C58.8284 57.4893 58.9011 57.4998 58.9735 57.4939C59.0925 57.4969 59.2109 57.4752 59.321 57.4301C59.4312 57.385 59.5308 57.3175 59.6135 57.2318L59.9133 57.6936C59.8076 57.8327 59.6669 57.9414 59.5054 58.0084C59.3227 58.0893 59.1247 58.1302 58.9249 58.1283ZM58.4442 56.3351H59.2085V56.2651C59.2135 56.1275 59.1838 55.9909 59.122 55.8679C59.092 55.8219 59.0499 55.785 59.0004 55.7612C58.9509 55.7375 58.8958 55.7277 58.8412 55.733C58.7844 55.7286 58.7274 55.7396 58.6764 55.7648C58.6253 55.79 58.5819 55.8285 58.5507 55.8762C58.4786 56.0184 58.442 56.1757 58.4442 56.3351Z" fill="#173159"/>
<path d="M61.5304 57.4937C61.7518 57.4937 61.8643 57.3497 61.8679 57.0616H62.5864C62.5908 57.2034 62.567 57.3446 62.5164 57.4772C62.4659 57.6097 62.3896 57.731 62.292 57.8338C62.1948 57.9317 62.0784 58.0084 61.9501 58.0591C61.8218 58.1098 61.6844 58.1333 61.5466 58.1283C61.3858 58.1387 61.2248 58.1126 61.0756 58.0518C60.9263 57.9911 60.7929 57.8973 60.6852 57.7775C60.4665 57.4786 60.3595 57.1125 60.3827 56.7429V56.5108C60.3572 56.1374 60.4606 55.7666 60.6756 55.4602C60.7819 55.3368 60.9154 55.2399 61.0657 55.1771C61.2159 55.1143 61.3787 55.0874 61.5412 55.0984C61.6821 55.091 61.8229 55.1138 61.9543 55.1653C62.0857 55.2168 62.2045 55.2958 62.3029 55.3969C62.5015 55.6328 62.6029 55.9355 62.5865 56.2435H61.868C61.8738 56.1126 61.846 55.9825 61.7871 55.8654C61.7604 55.8215 61.722 55.7859 61.6763 55.7625C61.6305 55.7391 61.5792 55.7289 61.528 55.733C61.4718 55.7283 61.4155 55.739 61.365 55.764C61.3146 55.789 61.2718 55.8272 61.2415 55.8747C61.1686 56.0483 61.1373 56.2365 61.1499 56.4244V56.7213C61.1441 56.8882 61.1558 57.0553 61.1849 57.2197C61.2 57.2999 61.2408 57.3729 61.3011 57.4278C61.3676 57.4756 61.4486 57.499 61.5304 57.4937Z" fill="#173159"/>
<path d="M64.5935 57.8071C64.5221 57.9092 64.4265 57.992 64.3152 58.0481C64.204 58.1042 64.0805 58.1317 63.956 58.1284C63.8394 58.1355 63.7228 58.114 63.6165 58.0658C63.5101 58.0175 63.4172 57.944 63.3458 57.8515C63.1916 57.6121 63.1187 57.3295 63.1377 57.0454V55.1524H63.9019V57.0645C63.9057 57.3491 64.0003 57.4913 64.1858 57.4912C64.2642 57.4953 64.3421 57.4759 64.4094 57.4355C64.4768 57.3951 64.5305 57.3355 64.5638 57.2644V55.1524H65.3337V58.0744H64.6152L64.5935 57.8071Z" fill="#173159"/>
<path d="M67.4597 55.8894L67.2057 55.8678C67.1146 55.861 67.0238 55.8842 66.9472 55.934C66.8707 55.9838 66.8126 56.0574 66.7819 56.1434V58.0743H66.0146V55.1524H66.7359L66.7576 55.4681C66.7942 55.3635 66.8614 55.2723 66.9505 55.2064C67.0396 55.1405 67.1465 55.1028 67.2572 55.0984C67.329 55.0958 67.4006 55.1076 67.4677 55.1331L67.4597 55.8894Z" fill="#173159"/>
<path d="M67.9885 54.3963C67.9866 54.3425 67.9957 54.2889 68.0152 54.2387C68.0347 54.1885 68.0643 54.1429 68.1021 54.1046C68.1859 54.0314 68.2934 53.991 68.4046 53.991C68.5159 53.991 68.6233 54.0314 68.7071 54.1046C68.7448 54.1429 68.7744 54.1886 68.7938 54.2387C68.8133 54.2889 68.8223 54.3425 68.8204 54.3963C68.8214 54.4516 68.8115 54.5065 68.7911 54.5579C68.7706 54.6093 68.7402 54.6561 68.7014 54.6956C68.6627 54.7351 68.6165 54.7665 68.5655 54.7879C68.5145 54.8093 68.4598 54.8204 68.4044 54.8204C68.3491 54.8204 68.2944 54.8093 68.2434 54.7879C68.1924 54.7665 68.1462 54.7351 68.1074 54.6956C68.0687 54.6561 68.0383 54.6093 68.0178 54.5579C67.9974 54.5065 67.9875 54.4516 67.9885 54.3963ZM68.7907 58.0743H68.0237V55.1524H68.7907V58.0743Z" fill="#173159"/>
<path d="M70.3821 54.4339V55.1524H70.7738V55.725H70.3821V57.1774C70.3746 57.2596 70.391 57.3423 70.4293 57.4154C70.4525 57.4398 70.4811 57.4584 70.5128 57.4696C70.5445 57.4809 70.5784 57.4845 70.6118 57.4802C70.6726 57.4816 70.7334 57.4753 70.7926 57.4613L70.7871 58.0554C70.6523 58.1048 70.5096 58.1294 70.3661 58.1281C69.8725 58.1281 69.6232 57.8452 69.6179 57.2794V55.725H69.2803V55.1524H69.6179V54.4339H70.3821Z" fill="#173159"/>
<path d="M72.2955 56.8024L72.6842 55.1524H73.4996L72.5382 58.5121C72.3941 59.0072 72.1231 59.2548 71.7252 59.2548C71.6189 59.2524 71.5135 59.2351 71.412 59.2035V58.6065L71.5011 58.6092C71.5958 58.6158 71.6901 58.5916 71.77 58.5404C71.8402 58.4776 71.8881 58.3937 71.9064 58.3012L71.9657 58.104L71.123 55.1524H71.9441L72.2955 56.8024Z" fill="#173159"/>
<path d="M77.9698 56.7645C77.9785 57.1397 77.8432 57.504 77.5917 57.7827C77.4594 57.9032 77.3042 57.996 77.1354 58.0554C76.9665 58.1147 76.7874 58.1396 76.6088 58.1283C76.416 58.14 76.2231 58.1063 76.0456 58.0301C75.8682 57.9539 75.711 57.8373 75.5866 57.6895C75.328 57.3255 75.2027 56.8835 75.2316 56.4379V55.7762C75.2026 55.3295 75.3327 54.887 75.5989 54.5271C75.8583 54.2608 76.21 54.104 76.5815 54.0892C76.953 54.0744 77.3161 54.2026 77.5958 54.4475C77.8376 54.7372 77.9717 55.1016 77.9755 55.479H77.1786C77.1908 55.2795 77.1464 55.0806 77.0505 54.9052C76.9962 54.8468 76.9288 54.8021 76.854 54.7746C76.7791 54.7471 76.6988 54.7377 76.6196 54.7472C76.5312 54.7392 76.4423 54.7557 76.3627 54.7951C76.2832 54.8344 76.216 54.8949 76.1687 54.97C76.063 55.1994 76.0148 55.4511 76.0282 55.7033V56.4459C76.0065 56.7208 76.0513 56.9968 76.1591 57.2505C76.2068 57.3247 76.274 57.3844 76.3533 57.423C76.4326 57.4616 76.521 57.4776 76.6088 57.4694C76.6877 57.4787 76.7677 57.4698 76.8426 57.4434C76.9175 57.4169 76.9853 57.3737 77.0409 57.3169C77.1381 57.1496 77.185 56.9578 77.1761 56.7644L77.9698 56.7645Z" fill="#173159"/>
<path d="M78.415 56.5187C78.3933 56.1452 78.5043 55.776 78.7286 55.4764C78.8398 55.3571 78.9744 55.262 79.124 55.1969C79.2735 55.1319 79.4349 55.0983 79.598 55.0983C79.7611 55.0983 79.9225 55.1319 80.0721 55.1969C80.2216 55.262 80.3562 55.3571 80.4675 55.4764C80.6922 55.7778 80.8032 56.1489 80.781 56.5243V56.7104C80.8033 57.0836 80.6932 57.4528 80.4702 57.753C80.3581 57.8716 80.2229 57.9661 80.073 58.0306C79.9231 58.0952 79.7616 58.1284 79.5983 58.1283C79.4351 58.1282 79.2736 58.0947 79.1238 58.03C78.974 57.9652 78.8389 57.8705 78.727 57.7517C78.503 57.4504 78.3925 57.0798 78.415 56.705V56.5187ZM79.1822 56.7104C79.1822 57.2326 79.3218 57.4937 79.6008 57.4937C79.8582 57.4937 79.9968 57.2758 80.0165 56.84L80.0193 56.5187C80.0321 56.3151 79.994 56.1114 79.9085 55.9261C79.8799 55.8676 79.8352 55.8184 79.7798 55.7842C79.7244 55.75 79.6604 55.7322 79.5952 55.7329C79.5315 55.733 79.4691 55.7512 79.4153 55.7854C79.3615 55.8196 79.3186 55.8684 79.2915 55.9261C79.207 56.1117 79.1695 56.3152 79.1822 56.5187V56.7104Z" fill="#173159"/>
<path d="M82.0302 55.1524L82.0518 55.4224C82.1309 55.3184 82.2336 55.2348 82.3515 55.1784C82.4694 55.122 82.599 55.0946 82.7296 55.0984C82.8609 55.0914 82.9911 55.1256 83.102 55.1963C83.2129 55.267 83.299 55.3705 83.3481 55.4925C83.421 55.3686 83.526 55.2666 83.6519 55.1973C83.7779 55.1279 83.9202 55.0937 84.0639 55.0984C84.5749 55.0984 84.8369 55.4521 84.8497 56.1595V58.0743H84.0855V56.2082C84.0951 56.0834 84.0708 55.9583 84.0151 55.8462C83.9884 55.809 83.9524 55.7794 83.9107 55.7605C83.869 55.7415 83.823 55.7338 83.7774 55.7382C83.6352 55.7382 83.529 55.8258 83.4589 56.0002L83.4642 56.0922V58.0743H82.7V56.2135C82.7088 56.0887 82.6855 55.9638 82.6324 55.8505C82.6063 55.8118 82.5701 55.7808 82.5277 55.761C82.4854 55.7412 82.4384 55.7333 82.3919 55.7382C82.3247 55.7399 82.2594 55.761 82.2039 55.7989C82.1483 55.8368 82.1049 55.8898 82.0787 55.9518V58.0743H81.3145V55.1524H82.0302Z" fill="#173159"/>
<path d="M87.8285 56.705C87.8504 57.0722 87.7685 57.4381 87.5921 57.7609C87.5182 57.8793 87.414 57.9759 87.2903 58.0405C87.1665 58.1051 87.0277 58.1353 86.8883 58.1281C86.7766 58.1308 86.6659 58.1058 86.5661 58.0554C86.4663 58.005 86.3805 57.9308 86.3163 57.8393V59.1976H85.5518V55.1522H86.2595L86.2863 55.4194C86.3495 55.3188 86.4377 55.2362 86.5423 55.1799C86.647 55.1236 86.7644 55.0954 86.8832 55.0981C87.0198 55.09 87.1561 55.1169 87.2793 55.1765C87.4024 55.236 87.5083 55.3262 87.5866 55.4383C87.7672 55.7548 87.8513 56.1172 87.8286 56.4809L87.8285 56.705ZM87.0668 56.5134C87.0805 56.309 87.0487 56.1042 86.9736 55.9136C86.9441 55.8568 86.8985 55.8099 86.8426 55.7787C86.7867 55.7475 86.7229 55.7333 86.6591 55.738C86.589 55.7343 86.5193 55.7509 86.4584 55.7859C86.3976 55.8209 86.3482 55.8728 86.3162 55.9353V57.3044C86.3496 57.3663 86.4003 57.4171 86.4621 57.4507C86.5239 57.4843 86.5942 57.4992 86.6643 57.4936C86.7302 57.4984 86.796 57.4825 86.8524 57.4482C86.9088 57.4138 86.9531 57.3627 86.9791 57.3019C87.0479 57.1108 87.0777 56.9078 87.0668 56.705V56.5134Z" fill="#173159"/>
<path d="M89.8172 58.0743C89.7872 58.0013 89.7654 57.9252 89.7523 57.8474C89.6903 57.9369 89.6069 58.0094 89.5097 58.0585C89.4126 58.1075 89.3047 58.1315 89.1959 58.1283C89.0831 58.1317 88.9709 58.1119 88.8662 58.0701C88.7614 58.0283 88.6664 57.9654 88.5869 57.8854C88.5061 57.8024 88.4429 57.7038 88.4014 57.5956C88.3598 57.4874 88.3407 57.3719 88.3453 57.2561C88.3375 57.1233 88.3598 56.9905 88.4105 56.8675C88.4612 56.7445 88.539 56.6346 88.6381 56.5459C88.8803 56.3631 89.1794 56.2721 89.4823 56.2891H89.7144V56.0542C89.7234 55.9566 89.6997 55.8588 89.6471 55.7761C89.6226 55.7484 89.5921 55.7267 89.5579 55.7126C89.5237 55.6986 89.4868 55.6925 89.4499 55.6949C89.2588 55.6949 89.1633 55.8066 89.1634 56.0299H88.3992C88.3964 55.9029 88.4222 55.7768 88.4748 55.6611C88.5274 55.5454 88.6053 55.4431 88.7029 55.3617C88.9176 55.1818 89.1915 55.088 89.4714 55.0984C89.7425 55.0812 90.0095 55.1708 90.2153 55.3481C90.3067 55.4421 90.3773 55.5543 90.4227 55.6773C90.468 55.8003 90.487 55.9315 90.4785 56.0624V57.4372C90.4726 57.6397 90.5094 57.8412 90.5866 58.0285V58.0745L89.8172 58.0743ZM89.3663 57.5289C89.4416 57.5311 89.5162 57.5133 89.5824 57.4774C89.636 57.4488 89.6814 57.407 89.7145 57.3561V56.7483H89.5307C89.4736 56.7455 89.4166 56.7551 89.3637 56.7765C89.3107 56.7979 89.2631 56.8307 89.2241 56.8724C89.146 56.9651 89.106 57.0839 89.1121 57.2049C89.1122 57.4209 89.1969 57.5289 89.3663 57.5289Z" fill="#173159"/>
<path d="M91.8699 55.1523L91.8915 55.4412C91.9678 55.333 92.0695 55.2452 92.1877 55.1854C92.3059 55.1256 92.4369 55.0957 92.5693 55.0983C93.0714 55.0983 93.3298 55.4503 93.3443 56.1542V58.0743H92.5773V56.211C92.5867 56.0862 92.5609 55.9613 92.5029 55.8505C92.4728 55.8109 92.4331 55.7798 92.3874 55.7601C92.3418 55.7405 92.2919 55.7329 92.2424 55.7381C92.1736 55.7387 92.1064 55.7592 92.0489 55.7971C91.9914 55.835 91.946 55.8887 91.9184 55.9517V58.0743H91.1514V55.1523H91.8699Z" fill="#173159"/>
<path d="M94.9682 56.8024L95.3571 55.1524H96.1725L95.211 58.5121C95.0669 59.0072 94.7959 59.2548 94.3981 59.2548C94.2918 59.2524 94.1863 59.2351 94.0848 59.2035V58.6065L94.174 58.6092C94.2687 58.6158 94.3629 58.5916 94.4428 58.5404C94.513 58.4776 94.5609 58.3936 94.5792 58.3012L94.6385 58.104L93.7959 55.1524H94.6169L94.9682 56.8024Z" fill="#173159"/>
<path d="M99.0226 43.3006C99.0226 43.4176 98.9411 43.4995 98.7885 43.4995H98.4868V43.0981H98.7814C98.9304 43.0981 99.0226 43.1658 99.0226 43.3006ZM99.3281 43.2824C99.3281 42.9985 99.1188 42.8316 98.7919 42.8316H98.1849V44.1986H98.4868V43.7586H98.7244L99.0158 44.1986H99.3672L99.0334 43.7088C99.1226 43.6801 99.1998 43.6228 99.253 43.5458C99.3063 43.4687 99.3327 43.376 99.3281 43.2824ZM99.8499 43.549C99.8492 43.7737 99.7818 43.9932 99.6564 44.1796C99.5309 44.366 99.353 44.5111 99.1452 44.5964C98.9373 44.6817 98.7088 44.7035 98.4885 44.6589C98.2683 44.6144 98.0662 44.5055 97.9078 44.3461C97.7494 44.1867 97.6419 43.9839 97.5988 43.7633C97.5557 43.5428 97.5789 43.3144 97.6656 43.1071C97.7522 42.8998 97.8984 42.7228 98.0857 42.5986C98.2729 42.4744 98.4928 42.4085 98.7175 42.4092C98.8669 42.409 99.0148 42.4385 99.1528 42.4958C99.2907 42.5531 99.416 42.6372 99.5213 42.7431C99.6265 42.8491 99.7098 42.9749 99.7662 43.1132C99.8226 43.2515 99.8511 43.3997 99.8499 43.549ZM99.9992 43.549C99.9985 43.2951 99.9226 43.0472 99.7811 42.8363C99.6396 42.6255 99.4388 42.4614 99.2041 42.3645C98.9694 42.2677 98.7113 42.2425 98.4623 42.2922C98.2134 42.3419 97.9847 42.4643 97.8051 42.6438C97.6256 42.8233 97.5033 43.052 97.4536 43.301C97.4039 43.55 97.429 43.8081 97.5259 44.0428C97.6227 44.2775 97.7869 44.4783 97.9977 44.6198C98.2085 44.7613 98.4565 44.8372 98.7104 44.8379C98.8801 44.8395 99.0484 44.8073 99.2055 44.7431C99.3626 44.6789 99.5054 44.584 99.6254 44.464C99.7454 44.344 99.8403 44.2013 99.9044 44.0442C99.9686 43.8871 100.001 43.7187 99.9992 43.549Z" fill="#173159"/>
<path d="M84.6818 45.2027C84.6818 45.9214 84.1583 46.4086 83.2445 46.4086H81.3446V43.9604H83.2081C84.1215 43.9604 84.6817 44.3746 84.6817 45.1785L84.6818 45.2027ZM86.8378 50.7933L84.7551 47.7484C85.3072 47.569 85.7851 47.2131 86.1152 46.7355C86.4454 46.258 86.6093 45.6851 86.582 45.1052V45.081C86.582 43.3269 85.376 42.2673 83.3665 42.2673H79.4687V50.7933H81.3446V48.0651H82.8182L84.6454 50.7933H86.8378ZM74.6954 47.2246H72.43L73.5627 44.4597L74.6954 47.2246ZM78.1058 50.7933L74.4519 42.2064H72.7222L69.0681 50.7933H70.9804L71.76 48.881H75.3654L76.145 50.7933H78.1058ZM61.6775 46.6157V43.1565H64.3083C65.6847 43.1565 66.4885 43.7899 66.4885 44.8372V44.8617C66.4885 45.9578 65.5751 46.6158 64.2962 46.6158L61.6775 46.6157ZM60.7153 50.7933H61.6775V47.4804H64.1133L66.586 50.7933H67.7674L65.1488 47.31C66.4885 47.0662 67.4629 46.2381 67.4629 44.8251V44.8009C67.4692 44.4912 67.4143 44.1833 67.3015 43.8949C67.1886 43.6064 67.02 43.3431 66.8052 43.1199C66.142 42.5259 65.2703 42.2193 64.3813 42.2673H60.7152L60.7153 50.7933ZM52.6212 50.7933H58.8453V49.9165H53.5837V46.9324H58.2364V46.0553H53.5838V43.1441H58.7845V42.2673H52.6213L52.6212 50.7933ZM44.6107 49.9286V46.9201H47.3023C48.7884 46.9201 49.568 47.456 49.568 48.3819V48.4061C49.568 49.3562 48.7641 49.9288 47.4728 49.9288L44.6107 49.9286ZM44.6107 46.0674V43.132H47.2048C48.4229 43.132 49.0929 43.6801 49.0929 44.5205V44.5451C49.0929 45.5438 48.2891 46.0674 47.1319 46.0674H44.6107ZM43.6606 50.7933H47.4486C49.3121 50.7933 50.5423 49.9286 50.5423 48.4672V48.4427C50.5423 47.2733 49.7263 46.6886 48.7155 46.3842C49.1184 46.2371 49.4652 45.9679 49.7076 45.6141C49.9499 45.2604 50.0758 44.8397 50.0674 44.411V44.3867C50.0717 44.1343 50.0254 43.8835 49.9312 43.6492C49.8371 43.4149 49.6971 43.2018 49.5194 43.0225C48.9028 42.4906 48.1033 42.2197 47.2904 42.2674H43.6607L43.6606 50.7933ZM37.528 50.7933H38.5023V47.4074L42.0469 42.2673H40.9263L38.0273 46.5303L35.1528 42.2673H33.9834L37.528 47.4195L37.528 50.7933ZM29.6901 50.9396C30.3332 50.9518 30.9712 50.8242 31.56 50.5655C32.1489 50.3068 32.6745 49.9233 33.1005 49.4415L32.4671 48.8202C31.6512 49.5998 30.8837 50.0504 29.7143 50.0504C27.8387 50.0504 26.4135 48.5035 26.4135 46.5304V46.5061C26.4135 44.5451 27.8266 43.0103 29.7143 43.0103C30.217 43.0133 30.7137 43.1185 31.1744 43.3196C31.6351 43.5206 32.0501 43.8132 32.3942 44.1797L33.0518 43.4733C32.6224 43.0287 32.1048 42.6788 31.5322 42.4459C30.9596 42.213 30.3446 42.1024 29.7268 42.1211C27.2173 42.1211 25.415 44.1187 25.415 46.5303V46.5548C25.415 49.003 27.2298 50.9396 29.6901 50.9396Z" fill="#173159"/>
<path d="M96.2177 50.7933L92.5882 45.8847L96.0594 42.2672H93.7939L90.3347 45.9944V42.2672H88.459V50.7933H90.3347V48.1868L91.3211 47.1638L93.9646 50.7933H96.2177Z" fill="#173159"/>
</g>
<defs>
<linearGradient id="paint0_linear_15384_206896" x1="9.76282" y1="39.6402" x2="9.76282" y2="60.4056" gradientUnits="userSpaceOnUse">
<stop stop-color="#4AC7F4"/>
<stop offset="0.05" stop-color="#4AC7F4"/>
<stop offset="0.8" stop-color="#2B3383"/>
<stop offset="1" stop-color="#2B3383"/>
</linearGradient>
<clipPath id="clip0_15384_206896">
<rect width="100" height="22.3892" fill="white" transform="translate(0 39)"/>
</clipPath>
</defs>
</svg>
