<svg width="100" height="100" viewBox="0 0 100 100" fill="none" xmlns="http://www.w3.org/2000/svg">
<path d="M14.9568 63.6998C22.3964 63.6998 28.4273 57.6689 28.4273 50.2293C28.4273 42.7897 22.3964 36.7588 14.9568 36.7588C7.51728 36.7588 1.48633 42.7897 1.48633 50.2293C1.48633 57.6689 7.51728 63.6998 14.9568 63.6998Z" fill="white"/>
<path d="M36.6553 54.3079V45.747C36.6545 45.6971 36.6649 45.6476 36.6857 45.6022C36.7066 45.5568 36.7374 45.5167 36.7759 45.4849C36.8624 45.4104 36.9737 45.3712 37.0878 45.3748H39.4994C40.2132 45.3402 40.9137 45.5771 41.46 46.038C41.9528 46.4809 42.1966 47.1756 42.1966 48.1349V48.2477C42.1966 49.2018 41.9476 49.899 41.4469 50.3446C40.8906 50.8101 40.1793 51.0488 39.4548 51.0131H37.7458V54.3079C37.7487 54.3648 37.735 54.4212 37.7064 54.4705C37.679 54.5201 37.6381 54.561 37.5885 54.5884C37.4751 54.6559 37.3456 54.6912 37.2136 54.6906C37.0809 54.6912 36.9505 54.6559 36.8362 54.5884C36.7851 54.5622 36.7425 54.5223 36.713 54.4731C36.6794 54.4242 36.6595 54.3671 36.6553 54.3079ZM37.7248 50.114H39.4548C39.6828 50.1292 39.9115 50.0961 40.1258 50.017C40.3394 49.9383 40.5347 49.817 40.6999 49.6605C41.0196 49.2836 41.177 48.7954 41.1376 48.3027V48.148C41.1756 47.6571 41.0183 47.1711 40.6999 46.7955C40.5353 46.6388 40.3398 46.5183 40.1258 46.4416C39.9111 46.3637 39.6828 46.3307 39.4548 46.3446H37.7458L37.7248 50.114Z" fill="#FF6C37"/>
<path d="M45.9424 51.9882V48.1481C45.9424 47.1922 46.1905 46.4932 46.6868 46.0511C47.2629 45.6175 47.9644 45.383 48.6855 45.383C49.4066 45.383 50.1081 45.6175 50.6842 46.0511C51.1848 46.4993 51.4339 47.2018 51.4365 48.1481V51.9882C51.4365 52.9502 51.1875 53.6527 50.6842 54.0852C50.1085 54.5221 49.4056 54.7586 48.6829 54.7586C47.9602 54.7586 47.2573 54.5221 46.6816 54.0852C46.1888 53.65 45.9424 52.9528 45.9424 51.9882ZM47.0145 51.9882C47.0145 53.1939 47.571 53.7977 48.6842 53.7994C48.9113 53.8131 49.1388 53.7801 49.3526 53.7025C49.5667 53.6262 49.7623 53.5056 49.9267 53.3486C50.246 52.9714 50.4042 52.4837 50.367 51.9908V48.1481C50.3856 47.9044 50.3562 47.6595 50.2805 47.4272C50.2044 47.1958 50.0842 46.9813 49.9267 46.7955C49.7612 46.6387 49.5654 46.5175 49.3512 46.4395C49.137 46.3615 48.9091 46.3284 48.6816 46.342C47.5675 46.342 47.0145 46.9475 47.0145 48.1507V51.9882Z" fill="#FF6C37"/>
<path d="M55.2266 53.3774C55.2297 53.234 55.2804 53.0957 55.3707 52.9842C55.4049 52.9303 55.4505 52.8847 55.5044 52.8505C55.5582 52.8166 55.6193 52.7959 55.6827 52.7902C55.7957 52.8108 55.8988 52.8679 55.9762 52.9527C56.0942 53.0576 56.2174 53.1756 56.3458 53.304C56.519 53.4652 56.7245 53.5876 56.9487 53.6631C57.2467 53.7751 57.5636 53.8285 57.8819 53.8204C58.3529 53.8502 58.8188 53.7076 59.1925 53.4193C59.3552 53.2716 59.4824 53.089 59.5645 52.8852C59.6467 52.6814 59.6817 52.4616 59.6669 52.2424C59.6747 52.0325 59.6409 51.8231 59.5673 51.6264C59.4935 51.4306 59.3802 51.2522 59.2344 51.1022C58.9377 50.8057 58.5799 50.5776 58.1859 50.4337C57.7744 50.2817 57.3655 50.1244 56.9408 49.9436C56.5292 49.7691 56.1684 49.4932 55.8924 49.1415C55.5917 48.7394 55.4389 48.246 55.4599 47.7444C55.4527 47.3402 55.5426 46.9402 55.722 46.5779C55.8724 46.2684 56.1091 46.009 56.4035 45.8309C56.6808 45.6689 56.9789 45.5454 57.2895 45.4639C57.6111 45.3849 57.9413 45.3462 58.2724 45.3486C58.7845 45.3455 59.2939 45.4224 59.7823 45.5766C60.262 45.7339 60.5057 45.9436 60.5057 46.1978C60.5007 46.3351 60.4561 46.468 60.3773 46.5805C60.3461 46.6426 60.2979 46.6944 60.2384 46.7299C60.1754 46.7719 60.1017 46.7946 60.026 46.7955C59.8304 46.7331 59.6394 46.6569 59.4546 46.5674C59.0817 46.4023 58.6776 46.3192 58.2698 46.3237C57.8333 46.3046 57.4007 46.413 57.0247 46.6356C56.8634 46.747 56.7341 46.8989 56.6499 47.076C56.5658 47.2531 56.5296 47.4493 56.545 47.6448C56.5354 47.8247 56.5686 48.0044 56.642 48.169C56.7145 48.3355 56.8249 48.4827 56.9644 48.5989C57.2757 48.8543 57.631 49.0506 58.0129 49.1782C58.4271 49.325 58.8386 49.4901 59.258 49.6762C59.6808 49.8781 60.0425 50.1883 60.3065 50.5753C60.6088 51.0426 60.7589 51.592 60.7364 52.148C60.7364 53.0218 60.4813 53.6832 59.971 54.1323C59.403 54.5989 58.6816 54.8372 57.9474 54.8007C57.2759 54.8228 56.6116 54.6576 56.0287 54.3237C55.4861 54.0012 55.2266 53.6867 55.2266 53.3774Z" fill="#FF6C37"/>
<path d="M63.921 45.8414C63.9186 45.7239 63.9544 45.6089 64.0232 45.5137C64.0526 45.4667 64.0943 45.4286 64.1438 45.4036C64.1931 45.3781 64.2483 45.3663 64.3037 45.3695H69.4938C69.5491 45.3663 69.6044 45.3781 69.6537 45.4036C69.7026 45.4293 69.7441 45.4673 69.7742 45.5137C69.8408 45.61 69.8764 45.7243 69.8765 45.8414C69.879 45.9653 69.8433 46.087 69.7742 46.19C69.7458 46.2391 69.704 46.2791 69.6537 46.3053C69.6044 46.3308 69.5491 46.3426 69.4938 46.3394H67.4544V54.3079C67.4574 54.3648 67.4437 54.4212 67.4151 54.4704C67.3877 54.5201 67.3468 54.561 67.2972 54.5884C67.1838 54.6559 67.0542 54.6912 66.9223 54.6906C66.7896 54.6912 66.6592 54.6559 66.5449 54.5884C66.4957 54.5603 66.455 54.5196 66.4269 54.4704C66.4007 54.4203 66.3872 54.3645 66.3876 54.3079V46.3394H64.3194C64.264 46.3438 64.2084 46.332 64.1596 46.3053C64.1103 46.2812 64.0685 46.2441 64.039 46.1978C63.9625 46.0947 63.9212 45.9697 63.921 45.8414Z" fill="#FF6C37"/>
<path d="M73.5093 54.3079V45.92C73.4908 45.7985 73.52 45.6745 73.5906 45.574C73.6624 45.4739 73.7707 45.4061 73.892 45.3852C73.9477 45.3774 74.0042 45.3774 74.0598 45.3852C74.4006 45.3852 74.681 45.6106 74.9169 46.0615L76.9169 49.899L78.9327 46.0615C79.1791 45.6106 79.4569 45.3852 79.7846 45.3852C79.9051 45.3671 80.028 45.3975 80.1262 45.4697C80.2244 45.5419 80.2901 45.6501 80.3088 45.7705C80.3167 45.8148 80.3167 45.86 80.3088 45.9042V54.2922C80.3092 54.3487 80.2957 54.4045 80.2695 54.4547C80.2421 54.5043 80.2012 54.5452 80.1515 54.5726C80.0374 54.6409 79.907 54.6771 79.7741 54.6775C79.6419 54.6772 79.5124 54.6409 79.3992 54.5726C79.3496 54.5452 79.3087 54.5043 79.2813 54.4547C79.2527 54.4055 79.239 54.349 79.242 54.2922V47.6133L77.3259 51.2332C77.2958 51.3224 77.2391 51.4002 77.1633 51.456C77.0929 51.5153 77.0038 51.5479 76.9117 51.5479C76.8196 51.5479 76.7305 51.5153 76.6601 51.456C76.5898 51.3999 76.5378 51.3242 76.5107 51.2384L74.5867 47.5687V54.3079C74.5874 54.3648 74.5729 54.4209 74.5447 54.4704C74.5176 54.5194 74.4777 54.5601 74.4294 54.5884C74.3228 54.6619 74.1971 54.7029 74.0677 54.7063C73.9352 54.7114 73.8044 54.6757 73.6928 54.6041C73.6361 54.5788 73.5886 54.5367 73.5565 54.4835C73.5238 54.4309 73.5074 54.3698 73.5093 54.3079Z" fill="#FF6C37"/>
<path d="M83.9789 54.2503C83.9814 54.2144 83.9894 54.179 84.0024 54.1455L86.6237 45.7575C86.6997 45.5111 86.912 45.3853 87.2737 45.3853C87.6355 45.3853 87.8504 45.5111 87.9238 45.7575L90.545 54.1979C90.5424 54.2135 90.5424 54.2295 90.545 54.2451C90.5477 54.2572 90.5477 54.2697 90.545 54.2818C90.5422 54.3473 90.5214 54.4108 90.4848 54.4653C90.4473 54.5206 90.3957 54.565 90.3353 54.5937C90.1954 54.68 90.0331 54.7229 89.8688 54.7169C89.7876 54.7282 89.705 54.7106 89.6355 54.6671C89.5651 54.6236 89.5123 54.5568 89.4861 54.4784L88.9277 52.6121H85.5699L85.0116 54.4757C84.9871 54.5565 84.934 54.6254 84.8622 54.6697C84.7922 54.7168 84.707 54.7355 84.6237 54.7221C84.4701 54.7225 84.3197 54.6778 84.1912 54.5937C84.1272 54.5646 84.0734 54.5172 84.0365 54.4574C83.9958 54.3962 83.9756 54.3237 83.9789 54.2503ZM85.8294 51.6946H88.6813L87.2528 46.9292L85.8294 51.6946Z" fill="#FF6C37"/>
<path d="M94.2306 54.308V45.747C94.2306 45.5032 94.4062 45.3774 94.7549 45.3774C94.9199 45.3745 95.0805 45.4303 95.2083 45.5347C95.3617 45.6844 95.4845 45.8624 95.5701 46.0589L98.747 52.2818V45.747C98.7466 45.691 98.7611 45.6358 98.7889 45.5871C98.8169 45.5395 98.8566 45.4998 98.9043 45.4718C99.0202 45.4092 99.15 45.3768 99.2817 45.3774C99.4126 45.3772 99.5414 45.4096 99.6566 45.4718C99.7049 45.4997 99.7455 45.5394 99.7745 45.5871C99.8012 45.6363 99.8156 45.6911 99.8165 45.747V54.308C99.8184 54.365 99.8039 54.4215 99.7745 54.4705C99.7479 54.5208 99.7068 54.5619 99.6566 54.5884C99.5448 54.6595 99.4141 54.6951 99.2817 54.6907C99.1341 54.684 98.9917 54.6346 98.8716 54.5485C98.7516 54.4625 98.6591 54.3434 98.6054 54.2057L95.3001 47.7942V54.308C95.3021 54.3646 95.2885 54.4208 95.2607 54.4702C95.233 54.5197 95.1922 54.5606 95.1428 54.5884C95.0287 54.6552 94.8989 54.6905 94.7667 54.6905C94.6344 54.6905 94.5046 54.6552 94.3905 54.5884C94.3401 54.5612 94.2983 54.5203 94.2699 54.4705C94.2425 54.4208 94.2289 54.3647 94.2306 54.308Z" fill="#FF6C37"/>
<path d="M23.4942 42.6906C23.4735 42.7001 23.4555 42.7145 23.4418 42.7326C23.4265 42.7492 23.4148 42.7688 23.4077 42.7902C23.4039 42.8119 23.4039 42.8341 23.4077 42.8558C23.4098 42.8785 23.416 42.9007 23.426 42.9213C23.4711 43.0102 23.4885 43.1107 23.4758 43.2096C23.4632 43.3057 23.4242 43.3965 23.3631 43.4717C23.3488 43.4886 23.3382 43.5083 23.3318 43.5295C23.3255 43.5507 23.3237 43.573 23.3264 43.5949C23.3288 43.617 23.3356 43.6383 23.3464 43.6577C23.3572 43.6771 23.3718 43.6941 23.3893 43.7077C23.4228 43.736 23.4661 43.7502 23.5099 43.747C23.532 43.7456 23.5536 43.7398 23.5734 43.7299C23.5933 43.72 23.6109 43.7062 23.6252 43.6893C23.7316 43.5616 23.799 43.406 23.8192 43.2411C23.8381 43.0753 23.808 42.9076 23.7327 42.7588C23.7125 42.7192 23.6777 42.6892 23.6357 42.6749C23.5883 42.6612 23.5374 42.6668 23.4942 42.6906Z" fill="#FF6C37"/>
<path d="M16.8962 35.3826C13.9912 35.0136 11.042 35.514 8.4213 36.8207C5.80065 38.1273 3.62618 40.1816 2.17273 42.7238C0.719281 45.2659 0.0520978 48.182 0.255506 51.1032C0.458914 54.0245 1.52378 56.8199 3.31552 59.1361C5.10726 61.4523 7.54544 63.1854 10.3219 64.1163C13.0984 65.0471 16.0885 65.134 18.9143 64.3659C21.7401 63.5978 24.2748 62.0093 26.198 59.801C28.1212 57.5927 29.3466 54.8638 29.7192 51.9593C30.2145 48.0611 29.1422 44.1257 26.7379 41.0175C24.3335 37.9094 20.7938 35.8827 16.8962 35.3826ZM19.9499 44.6225C19.6741 44.625 19.4104 44.7361 19.216 44.9318L13.7114 50.4364L12.5371 49.262C17.9604 43.8518 18.9407 43.7994 19.9499 44.6225ZM13.9368 50.6198L19.4257 45.1415C19.5156 45.0518 19.6264 44.9859 19.7481 44.9497C19.8698 44.9135 19.9986 44.9082 20.1229 44.9342C20.2472 44.9602 20.3631 45.0167 20.4601 45.0987C20.5571 45.1806 20.6322 45.2854 20.6786 45.4036C20.716 45.5005 20.7338 45.6038 20.731 45.7077C20.7278 45.8122 20.7028 45.9148 20.6576 46.0091C20.6128 46.1037 20.5495 46.1883 20.4715 46.2581L14.6629 51.3459L13.9368 50.6198ZM14.3457 51.477L12.9853 51.7758C12.9779 51.7791 12.9698 51.7809 12.9617 51.7809C12.9536 51.7809 12.9455 51.7791 12.9381 51.7758C12.9227 51.7698 12.9097 51.7587 12.9014 51.7444C12.8964 51.729 12.8964 51.7125 12.9014 51.6972C12.9046 51.6808 12.9118 51.6655 12.9224 51.6526L13.7087 50.8662L14.3457 51.477ZM10.8804 50.9108L12.3195 49.4639L13.4073 50.5464L10.9591 51.0707C10.9397 51.0784 10.9181 51.0784 10.8988 51.0707C10.8798 51.0619 10.8642 51.0472 10.8542 51.0288C10.848 51.01 10.848 50.9898 10.8542 50.9711C10.8547 50.9483 10.8641 50.9267 10.8804 50.9108ZM6.37192 58.3892C6.35442 58.3872 6.33796 58.3798 6.32474 58.3682C6.30992 58.3586 6.29811 58.3449 6.29066 58.3289C6.28395 58.3121 6.28395 58.2933 6.29066 58.2765C6.29478 58.2599 6.30288 58.2446 6.31425 58.2319L7.48332 57.0628L8.99577 58.5727L6.37192 58.3892ZM9.37061 56.8374C9.31575 56.8665 9.27166 56.9125 9.24479 56.9685C9.21776 57.0257 9.21128 57.0905 9.22644 57.152L9.47546 58.2188C9.48604 58.2503 9.48604 58.2843 9.47546 58.3158C9.46239 58.3462 9.43925 58.3712 9.40993 58.3866C9.38093 58.4043 9.34642 58.4109 9.31294 58.4049C9.28069 58.4012 9.25043 58.3874 9.22644 58.3656L7.70875 56.8505L12.3457 52.2083L14.5973 51.726L15.6773 52.806C14.1229 54.1611 12.0076 55.5189 9.37061 56.8348V56.8374ZM15.8949 52.6067L14.8464 51.5582L20.6655 46.4783C20.7204 46.4318 20.7696 46.379 20.8123 46.321C20.6288 47.9829 18.3038 50.3263 15.8975 52.612L15.8949 52.6067ZM20.4139 44.6303C19.9996 44.2211 19.7602 43.6671 19.746 43.085C19.7318 42.5028 19.944 41.9379 20.338 41.509C20.7319 41.0801 21.2768 40.8207 21.858 40.7854C22.4393 40.7501 23.0116 40.9416 23.4545 41.3197L21.4597 43.3092C21.4469 43.3233 21.4363 43.3392 21.4283 43.3564C21.4197 43.3744 21.4152 43.3941 21.4152 43.4141C21.4152 43.434 21.4197 43.4537 21.4283 43.4717C21.4363 43.489 21.4469 43.5049 21.4597 43.5189L23.001 45.0576C22.5796 45.2653 22.1037 45.3357 21.6401 45.2591C21.1766 45.1825 20.7487 44.9626 20.4165 44.6303H20.4139ZM23.6013 44.6303C23.4986 44.7289 23.3862 44.8167 23.2658 44.8925L21.7743 43.4141L23.6694 41.5215C24.0599 41.9498 24.2697 42.5124 24.255 43.0917C24.2404 43.6711 24.0024 44.2223 23.5908 44.6303H23.6013Z" fill="#FF6C37"/>
</svg>
