<svg width="100" height="100" viewBox="0 0 100 100" fill="none" xmlns="http://www.w3.org/2000/svg">
<g clip-path="url(#clip0_15397_208537)">
<path d="M23.0978 41.8985C24.0489 41.8985 24.9094 41.9437 25.8605 41.9437C26.8569 41.9437 27.8532 41.8985 28.8496 41.8985L28.6684 42.4872L27.3098 43.2119V48.3749C27.3098 51.7716 27.355 53.855 27.4003 54.0814L29.1666 54.8061L28.9855 55.3042C27.9438 55.3042 26.8569 55.259 25.7699 55.259C24.7282 55.259 23.6413 55.3042 22.5996 55.3042L22.7808 54.7155L24.2753 53.9456C24.3659 53.7191 24.4112 51.6358 24.4112 48.2843V43.1666L22.9166 42.4419L23.0978 41.8985ZM30.8877 47.8767L29.8913 47.3332L30.0724 46.8803C30.3895 46.6086 33.1974 45.9745 33.6956 45.9745L33.5145 47.4691L33.5598 47.5144C34.6467 46.6992 35.7337 45.9745 36.5942 45.9745C38.8134 45.9745 39.4927 47.7408 39.4927 49.1901V53.7191C39.4927 53.9456 39.6286 54.0814 39.9003 54.2173L40.942 54.7155L40.8061 55.3042H35.6884L35.779 54.7155L36.5942 54.0814C36.6395 53.4927 36.6848 52.0887 36.6848 49.5524C36.6848 48.3296 36.1413 47.6956 35.1902 47.6956C34.692 47.6956 34.1938 47.922 33.6503 48.3296C33.6503 49.9148 33.6503 53.7191 33.6956 54.0814L34.692 54.7155L34.6014 55.3042H29.5742L29.7101 54.7155L30.7971 54.0814C30.8424 53.8097 30.8424 51.8622 30.8424 49.5524L30.8877 47.8767ZM45.0181 45.9745C45.471 45.9745 46.0598 46.1104 46.6032 46.4727C46.9655 46.2463 47.3732 46.0198 47.8261 45.884L48.0525 45.9745C47.9619 46.9709 47.7355 48.3296 47.5543 48.7825L47.192 48.9184C46.9203 48.5108 46.6032 47.8767 46.4221 47.3332C46.2862 47.2427 45.9239 46.9256 45.2445 46.9256C44.3387 46.9256 43.9764 47.5144 43.9764 47.9673C43.9764 48.3296 44.2029 48.6919 44.7463 48.9637C45.788 49.4619 46.4221 49.7789 47.192 50.1865C48.3695 50.8206 48.6413 51.5452 48.6413 52.4057C48.6413 54.9872 46.0598 55.5307 44.5652 55.5307C43.3424 55.5307 42.029 55.0778 41.5308 54.7155C41.5308 54.0814 41.8931 52.4963 42.029 52.134L42.346 51.9981C42.7083 52.5869 43.2518 53.8097 43.6141 54.5343C43.9311 54.6702 44.2482 54.7155 44.7011 54.7155C45.6069 54.7155 46.2409 54.1267 46.2409 53.4927C46.2409 53.085 46.0598 52.8133 45.5163 52.4963C45.0181 52.2245 44.4293 51.9075 43.75 51.5905C42.4819 51.0017 41.7119 50.1865 41.7119 48.8731C41.6666 47.4691 42.7536 45.9745 45.0181 45.9745ZM52.7627 47.1521H52.8079C54.2119 46.2916 54.8913 45.9745 55.3442 45.9745C57.0199 45.9745 59.3297 47.4691 59.3297 50.3224C59.3297 54.0814 56.3858 55.5307 54.4384 55.5307C54.1666 55.5307 53.6684 55.3495 52.8532 54.9419H52.8079C52.8079 56.0289 52.8532 57.4782 52.8985 58.2481L54.7554 58.9727L54.6195 59.5615H48.7771L48.9583 58.9274L49.9547 58.3387C50 57.8858 50.0453 55.9383 50.0453 52.9945V47.6956L48.913 46.9709L49.0489 46.4727C49.3206 46.3821 51.721 45.9745 52.8079 45.9745L52.7627 47.1521ZM52.8532 54.1267C53.125 54.2626 53.3967 54.3079 53.759 54.3079C55.1177 54.3079 56.4764 53.085 56.4764 50.8658C56.4764 48.6919 55.0724 47.6503 53.8043 47.6503C53.5326 47.6503 53.2155 47.6956 52.8079 47.8767L52.8532 54.1267ZM63.1793 50.73V51.0017C63.1793 52.9039 64.3569 54.2173 65.9873 54.2173C66.1684 54.2173 66.3043 54.2173 66.4855 54.172C67.1195 53.6738 68.0706 53.0398 68.5235 52.8133L68.6594 53.1756C68.5235 53.9456 67.4819 54.9419 67.0742 55.1684C66.7119 55.3042 65.7608 55.576 64.9456 55.576C62.0924 55.576 60.2355 53.8097 60.2355 50.9111C60.2355 48.1032 62.4094 46.0198 64.9456 46.0198C67.1195 46.0198 68.8405 47.3785 68.8405 49.7336C68.8405 50.0506 68.75 50.3224 68.6141 50.3677C68.4329 50.4582 67.663 50.7753 66.4402 50.7753L63.1793 50.73ZM65.9873 49.8242C66.0326 49.6883 66.1232 49.4166 66.1232 49.1901C66.1232 47.7861 65.6703 46.835 64.855 46.835C63.8134 46.835 63.2246 48.6466 63.1793 49.8242H65.9873ZM69.7916 46.7898C70.1087 46.6086 72.3732 46.0198 73.279 45.9745C73.3695 46.3821 73.5054 47.3785 73.4601 47.6956H73.5054C74.1395 46.7445 75.0905 45.9745 76.0869 45.9745C76.6304 45.9745 76.9927 46.1557 77.2645 46.3821C77.2192 46.9709 76.6757 48.5108 76.2681 49.1901L75.9058 49.2807C75.6793 48.9184 75.4529 48.6466 75.0453 47.7861C74.9547 47.7408 74.8641 47.6956 74.7282 47.6956C74.3206 47.6956 73.7771 48.1485 73.5054 48.6919V53.9908L75.5434 54.6249L75.4076 55.2137H69.4746L69.5199 54.6249L70.6521 53.9908C70.7427 51.9075 70.7427 48.6013 70.7427 47.7861L69.6558 47.2427L69.7916 46.7898ZM78.0344 46.6539C78.3514 46.5633 80.2536 46.1104 81.7935 46.0198V50.2318C81.7935 52.4963 81.7934 53.6285 81.8387 54.0814L83.1974 54.7155L83.0616 55.3042H77.7626L77.8532 54.7155L78.9402 54.0814C78.9402 53.3568 78.9855 51.7716 78.9855 50.1865V47.6956L77.8985 47.1521L78.0344 46.6539ZM98.0072 46.2916H96.6032L96.3768 46.835L97.192 47.5144C96.9656 48.3296 96.3315 50.3224 95.8786 51.6358C95.1539 49.9148 94.2934 48.4655 93.8858 47.4238L94.4293 46.835L94.5199 46.2463H87.3641L87.4547 43.3024C87.1829 43.3024 86.096 43.5289 85.6884 43.8006C85.326 44.2082 84.7373 45.7481 84.6014 46.2916H83.605L83.288 47.1068L84.5561 47.4691V52.5869C84.5561 53.8097 84.692 54.2626 85.009 54.7155C85.5072 55.3042 86.3224 55.6666 87.4094 55.6666C88.6775 55.6666 89.7645 55.0778 90.2174 54.3079V53.5832L90.1268 53.5379C89.7645 53.8097 89.221 54.0814 88.4963 54.0814C88.134 54.0814 87.7264 53.9456 87.5453 53.7644C87.4547 53.6285 87.3641 53.4474 87.3641 52.9492V47.5144L89.6286 47.1068C90.2626 47.1068 90.7608 47.5597 90.8967 47.7861C91.7572 49.5977 93.9764 55.0325 94.2029 55.5307C94.067 55.9383 93.75 56.5724 93.5688 56.9347C92.6177 57.7046 91.6213 58.701 91.4855 59.018C91.6666 59.3803 92.5271 60.0597 93.3876 60.0597C93.5688 60.0597 93.75 60.0597 93.8405 59.9691C93.9764 59.3803 94.067 58.8369 94.4293 57.4782C95.7427 54.3532 97.9166 48.8731 98.5507 47.5597C99.0036 47.3332 99.3659 47.0615 99.7735 46.835L99.9547 46.2463C99.4112 46.2463 98.7771 46.2916 98.0072 46.2916ZM81.7482 43.1213C81.7482 43.9818 81.0688 44.7064 80.2536 44.7064C79.4384 44.7064 78.759 43.9818 78.759 43.1213C78.759 42.2608 79.4384 41.5361 80.2536 41.5361C81.0688 41.5814 81.7482 42.2608 81.7482 43.1213Z" fill="#006595"/>
<path d="M12.9981 44.8877C12.1829 44.933 11.73 44.7066 11.1865 44.3442L11.3224 45.2953C11.8659 45.5671 12.4999 45.5671 12.7717 45.5671C12.7264 45.8388 12.7717 46.4729 13.0434 47.0163L14.0398 47.1522C13.6775 46.6087 13.451 46.1558 13.451 45.3406C13.451 45.0236 13.2699 44.8877 12.9981 44.8877Z" fill="#439539"/>
<path d="M14.4474 43.8911C13.3605 44.0269 12.1376 43.7552 10.9601 42.8947L10.8242 41.6719C11.9565 42.4418 12.9528 43.0759 14.6286 43.0306C15.172 43.0306 15.3532 43.1664 15.3079 43.7099C15.2626 45.3404 15.8967 46.382 16.6666 47.469L15.4438 47.3331C14.6286 46.2009 14.3115 44.978 14.4474 43.8911Z" fill="#439539"/>
<path d="M16.3039 42.0344C15.3076 42.2609 13.1336 42.1703 10.6427 40.2681C10.5521 39.3623 10.5068 39 10.5068 39C11.5938 39.9058 13.813 41.3551 16.3039 41.1739C17.0739 41.1286 17.255 41.2645 17.1644 42.0344C16.9833 44.5254 18.4326 46.6993 19.3836 47.7862C19.3836 47.7862 18.976 47.7409 18.1155 47.6504C16.1681 45.2047 16.0775 43.0308 16.3039 42.0344ZM13.4507 51.9076C13.4054 51.0924 13.6318 50.6395 13.9942 50.096L12.9978 50.2319C12.726 50.7754 12.726 51.4094 12.726 51.6812C12.4543 51.6359 11.8202 51.6812 11.2768 51.9529L11.1409 52.9493C11.6844 52.587 12.1373 52.3605 12.9978 52.3605C13.2695 52.3152 13.4507 52.1793 13.4507 51.9076Z" fill="#439539"/>
<path d="M14.4474 53.3567C14.3115 52.2698 14.5833 51.0469 15.4438 49.9147L16.6666 49.7788C15.8967 50.9111 15.2173 51.9074 15.3079 53.5379C15.3079 54.0813 15.172 54.2625 14.6286 54.2172C12.9528 54.1719 11.9565 54.806 10.8242 55.5759L10.9601 54.3531C12.1376 53.5379 13.3605 53.2208 14.4474 53.3567Z" fill="#439539"/>
<path d="M16.3039 55.1683C16.0774 54.1719 16.2133 52.0433 18.1155 49.5524C19.0213 49.4618 19.3836 49.4165 19.3836 49.4165C18.4778 50.5035 16.9832 52.6774 17.1644 55.1683C17.2097 55.9382 17.0738 56.0741 16.3039 56.0288C13.7677 55.8477 11.5938 57.2969 10.5068 58.2027C10.5068 58.2027 10.5521 57.7951 10.6427 56.9346C13.1336 55.0324 15.3075 54.9872 16.3039 55.1683ZM6.38542 52.3151C7.20063 52.2698 7.65353 52.4962 8.19701 52.8585L8.06114 51.9074C7.51766 51.6357 6.88361 51.6357 6.61187 51.6357C6.65716 51.364 6.61187 50.7299 6.34013 50.1864L5.34375 50.0506C5.70607 50.594 5.93252 51.0469 5.93252 51.8622C5.93252 52.1792 6.11368 52.3151 6.38542 52.3151Z" fill="#439539"/>
<path d="M4.936 53.3567C6.02296 53.2208 7.24578 53.4926 8.42332 54.3531L8.55919 55.5759C7.42694 54.806 6.43056 54.1719 4.75484 54.2172C4.21136 54.2172 4.0302 54.0813 4.07549 53.5379C4.12078 51.9074 3.48672 50.8658 2.7168 49.7788L3.89433 49.8694C4.75484 51.0469 5.07187 52.2698 4.936 53.3567Z" fill="#439539"/>
<path d="M3.07971 55.1684C4.07609 54.9419 6.25 55.0778 8.74094 56.9347C8.83152 57.8405 8.87681 58.2028 8.87681 58.2028C7.78986 57.297 5.57065 55.8477 3.07971 56.0289C2.30978 56.0742 2.12862 55.9383 2.2192 55.1684C2.40036 52.6775 0.905797 50.5035 0 49.4166C0 49.4166 0.407609 49.4619 1.26812 49.5525C3.21558 52.0434 3.26087 54.172 3.07971 55.1684ZM5.93297 45.3405C5.97826 46.1557 5.75181 46.6086 5.38949 47.1521L6.38587 47.0162C6.65761 46.4727 6.65761 45.8387 6.65761 45.5669C6.92935 45.6122 7.56341 45.5669 8.10688 45.2952L8.24275 44.2988C7.69928 44.6611 7.20109 44.8876 6.38587 44.8423C6.06884 44.8876 5.93297 45.0235 5.93297 45.3405Z" fill="#439539"/>
<path d="M4.936 43.8911C5.07187 44.978 4.80013 46.2009 3.93962 47.3331L2.7168 47.469C3.48672 46.3367 4.16607 45.3404 4.07549 43.7099C4.0302 43.1664 4.21136 42.9853 4.75484 43.0306C6.43056 43.0759 7.42694 42.4418 8.55919 41.6719L8.42332 42.8947C7.24578 43.7099 6.02296 44.0269 4.936 43.8911Z" fill="#439539"/>
<path d="M3.07971 42.0344C3.30616 43.0308 3.17029 45.1594 1.26812 47.6504C0.362319 47.7409 0 47.7862 0 47.7862C0.905797 46.6993 2.40036 44.5254 2.2192 42.0344C2.12862 41.2645 2.30978 41.1286 3.07971 41.1739C5.57065 41.4004 7.78986 39.9058 8.87681 39C8.87681 39 8.83152 39.4076 8.74094 40.2681C6.25 42.1703 4.07609 42.2609 3.07971 42.0344Z" fill="#439539"/>
<path d="M97.418 54.7154C97.418 53.8549 98.0067 53.4473 98.5955 53.4473C99.1843 53.4473 99.773 53.8549 99.773 54.7154C99.773 55.5759 99.1843 55.9835 98.5955 55.9835C98.0067 55.9835 97.418 55.5759 97.418 54.7154ZM99.5466 54.7154C99.5466 54.0813 99.139 53.6737 98.5955 53.6737C98.0067 53.6737 97.6444 54.0813 97.6444 54.7154C97.6444 55.3494 98.052 55.757 98.5955 55.757C99.139 55.757 99.5466 55.3494 99.5466 54.7154ZM98.1879 54.0813H98.5955C98.8672 54.0813 99.0031 54.2625 99.0031 54.4436C99.0031 54.6248 98.9125 54.7154 98.7767 54.7607C98.822 54.7607 98.822 54.806 98.822 54.8513L99.0484 55.3041H98.7767L98.5955 54.8965C98.5502 54.8513 98.5502 54.806 98.5049 54.806H98.4143V55.3041H98.1879V54.0813ZM98.5955 54.6701C98.7314 54.6701 98.7767 54.6248 98.7767 54.4889C98.7767 54.3531 98.7314 54.3078 98.5955 54.3078H98.4143V54.6701H98.5955Z" fill="#006595"/>
</g>
<defs>
<clipPath id="clip0_15397_208537">
<rect width="100" height="21.0145" fill="white" transform="translate(0 39)"/>
</clipPath>
</defs>
</svg>
