<svg width="100" height="100" viewBox="0 0 100 100" fill="none" xmlns="http://www.w3.org/2000/svg">
<g clip-path="url(#clip0_18000_92054)">
<path d="M100 0H0V100H100V0Z" fill="#E7157B"/>
<path fill-rule="evenodd" clip-rule="evenodd" d="M61.25 55C66.075 55 70 58.925 70 63.75C70 68.575 66.075 72.5 61.25 72.5C56.425 72.5 52.5 68.575 52.5 63.75C52.5 58.925 56.425 55 61.25 55ZM61.25 75C67.4525 75 72.5 69.9525 72.5 63.75C72.5 57.5475 67.4525 52.5 61.25 52.5C55.0475 52.5 50 57.5475 50 63.75C50 69.9525 55.0475 75 61.25 75ZM65.0575 27.2L72.71 42.5H57.4075L65.0575 27.2ZM55.385 45H74.7325C75.1625 45 75.5675 44.775 75.795 44.4075C76.0225 44.0375 76.0425 43.58 75.85 43.19L66.1775 23.845C65.7525 23 64.365 23 63.94 23.845L54.2675 43.19C54.075 43.58 54.095 44.0375 54.3225 44.4075C54.55 44.775 54.9525 45 55.385 45ZM27.5 57.5H45V40H27.5V57.5ZM26.25 60H46.25C46.94 60 47.5 59.44 47.5 58.75V38.75C47.5 38.06 46.94 37.5 46.25 37.5H26.25C25.56 37.5 25 38.06 25 38.75V58.75C25 59.44 25.56 60 26.25 60ZM20 80H80V20H20V80ZM81.25 17.5H18.75C18.06 17.5 17.5 18.06 17.5 18.75V81.25C17.5 81.94 18.06 82.5 18.75 82.5H81.25C81.94 82.5 82.5 81.94 82.5 81.25V18.75C82.5 18.06 81.94 17.5 81.25 17.5Z" fill="white"/>
</g>
<defs>
<clipPath id="clip0_18000_92054">
<rect width="100" height="100" fill="white"/>
</clipPath>
</defs>
</svg>
