<svg width="100" height="100" viewBox="0 0 100 100" fill="none" xmlns="http://www.w3.org/2000/svg">
<g clip-path="url(#clip0_15910_61506)">
<path fill-rule="evenodd" clip-rule="evenodd" d="M16.4431 54.624C15.4327 54.624 14.5049 54.4515 13.6589 54.1071C12.8132 53.7625 12.0799 53.2816 11.46 52.6649C10.8393 52.0481 10.3559 51.3176 10.0092 50.4739C9.66263 49.6302 9.48926 48.7007 9.48926 47.6846C9.48926 46.6505 9.68297 45.6843 10.071 44.7864C10.4588 43.8882 10.9953 43.1084 11.6809 42.446C12.3662 41.784 13.1692 41.2624 14.0891 40.8812C15.0091 40.5001 16.0008 40.3098 17.0655 40.3098C17.859 40.3098 18.6032 40.4232 19.2978 40.6497C19.9919 40.8768 20.5965 41.1899 21.1105 41.5888C21.6246 41.9878 22.0307 42.4642 22.3282 43.0173C22.6258 43.5712 22.7746 44.1561 22.7746 44.7727C22.7746 45.4624 22.5583 46.0381 22.1255 46.5008C21.6924 46.9636 21.1601 47.1947 20.529 47.1947C19.8794 47.1947 19.3383 46.9681 18.9056 46.5145C18.4724 46.061 18.2561 45.4896 18.2561 44.7999C18.2561 44.6007 18.2783 44.41 18.3237 44.2285C18.3685 44.0472 18.4362 43.7841 18.5264 43.4391C18.6167 43.1311 18.6755 42.8996 18.7025 42.7454C18.7294 42.5914 18.743 42.4235 18.743 42.2418C18.743 41.7703 18.5904 41.3846 18.2862 41.0854C17.9814 40.786 17.5974 40.6362 17.1347 40.6362C16.7251 40.6362 16.3466 40.7685 16.0001 41.0323C15.653 41.2958 15.3503 41.6552 15.0924 42.1096C14.8341 42.5648 14.6293 43.1054 14.478 43.7332C14.3268 44.3608 14.2513 45.0292 14.2513 45.7383C14.2513 47.3938 14.6661 48.7081 15.496 49.6811C16.3255 50.6543 17.4443 51.1406 18.8513 51.1406C19.645 51.1406 20.3664 50.991 21.0161 50.6918C21.6651 50.3924 22.2965 49.9255 22.9101 49.2903L23.2346 49.4534C21.7011 52.9008 19.4373 54.624 16.4431 54.624Z" fill="#3C3F40"/>
<path fill-rule="evenodd" clip-rule="evenodd" d="M33.5655 44.407C33.4836 43.5145 33.3696 42.7951 33.2235 42.2483C33.0773 41.7384 32.8495 41.3423 32.5391 41.0598C32.2286 40.7776 31.854 40.6364 31.4162 40.6364C30.9594 40.6364 30.5718 40.7776 30.2523 41.0598C29.9328 41.3423 29.709 41.7384 29.5812 42.2483C29.4349 42.8313 29.3257 43.5643 29.2529 44.4478C29.1798 45.3314 29.1434 46.3377 29.1434 47.467C29.1434 48.5964 29.1798 49.6073 29.2529 50.4998C29.3257 51.3923 29.4349 52.1209 29.5812 52.6857C29.709 53.1957 29.9328 53.5917 30.2523 53.8742C30.5718 54.1563 30.9594 54.2976 31.4162 54.2976C31.854 54.2976 32.2329 54.1563 32.5528 53.8742C32.8717 53.5917 33.0954 53.1957 33.2235 52.6857C33.5338 51.5017 33.6891 49.7623 33.6891 47.467C33.6891 46.3198 33.6477 45.2995 33.5655 44.407ZM38.3033 50.2971C37.916 51.168 37.3896 51.9257 36.7233 52.5695C36.0569 53.2135 35.2694 53.7173 34.36 54.0799C33.4506 54.4425 32.4738 54.624 31.4299 54.624C30.3671 54.624 29.3811 54.4425 28.4721 54.0799C27.5627 53.7173 26.7748 53.2135 26.1087 52.5695C25.4423 51.9257 24.9161 51.168 24.5288 50.2971C24.1414 49.4264 23.9482 48.4832 23.9482 47.467C23.9482 46.451 24.1414 45.5075 24.5288 44.6368C24.9161 43.7659 25.4423 43.0085 26.1087 42.3643C26.7748 41.7205 27.5627 41.2171 28.4721 40.8539C29.3811 40.4913 30.3671 40.3098 31.4299 40.3098C32.4738 40.3098 33.4506 40.4913 34.36 40.8539C35.2694 41.2171 36.0569 41.7205 36.7233 42.3643C37.3896 43.0085 37.916 43.7659 38.3033 44.6368C38.6905 45.5075 38.884 46.451 38.884 47.467C38.884 48.4832 38.6905 49.4264 38.3033 50.2971Z" fill="#3C3F40"/>
<path fill-rule="evenodd" clip-rule="evenodd" d="M95.1416 42.3946C95.1416 43.7171 96.2076 44.7892 97.5225 44.7892C98.8374 44.7892 99.9034 43.7171 99.9034 42.3946C99.9034 41.0721 98.8374 40 97.5225 40C96.2076 40 95.1416 41.0721 95.1416 42.3946Z" fill="#3C3F40"/>
<path fill-rule="evenodd" clip-rule="evenodd" d="M0.250977 43.8546C0.250977 45.1771 1.31695 46.2492 2.63188 46.2492C3.94681 46.2492 5.01279 45.1771 5.01279 43.8546C5.01279 42.5321 3.94681 41.46 2.63188 41.46C1.31695 41.46 0.250977 42.5321 0.250977 43.8546Z" fill="#FF3465"/>
<path fill-rule="evenodd" clip-rule="evenodd" d="M0.250977 51.1537C0.250977 52.4762 1.31695 53.5483 2.63188 53.5483C3.94681 53.5483 5.01279 52.4762 5.01279 51.1537C5.01279 49.8311 3.94681 48.759 2.63188 48.759C1.31695 48.759 0.250977 49.8311 0.250977 51.1537Z" fill="#FF3465"/>
<path fill-rule="evenodd" clip-rule="evenodd" d="M49.1723 52.202C48.6999 53.2728 48.037 53.8077 47.1834 53.8077C46.6932 53.8077 46.2483 53.6084 45.8487 53.209V42.4867C46.2483 42.2329 46.557 42.0608 46.7751 41.9698C46.9929 41.8791 47.2105 41.8337 47.4289 41.8337C48.1914 41.8337 48.7904 42.3555 49.2262 43.3983C49.6623 44.4419 49.8803 45.8797 49.8803 47.712C49.8803 49.6353 49.644 51.1318 49.1723 52.202ZM54.5738 44.1606C54.3293 43.3715 53.9858 42.6909 53.5427 42.1194C53.0991 41.548 52.5697 41.1036 51.9548 40.786C51.3393 40.4686 50.6613 40.3098 49.9199 40.3098C49.2318 40.3098 48.5669 40.4457 47.9245 40.7179C47.2825 40.9902 46.5904 41.4439 45.8487 42.0787V40.9277V40.3098L39.1709 42.3099V42.4351V42.7144C39.4589 42.757 39.6979 42.8186 39.8827 42.9015C40.1439 43.0186 40.3737 43.2043 40.5724 43.4575C40.6808 43.6024 40.7663 43.7563 40.8296 43.919C40.8925 44.0819 40.9421 44.2721 40.9783 44.4889C41.0143 44.706 41.0414 44.9635 41.0595 45.2623C41.0772 45.5608 41.0866 45.9091 41.0866 46.3069V54.909V56.0212C41.0866 56.3289 41.0821 56.5823 41.0731 56.7812C41.0638 56.9802 41.0504 57.1519 41.0326 57.297C41.0143 57.4412 40.9873 57.5862 40.9513 57.7313C40.8973 58.0748 40.7798 58.3462 40.5995 58.5452C40.4009 58.7986 40.1667 58.9748 39.8961 59.0745C39.7711 59.1205 39.6076 59.1612 39.4094 59.1976V59.6316H47.5231V59.2423C47.2807 59.2113 47.0802 59.1745 46.9311 59.13C46.6604 59.0488 46.4441 58.9103 46.2819 58.713C46.1914 58.6054 46.1193 58.4891 46.0654 58.3635C46.0111 58.2376 45.9661 58.0763 45.9301 57.8792C45.8935 57.6818 45.8713 57.4442 45.8624 57.1666C45.853 56.8878 45.8487 56.543 45.8487 56.1307V53.6443C46.3188 54.0076 46.749 54.2614 47.1377 54.4065C47.5268 54.5514 47.9833 54.624 48.5085 54.624C49.4128 54.624 50.2541 54.4243 51.0321 54.0255C51.81 53.6264 52.4885 53.0729 53.0678 52.3653C53.6467 51.6579 54.1033 50.8277 54.4379 49.8753C54.7729 48.9228 54.9401 47.8935 54.9401 46.7868C54.9401 45.8251 54.8181 44.9496 54.5738 44.1606Z" fill="#3C3F40"/>
<path fill-rule="evenodd" clip-rule="evenodd" d="M65.9555 52.202C65.4831 53.2728 64.8203 53.8077 63.9667 53.8077C63.4764 53.8077 63.0315 53.6084 62.6319 53.209V42.4867C63.0315 42.2329 63.3402 42.0608 63.5583 41.9698C63.7761 41.8791 63.9937 41.8337 64.2121 41.8337C64.9746 41.8337 65.5736 42.3555 66.0094 43.3983C66.4455 44.4419 66.6635 45.8797 66.6635 47.712C66.6635 49.6353 66.4272 51.1318 65.9555 52.202ZM71.357 44.1606C71.1125 43.3715 70.769 42.6909 70.3259 42.1194C69.8823 41.548 69.3529 41.1036 68.738 40.786C68.1225 40.4686 67.4445 40.3098 66.7029 40.3098C66.015 40.3098 65.3501 40.4457 64.7077 40.7179C64.0657 40.9902 63.3736 41.4439 62.6319 42.0787V40.9277V40.3098L55.9541 42.3099V42.4351V42.7144C56.2421 42.757 56.4811 42.8186 56.6659 42.9015C56.9271 43.0186 57.1569 43.2043 57.3556 43.4575C57.464 43.6024 57.5495 43.7563 57.6128 43.919C57.6757 44.0819 57.7253 44.2721 57.7615 44.4889C57.7975 44.706 57.8246 44.9635 57.8427 45.2623C57.8604 45.5608 57.8698 45.9091 57.8698 46.3069V54.909V56.0212C57.8698 56.3289 57.8653 56.5823 57.8563 56.7812C57.847 56.9802 57.8336 57.1519 57.8158 57.297C57.7975 57.4412 57.7705 57.5862 57.7345 57.7313C57.6805 58.0748 57.563 58.3462 57.3827 58.5452C57.1841 58.7986 56.9499 58.9748 56.6793 59.0745C56.5543 59.1205 56.3908 59.1612 56.1926 59.1976V59.6316H64.3063V59.2423C64.0639 59.2113 63.8635 59.1745 63.7143 59.13C63.4436 59.0488 63.2273 58.9103 63.0651 58.713C62.9746 58.6054 62.9025 58.4891 62.8486 58.3635C62.7943 58.2376 62.7493 58.0763 62.7133 57.8792C62.6767 57.6818 62.6545 57.4442 62.6456 57.1666C62.6362 56.8878 62.6319 56.543 62.6319 56.1307V53.6443C63.102 54.0076 63.5322 54.2614 63.9211 54.4065C64.31 54.5514 64.7665 54.624 65.2917 54.624C66.196 54.624 67.0373 54.4243 67.8153 54.0255C68.5932 53.6264 69.2717 53.0729 69.851 52.3653C70.4297 51.6579 70.8865 50.8277 71.2212 49.8753C71.5561 48.9228 71.7233 47.8935 71.7233 46.7868C71.7233 45.8251 71.6013 44.9496 71.357 44.1606Z" fill="#3C3F40"/>
<path fill-rule="evenodd" clip-rule="evenodd" d="M95.1469 53.7684C94.8943 53.6871 94.6959 53.5473 94.5516 53.3487C94.4611 53.2408 94.3937 53.1238 94.3488 52.9973C94.3036 52.871 94.2631 52.7133 94.2271 52.5238C94.1909 52.3344 94.1683 52.0954 94.1593 51.8073C94.15 51.5188 94.1459 51.1667 94.1459 50.7519V49.0013V47.371V40.2686L87.3906 42.2923V42.7002C87.7144 42.7424 87.9785 42.8083 88.1797 42.8985C88.4407 43.0159 88.671 43.2013 88.8696 43.4539C88.9778 43.5983 89.0633 43.7522 89.1266 43.9147C89.1896 44.0776 89.2391 44.2672 89.2757 44.484C89.3113 44.701 89.3384 44.9585 89.3567 45.2568C89.3744 45.5548 89.3835 45.9026 89.3835 46.3001V50.7455C89.3835 51.595 89.3567 52.1959 89.3024 52.548C89.2484 52.9005 89.1491 53.167 89.0049 53.3476C88.8425 53.5467 88.635 53.6865 88.3825 53.7678C88.2004 53.8266 87.9456 53.8731 87.6235 53.908V54.2705H95.8139V53.8966C95.5368 53.863 95.3104 53.8209 95.1469 53.7684Z" fill="#3C3F40"/>
<path fill-rule="evenodd" clip-rule="evenodd" d="M80.0438 40.6362C80.5852 40.6362 80.9997 40.8611 81.2886 41.3102C81.5769 41.759 81.7574 42.479 81.8296 43.4691C81.8473 43.6527 81.8611 43.8177 81.8701 43.9641C81.8792 44.1106 81.8878 44.2708 81.8973 44.4453C81.9061 44.6197 81.911 44.8166 81.911 45.0364V45.5546H77.748C77.7687 44.007 77.9598 42.809 78.3256 41.97C78.7134 41.0811 79.2861 40.6362 80.0438 40.6362ZM86.5647 48.8547C86.2943 49.2725 86.0685 49.5852 85.8884 49.7935C85.7079 50.0024 85.4644 50.2064 85.1578 50.4058C84.3637 50.9685 83.3991 51.2495 82.2627 51.2495C79.2686 51.2495 77.762 49.5536 77.7439 46.1622H86.2469V46.1607H86.7C86.5918 45.2719 86.3525 44.4645 85.983 43.7384C85.6131 43.0132 85.1395 42.3961 84.5625 41.888C83.9849 41.3802 83.3179 40.99 82.5602 40.7179C81.8025 40.4455 80.9728 40.3098 80.0709 40.3098C79.0428 40.3098 78.0821 40.5001 77.1891 40.8812C76.2963 41.2622 75.5158 41.784 74.8489 42.4458C74.1813 43.1082 73.6582 43.8839 73.2794 44.7727C72.9005 45.6618 72.7109 46.6143 72.7109 47.6301C72.7109 48.6281 72.8912 49.5533 73.2523 50.4058C73.6129 51.2588 74.1138 51.998 74.7541 52.6238C75.3942 53.2497 76.1517 53.7396 77.0269 54.0932C77.9018 54.447 78.8442 54.624 79.8546 54.624C80.9185 54.624 81.8927 54.42 82.7767 54.0118C83.6603 53.6033 84.418 53.0185 85.0495 52.2564C85.2479 52.0025 85.4237 51.7666 85.5771 51.5488C85.7301 51.3313 85.8703 51.1044 85.9965 50.8686C86.1228 50.6329 86.2489 50.365 86.3753 50.0659C86.5013 49.7663 86.6461 49.399 86.8084 48.9635L86.5647 48.8547Z" fill="#3C3F40"/>
</g>
<defs>
<clipPath id="clip0_15910_61506">
<rect width="100" height="19.708" fill="white" transform="translate(0 40)"/>
</clipPath>
</defs>
</svg>
