<svg width="100" height="100" viewBox="0 0 100 100" fill="none" xmlns="http://www.w3.org/2000/svg">
<g clip-path="url(#clip0_15384_206892)">
<path fill-rule="evenodd" clip-rule="evenodd" d="M66.2271 34.2911V6.41154L85.6939 0V67.2647H85.6562C85.3865 72.9925 83.8934 78.3187 81.1832 83.0677C78.197 88.325 73.8871 92.4969 68.4605 95.4831C63.0401 98.4693 56.798 99.9623 49.9159 99.9623C43.0276 99.9623 36.7917 98.4693 31.3651 95.4831C25.9385 92.4969 21.6286 88.325 18.5797 83.0677C15.5621 77.8105 14 71.9071 14 65.4956C14 58.9837 15.5621 53.0489 18.611 47.8607C21.6286 42.6349 25.9385 38.463 31.3651 35.4454C36.7917 32.4279 43.0276 30.9034 49.9159 30.9034C55.8821 30.9034 61.34 32.0514 66.2271 34.2911ZM49.9159 47.9297C45.2673 47.9297 41.6035 49.5232 38.6236 52.8105C35.5998 56.1355 34.1443 60.276 34.1443 65.4956C34.1443 70.6211 35.5998 74.724 38.6236 78.0489C41.5721 81.3363 45.2673 82.936 49.9159 82.936C54.458 82.936 58.1217 81.3363 61.1393 78.0489C64.1882 74.724 65.6813 70.6211 65.6813 65.4956C65.6813 60.276 64.1882 56.1355 61.1393 52.8105C58.1217 49.5232 54.458 47.9297 49.9159 47.9297Z" fill="#3067DB"/>
</g>
<defs>
<clipPath id="clip0_15384_206892">
<rect width="71.7064" height="100" fill="white" transform="translate(14)"/>
</clipPath>
</defs>
</svg>
