<svg width="100" height="100" viewBox="0 0 100 100" fill="none" xmlns="http://www.w3.org/2000/svg">
<g clip-path="url(#clip0_15910_61512)">
<path d="M44.0931 9.04144L7.27819 24.2747C5.23093 25.122 5.25214 28.0305 7.31223 28.847L44.2806 43.5071C47.5287 44.7953 51.146 44.7953 54.3941 43.5071L91.363 28.8465C93.4226 28.0305 93.4449 25.1226 91.3965 24.2753L54.5827 9.04088C51.2241 7.65109 47.4512 7.65109 44.0925 9.04088" fill="#FCB400"/>
<path d="M52.6182 51.5121V88.1355C52.6182 89.8769 54.3746 91.0702 55.9938 90.4284L97.1878 74.4388C97.6473 74.2567 98.0414 73.9407 98.3191 73.5319C98.5967 73.123 98.7451 72.6402 98.745 72.1459V35.5231C98.745 33.7811 96.9886 32.5884 95.3694 33.2302L54.1754 49.2198C53.716 49.402 53.322 49.7181 53.0443 50.1269C52.7667 50.5357 52.6182 51.0179 52.6182 51.5121Z" fill="#18BFFF"/>
<path d="M42.998 53.4023L30.7725 59.3052L29.5312 59.9052L3.72391 72.2708C2.08856 73.06 0 71.8678 0 70.0505V35.6769C0 35.0194 0.337116 34.4518 0.789209 34.0248C0.974679 33.8401 1.18509 33.6823 1.41433 33.556C2.03051 33.1859 2.91014 33.0871 3.65805 33.3829L42.7926 48.8892C44.7818 49.6784 44.938 52.4652 42.998 53.4023Z" fill="#F82B60"/>
<path d="M42.9988 53.4023L30.7733 59.3052L0.790039 34.0242C0.975545 33.8397 1.18596 33.6821 1.41516 33.556C2.03134 33.1859 2.91097 33.0871 3.65888 33.3829L42.7934 48.8892C44.7826 49.6784 44.9389 52.4652 42.9988 53.4023Z" fill="black" fill-opacity="0.25"/>
</g>
<defs>
<clipPath id="clip0_15910_61512">
<rect width="100" height="83.7209" fill="white" transform="translate(0 8)"/>
</clipPath>
</defs>
</svg>
