<svg width="100" height="100" viewBox="0 0 100 100" fill="none" xmlns="http://www.w3.org/2000/svg">
<path d="M33.8548 55.1042C36.9039 55.1042 39.3757 52.6324 39.3757 49.5833C39.3757 46.5343 36.9039 44.0625 33.8548 44.0625C30.8057 44.0625 28.334 46.5343 28.334 49.5833C28.334 52.6324 30.8057 55.1042 33.8548 55.1042Z" fill="#141414"/>
<path d="M50.4173 55.1042C53.4664 55.1042 55.9382 52.6324 55.9382 49.5833C55.9382 46.5343 53.4664 44.0625 50.4173 44.0625C47.3682 44.0625 44.8965 46.5343 44.8965 49.5833C44.8965 52.6324 47.3682 55.1042 50.4173 55.1042Z" fill="#141414"/>
<path opacity="0.2" d="M33.8548 71.6667C36.9039 71.6667 39.3757 69.1949 39.3757 66.1458C39.3757 63.0968 36.9039 60.625 33.8548 60.625C30.8057 60.625 28.334 63.0968 28.334 66.1458C28.334 69.1949 30.8057 71.6667 33.8548 71.6667Z" fill="#141414"/>
<path opacity="0.2" d="M66.9798 71.6667C70.0289 71.6667 72.5007 69.1949 72.5007 66.1458C72.5007 63.0968 70.0289 60.625 66.9798 60.625C63.9307 60.625 61.459 63.0968 61.459 66.1458C61.459 69.1949 63.9307 71.6667 66.9798 71.6667Z" fill="#141414"/>
<path d="M50.4173 71.6667C53.4664 71.6667 55.9382 69.1949 55.9382 66.1458C55.9382 63.0968 53.4664 60.625 50.4173 60.625C47.3682 60.625 44.8965 63.0968 44.8965 66.1458C44.8965 69.1949 47.3682 71.6667 50.4173 71.6667Z" fill="#141414"/>
<path d="M66.9798 55.1042C70.0289 55.1042 72.5007 52.6324 72.5007 49.5833C72.5007 46.5343 70.0289 44.0625 66.9798 44.0625C63.9307 44.0625 61.459 46.5343 61.459 49.5833C61.459 52.6324 63.9307 55.1042 66.9798 55.1042Z" fill="#141414"/>
<path opacity="0.2" d="M33.8548 38.5417C36.9039 38.5417 39.3757 36.0699 39.3757 33.0208C39.3757 29.9718 36.9039 27.5 33.8548 27.5C30.8057 27.5 28.334 29.9718 28.334 33.0208C28.334 36.0699 30.8057 38.5417 33.8548 38.5417Z" fill="#141414"/>
<path opacity="0.2" d="M50.4173 38.5417C53.4664 38.5417 55.9382 36.0699 55.9382 33.0208C55.9382 29.9718 53.4664 27.5 50.4173 27.5C47.3682 27.5 44.8965 29.9718 44.8965 33.0208C44.8965 36.0699 47.3682 38.5417 50.4173 38.5417Z" fill="#141414"/>
<path opacity="0.2" d="M66.9798 38.5417C70.0289 38.5417 72.5007 36.0699 72.5007 33.0208C72.5007 29.9718 70.0289 27.5 66.9798 27.5C63.9307 27.5 61.459 29.9718 61.459 33.0208C61.459 36.0699 63.9307 38.5417 66.9798 38.5417Z" fill="#141414"/>
</svg>
