<svg width="100" height="100" viewBox="0 0 100 100" fill="none" xmlns="http://www.w3.org/2000/svg">
<g clip-path="url(#clip0_15910_61495)">
<path fill-rule="evenodd" clip-rule="evenodd" d="M84.983 48.2115C84.983 68.0148 69.2879 84.0686 49.9269 84.0686C30.5662 84.0686 14.8711 68.0148 14.8711 48.2115C14.8711 28.4079 30.5662 12.3538 49.9269 12.3538C69.2879 12.3538 84.983 28.4079 84.983 48.2115Z" fill="#D33833"/>
<path d="M16.2996 57.0922C16.2996 57.0922 13.7617 19.6991 48.217 18.6306L45.8133 14.6242L27.1169 20.9011L21.7749 27.0441L17.1008 35.992L14.4297 46.4087L15.231 53.353" fill="#EF3D3A"/>
<path d="M25.917 23.7504C19.7663 30.0437 15.9602 38.7328 15.9602 48.3454C15.9602 57.9559 19.7663 66.6462 25.917 72.9383C32.0706 79.2304 40.5511 83.113 49.9268 83.113C59.3027 83.113 67.7838 79.2304 73.9369 72.9383C80.0871 66.6462 83.894 57.9559 83.894 48.3454C83.894 38.7328 80.0871 30.0437 73.9369 23.7504C67.7838 17.4595 59.3027 13.5769 49.9268 13.5761C40.5511 13.5769 32.0706 17.4595 25.917 23.7504ZM24.3601 74.4604C17.8234 67.7753 13.7822 58.5365 13.7822 48.3454C13.7822 38.1527 17.8234 28.9147 24.3601 22.2292C30.8952 15.5425 39.9416 11.3978 49.9268 11.399C59.912 11.3978 68.9593 15.5425 75.4934 22.2292C82.0306 28.9147 86.0723 38.1535 86.0715 48.3454C86.0723 58.5365 82.0306 67.7753 75.4934 74.4604C68.9593 81.1467 59.912 85.2908 49.9268 85.2908C39.9416 85.2908 30.8952 81.1467 24.3601 74.4604Z" fill="#231F20"/>
<path fill-rule="evenodd" clip-rule="evenodd" d="M64.6843 48.4103L59.3421 49.2115L52.1305 50.0128L47.4561 50.1462L42.9157 50.0128L39.4433 48.9443L36.3717 45.6058L33.9678 38.7949L33.4337 37.3257L30.2286 36.2576L28.3589 33.1859L27.0234 28.7788L28.4927 24.9059L31.9646 23.7039L34.7691 25.0397L36.1048 27.9776L37.7074 27.7103L38.2414 27.0429L37.7074 23.9712L37.5736 20.0982L38.3749 14.7564L38.3436 11.7051L40.7787 7.81211L45.0523 4.74039L52.5311 1.53526L60.8109 2.73718L68.0224 7.94551L71.3613 13.2873L73.498 17.1603L74.032 26.7756L72.4294 35.0557L69.4915 42.4006L66.6871 46.2736" fill="#F0D6B7"/>
<path fill-rule="evenodd" clip-rule="evenodd" d="M60.1428 71.5136L41.0452 72.3149V75.52L42.6478 86.738L41.8465 87.6731L28.492 83.1322L27.5569 81.5297L26.2215 66.4391L23.1504 57.3578L22.4824 55.2212L33.1659 47.8762L36.5049 46.5405L39.4427 50.1463L41.98 52.4167L44.9183 53.3514L46.2536 53.752L47.8561 60.6963L49.0581 62.1654L52.1299 61.097L49.9928 65.2372L61.6115 70.7124L60.1428 71.5136Z" fill="#335061"/>
<path fill-rule="evenodd" clip-rule="evenodd" d="M28.4925 24.9058L31.9644 23.7039L34.7689 25.0396L36.1046 27.9775L37.7072 27.7103L38.1078 26.1078L37.3066 23.0364L38.1078 15.6911L37.4399 11.6847L39.8437 8.88019L45.0521 4.74036L43.583 2.73715L36.238 6.34292L33.1663 8.74677L31.4303 12.486L28.7593 16.0917L27.958 20.3654L28.4925 24.9058Z" fill="#6D6B6D"/>
<path fill-rule="evenodd" clip-rule="evenodd" d="M33.9678 12.3526C33.9678 12.3526 35.971 7.41148 43.9838 5.00763C51.9966 2.60379 44.3845 3.27125 44.3845 3.27125L35.7042 6.6102L32.3652 9.94874L30.8965 12.6198L33.9678 12.3526Z" fill="#DCD9D8"/>
<path fill-rule="evenodd" clip-rule="evenodd" d="M29.9612 23.9712C29.9612 23.9712 27.1567 14.6226 37.8405 13.2873L37.4399 11.6847L30.095 13.4211L27.958 20.3654L28.4925 24.9059L29.9612 23.9712Z" fill="#DCD9D8"/>
<path fill-rule="evenodd" clip-rule="evenodd" d="M34.2344 36.391L35.983 34.6967C35.983 34.6967 36.7722 34.7885 36.9055 35.7232C37.0389 36.6582 37.4395 45.0717 43.182 49.6126C43.7058 50.0268 38.9087 48.9443 38.9087 48.9443L34.635 42.2672" fill="#F7E4CD"/>
<path fill-rule="evenodd" clip-rule="evenodd" d="M58.8084 33.8538C58.8084 33.8538 59.1197 29.8057 60.2098 30.117C61.3 30.4283 61.3 31.5184 61.3 31.5184C61.3 31.5184 58.6525 33.2312 58.8084 33.8538Z" fill="#F7E4CD"/>
<path d="M69.8916 19.03C69.8916 19.03 67.6905 19.4948 67.4878 21.4339C67.2851 23.3734 69.8916 21.8345 70.2923 21.7011" fill="#F7E4CD"/>
<path d="M53.7332 19.1639C53.7332 19.1639 50.7949 19.5645 50.7949 21.4339C50.7949 23.3037 54.1339 23.1703 55.0686 22.369" fill="#F7E4CD"/>
<path fill-rule="evenodd" clip-rule="evenodd" d="M35.5699 27.8442C35.5699 27.8442 30.4949 24.7725 29.961 27.7108C29.4268 30.6487 28.2246 32.7857 30.7622 35.857L29.0262 35.3229L27.4236 31.1831L26.8896 27.1767L29.961 23.9712L33.4332 24.2384L35.4364 25.841L35.5699 27.8442Z" fill="#F7E4CD"/>
<path fill-rule="evenodd" clip-rule="evenodd" d="M37.9736 19.4307C37.9736 19.4307 40.244 7.67866 51.7292 5.40823C61.1848 3.53924 66.152 5.80887 68.0218 7.94548C68.0218 7.94548 59.6083 -2.07014 51.5954 1.00117C43.5826 4.07289 37.7068 9.68187 37.8401 13.2872C38.0675 19.4283 37.9736 19.4307 37.9736 19.4307Z" fill="#F7E4CD"/>
<path fill-rule="evenodd" clip-rule="evenodd" d="M68.9576 9.28082C68.9576 9.28082 65.085 9.1474 64.9512 12.6198C64.9512 12.6198 64.9508 13.1538 65.218 13.6879C65.218 13.6879 68.2901 10.2155 70.1595 12.0853" fill="#F7E4CD"/>
<path fill-rule="evenodd" clip-rule="evenodd" d="M51.9986 14.0497C51.9986 14.0497 51.3319 8.71995 46.7879 11.8185C43.8499 13.8217 44.1173 16.6262 44.6512 17.1603C45.1854 17.6947 45.0401 18.7704 45.4467 18.0321C45.8532 17.2937 45.7193 14.8898 47.1886 14.2224C48.6576 13.5545 51.0659 12.8085 51.9986 14.0497Z" fill="#F7E4CD"/>
<path fill-rule="evenodd" clip-rule="evenodd" d="M39.4427 50.1462L26.8895 55.7552C26.8895 55.7552 32.0978 76.4551 29.4267 82.8654L27.5569 82.1979L27.4234 74.3184L23.9517 59.3613L22.4824 55.2211L35.5698 46.4074L39.4427 50.1462Z" fill="#49728B"/>
<path fill-rule="evenodd" clip-rule="evenodd" d="M40.7342 61.5954L42.5152 63.7684V71.7812H40.3782C40.3782 71.7812 40.1113 66.1723 40.1113 65.5043C40.1113 64.8365 40.3782 62.4327 40.3782 62.4327" fill="#49728B"/>
<path fill-rule="evenodd" clip-rule="evenodd" d="M40.7782 72.9832L34.7686 73.25L36.5049 74.4519L40.7782 75.1197" fill="#49728B"/>
<path fill-rule="evenodd" clip-rule="evenodd" d="M61.3447 71.6474L66.2858 71.514L67.4878 83.8005L62.4128 84.468L61.3447 71.6474Z" fill="#335061"/>
<path fill-rule="evenodd" clip-rule="evenodd" d="M62.6807 71.6475L70.1594 71.2468C70.1594 71.2468 73.2307 63.5011 73.2307 63.1005C73.2307 62.6999 75.9018 51.8826 75.9018 51.8826L69.8922 45.6062L68.6903 44.5377L65.4852 47.7428V60.1627L62.6807 71.6475Z" fill="#335061"/>
<path fill-rule="evenodd" clip-rule="evenodd" d="M66.0186 70.7126L61.3447 71.6474L62.0122 75.387C63.7482 76.1883 66.6865 74.0513 66.6865 74.0513" fill="#49728B"/>
<path fill-rule="evenodd" clip-rule="evenodd" d="M66.1523 47.3421L75.5005 54.2864L75.7677 51.0813L68.6896 44.5376L66.1523 47.3421Z" fill="#49728B"/>
<path fill-rule="evenodd" clip-rule="evenodd" d="M45.4134 97.9575L42.6485 86.738L41.2733 78.4596L41.0459 72.3149L53.5598 71.6487L61.3453 71.6474L60.6374 85.6711L61.8393 96.4884L61.7059 98.4916L51.5566 99.2929L45.4134 97.9575Z" fill="white"/>
<path fill-rule="evenodd" clip-rule="evenodd" d="M59.6086 71.514C59.6086 71.514 58.9411 85.4031 60.9443 95.2853C60.9443 95.2853 56.9379 97.8229 51.0615 98.4904L62.2796 98.0898L63.615 97.2885L62.0124 75.387L61.6118 70.7124" fill="#DCD9D8"/>
<path fill-rule="evenodd" clip-rule="evenodd" d="M67.7156 82.7332L72.924 81.2641L82.8062 80.7299L84.2753 76.1895L81.6042 68.3101L78.5329 67.9094L74.2593 69.2449L70.1591 71.2468L67.9824 70.8474L66.2861 71.5139" fill="white"/>
<path fill-rule="evenodd" clip-rule="evenodd" d="M67.6211 80.0609C67.6211 80.0609 71.093 78.4586 71.6275 78.5921L70.1588 71.2468L71.8947 70.5793C71.8947 70.5793 73.0967 77.5235 73.0967 78.3248C73.0967 78.3248 80.575 78.7255 81.2429 78.7255C81.2429 78.7255 82.8455 75.6538 82.4448 72.4487L83.914 76.7222L84.0474 79.1261L81.9108 82.3312L79.5069 82.8654L75.5005 82.7319L74.1652 80.996L69.4909 81.6634L68.0217 82.1979" fill="#DCD9D8"/>
<path d="M62.3739 70.5806L59.436 63.1018L56.3643 58.6947C56.3643 58.6947 57.0317 56.8249 57.9668 56.8249C58.9019 56.8249 61.0385 56.8249 61.0385 56.8249L63.9764 57.8934L63.7096 62.8346L62.3739 70.5806Z" fill="white"/>
<path fill-rule="evenodd" clip-rule="evenodd" d="M62.9476 68.0416C62.9476 68.0416 59.208 60.8304 59.208 59.762C59.208 59.762 59.8755 58.1594 60.8106 58.5601C61.7457 58.9607 63.7489 60.0288 63.7489 60.0288V57.4916L59.208 56.5565L56.1367 56.9571L61.3451 69.2436L62.4132 69.3774" fill="#DCD9D8"/>
<path d="M46.6155 50.4151L42.9158 50.0128L39.4434 48.9443V50.1462L41.14 52.0172L46.4818 54.4211" fill="white"/>
<path fill-rule="evenodd" clip-rule="evenodd" d="M40.6458 50.8153C40.6458 50.8153 44.786 52.5517 46.1214 52.1511L46.2543 53.752L42.5156 52.9523L40.2451 51.3498L40.6458 50.8153Z" fill="#DCD9D8"/>
<path fill-rule="evenodd" clip-rule="evenodd" d="M67.7015 57.2797C65.4355 57.2132 63.3882 56.9439 61.5957 56.4383C61.7175 55.7035 61.4896 54.9824 61.6726 54.4531C62.1722 54.0934 63.0096 54.099 63.7648 54.0144C63.1118 53.6935 62.1943 53.5665 61.4407 53.752C61.4231 53.242 61.1943 52.9259 61.0557 52.5269C62.3297 52.0721 65.3373 49.091 67.0292 50.0781C67.8353 50.5477 68.1779 53.2296 68.2404 54.5337C68.2924 55.6154 68.1422 56.7067 67.7015 57.2797Z" fill="#D33833"/>
<path d="M67.7015 57.2797C65.4355 57.2132 63.3882 56.9439 61.5957 56.4383C61.7175 55.7035 61.4896 54.9824 61.6726 54.4531C62.1722 54.0934 63.0096 54.099 63.7648 54.0144C63.1118 53.6935 62.1943 53.5665 61.4407 53.752C61.4231 53.242 61.1943 52.9259 61.0557 52.5269C62.3297 52.0721 65.3373 49.091 67.0292 50.0781C67.8353 50.5477 68.1779 53.2296 68.2404 54.5337C68.2924 55.6154 68.1422 56.7067 67.7015 57.2797Z" stroke="#D33833" stroke-width="2.5"/>
<path fill-rule="evenodd" clip-rule="evenodd" d="M56.8652 53.5753C56.8592 53.7468 56.852 53.9195 56.8451 54.0926C56.1376 54.5573 54.9954 54.5517 54.2189 54.9423C55.3636 54.9924 56.2646 55.2681 57.0443 55.6567C57.027 56.0886 57.0106 56.5201 56.9938 56.9519C55.6969 57.8398 54.5122 59.1619 52.9853 59.9945C52.2633 60.3882 49.7296 61.4014 48.9615 61.2223C48.5269 61.1214 48.4878 60.5821 48.3141 60.0738C47.9439 58.9852 47.0918 57.2524 47.0175 55.6138C46.9228 53.5441 46.7139 50.0753 48.9443 50.5016C50.7437 50.845 52.8366 51.6739 54.2298 52.4351C55.0811 52.9007 55.5735 53.476 56.8652 53.5753Z" fill="#D33833"/>
<path d="M56.8652 53.5753C56.8592 53.7468 56.852 53.9195 56.8451 54.0926C56.1376 54.5573 54.9954 54.5517 54.2189 54.9423C55.3636 54.9924 56.2646 55.2681 57.0443 55.6567C57.027 56.0886 57.0106 56.5201 56.9938 56.9519C55.6969 57.8398 54.5122 59.1619 52.9853 59.9945C52.2633 60.3882 49.7296 61.4014 48.9615 61.2223C48.5269 61.1214 48.4878 60.5821 48.3141 60.0738C47.9439 58.9852 47.0918 57.2524 47.0175 55.6138C46.9228 53.5441 46.7139 50.0753 48.9443 50.5016C50.7437 50.845 52.8366 51.6739 54.2298 52.4351C55.0811 52.9007 55.5735 53.476 56.8652 53.5753Z" stroke="#D33833" stroke-width="2.5"/>
<path fill-rule="evenodd" clip-rule="evenodd" d="M58.1536 56.0449C57.9557 54.9175 57.727 54.5958 57.8155 53.6122C60.8223 51.6074 61.3868 57.0557 58.1536 56.0449Z" fill="#D33833"/>
<path d="M58.1536 56.0449C57.9557 54.9175 57.727 54.5958 57.8155 53.6122C60.8223 51.6074 61.3868 57.0557 58.1536 56.0449Z" stroke="#D33833" stroke-width="2.5"/>
<path fill-rule="evenodd" clip-rule="evenodd" d="M62.5065 56.9587C62.5065 56.9587 61.5714 55.623 62.2393 55.2224C62.9072 54.8217 63.575 55.2228 63.9757 54.5549C64.3763 53.887 63.9757 53.4864 64.1091 52.6851C64.2425 51.8838 64.9108 51.75 65.5782 51.6166C66.2457 51.4832 68.1159 51.216 68.3827 51.8838L67.5814 49.48L65.9789 48.9459L60.9039 51.8838L60.6367 53.353V56.2909" fill="#EF3D3A"/>
<path fill-rule="evenodd" clip-rule="evenodd" d="M48.4849 61.3658C48.3245 59.2817 48.1547 57.2003 47.9658 55.1182C47.6832 52.0092 48.7126 52.5517 51.4076 52.5517C51.8192 52.5517 53.942 53.0425 54.0938 53.353C54.8222 54.8406 52.8759 54.51 54.9328 55.6318C56.6691 56.5785 59.7365 55.0569 59.0349 52.9523C58.6423 52.4844 56.9893 52.8065 56.3967 52.4992C55.3534 51.9584 54.3102 51.4175 53.2668 50.8766C51.9394 50.1879 48.8715 49.1839 47.4562 50.1463C43.8704 52.585 47.6826 58.6783 48.9618 61.2223" fill="#EF3D3A"/>
<path fill-rule="evenodd" clip-rule="evenodd" d="M51.9985 14.0497C48.3586 13.2019 46.5499 15.5729 45.4466 18.032C44.4614 17.7933 44.8535 16.4535 45.1023 15.7708C45.7538 13.9792 48.3794 11.5941 50.5247 11.9175C51.4479 12.0565 52.6972 12.9006 51.9985 14.0497Z" fill="#231F20"/>
<path fill-rule="evenodd" clip-rule="evenodd" d="M69.7333 18.1947C69.7906 18.1971 69.8487 18.1991 69.906 18.2015C70.7285 19.9103 71.4404 21.7204 72.4781 23.2288C71.783 24.8478 67.2145 26.2805 67.285 23.3734C68.273 22.9415 69.9785 23.2853 70.8543 22.7336C70.3479 21.3438 69.6171 20.1607 69.7333 18.1947Z" fill="#231F20"/>
<path fill-rule="evenodd" clip-rule="evenodd" d="M53.8628 18.2392C54.6433 19.6699 54.8973 21.1731 56.0067 22.2544C56.5063 22.7412 57.4778 23.3345 56.9962 24.6883C56.8837 25.0076 56.0611 25.7195 55.5864 25.8594C53.852 26.3714 49.8107 25.9651 51.1793 23.8029C52.6136 23.8698 54.5415 24.7344 55.6136 23.6931C54.7903 22.377 53.3225 19.7732 53.8628 18.2392Z" fill="#231F20"/>
<path fill-rule="evenodd" clip-rule="evenodd" d="M69.0825 32.78C66.4711 34.4575 63.5593 36.2816 59.2804 35.8586C58.3662 35.0637 58.0176 33.2949 58.9058 32.1266C59.3682 32.9215 59.0777 34.3834 60.3662 34.6034C62.794 35.0188 65.6198 33.1182 67.3662 32.4539C68.4491 30.6282 67.2728 29.9567 66.2972 28.7816C64.3 26.3742 61.621 23.3902 61.7183 19.786C62.5256 19.2007 62.5953 20.6795 62.7111 20.9487C63.754 23.3894 66.3786 26.5108 68.294 28.5998C68.7644 29.1142 69.5388 29.6078 69.625 29.9479C69.8734 30.9371 68.9787 32.1222 69.0825 32.78Z" fill="#231F20"/>
<path fill-rule="evenodd" clip-rule="evenodd" d="M34.656 31.014C33.8375 30.5469 33.6427 28.4892 32.6817 28.4307C31.3085 28.3474 31.5589 31.1002 31.5644 32.71C30.6191 31.8518 30.4529 29.2096 31.1473 27.8526C30.3559 27.464 30.0025 28.2813 29.5635 28.5693C30.1277 24.4708 35.559 26.6683 34.656 31.014Z" fill="#231F20"/>
<path fill-rule="evenodd" clip-rule="evenodd" d="M70.7449 34.4868C69.5294 36.8005 67.8099 39.3485 64.2429 39.4227C64.1704 38.6755 64.1147 37.5385 64.247 37.0885C66.9737 36.8265 68.6572 35.4387 70.7449 34.4868Z" fill="#231F20"/>
<path fill-rule="evenodd" clip-rule="evenodd" d="M53.6562 35.9868C55.9312 37.1831 60.1123 37.3117 63.2045 37.2212C63.3704 37.8986 63.3663 38.7356 63.3728 39.5617C59.398 39.76 54.6985 38.7765 53.6562 35.9868Z" fill="#231F20"/>
<path fill-rule="evenodd" clip-rule="evenodd" d="M53.2238 38.2176C54.797 42.1675 60.2041 41.7127 64.7638 41.6038C64.563 42.1166 64.128 42.7224 63.5871 42.9415C62.1259 43.5361 58.0959 43.9872 56.0675 42.9099C54.781 42.226 53.9545 40.6807 53.2496 39.7748C52.9092 39.3373 51.2143 38.22 53.2238 38.2176Z" fill="#231F20"/>
<path fill-rule="evenodd" clip-rule="evenodd" d="M68.8927 60.0055C67.0466 63.1674 65.2801 66.415 63.0898 69.204C64.0081 66.504 64.4011 61.9851 64.5398 58.54C66.4608 57.641 68.1059 58.7424 68.8927 60.0055Z" fill="#81B0C4"/>
<path fill-rule="evenodd" clip-rule="evenodd" d="M78.8267 71.3698C76.7598 71.7836 75.3074 73.7924 73.291 73.6635C74.3992 72.1013 76.3411 71.4427 78.8267 71.3698Z" fill="#231F20"/>
<path fill-rule="evenodd" clip-rule="evenodd" d="M79.7394 74.6045C78.0547 74.7825 76.0759 75.0553 74.3672 74.9147C75.1761 73.6791 78.2927 74.1055 79.7394 74.6045Z" fill="#231F20"/>
<path fill-rule="evenodd" clip-rule="evenodd" d="M80.3228 77.3933C78.4294 77.4344 76.076 77.3966 74.2764 77.2456C75.3409 76.1022 79.0949 76.8214 80.3228 77.3933Z" fill="#231F20"/>
<path fill-rule="evenodd" clip-rule="evenodd" d="M65.3303 85.0253C65.6019 87.4032 66.5446 89.8125 66.4264 92.4167C65.3795 92.7697 64.7782 93.0785 63.3755 93.0766C63.2766 90.8634 62.9805 87.48 63.069 85.3702C63.759 85.4159 64.7762 84.8774 65.3303 85.0253Z" fill="#DCD9D8"/>
<path fill-rule="evenodd" clip-rule="evenodd" d="M62.2782 49.9803C61.3274 50.6009 60.5178 51.3758 59.6047 52.0384C57.5799 52.1386 56.4749 51.8982 54.9873 50.7356C55.0117 50.6422 55.1612 50.6839 55.1668 50.5693C57.3343 51.5352 60.0895 50.1759 62.2782 49.9803Z" fill="#F0D6B7"/>
<path fill-rule="evenodd" clip-rule="evenodd" d="M50.8994 64.7552C51.4949 62.1747 53.8283 60.8382 55.9473 59.4171C58.1344 62.1928 59.4645 65.7624 60.9293 69.2072C57.4685 68.1639 53.9325 66.4712 50.8994 64.7552Z" fill="#81B0C4"/>
<path fill-rule="evenodd" clip-rule="evenodd" d="M63.0688 85.3702C62.9803 87.48 63.2763 90.8633 63.3753 93.0766C64.7779 93.0784 65.3793 92.7697 66.4262 92.4166C66.5444 89.8125 65.6017 87.4031 65.33 85.0252C64.7759 84.8774 63.7587 85.4159 63.0688 85.3702ZM41.2282 73.3715C42.1531 81.8743 43.4928 89.0219 45.9498 96.5514C51.4031 98.2071 57.9771 98.3514 62.7972 96.8573C61.9122 92.6077 62.2988 87.434 61.7815 82.899C61.3917 79.4905 61.5904 76.0609 61.056 72.5833C55.2154 71.3683 46.96 72.2993 41.2282 73.3715ZM62.437 72.6367C62.3877 76.2885 62.6005 79.8906 62.8793 83.5469C64.2815 83.3365 65.2331 83.1959 66.5359 82.9103C66.1129 79.3903 66.165 75.4294 65.3032 72.3157C64.3072 72.3252 63.4302 72.3041 62.437 72.6367ZM69.5504 72.0481C68.8849 71.8955 68.1101 72.0421 67.4743 72.0545C67.7731 75.0313 68.4983 78.3161 68.7535 81.4408C69.7539 81.4719 70.2884 81.0001 71.1113 80.8414C71.1553 78.0986 70.8717 74.3197 69.5504 72.0481ZM80.3212 81.889C82.4065 81.3826 83.7178 78.8285 83.1345 76.2055C82.7431 74.4427 82.046 71.1233 81.3 69.9956C80.7487 69.1615 79.2539 68.0694 78.0604 68.8337C76.1189 70.077 72.6986 70.4379 71.2827 71.9427C71.9927 74.3065 72.213 77.5533 72.5059 80.5484C74.9314 80.6996 77.9158 79.8809 79.933 80.7497C78.5247 81.2058 76.6974 81.2094 75.4807 81.8743C76.4751 82.3546 78.8032 82.2575 80.3212 81.889ZM60.929 69.2071C59.4642 65.7624 58.1341 62.1928 55.947 59.4171C53.8281 60.8381 51.4946 62.1746 50.8991 64.7552C53.9322 66.4712 57.4682 68.1639 60.929 69.2071ZM64.5396 58.5401C64.4009 61.9851 64.0079 66.504 63.0896 69.204C65.2799 66.415 67.0464 63.1675 68.8925 60.0055C68.1057 58.7424 66.4606 57.641 64.5396 58.5401ZM60.4466 57.0857C59.6169 56.9964 58.9126 58.0397 57.8336 57.5885C57.5864 57.8618 57.3617 58.1578 57.1097 58.4247C59.4927 61.2965 60.5756 65.371 62.4162 68.7459C63.4037 65.504 63.29 61.9522 63.5075 58.4139C62.1505 58.5 61.3977 57.1867 60.4466 57.0857ZM57.8148 53.6122C57.7263 54.5957 57.955 54.9175 58.1529 56.0449C61.3861 57.0557 60.8216 51.6074 57.8148 53.6122ZM54.2295 52.4351C52.8363 51.6739 50.7434 50.8449 48.944 50.5016C46.7136 50.0749 46.9225 53.5441 47.0172 55.6138C47.0915 57.2524 47.9436 58.9852 48.3138 60.0738C48.4875 60.5821 48.5266 61.1214 48.9612 61.2223C49.7293 61.4014 52.263 60.3882 52.985 59.9944C54.5119 59.1619 55.6966 57.8397 56.9935 56.9519C57.0103 56.52 57.0267 56.0885 57.044 55.6566C56.2643 55.268 55.3633 54.9924 54.2186 54.9423C54.9951 54.5517 56.1373 54.5573 56.8448 54.0925C56.8517 53.9195 56.8589 53.7468 56.8649 53.5753C55.5732 53.476 55.0808 52.9006 54.2295 52.4351ZM40.9227 50.018C39.7665 51.1919 44.1657 52.7921 45.5664 52.8782C45.5586 52.1354 45.9897 51.4351 45.9029 50.9022C44.2393 50.6102 42.053 50.8029 40.9227 50.018ZM55.1662 50.5693C55.1605 50.6839 55.0111 50.6422 54.9867 50.7356C56.4743 51.8982 57.5792 52.1386 59.6041 52.0385C60.5171 51.3758 61.3268 50.601 62.2775 49.9804C60.0888 50.1759 57.3336 51.5353 55.1662 50.5693ZM68.2399 54.5336C68.1774 53.2296 67.8348 50.5477 67.0287 50.0781C65.3368 49.0905 62.3292 52.0721 61.0552 52.5268C61.1938 52.9259 61.4226 53.242 61.4402 53.752C62.1938 53.5665 63.1113 53.6935 63.7643 54.0144C63.0091 54.099 62.1718 54.0933 61.6722 54.4531C61.4891 54.9824 61.717 55.7035 61.5952 56.4383C63.3877 56.9439 65.435 57.2131 67.701 57.2796C68.1417 56.7067 68.292 55.6154 68.2399 54.5336ZM38.9762 51.1534C38.6131 50.8946 36.1568 47.6987 35.8203 47.8313C31.3757 49.5841 27.2198 52.615 23.5061 55.4816C27.0469 63.0794 28.4763 72.3879 28.7288 81.3597C32.785 83.2568 36.3477 85.9917 41.8519 86.2772C41.2149 81.7708 40.6335 77.7503 40.272 73.5076C38.889 72.9246 36.9049 73.534 35.6106 73.3268C35.5996 71.7672 37.5872 72.6439 37.7528 71.595C37.8775 70.8017 36.6592 70.7416 37.0559 69.4924C38.0677 69.8602 38.599 70.6726 39.6781 70.9776C40.664 68.8206 39.6643 65.004 39.8064 63.2011C39.8333 62.8626 39.9754 61.3258 40.7337 61.5954C41.4047 61.8341 40.6953 65.6827 40.7689 67.3891C40.8359 68.9611 40.579 70.4823 41.2157 71.4692C46.5343 70.7452 51.9391 70.2773 57.6938 70.1194C56.4278 69.5762 54.9238 69.0621 53.2748 68.1326C52.3809 67.6287 49.5631 66.5801 49.3052 65.7311C48.8936 64.3782 50.385 63.6575 50.6401 62.4976C47.9554 63.9619 47.4316 61.0941 46.7965 59.0625C46.221 57.2224 45.8935 55.8478 45.7523 54.7865C43.4396 53.6839 40.9668 52.5673 38.9762 51.1534ZM65.8909 48.2179C69.594 46.4223 70.2615 54.9291 68.81 57.6695C69.0344 58.4868 69.806 58.7997 70.1209 59.5345C68.0544 63.2363 65.7591 66.6919 63.6505 70.3502C65.219 69.3738 67.4594 70.1756 69.3052 69.4447C69.9799 69.1779 70.4682 67.6334 70.9791 66.3978C72.3841 62.9984 73.8593 58.7127 74.5155 55.4687C74.6638 54.7296 75.0676 53.119 74.9771 52.4611C74.8156 51.2832 73.2174 50.4099 72.4045 49.6815C70.9069 48.3361 69.9638 47.1522 68.4017 45.8942C67.7683 46.8293 66.4089 47.4575 65.8909 48.2179ZM30.5071 15.3782C28.7426 17.3197 29.1119 20.9575 29.3256 23.5457C32.515 21.5393 36.7484 23.7043 36.7085 27.117C38.2312 27.0765 37.2773 25.2151 37.0019 24.016C36.1017 20.0993 38.5184 15.8441 37.1115 12.2624C34.3797 12.4695 32.1355 13.5853 30.5071 15.3782ZM43.1328 4.10977C39.1382 5.24198 34.0185 8.14463 32.377 11.7332C33.6481 11.5485 34.5305 10.9074 35.7843 10.8281C36.2582 10.7973 36.8791 11.0268 37.4237 10.8914C38.509 10.6222 39.425 8.18869 40.2438 7.28325C41.042 6.39903 42.0013 6.02123 42.6578 5.21514C43.0796 5.01161 43.7033 5.02563 43.7272 4.39223C43.5444 4.19671 43.3519 4.04768 43.1328 4.10977ZM63.9274 5.17467C59.7811 2.83533 52.7631 1.07571 48.3526 3.27443C44.7938 5.04887 39.9832 7.98477 38.3431 11.7051C39.8752 15.2953 37.8893 18.5849 37.7625 22.23C37.6952 24.1695 38.6757 25.8626 38.7508 27.974C38.2265 28.8389 36.6247 28.9455 35.5159 28.8862C35.1427 27.0184 34.4893 24.9191 32.5659 24.7083C29.8444 24.4107 27.8545 26.6631 27.7308 29.0168C27.5845 31.7849 29.8569 36.3726 33.0777 36.0541C34.3218 35.9311 34.6275 34.6839 35.9831 34.6967C36.7178 36.1627 34.8497 36.623 34.6575 37.6715C34.6075 37.9423 34.8125 39.0008 34.9317 39.4972C35.5167 41.9143 36.8208 45.0425 38.1045 46.8826C39.7336 49.2167 42.9344 49.5685 46.3779 49.7973C46.9929 48.4724 49.2585 48.5813 50.7348 48.9279C48.9656 48.2272 47.3208 46.5284 45.9576 45.0248C44.3918 43.2997 42.8057 41.4491 42.7256 39.1943C45.6845 43.2993 48.1291 46.8842 53.5096 48.6899C57.5808 50.0553 62.3356 48.0641 65.4638 45.8674C66.7619 44.9543 67.5368 43.5056 68.4594 42.1795C71.9118 37.2135 73.5227 30.1254 73.1686 23.2552C73.0227 20.4219 73.0291 17.5982 72.0784 15.6919C71.0848 13.6987 67.7243 11.9155 65.7571 13.7183C65.3925 11.78 67.3929 10.5813 69.7427 11.2788C68.0672 9.11658 66.3088 6.51842 63.9274 5.17467ZM71.6521 69.1038C74.8921 67.4931 80.9458 64.7685 82.9771 69.1098C83.7267 70.71 84.6061 73.4151 84.9943 75.067C85.5428 77.3974 84.3997 82.2957 82.0043 83.0778C79.8885 83.7684 77.4198 83.7263 74.8713 83.2144C74.5712 82.9648 74.2371 82.5297 74.0035 82.0762C72.1838 82.0056 70.4799 82.1738 69.0424 82.9219C69.1786 84.2676 68.2683 84.4836 67.415 84.7608C66.7823 87.2691 68.6806 90.5449 68.2263 92.8321C67.9021 94.4616 65.8973 94.7136 64.4238 95.0184C64.3757 95.924 64.4883 96.6798 64.5888 97.4459C64.2519 98.6874 62.7407 99.3942 61.3088 99.5673C56.5976 100.134 49.4445 100.388 44.913 98.7588C43.6485 95.6571 42.6523 91.8846 41.5991 88.3429C37.1795 88.8149 33.6051 86.4359 30.2353 84.8774C29.0686 84.3365 27.4546 84.0385 27.0188 83.1098C26.5962 82.2107 26.7691 80.4875 26.6643 78.8598C26.3974 74.7023 26.169 70.6923 25.0711 66.4355C24.5781 64.5253 23.7189 62.8397 23.1195 60.9992C22.5655 59.2933 21.5976 57.1851 21.3451 55.484C20.9708 52.9627 23.3449 52.8225 24.8629 51.73C27.2097 50.0405 29.0517 49.1062 31.5932 47.5813C32.346 47.1298 34.6161 45.9868 34.8743 45.4603C35.3876 44.4167 33.9932 42.9451 33.6204 42.127C33.0307 40.8333 32.7232 39.7344 32.6387 38.4579C30.5067 38.121 28.8905 36.8522 27.9142 35.4215C26.2993 33.0537 25.1794 28.6731 26.5766 25.3409C26.6862 25.0785 27.2327 24.5625 27.3133 24.1594C27.4723 23.3658 27.014 22.3105 26.9855 21.4663C26.8388 17.1354 27.7183 13.4038 30.6339 12.0977C31.8175 7.38261 36.0538 5.8149 40.045 3.47155C41.537 2.59575 43.1816 2.03605 44.8801 1.41105C50.9732 -0.831337 60.3216 -0.409058 65.3785 3.41546C67.5227 5.03725 70.9502 8.46153 72.1762 10.9407C75.4142 17.486 75.1842 28.4247 72.9194 36.3866C72.6149 37.4555 72.1734 39.0268 71.5568 40.3109C71.1269 41.2075 69.7908 43.0016 69.953 43.7933C70.1201 44.6118 72.9995 46.7981 73.6169 47.3934C74.7287 48.4659 76.8408 49.8894 77.0119 51.2428C77.1958 52.6831 76.3773 54.6534 75.9626 56.0433C74.5764 60.6814 73.2239 64.9688 71.6521 69.1038Z" fill="#231F20"/>
<path fill-rule="evenodd" clip-rule="evenodd" d="M50.037 36.9972C50.2128 36.7632 51.1792 36.4078 52.5313 37.0589C52.5313 37.0589 50.9288 37.3261 51.0621 39.998L50.3943 39.8642C50.3943 39.8642 49.7042 37.4415 50.037 36.9972Z" fill="#F7E4CD"/>
<path fill-rule="evenodd" clip-rule="evenodd" d="M61.7455 59.9624C61.7455 60.3678 61.4166 60.6967 61.0107 60.6967C60.6053 60.6967 60.2764 60.3678 60.2764 59.9624C60.2764 59.5569 60.6053 59.2276 61.0107 59.2276C61.4166 59.2276 61.7455 59.5569 61.7455 59.9624Z" fill="#1D1919"/>
<path fill-rule="evenodd" clip-rule="evenodd" d="M62.4799 63.3678C62.4799 63.7733 62.151 64.1021 61.7451 64.1021C61.3397 64.1021 61.0107 63.7733 61.0107 63.3678C61.0107 62.9623 61.3397 62.633 61.7451 62.633C62.151 62.633 62.4799 62.9623 62.4799 63.3678Z" fill="#1D1919"/>
</g>
<defs>
<clipPath id="clip0_15910_61495">
<rect width="72.4359" height="100" fill="white" transform="translate(13.7822)"/>
</clipPath>
</defs>
</svg>
