<svg width="100" height="100" viewBox="0 0 100 100" fill="none" xmlns="http://www.w3.org/2000/svg">
<g clip-path="url(#clip0_15910_61474)">
<path d="M68.2709 64.8461C65.0976 67.6628 61.1386 71.1683 53.939 71.1683H49.6458C44.4417 71.1683 39.7099 69.2793 36.3238 65.8503C33.0162 62.5016 31.1944 57.9172 31.1944 52.9409V47.0592C31.1944 42.0828 33.0162 37.4984 36.3238 34.1497C39.7099 30.7207 44.4417 28.8317 49.6458 28.8317H53.939C61.1386 28.8317 65.0939 32.3372 68.2709 35.1539C71.5655 38.0752 74.412 40.597 81.9942 40.597C83.1508 40.5972 84.3056 40.5048 85.4475 40.3207C85.4475 40.2983 85.4325 40.2778 85.4232 40.2554C84.9685 39.1274 84.4352 38.0327 83.8272 36.9795L78.7575 28.1971C76.4717 24.2384 73.1843 20.951 69.2256 18.6653C65.2669 16.3796 60.7763 15.176 56.2051 15.1756H46.0638C41.4926 15.176 37.002 16.3796 33.0433 18.6653C29.0846 20.951 25.7972 24.2384 23.5114 28.1971L18.4417 36.9795C16.1563 40.9383 14.9531 45.4289 14.9531 50C14.9531 54.5711 16.1563 59.0618 18.4417 63.0206L23.5114 71.803C25.7973 75.7614 29.0847 79.0485 33.0435 81.3339C37.0022 83.6193 41.4927 84.8225 46.0638 84.8226H56.2051C60.7762 84.8225 65.2667 83.6193 69.2254 81.3339C73.1842 79.0485 76.4717 75.7614 78.7575 71.803L83.8272 63.0206C84.4352 61.9673 84.9685 60.8726 85.4232 59.7447C85.4232 59.7223 85.44 59.7017 85.4475 59.6793C84.3056 59.4952 83.1508 59.4028 81.9942 59.4031C74.412 59.4031 71.5655 61.9249 68.2709 64.8461Z" fill="#006BFF"/>
<path d="M53.9389 34.159H49.6457C41.7275 34.159 36.5234 39.8148 36.5234 47.0554V52.9371C36.5234 60.1777 41.7275 65.8335 49.6457 65.8335H53.9389C65.4783 65.8335 64.5786 54.0739 81.9941 54.0739C83.6452 54.0725 85.2929 54.2231 86.9164 54.5237C87.4446 51.5317 87.4446 48.4702 86.9164 45.4781C85.2931 45.7803 83.6453 45.9315 81.9941 45.9299C64.573 45.928 65.4783 34.159 53.9389 34.159Z" fill="#006BFF"/>
<path d="M96.9251 58.8225C93.9565 56.6528 90.5344 55.1849 86.9163 54.5293C86.9163 54.5592 86.907 54.5891 86.9014 54.6171C86.5908 56.3521 86.1036 58.0509 85.4473 59.6868C88.4366 60.1493 91.2729 61.3163 93.722 63.0915C93.722 63.1176 93.7071 63.1437 93.6977 63.1717C92.3097 67.6794 90.212 71.9371 87.4838 75.7844C84.7868 79.5962 81.512 82.9642 77.7774 85.7671C68.7369 92.5682 57.4525 95.6855 46.2028 94.4896C34.9531 93.2938 24.5762 87.8739 17.1674 79.3242C9.75867 70.7746 5.87002 59.7322 6.28666 48.4268C6.7033 37.1214 11.3942 26.3952 19.4122 18.4141C24.8592 12.9712 31.6201 9.02799 39.0395 6.96679C46.4588 4.90559 54.2849 4.79634 61.7589 6.64963C69.2329 8.50292 76.1013 12.2559 81.6981 17.5446C87.2949 22.8334 91.4303 29.4785 93.7033 36.8357C93.7127 36.8637 93.7201 36.8899 93.7276 36.916C91.2767 38.6913 88.4383 39.8577 85.4473 40.3188C86.1034 41.9562 86.5912 43.6561 86.9033 45.3923C86.9033 45.4203 86.9033 45.4483 86.9163 45.4744C90.5349 44.8205 93.9574 43.3525 96.9251 41.1812C99.7792 39.0701 99.2266 36.6845 98.7917 35.2734C92.5031 14.8433 73.4842 0 50.9971 0C23.3843 0 0.998047 22.3863 0.998047 49.9991C0.998047 77.6119 23.3843 100 50.9971 100C73.4842 100 92.5031 85.1567 98.7824 64.7322C99.2266 63.3211 99.7792 60.9356 96.9251 58.8225Z" fill="#006BFF"/>
<path d="M85.4474 40.3188C84.3056 40.5029 83.1508 40.5953 81.9942 40.5951C74.412 40.5951 71.5654 38.0733 68.2708 35.152C65.0976 32.3353 61.1385 28.8298 53.939 28.8298H49.6458C44.4417 28.8298 39.7098 30.7188 36.3238 34.1478C33.0161 37.4965 31.1943 42.0809 31.1943 47.0573V52.939C31.1943 57.9153 33.0161 62.4997 36.3238 65.8484C39.7098 69.2774 44.4417 71.1664 49.6458 71.1664H53.939C61.1385 71.1664 65.0939 67.6609 68.2708 64.8442C71.5654 61.923 74.412 59.4012 81.9942 59.4012C83.1508 59.4009 84.3056 59.4933 85.4474 59.6774C86.1037 58.0415 86.591 56.3428 86.9015 54.6077C86.9015 54.5797 86.9127 54.5498 86.9164 54.52C85.293 54.2194 83.6453 54.0688 81.9942 54.0701C64.5731 54.0701 65.4784 65.8298 53.939 65.8298H49.6458C41.7276 65.8298 36.5235 60.174 36.5235 52.9334V47.0591C36.5235 39.8185 41.7276 34.1627 49.6458 34.1627H53.939C65.4784 34.1627 64.5787 45.9224 81.9942 45.9224C83.6454 45.924 85.2931 45.7728 86.9164 45.4707C86.9164 45.4445 86.9164 45.4165 86.9034 45.3885C86.5911 43.6536 86.1033 41.955 85.4474 40.3188Z" fill="#0AE9EF"/>
<path d="M85.4474 40.3188C84.3056 40.5029 83.1508 40.5953 81.9942 40.5951C74.412 40.5951 71.5654 38.0733 68.2708 35.152C65.0976 32.3353 61.1385 28.8298 53.939 28.8298H49.6458C44.4417 28.8298 39.7098 30.7188 36.3238 34.1478C33.0161 37.4965 31.1943 42.0809 31.1943 47.0573V52.939C31.1943 57.9153 33.0161 62.4997 36.3238 65.8484C39.7098 69.2774 44.4417 71.1664 49.6458 71.1664H53.939C61.1385 71.1664 65.0939 67.6609 68.2708 64.8442C71.5654 61.923 74.412 59.4012 81.9942 59.4012C83.1508 59.4009 84.3056 59.4933 85.4474 59.6774C86.1037 58.0415 86.591 56.3428 86.9015 54.6077C86.9015 54.5797 86.9127 54.5498 86.9164 54.52C85.293 54.2194 83.6453 54.0688 81.9942 54.0701C64.5731 54.0701 65.4784 65.8298 53.939 65.8298H49.6458C41.7276 65.8298 36.5235 60.174 36.5235 52.9334V47.0591C36.5235 39.8185 41.7276 34.1627 49.6458 34.1627H53.939C65.4784 34.1627 64.5787 45.9224 81.9942 45.9224C83.6454 45.924 85.2931 45.7728 86.9164 45.4707C86.9164 45.4445 86.9164 45.4165 86.9034 45.3885C86.5911 43.6536 86.1033 41.955 85.4474 40.3188Z" fill="#0AE9EF"/>
</g>
<defs>
<clipPath id="clip0_15910_61474">
<rect width="98.1465" height="100" fill="white" transform="translate(1)"/>
</clipPath>
</defs>
</svg>
