<svg width="100" height="100" viewBox="0 0 100 100" fill="none" xmlns="http://www.w3.org/2000/svg">
<g clip-path="url(#clip0_15381_206666)">
<path d="M29.3076 44.2739H33.4994C35.8213 44.2739 37.0268 45.226 37.0268 47.0137V47.1027C37.0599 47.6266 36.9039 48.1449 36.5871 48.5635C36.2704 48.982 35.8139 49.273 35.3008 49.3835C35.9153 49.4376 36.4837 49.7319 36.8825 50.2026C37.2813 50.6732 37.4784 51.2821 37.4309 51.8972V51.9589C37.4309 53.9109 36.1501 54.9383 33.6912 54.9383H29.3076V44.2739ZM33.109 48.6506C34.2734 48.6506 34.7323 48.2328 34.7323 47.2808V47.2191C34.7323 46.3287 34.2254 45.9246 33.0953 45.9246H31.6638V48.6643L33.109 48.6506ZM33.3145 53.2602C34.5062 53.2602 35.0473 52.7191 35.0473 51.7534V51.6917C35.0473 50.7054 34.5062 50.2054 33.198 50.2054H31.6638V53.2671L33.3145 53.2602Z" fill="#1D2D35"/>
<path d="M38.0615 52.7672C38.0615 50.9453 39.7259 50.2604 42.1163 50.2604H42.993V49.9521C42.993 49.0275 42.7122 48.5206 41.7259 48.5206C41.5663 48.5017 41.4044 48.5156 41.2503 48.5616C41.0963 48.6075 40.9532 48.6845 40.83 48.7878C40.7069 48.8911 40.6061 49.0185 40.534 49.1622C40.4619 49.3059 40.42 49.4629 40.4108 49.6234H38.356C38.493 47.7741 39.9519 46.9521 41.8629 46.9521C43.7739 46.9521 45.1232 47.7261 45.1232 49.8426V54.9248H43.0204V53.9864C42.7565 54.3582 42.4008 54.6553 41.9878 54.8485C41.5748 55.0418 41.1188 55.1247 40.6643 55.0891C39.2533 55.0891 38.0615 54.4042 38.0615 52.7672ZM42.993 52.1987V51.5138H42.1574C40.904 51.5138 40.178 51.7878 40.178 52.6165C40.178 53.185 40.5204 53.5549 41.3081 53.5549C42.2602 53.5823 42.993 53.0617 42.993 52.1987Z" fill="#1D2D35"/>
<path d="M46.0332 52.4795H48.0469C48.1359 53.1645 48.4784 53.5823 49.4168 53.5823C50.2524 53.5823 50.6428 53.2741 50.6428 52.733C50.6428 52.1919 50.177 51.9727 49.0606 51.8152C47.0058 51.5001 46.1839 50.9042 46.1839 49.3837C46.1839 47.8631 47.677 46.9521 49.2661 46.9521C50.999 46.9521 52.2935 47.5823 52.4853 49.37H50.5058C50.3894 48.7261 50.0264 48.4316 49.2866 48.4316C48.5469 48.4316 48.1839 48.7604 48.1839 49.233C48.1839 49.7056 48.5538 49.9179 49.6839 50.0823C51.6359 50.3631 52.7113 50.8563 52.7113 52.5275C52.7113 54.1987 51.4921 55.0891 49.4305 55.0891C47.3688 55.0891 46.1085 54.1645 46.0332 52.4795Z" fill="#1D2D35"/>
<path d="M53.2663 51.123V51.0066C53.2403 50.4713 53.3258 49.9365 53.5173 49.436C53.7089 48.9355 54.0023 48.4802 54.379 48.099C54.7556 47.7178 55.2074 47.419 55.7056 47.2215C56.2038 47.0241 56.7376 46.9322 57.2731 46.9518C59.2868 46.9518 61.0745 48.1299 61.0745 50.9176V51.5135H55.4786C55.5334 52.808 56.2389 53.5682 57.4101 53.5682C58.4101 53.5682 58.9033 53.1367 59.0402 52.4792H61.095C60.8416 54.1641 59.4991 55.1025 57.369 55.1025C54.9786 55.0888 53.2663 53.6162 53.2663 51.123ZM58.9717 50.1847C58.9033 49.0066 58.3005 48.4724 57.2731 48.4724C56.8106 48.4702 56.3652 48.6474 56.0306 48.9667C55.6959 49.286 55.4981 49.7226 55.4786 50.1847H58.9717Z" fill="#1D2D35"/>
<path d="M61.6432 51.1231V51.0066C61.6171 50.4702 61.703 49.9341 61.8954 49.4326C62.0877 48.9312 62.3824 48.4752 62.7605 48.0938C63.1387 47.7124 63.5922 47.4139 64.092 47.2173C64.5918 47.0207 65.1271 46.9303 65.6638 46.9518C67.472 46.9518 69.1364 47.7395 69.335 49.9792H67.2802C67.2666 49.787 67.2144 49.5995 67.1268 49.4278C67.0393 49.2561 66.9181 49.1037 66.7705 48.9798C66.6229 48.8559 66.4519 48.7628 66.2677 48.7063C66.0835 48.6497 65.8897 48.6307 65.698 48.6505C64.5816 48.6505 63.835 49.4861 63.835 50.9792V51.0957C63.835 52.6642 64.52 53.4655 65.746 53.4655C65.9546 53.4775 66.1635 53.4479 66.3605 53.3784C66.5576 53.3089 66.7388 53.2009 66.8937 53.0606C67.0486 52.9204 67.174 52.7508 67.2627 52.5616C67.3514 52.3724 67.4016 52.1675 67.4104 51.9587H69.3624C69.246 53.808 67.9035 55.0888 65.6364 55.0888C63.3693 55.0888 61.6432 53.671 61.6432 51.1231Z" fill="#1D2D35"/>
<path d="M69.8623 52.7672C69.8623 50.9453 71.5267 50.2604 73.9103 50.2604H74.7938V49.9521C74.7938 49.0275 74.5061 48.5206 73.5267 48.5206C73.366 48.4997 73.2027 48.5121 73.047 48.5571C72.8913 48.6021 72.7466 48.6788 72.6218 48.7823C72.4971 48.8858 72.3951 49.0139 72.3222 49.1586C72.2492 49.3033 72.2069 49.4616 72.1979 49.6234H70.1431C70.2801 47.7741 71.739 46.9521 73.6431 46.9521C75.5472 46.9521 76.9103 47.7261 76.9103 49.8426V54.9248H74.8075V53.9864C74.5436 54.3582 74.1878 54.6553 73.7749 54.8485C73.3619 55.0418 72.9059 55.1247 72.4513 55.0891C71.0815 55.0891 69.8623 54.4042 69.8623 52.7672ZM74.7938 52.1987V51.5138H73.9719C72.7185 51.5138 71.9856 51.7878 71.9856 52.6165C71.9856 53.185 72.3349 53.5549 73.1226 53.5549C74.0883 53.5823 74.8212 53.0617 74.8212 52.1987H74.7938Z" fill="#1D2D35"/>
<path d="M78.4307 47.1029H80.5882V48.2947C80.8234 47.8712 81.1697 47.52 81.5897 47.2786C82.0096 47.0372 82.4875 46.9149 82.9718 46.9248C83.434 46.8878 83.8957 47.0012 84.2883 47.2481C84.6808 47.495 84.983 47.8621 85.1498 48.2947C85.4375 47.865 85.8284 47.5145 86.2868 47.2752C86.7451 47.0358 87.2562 46.9154 87.7731 46.9248C89.2183 46.9248 90.3348 47.8358 90.3348 49.9043V54.8974H88.1909V50.1714C88.1909 49.1714 87.7457 48.7262 86.9649 48.7262C86.7572 48.7172 86.55 48.753 86.3574 48.8314C86.1648 48.9098 85.9914 49.0287 85.849 49.1802C85.7066 49.3317 85.5986 49.5122 85.5323 49.7092C85.466 49.9063 85.443 50.1153 85.4649 50.3221V54.9248H83.3142V50.1714C83.3142 49.1714 82.8553 48.7262 82.095 48.7262C81.8868 48.7161 81.6788 48.7513 81.4854 48.8292C81.292 48.9071 81.1177 49.0259 80.9745 49.1775C80.8314 49.3291 80.7227 49.5099 80.656 49.7075C80.5894 49.9051 80.5662 50.1147 80.5882 50.3221V54.9248H78.4307V47.1029Z" fill="#1D2D35"/>
<path d="M91.8145 47.1029H93.9788V48.3289C94.2367 47.9001 94.6013 47.5454 95.037 47.2993C95.4727 47.0532 95.9647 46.9242 96.4651 46.9248C98.3761 46.9248 99.8898 48.3426 99.8898 50.918V51.0412C99.8898 53.6166 98.4309 55.0618 96.4651 55.0618C95.9651 55.0823 95.469 54.9655 95.0307 54.724C94.5924 54.4825 94.2286 54.1256 93.9788 53.6919V57.5823H91.8145V47.1029ZM97.6706 51.0549V50.9317C97.6706 49.3563 96.8966 48.5823 95.8076 48.5823C94.7186 48.5823 93.9035 49.37 93.9035 50.9317V51.0549C93.9035 52.6166 94.6501 53.3769 95.8282 53.3769C97.0062 53.3769 97.6706 52.5823 97.6706 51.0823V51.0549Z" fill="#1D2D35"/>
<path d="M1.1709 50.3427C2.95857 45.2742 6.38323 39.3838 13.2942 39.3838C20.2051 39.3838 23.623 48.4728 24.0545 54.6372C22.2394 57.7879 17.8901 58.9728 13.2942 58.9728C11.4339 59.0031 9.58905 58.6314 7.88565 57.8832C6.18225 57.1349 4.66047 56.0277 3.42432 54.6372C3.42432 54.6372 5.58871 48.7947 7.60925 48.781C9.09556 48.781 10.349 51.5208 11.5339 51.5208C12.7188 51.5208 15.1846 46.2605 15.1846 46.2605" stroke="#1D2D35" stroke-width="2.33562" stroke-linecap="round" stroke-linejoin="round"/>
</g>
<defs>
<clipPath id="clip0_15381_206666">
<rect width="100" height="22.6027" fill="white" transform="translate(0 38.1987)"/>
</clipPath>
</defs>
</svg>
