<svg width="100" height="100" viewBox="0 0 100 100" fill="none" xmlns="http://www.w3.org/2000/svg">
<g clip-path="url(#clip0_15397_208518)">
<path d="M21.4287 21.4286H78.5716V78.5714H21.4287V21.4286Z" fill="black"/>
<path d="M27.6484 67.8571H49.077V71.4285H27.6484V67.8571Z" fill="white"/>
<path d="M26.7529 36.1904L28.3434 34.6856C28.4948 34.9245 28.7005 35.1241 28.9439 35.2681C29.1872 35.4121 29.4612 35.4965 29.7434 35.5142C30.3529 35.5142 30.7529 35.0952 30.7529 34.2666V28.5714H33.2101V34.2856C33.2468 34.733 33.1923 35.1831 33.0499 35.6088C32.9075 36.0344 32.6801 36.4267 32.3815 36.7618C32.0535 37.0668 31.6683 37.3038 31.2482 37.4591C30.8281 37.6144 30.3814 37.6849 29.9339 37.6666C29.3225 37.7067 28.7107 37.5926 28.1549 37.3346C27.5991 37.0767 27.117 36.6832 26.7529 36.1904Z" fill="white"/>
<path d="M34.2861 28.5714H41.4576V30.6571H36.6957V32.0285H40.9718V33.9333H36.7623V35.3523H41.5242V37.4571H34.2861V28.5714Z" fill="white"/>
<path d="M44.9811 30.7523H42.3145V28.5714H50.1335V30.7333H47.4573V37.4952H44.9811V30.7523Z" fill="white"/>
<path d="M27.7432 41.0285H31.9527C32.8347 40.9623 33.7072 41.2463 34.3813 41.819C34.57 42.0106 34.718 42.2386 34.8162 42.489C34.9144 42.7395 34.9609 43.0072 34.9527 43.2761C34.9634 43.7102 34.8365 44.1365 34.5902 44.494C34.3438 44.8516 33.9907 45.122 33.5813 45.2666C34.0879 45.3595 34.5448 45.6302 34.8696 46.0301C35.1943 46.4299 35.3657 46.9326 35.3527 47.4475C35.3527 48.9809 34.1051 49.9142 31.9717 49.9142H27.7432V41.0285ZM32.5051 43.7809C32.5051 43.2856 32.1051 43.019 31.3813 43.019H30.1527V44.5809H31.3336C32.086 44.5809 32.5241 44.3332 32.5241 43.8094L32.5051 43.7809ZM31.6479 46.3142H30.1527V47.9618H31.6955C32.4574 47.9618 32.8765 47.6666 32.8765 47.1428C32.8765 46.6666 32.4955 46.3142 31.667 46.3142H31.6479Z" fill="white"/>
<path d="M36.1914 41.0284H40.0962C41.1364 40.9605 42.1619 41.3024 42.9533 41.9808C43.2334 42.2497 43.4544 42.5741 43.6019 42.9332C43.7495 43.2924 43.8206 43.6784 43.8105 44.0665C43.8276 44.6593 43.6599 45.2428 43.3305 45.736C43.0012 46.2292 42.5265 46.6076 41.9724 46.8189L44.1057 49.9332H41.2486L39.4581 47.2284H38.6295V49.9332H36.1914V41.0284ZM40.0009 45.3142C40.8295 45.3142 41.3247 44.9046 41.3247 44.257C41.3247 43.5427 40.8105 43.1903 39.9914 43.1903H38.62V45.3427L40.0009 45.3142Z" fill="white"/>
<path d="M47.2292 40.9523H49.6101L53.4197 49.9428H50.7625L50.1244 48.3333H46.6673L46.0292 49.9428H43.4482L47.2292 40.9523ZM49.3911 46.4095L48.4387 43.8857L47.4292 46.4095H49.3911Z" fill="white"/>
<path d="M53.7725 40.9999H56.2487V49.9237H53.7725V40.9999Z" fill="white"/>
<path d="M57.2002 40.9999H59.505L62.7145 45.7618V40.9999H65.1621V49.9237H63.0097L59.6478 45.0285V49.9237H57.2002V40.9999Z" fill="white"/>
<path d="M65.5811 48.5715L66.962 46.9238C67.7645 47.5967 68.7722 47.9763 69.8191 48C70.4953 48 70.8477 47.7715 70.8477 47.381C70.8477 47 70.5525 46.8096 69.3334 46.5143C67.4287 46.0762 65.9715 45.5619 65.9715 43.7238C65.9715 42.0667 67.2763 40.8667 69.4191 40.8667C70.7469 40.8156 72.0496 41.2375 73.0953 42.0572L71.8953 43.8096C71.1728 43.2691 70.3019 42.9633 69.4001 42.9334C68.8001 42.9334 68.5049 43.1715 68.5049 43.5048C68.5049 43.9048 68.8096 44.0857 70.0572 44.3715C72.0953 44.8096 73.3334 45.4762 73.3334 47.1429C73.3334 48.9619 71.8953 50 69.7239 50C68.216 50.0379 66.7451 49.5307 65.5811 48.5715Z" fill="white"/>
</g>
<defs>
<clipPath id="clip0_15397_208518">
<rect width="100" height="100" fill="white"/>
</clipPath>
</defs>
</svg>
