<svg width="100" height="100" viewBox="0 0 100 100" fill="none" xmlns="http://www.w3.org/2000/svg">
<g clip-path="url(#clip0_15397_208489)">
<path d="M64.695 54.38C62.6394 54.38 61.5746 52.6855 61.5746 50.6022C61.5746 48.5189 62.6209 46.9078 64.695 46.9078C66.8153 46.9078 67.8153 48.5929 67.8153 50.6022C67.7968 52.7226 66.7412 54.38 64.695 54.38ZM44.5375 46.9078C45.7412 46.9078 46.2412 47.6115 46.2412 48.2226C46.2412 49.704 44.7412 50.3429 41.6024 50.4355C41.6024 48.6115 42.6394 46.917 44.5375 46.917V46.9078ZM31.1672 54.38C29.2227 54.38 28.3987 52.7966 28.3987 50.6022C28.3987 48.4263 29.232 46.9078 31.1764 46.9078C33.1394 46.9078 34.0653 48.4818 34.0653 50.6022C34.0653 52.8152 33.1024 54.38 31.1672 54.38ZM14.6857 44.7503H11.6301L16.6857 56.3337C15.7227 58.4726 15.2042 59.0096 14.5375 59.0096C13.8246 59.0096 13.1579 58.4355 12.6857 57.9355L11.3431 59.7133C11.7825 60.1834 12.3126 60.5595 12.9014 60.8189C13.4903 61.0783 14.1256 61.2157 14.769 61.2226C16.3709 61.2226 17.5931 60.2966 18.3061 58.6392L24.1394 44.7318H21.1394L18.1024 53.0374L14.6764 44.7503H14.6857ZM95.3338 46.9078C96.8153 46.9078 97.1116 47.9263 97.1116 50.3059V56.5559H99.7505V48.667C99.7505 45.8244 97.8061 44.5929 96.0005 44.5929C94.3987 44.5929 92.9357 45.5837 92.1116 47.4263C91.9141 46.6065 91.4433 45.8784 90.7769 45.3618C90.1105 44.8451 89.2881 44.5707 88.4449 44.5837C86.9357 44.5837 85.4357 45.5466 84.6209 47.3337V44.7503H81.982V56.5374H84.6209V51.5003C84.6209 48.9633 85.9542 46.9078 87.769 46.9078C89.2505 46.9078 89.5283 47.9263 89.5283 50.3059V56.5559H92.1764L92.1579 51.5003C92.1579 48.9633 93.5098 46.9078 95.3246 46.9078H95.3338ZM74.2042 44.7503H72.9449V56.5374H75.5838V52.0189C75.5838 49.1578 76.8431 47.2226 78.7227 47.2226C79.2042 47.2226 79.6116 47.2411 80.0561 47.4263L80.4635 44.6485C80.1301 44.6022 79.8338 44.5652 79.5375 44.5652C77.6857 44.5652 76.3431 45.8429 75.5653 47.4818V44.7503H74.2042ZM64.6857 44.5652C61.195 44.5652 58.8431 47.2226 58.8431 50.5837C58.8431 54.0652 61.232 56.667 64.6857 56.667C68.2042 56.667 70.5931 53.9911 70.5931 50.5837C70.5838 47.204 68.1487 44.5559 64.695 44.5559L64.6857 44.5652ZM44.6764 54.38C44.0321 54.4125 43.3967 54.2181 42.8808 53.8308C42.3648 53.4434 42.0009 52.8874 41.8524 52.2596C45.3431 52.1115 48.7598 51.2596 48.7598 48.1855C48.7598 46.417 47.0098 44.5837 44.5005 44.5837C41.1301 44.5837 38.8524 47.3337 38.8524 50.6022C38.8524 54.0096 41.0931 56.6855 44.4542 56.6855C45.4081 56.7163 46.3561 56.5239 47.2225 56.1236C48.089 55.7234 48.85 55.1263 49.445 54.38L48.1672 52.6485C46.8061 54.0374 45.9727 54.38 44.6764 54.38ZM31.6857 44.5652C30.3524 44.5652 29.0098 45.3429 28.4912 46.5652V44.7411H25.8616V61.1578H28.4912V55.2966C29.0468 56.1392 30.3338 56.6948 31.4635 56.6948C34.982 56.6948 36.8338 54.1022 36.8338 50.5837C36.8153 47.1207 34.9912 44.5652 31.6857 44.5652ZM13.195 40.0281H0.759766V42.5929H5.62088V56.5374H8.3894V42.5929H13.2042V40.0374L13.195 40.0281ZM52.3894 44.7503H50.8153V47.1115H52.3894V56.5374H55.0283V47.1115H57.5838V44.7503H55.0283V42.9077C55.0283 41.7318 55.5098 41.3244 56.6024 41.3244C57.0098 41.3244 57.3801 41.4355 57.8801 41.6022L58.482 39.38C57.8194 39.1059 57.106 38.9765 56.3894 39.0003C53.8616 39.0003 52.3801 40.5096 52.3801 43.13V44.7503H52.3894Z" fill="black"/>
</g>
<defs>
<clipPath id="clip0_15397_208489">
<rect width="100" height="22.2222" fill="white" transform="translate(0 39)"/>
</clipPath>
</defs>
</svg>
