<svg width="101" height="100" viewBox="0 0 101 100" fill="none" xmlns="http://www.w3.org/2000/svg">
<g clip-path="url(#clip0_15384_206891)">
<path d="M50.1475 -0.000572318H87.7037C89.3633 -0.0139188 91.0089 0.303344 92.5445 0.93271C94.0802 1.56207 95.4751 2.49094 96.648 3.66512C97.8209 4.8393 98.7482 6.23528 99.3758 7.77164C100.003 9.30799 100.319 10.9539 100.304 12.6135V50.1557C100.304 77.69 77.9943 99.9994 50.46 99.9994H50.1756C43.6283 100.005 37.144 98.7205 31.0934 96.2189C25.0428 93.7173 19.5446 90.0477 14.9129 85.42C10.2813 80.7923 6.60712 75.2972 4.10038 69.2487C1.59364 63.2003 0.303503 56.7171 0.303711 50.1697C0.303711 22.5572 22.5756 0.283803 50.1475 -0.000572318Z" fill="#25C16F"/>
<path d="M50.1479 22.2734C37.5025 22.2734 27.251 32.5234 27.251 45.1703V60.7391C27.3416 64.9062 30.6979 68.2625 34.865 68.3531H41.3416V50.4687H32.5916V45.4688C33.1229 36.0531 40.915 28.6875 50.3479 28.6875C59.7807 28.6875 67.5541 36.0391 68.0854 45.4688V50.4687H59.2104V68.3656H65.0619V68.65C64.9994 72.5156 61.8822 75.6344 58.0307 75.6813H51.0416C50.4729 75.6813 49.8479 75.9656 49.8479 76.5328C49.8616 76.845 49.9918 77.1407 50.2128 77.3617C50.4337 77.5826 50.7294 77.7128 51.0416 77.7266H58.0729C63.0807 77.6953 67.1322 73.6437 67.1635 68.6359V68.0672C68.8362 67.6904 70.3293 66.7519 71.394 65.4079C72.4588 64.064 73.0309 62.3958 73.015 60.6812V45.4688C73.2994 32.5719 63.0713 22.2875 50.1182 22.2875L50.1479 22.2734Z" fill="white"/>
</g>
<defs>
<clipPath id="clip0_15384_206891">
<rect width="100" height="100" fill="white" transform="translate(0.303711)"/>
</clipPath>
</defs>
</svg>
