<svg width="100" height="100" viewBox="0 0 100 100" fill="none" xmlns="http://www.w3.org/2000/svg">
<path d="M38.6918 88.4311C37.978 88.4311 37.2609 88.1581 36.7148 87.612L18.8464 69.7436C17.7543 68.6515 17.7543 66.8818 18.8464 65.7897C19.9385 64.6976 21.7083 64.6976 22.8004 65.7897L40.6688 83.6581C41.7609 84.7502 41.7609 86.5199 40.6688 87.612C40.1227 88.1581 39.4089 88.4311 38.6918 88.4311Z" fill="#FFAE00"/>
<path d="M38.7142 55.9772C38.0004 55.9772 37.2865 55.7042 36.7405 55.1614L18.849 37.3128C17.7569 36.2239 17.7537 34.4542 18.8458 33.3588C19.9346 32.2667 21.7076 32.2634 22.7997 33.3555L40.6912 51.2042C41.7833 52.293 41.7865 54.0628 40.6944 55.1582C40.1484 55.7042 39.4313 55.9805 38.7142 55.9805V55.9772Z" fill="#FFAE00"/>
<path d="M38.6908 72.214C37.977 72.214 37.2599 71.941 36.7138 71.3949L18.8816 53.5627C17.7895 52.4706 17.7895 50.7009 18.8816 49.6088C19.9737 48.5166 21.7434 48.5166 22.8355 49.6088L40.6678 67.441C41.7599 68.5331 41.7599 70.3028 40.6678 71.3949C40.1217 71.941 39.4079 72.214 38.6908 72.214Z" fill="#FFAE00"/>
<path d="M59.5236 67.5988C58.8098 67.5988 58.0927 67.3258 57.5466 66.7797C56.4545 65.6876 56.4545 63.9179 57.5466 62.8258L92.4315 27.9409C93.5236 26.8488 95.2933 26.8488 96.3854 27.9409C97.4775 29.033 97.4775 30.8027 96.3854 31.8949L61.5006 66.7797C60.9545 67.3258 60.2407 67.5988 59.5236 67.5988Z" fill="#006EB9"/>
<path d="M59.5265 51.3785C58.8127 51.3785 58.0956 51.1055 57.5495 50.5594C56.4574 49.4673 56.4574 47.6976 57.5495 46.6055L82.3489 21.8061L78.1943 17.6515L61.5068 34.339C60.4147 35.4311 58.6449 35.4311 57.5528 34.339C56.4607 33.2469 56.4607 31.4772 57.5528 30.3851L76.214 11.7239C77.2634 10.6746 79.1186 10.6746 80.168 11.7239L88.2765 19.8324C89.3686 20.9246 89.3686 22.6943 88.2765 23.7864L61.5002 50.5627C60.9542 51.1088 60.2403 51.3818 59.5232 51.3818L59.5265 51.3785Z" fill="#006EB9"/>
<path d="M38.714 55.9772C38.0002 55.9772 37.2831 55.7042 36.737 55.1582C35.6449 54.066 35.6449 52.2963 36.737 51.2042L57.5528 30.3884C58.6449 29.2963 60.4147 29.2963 61.5068 30.3884C62.5989 31.4805 62.5989 33.2503 61.5068 34.3424L40.691 55.1582C40.1449 55.7042 39.4311 55.9772 38.714 55.9772Z" fill="#009C3E"/>
<path d="M38.6906 72.214C37.9768 72.214 37.2597 71.941 36.7136 71.3949C35.6215 70.3028 35.6215 68.5331 36.7136 67.441L57.5491 46.6055C58.6412 45.5134 60.411 45.5134 61.5031 46.6055C62.5952 47.6976 62.5952 49.4673 61.5031 50.5594L40.6676 71.3949C40.1215 71.941 39.4077 72.214 38.6906 72.214Z" fill="#009C3E"/>
<path d="M38.6906 88.4312C37.9768 88.4312 37.2597 88.1581 36.7136 87.6121C35.6215 86.52 35.6215 84.7503 36.7136 83.6582L57.5458 62.8259C58.638 61.7338 60.4077 61.7338 61.4998 62.8259C62.5919 63.918 62.5919 65.6878 61.4998 66.7799L40.6676 87.6121C40.1215 88.1581 39.4077 88.4312 38.6906 88.4312Z" fill="#009C3E"/>
<path d="M20.8227 70.5627C20.1089 70.5627 19.3918 70.2897 18.8458 69.7436L2.62865 53.5265C2.10562 53.0035 1.80957 52.2897 1.80957 51.5495C1.80957 50.8094 2.10562 50.0956 2.62865 49.5726L18.8458 33.3555C19.9379 32.2634 21.7076 32.2634 22.7997 33.3555C23.8918 34.4476 23.8918 36.2173 22.7997 37.3094L8.55957 51.5495L22.7997 65.7897C23.8918 66.8818 23.8918 68.6515 22.7997 69.7436C22.2537 70.2897 21.5398 70.5627 20.8227 70.5627Z" fill="#F70011"/>
</svg>
