<svg width="100" height="100" viewBox="0 0 100 100" fill="none" xmlns="http://www.w3.org/2000/svg">
<path d="M66.696 46.4148C66.7134 42.1246 65.9064 37.871 64.3188 33.8853C63.9905 34.0199 63.754 34.1446 63.5833 34.2136C63.2337 34.3941 62.9479 34.6777 62.7647 35.0259C62.5815 35.3742 62.5096 35.7703 62.5589 36.1607C62.758 37.9048 62.86 39.6587 62.8642 41.4141C62.8642 49.4421 60.2736 57.1385 55.5717 63.0848C51.1227 68.7125 45.1502 72.3309 38.6621 73.3652L38.7146 73.398C40.5896 74.4626 42.6962 75.0529 44.8513 75.1175C47.0064 75.1822 49.1447 74.7193 51.08 73.769C60.2408 69.2904 66.696 58.7145 66.696 46.4148Z" fill="#FD3456"/>
<path d="M68.482 33.0676C67.9129 33.0504 67.3435 33.0867 66.7812 33.176C68.4295 37.3944 69.2671 41.8858 69.2503 46.4148C69.2503 60.2051 61.5671 72.4425 50.3477 76.9046C50.9157 76.9408 51.4837 76.9605 52.0616 76.9605H52.1437C54.816 76.9491 57.4523 76.3427 59.8609 75.1852C62.2696 74.0278 64.3902 72.3483 66.0687 70.2688C70.3667 64.9497 73 57.7918 73 49.9411C73.041 44.0124 71.48 38.1827 68.482 33.0676Z" fill="#FD3456"/>
<path d="M79.081 49.938C79.0858 46.3817 78.3861 42.8598 77.0223 39.5755C76.4294 38.1021 75.5474 36.7624 74.4284 35.6354C73.8268 35.0274 73.1386 34.5118 72.3861 34.1053C72.1956 34.0035 72.0052 33.9148 71.8148 33.8328C74.2917 38.8333 75.572 44.3412 75.5546 49.9215C75.5546 57.9003 72.9541 65.5868 68.3311 71.4838C71.6694 68.9705 74.3781 65.716 76.2436 61.977C78.1092 58.2379 79.0805 54.1166 79.081 49.938Z" fill="#FD3456"/>
<path d="M71.4437 31.1173C68.9311 28.5187 65.9209 26.4527 62.5926 25.0424C59.2644 23.6321 55.6862 22.9065 52.0715 22.9087C37.1352 22.9087 24.8979 35.2774 25.0489 50.2104C25.0824 53.7517 25.8132 57.2517 27.1996 60.5105C26.7547 60.4497 26.3052 60.4299 25.8567 60.4514C24.6451 60.5072 22.9344 60.0672 22.1562 59.8505C21.3781 59.6338 20.6918 60.2577 21.0038 60.98V60.9997C23.6863 67.1463 29.6359 71.1455 35.3096 71.1324C35.688 71.1323 36.0661 71.1126 36.4424 71.0733C49.7337 70.062 60.2834 57.1548 60.2834 41.4305C60.2834 40.4455 60.2407 39.4604 60.1586 38.4754C60.1489 38.3571 60.1034 38.2446 60.0282 38.1528C59.953 38.061 59.8517 37.9943 59.7376 37.9615C59.6235 37.9287 59.5022 37.9314 59.3897 37.9692C59.2772 38.0071 59.1789 38.0783 59.1079 38.1733C55.4338 43.0394 49.9833 51.5927 43.1702 47.1338C40.5434 45.4231 39.148 41.7424 39.936 37.996C41.3708 31.288 49.2051 26.8652 52.6593 28.2443C52.9252 28.3526 53.9004 28.7401 54.2287 29.6266C54.7344 30.9794 53.2109 32.0924 52.436 34.4893C51.5954 37.08 52.0682 39.8315 52.6593 39.9497C53.3159 40.0843 54.4126 37.6743 57.1247 35.4875C59.0948 33.8983 60.5789 33.4518 61.5114 31.7707C62.411 30.1289 60.8087 28.3986 61.3538 28.2443C61.8988 28.0899 62.4077 29.9812 64.0298 30.9203C65.3858 31.705 66.5941 31.2125 68.377 31.1435C69.0368 31.1388 69.6957 31.1893 70.3471 31.2946C70.3471 31.2946 70.6951 31.3405 71.2467 31.4555C71.2902 31.4695 71.3372 31.4683 71.3799 31.452C71.4226 31.4356 71.4584 31.4052 71.4814 31.3657C71.5045 31.3262 71.5133 31.28 71.5064 31.2348C71.4995 31.1896 71.4774 31.1482 71.4437 31.1173ZM51.3032 51.9473C51.601 51.5481 52.0427 51.2808 52.5345 51.202C52.7476 51.1709 52.9649 51.1839 53.1728 51.2404C53.3807 51.2969 53.5747 51.3956 53.7428 51.5303C54.3831 52.1345 54.2057 53.3132 53.641 53.9896C53.1157 54.6134 52.0814 55.0239 51.3623 54.5576C51.162 54.4027 51.0003 54.2035 50.8898 53.9756C50.7793 53.7478 50.723 53.4975 50.7253 53.2443C50.7465 52.7543 50.9531 52.2907 51.3032 51.9473Z" fill="#290042"/>
</svg>
