<svg width="100" height="100" viewBox="0 0 100 100" fill="none" xmlns="http://www.w3.org/2000/svg">
<path d="M83.4234 100H16.5766C7.42148 100 0 92.5785 0 83.4234V16.5766C0 7.42148 7.42148 0 16.5766 0H83.4234C92.5785 0 100 7.42148 100 16.5766V83.4234C100 92.5785 92.5785 100 83.4234 100Z" fill="#00AEEF"/>
<path d="M51.1795 42.1041C45.9768 42.1041 41.4494 45.0307 39.1693 49.3272C36.8885 45.0307 32.3635 42.1041 27.1572 42.1041C24.2142 42.101 21.35 43.0554 18.9971 44.8232V33.369C18.984 32.6569 18.6916 31.9785 18.1829 31.48C17.6743 30.9815 16.9901 30.7029 16.2779 30.7041C14.7928 30.7041 13.5975 31.8889 13.5635 33.369V55.9244H13.5662C13.6861 63.3303 19.7213 69.2963 27.1572 69.2963C32.3635 69.2963 36.8885 66.367 39.1693 62.0748C41.4494 66.367 45.9768 69.2963 51.1795 69.2963C58.6857 69.2963 64.7748 63.2096 64.7748 55.6975C64.7748 48.1893 58.6857 42.1041 51.1795 42.1041ZM27.1572 63.8529C22.6529 63.8529 18.9971 60.2041 18.9971 55.6994C18.9971 51.1963 22.6529 47.5471 27.1572 47.5471C31.6611 47.5471 35.3092 51.1963 35.3092 55.6975C35.3092 60.2029 31.6611 63.8529 27.1572 63.8529ZM51.1795 63.8529C46.674 63.8529 43.0209 60.2029 43.0209 55.6975C43.0209 51.1963 46.674 47.5471 51.1795 47.5471C55.683 47.5471 59.3342 51.1963 59.3342 55.6975C59.3342 60.2029 55.683 63.8529 51.1795 63.8529Z" fill="white"/>
<path d="M85.8715 64.7444L78.4816 55.6799L85.8805 46.5979C86.816 45.3999 86.5477 43.7268 85.2563 42.8381C83.9633 41.9417 82.1492 42.1713 81.1488 43.3338V43.3323L74.7832 51.1338L68.4234 43.3323V43.3338C67.4332 42.1713 65.6078 41.9417 64.3188 42.8381C63.0297 43.7276 62.7602 45.3999 63.7004 46.5979H63.6977L71.0836 55.6799L63.6977 64.7444H63.7004C62.7602 65.9463 63.0297 67.6139 64.3188 68.5065C65.6078 69.3991 67.4332 69.1717 68.4234 68.0077L74.7832 60.217L81.1398 68.0077C82.1414 69.1717 83.9547 69.3991 85.2477 68.5065C86.5395 67.6139 86.809 65.9463 85.8715 64.7444Z" fill="white"/>
</svg>
