<svg width="100" height="100" viewBox="0 0 100 100" fill="none" xmlns="http://www.w3.org/2000/svg">
<g clip-path="url(#clip0_15910_61505)">
<path d="M21.6667 0H78.3333C90.2083 0 100 9.79167 100 21.6667V78.3333C100 90.2083 90.2083 100 78.3333 100H21.6667C9.79167 100 0 90.2083 0 78.3333V21.6667C0 9.79167 9.79167 0 21.6667 0Z" fill="#FFD02F"/>
<path fill-rule="evenodd" clip-rule="evenodd" d="M69.3747 12.5H58.333L67.4997 28.5417L47.4997 12.5H36.458L46.458 32.0833L25.6247 12.5H14.583L25.6247 37.5L14.583 87.5H25.6247L46.6663 33.9583L36.458 87.5H47.4997L67.708 30.4167L58.5413 87.5H69.583L89.583 25L69.3747 12.5Z" fill="#050038"/>
</g>
<defs>
<clipPath id="clip0_15910_61505">
<rect width="100" height="100" fill="white"/>
</clipPath>
</defs>
</svg>
