<svg width="100" height="100" viewBox="0 0 100 100" fill="none" xmlns="http://www.w3.org/2000/svg">
<g clip-path="url(#clip0_15397_208529)">
<path d="M28.1334 62.9076L22.7866 57.56C22.6178 57.3945 22.3907 57.3018 22.1543 57.3018C21.9178 57.3018 21.6907 57.3945 21.5219 57.56L16.1751 62.9076C16.0476 63.0292 15.9602 63.1867 15.9244 63.3592C15.8885 63.5317 15.9061 63.711 15.9747 63.8733C16.0433 64.0356 16.1597 64.1731 16.3084 64.2676C16.4571 64.3621 16.6311 64.4091 16.8071 64.4023H27.5014C27.6764 64.4067 27.8487 64.3583 27.9959 64.2633C28.143 64.1684 28.2582 64.0314 28.3263 63.8702C28.3945 63.7089 28.4126 63.5308 28.3782 63.3592C28.3437 63.1875 28.2584 63.0302 28.1334 62.9076Z" fill="#C3C6CC"/>
<path d="M28.3114 43.7007L26.6366 38.7285C26.561 38.5036 26.4406 38.2965 26.2825 38.1196L0.202148 64.1991C0.355202 64.336 0.555129 64.4088 0.760429 64.4023H8.16808C8.37511 64.4033 8.58031 64.3635 8.77191 64.285C8.96351 64.2066 9.13775 64.0911 9.28464 63.9452L27.9564 45.2734C28.1594 45.0724 28.3006 44.8175 28.3635 44.5389C28.4264 44.2602 28.4083 43.9694 28.3114 43.7007Z" fill="#E1E3E6"/>
<path d="M25.6732 37.7638L20.7011 36.0898C20.4324 35.9929 20.1415 35.9749 19.8629 36.0378C19.5842 36.1007 19.3294 36.2419 19.1283 36.4448L0.455637 55.1166C0.161903 55.4138 -0.00213274 55.8153 -0.000573449 56.2331V63.6408C-0.00709376 63.8461 0.0656925 64.046 0.202679 64.1991L26.283 38.1197C26.1059 37.9611 25.8985 37.84 25.6732 37.7638Z" fill="#C3C6CC"/>
<path d="M96.9899 49.8008C97.0066 50.0896 96.938 50.3769 96.7929 50.6271C96.6652 50.8218 96.4844 50.9758 96.2719 51.0709C96.0385 51.1733 95.7887 51.2331 95.5343 51.2475C95.2583 51.2679 94.9828 51.278 94.708 51.2777H93.7441V48.3443H94.8065C95.0626 48.3443 95.3186 48.3574 95.5734 48.3833C95.8184 48.4049 96.058 48.4682 96.2816 48.5706C96.49 48.6673 96.6671 48.8204 96.7929 49.0126C96.9349 49.2501 97.0034 49.5244 96.9899 49.8008ZM97.3441 57.3016H100L98.5441 55.1555C98.2946 54.788 98.0423 54.4339 97.787 54.093C97.5305 53.7513 97.3171 53.4691 97.147 53.2463C97.0244 53.0465 96.864 52.8725 96.6748 52.7342C97.3937 52.6755 98.0644 52.3489 98.5538 51.8191C99.0576 51.2551 99.3221 50.5173 99.2914 49.7617C99.3011 49.3098 99.2068 48.8617 99.0158 48.4521C98.8249 48.0424 98.5423 47.6821 98.1899 47.399C97.8237 47.1115 97.396 46.9125 96.9402 46.8176C96.3484 46.6968 95.7451 46.6409 95.1411 46.6508H91.5607V57.3016H93.7441V52.8717C93.9586 52.8622 94.171 52.9172 94.3538 53.0297C94.513 53.136 94.6585 53.2615 94.787 53.4034C94.9797 53.6401 95.1602 53.8866 95.3275 54.1419C95.5441 54.4632 95.8621 54.9454 96.2816 55.5886L97.3441 57.3016ZM78.8454 57.3016H85.6912V55.451H81.0687V52.6161H84.5302V50.8641H81.0483V48.4028H85.219L85.5332 46.6508H78.8454V57.3016ZM70.2572 57.3007L74.4075 46.6508H72.106L70.0016 52.183C69.8999 52.4341 69.8113 52.6904 69.7362 52.9507C69.651 53.2392 69.5756 53.5114 69.5099 53.7673C69.4442 54.0238 69.3916 54.2371 69.3519 54.4072L69.2933 54.6638L69.2144 54.4072C69.1753 54.2235 69.1229 54.004 69.0573 53.7487C68.9916 53.4922 68.9161 53.2197 68.8309 52.9312C68.7457 52.6419 68.6638 52.386 68.5851 52.1635L66.6377 46.6508H64.1987L68.2709 57.3007H70.2572ZM52.9585 57.3016H59.8035V55.451H55.181V52.6161H58.6434V50.8641H55.1615V48.4028H59.3313L59.6464 46.6508H52.9585V57.3016ZM46.9648 57.3016L47.3784 55.4901H43.0506V46.6508H40.8281V57.3016H46.9648Z" fill="#262933"/>
</g>
<defs>
<clipPath id="clip0_15397_208529">
<rect width="100" height="28.4022" fill="white" transform="translate(0 36)"/>
</clipPath>
</defs>
</svg>
