<svg width="100" height="100" viewBox="0 0 100 100" fill="none" xmlns="http://www.w3.org/2000/svg">
<g clip-path="url(#clip0_15910_61477)">
<path fill-rule="evenodd" clip-rule="evenodd" d="M79.056 34.7773C78.9494 35.9928 78.3167 37.4803 78.071 38.136C77.1668 40.5469 76.3522 42.4918 75.8182 42.2876C75.2846 42.0823 75.7764 39.9908 76.1369 37.395C76.2728 36.4177 76.906 32.3206 78.4333 33.0974C78.9866 33.3788 79.1221 34.0261 79.056 34.7773Z" fill="#89C263"/>
<path fill-rule="evenodd" clip-rule="evenodd" d="M88.0288 36.8782C87.9004 37.1473 87.7496 37.397 87.6036 37.6124C86.8966 38.651 86.0988 39.6271 85.2612 40.5539C82.9771 43.0763 81.0189 45.0673 80.3788 44.5435C79.7391 44.0186 81.322 41.6811 82.9442 38.6532C83.6242 37.3826 84.4437 36.0627 85.474 35.0672C86.0744 34.487 87.282 33.6853 88.0028 34.5274C88.583 35.2062 88.394 36.1164 88.0288 36.8782Z" fill="#EDA42D"/>
<path fill-rule="evenodd" clip-rule="evenodd" d="M98.6829 50.9342C97.9896 51.2677 97.185 51.4785 96.6997 51.6071C95.9622 51.8025 95.2168 51.966 94.4658 52.108C91.2665 52.7101 88.6181 53.1019 88.3939 52.3682C88.1931 51.7133 89.4971 51.2502 89.9355 51.0484C91.6036 50.2793 93.3085 49.4933 95.0421 48.8702C96.1796 48.461 99.2571 47.3276 99.9104 49.0103C100.257 49.8985 99.5583 50.5131 98.6829 50.9342Z" fill="#AE5191"/>
<path fill-rule="evenodd" clip-rule="evenodd" d="M95.6459 41.8198C95.1736 42.3265 94.5724 42.7443 94.0414 43.1493C93.211 43.784 92.3502 44.3791 91.4692 44.9419C88.2118 47.0202 85.4755 48.6283 84.9687 47.9648C84.4408 47.2741 86.5608 45.5432 86.9133 45.1834C88.1705 43.9022 89.423 42.6046 90.786 41.4323C91.8166 40.5468 94.7056 37.8009 96.2228 39.208C96.7492 39.6968 96.4525 40.5818 96.165 41.1126C96.0262 41.3691 95.8482 41.6024 95.6459 41.8198Z" fill="#2D89BE"/>
<path fill-rule="evenodd" clip-rule="evenodd" d="M3.12968 67.563H3.84915C5.61184 67.563 6.90688 66.7079 6.90688 64.2495V60.081L10.756 65.6034C11.7633 67.1354 13.2382 67.6699 14.4973 67.6699C16.5477 67.6699 18.4903 65.9597 18.3104 65.6034L13.0583 58.2995L17.8428 51.5657C18.0226 51.1738 16.188 49.4636 14.1016 49.4636C12.9144 49.4636 11.4395 49.998 10.4682 51.5301L6.90688 56.8387V47.504C6.90688 43.3355 4.64056 42.3022 2.66203 42.3022C1.25907 42.3022 0 42.8367 0 43.0861V64.2495C0 66.7792 1.29504 67.563 3.12968 67.563ZM29.8139 67.8836C34.8502 67.8836 37.6201 66.1022 37.6201 63.7507C37.6201 61.1498 34.4545 60.8292 34.4545 60.9004C33.771 62.1118 32.2961 63.145 30.1377 63.145C27.9433 63.145 26.4324 62.2187 26.0007 60.366H37.2604C38.3036 60.366 38.6274 59.6178 38.6634 58.5846V58.157C38.6634 53.0621 34.8502 49.3567 29.3822 49.3567C23.8783 49.3567 19.8853 53.3471 19.8853 58.7627C19.8853 64.4277 23.7344 67.8836 29.8139 67.8836ZM29.3103 53.8103C31.2169 53.8103 32.404 55.0217 32.44 56.8387H25.8928C26.1087 55.0929 27.5116 53.8103 29.3103 53.8103ZM45.0586 67.563H45.7781C47.5408 67.563 48.8358 66.7079 48.8358 64.2495V60.081L52.685 65.6034C53.6922 67.1354 55.1671 67.6699 56.4262 67.6699C58.4767 67.6699 60.4192 65.9597 60.2394 65.6034L54.9873 58.2995L59.7717 51.5657C59.9516 51.1738 58.1169 49.4636 56.0305 49.4636C54.8434 49.4636 53.3685 49.998 52.3972 51.5301L48.8358 56.8387V47.504C48.8358 43.3355 46.5695 42.3022 44.591 42.3022C43.188 42.3022 41.9289 42.8367 41.9289 43.0861V64.2495C41.9289 66.7792 43.224 67.563 45.0586 67.563ZM67.7138 67.7411C70.3039 67.7411 72.4983 66.6723 73.6854 64.8552C74.225 66.7435 75.592 67.7055 77.5705 67.7055C78.9015 67.7055 80.2326 67.278 80.2326 66.9217V56.8744C80.2326 51.8151 77.4266 49.3567 71.0234 49.3567C65.1237 49.3567 62.4617 51.1025 62.4617 53.8816C62.4617 56.91 66.9944 56.6606 67.0303 56.5537C67.498 55.4849 68.3973 54.2022 70.6277 54.2022C72.2824 54.2022 73.2537 55.0217 73.3976 56.5537H72.7141C65.1237 56.5893 61.7782 58.5133 61.7782 62.5393C61.7782 65.6034 64.1165 67.7411 67.7138 67.7411ZM70.4118 63.5726C69.1528 63.5726 68.3254 62.9669 68.3254 61.9337C68.3254 60.5798 69.8003 60.0097 72.5702 59.9384H73.4336V60.5441C73.4336 62.3256 72.2465 63.5726 70.4118 63.5726Z" fill="#2C2E31"/>
</g>
<defs>
<clipPath id="clip0_15910_61477">
<rect width="100" height="34.8837" fill="white" transform="translate(0 33)"/>
</clipPath>
</defs>
</svg>
