<svg width="100" height="100" viewBox="0 0 100 100" fill="none" xmlns="http://www.w3.org/2000/svg">
<g clip-path="url(#clip0_15397_208526)">
<path d="M99.9998 50.1742C99.9998 47.631 97.9709 45.8584 94.7166 45.8584C91.4624 45.8584 89.8844 46.9681 88.6405 48.9313C88.3392 49.4068 88.5339 50.038 89.0524 50.2562L90.4848 50.8587C90.8865 51.0278 91.3486 50.8843 91.5925 50.5226C92.1407 49.707 92.9501 49.0625 94.2064 49.0625C95.2525 49.0625 96.4043 49.498 96.4043 50.5216V51.0759C96.4043 51.0759 95.7054 51.204 94.7166 51.3772C91.782 51.87 90.7881 52.4274 90.4449 52.6098C90.1016 52.7922 89.7624 52.9931 89.4694 53.2472C88.9612 53.6714 88.5503 54.2042 88.3054 54.8805C88.1087 55.3713 87.999 55.9061 87.999 56.4666C87.999 58.8213 89.908 60.7302 92.2626 60.7302C93.6213 60.7302 94.7966 60.2927 96.0098 59.4709C96.145 59.39 96.2772 59.2936 96.4032 59.1809V60.0765C96.4032 60.2763 96.5651 60.4392 96.766 60.4392H99.0929C99.593 60.4392 99.9987 60.0334 99.9987 59.5334V50.1742H99.9998ZM94.7197 54.3743C96.0907 53.9839 96.4032 53.9306 96.4032 53.9306V56.4C96.4032 56.483 96.3592 56.5599 96.2864 56.6009C96.185 56.6582 96.0036 56.7597 95.6952 56.9308C94.9011 57.3714 93.94 57.7649 93.5209 57.7649H93.3815C92.6356 57.7649 92.03 57.1593 92.03 56.4134C92.03 56.0711 92.1817 55.7432 92.3671 55.5199C92.7575 55.0506 93.4492 54.736 94.7187 54.3743H94.7197Z" fill="#2A3551"/>
<path d="M80.6796 57.0016C78.8035 57.0016 77.2819 55.2751 77.2819 53.2576C77.2819 51.24 78.8025 49.5135 80.6796 49.5135C81.7033 49.5135 82.6203 50.0924 83.2433 50.8619C83.5599 51.2533 84.1102 51.3681 84.5641 51.1488L86.0478 50.4357C86.5324 50.2031 86.7179 49.6016 86.4392 49.1415C85.2086 47.1178 83.0947 45.7827 80.695 45.7827C76.8946 45.7827 73.8145 49.1292 73.8145 53.2565C73.8145 57.3838 76.8946 60.7304 80.695 60.7304C83.0947 60.7304 85.2086 59.3952 86.4392 57.3715C86.7189 56.9125 86.5324 56.31 86.0478 56.0774L84.5641 55.3642C84.1102 55.146 83.5599 55.2597 83.2433 55.6522C82.6203 56.4217 81.7033 57.0006 80.6796 57.0006V57.0016Z" fill="#2A3551"/>
<path d="M66.7606 57.0033C64.8855 57.0033 63.3649 55.2778 63.3649 53.2613C63.3649 51.2448 64.8855 49.5192 66.7606 49.5192C67.7832 49.5192 68.7003 50.0971 69.3222 50.8667C69.6388 51.2581 70.1881 51.3718 70.642 51.1536L72.1246 50.4404C72.6093 50.2078 72.7948 49.6063 72.515 49.1473C71.2844 47.1246 69.1726 45.7905 66.7739 45.7905C62.9765 45.7905 59.8975 49.135 59.8975 53.2602C59.8975 57.3855 62.9765 60.73 66.7739 60.73C69.1726 60.73 71.2844 59.3959 72.515 57.3732C72.7948 56.9142 72.6083 56.3127 72.1246 56.0801L70.642 55.368C70.1881 55.1497 69.6388 55.2634 69.3222 55.6549C68.7003 56.4244 67.7832 57.0023 66.7606 57.0023V57.0033Z" fill="#2A3551"/>
<path d="M57.2556 46.1328H55.3712C54.8425 46.1328 54.4132 46.5539 54.4132 47.0745V55.2532C54.0269 56.408 52.9233 57.2421 51.6189 57.2421C51.5964 57.2421 51.5738 57.2411 51.5513 57.2401C51.5257 57.2401 51.5001 57.2421 51.4734 57.2421C50.3975 57.2421 49.5256 56.3855 49.5256 55.328C49.5256 55.328 49.5256 55.328 49.5245 55.327V47.0745C49.5245 46.555 49.0952 46.1328 48.5665 46.1328H46.8594C46.3307 46.1328 45.9014 46.5539 45.9014 47.0745V56.1785H45.9034C45.9372 58.6981 47.8328 60.731 50.4047 60.731C50.417 60.731 50.4293 60.731 50.4406 60.731C50.4519 60.731 50.4621 60.731 50.4734 60.731C51.9776 60.731 53.3537 60.1931 54.4142 59.3017V60.2187C54.4142 60.4267 54.5853 60.5958 54.7974 60.5958H57.2566C57.7853 60.5958 58.2146 60.1747 58.2146 59.6541V47.0745C58.2146 46.555 57.7853 46.1328 57.2566 46.1328H57.2556Z" fill="#2A3551"/>
<path d="M41.9062 55.5723V41.7579C41.9062 41.3163 41.6204 40.9238 41.1992 40.7896L39.0731 40.1072C38.4163 39.8961 37.7451 40.3859 37.7451 41.0755V55.4749V55.6399H37.7492C37.8363 58.3142 39.4399 60.55 42.1593 60.55H43.641C44.3849 60.55 44.8767 59.7785 44.5632 59.1032L43.7762 57.4115C43.7004 57.2486 43.5436 57.1379 43.3643 57.1205C42.0189 56.9893 41.9052 55.9155 41.9052 55.5712L41.9062 55.5723Z" fill="#2A3551"/>
<path d="M32.3892 59.1388C31.8277 63.2743 29.3768 65.8472 25.1357 66.3975C22.8118 66.6987 19.8751 66.7889 16.3954 66.7889C12.9157 66.7889 9.98622 66.6485 7.65719 66.3975C3.6385 65.9651 0.837094 63.4506 0.403665 59.1429C0.155699 56.6786 0.000976562 53.6477 0.000976562 50.2684C0.000976562 46.8891 0.10959 44.0273 0.399567 41.6347C0.894474 37.5463 3.40487 34.7982 7.67768 34.3771C10.0293 34.1455 12.9639 34 16.3954 34C19.827 34 22.7667 34.1096 25.1152 34.3771C29.3184 34.8566 31.8277 37.6047 32.3933 41.6398C32.7253 44.0078 32.7899 46.9475 32.7899 50.2694C32.7899 53.5914 32.7202 56.7053 32.3892 59.1399V59.1388Z" fill="#FF7B3D"/>
<path d="M16.3951 37.0679C11.5731 37.0679 7.66406 40.9769 7.66406 45.7989C7.66406 50.621 11.5731 54.53 16.3951 54.53C21.2171 54.53 25.1262 50.621 25.1262 45.7989C25.1262 40.9769 21.2171 37.0679 16.3951 37.0679ZM19.8154 49.9457C19.5675 50.1506 19.2683 50.25 18.9701 50.25C18.5879 50.25 18.2088 50.0861 17.9454 49.7684C17.4782 49.2028 17.5571 48.3657 18.1227 47.8985C18.7652 47.3677 19.133 46.5859 19.133 45.7539C19.133 44.2199 17.886 42.9729 16.3521 42.9729C14.8182 42.9729 13.5712 44.2199 13.5712 45.7539C13.5712 46.5859 13.939 47.3677 14.5815 47.8985C15.1471 48.3657 15.226 49.2028 14.7588 49.7684C14.2915 50.3341 13.4544 50.413 12.8888 49.9457C11.6336 48.9088 10.9143 47.38 10.9143 45.7539C10.9143 42.7557 13.3529 40.317 16.3511 40.317C19.3492 40.317 21.7879 42.7557 21.7879 45.7539C21.7879 47.381 21.0686 48.9088 19.8134 49.9457H19.8154Z" fill="white"/>
<path d="M13.8156 63.7087C13.4856 63.7087 13.1526 63.6052 12.8688 63.3911C11.3923 62.2742 10.5459 60.5733 10.5459 58.7238C10.5459 55.4982 13.17 52.874 16.3956 52.874C19.6213 52.874 22.2454 55.4982 22.2454 58.7238C22.2454 60.5733 21.399 62.2742 19.9235 63.39C19.2319 63.9136 18.2472 63.7774 17.7236 63.0857C17.2 62.3941 17.3363 61.4094 18.0279 60.8858C18.7124 60.3683 19.1048 59.5804 19.1048 58.7238C19.1048 57.2308 17.8896 56.0156 16.3967 56.0156C14.9037 56.0156 13.6885 57.2308 13.6885 58.7238C13.6885 59.5804 14.081 60.3683 14.7654 60.8858C15.4571 61.4094 15.5933 62.3941 15.0708 63.0857C14.7623 63.4935 14.292 63.7087 13.8166 63.7087H13.8156Z" fill="white"/>
</g>
<defs>
<clipPath id="clip0_15397_208526">
<rect width="100" height="32.7889" fill="white" transform="translate(0 34)"/>
</clipPath>
</defs>
</svg>
