<svg width="100" height="100" viewBox="0 0 100 100" fill="none" xmlns="http://www.w3.org/2000/svg">
<path d="M55.5469 22.3876C54.9708 21.4315 54.1573 20.6406 53.1855 20.0915C52.2136 19.5424 51.1164 19.2539 50.0001 19.2539C48.8839 19.2539 47.7866 19.5424 46.8148 20.0915C45.8429 20.6406 45.0295 21.4315 44.4534 22.3876L35.329 38.0155C42.2997 41.4957 48.2387 46.7386 52.5565 53.2239C56.8743 59.7091 59.4207 67.2109 59.9426 74.9845H53.5362C53.0151 68.3211 50.7631 61.9092 47.0031 56.3834C43.243 50.8576 38.1052 46.4094 32.098 43.4791L23.6531 58.0808C27.0301 59.5954 29.9722 61.9347 32.2087 64.8836C34.4453 67.8325 35.9045 71.2964 36.4522 74.9568H21.7395C21.565 74.9445 21.3963 74.8889 21.2487 74.7951C21.101 74.7013 20.9791 74.5722 20.8938 74.4195C20.8085 74.2668 20.7625 74.0952 20.7601 73.9203C20.7576 73.7454 20.7988 73.5726 20.8797 73.4176L24.9566 66.4842C23.5754 65.3317 21.9968 64.4391 20.2973 63.8495L16.2621 70.7829C15.842 71.5034 15.5693 72.3003 15.4598 73.1271C15.3503 73.954 15.4062 74.7944 15.6242 75.5994C15.8422 76.4045 16.2181 77.1582 16.7299 77.8168C17.2417 78.4754 17.8793 79.0257 18.6056 79.4358C19.5625 79.975 20.6411 80.2613 21.7395 80.2678H41.888C42.2622 75.6502 41.4376 71.0143 39.4941 66.8089C37.5506 62.6036 34.554 58.9715 30.7945 56.2643L33.9978 50.7176C38.7422 53.9762 42.555 58.4156 45.0597 63.5977C47.5645 68.7799 48.6746 74.5256 48.2806 80.2678H65.3507C65.7482 71.5691 63.8558 62.9184 59.8626 55.1802C55.8694 47.442 49.9153 40.8874 42.5952 36.1712L49.071 25.0778C49.2153 24.836 49.4493 24.661 49.722 24.5909C49.9947 24.5207 50.284 24.5612 50.5271 24.7033C51.262 25.1055 78.6629 72.9184 79.176 73.473C79.2664 73.6351 79.3124 73.8182 79.3093 74.0037C79.3062 74.1893 79.2542 74.3707 79.1585 74.5298C79.0629 74.6888 78.9269 74.8197 78.7644 74.9093C78.6018 74.9989 78.4186 75.044 78.233 75.04H71.6324C71.7156 76.8057 71.7156 78.5668 71.6324 80.3233H78.2608C79.1024 80.3288 79.9369 80.1673 80.7157 79.8482C81.4946 79.529 82.2024 79.0586 82.7982 78.4641C83.394 77.8695 83.866 77.1627 84.1868 76.3846C84.5076 75.6064 84.6709 74.7723 84.6672 73.9307C84.6681 72.8189 84.3712 71.7272 83.8075 70.769L55.5469 22.3876Z" fill="#362D59"/>
</svg>
