<svg width="100" height="101" viewBox="0 0 100 101" fill="none" xmlns="http://www.w3.org/2000/svg">
<path d="M100 0H0V100H100V0Z" fill="#453DD8"/>
<path d="M56.629 26.4126C55.6955 26.4126 54.9355 27.1801 54.9355 28.1228C54.9355 29.0658 55.6955 29.8333 56.629 29.8333C57.5625 29.8333 58.3225 29.0658 58.3225 28.1228C58.3225 27.1801 57.5625 26.4126 56.629 26.4126Z" fill="white"/>
<path d="M56.629 34.2954C55.6955 34.2954 54.9355 35.0629 54.9355 36.0059C54.9355 36.9487 55.6955 37.7162 56.629 37.7162C57.5625 37.7162 58.3225 36.9487 58.3225 36.0059C58.3225 35.0629 57.5625 34.2954 56.629 34.2954Z" fill="white"/>
<path d="M56.629 42.178C55.6955 42.178 54.9355 42.9452 54.9355 43.8882C54.9355 44.8312 55.6955 45.5985 56.629 45.5985C57.5625 45.5985 58.3225 44.8312 58.3225 43.8882C58.3225 42.9452 57.5625 42.178 56.629 42.178Z" fill="white"/>
<path d="M64.5868 26.4126C63.6533 26.4126 62.8936 27.1801 62.8936 28.1228C62.8936 29.0658 63.6533 29.8333 64.5868 29.8333C65.5206 29.8333 66.2803 29.0658 66.2803 28.1228C66.2803 27.1801 65.5206 26.4126 64.5868 26.4126Z" fill="white"/>
<path d="M64.588 34.2954C63.6543 34.2954 62.8945 35.0629 62.8945 36.0059C62.8945 36.9487 63.6543 37.7162 64.588 37.7162C65.5215 37.7162 66.2813 36.9487 66.2813 36.0059C66.2813 35.0629 65.5215 34.2954 64.588 34.2954Z" fill="white"/>
<path d="M64.588 42.178C63.6543 42.178 62.8945 42.9452 62.8945 43.8882C62.8945 44.8312 63.6543 45.5985 64.588 45.5985C65.5215 45.5985 66.2813 44.8312 66.2813 43.8882C66.2813 42.9452 65.5215 42.178 64.588 42.178Z" fill="white"/>
<path d="M72.4054 26.4126C71.4719 26.4126 70.7119 27.1801 70.7119 28.1228C70.7119 29.0658 71.4719 29.8333 72.4054 29.8333C73.3389 29.8333 74.0989 29.0658 74.0989 28.1228C74.1097 27.1801 73.3499 26.4126 72.4054 26.4126Z" fill="white"/>
<path d="M72.4064 34.2954C71.4729 34.2954 70.7129 35.0629 70.7129 36.0059C70.7129 36.9487 71.4729 37.7162 72.4064 37.7162C73.3399 37.7162 74.0999 36.9487 74.0999 36.0059C74.1106 35.0629 73.3509 34.2954 72.4064 34.2954Z" fill="white"/>
<path d="M72.4064 42.178C71.4729 42.178 70.7129 42.9452 70.7129 43.8882C70.7129 44.8312 71.4729 45.5985 72.4064 45.5985C73.3399 45.5985 74.0999 44.8312 74.0999 43.8882C74.0999 42.9452 73.3509 42.178 72.4064 42.178Z" fill="white"/>
<path fill-rule="evenodd" clip-rule="evenodd" d="M25 35.9565C25 30.4807 29.4389 26.0417 34.9149 26.0417C40.3907 26.0417 44.8297 30.4807 44.8297 35.9565V63.535C44.8297 69.0107 40.3907 73.4498 34.9149 73.4498C29.4389 73.4498 25 69.0107 25 63.535V35.9565ZM27.8349 63.2243C27.9262 59.2605 31.1739 56.1202 35.0819 56.2125C38.9974 56.3048 42.0934 59.599 41.9949 63.563C41.9037 67.5267 38.6559 70.667 34.7479 70.5745C30.8399 70.4823 27.7439 67.188 27.8349 63.2243ZM32.5517 65.9638H37.2867V61.161H32.5517V65.9638ZM35.2329 29.089C39.1429 29.185 42.2412 32.478 42.1529 36.4442C42.0647 40.4102 38.8232 43.5475 34.9129 43.4515C31.0029 43.3552 27.9047 40.0622 27.9929 36.0962C28.0812 32.13 31.3227 28.9927 35.2329 29.089Z" fill="white"/>
<path fill-rule="evenodd" clip-rule="evenodd" d="M54.125 52.8752V73.9582H75V52.8752H54.125ZM70.7588 68.1692H58.3725V65.56H70.7588V68.1692ZM58.3725 61.2625H70.7588V58.6532H58.3725V61.2625Z" fill="white"/>
</svg>
