<svg width="100" height="100" viewBox="0 0 100 100" fill="none" xmlns="http://www.w3.org/2000/svg">
<g clip-path="url(#clip0_15910_61492)">
<path d="M10.084 36.1331L17.752 29.096V72.0558L10.084 65.5434V36.1331ZM87.7067 28.361L82.8747 22.3744L63.8634 37.6032H48.0025V6.30322H40.3345V45.2723H66.5933L87.7067 28.361ZM77.9376 17.8568L71.5304 13.13L62.917 20.2723V9.34858L55.2489 7.3527V31.3012H61.551L77.9376 17.8568ZM55.3551 69.6403V93.5888L63.0232 91.5929V80.7744L71.6366 87.9166L78.0438 83.1898L61.5531 69.5352L55.3551 69.6403ZM40.3345 54.5146V93.4836H48.0025V62.1826H63.8634L82.9799 77.5177L87.8118 71.5311L66.4891 54.5156L40.3345 54.5146ZM25.1046 88.0208L32.7726 81.2981V19.2228L25.1046 12.5001V88.0208ZM93.7984 42.8558L88.8613 36.8692L73.1056 49.8939L88.8613 62.9187L93.7984 56.9321L85.2902 49.895C85.2902 49.8929 93.7984 42.8558 93.7984 42.8558Z" fill="#FFC700"/>
<path d="M99.3653 49.8928C99.3653 77.5175 77.0973 99.8897 49.6828 99.8897C22.2684 99.8897 0.000370895 77.5175 0.000370895 49.8928C-0.104784 22.3732 22.1633 0 49.6828 0C77.0973 0 99.3653 22.3732 99.3653 49.8928ZM55.355 31.301H61.6571L78.0426 17.7515L71.6354 13.0247L63.022 20.167V9.34845L55.354 7.35258L55.355 31.301ZM17.7519 29.0959L10.0839 36.133V65.4381L17.7519 72.0557V29.0959ZM32.7725 19.2227L25.1045 12.5V88.1258L32.7725 81.4031V19.2227ZM77.9375 83.0845L61.5519 69.535H55.2499V93.4835L62.9179 91.4876V80.7742L71.5313 87.9165L77.9375 83.0845ZM87.7066 71.5299L66.489 54.5144H40.2292V93.4825H47.8973V62.1814H63.7581L82.8746 77.5165L87.7066 71.5299ZM88.8612 36.868L73.1055 49.8928L88.8612 62.9175L93.7983 56.9309L85.2901 49.8938L93.7983 42.8567L88.8612 36.868ZM87.7066 28.3608L82.8746 22.3742L63.8633 37.6031H48.0024V6.30309H40.3344V45.2711H66.5931L87.7066 28.3608Z" fill="black"/>
</g>
<defs>
<clipPath id="clip0_15910_61492">
<rect width="100" height="100" fill="white"/>
</clipPath>
</defs>
</svg>
