<svg width="101" height="100" viewBox="0 0 101 100" fill="none" xmlns="http://www.w3.org/2000/svg">
<g clip-path="url(#clip0_15397_208514)">
<path d="M0 0C33 0 66 0 100 0C100 33 100 66 100 100C67 100 34 100 0 100C0 67 0 34 0 0Z" fill="#ED626B"/>
<path d="M30.102 20.7254C30.4161 20.7208 30.7302 20.7161 31.0538 20.7113C31.3914 20.7128 31.7291 20.7142 32.077 20.7157C32.425 20.7139 32.7731 20.7121 33.1317 20.7102C33.8675 20.7081 34.6032 20.7091 35.339 20.7128C36.4662 20.7169 37.5927 20.7069 38.7199 20.6956C39.4345 20.6954 40.1491 20.6959 40.8637 20.6974C41.2014 20.6935 41.539 20.6896 41.8869 20.6855C42.201 20.6892 42.5151 20.6929 42.8387 20.6967C43.1147 20.697 43.3906 20.6973 43.675 20.6976C44.4115 20.8823 44.4115 20.8823 45.0897 21.4956C45.7137 22.5691 45.7301 23.2523 45.7215 24.4908C45.7217 24.7004 45.7219 24.9101 45.7221 25.126C45.7212 25.8153 45.7121 26.5041 45.7029 27.1932C45.7007 27.6725 45.699 28.1518 45.6978 28.6311C45.6933 29.8897 45.6818 31.1482 45.6688 32.4069C45.6567 33.6923 45.6514 34.9777 45.6454 36.2632C45.6328 38.7834 45.6128 41.3034 45.588 43.8235C45.7654 43.8032 45.9429 43.7829 46.1257 43.762C46.3607 43.7354 46.5958 43.7089 46.838 43.6815C47.07 43.6551 47.302 43.6288 47.5411 43.6016C53.6174 42.9695 59.1577 44.6688 64.1174 48.2353C65.1346 49.081 66.1065 49.9642 67.0586 50.8823C67.2804 51.0844 67.5022 51.2865 67.7307 51.4947C68.235 52.0588 68.235 52.0588 68.235 52.9412C68.4292 52.9412 68.6233 52.9412 68.8233 52.9412C68.9203 53.3294 69.0174 53.7176 69.1174 54.1176C69.3115 54.1176 69.5056 54.1176 69.7056 54.1176C70.0308 54.7023 70.3477 55.2915 70.6615 55.8823C70.8389 56.2099 71.0164 56.5375 71.1992 56.875C73.1047 61.1446 73.1263 65.4165 73.0943 70.0172C73.0879 71.1131 73.0943 72.2084 73.1018 73.3042C73.101 74.0027 73.0995 74.7013 73.0972 75.3998C73.0996 75.7264 73.1019 76.0529 73.1044 76.3894C73.0988 76.8435 73.0988 76.8435 73.0932 77.3067C73.0922 77.572 73.0913 77.8374 73.0903 78.1107C72.894 79.0473 72.4953 79.4031 71.7645 80C70.8941 80.2272 70.3329 80.117 69.4115 80C68.5998 79.1806 68.4184 78.5766 68.4113 77.4407C68.4054 77.0311 68.4054 77.0311 68.3994 76.6132C68.3994 76.1729 68.3994 76.1729 68.3993 75.7238C68.3935 75.2667 68.3935 75.2667 68.3876 74.8004C68.3755 73.8253 68.3692 72.8502 68.3637 71.875C68.3567 70.9061 68.3484 69.9373 68.3367 68.9685C68.3296 68.3661 68.3252 67.7638 68.3239 67.1614C68.2709 62.2324 66.6742 57.4317 63.2419 53.7959C62.6722 53.2784 62.0881 52.8118 61.4703 52.3529C61.2819 52.2032 61.0935 52.0534 60.8993 51.8991C58.4031 50.0566 54.7082 48.4948 51.5806 48.4903C51.3243 48.49 51.068 48.4896 50.804 48.4892C50.5386 48.4903 50.2732 48.4915 49.9997 48.4926C49.7344 48.4915 49.469 48.4904 49.1955 48.4892C48.8111 48.4898 48.8111 48.4898 48.4189 48.4903C48.1861 48.4907 47.9533 48.491 47.7134 48.4913C47.0661 48.529 46.5071 48.6583 45.8821 48.8235C45.8817 49.1967 45.8813 49.57 45.8808 49.9545C45.8759 53.4688 45.8634 56.9829 45.8433 60.4971C45.8332 62.3039 45.8258 64.1106 45.8246 65.9174C45.8233 67.6605 45.815 69.4034 45.8017 71.1464C45.7979 71.812 45.7966 72.4776 45.7979 73.1432C45.7994 74.0744 45.7917 75.005 45.7819 75.9361C45.7845 76.2123 45.787 76.4886 45.7896 76.7733C45.7568 78.6252 45.7568 78.6252 44.9412 79.583C44.0451 80.0366 43.5053 80.1474 42.5065 80.1475C42.1915 80.1503 41.8765 80.1531 41.5519 80.1559C41.0463 80.151 41.0463 80.151 40.5305 80.1459C40.1822 80.1463 39.8338 80.1468 39.4749 80.1472C38.7397 80.1467 38.0045 80.1433 37.2692 80.1372C36.1415 80.1287 35.0142 80.1311 33.8865 80.135C33.1722 80.1331 32.458 80.1307 31.7438 80.1275C31.4055 80.1284 31.0673 80.1292 30.7188 80.1301C30.4056 80.1264 30.0925 80.1227 29.7698 80.1188C29.4941 80.1172 29.2183 80.1156 28.9342 80.114C28.235 80 28.235 80 27.7054 79.6478C27.2274 78.9293 27.2388 78.4361 27.2339 77.5755C27.2301 77.2601 27.2264 76.9446 27.2225 76.6196C27.2234 76.2777 27.2243 75.9359 27.2252 75.5836C27.2236 75.2298 27.2221 74.8759 27.2205 74.5113C27.2186 73.7597 27.219 73.008 27.2215 72.2564C27.224 71.1196 27.2156 69.9833 27.2062 68.8465C27.1861 62.0009 28.3214 56.8023 32.7169 51.3993C33.235 50.8823 33.235 50.8823 34.1174 50.5882C34.2054 50.4119 34.2933 50.2356 34.3839 50.054C34.7969 49.2295 35.3104 48.828 36.0292 48.2537C36.2627 48.063 36.4963 47.8722 36.7369 47.6758C37.9454 46.8563 39.282 46.2412 40.588 45.5882C40.685 38.8912 40.7821 32.1941 40.8821 25.2941C37.8733 25.2941 34.8645 25.2941 31.7645 25.2941C31.7706 25.9473 31.7768 26.6004 31.7831 27.2734C31.8026 29.431 31.8156 31.5887 31.8254 33.7464C31.8316 35.0547 31.8399 36.3629 31.8532 37.6712C31.866 38.9336 31.873 40.196 31.8761 41.4585C31.8782 41.9403 31.8825 42.422 31.8888 42.9037C31.8974 43.5783 31.8986 44.2526 31.898 44.9273C31.9006 45.3114 31.9032 45.6954 31.9059 46.0911C31.7645 47.0588 31.7645 47.0588 31.2322 47.7711C30.2911 48.4492 29.6596 48.3968 28.5292 48.2353C27.8861 47.7885 27.8861 47.7885 27.3527 47.0588C27.2366 46.2177 27.1917 45.4898 27.2005 44.649C27.1984 44.4069 27.1963 44.1648 27.1942 43.9153C27.189 43.1156 27.1925 42.3162 27.1964 41.5165C27.1956 40.9605 27.1945 40.4045 27.193 39.8485C27.1913 38.6835 27.1938 37.5185 27.1993 36.3535C27.206 34.86 27.2022 33.3668 27.1951 31.8733C27.1909 30.7252 27.1922 29.5772 27.1953 28.4292C27.196 27.8785 27.1951 27.3278 27.1923 26.7771C27.1894 26.0075 27.1939 25.2382 27.2005 24.4686C27.1981 24.2409 27.1957 24.0132 27.1932 23.7786C27.209 22.7786 27.2809 22.1636 27.8521 21.3298C28.6686 20.7902 29.1277 20.7319 30.102 20.7254Z" fill="#FEFBFA"/>
<path d="M40.2938 50.8823C40.585 50.9794 40.8762 51.0764 41.1762 51.1764C41.0791 59.1353 40.9821 67.0941 40.8821 75.2941C37.9703 75.2941 35.0585 75.2941 32.0585 75.2941C32.0313 73.6046 32.008 71.9159 31.9939 70.2264C31.988 69.6533 31.98 69.0803 31.9698 68.5073C31.866 62.5642 32.9062 58.0167 37.0585 53.5294C38.0818 52.5733 39.1059 51.6288 40.2938 50.8823Z" fill="#ED626B"/>
<path d="M44.7058 48.5294C44.997 48.6265 45.2882 48.7235 45.5882 48.8235C45.5882 58.3353 45.5882 67.8471 45.5882 77.6471C45.4911 77.6471 45.3941 77.6471 45.2941 77.6471C45.2941 69.7853 45.2941 61.9235 45.2941 53.8235C44.5176 54.0177 43.7411 54.2118 42.9411 54.4118C42.9411 54.6059 42.9411 54.8 42.9411 55C42.0676 55.1456 42.0676 55.1456 41.1764 55.2941C41.1764 61.9912 41.1764 68.6882 41.1764 75.5882C38.0705 75.5882 34.9646 75.5882 31.7646 75.5882C31.7646 71.8029 31.7646 68.0177 31.7646 64.1177C31.8617 64.1177 31.9588 64.1177 32.0588 64.1177C32.0588 67.8059 32.0588 71.4941 32.0588 75.2941C34.9705 75.2941 37.8823 75.2941 40.8823 75.2941C40.8889 72.1597 40.8943 69.0253 40.8975 65.891C40.8991 64.4356 40.9012 62.9803 40.9045 61.525C40.9077 60.1215 40.9094 58.7179 40.9102 57.3143C40.9107 56.7779 40.9118 56.2415 40.9134 55.7052C40.9155 54.9558 40.9158 54.2065 40.9157 53.4572C40.9167 53.2338 40.9178 53.0104 40.9189 52.7802C40.9377 51.6468 40.9377 51.6468 40.5882 50.5882C40.7622 50.5136 40.9362 50.4389 41.1155 50.3619C42.1474 49.9125 43.1268 49.4801 44.0808 48.8787C44.3902 48.7058 44.3902 48.7058 44.7058 48.5294Z" fill="#F0D1D2"/>
<path d="M31.7648 25.2941C34.7736 25.2941 37.7825 25.2941 40.8825 25.2941C40.8825 25.3912 40.8825 25.4882 40.8825 25.5882C38.1648 25.5882 35.4472 25.5882 32.6472 25.5882C32.654 26.8883 32.6608 28.1884 32.6679 29.5278C32.6716 30.5725 32.6748 31.6173 32.6776 32.662C32.6807 33.7603 32.6848 34.8586 32.6915 35.957C32.698 37.0173 32.7015 38.0776 32.703 39.1379C32.7041 39.54 32.7062 39.942 32.7094 40.344C32.7278 42.7499 32.596 45.0035 32.0589 47.353C31.8648 47.2559 31.6707 47.1588 31.4707 47.0588C31.5678 39.8765 31.6648 32.6941 31.7648 25.2941Z" fill="#E68086"/>
<path d="M29.7663 20.5548C30.0783 20.5549 30.3903 20.5549 30.7118 20.5549C31.0482 20.5564 31.3847 20.558 31.7313 20.5595C32.2484 20.5601 32.2484 20.5601 32.776 20.5608C33.8788 20.5624 34.9816 20.5661 36.0844 20.5699C36.8314 20.5713 37.5784 20.5727 38.3254 20.5739C40.1581 20.5771 41.9907 20.582 43.8234 20.5882C43.8234 20.6853 43.8234 20.7824 43.8234 20.8824C43.5389 20.8849 43.5389 20.8849 43.2487 20.8876C41.2782 20.9064 39.3079 20.9312 37.3375 20.9595C36.6018 20.9693 35.866 20.9776 35.1302 20.9842C34.0737 20.9941 33.0175 21.0095 31.9611 21.026C31.4661 21.0288 31.4661 21.0288 30.9611 21.0317C30.655 21.0375 30.3488 21.0433 30.0334 21.0493C29.7637 21.0526 29.4939 21.0558 29.216 21.0592C28.5307 21.1361 28.5307 21.1361 28.0021 21.4759C27.4336 22.409 27.5178 23.3927 27.5198 24.4539C27.5168 24.6979 27.5138 24.9419 27.5107 25.1932C27.5018 26.0001 27.4991 26.8068 27.4964 27.6137C27.4915 28.173 27.4862 28.7322 27.4804 29.2915C27.4665 30.7638 27.4577 32.2361 27.45 33.7085C27.4413 35.2107 27.4276 36.713 27.4143 38.2152C27.389 41.163 27.3692 44.1109 27.3528 47.0588C27.1587 47.0588 26.9646 47.0588 26.7646 47.0588C26.751 43.7761 26.7405 40.4934 26.7341 37.2107C26.731 35.6865 26.7269 34.1623 26.7202 32.6381C26.7138 31.1678 26.7103 29.6975 26.7088 28.2271C26.7077 27.6655 26.7056 27.104 26.7024 26.5424C26.6981 25.7572 26.6975 24.972 26.6978 24.1868C26.6957 23.9535 26.6936 23.7201 26.6914 23.4797C26.6956 22.3568 26.7145 21.8399 27.3528 20.8824C28.2436 20.5854 28.8352 20.5526 29.7663 20.5548Z" fill="#E2888F"/>
<path d="M40.294 50.8823C40.5852 50.9794 40.8764 51.0764 41.1764 51.1764C41.0793 59.1353 40.9822 67.0941 40.8822 75.2941C37.9705 75.2941 35.0587 75.2941 32.0587 75.2941C32.052 73.5618 32.0461 71.8295 32.0426 70.0971C32.0411 69.508 32.0391 68.9189 32.0365 68.3298C32.033 67.4822 32.0313 66.6346 32.03 65.787C32.0285 65.5243 32.027 65.2617 32.0254 64.9912C32.0253 63.7786 32.0447 62.653 32.3528 61.4706C32.4499 61.4706 32.5469 61.4706 32.6469 61.4706C32.6835 65.9937 32.6055 70.4833 32.3528 75C34.9734 75 37.594 75 40.294 75C40.3911 67.4294 40.4881 59.8588 40.5881 52.0588C40.1999 52.35 39.8117 52.6411 39.4117 52.9411C38.5406 53.3448 38.0255 53.5294 37.0587 53.5294C37.5764 53.0785 38.098 52.632 38.6212 52.1875C38.9113 51.9384 39.2013 51.6893 39.5001 51.4326C39.7621 51.251 40.0241 51.0694 40.294 50.8823Z" fill="#DB6876"/>
<path d="M45.5879 22.353C45.8791 22.4986 45.8791 22.4986 46.1761 22.6471C46.1761 29.3441 46.1761 36.0412 46.1761 42.9412C50.2526 43.0868 50.2526 43.0868 54.4114 43.2353C54.7026 43.5265 54.9938 43.8177 55.2938 44.1177C54.2747 43.9721 54.2747 43.9721 53.2349 43.8236C50.7114 43.8236 48.1879 43.8236 45.5879 43.8236C45.5879 36.7383 45.5879 29.653 45.5879 22.353Z" fill="#D76373"/>
<path d="M45.8825 48.5294C46.4891 48.6581 46.4891 48.6581 47.0589 48.8235C46.9158 48.9441 46.7726 49.0647 46.6251 49.189C46.0784 49.8191 46.0645 50.0946 46.0593 50.9174C46.0556 51.1636 46.0519 51.4098 46.0481 51.6635C46.0486 51.9326 46.049 52.2017 46.0494 52.479C46.0464 52.7631 46.0434 53.0472 46.0403 53.34C46.0314 54.2805 46.0287 55.221 46.0261 56.1615C46.0211 56.8131 46.0158 57.4647 46.0101 58.1162C45.9961 59.8322 45.9873 61.5483 45.9797 63.2643C45.9709 65.015 45.9572 66.7656 45.9439 68.5162C45.9186 71.952 45.8988 75.3877 45.8825 78.8235C45.7854 78.8235 45.6884 78.8235 45.5884 78.8235C45.5816 74.9171 45.5763 71.0107 45.5731 67.1042C45.5716 65.2905 45.5695 63.4768 45.5662 61.6631C45.563 59.9144 45.5612 58.1656 45.5604 56.4169C45.5599 55.7481 45.5588 55.0793 45.5573 54.4105C45.5551 53.4773 45.5548 52.5441 45.555 51.6108C45.5539 51.3314 45.5528 51.0519 45.5518 50.764C45.5548 48.8571 45.5548 48.8571 45.8825 48.5294Z" fill="#CF6977"/>
<path d="M28.5289 20.8823C28.723 20.9794 28.9171 21.0764 29.1171 21.1764C28.9263 21.3233 28.7355 21.4701 28.5389 21.6213C27.7378 22.601 27.7718 23.4348 27.7801 24.6464C27.7771 24.8761 27.774 25.1057 27.7709 25.3424C27.7622 26.0999 27.7618 26.8573 27.7614 27.6149C27.757 28.1407 27.7521 28.6666 27.7467 29.1924C27.7338 30.5753 27.728 31.9581 27.7235 33.341C27.7178 34.7527 27.7054 36.1642 27.6937 37.5758C27.6715 40.3446 27.6567 43.1134 27.6465 45.8823C27.8407 45.8823 28.0348 45.8823 28.2348 45.8823C28.1377 46.3676 28.0407 46.8529 27.9407 47.3529C27.7465 47.2559 27.5524 47.1588 27.3524 47.0588C27.3252 43.8195 27.3043 40.5803 27.2915 37.341C27.2853 35.8368 27.277 34.3328 27.2637 32.8287C27.2509 31.3774 27.2439 29.9263 27.2408 28.475C27.2386 27.921 27.2344 27.367 27.228 26.8131C27.2195 26.0377 27.2183 25.2627 27.2189 24.4873C27.2146 24.2577 27.2104 24.0282 27.2061 23.7917C27.2143 22.7158 27.2627 22.17 27.949 21.3188C28.1404 21.1747 28.3317 21.0307 28.5289 20.8823Z" fill="#FEF3EC"/>
<path d="M40.2939 50.8823C40.5851 50.9794 40.8762 51.0764 41.1762 51.1764C41.0792 55.1559 40.9821 59.1353 40.8821 63.2353C40.7851 63.2353 40.688 63.2353 40.588 63.2353C40.588 59.547 40.588 55.8588 40.588 52.0588C40.1998 52.35 39.8115 52.6411 39.4115 52.9411C38.5404 53.3448 38.0254 53.5294 37.0586 53.5294C37.5763 53.0785 38.0979 52.632 38.6211 52.1875C38.9111 51.9384 39.2012 51.6893 39.5 51.4326C39.762 51.251 40.024 51.0694 40.2939 50.8823Z" fill="#D36873"/>
<path d="M72.6473 62.9412C72.7444 62.9412 72.8415 62.9412 72.9415 62.9412C72.9713 65.1815 72.9919 67.4217 73.0061 69.6622C73.012 70.4245 73.02 71.1868 73.0302 71.9491C73.0445 73.0442 73.0512 74.1392 73.0564 75.2344C73.0624 75.5757 73.0685 75.917 73.0748 76.2687C73.0748 76.5866 73.0749 76.9045 73.075 77.232C73.0776 77.5115 73.0802 77.7911 73.0829 78.0791C72.9016 79.0331 72.4947 79.385 71.765 80C71.5709 79.9029 71.3768 79.8059 71.1768 79.7059C71.3676 79.544 71.5584 79.3822 71.755 79.2154C72.4737 78.3912 72.5035 78.0418 72.5138 76.9649C72.5196 76.6529 72.5254 76.3409 72.5314 76.0194C72.5317 75.6845 72.5321 75.3496 72.5325 75.0046C72.5373 74.6602 72.5422 74.3159 72.5472 73.9611C72.5615 72.8613 72.5677 71.7616 72.5738 70.6617C72.5821 69.9161 72.5909 69.1705 72.6002 68.4248C72.622 66.597 72.6372 64.7691 72.6473 62.9412Z" fill="#FDEDEA"/>
<path d="M44.7062 20.2942C44.9084 20.9008 44.9084 20.9008 45.0003 21.4706C44.7542 21.3279 44.7542 21.3279 44.5031 21.1824C43.7373 20.8441 43.2018 20.8015 42.3674 20.7886C42.0789 20.7828 41.7905 20.7769 41.4933 20.7709C41.1841 20.7675 40.8749 20.7641 40.5564 20.7606C40.2382 20.7549 39.92 20.7492 39.5921 20.7433C38.5763 20.7258 37.5604 20.7121 36.5445 20.6986C35.8555 20.6873 35.1665 20.6758 34.4776 20.6641C32.7891 20.6359 31.1007 20.6108 29.4121 20.5883C29.4121 20.4912 29.4121 20.3942 29.4121 20.2942C31.4484 20.2447 33.4847 20.1977 35.521 20.1523C36.214 20.1366 36.907 20.1203 37.5999 20.1035C38.595 20.0794 39.59 20.0573 40.5851 20.0356C41.0512 20.0237 41.0512 20.0237 41.5266 20.0116C41.8151 20.0056 42.1035 19.9997 42.4007 19.9936C42.6548 19.9878 42.9089 19.9819 43.1706 19.9758C43.8239 20 43.8239 20 44.7062 20.2942Z" fill="#DD646F"/>
<path d="M45.8828 42.353C45.9799 42.5471 46.0769 42.7412 46.1769 42.9412C46.5442 42.9476 46.5442 42.9476 46.9189 42.9542C47.8284 42.9722 48.7376 42.994 49.647 43.0184C50.2337 43.033 50.8205 43.0431 51.4073 43.0532C51.776 43.0636 52.1447 43.0741 52.5246 43.0848C52.865 43.0925 53.2054 43.1002 53.5561 43.1082C54.4727 43.2443 54.7491 43.389 55.2946 44.1177C54.8982 44.0454 54.8982 44.0454 54.4938 43.9718C52.8624 43.7387 51.2218 43.7925 49.5777 43.8052C49.2503 43.8065 48.9229 43.8078 48.5856 43.8092C47.7827 43.8126 46.9798 43.8175 46.1769 43.8236C46.0799 43.3383 45.9828 42.853 45.8828 42.353Z" fill="#E06F7A"/>
<path d="M47.0586 48.2353C47.9899 48.218 48.9212 48.2077 49.8527 48.1986C50.1136 48.1936 50.3744 48.1887 50.6432 48.1836C52.3007 48.1714 53.7036 48.3517 55.2939 48.8236C55.0998 49.0177 54.9057 49.2118 54.7057 49.4118C54.0692 49.4049 54.0692 49.4049 53.3454 49.3015C53.105 49.2689 52.8646 49.2363 52.617 49.2027C52.4327 49.1746 52.2484 49.1466 52.0586 49.1177C52.0586 48.9236 52.0586 48.7294 52.0586 48.5294C50.4086 48.5294 48.7586 48.5294 47.0586 48.5294C47.0586 48.4324 47.0586 48.3353 47.0586 48.2353Z" fill="#EB7E8B"/>
<path d="M48.2354 43.5294C49.0504 43.5136 49.8651 43.5019 50.6802 43.4927C50.9113 43.4877 51.1424 43.4828 51.3805 43.4777C51.6032 43.4758 51.8259 43.4739 52.0554 43.472C52.2603 43.4689 52.4651 43.4658 52.6762 43.4626C53.2354 43.5294 53.2354 43.5294 54.1177 44.1177C52.0256 44.6248 50.271 44.395 48.2354 43.8235C48.2354 43.7265 48.2354 43.6294 48.2354 43.5294Z" fill="#FCD4D5"/>
<path d="M34.4122 56.7647C34.7465 57.2679 34.7465 57.2679 35.0004 57.9412C34.7672 58.6144 34.7672 58.6144 34.357 59.3015C34.2255 59.5297 34.0939 59.758 33.9584 59.9931C33.5298 60.5882 33.5298 60.5882 32.6475 61.1765C33.1297 59.6374 33.6444 58.1906 34.4122 56.7647Z" fill="#EA7B8D"/>
<path d="M40.2939 50.8823C40.5851 50.9794 40.8762 51.0764 41.1762 51.1764C40.8821 52.0588 40.8821 52.0588 39.9998 52.647C38.0993 53.5294 38.0993 53.5294 37.0586 53.5294C37.5763 53.0785 38.0979 52.632 38.6211 52.1875C38.9111 51.9384 39.2012 51.6893 39.5 51.4326C39.762 51.251 40.024 51.0694 40.2939 50.8823Z" fill="#DA7B88"/>
<path d="M55.5879 49.1177C56.1035 49.2928 56.618 49.4711 57.132 49.6508C57.4186 49.7497 57.7053 49.8487 58.0006 49.9506C58.7819 50.2769 59.3517 50.6381 59.9997 51.1765C59.4173 51.4677 59.4173 51.4677 58.8232 51.7647C58.7261 51.4736 58.6291 51.1824 58.5291 50.8824C57.9779 50.6465 57.9779 50.6465 57.3342 50.5331C57.1185 50.4865 56.9028 50.4398 56.6805 50.3918C56.5141 50.3596 56.3476 50.3273 56.1761 50.2941C56.1761 50.1 56.1761 49.9059 56.1761 49.7059C55.982 49.7059 55.7879 49.7059 55.5879 49.7059C55.5879 49.5118 55.5879 49.3177 55.5879 49.1177Z" fill="#E66E7D"/>
<path d="M34.7059 48.2353C35.1912 48.2353 35.6765 48.2353 36.1765 48.2353C35.2942 49.1176 34.4118 50 33.5295 50.8823C33.4324 50.5912 33.3354 50.3 33.2354 50C33.5265 49.9029 33.8177 49.8059 34.1177 49.7059C34.4761 48.9693 34.4761 48.9693 34.7059 48.2353Z" fill="#EA717A"/>
<path d="M29.9997 54.1177C30.1938 54.1177 30.3879 54.1177 30.5879 54.1177C30.1492 55.5801 29.5278 56.8878 28.8232 58.2353C28.4692 57.1732 28.6139 56.9879 29.0806 56.0111C29.189 55.7802 29.2974 55.5493 29.4092 55.3114C29.6044 54.9127 29.8012 54.5147 29.9997 54.1177Z" fill="#E26D7C"/>
<path d="M44.7058 48.5294C44.8999 48.6265 45.094 48.7235 45.294 48.8235C45.294 50.4735 45.294 52.1235 45.294 53.8235C45.0999 53.7265 44.9058 53.6294 44.7058 53.5294C44.8028 52.1706 44.8999 50.8118 44.9999 49.4118C44.5146 49.4118 44.0293 49.4118 43.5293 49.4118C43.9175 49.1206 44.3058 48.8294 44.7058 48.5294Z" fill="#F6EDE8"/>
<path d="M34.7061 49.4117C34.9002 49.8 35.0943 50.1882 35.2943 50.5882C34.7796 51.1948 34.7796 51.1948 34.1179 51.7647C33.4561 51.6912 33.4561 51.6912 32.9414 51.4706C33.1355 51.1794 33.3296 50.8882 33.5296 50.5882C33.7238 50.5882 33.9179 50.5882 34.1179 50.5882C34.312 50.2 34.5061 49.8117 34.7061 49.4117Z" fill="#FCEFEA"/>
<path d="M72.0585 60.2941C72.7321 61.3045 72.6993 61.7604 72.6468 62.9412C72.4527 62.9412 72.2585 62.9412 72.0585 62.9412C71.9615 63.2324 71.8644 63.5235 71.7644 63.8235C71.7404 62.5996 71.7696 61.4861 72.0585 60.2941Z" fill="#FCE5E6"/>
<path d="M32.6475 51.4706C32.8578 51.9899 32.8578 51.9899 32.9416 52.6471C32.52 53.2123 32.52 53.2123 31.9306 53.75C31.64 54.0207 31.64 54.0207 31.3435 54.2969C31.1155 54.4993 31.1155 54.4993 30.8828 54.7059C30.8828 53.6454 31.1231 53.4078 31.7652 52.5919C31.929 52.3815 32.0927 52.1711 32.2615 51.9543C32.3889 51.7947 32.5163 51.635 32.6475 51.4706Z" fill="#FDE0E2"/>
<path d="M27.3525 47.353C27.5709 47.4986 27.5709 47.4986 27.7937 47.6471C28.8499 48.0695 29.748 47.979 30.882 47.9412C30.882 48.1353 30.882 48.3294 30.882 48.5294C30.404 48.5374 29.9261 48.5431 29.4481 48.5478C29.0489 48.5529 29.0489 48.5529 28.6416 48.5582C27.9408 48.5294 27.9408 48.5294 27.3525 48.2353C27.3525 47.9441 27.3525 47.653 27.3525 47.353Z" fill="#D86F79"/>
<path d="M36.7647 53.8235C36.8618 54.2118 36.9588 54.6 37.0588 55C36.3419 55.8088 36.3419 55.8088 35.5882 56.4706C35.3941 56.3735 35.2 56.2765 35 56.1765C35.5824 55.4 36.1647 54.6235 36.7647 53.8235Z" fill="#E2768A"/>
<path d="M57.3528 43.8235C57.3528 44.0177 57.3528 44.2118 57.3528 44.4118C57.6439 44.4118 57.9351 44.4118 58.2351 44.4118C58.2351 44.6059 58.2351 44.8 58.2351 45C57.2645 44.8059 56.2939 44.6118 55.2939 44.4118C56.4704 43.8235 56.4704 43.8235 57.3528 43.8235Z" fill="#EB7886"/>
<path d="M63.5293 54.1177C64.9631 55.478 64.9631 55.478 65.294 56.4706C65.0028 56.3736 64.7116 56.2765 64.4116 56.1765C64.4116 55.9824 64.4116 55.7883 64.4116 55.5883C64.1205 55.4912 63.8293 55.3941 63.5293 55.2941C63.5293 54.9059 63.5293 54.5177 63.5293 54.1177Z" fill="#DC797D"/>
</g>
<defs>
<clipPath id="clip0_15397_208514">
<rect width="100" height="100" fill="white"/>
</clipPath>
</defs>
</svg>
