<svg width="100" height="100" viewBox="0 0 100 100" fill="none" xmlns="http://www.w3.org/2000/svg">
<g clip-path="url(#clip0_15397_208539)">
<mask id="mask0_15397_208539" style="mask-type:luminance" maskUnits="userSpaceOnUse" x="0" y="41" width="100" height="19">
<path d="M99.7549 41.0757H0.245117V59.2129H99.7549V41.0757Z" fill="white"/>
</mask>
<g mask="url(#mask0_15397_208539)">
<path d="M28.0781 44.1498C28.0781 43.0865 28.6172 42.625 29.5768 42.625C30.5601 42.625 31.0992 43.0865 31.0992 44.1498C31.0992 45.0494 30.5601 45.6044 29.5768 45.6044C28.616 45.6044 28.0781 45.0494 28.0781 44.1498ZM30.8421 56.4648C30.8421 57.1577 30.2794 57.7127 29.5768 57.7127C28.8743 57.7127 28.3115 57.1577 28.3115 56.4648V48.1001C28.3115 47.4073 28.8743 46.8523 29.5768 46.8523C30.2794 46.8523 30.8421 47.4073 30.8421 48.1001V56.4648Z" fill="#FEC400"/>
<path d="M42.6498 50.7349V56.5115C42.6498 57.2044 42.087 57.7126 41.3845 57.7126C40.6357 57.7126 40.1192 57.2044 40.1192 56.5115V51.1951C40.1192 49.8784 39.5801 48.9775 38.0577 48.9775C36.3008 48.9775 35.7142 49.9941 35.7142 51.3576V56.5103C35.7142 57.2032 35.1752 57.7114 34.4489 57.7114C33.7227 57.7114 33.1836 57.2032 33.1836 56.5103V48.1001C33.1836 47.4072 33.7464 46.8522 34.4489 46.8522C35.1515 46.8522 35.7142 47.4072 35.7142 48.1001C36.1597 47.4306 37.1431 46.7144 38.7129 46.7144C41.8998 46.7131 42.6498 48.7228 42.6498 50.7349Z" fill="#FEC400"/>
<path d="M45.6922 45.0958C45.6922 44.4263 46.2549 43.8726 46.9338 43.8726C47.6126 43.8726 48.1753 44.4263 48.1753 45.0958V47.0378H49.2298C49.8151 47.0378 50.2842 47.5005 50.2842 48.0777C50.2842 48.6548 49.8165 49.1176 49.2298 49.1176H48.1753V54.7084C48.1753 55.24 48.6433 55.5403 49.0665 55.5403C49.6753 55.5403 50.167 56.0264 50.167 56.6257C50.167 57.2275 49.6753 57.7124 49.0665 57.7124C46.9812 57.7124 45.6922 56.3944 45.6922 54.5693V49.1164H45.1531C44.5678 49.1164 44.0986 48.6536 44.0986 48.0765C44.0986 47.4993 44.5678 47.0366 45.1531 47.0366H45.6922V45.0958Z" fill="#FEC400"/>
<path d="M54.5704 48.2161C55.015 47.3152 56.1165 46.7368 57.1013 46.7368C57.7562 46.7368 58.2954 47.2685 58.2954 47.9158C58.2954 48.5619 57.7562 49.0935 57.1013 49.0935C55.4842 49.0935 54.5704 50.1113 54.5704 51.6582V56.4638C54.5704 57.1567 54.0077 57.7117 53.3052 57.7117C52.6028 57.7117 52.04 57.1567 52.04 56.4638V48.1004C52.04 47.4076 52.6028 46.8525 53.3052 46.8525C54.0077 46.8525 54.5704 47.4076 54.5704 48.1004V48.2161Z" fill="#FEC400"/>
<path d="M61.9254 48.0999V53.484C61.9254 54.5472 62.3009 55.5638 64.0342 55.5638C65.744 55.5638 66.1195 54.5472 66.1195 53.484V48.0999C66.1195 47.4071 66.6823 46.8521 67.3847 46.8521C68.0886 46.8521 68.6504 47.4071 68.6504 48.0999V53.484C68.6504 55.7484 67.7828 57.8282 64.0357 57.8282C60.2631 57.8282 59.3975 55.7496 59.3975 53.484V48.0999C59.3975 47.4071 59.9587 46.8521 60.6612 46.8521C61.3641 46.8521 61.9254 47.4071 61.9254 48.0999Z" fill="#FEC400"/>
<path d="M77.7142 47.6387V42.3236C77.7142 41.6307 78.2769 41.0757 78.9794 41.0757C79.6818 41.0757 80.2446 41.6307 80.2446 42.3236V53.2062C80.2446 56.2803 78.2294 57.8273 75.3956 57.8273C72.2323 57.8273 70.3818 56.0477 70.3818 52.282C70.3818 48.515 72.1862 46.7133 75.1372 46.7133C76.2617 46.7133 77.2451 47.176 77.7142 47.6387ZM77.7142 50.0188C77.7142 50.0188 76.7995 48.8399 75.3946 48.8399C73.801 48.8399 72.8872 49.9954 72.8872 52.282C72.8872 54.5463 73.7769 55.7019 75.3946 55.7019C76.7534 55.7019 77.7142 54.7999 77.7142 53.2062V50.0188Z" fill="#FEC400"/>
<path d="M87.0579 46.7134C91.0177 46.7134 91.7436 49.7173 91.7436 51.3123C91.7436 52.1676 91.7436 53.1595 90.3147 53.1595H84.5284C84.5284 54.8233 85.724 55.5863 87.2701 55.5863C88.301 55.5863 89.027 55.2405 89.5887 54.8701C89.8471 54.7089 90.0353 54.6166 90.3387 54.6166C90.949 54.6166 91.4407 55.1015 91.4407 55.7032C91.4407 56.0724 91.2534 56.3727 91.0427 56.5585C90.6431 56.9277 89.4029 57.8286 87.2701 57.8286C84.0132 57.8286 81.999 56.0958 81.999 52.2365C81.998 48.7009 83.8721 46.7134 87.0579 46.7134ZM84.5985 51.0809H89.2382C89.2382 49.9487 88.5828 48.8399 87.0593 48.8399C85.699 48.8399 84.7157 49.6029 84.5985 51.0809Z" fill="#FEC400"/>
<path d="M96.0299 48.2161C96.4745 47.3152 97.575 46.7368 98.5593 46.7368C99.2147 46.7368 99.7549 47.2685 99.7549 47.9158C99.7549 48.5619 99.2147 49.0935 98.5593 49.0935C96.9422 49.0935 96.0299 50.1113 96.0299 51.6582V56.4638C96.0299 57.1567 95.4672 57.7117 94.7637 57.7117C94.0608 57.7117 93.498 57.1567 93.498 56.4638V48.1004C93.498 47.4076 94.0608 46.8525 94.7637 46.8525C95.4672 46.8525 96.0299 47.4076 96.0299 48.1004V48.2161Z" fill="#FEC400"/>
<path fill-rule="evenodd" clip-rule="evenodd" d="M4.46461 41.0757V42.4709H3.05811V43.866H1.65162V48.0516H3.05811V53.6323H1.65162V56.4226H0.245117V57.8177H1.65162V59.2129H3.05811V57.8177H1.65162V56.4226H4.46461V57.8177H5.87109V55.0274H4.46461V53.6323H7.27761V55.0274H8.68413V56.4226H10.0906V55.0274H11.4971V56.4226H12.9036V55.0274H11.4971V53.6323H15.7166V55.0274H14.3101V57.8177H15.7166V56.4226H18.5296V57.8177H17.1231V59.2129H18.5296V57.8177H19.9361V56.4226H18.5296V53.6323H17.1231V48.0516H18.5296V43.866H17.1231V42.4709H15.7166V41.0757H12.9036V42.4709H15.7166V45.2612H14.3101V43.866H5.87109V45.2612H4.46461V42.4709H7.27761V41.0757H4.46461ZM10.0906 55.0274H8.68413V53.6323H10.0906V55.0274ZM8.68413 48.0516H7.27761V46.6564H8.68413V48.0516ZM7.27761 48.0516V49.4467H8.68413V50.8419H5.87109V48.0516H7.27761ZM12.9036 48.0516H11.4971V46.6564H12.9036V48.0516ZM12.9036 48.0516H14.3101V50.8419H11.4971V49.4467H12.9036V48.0516Z" fill="#FEC400"/>
</g>
</g>
<defs>
<clipPath id="clip0_15397_208539">
<rect width="100" height="18.6275" fill="white" transform="translate(0 41)"/>
</clipPath>
</defs>
</svg>
