<svg width="100" height="100" viewBox="0 0 100 100" fill="none" xmlns="http://www.w3.org/2000/svg">
<g clip-path="url(#clip0_15910_61473)">
<g clip-path="url(#clip1_15910_61473)">
<mask id="mask0_15910_61473" style="mask-type:luminance" maskUnits="userSpaceOnUse" x="0" y="3" width="350" height="94">
<path d="M350 3H0V96.75H350V3Z" fill="white"/>
</mask>
<g mask="url(#mask0_15910_61473)">
<mask id="mask1_15910_61473" style="mask-type:luminance" maskUnits="userSpaceOnUse" x="0" y="3" width="350" height="94">
<path d="M350 3H0V96.75H350V3Z" fill="white"/>
</mask>
<g mask="url(#mask1_15910_61473)">
<path d="M50 76.4544C21.9688 76.4544 0 64.7826 0 49.8919C0 35.0013 21.9688 23.3293 50 23.3293C78.0312 23.3293 100 35.0013 100 49.8919C100 64.7826 78.0312 76.4544 50 76.4544ZM50 31.1418C30.0469 31.1418 7.8125 38.8451 7.8125 49.8919C7.8125 60.9388 30.0469 68.6419 50 68.6419C69.9531 68.6419 92.1875 60.9388 92.1875 49.8919C92.1875 38.8451 69.9531 31.1418 50 31.1418Z" fill="#4EC375"/>
<path d="M66.9212 95.2656C54.39 95.2656 38.3587 82.8749 26.9838 63.1718C20.5306 51.9999 16.6088 40.2031 15.9213 29.9375C15.1713 18.6875 18.39 10.4062 24.9838 6.59372C31.5775 2.78122 40.3744 4.1406 49.7337 10.4062C58.2806 16.1406 66.5306 25.4375 72.9837 36.6093C86.9994 60.8906 87.8743 85.7499 74.9837 93.1874C72.5462 94.5937 69.8275 95.2656 66.9056 95.2656H66.9212ZM33.2025 12.2968C31.5775 12.2968 30.1244 12.6406 28.9056 13.3593C25.0775 15.5625 23.1869 21.4218 23.7181 29.4218C24.3275 38.5156 27.89 49.1249 33.7494 59.2812C43.7181 76.5624 61.515 91.9687 71.0775 86.4374C80.64 80.9062 76.2025 57.8124 66.2181 40.5312C60.3587 30.375 52.9525 21.9843 45.39 16.9218C40.8587 13.8906 36.64 12.3281 33.1869 12.3281L33.2025 12.2968Z" fill="#1463FF"/>
<path d="M33.1866 95.3131C30.2023 95.3131 27.4523 94.61 24.9991 93.1881C18.4054 89.3756 15.171 81.0944 15.9366 69.8444C16.6241 59.5788 20.546 47.7819 26.9992 36.61C41.0148 12.3288 62.1085 -0.858745 74.9991 6.57876C87.8898 14.0319 87.0148 38.8756 72.9991 63.1569C66.546 74.3288 58.296 83.6256 49.7491 89.36C43.8741 93.2975 38.2179 95.2975 33.1866 95.2975V95.3131ZM66.5929 12.2038C56.6554 12.2038 42.3273 25.6569 33.7491 40.5006C27.8898 50.6569 24.3273 61.2506 23.7179 70.36C23.1866 78.36 25.0773 84.2038 28.9054 86.4225C32.7335 88.6256 38.7335 87.3444 45.4054 82.8756C52.9835 77.7975 60.3741 69.4069 66.2335 59.2663C76.2023 41.985 80.6554 18.8756 71.0929 13.36C69.7491 12.5788 68.2335 12.2194 66.5929 12.2194V12.2038Z" fill="#FFBC00"/>
<path d="M50 68.6418C30.0469 68.6418 7.8125 60.9387 7.8125 49.8918H0C0 64.7825 21.9688 76.4543 50 76.4543V68.6418Z" fill="#4EC375"/>
<path d="M51.7949 21.9993C49.7012 20.0618 47.5605 18.343 45.4043 16.8899C43.2793 15.468 41.2168 14.3586 39.2793 13.593L41.873 6.21802C44.4355 7.20239 47.0762 8.59302 49.7637 10.4055C52.5918 12.3118 55.4043 14.593 58.123 17.218L51.8105 21.9993H51.7949Z" fill="#1463FF"/>
<path d="M58.0625 85.0168C54.6875 83.2043 51.1719 80.5012 47.7656 77.2356L41.7812 82.4387C45.2812 85.8293 48.875 88.6106 52.4375 90.7043L58.0781 85.0168H58.0625Z" fill="#1463FF"/>
<path d="M86 40.3281C78 34.6406 63.4844 31.125 50 31.125V23.3125C65.7031 23.3125 79.5 26.9688 88.6094 32.8125L86 40.3281Z" fill="#4EC375"/>
</g>
</g>
</g>
</g>
<defs>
<clipPath id="clip0_15910_61473">
<rect width="100" height="93.75" fill="white" transform="translate(0 3)"/>
</clipPath>
<clipPath id="clip1_15910_61473">
<rect width="100" height="94" fill="white" transform="translate(0 3)"/>
</clipPath>
</defs>
</svg>
