<svg width="100" height="100" viewBox="0 0 100 100" fill="none" xmlns="http://www.w3.org/2000/svg">
<g clip-path="url(#clip0_15397_208493)">
<path d="M0.000781249 35.5782C0.183594 35.3048 0.457031 35.122 0.730469 34.9407C4.28516 32.4798 8.02266 30.2001 11.8523 28.1032C16.4102 25.6423 21.1492 23.4548 26.0711 21.6313C30.3555 19.9907 34.7305 18.7142 39.1961 17.6204L44.3914 16.5267L49.2227 15.7063C50.1336 15.5235 51.1367 15.6157 52.0352 15.4329C53.2195 15.1595 54.4055 15.3423 55.5898 15.0688H55.7727L63.5227 14.7954C63.6501 14.7913 63.7761 14.8227 63.8867 14.886L61.3336 17.2563L58.6898 19.6267C57.8695 20.447 56.9586 21.0845 56.1367 22.0876C56.5008 22.0876 56.7742 22.1782 57.0477 22.0876C57.5039 21.997 57.868 21.997 58.3242 21.997C59.9648 21.997 61.6992 21.8142 63.3242 21.5407L66.1367 21.2673L70.4211 20.6298L74.7961 19.9001L82.9211 17.9688C84.8069 17.4267 86.6635 16.7878 88.4836 16.0548C90.8539 15.0517 93.132 13.9579 95.1398 12.3173C95.9602 11.6798 96.7805 11.0407 97.4211 10.2204C97.6039 10.0376 97.6945 9.76416 97.968 9.76416C98.0586 10.0376 97.968 10.311 97.8773 10.5845C96.5102 14.686 94.8695 18.6063 92.3148 22.147C90.4896 24.7165 88.3793 27.0711 86.0242 29.1657C81.6492 32.9938 76.818 35.822 71.6211 38.2813C68.5211 39.7392 65.4227 41.0157 62.3242 42.2923C58.418 43.8423 54.393 45.3923 50.293 46.5767C47.5814 47.3908 44.8452 48.1203 42.0883 48.7642C39.6273 49.4017 37.1664 49.9485 34.7039 50.7689H34.6133C33.6102 51.0423 33.7023 51.0423 32.882 50.4048C29.9648 47.8517 26.7883 45.5735 23.4023 43.6595C19.8477 41.5626 16.0945 39.922 12.1883 38.5548C9.81797 37.7345 7.35703 37.097 4.80391 36.6407C3.25391 36.3673 1.70391 36.0938 0.155469 35.911C0.338281 35.8204 0.155469 35.7282 -0.0273438 35.547L0.000781249 35.5782ZM100.001 46.047C99.7273 46.3204 99.5445 46.411 99.2711 46.411C95.8961 46.9579 92.7086 48.0517 89.518 49.1454L80.768 52.7001L75.768 54.9813L62.1852 61.7267L51.7164 67.2892L48.9039 68.8392C48.5398 69.022 48.2664 69.2032 47.8102 69.386C47.6273 68.9298 47.3539 68.5657 47.1727 68.2017C46.9914 67.8376 46.7164 67.472 46.5352 67.1079C44.8945 64.1001 42.9805 61.2735 40.8836 58.5392L37.7352 54.9063C37.5918 54.7732 37.4691 54.6194 37.3711 54.4501C37.2805 54.2673 37.3711 54.1767 37.4617 54.086C37.6445 53.9954 37.8258 53.9032 38.0086 53.9032L47.8523 51.1688L57.5148 49.072L62.2555 48.3423L67.907 47.522L70.7195 47.2485C71.8133 47.0657 72.907 47.1579 74.0008 46.8845H74.1836L78.3773 46.611L83.5727 46.247H99.3758C99.6492 46.0642 99.832 46.0642 100.013 46.0642L100.001 46.047ZM82.9695 60.1907C82.9695 60.4642 82.6961 60.647 82.5133 60.8282L73.1383 70.4907L56.9742 87.1876L54.2398 90.1048C54.1492 90.1954 54.057 90.2876 53.9664 90.1954C53.8758 90.1032 53.8758 90.0126 53.7836 89.922C53.3273 84.922 52.143 80.1688 50.4086 75.4282C50.4086 75.3376 50.318 75.2454 50.318 75.1548C50.0445 74.3345 50.0445 74.3345 50.7742 74.061L61.7117 69.3204L72.1023 64.8517L80.8523 61.0235C81.3992 60.8407 81.8555 60.5673 82.4023 60.386C82.5852 60.2032 82.7664 60.1126 82.9492 60.2032L82.9695 60.1907ZM82.9695 60.1907C82.9695 60.1001 82.9695 60.0079 83.0602 60.0079C83.243 60.1907 82.9695 60.0985 82.9695 60.1907Z" fill="#F99E21"/>
</g>
<defs>
<clipPath id="clip0_15397_208493">
<rect width="100" height="100" fill="white"/>
</clipPath>
</defs>
</svg>
