<svg width="100" height="100" viewBox="0 0 100 100" fill="none" xmlns="http://www.w3.org/2000/svg">
<g clip-path="url(#clip0_15397_208520)">
<path d="M100.001 40.1167V63.8276L96.7197 67.0308V43.8276L100.001 40.1167Z" fill="#E79225"/>
<path d="M78.4961 40.1362L75.0977 43.8276L75.2734 44.062L96.582 43.9839L96.7773 43.8276L100 40.1167L78.4961 40.1362Z" fill="#FFF16D"/>
<path d="M75.0977 43.8276H96.7773V67.0503H75.0977V43.8276Z" fill="url(#paint0_linear_15397_208520)"/>
<path d="M93.4756 52.1875C93.0459 51.1133 92.4014 50.1367 91.5615 49.2969C90.7607 48.4766 89.8623 47.8516 88.8467 47.4414C87.8506 47.0312 86.7764 46.8164 85.6045 46.8164C84.4326 46.8164 83.3389 47.0312 82.3428 47.4414C81.3272 47.8516 80.4287 48.4766 79.6279 49.2969C78.7881 50.1367 78.1631 51.1133 77.7334 52.1875C77.3037 53.2617 77.1084 54.4336 77.1084 55.7227C77.1084 56.9727 77.3232 58.1445 77.7529 59.2383C78.1799 60.3329 78.8244 61.3295 79.6475 62.168C80.4287 62.9688 81.3272 63.5742 82.3232 63.9844C83.3193 64.3945 84.4326 64.6094 85.624 64.6094C86.7764 64.6094 87.8506 64.3945 88.8467 63.9844C89.8428 63.5742 90.7607 62.9688 91.5615 62.168C92.4014 61.3086 93.0459 60.332 93.4756 59.2578C93.9053 58.1836 94.1201 56.9922 94.1201 55.7422C94.1201 54.4336 93.9053 53.2617 93.4756 52.1875ZM89.0029 59.8438C88.1631 60.8398 87.0498 61.3477 85.6045 61.3477C84.1592 61.3477 83.0264 60.8398 82.1865 59.8438C81.3467 58.8477 80.9365 57.4609 80.9365 55.7031C80.9365 53.9063 81.3662 52.5195 82.1865 51.5039C83.0264 50.4883 84.1396 50 85.6045 50C87.0498 50 88.1631 50.5078 89.0029 51.5039C89.8232 52.5195 90.2529 53.9063 90.2529 55.7031C90.2529 57.4609 89.8428 58.8477 89.0029 59.8438Z" fill="white"/>
<path d="M72.9678 38.1836V38.3008L75.7412 59.6094L74.1201 64.1016L73.9053 63.9453L71.0537 43.5156L71.1123 43.2422L72.8897 38.3008L72.9678 38.1836Z" fill="#009ADA"/>
<path d="M51.6211 41.1523L72.9688 38.1836L71.1719 43.3008L70.918 43.5742L50.957 46.5039L51.0547 42.8516L51.6211 41.1523Z" fill="#91C9ED"/>
<path d="M71.1709 43.3008L74.1201 64.1016L53.085 67.0508L50.2529 46.9531L51.4834 45.9961L71.1709 43.3008Z" fill="url(#paint1_linear_15397_208520)"/>
<path d="M67.5977 47.2847C67.5 46.6401 67.2852 46.1519 66.9336 45.8198C66.6406 45.5659 66.2891 45.4292 65.8789 45.4292C65.7812 45.4292 65.6641 45.4292 65.5469 45.4487C65 45.5269 64.5898 45.7808 64.3359 46.1909C64.1406 46.4839 64.0625 46.855 64.0625 47.2847C64.0625 47.4409 64.082 47.6167 64.1016 47.7925L64.8633 53.2026L58.8086 54.1011L58.0469 48.6909C57.9492 48.0659 57.7344 47.5776 57.3828 47.2456C57.0898 46.9722 56.7383 46.8354 56.3477 46.8354C56.25 46.8354 56.1523 46.8354 56.0547 46.855C55.4883 46.9331 55.0586 47.187 54.7852 47.5972C54.5898 47.8901 54.5117 48.2612 54.5117 48.6909C54.5117 48.8472 54.5312 49.0229 54.5508 49.2183L56.6211 63.3003C56.7187 63.9448 56.9336 64.4331 57.3242 64.7651C57.6172 65.019 57.9687 65.1362 58.3984 65.1362C58.5156 65.1362 58.6328 65.1362 58.75 65.1167C59.2773 65.0386 59.668 64.7847 59.9219 64.3745C60.0977 64.0815 60.1758 63.73 60.1758 63.3198C60.1758 63.1636 60.1562 62.9878 60.1367 62.812L59.2969 57.2456L65.3516 56.3472L66.1914 61.9136C66.2891 62.5581 66.5039 63.0464 66.875 63.3589C67.168 63.6128 67.5195 63.7495 67.9297 63.7495C68.0273 63.7495 68.1445 63.7495 68.2617 63.73C68.8086 63.6519 69.2188 63.3979 69.4727 62.9878C69.6484 62.6948 69.7461 62.3433 69.7461 61.9136C69.7461 61.7573 69.7266 61.5815 69.707 61.4058L67.5977 47.2847Z" fill="white"/>
<path d="M31.6406 32.7539L24.043 50.8008L25.0781 58.7305L25.1367 58.7109L33.6719 39.5117L33.6328 39.1016L31.7969 33.0078L31.6406 32.7539Z" fill="#66BF6B"/>
<path d="M31.6406 32.7539L33.6523 39.5117L52.4414 47.9297L52.5 47.8906L50.8984 41.5625L31.6406 32.7539Z" fill="#98D0A0"/>
<path d="M33.6133 39.3745L52.5 47.8901L43.9648 67.2456L25.0781 58.73L33.6133 39.3745Z" fill="url(#paint2_linear_15397_208520)"/>
<path d="M46.7773 49.4526C46.3672 48.3589 45.8008 47.4214 45.0586 46.6401C44.3164 45.8589 43.418 45.2339 42.3633 44.7847C41.3086 44.3354 40.2539 44.1206 39.1797 44.1206H39.1211C38.0273 44.1206 36.9531 44.3745 35.8984 44.8433C34.7852 45.3315 33.8281 45.9956 33.0078 46.8745C32.1875 47.7339 31.5234 48.7886 31.0156 49.9995C30.5078 51.1909 30.2344 52.4019 30.1758 53.5933V54.0034C30.1758 55.0581 30.3516 56.0933 30.7227 57.1089C31.1133 58.1831 31.6797 59.1011 32.4219 59.8823C33.1641 60.6636 34.082 61.2886 35.1758 61.7378C36.2109 62.187 37.2656 62.4019 38.3398 62.4019H38.3594C39.4336 62.4019 40.5078 62.1675 41.5625 61.7183C42.6758 61.23 43.6523 60.5464 44.4727 59.6675C45.293 58.8081 45.9766 57.773 46.4844 56.562C46.9922 55.3511 47.2656 54.1597 47.3242 52.9683V52.6167C47.3438 51.5425 47.168 50.4878 46.7773 49.4526ZM43.0078 55.0776C42.3047 56.7573 41.3477 57.9097 40.1953 58.5347C39.5703 58.8667 38.9258 59.0425 38.2812 59.0425C37.7148 59.0425 37.1094 58.9058 36.5039 58.6519C35.1758 58.0855 34.3555 57.187 34.0039 55.898C33.8867 55.4683 33.8281 55.019 33.8281 54.5503C33.8281 53.6128 34.0625 52.5776 34.5313 51.4644C35.2539 49.7456 36.2109 48.5737 37.3633 47.9292C37.9883 47.5776 38.6328 47.4214 39.2773 47.4214C39.8633 47.4214 40.4492 47.5581 41.0742 47.812C42.3828 48.3784 43.2031 49.2769 43.5547 50.5659C43.6719 50.9761 43.7305 51.4253 43.7305 51.894C43.7305 52.8706 43.4961 53.9253 43.0078 55.0776Z" fill="white"/>
<path d="M22.5391 35.8198L25.625 56.4839L24.2188 63.7495L24.0234 63.4956L21.0156 43.5347V43.144L22.3438 36.1714L22.5391 35.8198Z" fill="#760D16"/>
<path d="M0 46.5034L1.46484 39.1987L22.5391 35.8198L21.1133 43.2612V43.7495L0.253906 46.6987L0 46.5034Z" fill="#EF463E"/>
<path d="M21.1133 43.2617L24.2188 63.75L3.35938 67.0117L0 46.5039L21.1133 43.2617Z" fill="url(#paint3_linear_15397_208520)"/>
<path d="M18.8672 60.4883C18.7109 60.293 18.4766 60.1562 18.2031 60.0586C17.9297 59.9609 17.5977 59.9219 17.1875 59.9219C16.8164 59.9219 16.3867 59.9609 15.918 60.0391L10.4102 60.9766C10.4688 60.5469 10.6836 60 11.0547 59.3164C11.4648 58.5547 12.0898 57.6367 12.8906 56.582C13.0997 56.2977 13.3146 56.0177 13.5352 55.7422C13.6328 55.6055 13.7891 55.4297 13.9844 55.1758C15.2539 53.5156 16.0156 52.168 16.3281 51.1133C16.5039 50.5078 16.6016 49.9023 16.6406 49.2969C16.6602 49.1211 16.6602 48.9648 16.6602 48.8086C16.6602 48.3789 16.6211 47.9492 16.543 47.5195C16.4844 47.1289 16.3867 46.8164 16.25 46.5625C16.1133 46.3086 15.957 46.1133 15.7617 45.9961C15.5469 45.8594 15.2148 45.8008 14.8047 45.8008C14.4727 45.8008 14.0625 45.8398 13.5742 45.918L7.20703 47.0117C6.44531 47.1484 5.85938 47.3633 5.50781 47.7148C5.21484 47.9883 5.07812 48.3398 5.07812 48.7305C5.07812 48.8281 5.07813 48.9453 5.09766 49.0625C5.19531 49.6094 5.46875 50 5.91797 50.1953C6.19141 50.3125 6.50391 50.3711 6.89453 50.3711C7.14844 50.3711 7.44141 50.3516 7.75391 50.293L13.0664 49.3555C13.0664 49.4531 13.0859 49.5508 13.0859 49.6289C13.0863 49.9623 13.0267 50.2931 12.9102 50.6055C12.7539 51.0547 12.3633 51.6797 11.7188 52.4805L10.8984 53.4961C9.45312 55.2344 8.4375 56.7187 7.8125 57.9492C7.36328 58.8086 7.07031 59.6289 6.89453 60.4687C6.79687 60.957 6.73828 61.4062 6.73828 61.8555C6.73828 62.168 6.75781 62.4805 6.81641 62.7734C6.89453 63.2031 6.99219 63.5547 7.12891 63.8281C7.26562 64.1016 7.46094 64.3164 7.67578 64.4336C7.89062 64.5508 8.18359 64.5898 8.61328 64.5898C9.14062 64.5898 9.86328 64.5117 10.7812 64.3555L16.5625 63.3594C17.5781 63.1836 18.3008 62.9297 18.7109 62.5977C19.043 62.3242 19.2188 61.9531 19.2188 61.5234C19.2188 61.4062 19.1992 61.2891 19.1797 61.1719C19.1406 60.918 19.043 60.6836 18.8672 60.4883Z" fill="white"/>
</g>
<defs>
<linearGradient id="paint0_linear_15397_208520" x1="85.9365" y1="44.1601" x2="85.9365" y2="66.3493" gradientUnits="userSpaceOnUse">
<stop offset="0.005618" stop-color="#FFE513"/>
<stop offset="1" stop-color="#FDB924"/>
</linearGradient>
<linearGradient id="paint1_linear_15397_208520" x1="51.3299" y1="46.5057" x2="73.0873" y2="63.9785" gradientUnits="userSpaceOnUse">
<stop offset="0.005618" stop-color="#008CD2"/>
<stop offset="1" stop-color="#00649D"/>
</linearGradient>
<linearGradient id="paint2_linear_15397_208520" x1="38.7895" y1="47.1167" x2="38.7895" y2="66.5569" gradientUnits="userSpaceOnUse">
<stop stop-color="#26A146"/>
<stop offset="1" stop-color="#008A52"/>
</linearGradient>
<linearGradient id="paint3_linear_15397_208520" x1="10.5918" y1="45.2111" x2="13.9363" y2="65.3963" gradientUnits="userSpaceOnUse">
<stop stop-color="#D92231"/>
<stop offset="1" stop-color="#BA2234"/>
</linearGradient>
<clipPath id="clip0_15397_208520">
<rect width="100" height="100" fill="white"/>
</clipPath>
</defs>
</svg>
