<svg width="100" height="100" viewBox="0 0 100 100" fill="none" xmlns="http://www.w3.org/2000/svg">
<g clip-path="url(#clip0_15384_206889)">
<path d="M31.6336 46.3083C31.4419 44.9167 30.6753 43.7083 29.2919 42.6167L28.4919 42.075L27.9586 42.8833C27.2753 43.925 26.9336 45.375 27.0419 46.7667C27.0919 47.25 27.2503 48.1333 27.7419 48.8917C27.2503 49.1667 26.2753 49.5333 24.9753 49.5083H0.141946L0.0919462 49.8C-0.141387 51.1917 -0.141387 55.55 2.65028 58.8917C4.77528 61.4333 7.95028 62.725 12.1003 62.725C21.1003 62.725 27.7503 58.5333 30.8753 50.9C32.1003 50.925 34.7419 50.9083 36.1003 48.2833C36.1336 48.225 36.2169 48.0667 36.4503 47.5667L36.5836 47.2917L35.8253 46.775C34.9919 46.2333 33.1003 46.025 31.6336 46.3083ZM20.0003 37H16.2253V40.475H20.0003V37ZM20.0003 41.175H16.2253V44.65H20.0003V41.175ZM15.5336 41.175H11.7586V44.65H15.5336V41.175ZM11.0753 41.175H7.30028V44.65H11.0753V41.175ZM6.60861 45.35H2.83361V48.825H6.60861V45.35ZM11.0753 45.35H7.30028V48.825H11.0753V45.35ZM15.5336 45.35H11.7586V48.825H15.5336V45.35ZM20.0003 45.35H16.2253V48.825H20.0003V45.35ZM24.4669 45.35H20.6919V48.825H24.4669V45.35ZM47.4169 44.5667C47.1419 44.5667 46.9086 44.6583 46.7336 44.8417C46.5503 45.025 46.4586 45.2667 46.4586 45.5417V50.25C45.5253 49.475 44.4503 49.0917 43.2169 49.0917C41.7919 49.0917 40.5753 49.6083 39.5669 50.6417C38.5586 51.675 38.0586 52.9167 38.0586 54.375C38.0586 55.8333 38.5669 57.075 39.5669 58.1083C40.5753 59.1417 41.7919 59.6583 43.2169 59.6583C44.6419 59.6583 45.8503 59.1417 46.867 58.1083C47.8753 57.0917 48.3753 55.8417 48.3753 54.375V45.55C48.3753 45.2667 48.2836 45.0333 48.0919 44.85C47.9169 44.6583 47.6919 44.5667 47.4169 44.5667ZM46.2086 55.6583C46.0419 56.0583 45.8086 56.4083 45.5169 56.7083C45.2253 57.0083 44.8836 57.25 44.492 57.425C44.1003 57.6 43.6753 57.6917 43.2253 57.6917C42.7753 57.6917 42.3503 57.6083 41.9503 57.425C41.5586 57.25 41.2169 57.0083 40.9253 56.7083C40.6336 56.4083 40.4086 56.0583 40.2419 55.6583C40.0753 55.2583 39.9919 54.825 39.9919 54.375C39.9919 53.925 40.0753 53.4917 40.2419 53.0917C40.4086 52.6917 40.6419 52.3417 40.9253 52.0417C41.2169 51.7417 41.5586 51.5083 41.9503 51.325C42.3419 51.15 42.7669 51.0583 43.2253 51.0583C43.6836 51.0583 44.0919 51.1417 44.492 51.325C44.8836 51.5 45.2253 51.7417 45.5169 52.0417C45.8086 52.3417 46.0419 52.6917 46.2086 53.0917C46.3753 53.4917 46.4586 53.9167 46.4586 54.3667C46.4586 54.825 46.3753 55.25 46.2086 55.6583ZM89.6336 50.6417C88.6169 49.6083 87.3919 49.0917 85.9836 49.0917C84.5669 49.0917 83.3419 49.6083 82.3336 50.6417C81.3253 51.675 80.8253 52.9167 80.8253 54.375C80.8253 55.8333 81.3336 57.075 82.3336 58.1083C83.3419 59.1417 84.5586 59.6583 85.9836 59.6583C87.2836 59.6583 88.4003 59.2333 89.3586 58.375C89.5419 58.1833 89.6336 57.9417 89.6336 57.6667C89.6336 57.3917 89.5419 57.15 89.3586 56.9667C89.1753 56.7833 88.9503 56.6917 88.6753 56.6917C88.4336 56.7 88.2253 56.775 88.0419 56.9417C87.7503 57.1917 87.4419 57.3833 87.1003 57.5083C86.7586 57.6333 86.3919 57.7 85.9836 57.7C85.6253 57.7 85.2836 57.6417 84.9586 57.5333C84.6336 57.4167 84.3253 57.2583 84.0586 57.0583C83.7836 56.85 83.5503 56.6083 83.3419 56.325C83.1419 56.0417 82.9836 55.725 82.8836 55.375H90.1836C90.4503 55.375 90.6836 55.2833 90.8669 55.1C91.0586 54.9167 91.1503 54.675 91.1503 54.4C91.1503 53.6667 91.0253 52.9917 90.7753 52.3667C90.5169 51.725 90.1419 51.1583 89.6336 50.6417ZM82.867 53.4C82.9669 53.0583 83.117 52.7417 83.3169 52.45C83.5169 52.1667 83.7586 51.9167 84.0336 51.7167C84.3086 51.5083 84.617 51.3583 84.9503 51.2417C85.2836 51.125 85.6253 51.075 85.9753 51.075C86.3253 51.075 86.6669 51.1333 86.9919 51.2417C87.3253 51.3583 87.6253 51.5167 87.8919 51.7167C88.1669 51.925 88.4086 52.1667 88.6086 52.45C88.8169 52.7333 88.9669 53.05 89.0753 53.4H82.867ZM99.7419 49.7583C99.5669 49.5917 99.3503 49.4583 99.0919 49.3583C98.8336 49.2583 98.5419 49.1917 98.2336 49.1583C97.9253 49.1167 97.6336 49.1 97.3586 49.1C96.742 49.1 96.1669 49.2 95.6253 49.4C95.0836 49.6 94.5836 49.8917 94.1253 50.2667V50.0833C94.1253 49.8083 94.0336 49.5833 93.8419 49.3917C93.6503 49.2 93.4336 49.1 93.1669 49.1C92.9003 49.1 92.6669 49.2 92.4836 49.3917C92.2919 49.5833 92.2003 49.8167 92.2003 50.0833V58.6833C92.2003 58.9583 92.2919 59.1833 92.4836 59.375C92.6753 59.5667 92.9003 59.6667 93.1669 59.6667C93.4336 59.6667 93.6586 59.5667 93.8419 59.375C94.0336 59.1833 94.1253 58.95 94.1253 58.6833V54.3833C94.1253 53.925 94.2086 53.4917 94.3753 53.0917C94.5419 52.6917 94.7753 52.3417 95.0669 52.0417C95.3586 51.7417 95.7003 51.5083 96.0919 51.3333C96.4836 51.1583 96.9086 51.075 97.3586 51.075C97.8086 51.075 98.2336 51.1583 98.6253 51.3083C98.7753 51.375 98.9169 51.4167 99.0336 51.4167C99.1669 51.4167 99.2919 51.3917 99.4086 51.3417C99.5253 51.2917 99.6253 51.2167 99.7169 51.1333C99.8003 51.0417 99.8753 50.9417 99.9253 50.8167C99.9753 50.7 100 50.5667 100 50.4333C100 50.15 99.9169 49.925 99.7419 49.7583ZM58.3003 50.6417C57.2836 49.6083 56.0586 49.0917 54.6503 49.0917C53.2419 49.0917 52.0086 49.6083 51.0003 50.6417C49.9919 51.675 49.492 52.9167 49.492 54.375C49.492 55.8333 50.0003 57.075 51.0003 58.1083C52.0086 59.1417 53.2253 59.6583 54.6503 59.6583C56.0753 59.6583 57.2836 59.1417 58.3003 58.1083C59.3086 57.0917 59.8086 55.8417 59.8086 54.375C59.8003 53.6417 59.6753 52.9667 59.4253 52.35C59.1753 51.7333 58.8003 51.1583 58.3003 50.6417ZM57.6336 55.6583C57.4669 56.0583 57.2336 56.4083 56.9419 56.7083C56.6503 57.0083 56.3086 57.25 55.9169 57.425C55.5253 57.6 55.1003 57.6917 54.6503 57.6917C54.2003 57.6917 53.7753 57.6083 53.3753 57.425C52.9836 57.25 52.6419 57.0083 52.3503 56.7083C52.0586 56.4083 51.8336 56.0583 51.6669 55.6583C51.5003 55.2583 51.4169 54.825 51.4169 54.375C51.4169 53.925 51.5003 53.4917 51.6669 53.0917C51.8336 52.6917 52.0669 52.3417 52.3503 52.0417C52.6419 51.7417 52.9836 51.5083 53.3753 51.325C53.7669 51.15 54.1919 51.0583 54.6503 51.0583C55.1086 51.0583 55.5169 51.1417 55.9169 51.325C56.3086 51.5 56.6503 51.7417 56.9419 52.0417C57.2336 52.3417 57.4669 52.6917 57.6336 53.0917C57.8003 53.4917 57.8836 53.9167 57.8836 54.3667C57.8836 54.825 57.8003 55.25 57.6336 55.6583ZM79.767 50.075C79.767 49.9417 79.742 49.8167 79.6919 49.7C79.6419 49.5833 79.5753 49.475 79.4836 49.3833C79.4003 49.2917 79.2919 49.2167 79.1753 49.175C79.0586 49.125 78.9336 49.1 78.8003 49.1C78.6086 49.1 78.4336 49.15 78.2836 49.25L72.767 52.9167V45.5583C72.767 45.2833 72.6753 45.05 72.4836 44.8583C72.2919 44.6667 72.0753 44.5667 71.8086 44.5667C71.5419 44.5667 71.3086 44.6667 71.1253 44.8583C70.9336 45.05 70.8419 45.2833 70.8419 45.5583V58.6667C70.8419 58.9417 70.9336 59.175 71.1253 59.3667C71.3169 59.5583 71.5419 59.6583 71.8086 59.6583C72.0753 59.6583 72.3003 59.5583 72.4836 59.3667C72.6753 59.175 72.767 58.9417 72.767 58.6667V55.2583L73.892 54.5L78.1503 59.3917C78.3253 59.5583 78.5419 59.6417 78.7919 59.6417C78.9253 59.6417 79.0503 59.6167 79.1669 59.5667C79.2836 59.5167 79.3836 59.4417 79.4753 59.3583C79.5586 59.2667 79.6336 59.1667 79.6836 59.0417C79.7336 58.925 79.7586 58.7917 79.7586 58.6667C79.7586 58.4083 79.667 58.1833 79.492 57.975L75.5419 53.4167L79.4086 50.85C79.6503 50.6833 79.767 50.425 79.767 50.075ZM63.7586 52.0333C64.0503 51.7333 64.4003 51.5 64.7919 51.325C65.1836 51.15 65.6086 51.0667 66.0586 51.0667C66.4669 51.0667 66.8419 51.1333 67.1836 51.275C67.5253 51.4167 67.8586 51.6167 68.1669 51.8833C68.3503 52.0333 68.5586 52.1083 68.7919 52.1083C69.0669 52.1083 69.3003 52.0167 69.4753 51.825C69.6586 51.6333 69.7503 51.4 69.7503 51.1167C69.7503 50.8333 69.6419 50.575 69.4169 50.375C68.4669 49.5167 67.3503 49.0917 66.0503 49.0917C64.6253 49.0917 63.4086 49.6083 62.4003 50.6417C61.3919 51.675 60.8919 52.9167 60.8919 54.375C60.8919 55.8333 61.4003 57.075 62.4003 58.1083C63.4086 59.1417 64.6253 59.6583 66.0503 59.6583C67.3419 59.6583 68.4669 59.2333 69.4169 58.375C69.617 58.1667 69.7253 57.925 69.7253 57.65C69.7253 57.375 69.6336 57.1333 69.4503 56.95C69.267 56.7667 69.0419 56.675 68.767 56.675C68.5336 56.6833 68.3336 56.75 68.1586 56.8833C67.8503 57.1583 67.5253 57.3583 67.1836 57.4917C66.8419 57.625 66.4669 57.6917 66.0586 57.6917C65.6086 57.6917 65.1919 57.6083 64.7919 57.4333C64.4003 57.2583 64.0503 57.025 63.7586 56.725C63.4669 56.4333 63.2336 56.075 63.0586 55.675C62.8919 55.275 62.8086 54.8417 62.8086 54.3833C62.8086 53.925 62.8919 53.4917 63.0586 53.0917C63.2336 52.6833 63.4669 52.3417 63.7586 52.0333Z" fill="#1D63ED"/>
</g>
<defs>
<clipPath id="clip0_15384_206889">
<rect width="100" height="25.75" fill="white" transform="translate(0 37)"/>
</clipPath>
</defs>
</svg>
