<svg width="100" height="100" viewBox="0 0 100 100" fill="none" xmlns="http://www.w3.org/2000/svg">
<g clip-path="url(#clip0_15910_61498)">
<path d="M60.891 31.0566C58.1448 28.3532 54.5407 26.8945 50.6575 26.9374C48.8769 26.9374 47.4609 28.4177 47.4609 30.177C47.4609 31.9359 48.92 33.3733 50.679 33.3733C50.7007 33.3733 50.7435 33.3733 50.7863 33.3733C55.1413 33.3733 58.724 36.9131 58.7671 41.2684C58.7671 43.0276 60.2259 44.465 61.9851 44.465H62.0065C63.7872 44.465 65.2031 42.9845 65.2031 41.2252C65.16 37.3852 63.637 33.7597 60.891 31.078V31.0566Z" fill="#126ED3"/>
<path d="M51.1526 7.43605C51.2811 7.43605 51.3885 7.43605 51.4959 7.43605C68.0577 7.43605 82.2386 19.7074 84.577 36.0978C84.8129 37.7068 86.1861 38.8654 87.7522 38.8654C87.9022 38.8654 88.0524 38.8654 88.2026 38.844C89.9618 38.5864 91.1847 36.956 90.9271 35.1967C88.1812 15.6312 71.2543 1 51.5173 1C51.3885 1 51.2597 1 51.1312 1C49.3505 1 47.9346 2.48028 47.9346 4.23948C47.9346 5.99865 49.3934 7.43605 51.1526 7.43605Z" fill="#126ED3"/>
<path d="M78.3328 43.4143C78.6332 35.7339 75.8873 27.9679 70.0304 22.1325C58.8962 10.9982 40.7893 10.9982 29.6764 22.1325C23.9484 27.8605 21.0307 35.5409 21.374 43.5216C16.6113 44.7445 12.0846 47.19 8.35174 50.923C-2.78261 62.0575 -2.78261 80.1641 8.35174 91.2769C13.9082 96.8333 21.2238 99.6224 28.5395 99.6224C35.8552 99.6224 43.1491 96.8333 48.7272 91.2769C49.1776 90.8266 49.5851 90.3331 50.0144 89.861C55.2489 95.8466 62.9078 99.6438 71.4678 99.6438C87.2146 99.6438 100.001 86.836 100.001 71.1106C100.001 57.9813 90.8616 46.5252 78.3328 43.4143ZM71.4678 93.2078C59.2823 93.2078 49.3707 83.2962 49.3707 71.1106C49.3707 69.33 47.9333 67.8926 46.1526 67.8926C44.372 67.8926 42.9346 69.33 42.9346 71.1106C42.9346 75.8948 44.1361 80.4 46.2172 84.3688C45.5949 85.2056 44.9297 85.9995 44.1789 86.7504C35.5547 95.3746 21.5241 95.3746 12.9213 86.7504C4.29703 78.1259 4.29703 64.1169 12.9213 55.4927C21.5456 46.8684 35.5547 46.8684 44.1789 55.4927C45.4447 56.7584 47.4829 56.7584 48.7272 55.4927C49.9715 54.2269 49.993 52.1887 48.7272 50.9444C42.956 45.1735 35.3188 42.4275 27.7456 42.642C27.6599 36.6781 29.9338 30.9714 34.2245 26.7021C42.8489 18.0778 56.8579 18.0778 65.4821 26.7021C74.1066 35.3264 74.1066 49.3568 65.4821 57.9599C64.2164 59.2256 64.2164 61.2635 65.4821 62.5079C66.1044 63.1302 66.9412 63.4517 67.7563 63.4517C68.5716 63.4517 69.4081 63.1302 70.0304 62.5079C73.6774 58.8609 76.1018 54.4842 77.3461 49.8503C86.7425 52.4677 93.5649 61.1779 93.5649 71.1321C93.5649 83.3178 83.6533 93.2292 71.4678 93.2292V93.2078Z" fill="#126ED3"/>
</g>
<defs>
<clipPath id="clip0_15910_61498">
<rect width="100" height="98.6438" fill="white" transform="translate(0 1)"/>
</clipPath>
</defs>
</svg>
