<svg width="100" height="100" viewBox="0 0 100 100" fill="none" xmlns="http://www.w3.org/2000/svg">
<g clip-path="url(#clip0_15910_61490)">
<mask id="mask0_15910_61490" style="mask-type:luminance" maskUnits="userSpaceOnUse" x="0" y="26" width="100" height="48">
<path d="M100 26H0V73.5H100V26Z" fill="white"/>
</mask>
<g mask="url(#mask0_15910_61490)">
<path d="M39.7157 48.4955C39.7157 50.4699 38.1195 52.0684 36.1478 52.0684C34.1763 52.0684 32.5801 50.4699 32.5801 48.4955C32.5801 46.5212 34.1763 44.9227 36.1478 44.9227C38.1195 44.9227 39.7157 46.5212 39.7157 48.4955Z" fill="#AA00EA"/>
<path d="M93.9268 29.5728C93.9268 31.5471 92.3304 33.1456 90.3589 33.1456C88.3873 33.1456 86.791 31.5471 86.791 29.5728C86.791 27.5985 88.3873 26 90.3589 26C92.3304 26 93.9268 27.5985 93.9268 29.5728Z" fill="#AA00EA"/>
<path d="M68.1327 38.5764C68.1327 40.5508 66.5364 42.1493 64.5648 42.1493C62.5933 42.1493 60.9971 40.5508 60.9971 38.5764C60.9971 36.6022 62.5933 35.0037 64.5648 35.0037C66.5364 35.0037 68.1327 36.6022 68.1327 38.5764Z" fill="#AA00EA"/>
<path d="M82.8002 73.1294V70.3824H79.8773V73.1294H78.1699V66.1797H79.8773V68.8844H82.8002V66.1797H84.4969V73.1294H82.8002Z" fill="#AA00EA"/>
<path d="M87.917 70.7423H87.4201V73.1294H85.7129V66.1797H89.2226C90.7238 66.1797 91.7174 67.0954 91.7174 68.4504C91.7174 69.5937 91.0145 70.4088 89.8939 70.6576L92.0663 73.1242H90.0049L87.9118 70.7371L87.917 70.7423ZM90.0419 68.4716C90.0419 67.9741 89.6508 67.6406 89.0376 67.6406H87.4201V69.3079H89.0376C89.6508 69.3079 90.0419 68.9744 90.0419 68.4663" fill="#AA00EA"/>
<path d="M51.2341 44.9172C45.8004 44.9172 41.334 48.94 41.334 54.8311C41.334 60.7224 45.8004 64.7451 51.1971 64.7451C55.4785 64.7451 58.8614 62.8449 60.4629 58.8962L55.1772 57.8165C54.1729 59.6426 52.5714 59.976 51.1971 59.976C49.1885 59.976 47.661 58.5945 47.18 56.3609H60.8751V54.8311C60.7641 48.723 56.5197 44.9172 51.2394 44.9172M47.2962 52.7034C47.8565 50.8031 49.5691 49.7604 51.2394 49.7604C52.9096 49.7604 54.4425 50.692 54.9975 52.7034H47.2962Z" fill="#AA00EA"/>
<path d="M87.4629 45.4784V39.2168H93.4145V45.4784H98.9223V50.2105H93.4145V56.6945C93.4145 58.6318 94.3448 59.4152 95.9094 59.4152C96.7287 59.4152 97.8439 59.1187 98.6263 58.6688L100.006 63.3638C98.5523 64.1472 97.0299 64.7399 94.9052 64.7399C90.2537 64.7399 87.4629 62.2045 87.4629 57.2873V50.2052H81.6803L71.7908 73.1242H65.3898L69.5232 63.549L61.8008 45.4732H68.2018L72.6154 56.3557L77.3249 45.4732H87.4629V45.4784Z" fill="#AA00EA"/>
<path d="M24.8057 64.1841H30.7627V61.2359V58.3354V49.0566V45.4785H24.8057V64.1841Z" fill="#AA00EA"/>
<path d="M14.9215 46.9711C13.4732 45.669 11.5334 44.9227 9.11781 44.9227C4.17041 44.9175 0 48.9455 0 54.8314C0 60.7172 4.17041 64.7452 9.11781 64.7452C11.5387 64.7452 13.4732 63.999 14.9215 62.6969V63.9619C14.9215 66.9049 12.58 68.2492 9.9001 68.2492C7.96554 68.2492 6.88725 67.6141 5.50769 65.9415L0.560284 68.9956C2.38385 72.0126 5.61869 73.5052 9.9001 73.5052C15.9681 73.5052 20.8785 70.34 20.8785 64.56V45.4785H14.9215V46.9711ZM10.3811 58.4095C8.40954 58.4095 6.81326 56.811 6.81326 54.8366C6.81326 52.8624 8.40954 51.2639 10.3811 51.2639C12.3527 51.2639 13.949 52.8624 13.949 54.8366C13.949 56.811 12.3527 58.4095 10.3811 58.4095Z" fill="#AA00EA"/>
</g>
</g>
<defs>
<clipPath id="clip0_15910_61490">
<rect width="100" height="47.5" fill="white" transform="translate(0 26)"/>
</clipPath>
</defs>
</svg>
