<svg width="101" height="100" viewBox="0 0 101 100" fill="none" xmlns="http://www.w3.org/2000/svg">
<g clip-path="url(#clip0_15381_206465)">
<path d="M10.0538 55.8847C10.0365 55.4679 10.0365 55.0686 10.0365 54.7039V49.8246C10.0365 49.1995 9.93228 48.6091 9.75864 48.0708C9.585 47.5325 9.27244 47.0637 8.89043 46.6643C8.50842 46.2823 8.02223 45.9524 7.43185 45.7093C6.84147 45.4836 6.12954 45.3794 5.33079 45.3794C4.41049 45.3794 3.55965 45.5357 2.7609 45.8482C1.96215 46.1608 1.26758 46.5601 0.729293 47.0811L0.677201 47.0984L1.91005 48.5917L1.92742 48.5744C2.29206 48.2097 2.77826 47.8798 3.31655 47.6541C3.85484 47.4283 4.47994 47.2894 5.08769 47.2894C5.9038 47.2894 6.581 47.4978 7.0672 47.8798C7.55339 48.2618 7.81386 48.8869 7.81386 49.703V49.9635C6.89356 49.9635 5.95589 50.0156 5.0356 50.0851C4.1153 50.1545 3.26446 50.3455 2.5178 50.606C1.77114 50.8664 1.1634 51.2485 0.694565 51.7694C0.225734 52.2903 0 52.9501 0 53.8183C0 54.4608 0.121549 55.0338 0.382011 55.4679C0.642473 55.902 0.972391 56.2667 1.38913 56.5445C1.77114 56.805 2.23997 57.0133 2.72617 57.1349C3.21236 57.2564 3.68119 57.3085 4.1153 57.3085C4.96614 57.3085 5.73016 57.1349 6.35527 56.7876C6.98038 56.4577 7.48394 55.9889 7.90068 55.3985C7.90068 55.9194 7.97013 56.4577 8.07432 56.9613V56.9786H10.1754V56.9092C10.1059 56.6487 10.0538 56.3014 10.0538 55.8847ZM7.79649 52.1514C7.79649 53.0717 7.51867 53.8704 6.98038 54.4608C6.44209 55.0859 5.64334 55.3811 4.61886 55.3811C4.34103 55.3811 4.04584 55.3638 3.80274 55.3117C3.54228 55.2596 3.28182 55.1554 3.09081 55.0338C2.89981 54.9123 2.7088 54.7213 2.56989 54.4955C2.44834 54.2872 2.36152 54.0094 2.36152 53.6968C2.36152 53.228 2.5178 52.8807 2.83035 52.5855C3.14291 52.2903 3.52492 52.0993 4.01111 51.9604C4.47994 51.8388 5.01823 51.7346 5.60861 51.6826C6.19899 51.6305 6.77201 51.6131 7.32766 51.6131H7.79649V52.1514Z" fill="#404040"/>
<path d="M21.2531 54.1135C20.9753 54.4782 20.5933 54.7734 20.1245 54.9818C19.6556 55.1901 19.1521 55.3117 18.6138 55.3117C18.0408 55.3117 17.5372 55.2075 17.0684 54.9818C16.6343 54.7734 16.2523 54.4608 15.9397 54.1135C15.6272 53.7663 15.4014 53.3148 15.2278 52.8286C15.0715 52.3424 14.9673 51.8215 14.9673 51.3179C14.9673 50.7796 15.0368 50.2934 15.2278 49.8072C15.3841 49.3211 15.6445 48.9043 15.9397 48.5223C16.2523 48.1577 16.6343 47.8625 17.0684 47.6541C17.5025 47.4457 18.0234 47.3242 18.5791 47.3242C19.1 47.3242 19.6035 47.4457 20.0724 47.6888C20.5412 47.9146 20.8885 48.2271 21.1316 48.5918L21.149 48.6438L22.8506 47.2894L22.8333 47.2721C22.3644 46.6817 21.7567 46.1955 20.9579 45.883C20.1939 45.5704 19.3604 45.3968 18.5964 45.3968C17.7456 45.3968 16.9295 45.553 16.2002 45.8309C15.4535 46.1087 14.811 46.5254 14.2728 47.0464C13.7345 47.5673 13.3177 48.2097 13.0225 48.9217C12.7274 49.6336 12.5537 50.4671 12.5537 51.37C12.5537 52.273 12.71 53.0891 13.0225 53.8184C13.3351 54.5477 13.7692 55.1728 14.3075 55.6937C14.8458 56.2146 15.4882 56.614 16.2349 56.9092C16.9816 57.187 17.7803 57.3433 18.6485 57.3433C19.5515 57.3433 20.3676 57.187 21.0969 56.8744C21.8088 56.5619 22.3992 56.1278 22.9027 55.5721L22.9201 55.5548L21.3226 54.1483L21.2531 54.1135Z" fill="#404040"/>
<path d="M32.5754 54.1135C32.2976 54.4782 31.9156 54.7734 31.4467 54.9818C30.9779 55.1901 30.4743 55.3117 29.9361 55.3117C29.363 55.3117 28.8595 55.2075 28.3906 54.9818C27.9565 54.7734 27.5745 54.4608 27.262 54.1135C26.9494 53.7663 26.7237 53.3148 26.5501 52.8286C26.3938 52.3424 26.2896 51.8215 26.2896 51.3179C26.2896 50.7796 26.359 50.2934 26.5501 49.8072C26.7063 49.3211 26.9668 48.9043 27.262 48.5223C27.5745 48.1577 27.9565 47.8625 28.3906 47.6541C28.8248 47.4457 29.3457 47.3242 29.9013 47.3242C30.4223 47.3242 30.9258 47.4457 31.3946 47.6888C31.8635 47.9146 32.2108 48.2271 32.4539 48.5918L32.4712 48.6438L34.1729 47.2894L34.1555 47.2721C33.6867 46.6817 33.079 46.1955 32.2802 45.883C31.5162 45.5704 30.6827 45.3968 29.9187 45.3968C29.0678 45.3968 28.2517 45.553 27.5224 45.8309C26.7758 46.1087 26.1333 46.5254 25.595 47.0464C25.0567 47.5673 24.64 48.2097 24.3448 48.9217C24.0496 49.6336 23.876 50.4671 23.876 51.37C23.876 52.273 24.0323 53.0891 24.3448 53.8184C24.6574 54.5477 25.0915 55.1728 25.6298 55.6937C26.168 56.2146 26.8105 56.614 27.5572 56.9092C28.3038 57.187 29.1026 57.3433 29.9708 57.3433C30.8737 57.3433 31.6898 57.187 32.4191 56.8744C33.1311 56.5619 33.7214 56.1278 34.225 55.5721L34.2424 55.5548L32.6796 54.1483L32.5754 54.1135Z" fill="#404040"/>
<path d="M44.9902 46.9422C44.5214 46.4212 43.931 46.0392 43.2712 45.7614C42.6113 45.5009 41.8299 45.3447 41.0138 45.3447C40.1977 45.3447 39.4163 45.5009 38.7044 45.7788C37.9925 46.0566 37.3674 46.4733 36.8291 47.0116C36.3081 47.5325 35.9088 48.175 35.5962 48.9043C35.3184 49.651 35.1621 50.4497 35.1621 51.3179C35.1621 52.1861 35.3184 53.0196 35.6309 53.7663C35.9435 54.4782 36.3429 55.1207 36.8638 55.6416C37.3847 56.1625 38.0272 56.5619 38.7391 56.8571C39.451 57.1349 40.2498 57.2912 41.1354 57.2912C42.1425 57.2912 43.0281 57.1175 43.8615 56.7182C44.6776 56.3362 45.4069 55.7458 45.9973 54.947L46.0147 54.9297L44.3651 53.6274L44.3477 53.6794C44.0352 54.1483 43.6011 54.5477 43.0628 54.8602C42.5245 55.1901 41.882 55.3464 41.1354 55.3464C40.6492 55.3464 40.1803 55.2769 39.781 55.0859C39.3469 54.9123 38.9822 54.6692 38.6523 54.3914C38.3224 54.0788 38.0619 53.7315 37.8883 53.3322C37.7146 52.9502 37.6105 52.516 37.5757 52.0819H46.4835V52.0299C46.5009 51.9083 46.5009 51.7694 46.5009 51.6478V51.2658C46.5009 50.3629 46.3793 49.5468 46.1189 48.8175C45.8237 48.0708 45.4764 47.4631 44.9902 46.9422ZM37.541 50.2761C37.5584 49.8593 37.6973 49.4773 37.8709 49.0953C38.0793 48.7133 38.305 48.3834 38.6176 48.0882C38.9301 47.8104 39.2774 47.5673 39.6941 47.4284C40.1109 47.2721 40.545 47.1679 40.9965 47.1679C41.5174 47.1679 41.9515 47.2374 42.3335 47.4284C42.7155 47.5846 43.0281 47.8104 43.2885 48.0882C43.549 48.366 43.7226 48.7133 43.8789 49.0606C44.0004 49.4252 44.0873 49.8246 44.1046 50.2413H37.5236V50.2761H37.541Z" fill="#404040"/>
<path d="M51.4325 39.4409H49.123V57.2391H51.4325V39.4409Z" fill="#404040"/>
<path d="M65.8446 48.9043C65.532 48.1924 65.0979 47.5499 64.5596 47.029C64.0214 46.5081 63.3442 46.1087 62.6149 45.7961C61.8682 45.5183 61.0695 45.362 60.2012 45.362C59.3504 45.362 58.5343 45.5183 57.7876 45.7961C57.041 46.074 56.3985 46.4907 55.8602 47.029C55.3219 47.5499 54.8878 48.1924 54.5753 48.9043C54.2627 49.6162 54.1064 50.415 54.1064 51.3006C54.1064 52.1688 54.2627 52.9675 54.5753 53.7142C54.8878 54.4261 55.3219 55.0686 55.8602 55.6069C56.3985 56.1452 57.041 56.5619 57.7876 56.8397C58.5343 57.1175 59.333 57.2738 60.2012 57.2738C61.0521 57.2738 61.8682 57.1175 62.6149 56.8397C63.3615 56.5619 64.004 56.1278 64.5596 55.6069C65.0979 55.0686 65.532 54.4435 65.8446 53.7142C66.1571 53.0022 66.3134 52.1688 66.3134 51.3006C66.2961 50.4324 66.1398 49.6162 65.8446 48.9043ZM63.6567 52.8286C63.5004 53.3148 63.24 53.7315 62.9448 54.1135C62.6322 54.4782 62.2502 54.7734 61.7814 54.9818C61.3126 55.1901 60.809 55.3117 60.2186 55.3117C59.6282 55.3117 59.0899 55.2075 58.6558 54.9818C58.187 54.7734 57.805 54.4608 57.4924 54.1135C57.1799 53.7489 56.9542 53.3148 56.7805 52.8286C56.6242 52.3424 56.5201 51.8562 56.5201 51.3179C56.5201 50.7796 56.5895 50.2934 56.7805 49.8072C56.9368 49.321 57.1973 48.9043 57.4924 48.557C57.805 48.1924 58.187 47.9146 58.6558 47.6888C59.1247 47.4805 59.6282 47.3589 60.2186 47.3589C60.809 47.3589 61.3473 47.4631 61.7814 47.6888C62.2502 47.8972 62.6322 48.2097 62.9448 48.557C63.2573 48.9217 63.4831 49.3558 63.6567 49.8072C63.813 50.2934 63.9172 50.8144 63.9172 51.3179C63.8824 51.8215 63.813 52.3424 63.6567 52.8286Z" fill="#404040"/>
<path d="M92.62 55.0859C92.62 55.7284 92.0991 56.2493 91.4566 56.2493H74.9954C74.353 56.2493 73.832 55.7284 73.832 55.0859C73.832 54.4435 74.353 53.9225 74.9954 53.9225H91.4566C92.1165 53.9399 92.62 54.4435 92.62 55.0859Z" fill="#FFA216"/>
<path d="M84.7715 40.6043C84.7715 41.2467 84.2506 41.7677 83.6081 41.7677H71.2796C70.6371 41.7677 70.1162 41.2467 70.1162 40.6043C70.1162 39.9618 70.6371 39.4409 71.2796 39.4409H83.6081C84.2506 39.4409 84.7715 39.9618 84.7715 40.6043Z" fill="#6556C4"/>
<path d="M92.62 45.4315C92.62 46.074 92.0991 46.5949 91.4566 46.5949H74.9954C74.353 46.5949 73.832 46.074 73.832 45.4315C73.832 44.789 74.353 44.2681 74.9954 44.2681H91.4566C92.1165 44.2681 92.62 44.789 92.62 45.4315Z" fill="#2D96CB"/>
<path d="M100 50.2587C100 50.9012 99.479 51.4221 98.8366 51.4221H78.8157C78.1733 51.4221 77.6523 50.9012 77.6523 50.2587C77.6523 49.6162 78.1733 49.0953 78.8157 49.0953H98.8539C99.4791 49.0953 100 49.6162 100 50.2587Z" fill="#45AE3D"/>
<path d="M84.7715 59.9132C84.7715 60.5556 84.2506 61.0765 83.6081 61.0765H71.2796C70.6371 61.0765 70.1162 60.5556 70.1162 59.9132C70.1162 59.2707 70.6371 58.7498 71.2796 58.7498H83.6081C84.2506 58.7671 84.7715 59.2707 84.7715 59.9132Z" fill="#F74E0A"/>
</g>
<defs>
<clipPath id="clip0_15381_206465">
<rect width="100" height="21.6183" fill="white" transform="translate(0 39.4408)"/>
</clipPath>
</defs>
</svg>
