<svg width="100" height="100" viewBox="0 0 100 100" fill="none" xmlns="http://www.w3.org/2000/svg">
<path fill-rule="evenodd" clip-rule="evenodd" d="M95.0793 33.0476H79.0387V15.4456C79.0387 12.806 76.7149 10.4951 74.0605 10.4951H5.47333C2.81888 10.4951 0.495117 12.806 0.495117 15.4456V59.4506C0.495117 62.0912 2.81888 64.4011 5.47333 64.4011H30.9169C30.9169 67.1506 30.6961 68.5813 29.811 69.4615C28.3723 70.8912 24.5011 71.5516 16.5357 71.5516H14.8763V79.2525H65.21V85.303C65.211 87.7228 67.202 89.703 69.6367 89.703H95.0793C97.5129 89.703 99.505 87.7228 99.505 85.303V37.4476C99.505 35.0268 97.5139 33.0476 95.0793 33.0476Z" fill="white"/>
<path fill-rule="evenodd" clip-rule="evenodd" d="M77.3807 68.2515L88.7747 60L77.3807 51.7495V68.2515ZM62.9985 73.202C45.6302 73.202 46.9579 70.4515 46.9579 60.001H39.7678H32.5767C32.5767 70.4525 33.9035 73.203 16.5361 73.203V77.603H62.9985V73.202Z" fill="#515150"/>
<path fill-rule="evenodd" clip-rule="evenodd" d="M39.7667 44.4892C38.8388 44.4945 37.9189 44.3164 37.0601 43.9649C36.2012 43.6135 35.4204 43.0957 34.7624 42.4414C34.1044 41.7871 33.5822 41.0091 33.226 40.1522C32.8697 39.2954 32.6864 38.3766 32.6865 37.4486C32.6865 33.4882 35.8944 30.2981 39.7667 30.2981C43.7489 30.2981 46.9568 33.4882 46.9568 37.4486C46.8459 41.409 43.638 44.4892 39.7667 44.4892ZM77.3796 68.8011L88.7737 60.0001L77.3796 51.1991V68.8011Z" fill="#515150"/>
<path fill-rule="evenodd" clip-rule="evenodd" d="M80.6979 62.7507V57.2497H7.68598V17.6458H71.8484V32.4972H77.38V15.4458C77.38 13.7953 75.7206 12.1458 74.0612 12.1458H5.47311C3.8137 12.1458 2.1543 13.7962 2.1543 15.4458V59.4507C2.1543 61.1012 3.8137 62.7507 5.47311 62.7507H32.5771C32.687 71.0012 32.3553 73.2022 16.5365 73.2022V77.6022H62.9989V73.2022C47.18 73.2022 46.8474 71.0022 46.9583 62.7507H80.6979ZM95.08 34.6982H46.2939C45.188 32.1675 42.6434 30.4071 39.7672 30.4071C35.784 30.4071 32.5761 33.5982 32.5761 37.4477C32.5761 41.2972 35.784 44.4883 39.7672 44.4883C42.7543 44.4883 45.2979 42.7279 46.2939 40.1972H93.4206V80.9012H71.2959V64.9507H66.8711V85.3032C66.8711 86.8428 68.088 88.0537 69.6365 88.0537H95.08C96.6285 88.0537 97.8454 86.8438 97.8454 85.3032V37.4477C97.8454 35.9071 96.6285 34.6982 95.08 34.6982ZM85.1236 85.3032H79.5929V83.6527H85.1236V85.3032Z" fill="#515150"/>
</svg>
