<svg width="100" height="100" viewBox="0 0 100 100" fill="none" xmlns="http://www.w3.org/2000/svg">
<path d="M18.5421 44.6187C17.5704 43.6028 16.4076 42.7904 15.1191 42.2285C13.835 41.6869 12.4545 41.4143 11.0615 41.4267C10.2677 41.4249 9.47569 41.5108 8.70047 41.6825C7.94738 41.8497 7.2164 42.1046 6.52348 42.4426C5.53676 42.9294 4.6341 43.5692 3.84826 44.34V34.9789C3.84826 34.9002 3.83322 34.8223 3.80313 34.7497C3.77304 34.6771 3.72879 34.6108 3.67304 34.5559C3.61729 34.5002 3.55092 34.4568 3.47835 34.4267C3.40578 34.3966 3.32791 34.3825 3.24915 34.3833H0.759766C0.68189 34.3833 0.604014 34.3984 0.531448 34.4285C0.458881 34.4586 0.393395 34.5019 0.338527 34.5577C0.282775 34.6134 0.239412 34.6789 0.209324 34.7515C0.179235 34.824 0.164191 34.9019 0.165076 34.9798V53.4701C0.17835 54.4453 0.361536 55.4099 0.705784 56.3223C1.06862 57.3081 1.57393 58.2355 2.20401 59.0754C2.74384 59.7975 3.39162 60.4311 4.12614 60.9532C4.80136 61.4302 5.52437 61.8347 6.28366 62.1603C7.76773 62.809 9.37127 63.1391 10.9907 63.1294C12.3916 63.1409 13.7801 62.8709 15.0748 62.3338C16.3686 61.7789 17.5394 60.9709 18.5182 59.9586C19.527 58.9648 20.3235 57.7763 20.8598 56.4656C21.3969 55.155 21.6624 53.7479 21.6403 52.3311C21.6527 50.8984 21.3907 49.4763 20.8668 48.1417C20.3261 46.8267 19.5341 45.6294 18.5359 44.6187M3.89428 50.2134C4.04561 49.6019 4.27746 49.0143 4.58366 48.4648C4.88277 47.9258 5.25446 47.4302 5.68985 46.994C6.13764 46.5488 6.64561 46.1674 7.19782 45.8612C7.75269 45.5471 8.34384 45.3046 8.95977 45.1391C9.56508 44.978 10.189 44.8975 10.8155 44.8984C11.427 44.8975 12.0359 44.978 12.6261 45.1391C13.2226 45.3028 13.7952 45.5453 14.3279 45.8612C14.8704 46.1745 15.3668 46.563 15.8014 47.0143C16.2491 47.4807 16.6341 48.0037 16.9474 48.5701C17.2651 49.1373 17.5137 49.7417 17.6863 50.3683C18.0102 51.5975 18.0102 52.8904 17.6863 54.1205C17.5191 54.74 17.2739 55.3364 16.9571 55.894C16.6456 56.4488 16.2642 56.9612 15.8217 57.4179C15.3872 57.863 14.8952 58.2497 14.3589 58.5656C13.8261 58.8833 13.2518 59.1267 12.6527 59.2878C11.1173 59.6842 9.49605 59.5851 8.01994 59.0046C6.27304 58.2462 4.89339 56.8311 4.17835 55.063C3.82525 54.1373 3.65003 53.1524 3.66242 52.1612C3.65977 51.5046 3.73853 50.8497 3.89516 50.2125L3.89428 50.2134Z" fill="black"/>
<path d="M34.1432 42.617C33.8989 42.4816 33.6414 42.371 33.3741 42.2887C32.9883 42.1763 32.5936 42.0993 32.1936 42.0603C31.8626 42.0267 31.5299 42.0099 31.1971 42.0108C30.5547 42.0214 29.9193 42.1409 29.3166 42.3639C28.7024 42.5816 28.1184 42.878 27.5803 43.2462C26.8644 43.7356 26.2246 44.3285 25.6812 45.0055C24.8839 46.0152 24.2954 47.1745 23.9494 48.4143C23.5794 49.7391 23.3989 51.109 23.414 52.4842V62.4922C23.414 62.5701 23.429 62.6479 23.4582 62.7205C23.4883 62.7931 23.5317 62.8586 23.5874 62.9143C23.6423 62.9692 23.7086 63.0134 23.7803 63.0435C23.8529 63.0736 23.9299 63.0887 24.0086 63.0878H26.5626C26.6414 63.0878 26.7184 63.0727 26.7909 63.0435C26.8635 63.0134 26.929 62.9701 26.9848 62.9143C27.0396 62.8586 27.0839 62.7931 27.114 62.7205C27.144 62.6479 27.1591 62.5701 27.1591 62.4922V55.8789C27.1591 54.3683 27.1989 53.0665 27.2724 52.0179C27.3122 51.4904 27.3564 51.0285 27.4113 50.6364C27.4529 50.3187 27.5148 50.0028 27.5945 49.6922C27.6936 49.3887 27.7883 49.1108 27.8865 48.8524C28.0219 48.4789 28.1927 48.1196 28.3971 47.7789C28.6343 47.4002 28.9175 47.0533 29.2405 46.7453C29.5281 46.463 29.8688 46.24 30.2423 46.0887C30.5821 45.9541 30.944 45.8851 31.3086 45.8851C31.6281 45.8833 31.9458 45.9382 32.2467 46.0453C32.3768 46.0931 32.5193 46.094 32.6494 46.0471C32.7794 46.001 32.8901 45.9099 32.9609 45.7913L34.3547 43.4409C34.4352 43.3028 34.4582 43.1382 34.4193 42.9833C34.4007 42.9064 34.3662 42.8338 34.3184 42.771C34.2706 42.7081 34.2104 42.655 34.1414 42.6161" fill="black"/>
<path d="M39.3607 36.355C39.1553 36.148 38.9102 35.9843 38.6403 35.8736C38.2359 35.7081 37.7916 35.6657 37.3633 35.7524C36.935 35.8391 36.5412 36.0497 36.2323 36.3586C35.9226 36.6674 35.712 37.0612 35.6253 37.4904C35.5385 37.9196 35.5801 38.3648 35.7438 38.7701C35.8545 39.0409 36.0173 39.286 36.2244 39.4922C36.4288 39.7002 36.6713 39.8674 36.9385 39.9843C37.2067 40.0975 37.4952 40.155 37.7863 40.1533C38.0766 40.1559 38.3651 40.1011 38.6341 39.9931C39.1766 39.7612 39.6084 39.3285 39.8394 38.786C39.9518 38.517 40.0067 38.2276 39.9996 37.9365C40.0014 37.6444 39.9438 37.3559 39.8306 37.0869C39.7261 36.8143 39.5633 36.5683 39.3536 36.3648" fill="black"/>
<path d="M57.5442 36.3548C57.3389 36.1477 57.0938 35.984 56.8239 35.8734C56.4194 35.7079 55.9752 35.6654 55.5469 35.7513C55.1186 35.8371 54.7247 36.0486 54.4159 36.3575C54.1062 36.6672 53.8955 37.061 53.8088 37.4902C53.7221 37.9194 53.7637 38.3646 53.9283 38.7699C54.0389 39.0407 54.2017 39.2858 54.4088 39.492C54.6132 39.6999 54.8557 39.8672 55.123 39.984C55.3911 40.0973 55.6796 40.1548 55.9708 40.153C56.261 40.1557 56.5495 40.1008 56.8186 39.9929C57.3601 39.761 57.792 39.3283 58.0239 38.7858C58.1363 38.5168 58.1911 38.2274 58.184 37.9362C58.1858 37.6442 58.1283 37.3557 58.015 37.0867C57.9106 36.8141 57.7478 36.5681 57.5389 36.3646" fill="black"/>
<path d="M39.053 42.3931H36.5486C36.4698 42.3931 36.3929 42.4081 36.3203 42.4382C36.2477 42.4683 36.1822 42.5117 36.1265 42.5674C36.0716 42.6232 36.0274 42.6886 35.9973 42.7612C35.9672 42.8338 35.9521 42.9117 35.9521 42.9895V62.5125C35.9521 62.5913 35.9672 62.6683 35.9973 62.7409C36.0274 62.8134 36.0707 62.8789 36.1265 62.9347C36.1822 62.9904 36.2477 63.0338 36.3203 63.0639C36.3929 63.094 36.4698 63.109 36.5486 63.109H39.053C39.1309 63.109 39.2088 63.094 39.2814 63.0639C39.3539 63.0338 39.4194 62.9904 39.4743 62.9347C39.53 62.8789 39.5734 62.8134 39.6035 62.7409C39.6336 62.6683 39.6486 62.5904 39.6477 62.5125V42.9895C39.6477 42.9108 39.6327 42.8338 39.6035 42.7612C39.5734 42.6886 39.53 42.6232 39.4743 42.5674C39.4194 42.5117 39.353 42.4683 39.2814 42.4382C39.2088 42.4081 39.1318 42.3931 39.053 42.3931Z" fill="black"/>
<path d="M51.5916 59.5487C51.5624 59.4682 51.5164 59.3948 51.4562 59.3346C51.396 59.2735 51.3234 59.2266 51.2438 59.1957C51.1633 59.1665 51.0774 59.1532 50.9925 59.1585C50.9075 59.1638 50.8234 59.1859 50.7473 59.2257C50.4704 59.3762 50.1774 59.4957 49.8748 59.5833C49.604 59.6594 49.3226 59.6974 49.0411 59.6974C48.8102 59.6974 48.581 59.6709 48.3562 59.6169C48.1226 59.5585 47.8951 59.478 47.6765 59.3762C47.4695 59.2594 47.2872 59.1018 47.1411 58.9142C46.9916 58.7284 46.8642 58.5266 46.7588 58.3134C46.5509 57.8877 46.3889 57.4417 46.2765 56.9815C46.127 56.3815 46.0164 55.7726 45.9438 55.1585V47.5372H49.9659C50.0438 47.5372 50.1217 47.5222 50.1942 47.493C50.2668 47.4629 50.3323 47.4195 50.388 47.3638C50.4429 47.308 50.4872 47.2426 50.5173 47.17C50.5473 47.0974 50.5624 47.0195 50.5615 46.9417V44.7886C50.5615 44.7098 50.5465 44.6328 50.5173 44.5603C50.4872 44.4877 50.4438 44.4222 50.388 44.3664C50.3323 44.3107 50.2668 44.2673 50.1942 44.2372C50.1217 44.2072 50.0447 44.1921 49.9659 44.193H45.9234V35.3567C45.9234 35.278 45.9084 35.201 45.8792 35.1284C45.8491 35.0558 45.8057 34.9903 45.75 34.9346C45.6942 34.8788 45.6288 34.8355 45.5562 34.8054C45.4836 34.7753 45.4066 34.7603 45.3279 34.7603H42.8031C42.7252 34.7603 42.6473 34.7753 42.5757 34.8054C42.5031 34.8355 42.4376 34.8788 42.3819 34.9346C42.327 34.9903 42.2827 35.0558 42.2526 35.1284C42.2226 35.201 42.2075 35.2788 42.2084 35.3567V55.6187C42.1987 55.7576 42.1934 55.9018 42.1934 56.0408C42.1934 56.6974 42.2827 57.3514 42.4606 57.9833C42.6456 58.6364 42.9146 59.2629 43.2615 59.847C43.5429 60.3284 43.8712 60.7797 44.2429 61.1939C44.758 61.7691 45.3792 62.2381 46.0739 62.5753C46.7677 62.9036 47.5199 63.0912 48.2863 63.1275H48.296C48.3704 63.1319 48.4447 63.1319 48.5243 63.1319C49.0845 63.1275 49.6438 63.0647 50.1907 62.9434C50.8111 62.8072 51.419 62.6222 52.0111 62.3912C52.0845 62.3629 52.1527 62.3204 52.2093 62.2656C52.2668 62.2107 52.3119 62.1452 52.3438 62.0726C52.3757 62.0001 52.3916 61.9213 52.3925 61.8426C52.3925 61.7638 52.3783 61.685 52.3482 61.6116C52.165 61.1302 51.9066 60.439 51.5889 59.5549" fill="black"/>
<path d="M57.2358 42.3931H54.7314C54.6535 42.3931 54.5756 42.4081 54.503 42.4382C54.4305 42.4683 54.365 42.5117 54.3092 42.5674C54.2544 42.6232 54.2101 42.6886 54.18 42.7612C54.1499 42.8338 54.1349 42.9117 54.1358 42.9895V62.5125C54.1358 62.5913 54.1508 62.6683 54.18 62.7409C54.2101 62.8134 54.2535 62.8789 54.3092 62.9347C54.365 62.9904 54.4305 63.0338 54.503 63.0639C54.5756 63.094 54.6526 63.109 54.7314 63.109H57.2358C57.3145 63.109 57.3915 63.094 57.4641 63.0639C57.5367 63.0338 57.6022 62.9904 57.657 62.9347C57.7128 62.8789 57.7561 62.8134 57.7862 62.7409C57.8163 62.6683 57.8314 62.5904 57.8305 62.5125V42.9895C57.8305 42.9108 57.8154 42.8338 57.7862 42.7612C57.7561 42.6886 57.7128 42.6232 57.657 42.5674C57.6022 42.5117 57.5358 42.4683 57.4641 42.4382C57.3915 42.4081 57.3145 42.3931 57.2358 42.3931Z" fill="black"/>
<path d="M79.1359 42.7002C79.082 42.6161 79.0076 42.5471 78.92 42.4993C78.8324 42.4515 78.7342 42.4268 78.6342 42.4268H75.951C75.8368 42.4268 75.7253 42.4586 75.6289 42.5206C75.5333 42.5825 75.4572 42.671 75.4103 42.7754L69.4846 55.7949L63.5076 42.7754C63.4598 42.6719 63.3837 42.5834 63.2881 42.5214C63.1926 42.4595 63.0811 42.4268 62.9669 42.4268H60.3032C60.2032 42.4268 60.105 42.4515 60.0174 42.4993C59.9297 42.5471 59.8554 42.6161 59.8014 42.7002C59.7474 42.7843 59.7156 42.8807 59.7085 42.9807C59.7014 43.0807 59.72 43.1807 59.7616 43.271L68.7306 62.7949C68.7784 62.8984 68.8554 62.9861 68.951 63.0471C69.0466 63.1091 69.1581 63.1418 69.2713 63.1427H69.7174C69.8315 63.1427 69.943 63.1108 70.0395 63.0489C70.1359 62.9869 70.2112 62.8984 70.2581 62.794L79.1766 43.2701C79.2182 43.179 79.2359 43.079 79.2297 42.9799C79.2227 42.8799 79.1917 42.7834 79.1377 42.6993" fill="black"/>
<path d="M99.0308 48.6328C98.6635 47.4779 98.0901 46.3983 97.3388 45.4478C96.3609 44.1691 95.0972 43.1381 93.6494 42.4363C92.9343 42.0965 92.1812 41.8434 91.4069 41.6806C90.5901 41.5098 89.7582 41.4266 88.9246 41.4319C88.1096 41.4266 87.2963 41.5071 86.4989 41.6726C85.3653 41.9062 84.2848 42.346 83.3096 42.9699C82.3166 43.6106 81.4423 44.4195 80.7255 45.3593C79.1458 47.3416 78.2972 49.8098 78.3228 52.346C78.3175 53.6921 78.5582 55.0275 79.0326 56.2868C79.5273 57.5699 80.2441 58.7567 81.1511 59.7903C81.6184 60.3354 82.1458 60.8257 82.7228 61.2514C83.5927 61.8841 84.5671 62.3602 85.5998 62.6576C86.7211 62.977 87.8821 63.1328 89.0467 63.1195C90.4335 63.1416 91.8122 62.9071 93.114 62.4283C94.3193 61.9699 95.4273 61.2868 96.3786 60.416C97.4237 59.4257 98.2768 58.2496 98.8927 56.9469C98.9618 56.808 98.9742 56.6478 98.9264 56.5C98.8795 56.3522 98.7759 56.2292 98.6396 56.1567L96.5467 55.0381C96.4122 54.9664 96.2547 54.9487 96.1078 54.9894C95.9618 55.0301 95.8361 55.1257 95.7573 55.2567C95.4299 55.8098 95.0715 56.3434 94.6857 56.8576C93.8963 57.9328 92.7945 58.7372 91.5317 59.1629C90.6724 59.4876 89.7618 59.6522 88.8432 59.6496C87.9529 59.6593 87.0689 59.4912 86.2441 59.1531C85.4343 58.8053 84.7051 58.2938 84.1007 57.6522C83.4644 56.9947 82.9671 56.216 82.6379 55.362C82.3582 54.6257 82.1874 53.8522 82.1317 53.0664H99.0069C99.1644 53.0646 99.3158 53.0027 99.4281 52.8921C99.4839 52.8372 99.529 52.7708 99.5582 52.6983C99.5883 52.6257 99.6034 52.5478 99.6025 52.4691C99.606 51.1664 99.4122 49.8717 99.0264 48.6283M84.429 46.7204C85.0343 46.1699 85.7379 45.7381 86.5025 45.4478C87.2866 45.1593 88.1175 45.016 88.9538 45.0257C90.014 45.0239 91.0627 45.2567 92.0237 45.7071C92.4892 45.9213 92.9299 46.1859 93.3379 46.4974C93.7149 46.7814 94.0556 47.1115 94.3503 47.4806C94.6565 47.8744 94.914 48.3027 95.1184 48.7576C95.26 49.0708 95.3821 49.3921 95.4857 49.7204H82.5927C82.7697 49.2151 82.9866 48.7248 83.2432 48.2549C83.552 47.6806 83.9538 47.1611 84.4335 46.7195" fill="black"/>
<path d="M5.78097 52.5984C5.78363 53.0134 5.8854 53.4214 6.0792 53.7904C6.30664 54.1931 6.64027 54.5285 7.04469 54.7603C7.44911 54.9922 7.90929 55.1117 8.37743 55.1072C8.42168 55.1072 8.46504 55.1072 8.50929 55.1028C9.22345 55.0772 9.90575 54.8037 10.4358 54.3311C10.8836 53.9249 11.2588 53.4471 11.5456 52.9179C11.8314 52.3895 12.2261 51.9258 12.7049 51.5568C12.9624 51.3621 13.2765 51.2559 13.6004 51.2533C13.6925 51.2541 13.7836 51.2621 13.8739 51.2772C14.2252 51.3364 14.5447 51.517 14.7739 51.786C15.0031 52.0559 15.1279 52.3966 15.1261 52.748C15.1261 52.8816 15.1102 53.0143 15.0774 53.1435C14.9934 53.4736 14.7969 53.7657 14.5199 53.9683C14.2562 54.1603 13.9376 54.263 13.6102 54.263C13.2146 54.2603 12.835 54.1126 12.5447 53.848C12.5031 53.8064 12.4544 53.771 12.4031 53.7418C12.3473 53.7126 12.2854 53.6975 12.2226 53.6984C12.181 53.6984 12.1394 53.7046 12.1004 53.7179C12.0084 53.7435 11.9279 53.7984 11.8704 53.8736C11.8173 53.9435 11.7881 54.0276 11.7872 54.1152C11.7889 54.1798 11.8031 54.2435 11.8305 54.3028C11.858 54.3612 11.8969 54.4143 11.9447 54.4586C12.0358 54.5426 12.1341 54.6179 12.2385 54.6851C12.6394 54.9603 13.1146 55.1081 13.6031 55.1099C14.135 55.1099 14.6509 54.932 15.065 54.6037C15.3491 54.3842 15.5819 54.1064 15.7447 53.7878C15.8978 53.4772 15.9765 53.1356 15.9748 52.7895C15.9739 52.6754 15.9659 52.5603 15.95 52.4471C15.9084 52.0949 15.7827 51.7577 15.5827 51.463C15.3765 51.1718 15.1093 50.9267 14.8004 50.7444C14.4456 50.5311 14.0376 50.4187 13.6217 50.4214C13.4748 50.4232 13.3279 50.4347 13.1819 50.455C12.9146 50.4984 12.658 50.5895 12.4235 50.7249C12.1969 50.8577 11.9863 51.0161 11.7978 51.1975C11.3748 51.6152 11.0128 52.0895 10.7217 52.6064C10.4748 53.0488 10.15 53.4444 9.76327 53.7745C9.36327 54.0931 8.86416 54.2657 8.35 54.2621H8.27124C8.03673 54.2559 7.80487 54.2028 7.59159 54.1064C7.37655 54.0019 7.18363 53.8577 7.02434 53.6816C6.75708 53.3745 6.61283 52.9816 6.61814 52.5772C6.61726 52.3612 6.65885 52.1462 6.74027 51.9453C6.90221 51.5453 7.21637 51.2232 7.61549 51.048C7.82876 50.9515 8.06062 50.9002 8.29513 50.8984C8.38363 50.8966 8.47212 50.9046 8.55885 50.9223C8.92434 50.9851 9.26416 51.1515 9.53673 51.3993C9.57212 51.4294 9.61195 51.4533 9.65442 51.4718C9.69779 51.4922 9.7438 51.5055 9.79071 51.5108H9.83496C9.91549 51.5108 9.99336 51.4878 10.0597 51.4435C10.1226 51.3975 10.1748 51.3382 10.2111 51.2701C10.2411 51.217 10.2571 51.1568 10.2597 51.0966C10.2597 51.0426 10.2465 50.9887 10.2199 50.9409C10.196 50.894 10.165 50.8515 10.127 50.8152C9.91903 50.5957 9.6677 50.4196 9.38894 50.2993C9.27655 50.2506 9.16416 50.2072 9.05177 50.1586C9.14292 49.9382 9.28363 49.74 9.46239 49.5798C9.64381 49.4126 9.85442 49.2789 10.0836 49.1842C10.3066 49.0931 10.5465 49.0471 10.7881 49.0497C10.8881 49.0497 10.9881 49.0559 11.0863 49.0692C11.55 49.1276 11.9757 49.3506 12.2845 49.6957C12.3252 49.7453 12.3633 49.7975 12.3969 49.8515C12.4367 49.909 12.4704 49.9718 12.519 50.0347C12.5624 50.0895 12.6164 50.1347 12.6765 50.1692C12.7394 50.2037 12.8102 50.2214 12.8819 50.2223C12.8996 50.2223 12.9181 50.2223 12.9358 50.2179C13.0137 50.209 13.0872 50.1772 13.1456 50.1258C13.2022 50.0754 13.2456 50.0126 13.273 49.9426C13.2907 49.9019 13.2987 49.8568 13.2978 49.8126C13.2951 49.7621 13.2854 49.7108 13.2686 49.663C13.25 49.6214 13.2288 49.5807 13.2049 49.5426C13.0199 49.248 12.7827 48.9887 12.5058 48.7754C12.2261 48.5639 11.9066 48.409 11.5668 48.3179C11.3181 48.2471 11.0615 48.209 10.8031 48.2046C10.442 48.2046 10.0845 48.2745 9.75177 48.4117C9.26416 48.5993 8.84558 48.9276 8.54823 49.3524C8.3969 49.5789 8.27389 49.8161 8.1323 50.0621C8.11726 50.0621 8.1031 50.0665 8.08805 50.0665C7.47743 50.109 6.90398 50.3736 6.4792 50.8099C6.25177 51.04 6.06858 51.3099 5.94115 51.6055C5.8146 51.9037 5.75 52.2232 5.75 52.5462C5.7792 52.5701 5.7792 52.5851 5.7792 52.5993L5.78097 52.5984Z" fill="black"/>
</svg>
