<svg width="100" height="100" viewBox="0 0 100 100" fill="none" xmlns="http://www.w3.org/2000/svg">
<path d="M80.5929 97.6998H71.22C67.5896 97.6998 64.6523 94.7625 64.6523 91.1321V87.2708C64.6523 86.7427 64.2233 86.3467 63.7282 86.3467H35.5764C35.0484 86.3467 34.6523 86.7757 34.6523 87.2708V91.1321C34.6523 94.7625 31.715 97.6998 28.0847 97.6998H18.6457C15.0154 97.6998 12.0781 94.7625 12.0781 91.1321V86.0496C6.17049 84.7625 1.74805 79.482 1.74805 73.2114V15.1255C1.78105 7.89783 7.65564 1.99023 14.9164 1.99023H84.3553C91.583 1.99023 97.4906 7.89783 97.4906 15.1255V73.2114C97.4906 79.482 93.0682 84.7625 87.1606 86.0496V91.1321C87.1606 94.7625 84.2233 97.6998 80.5929 97.6998ZM35.5434 80.7031H63.6952C67.3256 80.7031 70.2629 83.6404 70.2629 87.2708V91.1321C70.2629 91.6602 70.6919 92.0562 71.187 92.0562H80.5599C81.088 92.0562 81.484 91.6272 81.484 91.1321V83.5414C81.484 81.9902 82.7381 80.7361 84.2893 80.7361C88.4147 80.7361 91.7811 77.3698 91.7811 73.2444V15.1586C91.7811 11.0331 88.4147 7.6668 84.2893 7.6668H14.9164C10.791 7.6668 7.42461 11.0331 7.42461 15.1586V73.2444C7.42461 77.3698 10.791 80.7361 14.9164 80.7361C16.4675 80.7361 17.7216 81.9902 17.7216 83.5414V91.1321C17.7216 91.6602 18.1507 92.0562 18.6457 92.0562H28.0517C28.5797 92.0562 28.9758 91.6272 28.9758 91.1321V87.2708C28.9758 83.6734 31.9131 80.7031 35.5434 80.7031Z" fill="#226DB4"/>
<path d="M58.3493 39.9437C57.8873 38.4585 56.2701 37.6665 54.818 38.1285L43.7288 41.6929V30.1417C43.7288 28.5906 42.4747 27.3364 40.9236 27.3364C39.3724 27.3364 38.1183 28.5906 38.1183 30.1417V41.6929L27.0622 38.1285C25.577 37.6335 23.9929 38.4585 23.5308 39.9437C23.0688 41.4288 23.8609 43.013 25.346 43.475L36.4021 47.0394L29.5374 56.4783C28.6133 57.7325 28.9104 59.5146 30.1645 60.4057C30.6595 60.7688 31.2536 60.9338 31.8147 60.9338C32.6727 60.9338 33.5308 60.5378 34.0919 59.7787L40.9566 50.3397L47.8213 59.7787C48.3823 60.5378 49.2404 60.9338 50.0985 60.9338C50.6595 60.9338 51.2536 60.7688 51.7486 60.4057C53.0028 59.4816 53.2668 57.7325 52.3757 56.4783L45.544 47.0724L56.6001 43.508C57.9863 43.013 58.8114 41.4288 58.3493 39.9437Z" fill="#E42527"/>
<path d="M73.069 60.9012C71.5178 60.9012 70.2637 59.6471 70.2637 58.0959V30.2081C70.2637 28.657 71.5178 27.4028 73.069 27.4028C74.6201 27.4028 75.8742 28.657 75.8742 30.2081V58.0959C75.8742 59.6471 74.6201 60.9012 73.069 60.9012Z" fill="#226DB4"/>
</svg>
