<svg width="100" height="100" viewBox="0 0 100 100" fill="none" xmlns="http://www.w3.org/2000/svg">
<g clip-path="url(#clip0_15910_61467)">
<path d="M16.4468 31.6551C19.7559 31.6551 22.4385 28.9296 22.4385 25.5676C22.4385 22.2056 19.7559 19.4801 16.4468 19.4801C13.1377 19.4801 10.4551 22.2056 10.4551 25.5676C10.4551 28.9296 13.1377 31.6551 16.4468 31.6551Z" fill="#509EE3"/>
<path d="M16.4468 48.6999C19.7559 48.6999 22.4385 45.9744 22.4385 42.6124C22.4385 39.2504 19.7559 36.5249 16.4468 36.5249C13.1377 36.5249 10.4551 39.2504 10.4551 42.6124C10.4551 45.9744 13.1377 48.6999 16.4468 48.6999Z" fill="#509EE3"/>
<path opacity="0.2" d="M33.2222 31.6551C36.5313 31.6551 39.2139 28.9296 39.2139 25.5676C39.2139 22.2056 36.5313 19.4801 33.2222 19.4801C29.9131 19.4801 27.2305 22.2056 27.2305 25.5676C27.2305 28.9296 29.9131 31.6551 33.2222 31.6551Z" fill="#509EE3"/>
<path d="M33.2222 48.8655C36.5313 48.8655 39.2139 46.1401 39.2139 42.778C39.2139 39.416 36.5313 36.6906 33.2222 36.6906C29.9131 36.6906 27.2305 39.416 27.2305 42.778C27.2305 46.1401 29.9131 48.8655 33.2222 48.8655Z" fill="#509EE3"/>
<path opacity="0.2" d="M50.0005 31.6551C53.3096 31.6551 55.9922 28.9296 55.9922 25.5676C55.9922 22.2056 53.3096 19.4801 50.0005 19.4801C46.6914 19.4801 44.0088 22.2056 44.0088 25.5676C44.0088 28.9296 46.6914 31.6551 50.0005 31.6551Z" fill="#509EE3"/>
<path opacity="0.2" d="M50.0005 12.175C53.3096 12.175 55.9922 9.44952 55.9922 6.08749C55.9922 2.72546 53.3096 0 50.0005 0C46.6914 0 44.0088 2.72546 44.0088 6.08749C44.0088 9.44952 46.6914 12.175 50.0005 12.175Z" fill="#509EE3"/>
<path opacity="0.2" d="M50.0005 48.8655C53.3096 48.8655 55.9922 46.1401 55.9922 42.778C55.9922 39.416 53.3096 36.6906 50.0005 36.6906C46.6914 36.6906 44.0088 39.416 44.0088 42.778C44.0088 46.1401 46.6914 48.8655 50.0005 48.8655Z" fill="#509EE3"/>
<path opacity="0.2" d="M66.7769 31.6551C70.086 31.6551 72.7686 28.9296 72.7686 25.5676C72.7686 22.2056 70.086 19.4801 66.7769 19.4801C63.4677 19.4801 60.7852 22.2056 60.7852 25.5676C60.7852 28.9296 63.4677 31.6551 66.7769 31.6551Z" fill="#509EE3"/>
<path d="M83.5542 31.6551C86.8633 31.6551 89.5459 28.9296 89.5459 25.5676C89.5459 22.2056 86.8633 19.4801 83.5542 19.4801C80.2451 19.4801 77.5625 22.2056 77.5625 25.5676C77.5625 28.9296 80.2451 31.6551 83.5542 31.6551Z" fill="#509EE3"/>
<path d="M66.7769 48.8655C70.086 48.8655 72.7686 46.1401 72.7686 42.778C72.7686 39.416 70.086 36.6906 66.7769 36.6906C63.4677 36.6906 60.7852 39.416 60.7852 42.778C60.7852 46.1401 63.4677 48.8655 66.7769 48.8655Z" fill="#509EE3"/>
<path d="M83.5542 48.8655C86.8633 48.8655 89.5459 46.1401 89.5459 42.778C89.5459 39.416 86.8633 36.6906 83.5542 36.6906C80.2451 36.6906 77.5625 39.416 77.5625 42.778C77.5625 46.1401 80.2451 48.8655 83.5542 48.8655Z" fill="#509EE3"/>
<path d="M16.4468 65.7448C19.7559 65.7448 22.4385 63.0193 22.4385 59.6573C22.4385 56.2953 19.7559 53.5698 16.4468 53.5698C13.1377 53.5698 10.4551 56.2953 10.4551 59.6573C10.4551 63.0193 13.1377 65.7448 16.4468 65.7448Z" fill="#509EE3"/>
<path opacity="0.2" d="M33.2222 65.9103C36.5313 65.9103 39.2139 63.1849 39.2139 59.8228C39.2139 56.4608 36.5313 53.7354 33.2222 53.7354C29.9131 53.7354 27.2305 56.4608 27.2305 59.8228C27.2305 63.1849 29.9131 65.9103 33.2222 65.9103Z" fill="#509EE3"/>
<path d="M50.0005 65.9103C53.3096 65.9103 55.9922 63.1849 55.9922 59.8228C55.9922 56.4608 53.3096 53.7354 50.0005 53.7354C46.6914 53.7354 44.0088 56.4608 44.0088 59.8228C44.0088 63.1849 46.6914 65.9103 50.0005 65.9103Z" fill="#509EE3"/>
<path opacity="0.2" d="M66.7769 65.9103C70.086 65.9103 72.7686 63.1849 72.7686 59.8228C72.7686 56.4608 70.086 53.7354 66.7769 53.7354C63.4677 53.7354 60.7852 56.4608 60.7852 59.8228C60.7852 63.1849 63.4677 65.9103 66.7769 65.9103Z" fill="#509EE3"/>
<path d="M83.5542 65.9103C86.8633 65.9103 89.5459 63.1849 89.5459 59.8228C89.5459 56.4608 86.8633 53.7354 83.5542 53.7354C80.2451 53.7354 77.5625 56.4608 77.5625 59.8228C77.5625 63.1849 80.2451 65.9103 83.5542 65.9103Z" fill="#509EE3"/>
<path d="M16.4468 82.7896C19.7559 82.7896 22.4385 80.0641 22.4385 76.7021C22.4385 73.3401 19.7559 70.6146 16.4468 70.6146C13.1377 70.6146 10.4551 73.3401 10.4551 76.7021C10.4551 80.0641 13.1377 82.7896 16.4468 82.7896Z" fill="#509EE3"/>
<path opacity="0.2" d="M33.2222 82.9551C36.5313 82.9551 39.2139 80.2297 39.2139 76.8676C39.2139 73.5056 36.5313 70.7802 33.2222 70.7802C29.9131 70.7802 27.2305 73.5056 27.2305 76.8676C27.2305 80.2297 29.9131 82.9551 33.2222 82.9551Z" fill="#509EE3"/>
<path opacity="0.2" d="M50.0005 82.9551C53.3096 82.9551 55.9922 80.2297 55.9922 76.8676C55.9922 73.5056 53.3096 70.7802 50.0005 70.7802C46.6914 70.7802 44.0088 73.5056 44.0088 76.8676C44.0088 80.2297 46.6914 82.9551 50.0005 82.9551Z" fill="#509EE3"/>
<path opacity="0.2" d="M50.0005 100C53.3096 100 55.9922 97.275 55.9922 93.9129C55.9922 90.5509 53.3096 87.8254 50.0005 87.8254C46.6914 87.8254 44.0088 90.5509 44.0088 93.9129C44.0088 97.275 46.6914 100 50.0005 100Z" fill="#509EE3"/>
<path opacity="0.2" d="M66.7769 82.9551C70.086 82.9551 72.7686 80.2297 72.7686 76.8676C72.7686 73.5056 70.086 70.7802 66.7769 70.7802C63.4677 70.7802 60.7852 73.5056 60.7852 76.8676C60.7852 80.2297 63.4677 82.9551 66.7769 82.9551Z" fill="#509EE3"/>
<path d="M83.5542 82.9551C86.8633 82.9551 89.5459 80.2297 89.5459 76.8676C89.5459 73.5056 86.8633 70.7802 83.5542 70.7802C80.2451 70.7802 77.5625 73.5056 77.5625 76.8676C77.5625 80.2297 80.2451 82.9551 83.5542 82.9551Z" fill="#509EE3"/>
</g>
<defs>
<clipPath id="clip0_15910_61467">
<rect width="100" height="100" fill="white"/>
</clipPath>
</defs>
</svg>
