<svg width="100" height="100" viewBox="0 0 100 100" fill="none" xmlns="http://www.w3.org/2000/svg">
<path d="M22.3282 60.6258H23.6012C23.8926 60.6258 24.1534 60.365 24.1687 60.0736V45.9018C24.1687 44.5061 23.0644 43.3712 21.6994 43.3712H20.0583C19.7669 43.3712 19.5061 43.1104 19.5061 42.819V41.5307C19.5061 40.135 18.4018 39 17.0368 39H6.46933C5.10429 39 4 40.1196 4 41.5307V55.7791C4 57.1595 5.10429 58.2945 6.46933 58.3098H18.7086C18.816 58.3098 18.9233 58.3405 19.0153 58.4018L22.0061 60.5491C22.0982 60.5951 22.2209 60.6258 22.3282 60.6258ZM19.3528 56.2699H6.5C6.19325 56.2699 5.94785 56.0245 5.94785 55.7178V41.5613C5.94785 41.2546 6.19325 41.0092 6.5 41.0092H17.0061C17.2975 41.0092 17.5583 41.2699 17.5583 41.5613V42.819C17.5583 43.1258 17.3129 43.3712 17.0061 43.3712H9.18405C8.89264 43.3712 8.6319 43.6319 8.6319 43.9233V53.3712C8.6319 53.6779 8.8773 53.9233 9.18405 53.9233H18.954C19.2454 53.9233 19.5061 53.6626 19.5061 53.3712V45.9325C19.5061 45.6258 19.7515 45.3804 20.0583 45.3804H21.6534C21.9448 45.3804 22.2055 45.6411 22.2055 45.9325V57.5123C22.2055 57.8037 21.8988 57.9571 21.684 57.8037L19.6902 56.3773C19.5675 56.3006 19.4601 56.2699 19.3528 56.2699ZM17.2669 51.8988H10.8558C10.7178 51.8988 10.5951 51.7914 10.5951 51.6227V45.6258C10.5951 45.4877 10.7025 45.3497 10.8558 45.3497H17.2669C17.4049 45.3497 17.5276 45.4571 17.5276 45.6258V51.6227C17.5276 51.7761 17.4202 51.8988 17.2669 51.8988ZM73.7086 42.0215C74.5215 42.0215 75.181 41.3466 75.181 40.5184C75.181 39.6902 74.5215 39.0153 73.7086 39.0153C72.8957 39.0153 72.2362 39.6902 72.2362 40.5184C72.2362 41.3466 72.8957 42.0215 73.7086 42.0215ZM56.8374 44.2301V43.3865H54.4601V53.8466H56.8374V46.6994L59.6135 45.5184V43.0798H59.5828L56.8374 44.2301ZM47.6043 43.3712C46.0552 43.3712 44.7975 43.8926 43.8313 44.9356C43.3865 45.4264 43.0491 45.9785 42.8037 46.638C42.5736 47.2822 42.4509 47.9724 42.4509 48.6779C42.4509 50.1503 42.865 51.362 43.6932 52.2975C44.6135 53.3252 45.8712 53.8313 47.4663 53.8313C49.0307 53.8313 50.273 53.3098 51.2239 52.2669C52.1135 51.2699 52.5583 50.0276 52.5583 48.5245C52.5583 47.0215 52.1135 45.7945 51.2546 44.8436C50.365 43.862 49.138 43.3712 47.6043 43.3712ZM49.4755 50.8098C49.0307 51.3773 48.3865 51.6687 47.6043 51.6687C46.7607 51.6687 46.0552 51.3773 45.5337 50.7945C45.2883 50.5337 45.089 50.1963 44.9663 49.8129C44.8282 49.4294 44.7669 49.046 44.7669 48.6319C44.7669 47.7883 44.9816 47.0982 45.4417 46.5C45.9325 45.8712 46.6074 45.5491 47.4663 45.5491C48.3098 45.5491 48.9847 45.8405 49.4601 46.4386C49.9049 46.9908 50.1503 47.727 50.1503 48.6319C50.135 49.5215 49.9202 50.2577 49.4755 50.8098ZM72.5123 43.3865H74.8742V53.862H72.5123V43.3865ZM36.3466 43.3712C34.9969 43.3712 33.8773 43.7699 33.0184 44.5828C32.2055 45.3497 31.8067 46.316 31.8067 47.4816C31.8067 48.5092 32.1595 49.3681 32.8804 50.0583C32.2669 50.5644 31.9601 51.1626 31.9601 51.8681C31.9601 52.2975 32.0215 52.681 32.1135 53.0031C32.2055 53.3405 32.4049 53.6166 32.6963 53.862C31.6227 54.4601 31.1012 55.4417 31.1472 56.7761C31.1779 57.9417 31.6687 58.862 32.6196 59.5521C33.5859 60.2577 34.8589 60.5951 36.408 60.5951C37.9724 60.5951 39.138 60.2883 39.9202 59.6748C40.7178 59.0614 41.1166 58.1718 41.1166 57.0215C41.1166 55.8712 40.7945 54.9816 40.1656 54.3528C39.8282 54.0153 39.3834 53.7546 38.8466 53.5092C38.2945 53.2791 37.5583 53.0951 36.6074 52.9417C35.6411 52.7883 34.9663 52.6196 34.5521 52.4049C34.3528 52.3282 34.2301 52.2209 34.184 52.1288C34.1227 52.0368 34.1074 51.8988 34.1074 51.7147C34.1074 51.5307 34.2301 51.2853 34.4601 50.9632C34.9969 51.1472 35.5798 51.2393 36.2086 51.2393C37.4969 51.2393 38.5552 50.8405 39.3834 50.0583C39.7515 49.6902 40.0429 49.2607 40.2423 48.7699C40.4417 48.2791 40.5491 47.7423 40.5491 47.1288C40.5491 46.5307 40.411 45.9479 40.135 45.4264C40.135 45.4264 40.135 45.411 40.1196 45.411H41.1166V43.3558H36.3466V43.3712ZM34.6902 54.6748L35.181 54.7515C36.5613 54.9663 37.5429 55.2423 38.1104 55.6104C38.6166 55.9325 38.862 56.362 38.862 56.8988C38.862 58.0184 38.0798 58.5552 36.5153 58.5552C35.5951 58.5552 34.8589 58.3558 34.2761 57.9877C34.0153 57.819 33.8159 57.6043 33.6779 57.3742C33.5245 57.1442 33.4632 56.8681 33.4632 56.546C33.4632 56.2239 33.5552 55.8865 33.7546 55.5337C33.9693 55.1963 34.2761 54.9202 34.6902 54.6748ZM37.681 48.6933C37.2975 49.046 36.8528 49.2301 36.3313 49.2301C35.6411 49.2301 35.1043 49.0307 34.6748 48.6472C34.4755 48.4785 34.3528 48.2638 34.2301 48.0644C34.138 47.8344 34.0767 47.6196 34.0767 47.3742C34.0767 47.1442 34.1227 46.8988 34.2147 46.6687C34.5215 45.8712 35.181 45.4877 36.2393 45.4877C36.8681 45.4877 37.3742 45.6564 37.727 45.9939C38.0798 46.3313 38.2791 46.7761 38.2791 47.3282C38.2791 47.819 38.0798 48.2945 37.681 48.6933ZM85.3344 45.6564C85.5184 46.1319 85.6104 46.684 85.6104 47.2975V53.8313H83.2791V53.3405C82.5736 53.6626 81.9295 53.8313 81.3466 53.8313C80.6104 53.8313 79.9969 53.7546 79.4755 53.6166C78.954 53.4785 78.5092 53.2638 78.1564 53.0031C77.4356 52.4509 77.0675 51.6534 77.0675 50.6104C77.0675 49.6902 77.5123 48.908 78.4018 48.2945C79.3681 47.6196 80.7024 47.2822 82.3742 47.2822L82.7577 47.2975C82.8037 47.2975 82.8344 47.2975 82.8804 47.2975C82.9264 47.2975 82.9724 47.2975 83.0184 47.2975C83.0644 47.2975 83.1104 47.3129 83.1411 47.3129C83.1871 47.3129 83.2331 47.3129 83.2638 47.3282C83.2025 46.3006 82.773 45.6718 81.9448 45.5184C81.684 45.4571 81.3773 45.4417 81.0859 45.4417C80.7638 45.4417 80.4724 45.4724 80.181 45.5184C79.8742 45.5798 79.5982 45.6564 79.3221 45.7485C78.7239 45.9479 78.2638 46.1779 78.0031 46.4386L77.9724 46.4233L77.681 44.2914C78.7853 43.6932 80.0276 43.4018 81.3466 43.4018C83.4479 43.3712 84.7669 44.1227 85.3344 45.6564ZM83.2791 51.3466V49.9969V49.092C83.0951 49.0614 82.9264 49.046 82.7423 49.046H82.3589C80.9632 49.046 80.0736 49.3681 79.6902 49.9969C79.5828 50.181 79.5215 50.3804 79.5215 50.5798C79.5215 50.7945 79.5675 50.9785 79.6288 51.1319C79.7055 51.2853 79.8282 51.4233 79.9969 51.5307C80.319 51.7301 80.8251 51.8221 81.4693 51.8221C82.1135 51.8221 82.727 51.6534 83.2791 51.3466ZM94.3681 48.0031C94.7669 48.2025 95.089 48.4325 95.3344 48.7086C95.7791 49.2147 96.0245 49.8896 96.0245 50.7485C96.0245 51.6534 95.6718 52.4049 94.9509 52.9724C94.2147 53.5706 93.1718 53.862 91.8221 53.862C90.2117 53.862 88.9386 53.5859 88.0491 53.0337V50.4571C88.0491 50.4417 88.1104 50.5031 88.2024 50.6104C88.2945 50.7178 88.4939 50.8405 88.7546 51.0092C89.0153 51.1779 89.3374 51.3159 89.6749 51.4386C90.4264 51.6994 91.2086 51.8374 92.0368 51.8374C93.1258 51.8374 93.6779 51.454 93.6779 50.7178C93.6779 50.4877 93.5705 50.3037 93.3558 50.181C92.9877 49.9816 92.4356 49.8282 91.7147 49.7362C90.9939 49.6288 90.3957 49.4908 89.9356 49.2914C89.4755 49.092 89.092 48.862 88.8006 48.5859C88.2638 48.0644 87.9877 47.4049 87.9877 46.5767C87.9877 45.5644 88.3712 44.7669 89.1227 44.1994C89.8742 43.6319 90.9172 43.3405 92.2515 43.3405C93.5705 43.3405 94.6902 43.7239 95.6258 44.4908C95.5798 44.6595 95.5491 44.8282 95.4877 44.9816C95.3344 45.411 95.227 45.7178 95.1656 45.9018L94.9509 46.4693C94.9356 46.5307 94.9202 46.546 94.9202 46.546C94.9049 46.546 94.8589 46.4693 94.7669 46.3313C94.3681 45.8558 93.7393 45.5491 92.911 45.3957C92.6503 45.3344 92.3896 45.319 92.1135 45.319C90.9632 45.319 90.3804 45.6718 90.3804 46.3773C90.3804 46.6074 90.4877 46.8067 90.7331 46.9294C91.1779 47.1748 91.8067 47.3589 92.589 47.4816C93.3712 47.6503 93.954 47.8037 94.3681 48.0031ZM65.5337 43.3712C64.184 43.3712 63.0644 43.7699 62.2055 44.5828C61.3926 45.3497 60.9939 46.316 60.9939 47.4816C60.9939 48.5092 61.3466 49.3681 62.0675 50.0583C61.454 50.5644 61.1472 51.1626 61.1472 51.8681C61.1472 52.2975 61.2086 52.681 61.3006 53.0031C61.3926 53.3405 61.592 53.6166 61.8834 53.862C60.8098 54.4601 60.2883 55.4417 60.3344 56.7761C60.365 57.9417 60.8558 58.862 61.8067 59.5521C62.773 60.2577 64.046 60.5951 65.5951 60.5951C67.1595 60.5951 68.3251 60.2883 69.1074 59.6748C69.9049 59.0614 70.3037 58.1718 70.3037 57.0215C70.3037 55.8712 69.9816 54.9816 69.3528 54.3528C69.0153 54.0153 68.5705 53.7546 68.0337 53.5092C67.4816 53.2791 66.7454 53.0951 65.7945 52.9417C64.8282 52.7883 64.1534 52.6196 63.7393 52.4049C63.5399 52.3282 63.4172 52.2209 63.3712 52.1288C63.3098 52.0368 63.2945 51.8988 63.2945 51.7147C63.2945 51.5307 63.4172 51.2853 63.6472 50.9632C64.184 51.1472 64.7669 51.2393 65.3957 51.2393C66.684 51.2393 67.7423 50.8405 68.5705 50.0583C68.9386 49.6902 69.2301 49.2607 69.4294 48.7699C69.6288 48.2791 69.7362 47.7423 69.7362 47.1288C69.7362 46.5307 69.5982 45.9479 69.3221 45.4264C69.3221 45.4264 69.3221 45.411 69.3067 45.411H70.3037V43.3558H65.5337V43.3712ZM63.8773 54.6748L64.3681 54.7515C65.7485 54.9663 66.7301 55.2423 67.2975 55.6104C67.8037 55.9325 68.0491 56.362 68.0491 56.8988C68.0491 58.0184 67.2669 58.5552 65.7024 58.5552C64.7822 58.5552 64.046 58.3558 63.4632 57.9877C63.2024 57.819 63.0031 57.6043 62.865 57.3742C62.7117 57.1442 62.6503 56.8681 62.6503 56.546C62.6503 56.2239 62.7423 55.8865 62.9417 55.5337C63.1564 55.1963 63.4632 54.9202 63.8773 54.6748ZM66.8681 48.6933C66.4847 49.046 66.0399 49.2301 65.5184 49.2301C64.8282 49.2301 64.2914 49.0307 63.862 48.6472C63.6779 48.4785 63.5399 48.2638 63.4172 48.0644C63.3251 47.8344 63.2638 47.6196 63.2638 47.3742C63.2638 47.1442 63.3098 46.8988 63.4018 46.6687C63.7086 45.8712 64.3681 45.4877 65.4264 45.4877C66.0552 45.4877 66.5613 45.6564 66.9141 45.9939C67.2669 46.3313 67.4663 46.7761 67.4663 47.3282C67.4663 47.819 67.2669 48.2945 66.8681 48.6933Z" fill="black"/>
</svg>
