<svg width="100" height="100" viewBox="0 0 100 100" fill="none" xmlns="http://www.w3.org/2000/svg">
<path d="M85.7427 2.44214H13.7322C11.6536 2.4456 9.66075 3.27142 8.18896 4.73927C6.71716 6.20712 5.88599 8.19772 5.87695 10.2763V88.5974C5.88668 90.6756 6.71816 92.6655 8.18988 94.1328C9.6616 95.6001 11.654 96.4255 13.7322 96.429H85.7427C87.8209 96.4255 89.8134 95.6001 91.2851 94.1328C92.7568 92.6655 93.5883 90.6756 93.598 88.5974V84.9395C93.4664 80.2421 93.3348 70.4527 93.3348 66.0132C93.3348 63.5342 91.5033 61.4448 89.1454 61.4448C86.527 61.4448 84.8243 63.0106 83.5138 64.3158C79.5875 67.8421 73.698 68.4948 68.5927 67.579C66.2348 67.0579 64.0085 66.4053 62.1743 65.2316C56.5454 61.9685 52.8796 55.8316 52.8796 49.3053C52.8796 42.779 56.5454 36.7737 62.1743 33.379C64.1401 32.2053 66.3638 31.5527 68.5901 31.0316C73.5638 30.1158 79.5901 30.7685 83.5164 34.2948C84.9559 35.6 86.6585 37.1632 89.148 37.1632C91.5033 37.1632 93.3348 35.0763 93.3348 32.5974C93.3348 28.2895 93.4664 18.3685 93.598 13.6685V10.2737C93.5876 8.19601 92.7558 6.20675 91.2841 4.74004C89.8125 3.27332 87.8205 2.44822 85.7427 2.44477V2.44214Z" fill="#F46A54"/>
</svg>
