<svg width="100" height="100" viewBox="0 0 100 100" fill="none" xmlns="http://www.w3.org/2000/svg">
<g clip-path="url(#clip0_15910_61487)">
<path d="M0 11.1161C0 11.4067 2.15427 15.7666 2.41073 15.9888C2.46202 16.0401 2.68428 16.3821 2.90655 16.7582C3.12882 17.1344 3.50496 17.6302 3.71012 17.8695C3.93239 18.1089 4.10336 18.3483 4.10336 18.3996C4.10336 18.4508 4.25724 18.6902 4.46241 18.9125C4.65048 19.1347 5.21469 19.7844 5.69342 20.3487C7.89898 22.9133 11.0791 25.8882 14.4473 28.5212C14.5498 28.5896 14.8063 28.7947 15.0286 28.9828C15.2508 29.1709 15.4902 29.3248 15.5415 29.3248C15.5928 29.3248 15.8492 29.4957 16.0715 29.7009C16.687 30.248 17.3025 30.6755 20.5339 32.8297C23.526 34.813 23.5772 34.8643 24.7912 35.5824C25.2186 35.8389 25.6631 36.1637 25.7828 36.2834C25.9025 36.4031 26.0906 36.5057 26.176 36.5057C26.2957 36.5057 28.0226 37.4802 28.8945 38.0444C29.0313 38.147 29.3391 38.318 29.5784 38.4206C30.1939 38.7283 33.6134 40.7971 34.6221 41.481C37.5287 43.4301 41.2046 46.7641 42.3159 48.4225C42.7776 49.1235 43.0853 49.3458 43.0853 48.9696C43.0853 48.7474 42.3843 47.4651 42.1108 47.1402C41.9911 47.0205 41.8885 46.8325 41.8885 46.747C41.8885 46.5589 40.8627 44.8834 40.5549 44.5585C40.4352 44.4217 40.1959 44.114 40.042 43.8746C39.5804 43.1736 39.0162 42.541 37.2722 40.78C35.1693 38.6941 34.9299 38.506 31.972 36.3005C30.6043 35.2917 29.4245 34.4027 29.322 34.3172C29.2365 34.2488 28.8432 33.9923 28.4671 33.7701C28.0909 33.5478 27.749 33.3084 27.6977 33.2572C27.6464 33.2059 27.3045 32.9665 26.9283 32.7442C26.5522 32.522 25.4751 31.8381 24.5347 31.2226C22.6369 29.9745 22.312 29.7693 21.7649 29.4786C21.5427 29.359 21.3717 29.2051 21.3717 29.1196C21.3717 29.0512 21.2862 28.9828 21.2007 28.9828C21.0981 28.9828 20.6878 28.7435 20.2946 28.4528C19.6278 27.9741 17.5761 26.5208 16.8751 26.0421C16.687 25.9224 16.3964 25.683 16.2083 25.5121C16.0031 25.3582 15.798 25.2214 15.7467 25.2214C15.6954 25.2214 15.456 25.0504 15.2166 24.8282C14.9773 24.623 14.3105 24.0759 13.7292 23.6313C13.1479 23.1868 12.5666 22.7252 12.4469 22.6055C12.3272 22.4858 11.7972 22.0584 11.2843 21.6481C9.07869 19.9212 1.55586 12.7061 0.803576 11.5948C0.478726 11.1161 0 10.8254 0 11.1161Z" fill="#DA1B1B"/>
<path d="M16.0366 14.2105C15.8999 14.3473 16.0879 14.9628 16.2589 14.9628C16.3444 14.9628 16.4128 15.0483 16.4128 15.168C16.4128 15.4244 17.6438 17.8865 17.9174 18.1771C18.0199 18.2968 18.1225 18.4678 18.1225 18.5533C18.1225 18.7755 19.5929 20.8956 20.311 21.6992C22.0207 23.6141 25.1324 26.5035 26.3292 27.29C26.5686 27.4439 26.996 27.7858 27.2696 28.0252C27.5603 28.2817 28.0903 28.692 28.4664 28.9484C28.8426 29.2049 29.3042 29.5469 29.4752 29.7007C29.6632 29.8717 30.1249 30.2137 30.501 30.4701C30.8942 30.7437 31.3559 31.0856 31.5268 31.2395C31.7149 31.4105 32.1765 31.7524 32.5527 32.0089C32.9459 32.2653 33.2879 32.5218 33.3392 32.5731C33.3905 32.6244 33.9718 33.086 34.6215 33.5989C35.2883 34.1118 35.9038 34.6077 36.0064 34.7103C36.1089 34.7957 36.7928 35.4112 37.528 36.078C40.0242 38.3178 41.9391 40.4037 43.1017 42.1476C44.2302 43.8573 44.6747 44.6096 45.6835 46.5587C46.2135 47.6188 47 49.0207 47.3932 49.6875C47.8035 50.3543 48.3164 51.2092 48.5387 51.6024C48.761 51.9957 49.0516 52.4231 49.1884 52.5428C49.3081 52.6625 49.4107 52.8505 49.4107 52.936C49.4107 53.0215 49.4962 53.1925 49.5816 53.3122C49.6842 53.4319 50.4878 54.6287 51.394 55.9965C54.2834 60.3734 58.25 63.8612 62.1482 65.4171C63.9947 66.1523 67.8587 66.4429 72.9195 66.2207C76.4416 66.0839 80.4766 66.1865 81.1776 66.4429C81.3998 66.5284 81.8956 66.5968 82.2889 66.5968C82.6821 66.6139 83.3147 66.7165 83.6909 66.8533C84.067 66.9901 84.5286 67.1097 84.7167 67.1097C84.9048 67.1097 85.2809 67.2294 85.5545 67.3662C85.8109 67.503 86.1529 67.6227 86.2897 67.6227C86.5632 67.6227 87.5036 68.033 89.6749 69.093C92.8038 70.6489 95.3342 72.4954 98.0014 75.1797C99.7795 76.9749 99.8479 77.0262 99.9504 76.5817C100.087 76.0517 99.9162 74.2393 99.694 73.829C99.6085 73.658 99.352 73.128 99.1298 72.6664C98.7023 71.7089 97.8988 70.5634 96.7019 69.1785C96.2403 68.6143 95.9155 68.0672 95.9155 67.8278C95.9155 67.1268 95.2487 66.0326 94.4622 65.4513C93.4706 64.7161 90.4272 63.1773 89.9656 63.1773C89.8801 63.1773 89.5724 63.0577 89.3159 62.9209C89.0423 62.7841 88.6833 62.6644 88.5123 62.6644C88.3584 62.6644 88.0849 62.596 87.9139 62.5106C87.76 62.4251 87.0419 62.1857 86.341 61.9805C83.9986 61.2795 82.4941 60.7495 81.964 60.4247C81.3998 60.0827 80.8698 59.1937 80.8698 58.5953C80.8698 58.1507 81.5195 56.1332 81.7247 55.9281C81.8273 55.8255 81.8956 55.6374 81.8956 55.5006C81.8956 55.3468 81.9982 55.0219 82.135 54.7654C82.2718 54.5261 82.4599 53.7738 82.5795 53.107C83.1438 49.7901 81.3485 47.67 75.5696 44.7806C74.8002 44.4045 73.3983 43.7719 72.7486 43.4983C72.5605 43.4299 72.0476 43.2076 71.603 43.0196C71.1585 42.8144 70.6798 42.6605 70.543 42.6605C70.4062 42.6605 70.2352 42.575 70.184 42.4896C70.1327 42.387 69.9617 42.3186 69.8078 42.3186C69.671 42.3186 69.312 42.216 69.0213 42.0792C68.7136 41.9424 67.2432 41.4295 65.7386 40.9508C64.2341 40.455 62.8834 39.9933 62.7295 39.9249C62.5756 39.8395 62.1482 39.7198 61.7892 39.6514C61.413 39.6001 61.054 39.4804 60.9514 39.412C60.8659 39.3436 60.5069 39.224 60.182 39.1727C59.8572 39.1043 59.4297 38.9846 59.2416 38.8991C59.0536 38.8307 58.5578 38.6768 58.1303 38.5572C57.7029 38.4546 57.0532 38.2836 56.677 38.1981C56.3009 38.0955 55.8393 37.9417 55.6512 37.8733C55.4631 37.7878 55.0357 37.6681 54.7109 37.5997C54.386 37.5484 54.0099 37.4287 53.856 37.3603C53.7192 37.292 53.0182 37.0526 52.3172 36.8474C51.6162 36.6423 50.9152 36.42 50.7785 36.3516C50.6246 36.2661 50.2484 36.1464 49.9236 36.078C49.5987 36.0097 49.2568 35.9071 49.1542 35.8387C49.0687 35.7703 48.4019 35.5309 47.7009 35.3087C46.9999 35.1035 46.3502 34.8641 46.2477 34.7957C46.1622 34.7274 45.5809 34.5051 44.9654 34.2828C44.3499 34.0606 43.7856 33.8212 43.7002 33.7357C43.5976 33.6673 43.4266 33.5989 43.2898 33.5989C42.9479 33.5989 41.3407 32.8637 37.2716 30.8804C34.4163 29.4785 31.7833 28.0423 31.202 27.5807C31.1165 27.5123 30.4155 27.0506 29.6632 26.5548C28.9109 26.059 28.2271 25.5974 28.1245 25.529C28.039 25.4606 27.2354 24.8622 26.3463 24.1954C23.2517 21.8872 18.7551 17.5616 16.8573 15.0483C16.4983 14.5696 16.1905 14.1763 16.1734 14.1421C16.1392 14.125 16.0879 14.1592 16.0366 14.2105ZM92.496 66.0155C94.2399 66.5968 94.8041 67.0414 95.2145 68.0843C95.6248 69.093 94.9409 69.3324 94.1032 68.4604C93.8296 68.1698 93.3338 67.7765 93.0089 67.5714C92.6841 67.3662 92.3079 67.1097 92.1882 66.9901C92.0686 66.8704 91.8634 66.7678 91.7266 66.7678C91.5044 66.7678 91.2992 66.4087 91.2992 65.9813C91.2992 65.6736 91.5386 65.6736 92.496 66.0155ZM3.76074 24.9819C3.76074 25.1699 5.21402 28.0423 5.47048 28.35C5.57306 28.4697 5.93211 28.9314 6.27405 29.4101C7.52216 31.0856 9.47126 33.086 12.0701 35.3087C12.7198 35.8729 14.4979 37.2065 15.0621 37.5655C15.3015 37.7194 15.6092 37.9588 15.746 38.0784C15.8828 38.2152 16.2931 38.5059 16.6692 38.7281C17.0454 38.9504 17.3873 39.1898 17.4386 39.2411C17.5412 39.3778 22.5849 42.3699 24.1921 43.2589C25.4573 43.977 26.8251 44.6609 31.6294 47.0033C34.4505 48.3881 34.9805 48.6617 37.0493 49.9098C38.6051 50.8502 41.1014 52.7993 42.3495 54.0474C43.0505 54.7484 43.6489 55.3126 43.6831 55.3126C43.7344 55.3126 43.666 55.1245 43.5634 54.8851C43.4608 54.6458 43.3069 54.4577 43.2214 54.4577C43.153 54.4577 43.0847 54.3551 43.0847 54.2354C43.0847 54.0987 42.9308 53.808 42.7427 53.5857C42.5546 53.3635 42.3495 53.0899 42.2811 53.0044C41.033 51.3631 40.0071 50.3714 36.8612 47.7042C36.4338 47.3281 33.6127 45.4132 32.2962 44.5925C31.2533 43.9257 29.1503 42.746 27.0131 41.6005C26.5002 41.3098 26.0044 41.0192 25.9018 40.9508C25.7479 40.8311 25.0128 40.4379 22.5678 39.1043C21.0291 38.2836 17.1309 35.8729 16.4983 35.36C16.4128 35.2745 16.0195 35.018 15.6434 34.7957C15.2673 34.5735 14.8911 34.317 14.7885 34.2486C14.703 34.1802 13.7798 33.4963 12.7369 32.727C11.711 31.9576 10.8219 31.2737 10.7707 31.2224C10.7194 31.154 10.309 30.8121 9.8303 30.453C8.87285 29.7349 7.64184 28.6065 5.3508 26.3497C4.47883 25.4948 3.76074 24.8793 3.76074 24.9819ZM23.1833 55.6032C23.0124 55.7742 25.8847 58.4414 27.7825 59.8605C28.7229 60.5615 29.5777 61.194 29.6632 61.2624C30.1078 61.6044 31.6465 62.4935 31.7833 62.4935C31.8688 62.4935 32.0569 62.596 32.1765 62.6986C32.2962 62.8183 32.6724 63.0406 32.9972 63.2115C35.2712 64.2887 36.2457 64.7161 36.4851 64.7161C36.6219 64.7161 36.7757 64.7845 36.827 64.8529C36.9638 65.0751 42.3495 66.7678 42.9479 66.7678C43.1189 66.7678 43.3924 66.8362 43.5634 66.9388C43.7173 67.0243 44.196 67.1781 44.6234 67.2636C46.1109 67.5885 46.9316 67.7936 47.2735 67.9475C47.4616 68.033 48.1968 68.2724 48.8978 68.4946C49.5987 68.7169 50.2484 68.9392 50.351 69.0246C50.4365 69.093 50.6075 69.1614 50.7443 69.1614C50.881 69.1614 51.223 69.264 51.5136 69.4008C54.3176 70.6147 55.0699 70.9053 55.1725 70.8199C55.2238 70.7515 55.0528 70.5292 54.7792 70.324C54.3518 69.9821 53.5995 69.3153 51.9753 67.7936C51.7188 67.5543 51.2572 67.1439 50.9494 66.8704C50.0946 66.1352 46.5041 63.468 45.7347 63.0064C45.3586 62.7841 45.0167 62.5447 44.9654 62.4935C44.9141 62.4251 44.7602 62.3225 44.6234 62.2541C44.4866 62.1857 43.9053 61.8779 43.3411 61.5531C42.2811 60.9376 40.1097 59.8605 38.8958 59.3475C38.5197 59.1937 38.0922 58.9885 37.9554 58.9201C37.8016 58.8346 37.4425 58.7149 37.1348 58.6636C36.8441 58.5953 36.5535 58.4585 36.5022 58.373C36.4338 58.2875 36.2286 58.2191 36.0234 58.2191C35.6473 58.2362 35.6473 58.2362 35.9893 58.4243C36.1773 58.5269 36.3654 58.6636 36.4167 58.732C36.468 58.7833 36.8441 59.0398 37.2716 59.2962C38.1777 59.8263 39.8362 61.2966 39.8362 61.5702C39.8362 61.6728 39.7165 61.8609 39.5797 61.9805C39.3745 62.1515 38.8787 62.1344 37.1006 61.9121C35.8696 61.7583 34.6899 61.5531 34.4847 61.4676C34.2795 61.3992 33.6811 61.1941 33.1682 61.0402C30.501 60.2366 25.1324 57.2617 23.5766 55.74C23.4227 55.6032 23.2517 55.5348 23.1833 55.6032Z" fill="#DA1B1B"/>
<path d="M52.4032 64.4257C55.6004 67.3664 63.7901 75.727 64.303 76.5477C64.5081 76.8555 64.2688 77.1974 63.8755 77.1974C63.6875 77.1803 63.2087 77.0435 62.8326 76.8555C62.4565 76.6674 62.0974 76.5306 62.029 76.5135C61.8068 76.5135 60.1141 75.4364 59.6696 75.0261C59.1567 74.5473 58.8831 74.5131 59.1909 74.9577C59.6867 75.6758 62.1658 78.1207 63.7217 79.4543C64.4227 80.0527 66.2863 81.335 66.9189 81.6427C67.9447 82.1557 68.0473 82.2411 68.0473 82.566C68.0473 82.8566 67.9618 82.8737 67.1069 82.7712C66.594 82.7199 66.1666 82.7199 66.1666 82.8053C66.1666 82.925 67.1753 83.4209 68.3892 83.8825C69.2783 84.2415 71.7574 84.1902 72.4584 83.8141C72.7662 83.6431 73.1936 83.5234 73.3817 83.5576C73.7578 83.6089 73.792 83.6602 74.322 84.8057C74.9717 86.2077 76.4763 88.1397 76.9037 88.1397C76.9892 88.1397 77.1602 88.2423 77.2628 88.3791C77.4679 88.6185 79.8103 89.2511 79.947 89.1143C79.9983 89.063 79.6735 88.7552 79.2461 88.4133C78.0492 87.5071 77.4679 86.6523 77.4508 85.8145C77.4508 84.9083 77.827 84.1731 78.6135 83.5576C79.759 82.6857 80.46 82.4463 82.1355 82.4292C83.5033 82.4292 83.7769 82.4634 84.3753 82.8395C84.7514 83.0618 85.1617 83.3696 85.2814 83.5234C85.6063 83.9167 86.1705 85.2161 86.1705 85.5922C86.1705 86.1735 86.4953 85.9342 86.615 85.2674C86.8544 83.968 86.786 82.566 86.4611 82.1898C85.9995 81.6769 84.7514 81.3521 82.8365 81.2153C79.5709 81.0101 77.9125 80.463 76.4421 79.1294C74.9204 77.7616 74.9888 77.6078 77.1602 77.5052C78.6989 77.4197 80.0154 77.1461 81.1268 76.6845C81.3148 76.599 81.862 76.3597 82.3236 76.1716C82.8023 75.9664 83.7939 75.5048 84.5462 75.1457C87.4186 73.778 89.1796 73.3676 92.1204 73.3676C94.2575 73.3676 94.8217 73.2479 94.0353 73.0086C93.8472 72.9573 93.6933 72.8205 93.6933 72.735C93.6933 72.6495 93.6249 72.5811 93.5394 72.5811C93.4027 72.5811 91.9323 71.6921 91.3681 71.2646C91.1116 71.0595 90.1542 70.5465 88.8206 69.8968C88.1709 69.572 87.487 69.2301 87.3331 69.1446C87.1621 69.0591 86.957 68.9907 86.8715 68.9907C86.786 68.9907 86.4953 68.9052 86.2218 68.7855C85.5208 68.4949 84.3753 68.17 83.0075 67.8452C81.2635 67.4348 74.7153 67.4519 71.8087 67.8452C67.4831 68.4436 66.7308 68.512 64.7133 68.4265C62.6445 68.341 61.8922 68.2042 59.8406 67.5887C58.5925 67.2126 58.3702 67.1271 57.2589 66.6142C56.8314 66.4261 56.4211 66.2551 56.3698 66.2551C56.3014 66.2551 55.7543 65.9474 55.1388 65.5712C54.5233 65.1951 53.9762 64.8873 53.942 64.8873C53.8565 64.8873 52.4203 63.9128 51.5313 63.2289C50.3686 62.3569 50.7961 62.9382 52.4032 64.4257Z" fill="#DA1B1B"/>
</g>
<defs>
<clipPath id="clip0_15910_61487">
<rect width="100" height="78.1333" fill="white" transform="translate(0 11)"/>
</clipPath>
</defs>
</svg>
