<svg width="100" height="100" viewBox="0 0 100 100" fill="none" xmlns="http://www.w3.org/2000/svg">
<g clip-path="url(#clip0_15397_208525)">
<path d="M51.3582 50.4791V47.9136H47.8127V62.4436H50.2036C50.8409 62.4436 51.3582 61.9264 51.3582 61.2891V55.5818C51.3582 52.8145 52.2518 50.8818 54.5018 50.8818H56.7791V47.9118H55.0772C53.2045 47.9136 52.0791 48.6336 51.3582 50.4791ZM64.9954 47.6818C60.5545 47.6818 57.3836 50.8545 57.3836 55.1782C57.3836 59.5018 60.5563 62.6736 64.9954 62.6736C69.4063 62.6736 72.5772 59.5018 72.5772 55.1782C72.5772 50.8545 69.4063 47.6818 64.9954 47.6818ZM64.9954 59.6182C62.5736 59.6182 60.9591 57.8018 60.9591 55.1782C60.9591 52.5545 62.5736 50.7382 64.9954 50.7382C67.3882 50.7382 69.0027 52.5545 69.0027 55.1782C69.0027 57.8018 67.3882 59.6182 64.9954 59.6182ZM82.8127 47.6818C80.7373 47.6818 79.0945 48.5764 78.2854 50.1618V47.9136H74.74V62.4436H77.1309C77.7691 62.4436 78.2854 61.9273 78.2854 61.2891V54.5164C78.2854 52.3827 79.67 50.8255 81.6581 50.8255C83.4754 50.8255 84.6854 52.21 84.6854 54.1991V62.4445H87.0782C87.7145 62.4445 88.2327 61.9282 88.2327 61.2909V53.4491C88.2327 50.0464 86.0991 47.6818 82.8127 47.6818ZM99.9382 49.7291V47.9136H95.9018V43.5318H92.3563V46.9618C92.3563 47.6527 92.01 47.9127 91.4336 47.9127H89.5018V50.8827H92.3563V57.3691C92.3563 60.5991 94.4327 62.4436 97.6036 62.4436H99.9382V59.2427H98.0063C96.68 59.2427 95.9009 58.4936 95.9009 57.0227V50.8827H98.7827C98.9344 50.883 99.0846 50.8533 99.2247 50.7954C99.3649 50.7376 99.4923 50.6526 99.5996 50.5455C99.7069 50.4383 99.7921 50.3111 99.8502 50.171C99.9083 50.0309 99.9382 49.8807 99.9382 49.7291ZM33.6 45.9236V62.4455H36.2509C36.8872 62.4455 37.4054 61.9273 37.4054 61.2909V53.9682H45.1309V50.6809H37.4045V46.5582C37.4045 46.0009 37.8563 45.5491 38.4136 45.5491H45.88C46.5172 45.5491 47.0345 45.0327 47.0345 44.3945V42.2627H37.2609C36.2899 42.2632 35.3587 42.6492 34.6721 43.3358C33.9855 44.0224 33.5995 44.9535 33.5991 45.9245L33.6 45.9236ZM0.0654297 39.4273C0.0654297 36.43 2.50361 34 5.51088 34H22.9745V41.7236C22.9739 42.0806 22.903 42.4339 22.7659 42.7635C22.6287 43.0931 22.428 43.3924 22.1752 43.6444C21.9223 43.8963 21.6224 44.0961 21.2923 44.2321C20.9623 44.3682 20.6087 44.4379 20.2518 44.4373H13.1563C12.8131 44.4367 12.4731 44.5037 12.1558 44.6345C11.8385 44.7653 11.55 44.9573 11.3069 45.1996C11.0638 45.4419 10.8707 45.7296 10.7388 46.0465C10.6069 46.3634 10.5388 46.7031 10.5382 47.0464V63.9027C10.5376 64.2597 10.4667 64.613 10.3295 64.9426C10.1924 65.2721 9.99164 65.5715 9.73881 65.8234C9.48598 66.0754 9.18599 66.2751 8.85598 66.4112C8.52597 66.5472 8.17239 66.617 7.81543 66.6164H0.0654297V39.4273Z" fill="#061B36"/>
<path d="M6.15381 47.1119C6.15381 51.003 9.31875 54.1573 13.2229 54.1573C17.1271 54.1573 20.292 51.003 20.292 47.1119C20.292 43.2208 17.1271 40.0664 13.2229 40.0664C9.31875 40.0664 6.15381 43.2208 6.15381 47.1119Z" fill="url(#paint0_linear_15397_208525)"/>
<path opacity="0.5" d="M6.15381 47.1119C6.15381 51.003 9.31875 54.1573 13.2229 54.1573C17.1271 54.1573 20.292 51.003 20.292 47.1119C20.292 43.2208 17.1271 40.0664 13.2229 40.0664C9.31875 40.0664 6.15381 43.2208 6.15381 47.1119Z" fill="url(#paint1_linear_15397_208525)"/>
</g>
<defs>
<linearGradient id="paint0_linear_15397_208525" x1="8.24472" y1="41.83" x2="18.8384" y2="52.5337" gradientUnits="userSpaceOnUse">
<stop stop-color="#FF0057" stop-opacity="0.16"/>
<stop offset="0.861" stop-color="#FF0057"/>
</linearGradient>
<linearGradient id="paint1_linear_15397_208525" x1="8.24472" y1="41.83" x2="18.8384" y2="52.5337" gradientUnits="userSpaceOnUse">
<stop stop-color="#FF0057" stop-opacity="0.16"/>
<stop offset="0.861" stop-color="#FF0057"/>
</linearGradient>
<clipPath id="clip0_15397_208525">
<rect width="100" height="32.7273" fill="white" transform="translate(0 34)"/>
</clipPath>
</defs>
</svg>
