<svg width="100" height="100" viewBox="0 0 100 100" fill="none" xmlns="http://www.w3.org/2000/svg">
<g clip-path="url(#clip0_15397_208510)">
<path d="M49.998 0C22.384 0 -0.00195312 22.3844 -0.00195312 50C-0.00195312 77.6156 22.3855 100 49.998 100C77.6105 100 99.998 77.6141 99.998 50C99.998 22.3859 77.6105 0 49.998 0ZM49.998 93.5781C42.1418 93.5781 35.7715 88.3281 35.7715 81.8594H64.209C64.209 88.3313 57.8387 93.5781 49.9824 93.5781H49.998ZM73.5137 77.9797H26.498V69.4578H73.5137V77.9797ZM73.3449 65.0734H26.634L26.1699 64.5359C21.3574 58.6922 20.2262 55.6297 19.1262 52.5359C19.1074 52.4328 24.9605 53.7328 29.1105 54.6656C29.1105 54.6656 31.2465 55.1594 34.3668 55.7281C31.3699 52.2125 29.5902 47.7484 29.5902 43.1812C29.5902 33.1578 37.2777 24.4 34.5043 17.3219C37.2043 17.5406 40.0902 23.0187 40.2855 31.5812C43.1559 27.6156 44.3559 20.375 44.3559 15.9344C44.3559 11.3375 47.3871 5.99687 50.4152 5.81406C47.7121 10.2672 51.1152 14.0797 54.1371 23.5484C55.2715 27.1047 55.1262 33.0891 56.0012 36.8844C56.2918 29.0016 57.6465 17.5016 62.648 13.5312C60.4418 18.5312 62.9762 24.7891 64.7074 27.7969C67.5043 32.65 69.1965 36.3281 69.1965 43.2656C69.1965 47.9281 67.4746 52.3172 64.5715 55.7656C67.873 55.1453 70.1527 54.5875 70.1527 54.5875L80.8746 52.4938C80.8746 52.4922 79.3168 58.9 73.3309 65.0719L73.3449 65.0734Z" fill="#DA4E31"/>
</g>
<defs>
<clipPath id="clip0_15397_208510">
<rect width="100" height="100" fill="white"/>
</clipPath>
</defs>
</svg>
