<svg width="100" height="100" viewBox="0 0 100 100" fill="none" xmlns="http://www.w3.org/2000/svg">
<g clip-path="url(#clip0_15397_208501)">
<path fill-rule="evenodd" clip-rule="evenodd" d="M98.6518 45.7327H98.3878V46.0606H98.6518C98.7731 46.0606 98.8534 46.0065 98.8534 45.8967C98.8534 45.7868 98.7796 45.7327 98.6518 45.7327ZM98.0633 45.4327H98.6567C98.9845 45.4327 99.1976 45.6098 99.1976 45.8852C99.1988 45.9619 99.1795 46.0376 99.1418 46.1044C99.104 46.1712 99.0492 46.2268 98.9829 46.2655L99.2157 46.6032V46.6704H98.878L98.6518 46.3425H98.3878V46.6704H98.06L98.0633 45.4327ZM99.7238 46.0753C99.7238 45.4196 99.2829 44.9115 98.6075 44.9115C97.9321 44.9115 97.5043 45.3885 97.5043 46.0753C97.5043 46.731 97.9452 47.2408 98.6075 47.2408C99.2698 47.2408 99.7238 46.7376 99.7238 46.0753ZM100.001 46.0753C100.001 46.8556 99.4796 47.5047 98.6075 47.5047C97.7354 47.5047 97.2289 46.849 97.2289 46.0753C97.2289 45.3016 97.7436 44.6476 98.6075 44.6476C99.4714 44.6476 99.9943 45.2967 99.9943 46.0753H100.001ZM21.9847 48.8473L19.298 50.4013L21.9847 51.9504C22.3107 52.1382 22.5488 52.4478 22.6466 52.8112C22.7443 53.1746 22.6938 53.5619 22.5059 53.8879C22.3181 54.214 22.0085 54.4521 21.6451 54.5499C21.2817 54.6476 20.8944 54.597 20.5684 54.4092L15.7572 51.6225C15.4483 51.4443 15.2186 51.1555 15.1146 50.8144C15.068 50.6654 15.047 50.5097 15.0523 50.3537C15.0548 50.2428 15.0713 50.1327 15.1015 50.0259C15.2007 49.6681 15.4361 49.3633 15.7572 49.1768L20.5684 46.3999C20.8944 46.2121 21.2817 46.1615 21.6451 46.2593C22.0085 46.357 22.3181 46.5951 22.5059 46.9212C22.6938 47.2472 22.7443 47.6346 22.6466 47.9979C22.5488 48.3613 22.3107 48.6709 21.9847 48.8588V48.8473ZM19.4406 56.3763L14.631 53.6027C14.3834 53.458 14.0972 53.3933 13.8114 53.4175C13.455 53.4436 13.1216 53.6036 12.8783 53.8654C12.6351 54.1273 12.4999 54.4715 12.5 54.8289V60.3826C12.5 60.7582 12.6493 61.1185 12.9149 61.3841C13.1805 61.6497 13.5407 61.7989 13.9163 61.7989C14.292 61.7989 14.6522 61.6497 14.9178 61.3841C15.1834 61.1185 15.3326 60.7582 15.3326 60.3826V57.268L18.0325 58.8351C18.1939 58.928 18.3721 58.9882 18.5568 59.0122C18.7415 59.0363 18.9291 59.0237 19.109 58.9752C19.2888 58.9267 19.4573 58.8433 19.6049 58.7297C19.7526 58.6161 19.8763 58.4745 19.9692 58.3131C20.0621 58.1516 20.1223 57.9734 20.1463 57.7887C20.1704 57.604 20.1578 57.4164 20.1093 57.2365C20.0608 57.0567 19.9774 56.8882 19.8638 56.7406C19.7501 56.593 19.6086 56.4692 19.4471 56.3763H19.4406ZM13.8901 50.9439L11.8902 52.9339C11.8221 52.9983 11.7331 53.0361 11.6394 53.0404H11.0526C10.9586 53.0352 10.8694 52.9976 10.8001 52.9339L8.80192 50.9439C8.74025 50.8749 8.70384 50.7871 8.69865 50.6947V50.1062C8.70324 50.0127 8.73968 49.9237 8.80192 49.8538L10.8001 47.8523C10.8696 47.7891 10.9588 47.752 11.0526 47.7474H11.6394C11.7328 47.7514 11.8218 47.7886 11.8902 47.8523L13.8901 49.8489C13.9523 49.9187 13.9888 50.0078 13.9934 50.1013V50.6898C13.9893 50.7839 13.9528 50.8736 13.8901 50.9439ZM12.2951 50.3898C12.2887 50.296 12.2519 50.2068 12.1902 50.1357L11.6067 49.5603C11.5382 49.4976 11.4502 49.4606 11.3575 49.4554H11.3345C11.2419 49.4606 11.1538 49.4976 11.0854 49.5603L10.5067 50.1357C10.4443 50.2061 10.4078 50.2958 10.4035 50.3898V50.4111C10.4076 50.5037 10.4441 50.5919 10.5067 50.6603L11.0854 51.2389C11.154 51.3013 11.2419 51.3383 11.3345 51.3438H11.3575C11.4502 51.3387 11.5382 51.3016 11.6067 51.2389L12.1869 50.6603C12.25 50.5917 12.2881 50.504 12.2951 50.4111V50.3898ZM3.25146 44.4197L8.06262 47.1966C8.27843 47.321 8.52315 47.3865 8.77225 47.3865C9.02135 47.3865 9.26608 47.3211 9.48192 47.1967C9.69776 47.0724 9.87712 46.8935 10.002 46.678C10.1269 46.4624 10.193 46.2179 10.1936 45.9688V40.415C10.1936 40.0394 10.0444 39.6792 9.7788 39.4136C9.5132 39.148 9.15296 38.9987 8.77733 38.9987C8.4017 38.9987 8.04146 39.148 7.77585 39.4136C7.51025 39.6792 7.36103 40.0394 7.36103 40.415V43.5296L4.66612 41.9674C4.50467 41.8745 4.32651 41.8143 4.1418 41.7903C3.95709 41.7663 3.76946 41.7789 3.58961 41.8273C3.2264 41.9252 2.91696 42.1634 2.72936 42.4895C2.54177 42.8156 2.49139 43.2028 2.5893 43.566C2.68721 43.9292 2.9254 44.2387 3.25146 44.4263V44.4197ZM13.8114 47.3818C14.0971 47.4051 14.3831 47.3405 14.631 47.1966L19.4406 44.4197C19.602 44.3268 19.7436 44.203 19.8572 44.0554C19.9708 43.9078 20.0542 43.7393 20.1027 43.5595C20.1512 43.3796 20.1638 43.192 20.1398 43.0073C20.1157 42.8226 20.0555 42.6444 19.9627 42.4829C19.8698 42.3215 19.746 42.1799 19.5984 42.0663C19.4508 41.9527 19.2823 41.8693 19.1024 41.8208C18.9226 41.7723 18.7349 41.7597 18.5502 41.7837C18.3655 41.8078 18.1874 41.868 18.0259 41.9608L15.3326 43.523V40.4085C15.3326 40.0329 15.1834 39.6726 14.9178 39.407C14.6522 39.1414 14.292 38.9922 13.9163 38.9922C13.5407 38.9922 13.1805 39.1414 12.9149 39.407C12.6493 39.6726 12.5 40.0329 12.5 40.4085V45.9688C12.4999 46.3264 12.635 46.6707 12.8782 46.9328C13.1215 47.1949 13.4548 47.3553 13.8114 47.3818ZM8.88388 53.4257C8.59811 53.4015 8.31186 53.4662 8.06426 53.6109L3.25146 56.3763C3.09001 56.4692 2.94844 56.593 2.83482 56.7406C2.72121 56.8882 2.63778 57.0567 2.5893 57.2365C2.54082 57.4164 2.52823 57.604 2.55227 57.7887C2.5763 57.9734 2.63648 58.1516 2.72936 58.3131C2.82225 58.4745 2.94603 58.6161 3.09363 58.7297C3.24123 58.8433 3.40977 58.9267 3.58961 58.9752C3.76946 59.0237 3.95709 59.0363 4.1418 59.0122C4.32651 58.9882 4.50467 58.928 4.66612 58.8351L7.36103 57.2812V60.3957C7.36103 60.7713 7.51025 61.1316 7.77585 61.3972C8.04146 61.6628 8.4017 61.812 8.77733 61.812C9.15296 61.812 9.5132 61.6628 9.7788 61.3972C10.0444 61.1316 10.1936 60.7713 10.1936 60.3957V54.8289C10.1917 54.4731 10.0559 54.1312 9.81314 53.8711C9.57042 53.6111 9.23863 53.452 8.88388 53.4257ZM7.57249 50.8242C7.61961 50.6754 7.64122 50.5196 7.63642 50.3636C7.63186 50.2527 7.61482 50.1428 7.5856 50.0357C7.48814 49.677 7.25232 49.3716 6.92991 49.1866L2.13186 46.395C1.8058 46.2072 1.41848 46.1566 1.05511 46.2543C0.691748 46.3521 0.382098 46.5902 0.194285 46.9163C0.00647196 47.2423 -0.0441202 47.6296 0.0536382 47.993C0.151397 48.3564 0.389498 48.666 0.715562 48.8538L3.40227 50.4078L0.709006 51.9504C0.382941 52.139 0.145185 52.4495 0.0480416 52.8135C-0.0491021 53.1775 0.00232402 53.5651 0.191007 53.8912C0.379689 54.2173 0.690173 54.455 1.05415 54.5522C1.41814 54.6493 1.8058 54.5979 2.13186 54.4092L6.93319 51.6225C7.24344 51.4459 7.47448 51.1574 7.57905 50.816L7.57249 50.8242ZM67.2407 42.5247H67.0063C66.673 42.5185 66.3409 42.5661 66.0228 42.6657C65.7111 42.7637 65.4322 42.9451 65.2163 43.1903C64.9963 43.4473 64.8406 43.7529 64.7622 44.082C64.6704 44.4641 64.6263 44.8562 64.631 45.2492V46.0983H63.695C63.5427 46.0978 63.3962 46.1571 63.2871 46.2635C63.178 46.3698 63.1149 46.5148 63.1115 46.6671C63.1079 46.8286 63.1666 46.9853 63.2754 47.1048C63.3867 47.2184 63.5362 47.2868 63.695 47.2966H64.6245V54.2207C64.6249 54.2986 64.6407 54.3757 64.6711 54.4475C64.7015 54.5192 64.7458 54.5842 64.8015 54.6387C64.918 54.746 65.0711 54.8047 65.2294 54.8026C65.3833 54.8005 65.5301 54.7376 65.6379 54.6277C65.7456 54.5178 65.8056 54.3697 65.8047 54.2158V47.2966H66.8112C66.969 47.2885 67.118 47.2218 67.2292 47.1097C67.343 46.9951 67.4067 46.84 67.4063 46.6786V46.6556C67.402 46.503 67.3379 46.3582 67.2278 46.2524C67.1177 46.1466 66.9705 46.0883 66.8178 46.0901H65.8047V45.2442C65.8027 44.9553 65.8369 44.6673 65.9064 44.3869C65.9399 44.2364 66.0065 44.0953 66.1014 43.9738C66.1809 43.8911 66.2802 43.8302 66.3899 43.7968C66.5827 43.7417 66.7829 43.7168 66.9834 43.723H67.0145H67.0604H67.1145H67.2473C67.3265 43.723 67.4049 43.7074 67.4781 43.6771C67.5513 43.6468 67.6178 43.6024 67.6738 43.5463C67.7298 43.4903 67.7743 43.4238 67.8046 43.3506C67.8349 43.2774 67.8505 43.199 67.8505 43.1198C67.8505 43.0406 67.8349 42.9621 67.8046 42.8889C67.7743 42.8157 67.7298 42.7492 67.6738 42.6932C67.6178 42.6372 67.5513 42.5928 67.4781 42.5625C67.4049 42.5321 67.3265 42.5165 67.2473 42.5165L67.2407 42.5247ZM87.9934 47.0048C88.0504 46.9492 88.0957 46.883 88.127 46.8098C88.1582 46.7367 88.1747 46.6581 88.1754 46.5786C88.1749 46.501 88.1584 46.4244 88.1268 46.3536C88.0952 46.2828 88.0492 46.2193 87.9918 46.1671C87.9382 46.1111 87.8739 46.0665 87.8026 46.036C87.7313 46.0056 87.6546 45.9898 87.5771 45.9898C87.4996 45.9898 87.4228 46.0056 87.3516 46.036C87.2803 46.0665 87.2159 46.1111 87.1623 46.1671L82.5348 50.6701V43.0821C82.5337 43.0031 82.5171 42.9251 82.4859 42.8525C82.4547 42.7799 82.4094 42.7142 82.3528 42.6591C82.2962 42.604 82.2293 42.5606 82.1558 42.5313C82.0824 42.5021 82.004 42.4876 81.925 42.4887C81.8475 42.4891 81.7708 42.5049 81.6994 42.535C81.6279 42.565 81.5631 42.6089 81.5086 42.6641C81.3979 42.7752 81.335 42.9252 81.3332 43.0821V54.1896C81.3349 54.346 81.3978 54.4955 81.5084 54.6061C81.619 54.7167 81.7686 54.7796 81.925 54.7813C82.0843 54.7835 82.2379 54.7224 82.3522 54.6115C82.4666 54.5006 82.5322 54.3488 82.5348 54.1896V52.3569L84.0445 50.8504L87.1197 54.56C87.1719 54.6382 87.2461 54.6992 87.3328 54.7354C87.4137 54.7653 87.4991 54.7809 87.5853 54.7813C87.7247 54.7839 87.861 54.7394 87.9721 54.6551H87.9803C88.0409 54.5973 88.0893 54.5279 88.1225 54.451C88.1557 54.3741 88.1732 54.2913 88.1738 54.2076C88.1726 54.0634 88.121 53.9242 88.0279 53.8142L84.8969 50.0095L87.9951 47.0113L87.9934 47.0048ZM79.6333 46.2409C79.6897 46.2963 79.7344 46.3624 79.7648 46.4353C79.7952 46.5082 79.8107 46.5865 79.8104 46.6655V54.1896C79.8091 54.3461 79.7463 54.4959 79.6356 54.6066C79.5249 54.7173 79.3752 54.78 79.2186 54.7813C79.0617 54.7796 78.9117 54.7167 78.8006 54.6059C78.7453 54.5515 78.7013 54.4868 78.6712 54.4153C78.6411 54.3438 78.6255 54.2671 78.6252 54.1896V53.4552C78.256 53.8693 77.8039 54.2013 77.2983 54.4297C76.7927 54.6581 76.2448 54.7779 75.69 54.7813C75.1352 54.7847 74.5858 54.6716 74.0775 54.4494C73.5691 54.2272 73.113 53.9008 72.7387 53.4912C71.9653 52.6568 71.5356 51.5611 71.5356 50.4234C71.5356 49.2857 71.9653 48.19 72.7387 47.3556C73.1138 46.9482 73.5695 46.6233 74.077 46.4017C74.5845 46.1801 75.1325 46.0667 75.6863 46.0685C76.24 46.0704 76.7873 46.1875 77.2933 46.4125C77.7993 46.6375 78.2529 46.9653 78.6252 47.3752V46.6573C78.6252 46.5782 78.641 46.4998 78.6717 46.4269C78.7024 46.354 78.7473 46.288 78.8039 46.2327C78.9163 46.1274 79.0646 46.0687 79.2186 46.0687C79.3727 46.0687 79.5209 46.1274 79.6333 46.2327V46.2409ZM78.6252 50.4324C78.6313 49.5939 78.3191 48.7843 77.7515 48.167C77.4901 47.8751 77.1701 47.6416 76.8124 47.4817C76.4547 47.3218 76.0672 47.2392 75.6754 47.2392C75.2836 47.2392 74.8961 47.3218 74.5384 47.4817C74.1807 47.6416 73.8607 47.8751 73.5993 48.167C73.0302 48.7837 72.7162 49.5933 72.7207 50.4324C72.7185 51.2659 73.0338 52.0689 73.6026 52.6782C73.8664 52.9666 74.1874 53.1968 74.5452 53.3544C74.9029 53.512 75.2895 53.5933 75.6803 53.5933C76.0712 53.5933 76.4578 53.512 76.8155 53.3544C77.1732 53.1968 77.4942 52.9666 77.7581 52.6782C78.3248 52.065 78.6371 51.2592 78.6318 50.4242L78.6252 50.4324ZM30.9496 50.2128C30.4405 49.9919 29.9188 49.8009 29.3875 49.6407C28.9217 49.5079 28.4655 49.3436 28.022 49.1489C27.8649 49.0722 27.7245 48.9653 27.6089 48.8342C27.5154 48.7253 27.4653 48.5858 27.4679 48.4424C27.4639 48.2467 27.5212 48.0547 27.6318 47.8932C27.8211 47.6481 28.0773 47.4631 28.3695 47.3605C28.6366 47.2527 28.9209 47.1938 29.2088 47.1867C29.7205 47.178 30.2208 47.3388 30.6316 47.6441C30.7956 47.7605 30.93 47.8801 31.0578 47.9719C31.1192 48.0233 31.1863 48.0673 31.2578 48.1031C31.3299 48.1421 31.4103 48.1634 31.4922 48.1654C31.5485 48.1655 31.6043 48.1544 31.6562 48.1326C31.709 48.1108 31.7577 48.0804 31.8004 48.0424C31.8445 48.0013 31.8806 47.9524 31.907 47.8982C31.9292 47.8464 31.941 47.7906 31.9414 47.7342C31.9392 47.63 31.9111 47.528 31.8594 47.4375C31.7541 47.257 31.6182 47.0961 31.4578 46.9622C31.1619 46.7088 30.8305 46.5001 30.4743 46.3425C30.1151 46.1712 29.7245 46.0758 29.3268 46.0622C28.4465 46.0622 27.7122 46.2622 27.1778 46.6294C26.8982 46.8063 26.6609 47.0424 26.4827 47.3211C26.2908 47.6616 26.1919 48.0466 26.1959 48.4375V48.4998C26.1886 48.9045 26.3199 49.2995 26.568 49.6194C26.9171 50.0587 27.4335 50.3226 27.94 50.5095C28.4465 50.6963 28.9498 50.8078 29.2694 50.9144C29.7122 51.0435 30.1397 51.22 30.5448 51.4406C30.701 51.5303 30.8398 51.6475 30.9546 51.7864C31.0485 51.9157 31.1001 52.0709 31.1021 52.2307V52.2438C31.1048 52.4664 31.0352 52.6838 30.9037 52.8634C30.6897 53.1229 30.405 53.3147 30.0841 53.4158C29.8012 53.5165 29.5041 53.5718 29.2039 53.5798C28.6306 53.5923 28.063 53.4651 27.5499 53.2093C27.363 53.1159 27.2122 53.0241 27.0745 52.9454C27.0073 52.9093 26.9434 52.8749 26.8761 52.847C26.8087 52.8185 26.7363 52.8035 26.663 52.8028C26.612 52.8026 26.5614 52.8121 26.5139 52.8306C26.4654 52.85 26.4213 52.879 26.3844 52.9159C26.332 52.9625 26.2881 53.018 26.2549 53.0798C26.2243 53.1426 26.2086 53.2116 26.209 53.2814C26.2119 53.3954 26.2484 53.506 26.3139 53.5994C26.4288 53.7519 26.5698 53.8829 26.7303 53.9863C26.9397 54.1229 27.1588 54.2439 27.3859 54.3486C27.9588 54.6042 28.5767 54.7435 29.2039 54.7584C30.0481 54.7584 30.7792 54.5633 31.3939 54.1027C31.6928 53.8865 31.9369 53.6032 32.1063 53.2755C32.2757 52.9477 32.3658 52.5848 32.3692 52.2159C32.3769 51.8441 32.284 51.4771 32.1004 51.1537C31.819 50.7325 31.4183 50.4049 30.9496 50.2128ZM69.6963 42.4887C69.5398 42.49 69.3902 42.553 69.2799 42.6641C69.2244 42.7186 69.1803 42.7837 69.1502 42.8555C69.1201 42.9272 69.1046 43.0043 69.1045 43.0821V54.1896C69.1044 54.2672 69.1199 54.344 69.15 54.4155C69.1802 54.487 69.2243 54.5518 69.2799 54.6059C69.3635 54.6893 69.4699 54.7461 69.5856 54.7695C69.7013 54.7928 69.8214 54.7816 69.9308 54.7372C70.0402 54.6928 70.1341 54.6172 70.2008 54.5199C70.2676 54.4225 70.3042 54.3076 70.3061 54.1896V43.0821C70.305 43.0031 70.2884 42.9251 70.2572 42.8525C70.2259 42.7799 70.1807 42.7142 70.1241 42.6591C70.0675 42.604 70.0005 42.5606 69.9271 42.5313C69.8537 42.5021 69.7753 42.4876 69.6963 42.4887ZM96.9715 50.1472V50.2062C96.9715 50.2835 96.955 50.3599 96.923 50.4303C96.8911 50.5007 96.8445 50.5635 96.7863 50.6144C96.6725 50.7127 96.5269 50.7663 96.3765 50.7652H89.7278C89.8917 52.388 91.1916 53.5847 92.739 53.5978H93.1308C93.6516 53.5895 94.1579 53.4256 94.5848 53.1273C95.0275 52.8299 95.3987 52.438 95.6716 51.9799C95.7231 51.8898 95.7994 51.8164 95.8913 51.7684C95.976 51.7214 96.0714 51.6971 96.1683 51.6979C96.2744 51.6979 96.3785 51.7262 96.4699 51.7799C96.5524 51.8383 96.6199 51.9153 96.6669 52.0048C96.7139 52.0943 96.7391 52.1936 96.7404 52.2946C96.7406 52.4024 96.7117 52.5083 96.6568 52.6011C96.2794 53.2074 95.7763 53.7255 95.1815 54.1207C94.5746 54.5287 93.8621 54.7514 93.1308 54.7616H92.7325C92.1745 54.7569 91.6231 54.6403 91.1109 54.4187C90.5987 54.1971 90.1362 53.875 89.7507 53.4716C88.9641 52.6583 88.523 51.572 88.5196 50.4406C88.5151 49.2888 88.9583 48.1803 89.7556 47.349C90.1442 46.944 90.6108 46.6219 91.1272 46.4018C91.6435 46.1818 92.1991 46.0685 92.7603 46.0688C93.8378 46.0672 94.8725 46.4901 95.6405 47.2457C96.4179 48.0163 96.8882 49.0437 96.9633 50.1357L96.9715 50.1472ZM95.6733 49.5866C95.5201 48.9274 95.1504 48.3386 94.6232 47.9143C94.0961 47.49 93.4419 47.2546 92.7653 47.2457C92.0833 47.2509 91.4226 47.4837 90.8881 47.9072C90.3535 48.3307 89.9757 48.9206 89.8146 49.5833L95.6733 49.5866ZM37.2673 46.0835C36.376 46.0851 35.5176 46.4202 34.8609 47.0228V46.6769C34.8609 46.5229 34.8023 46.3746 34.6969 46.2622C34.644 46.2062 34.5802 46.1614 34.5095 46.1307C34.4388 46.1 34.3626 46.084 34.2855 46.0835C34.2073 46.0824 34.1296 46.097 34.0571 46.1264C33.9846 46.1559 33.9188 46.1995 33.8634 46.2549C33.8081 46.3102 33.7644 46.3761 33.735 46.4485C33.7056 46.521 33.691 46.5987 33.6921 46.6769V54.3666L33.7167 54.3912C33.7257 54.4198 33.739 54.4468 33.756 54.4715C33.838 54.6163 33.9733 54.7234 34.133 54.7698H34.1576H34.2855C34.3728 54.7692 34.4589 54.7496 34.5379 54.7125C34.6083 54.6803 34.6705 54.6327 34.7199 54.5731C34.7199 54.5731 34.7281 54.5584 34.7363 54.5518C34.7662 54.5149 34.791 54.4741 34.8101 54.4305C34.8251 54.3905 34.8371 54.3494 34.8461 54.3076V54.2863V49.6554C34.8595 49.019 35.1193 48.4126 35.5707 47.9637C35.9037 47.6246 36.3305 47.3928 36.7962 47.2979C37.2619 47.203 37.7454 47.2495 38.1845 47.4313C38.6237 47.6131 38.9985 47.9219 39.2609 48.3182C39.5233 48.7145 39.6613 49.1801 39.6573 49.6554V54.1896C39.658 54.306 39.6929 54.4197 39.7576 54.5165C39.8223 54.6133 39.914 54.689 40.0214 54.7342C40.1287 54.7794 40.2469 54.7921 40.3614 54.7708C40.4759 54.7494 40.5816 54.695 40.6654 54.6141C40.7219 54.5589 40.7667 54.4928 40.7971 54.4198C40.8275 54.3469 40.8429 54.2686 40.8424 54.1896V49.6554C40.839 48.7086 40.4611 47.8016 39.7913 47.1324C39.1215 46.4632 38.2141 46.0861 37.2673 46.0835ZM49.0501 47.3605C49.8243 48.1925 50.2547 49.2869 50.2547 50.4234C50.2547 51.5599 49.8243 52.6543 49.0501 53.4863C48.6786 53.8943 48.2261 54.2203 47.7214 54.4434C47.2166 54.6664 46.6709 54.7816 46.1191 54.7816C45.5674 54.7816 45.0216 54.6664 44.5169 54.4434C44.0122 54.2203 43.5597 53.8943 43.1882 53.4863C42.4108 52.6559 41.9782 51.5609 41.9782 50.4234C41.9782 49.2859 42.4108 48.1909 43.1882 47.3605C43.5603 46.9536 44.0131 46.6286 44.5177 46.4063C45.0224 46.184 45.5677 46.0692 46.1191 46.0692C46.6706 46.0692 47.2159 46.184 47.7206 46.4063C48.2252 46.6286 48.678 46.9536 49.0501 47.3605ZM49.0665 50.4242C49.0719 49.5881 48.7603 48.781 48.1944 48.1654C47.9341 47.8726 47.6147 47.6384 47.2573 47.4779C46.8999 47.3175 46.5125 47.2346 46.1208 47.2346C45.729 47.2346 45.3417 47.3175 44.9843 47.4779C44.6269 47.6384 44.3075 47.8726 44.0471 48.1654C43.4789 48.78 43.1649 49.5872 43.1685 50.4242C43.165 51.2578 43.4792 52.0614 44.0471 52.6716C44.3085 52.9627 44.6282 53.1955 44.9855 53.3549C45.3428 53.5143 45.7296 53.5967 46.1208 53.5967C46.512 53.5967 46.8988 53.5143 47.2561 53.3549C47.6134 53.1955 47.9331 52.9627 48.1944 52.6716C48.76 52.0604 49.0718 51.2569 49.0665 50.4242ZM61.8525 46.1343C61.7853 46.1053 61.7127 46.0902 61.6394 46.0901C61.5215 46.0905 61.4063 46.1251 61.3077 46.1897C61.2091 46.2543 61.1313 46.3461 61.0837 46.454L58.8216 52.647L57.0774 48.4948C57.0279 48.3837 56.9455 48.2905 56.8414 48.2276C56.7395 48.1645 56.622 48.131 56.5021 48.1309C56.3839 48.1322 56.2686 48.1671 56.1696 48.2315C56.0706 48.296 55.992 48.3873 55.9431 48.4948L54.1907 52.6503L51.9155 46.4589C51.8772 46.345 51.8007 46.2477 51.6991 46.1835C51.6013 46.1207 51.4875 46.0871 51.3713 46.0868C51.2948 46.0869 51.219 46.1019 51.1483 46.1311C51.0107 46.1952 50.903 46.3096 50.8472 46.4508C50.7914 46.592 50.7918 46.7492 50.8483 46.89L53.6367 54.4092C53.6603 54.4689 53.6935 54.5242 53.735 54.5731C53.7724 54.6129 53.8162 54.6461 53.8645 54.6715C53.8789 54.6842 53.8943 54.6957 53.9104 54.7059C53.9364 54.7209 53.9646 54.7314 53.994 54.7371C54.0596 54.7616 54.1289 54.7749 54.1989 54.7764C54.3108 54.7739 54.4195 54.7392 54.512 54.6764C54.6075 54.6136 54.6808 54.5224 54.7219 54.4158H54.7301L56.4988 50.1865L58.2708 54.3994C58.3096 54.504 58.3779 54.5952 58.4675 54.6617C58.5523 54.7262 58.6522 54.768 58.7577 54.783H58.8314C58.8992 54.7835 58.9665 54.7712 59.0298 54.7469C59.0835 54.7258 59.1342 54.6977 59.1806 54.6633C59.2748 54.5886 59.3482 54.491 59.3937 54.3797L62.1804 46.8999C62.238 46.7572 62.2372 46.5975 62.178 46.4555C62.1187 46.3134 62.006 46.2004 61.864 46.1409L61.8525 46.1343Z" fill="#29B5E8"/>
</g>
<defs>
<clipPath id="clip0_15397_208501">
<rect width="100" height="22.7985" fill="white" transform="translate(0 39)"/>
</clipPath>
</defs>
</svg>
