<svg width="100" height="100" viewBox="0 0 100 100" fill="none" xmlns="http://www.w3.org/2000/svg">
<g clip-path="url(#clip0_15910_61489)">
<path d="M6.34921 0C4.66529 0 3.05035 0.668932 1.85964 1.85964C0.668932 3.05035 0 4.66529 0 6.34921L0 93.0476C0 94.7315 0.668932 96.3465 1.85964 97.5372C3.05035 98.7279 4.66529 99.3968 6.34921 99.3968H19.7302C21.4141 99.3968 23.029 98.7279 24.2197 97.5372C25.4104 96.3465 26.0794 94.7315 26.0794 93.0476V32.4444C26.0794 30.7605 26.7483 29.1456 27.939 27.9549C29.1297 26.7642 30.7447 26.0952 32.4286 26.0952H66.9524C68.6363 26.0952 70.2512 26.7642 71.4419 27.9549C72.6327 29.1456 73.3016 30.7605 73.3016 32.4444V66.873C73.3016 68.5569 72.6327 70.1719 71.4419 71.3626C70.2512 72.5533 68.6363 73.2222 66.9524 73.2222H47.0794C45.3955 73.2222 43.7805 73.8912 42.5898 75.0819C41.3991 76.2726 40.7302 77.8875 40.7302 79.5714V92.9524C40.7302 94.6363 41.3991 96.2512 42.5898 97.4419C43.7805 98.6327 45.3955 99.3016 47.0794 99.3016H93.1111C94.795 99.3016 96.41 98.6327 97.6007 97.4419C98.7914 96.2512 99.4603 94.6363 99.4603 92.9524V6.34921C99.4603 4.66529 98.7914 3.05035 97.6007 1.85964C96.41 0.668932 94.795 0 93.1111 0L6.34921 0Z" fill="black"/>
</g>
<defs>
<clipPath id="clip0_15910_61489">
<rect width="100" height="100" fill="white"/>
</clipPath>
</defs>
</svg>
