<svg width="100" height="100" viewBox="0 0 100 100" fill="none" xmlns="http://www.w3.org/2000/svg">
<path fill-rule="evenodd" clip-rule="evenodd" d="M72.6311 67.327H69.2586C68.7083 67.327 68.4066 67.0075 68.4066 66.4573V43.4533C68.4066 42.903 68.7083 42.5835 69.2586 42.5835H72.5246C73.0748 42.5835 73.3766 42.903 73.3766 43.4533V44.4295C74.4771 43.0095 76.1633 42.2108 78.0981 42.2108C82.7486 42.2108 86.3873 46.1868 86.3873 51.3343C86.3873 56.3753 82.8373 60.3868 78.1691 60.3868C76.1988 60.3868 74.5481 59.659 73.4831 58.452V66.475C73.4831 67.0253 73.1813 67.327 72.6311 67.327ZM37.0778 53.127C37.6636 54.6535 39.1368 55.6475 41.0006 55.6475C42.3496 55.6475 43.3791 55.1328 44.1246 54.2985C44.4618 53.8903 44.8523 53.7838 45.2961 54.05L47.9053 55.6475C48.3846 55.9493 48.5266 56.3753 48.1716 56.819C46.5918 59.0378 43.9648 60.3868 40.9118 60.3868C35.6756 60.3868 31.8948 56.4463 31.8948 51.3343C31.8948 46.1513 35.5158 42.2108 40.6278 42.2108C45.7931 42.2108 49.3253 46.0803 49.3253 51.2633C49.3253 51.6005 49.2898 51.991 49.2543 52.3283C49.1833 52.8785 48.8461 53.127 48.3313 53.127H37.0778ZM54.8278 48.4943H51.6328C51.0471 48.4943 50.7098 48.1748 50.7986 47.66C51.4553 44.3763 54.2776 42.193 58.4311 42.193C63.2058 42.193 66.3831 44.962 66.3831 49.0623V59.1265C66.3831 59.6768 66.0813 59.9963 65.5311 59.9963H62.2651C61.7148 59.9963 61.4131 59.6945 61.4131 59.1265V58.1325C60.0996 59.6945 58.5553 60.3868 56.6206 60.3868C52.8398 60.3868 50.3193 58.2035 50.3193 54.9198C50.3193 51.494 52.8043 49.3285 56.4786 49.3285H61.3953V48.9558C61.3953 47.7133 60.2238 46.879 58.5021 46.879C57.4016 46.879 56.3366 47.2873 55.8573 47.8908C55.5556 48.2458 55.3248 48.4943 54.8278 48.4943ZM17.8368 59.9963H14.4643C13.9141 59.9963 13.6123 59.6945 13.6123 59.1265V34.525C13.6123 33.9748 13.9141 33.6553 14.4643 33.6553H17.8368C18.3871 33.6553 18.6888 33.957 18.6888 34.525V42.5835H30.0843C30.6346 42.5835 30.9363 42.903 30.9363 43.4533V46.879C30.9363 47.4293 30.6346 47.7488 30.0843 47.7488H22.3453L30.6701 56.109C31.0428 56.4995 31.0428 56.9433 30.6701 57.3515L28.3448 59.73C27.9721 60.1383 27.4928 60.1028 27.1023 59.73L18.7066 51.2988V59.1443C18.7066 59.6945 18.3871 59.9963 17.8368 59.9963ZM61.4131 52.9495H57.3128C55.9283 52.9495 55.3781 53.6773 55.3781 54.6358C55.3781 55.541 56.1058 56.251 57.8631 56.251C59.9931 56.251 61.4131 55.1505 61.4131 53.5175V52.9495ZM81.2931 51.3343C81.2931 48.9913 79.6423 47.1808 77.3703 47.1808C74.9563 47.1808 73.3056 48.9735 73.3056 51.3343C73.3056 53.624 74.9563 55.4168 77.3703 55.4168C79.6423 55.399 81.2931 53.6063 81.2931 51.3343ZM44.3376 49.435C43.8583 47.7843 42.4738 46.879 40.6811 46.879C38.7818 46.879 37.4151 47.7843 36.9713 49.435H44.3376Z" fill="#36A635"/>
</svg>
