<svg width="100" height="100" viewBox="0 0 100 100" fill="none" xmlns="http://www.w3.org/2000/svg">
<path d="M49.4116 36.6732C44.6076 36.6732 40.7188 32.7843 40.7188 27.9804C40.7188 23.1765 44.6076 19.2876 49.4116 19.2876C54.2155 19.2876 58.1044 23.1765 58.1044 27.9804C58.1044 32.7516 54.2155 36.6732 49.4116 36.6732ZM49.4116 24.8105C47.6795 24.8105 46.2743 26.2157 46.2743 27.9477C46.2743 29.6798 47.6795 31.085 49.4116 31.085C51.1436 31.085 52.5488 29.6798 52.5488 27.9477C52.5488 26.2157 51.1436 24.8105 49.4116 24.8105Z" fill="#226DB4"/>
<path d="M30.6534 97.7515C29.1828 97.7515 27.7449 97.3594 26.4704 96.6404L6.73183 85.2352C4.15014 83.7319 2.54883 80.9868 2.54883 78.013V55.2352C2.54883 52.2613 4.15014 49.5162 6.73183 48.013L22.7449 38.7973C24.0848 38.013 25.7841 38.4705 26.5358 39.8103C27.3201 41.1502 26.8626 42.8496 25.5227 43.6012L9.50961 52.8169C8.65994 53.3071 8.10438 54.2221 8.10438 55.2352V78.013C8.10438 78.9934 8.62726 79.9084 9.50961 80.4313L29.2482 91.8365C30.0978 92.3267 31.1763 92.3267 32.026 91.8365L48.0063 82.5881C49.3462 81.8038 51.0456 82.2613 51.7972 83.6012C52.5815 84.9411 52.124 86.6404 50.7841 87.392L34.8037 96.6077C33.5292 97.3594 32.0913 97.7515 30.6534 97.7515Z" fill="#E42527"/>
<path d="M68.171 97.7518C66.7004 97.7518 65.2625 97.3596 63.988 96.6407L47.9749 87.3923C46.635 86.608 46.1775 84.9413 46.9618 83.6014C47.7461 82.2616 49.4128 81.8041 50.7527 82.5884L66.7657 91.8367C67.6154 92.3269 68.6938 92.3269 69.5435 91.8367L89.2821 80.4315C90.1318 79.9413 90.6873 79.0263 90.6873 78.0132V55.2354C90.6873 54.255 90.1644 53.34 89.2821 52.8171L73.3017 43.6014C71.9618 42.8171 71.5043 41.1505 72.2886 39.8106C73.0729 38.4707 74.7396 38.0132 76.0795 38.7975L92.0599 48.0132C94.6416 49.5165 96.2429 52.2616 96.2429 55.2354V78.0132C96.2429 80.9871 94.6416 83.7322 92.0599 85.2354L72.3213 96.6407C71.0795 97.3596 69.6416 97.7518 68.171 97.7518Z" fill="#F9B21D"/>
<path d="M24.1176 43.9937C22.5817 43.9937 21.3398 42.7518 21.3398 41.2159V22.7192C21.3398 19.7453 22.9411 17.0002 25.5228 15.4969L45.2614 4.09171C47.8431 2.62112 51.013 2.62112 53.5947 4.09171L73.3333 15.4969C75.915 17.0002 77.5163 19.7453 77.5163 22.7192V41.2159C77.5163 42.7518 76.2745 43.9937 74.7385 43.9937C73.2026 43.9937 71.9608 42.7518 71.9608 41.2159V22.7192C71.9608 21.7388 71.4379 20.8237 70.5555 20.3009L50.817 8.89563C49.9673 8.40544 48.8889 8.40544 48.0392 8.89563L28.3006 20.3009C27.451 20.7911 26.8954 21.7061 26.8954 22.7192V41.2159C26.8954 42.7192 25.6536 43.9937 24.1176 43.9937Z" fill="#089949"/>
<path d="M42.8772 62.2944C42.387 62.2944 41.9295 62.1637 41.472 61.935L25.4916 52.7193C22.9099 51.216 21.3086 48.4709 21.3086 45.4971V41.216C21.3086 39.6801 22.5504 38.4382 24.0864 38.4382C25.6223 38.4382 26.8641 39.6801 26.8641 41.216V45.4644C26.8641 46.4448 27.387 47.3598 28.2694 47.8827L44.2498 57.131C45.5896 57.9154 46.0472 59.582 45.2628 60.9219C44.8053 61.7716 43.8903 62.3271 42.8772 62.2944Z" fill="#226DB4"/>
<path d="M55.9497 62.3271C54.4137 62.3271 53.1719 61.0853 53.1719 59.5493C53.1719 58.5689 53.6948 57.6212 54.5771 57.131L70.5902 47.8826C71.4398 47.3924 71.9954 46.4774 71.9954 45.4643V41.1833C71.9954 39.6473 73.2372 38.4055 74.7732 38.4055C76.3091 38.4055 77.551 39.6473 77.551 41.1833V45.497C77.551 48.4709 75.9497 51.216 73.368 52.7192L57.3549 61.9349C56.8974 62.1964 56.4398 62.3271 55.9497 62.3271Z" fill="#226DB4"/>
<path d="M49.4125 51.0526C47.8766 51.0526 46.6348 49.8107 46.6348 48.2748C46.6348 47.2944 47.1576 46.3467 48.04 45.8565L64.0204 36.6408C66.6021 35.1702 69.772 35.1702 72.3537 36.6408L76.1119 38.7976C77.4518 39.582 77.9093 41.2486 77.125 42.5885C76.3406 43.9284 74.674 44.3859 73.3341 43.6016L69.5759 41.4447C68.7263 40.9545 67.6478 40.9545 66.7982 41.4447L50.8178 50.6604C50.3603 50.9218 49.9027 51.0526 49.4125 51.0526Z" fill="#226DB4"/>
<path d="M49.3811 87.7518C48.8909 87.7518 48.4334 87.6211 47.9759 87.3924L44.2504 85.2355C41.6687 83.7322 40.1001 80.9871 40.0674 78.0133V59.5165C40.0674 57.9806 41.3092 56.7388 42.8452 56.7388C44.3811 56.7388 45.6229 57.9806 45.6229 59.5165V78.0133C45.6229 78.9937 46.1458 79.9087 47.0282 80.4316L50.7537 82.5884C52.0935 83.3728 52.551 85.0394 51.7667 86.3793C51.3092 87.229 50.3942 87.7518 49.3811 87.7518Z" fill="#226DB4"/>
<path d="M49.4125 87.7845C47.8766 87.7845 46.6348 86.5427 46.6348 85.0067C46.6348 84.0264 47.1576 83.0786 48.04 82.5884L51.7982 80.4316C52.6478 79.9414 53.2034 79.0264 53.2034 78.0133V59.5165C53.2034 57.9806 54.4452 56.7388 55.9812 56.7388C57.5171 56.7388 58.759 57.9806 58.759 59.5165V78.0133C58.759 80.9871 57.1576 83.7322 54.5759 85.2355L50.8178 87.3924C50.3603 87.6538 49.9027 87.7845 49.4125 87.7845Z" fill="#226DB4"/>
<path d="M49.413 51.0526C48.9228 51.0526 48.4653 50.9218 48.0078 50.6931L32.0274 41.4447C31.1777 40.9545 30.0993 40.9545 29.2496 41.4447L25.5242 43.6016C24.1843 44.3859 22.4849 43.9284 21.7333 42.5885C20.949 41.2486 21.4065 39.5493 22.7464 38.7976L26.4719 36.6408C29.0536 35.1702 32.2235 35.1702 34.8052 36.6408L50.7856 45.8892C52.1255 46.6735 52.583 48.3401 51.7987 49.68C51.3411 50.497 50.3934 51.0526 49.413 51.0526Z" fill="#226DB4"/>
</svg>
