<svg width="100" height="100" viewBox="0 0 100 100" fill="none" xmlns="http://www.w3.org/2000/svg">
<path d="M90.1127 93.6253H35.9889C32.902 93.6253 30.1361 92.0267 28.5943 89.3511C27.0525 86.6755 27.0592 83.4815 28.6076 80.8093L45.2431 52.127C46.2732 50.3511 48.1127 49.2909 50.1628 49.2909C52.213 49.2909 54.0558 50.3511 55.0826 52.127L63.0224 65.816L72.621 49.2708L52.621 14.7926C51.8785 13.515 50.6545 13.3745 50.1595 13.3745C49.6645 13.3745 48.4404 13.5116 47.6979 14.7926L7.75815 83.6655C7.01233 84.9498 7.50731 86.0835 7.7548 86.5116C8.0023 86.9397 8.73474 87.9364 10.2197 87.9364H20.3869C21.9588 87.9364 23.2297 89.2106 23.2297 90.7792C23.2297 92.3478 21.9555 93.622 20.3869 93.622H10.2197C7.13273 93.622 4.36684 92.0233 2.82504 89.3478C1.28323 86.6722 1.28992 83.4782 2.83842 80.8059L42.7849 11.9397C44.3301 9.27752 47.0893 7.68889 50.1662 7.68889C53.2431 7.68889 56.0023 9.27752 57.5475 11.9397L75.9153 43.6053L90.4203 18.6053C91.2096 17.2474 92.9488 16.7859 94.3066 17.5718C95.6645 18.3611 96.1294 20.1003 95.3401 21.4581L79.1996 49.2742L97.4939 80.8126C99.0424 83.4849 99.0491 86.6755 97.5073 89.3544C95.9655 92.03 93.203 93.6287 90.1127 93.6287V93.6253ZM50.1662 54.9832L33.5307 83.6655C32.7849 84.9498 33.2799 86.0835 33.5274 86.5116C33.7749 86.9397 34.5073 87.9364 35.9923 87.9364H90.116C91.601 87.9364 92.3334 86.9397 92.5809 86.5116C92.8284 86.0835 93.32 84.9498 92.5775 83.6655L75.9153 54.9431L67.9488 68.6755C66.9187 70.4514 65.0792 71.5083 63.0291 71.5083C60.9789 71.5083 59.1394 70.4481 58.1093 68.6722L50.1695 54.9832H50.1662Z" fill="#F70011"/>
<path d="M95.8083 33.8929C94.5507 33.8929 93.4002 33.0501 93.0625 31.7792L90.8651 23.5083L82.5942 25.7056C81.0758 26.1103 79.5173 25.2039 79.116 23.6855C78.7113 22.1671 79.6176 20.6086 81.136 20.2073L92.1561 17.2808C93.6745 16.8761 95.233 17.7825 95.6344 19.3009L98.5608 30.321C98.9655 31.8394 98.0591 33.3979 96.5407 33.7992C96.2966 33.8628 96.0491 33.8962 95.8083 33.8962V33.8929Z" fill="#F70011"/>
</svg>
