<svg width="100" height="100" viewBox="0 0 100 100" fill="none" xmlns="http://www.w3.org/2000/svg">
<g clip-path="url(#clip0_15397_208502)">
<path d="M0 0H100V100H0V0Z" fill="#FDB71C"/>
<path d="M68.2812 40.8125C68.2812 36.275 65.9938 32.525 61.7188 29.375H71.6562C73.4066 30.7239 74.8239 32.4566 75.7992 34.4395C76.7745 36.4224 77.2816 38.6027 77.2816 40.8125C77.2816 43.0223 76.7745 45.2026 75.7992 47.1855C74.8239 49.1684 73.4066 50.9011 71.6562 52.25C74.8812 53.6 76.7188 56.9 76.7188 61.625V70.625H67.7188V61.625C67.7188 57.125 65.5812 53.9737 61.7188 52.25C65.9938 49.1 68.2812 45.35 68.2812 40.8125ZM48.7812 40.8125C48.7812 36.275 46.4937 32.525 42.2188 29.375H52.1562C53.9068 30.7238 55.3243 32.4564 56.2998 34.4393C57.2752 36.4222 57.7824 38.6026 57.7824 40.8125C57.7824 43.0224 57.2752 45.2028 56.2998 47.1857C55.3243 49.1686 53.9068 50.9012 52.1562 52.25C55.3812 53.6 57.2188 56.9 57.2188 61.625V70.625H48.2188V61.625C48.2188 57.125 46.0812 53.9737 42.2188 52.25C46.4937 49.1 48.7812 45.35 48.7812 40.8125ZM29.2812 40.8125C29.2812 36.275 26.9938 32.525 22.7188 29.375H32.6562C34.4063 30.7241 35.8235 32.4567 36.7986 34.4397C37.7738 36.4226 38.2808 38.6028 38.2808 40.8125C38.2808 43.0222 37.7738 45.2024 36.7986 47.1853C35.8235 49.1682 34.4063 50.9009 32.6562 52.25C35.8813 53.6 37.7188 56.9 37.7188 61.625V70.625H28.7188V61.625C28.7188 57.125 26.5812 53.9737 22.7188 52.25C26.9938 49.1 29.2812 45.35 29.2812 40.8125Z" fill="#502D3C"/>
</g>
<defs>
<clipPath id="clip0_15397_208502">
<rect width="100" height="100" fill="white"/>
</clipPath>
</defs>
</svg>
