<svg width="100" height="100" viewBox="0 0 100 100" fill="none" xmlns="http://www.w3.org/2000/svg">
<g clip-path="url(#clip0_15397_208511)">
<path d="M50.1591 0C30.1591 0 14.0002 16.1589 14.0002 36.0265V63.0464C13.4704 83.0464 29.3644 99.4702 49.232 100C69.232 100.53 85.7882 84.7682 86.1856 64.7682C86.1856 64.6358 86.1856 64.5033 86.1856 64.3709V36.0265C86.1856 16.1589 70.0267 0 50.1591 0ZM43.4041 72.1854C49.3644 72.1854 54.9273 68.7417 57.5763 63.4437H52.0134C48.0399 68.2119 41.02 68.8742 36.3843 64.9007C33.8677 62.7815 32.4108 59.6026 32.4108 56.2914V42.7815C32.1459 29.1391 42.8743 17.8808 56.5167 17.6159C70.1591 17.351 81.4174 28.0795 81.6823 41.7219V63.0464C81.8147 80.3973 67.775 94.4371 50.5565 94.5695C37.9737 94.702 26.7154 87.2848 21.6823 75.7616C32.4108 87.8146 50.9538 89.0066 63.1392 78.1457C69.3644 72.5828 72.9406 64.6358 72.9406 56.1589V42.7815C72.8081 34.0397 65.6558 27.0199 56.9141 27.0199C50.9538 27.0199 45.6558 30.4636 42.8743 35.6291H48.4373C52.4108 30.8609 59.2982 30.1987 64.0664 34.1722C66.583 36.2914 68.1724 39.4702 68.1724 42.7815V56.2914C68.1724 69.9338 57.179 80.9271 43.5366 80.9271C29.8942 80.9271 18.7684 69.9338 18.7684 56.2914V36.0265C18.7684 18.6755 32.8081 4.63576 50.1591 4.63576C62.6094 4.63576 73.8677 11.9205 78.9008 23.3113C68.1724 11.2583 49.6293 10.0662 37.4439 20.9272C31.0863 26.4901 27.5101 34.4371 27.5101 42.7815V56.2914C27.5101 65.0331 34.6624 72.1854 43.4041 72.1854Z" fill="black"/>
<mask id="mask0_15397_208511" style="mask-type:luminance" maskUnits="userSpaceOnUse" x="13" y="0" width="74" height="101">
<path d="M50.1591 0C30.1591 0 14.0002 16.1589 14.0002 36.0265V63.0464C13.4704 83.0464 29.3644 99.4702 49.232 100C69.232 100.53 85.7882 84.7682 86.1856 64.7682C86.1856 64.6358 86.1856 64.5033 86.1856 64.3709V36.0265C86.1856 16.1589 70.0267 0 50.1591 0ZM43.4041 72.1854C49.3644 72.1854 54.9273 68.7417 57.5763 63.4437H52.0134C48.0399 68.2119 41.02 68.8742 36.3843 64.9007C33.8677 62.7815 32.4108 59.6026 32.4108 56.2914V42.7815C32.1459 29.1391 42.8743 17.8808 56.5167 17.6159C70.1591 17.351 81.4174 28.0795 81.6823 41.7219V63.0464C81.8147 80.3973 67.775 94.4371 50.5565 94.5695C37.9737 94.702 26.7154 87.2848 21.6823 75.7616C32.4108 87.8146 50.9538 89.0066 63.1392 78.1457C69.3644 72.5828 72.9406 64.6358 72.9406 56.1589V42.7815C72.8081 34.0397 65.6558 27.0199 56.9141 27.0199C50.9538 27.0199 45.6558 30.4636 42.8743 35.6291H48.4373C52.4108 30.8609 59.2982 30.1987 64.0664 34.1722C66.583 36.2914 68.1724 39.4702 68.1724 42.7815V56.2914C68.1724 69.9338 57.179 80.9271 43.5366 80.9271C29.8942 80.9271 18.7684 69.9338 18.7684 56.2914V36.0265C18.7684 18.6755 32.8081 4.63576 50.1591 4.63576C62.6094 4.63576 73.8677 11.9205 78.9008 23.3113C68.1724 11.2583 49.6293 10.0662 37.4439 20.9272C31.0863 26.4901 27.5101 34.4371 27.5101 42.7815V56.2914C27.5101 65.0331 34.6624 72.1854 43.4041 72.1854Z" fill="white"/>
</mask>
<g mask="url(#mask0_15397_208511)">
<path d="M92.8074 -6.62244H7.37695V105.828H92.8074V-6.62244Z" fill="black"/>
</g>
<path d="M54.5304 40.5299V47.2849H45.7887V42.914C45.7887 42.1193 45.9212 41.3246 46.0536 40.5299H41.153C41.0205 41.3246 41.0205 42.1193 41.0205 42.914V58.8081H45.7887V52.0531H54.5304V56.4239C54.5304 57.2186 54.398 58.0134 54.2655 58.8081H59.0338C59.1662 58.0134 59.1662 57.2186 59.1662 56.4239V40.5299H54.5304Z" fill="black"/>
</g>
<defs>
<clipPath id="clip0_15397_208511">
<rect width="72.1854" height="100" fill="white" transform="translate(14)"/>
</clipPath>
</defs>
</svg>
