<svg width="100" height="100" viewBox="0 0 100 100" fill="none" xmlns="http://www.w3.org/2000/svg">
<g clip-path="url(#clip0_15384_206887)">
<path d="M48.193 44.3078H41.6793C41.5312 44.3078 41.3892 44.3666 41.2846 44.4712C41.18 44.5765 41.1205 44.7185 41.1205 44.8666V46.3238H46.7915C46.9396 46.3238 47.0816 46.3826 47.1861 46.4872C47.2907 46.5918 47.3495 46.7338 47.3495 46.8819V49.5902C47.3495 49.7383 47.2907 49.8803 47.1861 49.9849C47.0816 50.0895 46.9396 50.1483 46.7915 50.1483H41.6793C41.5312 50.1483 41.3892 50.207 41.2846 50.3116C41.18 50.417 41.1205 50.5589 41.1205 50.707V54.9727C41.1205 55.046 41.1068 55.1177 41.0785 55.1864C41.0503 55.2536 41.0098 55.3154 40.9571 55.3673C40.9052 55.4193 40.8442 55.4597 40.7762 55.488C40.7083 55.5162 40.6358 55.5307 40.5625 55.5307H37.1029C37.0304 55.5307 36.9579 55.5154 36.8892 55.488C36.822 55.4597 36.7602 55.4193 36.7083 55.3673C36.6564 55.3154 36.6159 55.2536 36.5877 55.1857C36.5594 55.1185 36.5449 55.046 36.5449 54.9719V40.8131C36.5449 40.6651 36.6037 40.5231 36.7083 40.4185C36.8136 40.3139 36.9556 40.2551 37.1029 40.2551H48.193C48.3411 40.2551 48.4831 40.3139 48.5877 40.4185C48.6923 40.5231 48.751 40.6651 48.751 40.8131V43.7506C48.751 43.8986 48.6923 44.0406 48.5877 44.1452C48.4831 44.2498 48.3411 44.3078 48.193 44.3078ZM55.206 55.5292H51.58C51.4319 55.5292 51.29 55.4712 51.1854 55.3658C51.0808 55.2612 51.022 55.1193 51.022 54.9712V40.8124C51.022 40.6643 51.0808 40.5223 51.1854 40.4177C51.29 40.3131 51.4319 40.2544 51.58 40.2544H55.2045C55.3526 40.2544 55.4945 40.3131 55.5991 40.4177C55.7037 40.5223 55.7625 40.6643 55.7625 40.8124V54.9712C55.7625 55.1193 55.7037 55.2612 55.5991 55.3658C55.4953 55.4704 55.3541 55.5292 55.206 55.5292ZM63.0419 51.4757H69.2793C69.4281 51.4757 69.5701 51.5353 69.6747 51.6399C69.78 51.7444 69.8388 51.8872 69.8388 52.0353V54.9696C69.8388 55.1177 69.78 55.2597 69.6747 55.3651C69.5701 55.4696 69.4281 55.5284 69.2793 55.5284H58.8625C58.7884 55.5284 58.7159 55.5139 58.6487 55.4857C58.58 55.4582 58.519 55.417 58.4671 55.3651C58.4144 55.3124 58.3739 55.2506 58.3449 55.1834C58.3174 55.1154 58.3029 55.0429 58.3029 54.9696V40.8147C58.3029 40.7414 58.3174 40.6689 58.3457 40.6009C58.3739 40.5322 58.4144 40.4712 58.4671 40.4193C58.519 40.3673 58.58 40.3261 58.648 40.2979C58.7167 40.2696 58.7884 40.2551 58.8617 40.2551H62.4831C62.5564 40.2551 62.6297 40.2704 62.6968 40.2979C62.7655 40.3261 62.8266 40.3673 62.8785 40.4193C62.9304 40.4712 62.9716 40.533 62.9999 40.6009C63.0281 40.6689 63.0426 40.7414 63.0426 40.8147L63.0419 51.4757ZM83.6358 44.0803H76.5297C76.3732 44.0803 76.2235 44.1429 76.1129 44.2536C76.0022 44.3643 75.9396 44.5139 75.9396 44.6704V45.9299L75.9419 45.9345L75.9457 45.936H82.609C82.7655 45.936 82.9159 45.9986 83.0266 46.1093C83.1373 46.22 83.1991 46.3696 83.1991 46.5261V48.8498C83.1991 49.0063 83.1373 49.1567 83.0266 49.2673C82.9159 49.378 82.7655 49.4399 82.609 49.4399H76.5327C76.3762 49.4399 76.2266 49.5025 76.1159 49.6131C76.0052 49.7238 75.9426 49.8735 75.9426 50.0299V51.478H84.0068C84.1632 51.478 84.3136 51.5399 84.4243 51.6506C84.535 51.7612 84.5968 51.9116 84.5968 52.0681V54.9414C84.5968 55.0979 84.535 55.2483 84.4243 55.3589C84.3136 55.4696 84.1632 55.5315 84.0068 55.5315H71.9457C71.7892 55.5315 71.6396 55.4696 71.5289 55.3589C71.4182 55.2483 71.3556 55.0979 71.3556 54.9414V40.8444C71.3556 40.688 71.4182 40.5383 71.5289 40.4277C71.6396 40.317 71.7892 40.2544 71.9457 40.2544H83.6358C83.7923 40.2544 83.9426 40.317 84.0533 40.4277C84.164 40.5383 84.2258 40.688 84.2258 40.8444V43.488C84.2266 43.5658 84.2113 43.6429 84.1816 43.7147C84.1526 43.7864 84.109 43.8521 84.0541 43.907C83.9991 43.962 83.9342 44.0055 83.8625 44.0353C83.7907 44.0658 83.7136 44.0811 83.6358 44.0811V44.0803ZM94.9235 44.7887C94.8159 44.7902 94.7098 44.7605 94.6182 44.704C94.5274 44.6467 94.4541 44.5643 94.4083 44.4666C94.0999 43.7651 93.5335 43.4154 92.6724 43.4154C91.7564 43.4154 91.0686 43.8048 91.0686 44.3307C91.0686 44.72 91.3213 44.949 91.9388 45.1322L94.8472 45.9796C98.3487 46.9872 99.6571 48.2452 99.6571 50.6284C99.6571 53.7658 96.9541 55.8727 92.9006 55.8727C90.4961 55.8727 88.4816 55.0941 87.2213 53.6964C86.5579 52.9551 86.2106 52.1979 86.051 51.0551C86.0403 50.9765 86.0464 50.8964 86.0693 50.82C86.0922 50.7437 86.1319 50.6727 86.1839 50.6131C86.2365 50.5528 86.3014 50.5048 86.3739 50.4719C86.4464 50.4391 86.5258 50.4223 86.6052 50.4223H90.1976C90.3228 50.4231 90.4449 50.4666 90.5426 50.5444C90.6411 50.6231 90.7098 50.7315 90.7388 50.8536C90.9564 51.7269 91.7419 52.2078 92.9922 52.2078C94.1602 52.2078 94.9846 51.7269 94.9846 51.0399C94.9846 50.5819 94.6403 50.307 93.7022 50.0101L90.6793 49.0712C88.9839 48.5444 88.0457 47.9948 87.3839 47.1933C86.8037 46.4651 86.4892 45.5605 86.4907 44.6292C86.4907 41.8124 89.0327 39.9116 92.7655 39.9116C95.1709 39.9116 96.9793 40.6215 97.9877 41.9498C98.5022 42.5941 98.7442 43.2078 98.8655 44.1544C98.8762 44.2338 98.8701 44.3139 98.8472 44.3902C98.8243 44.4666 98.7854 44.5368 98.7327 44.5964C98.6808 44.6574 98.6159 44.7048 98.5434 44.7383C98.4709 44.7712 98.3922 44.7887 98.3129 44.7887H94.9235Z" fill="#4D1620"/>
<path d="M52.5287 63.6704C52.476 63.6704 52.4249 63.6529 52.3836 63.62C52.3424 63.588 52.3134 63.5422 52.3012 63.4918L51.5737 60.472C51.5813 60.7162 51.5813 60.7239 51.5813 60.8727C51.5813 60.9437 51.5813 61.1399 51.5905 61.4544V63.4361C51.5905 63.4979 51.5653 63.5582 51.5218 63.6017C51.4775 63.646 51.418 63.6704 51.3554 63.6704H50.3859C50.3241 63.6704 50.2638 63.646 50.2203 63.6017C50.176 63.5582 50.1516 63.4979 50.1516 63.4361V58.6636C50.1516 58.601 50.176 58.5414 50.2203 58.4971C50.2646 58.4536 50.3241 58.4284 50.3867 58.4284H52.0806C52.1333 58.4284 52.1836 58.446 52.2256 58.4788C52.2661 58.5109 52.2951 58.5559 52.3081 58.6071L52.9562 61.2422L53.6035 58.6071C53.6165 58.5559 53.6455 58.5109 53.6875 58.4788C53.7279 58.446 53.7791 58.4284 53.831 58.4284H55.5271C55.5897 58.4284 55.6493 58.4536 55.6936 58.4971C55.7378 58.5414 55.7623 58.601 55.7623 58.6636V63.4368C55.7623 63.4994 55.7378 63.559 55.6936 63.6032C55.6493 63.6468 55.5897 63.672 55.5271 63.672H54.5577C54.4966 63.672 54.4363 63.6468 54.392 63.6032C54.3485 63.559 54.3233 63.4994 54.3233 63.4368V61.6124L54.3317 61.0971C54.3317 60.9086 54.3317 60.83 54.3394 60.4788L53.6126 63.4987C53.6004 63.5498 53.5714 63.5949 53.5302 63.6277C53.489 63.6597 53.4378 63.6781 53.3852 63.6781H52.5287V63.6704ZM49.534 61.0842C49.534 62.6727 48.418 63.788 46.8317 63.788C45.2439 63.788 44.1363 62.672 44.1363 61.0452C44.1363 59.4193 45.2355 58.3101 46.831 58.3101C48.4569 58.3101 49.5348 59.4185 49.5348 61.0849L49.534 61.0842ZM45.7623 61.046C45.7623 61.9178 46.1745 62.4758 46.8394 62.4758C47.4844 62.4758 47.9081 61.9185 47.9081 61.0613C47.9081 60.1804 47.4959 59.6185 46.8317 59.6185C46.1661 59.6185 45.7623 60.1819 45.7623 61.046ZM38.0615 62.3872V63.4422C38.0615 63.504 38.0371 63.5636 37.9928 63.6071C37.9493 63.6513 37.8897 63.6758 37.8279 63.6758H36.7783C36.7165 63.6758 36.6562 63.6513 36.6126 63.6071C36.5691 63.5636 36.5439 63.504 36.5439 63.4422V62.3918C36.5439 62.33 36.5691 62.2697 36.6126 62.2262C36.6569 62.1826 36.7165 62.1574 36.7783 62.1574H37.8287C37.8897 62.1574 37.9493 62.1819 37.9928 62.2246C38.0363 62.2681 38.0607 62.3262 38.0615 62.3872ZM42.2042 60.3666C42.1554 60.3666 42.1073 60.3521 42.0668 60.3239C42.0264 60.2956 41.9966 60.2552 41.9806 60.2094C41.9249 60.0345 41.8134 59.8834 41.6638 59.7773C41.5142 59.672 41.334 59.617 41.1508 59.6231C40.5447 59.6231 40.1287 60.1971 40.1287 61.03C40.1287 61.8636 40.5768 62.4727 41.1745 62.4727C41.5943 62.4727 41.8714 62.2338 41.9875 61.7872C42.0012 61.7376 42.0302 61.6941 42.0699 61.6636C42.1104 61.6323 42.16 61.6155 42.2111 61.6155H43.3584C43.392 61.6155 43.4256 61.6231 43.4569 61.6368C43.4875 61.6521 43.5149 61.6727 43.5363 61.6979C43.5584 61.7246 43.5745 61.7544 43.5836 61.7872C43.5928 61.82 43.5943 61.8544 43.589 61.888C43.5371 62.2361 43.4012 62.5658 43.1936 62.8491C42.7607 63.4376 42.0226 63.7842 41.1974 63.7842C39.6523 63.7842 38.5569 62.6216 38.5569 61.0033C38.5569 59.4384 39.6562 58.3086 41.1821 58.3086C42.3386 58.3086 43.2088 58.959 43.5188 60.0422C43.5287 60.0773 43.5302 60.1132 43.5241 60.1491C43.5172 60.1842 43.5035 60.2178 43.4821 60.246C43.4607 60.275 43.4333 60.2994 43.4012 60.3147C43.3699 60.3323 43.334 60.3414 43.2989 60.3422L42.205 60.3658L42.2042 60.3666Z" fill="#C20F2F"/>
<path d="M4.64844 41.5785V51.0021C4.64844 51.1067 4.69042 51.2082 4.76447 51.2823C4.83928 51.3563 4.94004 51.3983 5.04462 51.3983H14.4683C14.5469 51.3983 14.6232 51.3754 14.6881 51.3311C14.7538 51.2876 14.8042 51.2258 14.8339 51.1533C14.8645 51.0808 14.8721 51.0014 14.8568 50.9243C14.8416 50.8479 14.8034 50.7769 14.7484 50.722L5.32401 41.2991C5.26828 41.2449 5.19806 41.2075 5.12172 41.1922C5.04538 41.1769 4.96599 41.1846 4.89348 41.2151C4.82172 41.2441 4.75989 41.2945 4.71638 41.3601C4.67286 41.4243 4.6492 41.5006 4.64844 41.5785Z" fill="#AB1A2D"/>
<path d="M8.34195 42.0703L15.7267 49.452C15.7824 49.5077 15.8534 49.5451 15.9297 49.5604C16.0061 49.5756 16.0862 49.568 16.1587 49.5375C16.2313 49.5077 16.2931 49.4573 16.3366 49.3924C16.3801 49.3268 16.4038 49.2504 16.4038 49.1718V34.4069C16.4038 34.3283 16.3809 34.252 16.3366 34.1863C16.2931 34.1214 16.2313 34.071 16.1587 34.0413C16.0862 34.0107 16.0061 34.0031 15.9297 34.0184C15.8534 34.0336 15.7824 34.0718 15.7267 34.1268L8.34195 41.5054C8.30379 41.5428 8.27478 41.5863 8.25417 41.6352C8.23432 41.6833 8.22363 41.7352 8.22363 41.7878C8.22363 41.8405 8.23432 41.8924 8.25417 41.9405C8.27478 41.9894 8.30455 42.0329 8.34195 42.0703Z" fill="#EA0A2A"/>
<path d="M18.2822 40.6396V49.1717C18.2822 49.2503 18.3051 49.3266 18.3494 49.3915C18.3929 49.4572 18.4547 49.5076 18.5273 49.5381C18.5998 49.5679 18.6792 49.5763 18.7563 49.561C18.8326 49.5457 18.9036 49.5076 18.9586 49.4518L27.4914 40.9198C27.5463 40.864 27.5845 40.7931 27.5998 40.7167C27.615 40.6404 27.6074 40.5602 27.5769 40.4877C27.5471 40.4152 27.4967 40.3534 27.4318 40.3099C27.3662 40.2663 27.2899 40.2427 27.2112 40.2427H18.6784C18.5738 40.2427 18.4723 40.2847 18.3983 40.3587C18.3242 40.4335 18.2822 40.5343 18.2822 40.6396Z" fill="#D6202A"/>
<path d="M20.2143 51.3985H30.9105C30.9891 51.3985 31.0655 51.3756 31.1304 51.3314C31.196 51.2879 31.2464 51.226 31.2762 51.1535C31.3067 51.0818 31.3143 51.0016 31.2991 50.9245C31.2838 50.8482 31.2456 50.7772 31.1907 50.7222L25.8426 45.3741C25.8059 45.3367 25.7624 45.3077 25.7136 45.2879C25.6655 45.268 25.6143 45.2573 25.5617 45.2573C25.5097 45.2573 25.4578 45.268 25.4097 45.2879C25.3617 45.3077 25.3181 45.3367 25.2815 45.3741L19.9334 50.7222C19.8777 50.7779 19.8403 50.8482 19.825 50.9253C19.8097 51.0016 19.8174 51.0818 19.8479 51.1543C19.8785 51.2268 19.9288 51.2886 19.9937 51.3321C20.0594 51.3756 20.1349 51.3985 20.2143 51.3985Z" fill="#A32135"/>
<path d="M19.9333 53.6579L25.9845 59.7098C26.0402 59.7655 26.1104 59.8029 26.1875 59.8189C26.2646 59.8342 26.3448 59.8266 26.4165 59.796C26.4898 59.7663 26.5517 59.7151 26.5952 59.6502C26.6394 59.5846 26.6623 59.5083 26.6623 59.4289V53.3823C26.6623 53.3296 26.6517 53.2785 26.6318 53.2296C26.612 53.1823 26.583 53.138 26.5463 53.1014C26.5089 53.0647 26.4654 53.0357 26.4173 53.0159C26.3692 52.9953 26.3181 52.9854 26.2654 52.9854H20.2143C20.1364 52.9861 20.0616 53.0098 19.9967 53.0525C19.9318 53.096 19.8822 53.1571 19.8517 53.2289C19.8219 53.3006 19.8135 53.3792 19.8288 53.4556C19.8425 53.5319 19.8791 53.6021 19.9333 53.6579Z" fill="#F12535"/>
<path d="M24.2112 60.1827L18.9593 54.9308C18.9036 54.875 18.8326 54.8369 18.7555 54.8216C18.6792 54.8063 18.599 54.814 18.5265 54.8445C18.4547 54.875 18.3929 54.9254 18.3494 54.9903C18.3051 55.0552 18.2822 55.1323 18.2822 55.2101V65.7147C18.2822 65.7934 18.3051 65.8697 18.3486 65.9353C18.3929 66.0002 18.4547 66.0506 18.5265 66.0804C18.599 66.1109 18.6792 66.1185 18.7555 66.1033C18.8326 66.088 18.9036 66.0498 18.9586 65.9949L24.2105 60.743C24.2853 60.6682 24.3265 60.5674 24.3265 60.4628C24.3265 60.3575 24.2853 60.2567 24.2112 60.1827Z" fill="#911A1C"/>
<path d="M16.4003 63.348V55.2121C16.4003 55.1335 16.3774 55.0571 16.3331 54.9923C16.2896 54.9266 16.2277 54.8762 16.1552 54.8465C16.0827 54.8159 16.0033 54.8083 15.9262 54.8236C15.8499 54.8388 15.7789 54.877 15.7239 54.9319L7.58652 63.0678C7.5308 63.1236 7.49339 63.1938 7.47736 63.2709C7.46209 63.348 7.46973 63.4281 7.50026 63.4999C7.53003 63.5732 7.58118 63.635 7.64606 63.6785C7.71171 63.7228 7.78805 63.7457 7.86744 63.7457H16.0026C16.0552 63.7457 16.1064 63.735 16.1552 63.7152C16.2033 63.6953 16.2468 63.6663 16.2835 63.6289C16.3201 63.5923 16.3499 63.5487 16.3697 63.4999C16.3896 63.4518 16.4003 63.4007 16.4003 63.348Z" fill="#C20F2F"/>
<path d="M14.4681 52.9854H0.697147C0.619285 52.9861 0.543712 53.0098 0.47959 53.0533C0.415468 53.0968 0.365086 53.1579 0.334552 53.2289C0.305544 53.3014 0.297148 53.38 0.311651 53.4556C0.326155 53.5319 0.362796 53.6021 0.416231 53.6579L7.30173 60.5434C7.33913 60.5808 7.38264 60.6098 7.4315 60.6296C7.47883 60.6495 7.53074 60.6602 7.58264 60.6602C7.63532 60.6602 7.68646 60.6495 7.73532 60.6296C7.78341 60.6098 7.82692 60.5808 7.86356 60.5434L14.7483 53.6579C14.8017 53.6021 14.8384 53.5319 14.8529 53.4556C14.8681 53.3792 14.8597 53.3014 14.83 53.2296C14.7994 53.1579 14.7498 53.0968 14.6849 53.0533C14.6216 53.0098 14.546 52.9861 14.4681 52.9854Z" fill="#D82336"/>
</g>
<defs>
<clipPath id="clip0_15384_206887">
<rect width="100" height="32.8244" fill="white" transform="translate(0 34)"/>
</clipPath>
</defs>
</svg>
