<svg width="100" height="100" viewBox="0 0 100 100" fill="none" xmlns="http://www.w3.org/2000/svg">
<g clip-path="url(#clip0_15397_208528)">
<path d="M34.25 50.8437V54.9062H32.5625V44.5625H36.5938C39 44.5625 40.2812 45.7813 40.2812 47.7188C40.2812 49.6562 39 50.875 36.5938 50.875H34.25V50.8437ZM34.25 46.125V49.25H36.5625C37.9063 49.25 38.5313 48.75 38.5313 47.6875C38.5313 46.625 37.9063 46.125 36.5625 46.125H34.25Z" fill="black"/>
<path d="M47.9375 54.9062H46.375V54.0625C45.875 54.6875 45.1563 55.0938 44.1563 55.0938C42.1875 55.0938 40.625 53.5312 40.625 51.375C40.625 49.2187 42.1875 47.6562 44.1563 47.6562C45.1563 47.6562 45.9062 48.0625 46.375 48.6875V47.8438H47.9375V54.9062ZM42.1875 51.375C42.1875 52.625 43 53.6562 44.3125 53.6562C45.5938 53.6562 46.4375 52.6875 46.4375 51.375C46.4375 50.0938 45.5938 49.0938 44.3125 49.0938C43 49.0938 42.1875 50.125 42.1875 51.375Z" fill="black"/>
<path d="M56.2187 50.4688V54.9375H54.6562V50.9688C54.6562 49.7813 54.0313 49.125 53 49.125C52 49.125 51.1562 49.7812 51.1562 51V54.9375H49.5938V47.8438H51.125V48.7187C51.6875 47.875 52.5625 47.6562 53.3125 47.6562C55.0313 47.6562 56.2187 48.8125 56.2187 50.4688Z" fill="black"/>
<path d="M62.9687 48.6875V44.25H64.5312V54.9062H62.9687V54.0625C62.4687 54.6875 61.75 55.0938 60.75 55.0938C58.7812 55.0938 57.2188 53.5312 57.2188 51.375C57.2188 49.2187 58.7812 47.6562 60.75 47.6562C61.75 47.6562 62.5 48.0625 62.9687 48.6875ZM58.7812 51.375C58.7812 52.625 59.5937 53.6562 60.9062 53.6562C62.1875 53.6562 63.0312 52.6875 63.0312 51.375C63.0312 50.0938 62.1875 49.0938 60.9062 49.0938C59.5937 49.0938 58.7812 50.125 58.7812 51.375Z" fill="black"/>
<path d="M73.0312 54.9062H71.4687V54.0625C70.9687 54.6875 70.25 55.0938 69.25 55.0938C67.2813 55.0938 65.7188 53.5312 65.7188 51.375C65.7188 49.2187 67.2813 47.6562 69.25 47.6562C70.25 47.6562 71 48.0625 71.4687 48.6875V47.8438H73.0312V54.9062ZM67.2812 51.375C67.2812 52.625 68.0938 53.6562 69.4063 53.6562C70.6875 53.6562 71.5312 52.6875 71.5312 51.375C71.5312 50.0938 70.6875 49.0938 69.4063 49.0938C68.0938 49.0938 67.2812 50.125 67.2812 51.375Z" fill="black"/>
<path d="M78.9062 44.5625C82.1562 44.5625 84.2813 46.625 84.2813 49.75C84.2813 52.875 82.1562 54.9375 78.9062 54.9375H74.7812V44.5625H78.9062ZM76.4687 46.1563V53.3438H78.9062C81.3437 53.3438 82.5313 51.8437 82.5313 49.75C82.5313 47.625 81.3437 46.1563 78.9062 46.1563H76.4687Z" fill="black"/>
<path d="M92.7188 51.375C92.7188 53.5 91.0938 55.0938 88.9063 55.0938C86.7188 55.0938 85.0938 53.5 85.0938 51.375C85.0938 49.25 86.7188 47.6562 88.9063 47.6562C91.0938 47.6562 92.7188 49.25 92.7188 51.375ZM86.6875 51.375C86.6875 52.7188 87.6563 53.6562 88.9063 53.6562C90.1875 53.6562 91.125 52.7188 91.125 51.375C91.125 50.0312 90.1563 49.0938 88.9063 49.0938C87.6563 49.0938 86.6875 50.0312 86.6875 51.375Z" fill="black"/>
<path d="M100 48.7811L99 49.8436C98.5 49.3749 97.9687 49.1249 97.3125 49.1249C96.125 49.1249 95.2188 50.0624 95.2188 51.4061C95.2188 52.7499 96.125 53.6874 97.3125 53.6874C98 53.6874 98.5937 53.3749 99.0625 52.9374L100.031 53.9999C99.375 54.7499 98.4375 55.1249 97.375 55.1249C95.125 55.1249 93.6562 53.5311 93.6562 51.4061C93.6562 49.2811 95.125 47.6874 97.375 47.6874C98.4062 47.6561 99.375 48.0311 100 48.7811Z" fill="black"/>
<path d="M25 38H0V63H25V38Z" fill="#47B972"/>
<path d="M18.2812 43.5312V47.2187L18.2188 47.25C17.6875 46.8125 17 46.5312 16.125 46.5312C15 46.5312 13.9688 46.9375 13.2812 47.75L14.3438 48.875C14.875 48.375 15.4375 48.0937 16.1562 48.0937C17.5 48.125 18.375 49.1562 18.375 50.5312C18.375 51.9062 17.4688 52.9688 16.0938 52.9688C12.6562 52.9688 13.625 46.5312 9 46.5312C6.6875 46.5312 5.0625 48.25 5.0625 50.5312V57.5H6.71875V53.7812L6.78125 53.75C7.3125 54.1875 8 54.4688 8.875 54.4688C10 54.4688 11.0312 54.0625 11.7188 53.25L10.6562 52.125C10.125 52.625 9.5625 52.9062 8.84375 52.9062C7.5 52.875 6.625 51.8438 6.625 50.4688C6.625 49.0938 7.53125 48.0312 8.90625 48.0312C12.3438 48.0312 11.375 54.4688 16 54.4688C18.3125 54.4688 19.9375 52.75 19.9375 50.4688V43.5312H18.2812Z" fill="white"/>
</g>
<defs>
<clipPath id="clip0_15397_208528">
<rect width="100" height="25" fill="white" transform="translate(0 38)"/>
</clipPath>
</defs>
</svg>
