<svg width="100" height="100" viewBox="0 0 100 100" fill="none" xmlns="http://www.w3.org/2000/svg">
<path fill-rule="evenodd" clip-rule="evenodd" d="M93.0146 44.817H94.6177H94.6253C94.6711 44.8179 94.7146 44.8358 94.7474 44.8671C94.7818 44.9001 94.8016 44.9454 94.8016 44.9926V55.7941C94.8016 55.8952 94.7177 55.9772 94.6139 55.9772H93.1909V55.951L88.4993 48.0611V55.7941C88.4993 55.8952 88.4154 55.9772 88.3116 55.9772H86.6856C86.6375 55.9772 86.591 55.9582 86.5574 55.9245C86.523 55.8906 86.5047 55.845 86.5055 55.7978V45.0561C86.5047 44.9924 86.5299 44.931 86.5764 44.8859C86.6222 44.8408 86.6856 44.816 86.7505 44.817H88.7253L92.8268 51.6977V45.0001C92.8268 44.899 92.9108 44.817 93.0146 44.817ZM77.0841 45.045V55.7829C77.0841 55.8881 77.1719 55.9735 77.2795 55.9735H79.3955C79.4971 55.9735 79.5795 55.8932 79.5795 55.7941V51.6604H81.8749C81.8749 51.6604 85.0093 51.4997 85.0093 48.2219C85.0093 44.9441 81.8329 44.8319 81.8329 44.8319H77.3177C77.2574 44.8266 77.1971 44.8468 77.152 44.8875C77.1077 44.9281 77.0833 44.9855 77.0841 45.045ZM81.1864 46.5137C81.6482 46.5021 82.094 46.6844 82.41 47.0143C82.7253 47.3443 82.8818 47.7906 82.839 48.2404C82.8688 48.6868 82.7077 49.1252 82.3948 49.4516C82.0818 49.7781 81.6444 49.9633 81.1864 49.9634H79.5368V46.6258C79.5368 46.4763 79.652 46.495 79.652 46.495L81.1864 46.5137ZM71.341 55.8427L75.4467 45.0749C75.4684 45.019 75.4603 44.9564 75.4249 44.9077C75.3897 44.859 75.3319 44.8306 75.2707 44.8319H73.4302C73.3529 44.8323 73.2835 44.8781 73.2542 44.9478L70.5756 52.0042L67.878 44.9478C67.8509 44.878 67.7822 44.8318 67.7058 44.8319H65.8652C65.8042 44.8306 65.7464 44.859 65.711 44.9077C65.6758 44.9564 65.6676 45.019 65.6892 45.0749L69.7951 55.8427C69.824 55.9132 69.8932 55.9603 69.971 55.9623H71.1764C71.2557 55.9618 71.3268 55.9145 71.3562 55.8427H71.341ZM9.22965 47.6771C10.6563 47.8479 11.7264 49.0344 11.7201 50.4382C11.7184 51.5771 11.0012 52.5982 9.914 53.0097L10.9854 58.6944H6.80306L7.89362 53.0209C6.54695 52.5301 5.78923 51.1329 6.13021 49.769C6.4712 48.4052 7.80301 47.5064 9.22965 47.6771Z" fill="#1A3967"/>
<path fill-rule="evenodd" clip-rule="evenodd" d="M8.93679 41.8396C13.8014 41.8396 17.7729 45.6393 17.8735 50.3898C17.8761 53.4784 16.1894 56.3331 13.4501 57.876L12.88 54.1721C13.7735 53.2266 14.2695 51.9868 14.269 50.7C14.1916 47.878 11.8271 45.6295 8.93679 45.6295C6.04645 45.6295 3.68196 47.878 3.60455 50.7C3.60424 51.9767 4.09289 53.2072 4.97443 54.1497L4.40047 57.8648C1.67589 56.316 -0.000102172 53.4689 4.67162e-09 50.3898C0.100644 45.6393 4.07214 41.8396 8.93679 41.8396ZM24.0459 50.3651C24.0297 53.5122 26.6248 56.0781 29.8468 56.1008C31.4015 56.1067 32.895 55.5092 33.9987 54.4396C35.1024 53.3699 35.7258 51.9159 35.7319 50.3973C35.734 47.2502 33.1273 44.6954 29.9053 44.6866C26.6834 44.6777 24.0621 47.218 24.0459 50.3651ZM33.0531 50.3798C33.0629 52.1206 31.6287 53.5409 29.8465 53.5553C28.9853 53.5592 28.1577 53.2286 27.5462 52.6363C26.9347 52.0439 26.5894 51.2383 26.5863 50.3971C26.5864 48.6563 28.0286 47.2438 29.8109 47.239C31.5931 47.2343 33.0433 48.639 33.0531 50.3798ZM36.9723 55.7829V45.045C36.9709 44.9855 36.9957 44.9282 37.0402 44.8876C37.0847 44.8469 37.145 44.8267 37.2056 44.832H41.7171C41.7171 44.832 44.8969 44.9441 44.8969 48.2219C44.8969 51.4997 41.7631 51.6605 41.7631 51.6605H39.4863V55.7941C39.4842 55.8924 39.4032 55.9715 39.3026 55.9735H37.1674C37.0596 55.9735 36.9723 55.8882 36.9723 55.7829ZM42.2965 47.0145C41.9811 46.6844 41.536 46.5021 41.074 46.5138L39.5395 46.4951C39.5395 46.4951 39.4247 46.4763 39.4247 46.6259V49.9634H41.074C41.5316 49.9634 41.9688 49.7781 42.2814 49.4515C42.5939 49.125 42.7539 48.6865 42.7232 48.2405C42.7672 47.791 42.6118 47.3447 42.2965 47.0145ZM46.2968 55.9735C46.1953 55.9735 46.1131 55.8932 46.1131 55.7941V45.0002C46.1131 44.9519 46.133 44.9057 46.1682 44.872C46.2036 44.8382 46.2512 44.8198 46.3006 44.8208H53.8885C53.9927 44.8208 54.0778 44.9021 54.0799 45.0039V46.5737C54.0799 46.6219 54.06 46.6681 54.0247 46.7018C53.9895 46.7356 53.9418 46.7541 53.8924 46.7531H48.7496C48.649 46.7551 48.5679 46.8342 48.5659 46.9325V49.0479C48.5659 49.147 48.6482 49.2273 48.7496 49.2273H52.1475C52.1966 49.2263 52.2439 49.2448 52.2785 49.2787C52.3132 49.3126 52.3322 49.3588 52.3312 49.4067V50.9839C52.3312 51.0312 52.3118 51.0764 52.2772 51.1095C52.2426 51.1425 52.1959 51.1606 52.1475 51.1596H48.7496C48.649 51.1615 48.5679 51.2408 48.5659 51.339V53.8618C48.568 53.9594 48.6496 54.0375 48.7496 54.0375H53.8924C53.9945 54.0375 54.0778 54.1172 54.0799 54.2169V55.7941C54.0799 55.8424 54.06 55.8886 54.0247 55.9223C53.9895 55.956 53.9418 55.9745 53.8924 55.9735H46.2968ZM63.6887 44.8283H62.0854C61.9818 44.8283 61.8979 44.9102 61.8979 45.0114V51.709L57.7959 44.8283H55.8138C55.6906 44.8282 55.5901 44.9247 55.588 45.045V55.809C55.588 55.9081 55.6702 55.9884 55.7717 55.9884H57.3941C57.4445 55.9895 57.4932 55.9706 57.5292 55.9361C57.5652 55.9017 57.5855 55.8545 57.5855 55.8053V48.0724L62.2615 55.9623V55.9884H63.6849C63.7346 55.9884 63.7823 55.9692 63.8175 55.9348C63.8526 55.9005 63.8724 55.8539 63.8724 55.8053V45.0039C63.8724 44.9567 63.8529 44.9114 63.8184 44.8783C63.7856 44.847 63.742 44.8292 63.6964 44.8283H63.6887Z" fill="#ED7F22"/>
<path fill-rule="evenodd" clip-rule="evenodd" d="M99.4052 44.9737C99.4052 45.6718 98.8319 46.2378 98.1243 46.2378C97.4174 46.2378 96.8441 45.6718 96.8441 44.9737C96.8441 44.2755 97.4174 43.7095 98.1243 43.7095C98.8319 43.7095 99.4052 44.2755 99.4052 44.9737ZM99.5472 44.9737C99.5472 45.7494 98.9105 46.3783 98.1243 46.3783C97.3388 46.3783 96.7021 45.7494 96.7021 44.9737C96.7021 44.1979 97.3388 43.5691 98.1243 43.5691C98.9105 43.5691 99.5472 44.1979 99.5472 44.9737ZM98.0457 45.1827L98.4457 45.8164H98.7373L98.3159 45.1715C98.4495 45.1489 98.5518 45.098 98.6212 45.0186C98.693 44.9392 98.7281 44.8373 98.7281 44.713C98.7281 44.5676 98.6808 44.4508 98.5846 44.3624C98.4907 44.274 98.3518 44.2298 98.1686 44.2298H97.6014V45.8164H97.8609V45.1827H98.0457ZM98.148 45.0006H97.8609V44.45H98.148C98.2556 44.45 98.3342 44.4747 98.3846 44.5242C98.4365 44.5721 98.4617 44.6395 98.4617 44.7264C98.4617 44.9092 98.3571 45.0006 98.148 45.0006Z" fill="#1A3967"/>
</svg>
