<svg width="100" height="100" viewBox="0 0 100 100" fill="none" xmlns="http://www.w3.org/2000/svg">
<path d="M60.2376 36.4121V69.9677H57.5233V71.428H74.5868V69.9677H71.8884V28.4438L56.9043 33.6026L60.2376 36.4121Z" fill="#121718"/>
<path d="M57.5709 66.2536C55.1265 69.9361 51.2217 71.9996 45.7931 71.9996C37.5709 71.9996 30.809 66.3805 30.809 57.4916C30.809 49.1266 36.5233 42.1901 45.8566 42.1901C51.3328 42.1901 55.1265 45.3488 55.1265 49.5234C55.1265 54.2853 51.3963 58.4758 44.3963 61.0472C47.7296 64.2535 51.9201 66.3805 55.8249 66.3805C56.4122 66.3805 56.9836 66.317 57.5074 66.2059L57.5709 66.2694V66.2536ZM43.682 60.317C44.7408 59.1231 45.5129 57.7031 45.9393 56.1653C46.3657 54.6276 46.4351 53.0127 46.1423 51.444C45.4439 47.3964 42.809 44.6186 40.6344 44.6186C39.1265 44.6186 38.2535 45.8726 38.2535 47.9996C38.2535 52.5869 40.3963 56.8409 43.682 60.317ZM16.809 44.6662L0.0947266 71.4282H28.0789V57.8409H28.0312C27.1348 59.9292 25.9717 61.8926 24.5709 63.6821C20.3169 68.952 15.3487 70.0948 12.8884 70.0948L29.4916 43.3488H2.53917V56.7615H2.60266C3.85663 54.317 5.14235 52.2694 6.45981 50.571C10.2535 45.8885 14.6344 44.698 16.809 44.6662ZM99.9995 66.1583C97.8408 69.5393 93.9836 71.9996 88.6344 71.9996C81.682 71.9996 78.9519 67.9837 78.9519 60.5393V44.7932H73.8408V44.7297L90.6027 31.7139V43.3488H98.8249V44.7774H90.6027V57.6186C90.6027 64.2694 92.19 66.7297 96.4916 66.7297C97.7773 66.7297 98.7773 66.5551 99.936 66.0948L99.9995 66.1583Z" fill="#121718"/>
</svg>
