<svg width="100" height="100" viewBox="0 0 100 100" fill="none" xmlns="http://www.w3.org/2000/svg">
<path d="M18.3334 2.5H82.0084C91.9037 2.5 100 10.5963 100 20.4918V82.0084C100 91.9037 91.9037 100 82.0084 100H17.9918C8.09629 100 0 91.9037 0 82.0082V20.8334C0 10.7291 8.2293 2.5 18.3334 2.5Z" fill="#FF3500"/>
<path d="M19.167 6.6665H81.1752C89.2709 6.6665 95.8336 13.2292 95.8336 21.3249V81.1747C95.8336 89.2704 89.2707 95.8331 81.1752 95.8331H18.8254C10.7297 95.8331 4.16699 89.2704 4.16699 81.1747V21.6665C4.16699 13.3333 10.8336 6.6665 19.167 6.6665Z" fill="#250000"/>
<path d="M26.9775 45.0996H35.576V55.1723L31.2768 61.6211L26.9775 55.1723V45.0996Z" fill="#FF3500"/>
<path d="M72.3464 55.8755C69.7455 55.0736 63.5345 56.2783 61.7353 56.9083C68.172 47.6994 59.0037 53.1568 54.8769 55.1552C56.5804 51.9123 60.0486 46.3099 53.2666 48.1714C71.9808 20.614 36.5804 39.683 41.0703 47.2601C41.7027 47.9923 43.3363 49.4548 44.0318 48.0999C44.5779 46.9999 42.6431 46.8136 42.3369 46.015C42.1382 43.6474 44.8027 41.7943 46.3232 40.2833C48.9492 37.7041 60.5531 31.0955 56.1226 39.9095C54.6308 43.0251 52.7185 45.8892 50.8166 48.7605C50.447 49.3185 49.9816 49.6753 49.3865 49.9714C45.2509 52.1474 40.9005 54.7046 38.4621 58.8345C36.9154 61.6179 39.7189 63.5285 42.1822 61.9925C45.7123 59.5298 48.2191 55.2441 50.7158 51.8181C51.0537 51.33 53.5128 50.1119 55.5302 49.5578C55.581 50.2369 52.7691 55.1496 51.4615 57.066C51.1531 57.5179 50.6894 57.9849 51.1927 58.5601C51.7404 59.1859 52.2824 58.7654 52.7925 58.4591C55.2615 56.9785 57.7834 55.5953 60.3837 54.3593C61.232 53.9121 61.8058 54.0025 60.9884 54.9212C60.2111 56.2958 58.8326 57.3683 58.24 58.8101C58.3675 59.9271 59.439 59.6472 60.1642 59.2822C62.1318 58.6552 64.1177 58.0796 66.1343 57.6308C67.9375 57.2386 69.8341 57.066 71.6548 57.4386C73.3175 58.1251 74.2386 56.4148 72.3464 55.8755ZM40.5527 60.9189C36.9252 60.3812 46.2252 53.3824 47.572 53.1169C45.9722 55.3187 44.5002 57.6611 42.4781 59.5499C41.9373 60.0753 41.3361 60.7757 40.5527 60.9189ZM67.9806 56.0564L67.981 56.0562C67.9818 56.0564 67.9826 56.0564 67.9834 56.0566C67.9826 56.0564 67.9816 56.0564 67.9806 56.0564ZM71.373 56.0361C71.381 56.0388 71.389 56.0412 71.3968 56.0439C71.3394 56.0492 71.2808 56.057 71.2205 56.0703C71.2726 56.0529 71.3232 56.0429 71.373 56.0361Z" fill="#FED9D5"/>
<path d="M26.6094 66.2275V68.6639L73.2051 68.7457V66.2275H26.6094Z" fill="#FF3500"/>
</svg>
