<svg width="100" height="100" viewBox="0 0 100 100" fill="none" xmlns="http://www.w3.org/2000/svg">
<g clip-path="url(#clip0_15910_61507)">
<path d="M49.7543 9.93866C27.7911 9.93866 9.87695 27.8528 9.87695 49.9387C9.87695 72.0246 27.7297 89.9387 49.7543 89.9387C71.7174 89.9387 89.6316 72.0246 89.6316 49.9387C89.6316 27.8528 71.7788 9.93866 49.7543 9.93866Z" fill="#49BB8F"/>
<path opacity="0.4" d="M49.7546 9.9387C27.7914 9.9387 9.87731 27.8528 9.87731 49.9387C9.87731 71.9632 27.7301 89.9387 49.7546 89.9387C71.7178 89.9387 89.6319 72.0246 89.6319 49.9387C89.6319 27.8528 71.7792 9.9387 49.7546 9.9387ZM49.7546 99.816C22.3313 99.816 0 77.4234 0 49.9387C0 22.3927 22.3313 0.0614014 49.7546 0.0614014C77.1779 0.0614014 99.5092 22.454 99.5092 49.9387C99.5092 77.4234 77.2393 99.816 49.7546 99.816Z" fill="#49BB8F"/>
</g>
<defs>
<clipPath id="clip0_15910_61507">
<rect width="100" height="100" fill="white"/>
</clipPath>
</defs>
</svg>
