<svg width="100" height="100" viewBox="0 0 100 100" fill="none" xmlns="http://www.w3.org/2000/svg">
<g clip-path="url(#clip0_15397_208506)">
<path d="M62.7005 89.98L48.0005 44.3C48.7005 44.2 49.1805 44.06 49.6605 44.06H76.0205C78.1005 44.06 78.2605 44.4 77.6205 46.4C74.3271 56.5733 71.0471 66.7733 67.7805 77C66.4005 81.28 65.0005 85.54 63.6405 89.82L62.7005 89.98ZM67.1605 88.54C77.8405 73.86 88.5205 59.2 99.3005 44.36C98.6805 44.18 98.4605 44.04 98.2205 44.04C92.8405 44.02 87.4605 43.96 82.0805 44.1C81.4205 44.12 80.4405 45.12 80.2005 45.84C76.5605 56.66 73.0005 67.54 69.4205 78.38C68.3805 81.58 67.3605 84.7999 66.3205 88C66.5881 88.1985 66.8688 88.3789 67.1605 88.54ZM36.6605 45.96H39.6405C39.4405 45.5 39.4205 45.36 39.3405 45.28C38.7405 44.84 37.6005 44.2 37.6805 44C38.1405 42.7 39.0605 43.46 39.9205 43.66C40.7805 43.86 42.2605 44.14 43.4205 44C45.0805 43.82 45.7805 44.58 46.2605 46C48.1205 51.8 50.0205 57.58 51.9005 63.36C54.4605 71.12 57.0071 78.8866 59.5405 86.66C59.7005 87.14 59.7405 87.64 59.4205 88.4C58.8805 87.86 58.2205 87.4 57.7605 86.78C52.1205 79.08 46.5205 71.36 40.8805 63.64C40.3805 62.94 39.5405 62.48 38.9205 61.96C39.1605 61.58 39.4605 61.04 39.8005 60.5L37.4405 59.76C37.5205 59.04 37.6405 58.28 37.6805 57.54C37.7205 56.14 37.4405 55.12 35.6205 55.2C35.0205 55.22 34.4005 54.52 33.7405 54.1C35.9805 51.84 35.7605 51.04 33.1405 50.24C32.9405 49.36 32.6805 48.48 32.5405 47.6C32.4805 47.14 32.4805 46.54 32.7205 46.2C32.9605 45.86 33.7605 45.76 33.9005 45.92C34.0405 46.08 34.3405 46.86 34.4805 47.38C34.5405 47.58 34.4605 47.84 34.4405 48.06L35.0405 48.1C35.0405 47.16 35.0205 46.22 35.0405 45.3C35.0405 44.82 34.9605 44.3 35.1405 43.9C35.3205 43.5 36.0005 43.64 36.1805 43.82C36.3605 44 36.6005 44.62 36.7205 45.06C36.8405 45.5 36.7005 45.52 36.6605 45.96ZM76.5805 41.6H49.9205C50.0205 41.1 49.9605 40.72 50.1205 40.5C52.4005 37.9 54.7005 35.3 57.0205 32.74C57.2805 32.44 57.8405 32.26 58.2605 32.26C59.6605 32.22 61.0405 32.4 61.2405 30.34C61.2605 30 62.6605 29.8 63.3205 29.58C63.2005 28.72 62.8205 27.86 63.0405 27.18C63.2605 26.5 64.4405 27.08 64.6005 28.22C64.6388 28.719 64.6455 29.22 64.6205 29.72C67.3005 29.46 68.2005 31.66 69.6005 33.1C71.7405 35.3 73.7205 37.66 75.7405 39.98C76.0605 40.36 76.2405 40.92 76.5805 41.6ZM82.9205 41.78C88.2605 41.78 93.6005 41.8 98.9605 41.74C100.36 41.74 100.1 40.82 99.6005 39.98C98.6805 38.42 97.7605 36.82 96.8205 35.26C95.1405 32.44 93.4205 29.6 91.4005 26.26L82.5005 41.22C82.6605 41.4 82.7805 41.6 82.9205 41.78ZM79.8805 41.48L70.5005 30.44L70.7405 29.88H72.9805C74.0205 29.88 74.8205 29.8 75.0405 28.38C75.2605 26.96 76.8605 27.64 77.8405 27.54C78.3405 27.5 79.3405 28.06 79.3805 28.42C79.5405 30.3 80.6205 29.86 81.3605 29.7C81.7805 28.64 82.0005 27.22 82.4005 27.18C84.4205 26.92 82.8405 28.86 83.8605 29.86C84.0805 29.12 84.1005 28.56 84.3805 28.2C84.6605 27.84 85.2005 27.52 85.6005 27.56C86.0005 27.6 86.4405 28.18 86.4605 28.54C86.5005 29.22 86.4205 30.02 86.0805 30.62C84.1405 34.12 82.1605 37.56 79.8805 41.48ZM46.8405 31.12C47.3805 30.98 48.1805 30.68 48.5005 30.92C49.7405 31.92 51.0205 31.72 52.3405 31.38C52.8435 31.2565 53.3011 30.993 53.6605 30.62C53.8205 30.44 53.6805 29.64 53.5405 29.6C53.0205 29.46 52.4005 29.36 51.9405 29.56C50.7205 30.04 49.7605 30.12 48.7405 29.1C48.4805 28.84 47.5805 29.12 47.0205 29.24C46.0405 29.48 45.1005 29.9 44.1405 30.08C43.5005 30.18 42.2805 29.84 42.2405 29.96C41.9405 31.08 41.3405 32.5 41.7605 33.38C42.9605 35.9 44.5805 38.24 46.0405 40.62C46.1605 40.82 46.4605 40.88 46.7805 41.04C47.1805 40.56 47.5405 40.16 47.9205 39.74H47.3405C47.1405 38.84 46.9605 37.96 46.7605 37.06L49.7805 36.68L50.0005 37.32L53.9805 32.54C52.5205 31.9 51.9205 32.1 51.5805 33.32C51.4605 33.78 50.7605 34.3 50.2405 34.38C49.7205 34.46 49.2805 33.94 48.9205 33.56C48.5605 33.18 48.3205 32.72 48.0405 32.28C47.6805 32.7 47.3405 33.2 46.9205 33.54C46.5005 33.88 45.9005 34.5 45.4405 34.44C44.9805 34.38 44.4805 33.74 44.2405 33.24C44.0005 32.74 44.1005 32.1 44.0805 31.86C45.1805 31.58 46.0005 31.32 46.8405 31.14M39.4805 41.74H41.8205C43.5605 41.74 43.7805 41.38 42.9205 39.8C41.7005 37.64 40.4405 35.52 39.2005 33.36C38.4805 32.1 37.3205 32.08 36.1205 32.24C35.8205 32.28 35.3605 32.78 35.3205 33.08C35.2805 33.38 35.7005 34.02 35.9805 34.04C37.2605 34.14 37.7005 34.86 37.5605 36.02C37.4205 37.18 38.1005 38.7 36.1805 39.26C35.7605 39.38 35.3805 40.3 35.3605 40.88C35.3405 41.14 36.2205 41.62 36.7405 41.7C37.6205 41.84 38.5605 41.74 39.4805 41.74ZM31.3405 39.2C31.0805 39.64 30.6005 40.1 30.6005 40.54C30.6005 40.98 31.1205 41.36 31.4205 41.78L33.0405 40.46L31.3405 39.2ZM27.1205 40.32C26.6805 40.38 26.3205 40.94 25.9205 41.28C26.2805 41.66 26.6205 42.26 27.0005 42.32C27.3805 42.38 27.8805 41.84 28.6805 41.34C27.9405 40.82 27.5005 40.28 27.1205 40.32ZM14.0605 30.02L13.7005 31.96L15.2405 32.06L15.0405 30.1L14.0605 30.02ZM25.8605 17.98L23.7605 17.62C23.7405 18.16 23.7005 18.68 23.6805 19.22L25.8005 19.08L25.8605 17.98ZM18.7805 21.66C18.7605 21.28 18.1405 20.92 17.7605 20.56C17.3805 20.94 16.7405 21.3 16.7005 21.72C16.6605 22.14 17.2605 22.56 17.8005 23.26C18.2605 22.54 18.8205 22.08 18.7805 21.66ZM41.6005 25.9L39.6605 25.62L39.5405 27.12H41.5205C41.5605 26.74 41.5805 26.32 41.6005 25.9ZM14.9605 36.66C14.9805 37.08 15.6005 37.76 15.9605 37.76C16.3205 37.76 17.0205 37.16 17.0805 36.78C17.1405 36.4 16.5605 35.9 16.0605 35.18C15.5405 35.86 14.9405 36.28 14.9605 36.66ZM39.8005 12.56H37.8005C37.8405 13.04 37.8405 13.5 37.8605 13.96L39.8405 13.7C39.8205 13.3 39.8205 12.94 39.8005 12.56ZM29.4205 9.99996C29.0605 9.97996 28.6405 10.64 28.2405 11C28.6205 11.36 28.9405 11.86 29.4005 12C29.8605 12.14 30.2005 11.64 30.8805 11.32C30.2205 10.68 29.8405 10.04 29.4205 9.99996ZM0.000473218 30.76C-0.0395268 31 0.760473 31.74 0.880473 31.68C1.41057 31.4333 1.85088 31.0279 2.14047 30.52C2.24047 30.4 1.58047 29.84 1.10047 29.28C0.620473 29.9 0.120473 30.28 0.000473218 30.76ZM50.2205 25.64C50.1405 25.22 49.5205 24.9 49.1205 24.54C48.7605 24.92 48.1405 25.3 48.1205 25.72C48.1005 26.14 48.7005 26.52 49.2805 27.22C49.7405 26.5 50.2805 26.02 50.2205 25.64ZM23.3805 22.64C23.3405 22.98 24.0005 23.68 24.2405 23.66C24.4805 23.64 25.3605 23.12 25.4405 22.72C25.5205 22.32 24.9405 21.84 24.4405 21.08C23.9005 21.8 23.4005 22.22 23.3805 22.64ZM60.8605 21.08C60.5005 21.1 60.2205 21.72 59.9005 22.08C60.3205 22.36 60.7205 22.8 61.1805 22.88C61.6405 22.96 61.9005 22.46 62.7005 21.94C61.7605 21.48 61.2805 21.02 60.8605 21.08ZM76.9805 20.18C77.1005 20.62 77.6205 20.96 77.9605 21.34C78.2605 20.94 78.8205 20.52 78.7805 20.14C78.7405 19.76 78.2005 19.32 77.6005 18.54C77.2605 19.36 76.8805 19.84 76.9805 20.18ZM32.3205 13.56C32.0605 13.52 31.4005 14.14 31.4405 14.4C31.4805 14.66 31.8805 15.5 32.2405 15.6C32.6005 15.7 33.0805 15.14 33.8605 14.66C33.1205 14.1 32.7405 13.64 32.3205 13.56ZM34.6405 37.12C34.7005 37.5 35.2605 38.14 35.4805 38.1C35.7005 38.06 36.3405 37.54 36.7805 37.22L35.5405 35.8C35.0805 36.42 34.6205 36.8 34.6405 37.12ZM72.2205 27.82C72.2405 27.56 71.6005 26.9 71.3405 26.94C71.0805 26.98 70.2805 27.42 70.1805 27.8C70.0805 28.18 70.6405 28.62 71.1205 29.38C71.6605 28.64 72.1605 28.28 72.2205 27.82ZM56.7605 25.6C56.7805 26 57.4005 26.64 57.8005 26.7C58.2005 26.76 58.8205 26.1 58.8805 25.7C58.9405 25.3 58.4005 24.84 57.9605 24.12C57.3805 24.78 56.7605 25.2 56.7605 25.6ZM30.1805 56.76C29.7805 56.74 29.4005 57.3 29.0005 57.64C29.4005 57.94 29.7605 58.42 30.2005 58.52C30.6405 58.62 31.0205 58.22 31.8605 57.88C31.0405 57.3 30.6205 56.78 30.1805 56.76ZM32.9205 27.92C32.4278 28.0999 32.0256 28.4663 31.8005 28.94C31.7205 29.12 32.3405 29.9 32.6605 29.92C32.9805 29.94 33.5205 29.44 34.2605 28.98C33.6005 28.44 33.1805 27.86 32.9205 27.92ZM23.4405 27.82C23.1896 27.922 22.9635 28.0765 22.7772 28.2732C22.5909 28.4698 22.4488 28.7039 22.3605 28.96C22.3005 29.16 23.0205 29.92 23.3205 29.88C23.6205 29.84 24.1405 29.3 24.8205 28.76C24.1605 28.3 23.6605 27.72 23.4405 27.82ZM29.8805 43.42C29.6522 43.5379 29.4508 43.7018 29.289 43.9015C29.1272 44.1012 29.0085 44.3322 28.9405 44.58C28.9005 44.82 29.6005 45.54 29.8205 45.48C30.0405 45.42 30.6005 44.86 31.2205 44.32C30.6005 43.88 30.0805 43.32 29.8805 43.42ZM43.8605 23.46C43.4605 23.48 43.1005 23.98 42.7205 24.28C43.0605 24.66 43.3605 25.22 43.8005 25.36C44.2405 25.5 44.5605 24.9 45.2605 24.42C44.6005 23.94 44.2205 23.44 43.8605 23.46ZM38.0005 19.9L40.0405 19.34C39.9005 18.92 39.7205 18.5 39.5805 18.08L37.6805 18.86C37.7805 19.22 37.8805 19.56 38.0005 19.9ZM28.2405 18.98L30.2005 19.78C30.3005 19.28 30.4205 18.8 30.5205 18.3L28.4605 18.12L28.2405 18.98ZM27.4805 51.3C27.2405 51.26 26.6205 51.9 26.6005 52.26C26.5805 52.62 27.0805 53.38 27.3205 53.38C27.5605 53.38 28.2405 52.92 29.0005 52.48C28.3005 51.88 27.9205 51.38 27.4805 51.3ZM28.3405 32.52C28.4805 32.96 29.0205 33.52 29.4005 33.56C29.7805 33.6 30.4605 32.9 30.4405 32.58C30.4205 32.26 29.8205 31.78 29.2405 31.16C28.8205 31.78 28.2805 32.26 28.3405 32.52Z" fill="black"/>
</g>
<defs>
<clipPath id="clip0_15397_208506">
<rect width="100" height="79.98" fill="white" transform="translate(0 10)"/>
</clipPath>
</defs>
</svg>
