<svg width="100" height="100" viewBox="0 0 100 100" fill="none" xmlns="http://www.w3.org/2000/svg">
<path fill-rule="evenodd" clip-rule="evenodd" d="M43.2442 5C58.1364 5 80.6388 9.45779 91.1136 19.6804C93.7673 22.2723 97.2394 27.3489 97.2394 34.7838C97.2394 48.0024 86.3261 68.2836 74.2758 80.0467C68.0461 86.1273 58.1364 94.0736 44.8064 94.0736C31.7755 94.0736 21.8235 85.4358 18.9425 82.623C7.9057 71.8509 0 55.5006 0 40.2551C0 30.6354 2.80954 22.2218 9.97794 15.2289C16.6169 8.75061 28.0565 5 43.2442 5ZM62.2185 58.2561C67.2464 53.347 68.6009 47.3012 68.6009 43.9736C68.6009 41.5615 67.9512 38.0224 64.8591 35.0075C60.117 30.3792 54.8648 29.0722 49.1515 29.0722C41.9151 29.0722 37.0527 31.3042 33.8145 34.4676C31.2745 36.9461 29.0789 40.7564 29.0789 46.1709C29.0789 51.5821 32.0345 56.8103 35.2567 59.9515C38.2318 62.8561 42.9091 65.0061 47.6185 65.0061C52.3282 65.0061 57.1906 63.1655 62.2185 58.2561Z" fill="#5951FF"/>
</svg>
