<svg width="100" height="100" viewBox="0 0 100 100" fill="none" xmlns="http://www.w3.org/2000/svg">
<g clip-path="url(#clip0_15910_61509)">
<path d="M38.26 23.1457H25.5217V10.4165H21.5427V23.1457H8.81348V27.1247H21.5427V39.863H25.5217V27.1247H38.26V23.1457Z" fill="#FBAF3C"/>
<path d="M90.1965 23.1457H77.4673V10.4165H73.4883V23.1457H60.75V27.1247H73.4883V39.863H77.4673V27.1247H90.1965V23.1457Z" fill="#63A5B9"/>
<path d="M20.105 48.0122H11.6917V39.5989H8.90548V48.0122H0.492188V50.7893H8.90548V59.2026H11.6917V50.7893H20.105V48.0122Z" fill="#63A5B9"/>
<path d="M99.7119 47.5932H91.1256V38.9978H87.5016V47.5932H78.9062V51.208H87.5016V59.8034H91.1256V51.208H99.7119V47.5932Z" fill="#576EB2"/>
<path d="M90.2056 71.2581H77.522V58.5835H73.4246V71.2581H60.75V75.3555H73.4246V88.03H77.522V75.3555H90.2056V71.2581Z" fill="#26569A"/>
<path d="M38.26 71.2581H25.5854V58.5835H21.488V71.2581H8.81348V75.3555H21.488V88.03H25.5854V75.3555H38.26V71.2581Z" fill="#CD2033"/>
<path d="M59.313 8.41329H50.8997V0H48.1135V8.41329H39.7002V11.1995H48.1135V19.6128H50.8997V11.1995H59.313V8.41329Z" fill="#63A5B9"/>
<path d="M59.9059 87.0101H51.3196V78.4238H47.6957V87.0101H39.1094V90.634H47.6957V99.2203H51.3196V90.634H59.9059V87.0101Z" fill="#576EB2"/>
<path d="M67.1967 46.683H52.2184V31.7139H46.7917V46.683H31.8135V52.1188H46.7917V67.0879H52.2184V52.1188H67.1967V46.683Z" fill="#F58220"/>
</g>
<defs>
<clipPath id="clip0_15910_61509">
<rect width="100" height="100" fill="white"/>
</clipPath>
</defs>
</svg>
