<svg width="100" height="100" viewBox="0 0 100 100" fill="none" xmlns="http://www.w3.org/2000/svg">
<g clip-path="url(#clip0_15397_208496)">
<path d="M49.5859 14L76.5162 24.3864C77.4759 24.7563 78.2736 25.4524 78.7697 26.3522C79.2657 27.2521 79.4282 28.298 79.2282 29.3057L76.6424 42.3668L67.9634 58.9855L50.1709 85.9136L28.5049 62.6506L49.5859 14Z" fill="#0828CC"/>
<path d="M49.5629 14L50.1499 85.9136L28.4961 62.6506L20.8977 29.3483C20.6658 28.3338 20.8044 27.2698 21.2886 26.3484C21.7728 25.427 22.5706 24.7088 23.5382 24.3235L49.5629 14Z" fill="#0828CC"/>
<path d="M71.6187 64.7026L50.2715 86.1593L32.4424 67.1967L38.1965 61.7823L50.2553 73.9769L76.0568 46.781L74.0579 59.8686C73.7789 61.6973 72.9255 63.3901 71.6204 64.7026H71.6187Z" fill="#64CB8B"/>
<path d="M50.2404 68.2175V86.1513L32.4295 67.1946L31.2637 63.5985L37.8953 55.4607L50.2404 68.2175Z" fill="#64CB8B"/>
<path d="M28.5342 62.8393L32.3222 67.1985L36.8354 63.3568C37.1683 63.0736 37.5955 62.9253 38.0325 62.9415C38.4695 62.9577 38.8845 63.137 39.1955 63.4441L50.2184 74.3295L75.8593 48.1323L77.0843 40.3699L50.2204 66.8595L39.2158 55.6492C38.903 55.3303 38.4798 55.1433 38.0333 55.1267C37.5867 55.11 37.1507 55.2651 36.815 55.5599L28.5342 62.8393Z" fill="white"/>
<path fill-rule="evenodd" clip-rule="evenodd" d="M60.3153 25.866C60.3153 25.866 45.4637 25.2572 41.0196 31.9542C39.9957 33.5221 39.3121 35.287 39.0129 37.1352C38.8888 37.8519 38.8115 38.5759 38.7814 39.3026C38.7149 41.4142 38.9544 43.5242 39.4923 45.5673C39.7888 45.1614 40.1442 44.6744 40.5687 44.1467C40.8734 43.7551 41.2126 43.3349 41.5843 42.9068C41.956 42.4786 42.348 42.0321 42.7502 41.5694C43.1523 41.1067 43.5931 40.6602 44.042 40.2056C44.503 39.7592 44.9499 39.2884 45.4373 38.8602C45.9248 38.4319 46.392 37.9855 46.8855 37.5877L47.4095 37.1494L47.6127 36.985L48.3438 36.433L49.0487 35.8993L49.7494 35.4285C50.2044 35.124 50.6269 34.8318 51.0432 34.6025L52.1583 33.9511L53.0479 33.5127L53.8198 33.1332L53.1231 33.6487L52.3289 34.2352L51.3499 35.0693C50.9843 35.3635 50.6207 35.7207 50.2308 36.0981L49.6357 36.6705L49.1908 37.1453L49.0425 37.3036L48.4332 37.9551L47.8402 38.6552C47.6553 38.8581 47.4745 39.0874 47.2938 39.3107C47.1496 39.4893 47.0054 39.6739 46.8632 39.8586L46.66 40.1123C46.2782 40.5872 45.9329 41.0986 45.5815 41.5836L45.5552 41.6222C45.1997 42.1275 44.8686 42.6369 44.5396 43.13C44.2106 43.6231 43.9303 44.1082 43.6561 44.579C43.3819 45.0498 43.132 45.4861 42.9086 45.9001C42.4577 46.724 42.1144 47.4222 41.8931 47.9092C41.8646 47.9681 41.8423 48.0168 41.8179 48.0736C44.1902 48.8017 46.6907 49.0155 49.1523 48.7007C49.8284 48.6026 50.4954 48.4499 51.1468 48.244C52.399 47.8492 53.5744 47.2431 54.622 46.4521C56.6869 44.6101 58.1283 42.1728 58.7473 39.4771C58.9504 38.7911 59.1271 38.091 59.2815 37.3889C60.0541 33.5948 60.4036 29.7268 60.3234 25.8558" fill="white"/>
</g>
<defs>
<clipPath id="clip0_15397_208496">
<rect width="100" height="72" fill="white" transform="translate(0 14)"/>
</clipPath>
</defs>
</svg>
