<svg width="100" height="100" viewBox="0 0 100 100" fill="none" xmlns="http://www.w3.org/2000/svg">
<g clip-path="url(#clip0_15397_208532)">
<path d="M80.4688 30C91.2556 30 100 38.7444 100 49.5312C100 60.3181 91.2556 69.0625 80.4688 69.0625C69.6819 69.0625 60.9375 60.3181 60.9375 49.5312C60.9377 45.0868 62.4537 40.7754 65.2351 37.309C66.3669 38.61 66.7763 39.3805 67.9688 41.3281H68.6523C68.0484 39.8367 67.1604 38.3858 65.9641 36.4529C69.6673 32.3454 74.9383 30.0004 80.4688 30ZM80.4688 38.5938C74.4281 38.5938 69.5312 43.4906 69.5312 49.5312C69.5312 55.5719 74.4281 60.4688 80.4688 60.4688C86.5094 60.4688 91.4062 55.5719 91.4062 49.5312C91.4062 43.4906 86.5094 38.5938 80.4688 38.5938Z" fill="#13BF95"/>
<path d="M50 30C39.2132 30 30.4688 38.7444 30.4688 49.5312C30.4703 53.9731 31.986 58.2817 34.7656 61.7463C34.7737 61.7361 34.7793 61.7282 34.7874 61.7181C34.7898 61.7211 34.7922 61.7242 34.7946 61.7272C34.9822 61.4915 35.1625 61.2501 35.339 61.0059C36.1587 59.9325 36.7257 59.0325 37.278 57.6703C37.3276 57.5616 37.378 57.4535 37.4256 57.3438H38.0859C37.9446 57.9273 37.746 58.4993 37.5011 59.0791C36.9552 60.2499 36.2766 61.4968 35.5869 62.616C35.5758 62.6341 35.5672 62.6498 35.556 62.6679C39.2555 66.7382 44.4997 69.0599 50 69.0625C55.5003 69.0599 60.7445 66.7382 64.444 62.6679C64.4328 62.6498 64.4242 62.6341 64.4131 62.616C63.7234 61.4968 63.0448 60.2499 62.4989 59.0791C62.254 58.4993 62.0554 57.9273 61.9141 57.3438H62.5744C62.622 57.4535 62.6724 57.5616 62.722 57.6703C63.2743 59.0325 63.8413 59.9325 64.661 61.0059C64.8375 61.2501 65.0178 61.4915 65.2054 61.7272C65.2078 61.7242 65.2102 61.7211 65.2126 61.7181C65.2207 61.7282 65.2263 61.7361 65.2344 61.7463C68.014 58.2817 69.5297 53.9731 69.5312 49.5312C69.5312 38.7444 60.7868 30 50 30ZM50 38.5938C56.0406 38.5938 60.9375 43.4906 60.9375 49.5312C60.9375 55.5719 56.0406 60.4688 50 60.4688C43.9594 60.4688 39.0625 55.5719 39.0625 49.5312C39.0625 49.3425 39.0672 49.155 39.0766 48.9686C39.3696 43.1895 44.1482 38.5938 50 38.5938Z" fill="#13BF95"/>
<path d="M19.5312 30C8.74444 30 0 38.7444 0 49.5312C0 60.3181 8.74444 69.0625 19.5312 69.0625C30.3181 69.0625 39.0625 60.3181 39.0625 49.5312C39.0623 45.0868 37.5463 40.7754 34.7649 37.309C33.6331 38.61 33.2237 39.3805 32.0312 41.3281H31.3477C31.9516 39.8367 32.8396 38.3858 34.0359 36.4529C30.3327 32.3454 25.0617 30.0004 19.5312 30ZM19.5312 38.5938C25.5719 38.5938 30.4688 43.4906 30.4688 49.5312C30.4688 55.5719 25.5719 60.4688 19.5312 60.4688C13.4906 60.4688 8.59375 55.5719 8.59375 49.5312C8.59375 43.4906 13.4906 38.5938 19.5312 38.5938Z" fill="#13BF95"/>
</g>
<defs>
<clipPath id="clip0_15397_208532">
<rect width="100" height="39.0625" fill="white" transform="translate(0 30)"/>
</clipPath>
</defs>
</svg>
