<svg width="100" height="100" viewBox="0 0 100 100" fill="none" xmlns="http://www.w3.org/2000/svg">
<g clip-path="url(#clip0_15397_208488)">
<path d="M50.0011 100C77.6145 100 100 77.6128 100 50C100 22.3828 77.6167 0 50.0011 0C22.3855 0 0 22.3828 0 50C0 77.6128 22.3855 100 50.0011 100Z" fill="#1FC0E7"/>
<path d="M24.3624 49.9873L32.878 41.4318C33.1602 41.1473 33.318 40.7651 33.318 40.3607C33.318 39.5162 32.6335 38.8318 31.7913 38.8318C31.3802 38.8318 30.9958 38.9918 30.7069 39.2873L22.1958 47.8051L13.6513 39.2718C13.3624 38.9873 12.9802 38.8318 12.5735 38.8318C11.7291 38.8318 11.0469 39.5162 11.0469 40.3584C11.0469 40.7696 11.2113 41.1584 11.5047 41.4473L20.0202 49.974L11.5091 58.5073C11.2113 58.8051 11.0469 59.1918 11.0469 59.6029C11.0469 60.4473 11.7313 61.1318 12.5735 61.1318C12.9802 61.1318 13.3624 60.9762 13.6513 60.6873L22.1847 52.1496L30.6847 60.654C30.9869 60.9651 31.3735 61.1318 31.7913 61.1318C32.6313 61.1318 33.3158 60.4473 33.3158 59.6029C33.3158 59.1962 33.1602 58.814 32.8713 58.5251L24.3602 49.9784L24.3624 49.9873ZM74.9869 49.9851C74.9869 51.5184 76.2313 52.7629 77.7647 52.7629C79.2891 52.7629 80.5335 51.5184 80.5335 49.9851C80.5335 48.4518 79.2891 47.2073 77.7624 47.2073C76.2358 47.2073 74.9935 48.4518 74.9935 49.9851H74.9869ZM69.7313 49.9851C69.7313 45.5518 73.3313 41.9407 77.7624 41.9407C82.1847 41.9407 85.7913 45.5518 85.7913 49.9851C85.7913 54.4184 82.1869 58.0296 77.7624 58.0296C73.3335 58.0296 69.7313 54.4229 69.7313 49.9851ZM66.5713 49.9851C66.5713 56.1629 71.5935 61.194 77.7624 61.194C83.9313 61.194 88.9535 56.1673 88.9535 49.9873C88.9535 43.8096 83.9313 38.7784 77.7624 38.7784C71.5913 38.7784 66.5713 43.8073 66.5713 49.9873V49.9851ZM65.778 38.9696H65.3113C63.9002 38.9696 62.5402 39.414 61.4047 40.2918C61.2491 39.6118 60.6358 39.0918 59.9069 39.0918C59.0691 39.0918 58.3958 39.7696 58.3958 40.6118L58.4002 59.4896C58.4002 60.3273 59.0891 61.0096 59.9224 61.0096C60.7624 61.0096 61.4469 60.3273 61.4491 59.4851V47.8762C61.4491 44.0096 61.8047 42.4451 65.1113 42.0318C65.4224 41.994 65.7513 42.0007 65.7558 42.0007C66.658 41.9673 67.3024 41.3429 67.3024 40.5007C67.3024 39.6562 66.6135 38.9718 65.7691 38.9718L65.778 38.9696ZM36.4758 48.1429C36.4758 48.0984 36.4802 48.054 36.4824 48.014C37.3669 44.5029 40.5402 41.9096 44.3158 41.9096C48.138 41.9096 51.338 44.5629 52.1824 48.1362H36.4735L36.4758 48.1429ZM55.3047 47.854C54.6469 44.7362 52.9424 42.174 50.3491 40.5296C46.5535 38.1162 41.5447 38.2496 37.8824 40.8629C34.8913 42.9896 33.1647 46.474 33.1647 50.0629C33.1647 50.9629 33.2758 51.8718 33.498 52.7673C34.6269 57.2118 38.4447 60.5807 42.9958 61.1384C44.3469 61.3029 45.6624 61.2273 47.018 60.8718C48.1913 60.5829 49.3224 60.1118 50.3647 59.4407C51.4469 58.7451 52.3513 57.8251 53.2313 56.7251C53.2447 56.7029 53.2624 56.6873 53.2802 56.6651C53.8891 55.9096 53.7758 54.8296 53.1091 54.3184C52.5447 53.8851 51.598 53.7096 50.8558 54.6651C50.6958 54.8962 50.5158 55.1318 50.3224 55.3651C49.7291 56.0207 48.9935 56.654 48.1135 57.1473C46.9891 57.7473 45.7135 58.0873 44.358 58.0962C39.918 58.0451 37.5447 54.9407 36.698 52.7273C36.5513 52.3118 36.438 51.8829 36.358 51.4384L36.3358 51.2051H52.2691C54.4513 51.1562 55.6247 49.6118 55.3002 47.8496L55.3047 47.854Z" fill="white"/>
</g>
<defs>
<clipPath id="clip0_15397_208488">
<rect width="100" height="100" fill="white"/>
</clipPath>
</defs>
</svg>
