<svg width="100" height="100" viewBox="0 0 100 100" fill="none" xmlns="http://www.w3.org/2000/svg">
<g clip-path="url(#clip0_15397_208534)">
<path d="M49.0599 74.26C29.1499 72.73 22.6799 61.81 20.8699 54.26C20.8699 54.26 24.7599 55.31 29.8499 56.01C29.8599 56.01 31.2299 56.2 31.2499 55.84C31.2999 55.14 19.7799 51.75 14.1999 42.19C9.83987 34.73 9.57987 27.57 9.57987 27.57C21.2699 29.82 28.4499 32.65 65.2099 31.73C76.5999 31.73 81.6699 34.08 81.6699 48.03C81.6799 57.78 77.4199 74.08 49.0599 74.26ZM99.9999 47.52C99.9999 45.69 98.0699 44.52 95.6699 43.77L95.7199 43.72C95.7199 43.72 95.5799 43.71 95.3499 43.67C94.9699 43.56 94.5699 43.45 94.1699 43.36C93.6299 43.16 93.0499 42.86 92.6199 42.39C92.1199 41.85 91.8199 41.16 91.6399 40.58C90.1199 30.47 84.3799 21.21 65.2199 21.21H31.9299C30.7999 21.18 27.7399 21 20.4999 20.21C13.4699 19.44 7.17986 17.23 7.11986 17.2L0.949866 15L0.179866 21.55C0.0898657 22.35 -1.91013 40.82 9.92987 50.2L9.91986 50.31C9.45986 55.27 11.3599 66.09 21.6599 74.85C43.9699 93.83 74.2899 81.91 82.0499 73.57C86.8999 68.35 90.3899 62.17 91.5899 54.77C91.7699 54.15 92.0799 53.39 92.6199 52.81C92.8599 52.56 93.1299 52.35 93.4299 52.19C94.2099 51.99 94.9899 51.76 95.7199 51.49C98.0899 50.6 99.9999 49.33 99.9999 47.52ZM70.8199 38.06C68.2399 38.06 66.4999 39.66 66.4999 42.61C66.4999 45.36 68.2399 46.91 70.8199 46.91C73.3499 46.91 75.1899 45.26 75.1899 42.56C75.1999 39.61 73.6599 38.06 70.8199 38.06Z" fill="#141E28"/>
</g>
<defs>
<clipPath id="clip0_15397_208534">
<rect width="100" height="70" fill="white" transform="translate(0 15)"/>
</clipPath>
</defs>
</svg>
