<svg width="100" height="100" viewBox="0 0 100 100" fill="none" xmlns="http://www.w3.org/2000/svg">
<g clip-path="url(#clip0_15384_206895)">
<path d="M50.333 49.9999C50.333 40.889 57.7189 33.5029 66.83 33.5029C75.9409 33.5029 83.327 40.889 83.327 49.9999C83.327 59.111 75.9409 66.4969 66.83 66.4969C57.7189 66.4969 50.333 59.111 50.333 49.9999Z" fill="#1ABCFE"/>
<path d="M17.3389 82.9941C17.3389 73.8832 24.7248 66.4971 33.8359 66.4971H50.3328V82.9941C50.3328 92.1052 42.947 99.4911 33.8359 99.4911C24.7248 99.4911 17.3389 92.1052 17.3389 82.9941Z" fill="#0ACF83"/>
<path d="M50.333 0.509277V33.5032H66.83C75.9411 33.5032 83.327 26.1173 83.327 17.0063C83.327 7.89524 75.9411 0.509277 66.83 0.509277H50.333Z" fill="#FF7262"/>
<path d="M17.3389 17.0063C17.3389 26.1173 24.7248 33.5032 33.8359 33.5032H50.3328V0.509277H33.8359C24.7248 0.509277 17.3389 7.89522 17.3389 17.0063Z" fill="#F24E1E"/>
<path d="M17.3389 49.9999C17.3389 59.111 24.7248 66.4969 33.8359 66.4969H50.3328V33.5029H33.8359C24.7248 33.5029 17.3389 40.889 17.3389 49.9999Z" fill="#A259FF"/>
</g>
<defs>
<clipPath id="clip0_15384_206895">
<rect width="66.6667" height="100" fill="white" transform="translate(17)"/>
</clipPath>
</defs>
</svg>
