<svg width="100" height="100" viewBox="0 0 100 100" fill="none" xmlns="http://www.w3.org/2000/svg">
<g clip-path="url(#clip0_15910_61471)">
<path d="M85 0H15C6.71573 0 0 6.71573 0 15V85C0 93.2843 6.71573 100 15 100H85C93.2843 100 100 93.2843 100 85V15C100 6.71573 93.2843 0 85 0Z" fill="#D32D27"/>
<path d="M21.0938 58.5938C25.8399 58.5938 29.6875 54.7462 29.6875 50C29.6875 45.2538 25.8399 41.4062 21.0938 41.4062C16.3476 41.4062 12.5 45.2538 12.5 50C12.5 54.7462 16.3476 58.5938 21.0938 58.5938Z" fill="white"/>
<path d="M44.3359 58.5938C49.0821 58.5938 52.9297 54.7462 52.9297 50C52.9297 45.2538 49.0821 41.4062 44.3359 41.4062C39.5897 41.4062 35.7422 45.2538 35.7422 50C35.7422 54.7462 39.5897 58.5938 44.3359 58.5938Z" fill="white"/>
<path d="M67.7734 58.5938C72.5196 58.5938 76.3672 54.7462 76.3672 50C76.3672 45.2538 72.5196 41.4062 67.7734 41.4062C63.0272 41.4062 59.1797 45.2538 59.1797 50C59.1797 54.7462 63.0272 58.5938 67.7734 58.5938Z" fill="white"/>
<path d="M87.5 33.25C87.5 32.1454 86.6256 31.25 85.5469 31.25C84.4682 31.25 83.5938 32.1454 83.5938 33.25V66.75C83.5938 67.8546 84.4682 68.75 85.5469 68.75C86.6256 68.75 87.5 67.8546 87.5 66.75V33.25Z" fill="white"/>
</g>
<defs>
<clipPath id="clip0_15910_61471">
<rect width="100" height="100" fill="white"/>
</clipPath>
</defs>
</svg>
