<svg width="100" height="100" viewBox="0 0 100 100" fill="none" xmlns="http://www.w3.org/2000/svg">
<g clip-path="url(#clip0_15381_206496)">
<path d="M100 0H0V100H100V0Z" fill="#004CFF"/>
<path d="M50.0004 85.9477C69.8538 85.9477 85.9482 69.8533 85.9482 50C85.9482 30.1466 69.8538 14.0522 50.0004 14.0522C30.1471 14.0522 14.0527 30.1466 14.0527 50C14.0527 69.8533 30.1471 85.9477 50.0004 85.9477Z" fill="#004CFF"/>
<path d="M62.196 49.919L41.1613 63.8879C40.1868 64.5376 39.6992 65.5932 39.6992 66.6491V70.1412L65.2009 53.4111C66.3378 52.5991 67.0688 51.2994 67.0688 49.919C67.0688 48.5383 66.4192 47.2386 65.2009 46.4265L39.6992 29.8588V33.1072C39.6992 34.2445 40.2678 35.3 41.1613 35.8687L62.196 49.919Z" fill="white"/>
<path d="M49.5263 51.0558C50.6633 51.7865 52.1254 51.7865 53.2623 51.0558L55.0489 49.8375L41.7296 40.8228C40.9175 40.2542 39.6992 40.8228 39.6992 41.8784V44.5584L46.6025 49.1879L49.5263 51.0558Z" fill="white"/>
</g>
<defs>
<clipPath id="clip0_15381_206496">
<rect width="100" height="100" fill="white"/>
</clipPath>
</defs>
</svg>
