<svg width="100" height="100" viewBox="0 0 100 100" fill="none" xmlns="http://www.w3.org/2000/svg">
<g clip-path="url(#clip0_15910_61515)">
<path d="M86.4438 54.5491C86.4438 55.433 86.0955 56.2804 85.4755 56.9052C84.8555 57.53 84.0151 57.8813 83.1381 57.8813C82.2616 57.8813 81.4207 57.53 80.8007 56.9052C80.1807 56.2804 79.8325 55.433 79.8325 54.5491V24.7827C79.8325 23.8991 80.1807 23.0516 80.8007 22.4268C81.4207 21.8019 82.2616 21.4509 83.1381 21.4509C84.0151 21.4509 84.8555 21.8019 85.4755 22.4268C86.0955 23.0516 86.4438 23.8991 86.4438 24.7827V54.5491ZM85.2964 75.1739C84.8594 75.6143 72.566 85.9404 50.0277 85.9404C27.4899 85.9404 15.2784 75.6696 14.7593 75.2287C14.4322 74.9509 14.1628 74.6104 13.9664 74.2274C13.7701 73.8439 13.6508 73.4257 13.6152 72.9957C13.5797 72.5661 13.6287 72.1335 13.7594 71.7226C13.8901 71.3122 14.0999 70.9313 14.3769 70.6026C14.9474 69.9374 15.7558 69.5265 16.6258 69.4591C17.4958 69.3922 18.3568 69.6748 19.021 70.2448C19.2123 70.3826 30.1944 79.3591 50.0007 79.3591C69.8068 79.3591 80.8707 70.3274 80.9799 70.2448C81.6516 69.6796 82.5155 69.4009 83.3877 69.4678C84.2603 69.5348 85.0725 69.9417 85.6516 70.6026C86.209 71.2583 86.4873 72.1091 86.4255 72.97C86.3642 73.8309 85.9681 74.633 85.3238 75.2013L85.2964 75.1739ZM13.5846 24.7827C13.634 23.8963 14.0296 23.0656 14.6848 22.4722C15.34 21.8788 16.2017 21.571 17.0814 21.6161C17.897 21.6628 18.6665 22.0122 19.2416 22.5969C19.8167 23.1817 20.1566 23.9603 20.1957 24.7827V54.4943C20.1957 55.3778 19.8475 56.2252 19.2276 56.85C18.6077 57.4752 17.7669 57.8261 16.8902 57.8261C16.0135 57.8261 15.1727 57.4752 14.5528 56.85C13.9329 56.2252 13.5846 55.3778 13.5846 54.4943V24.7827ZM30.1671 18.1741C30.2165 17.2876 30.6121 16.4569 31.2673 15.8636C31.9226 15.2702 32.7842 14.9624 33.6639 15.0074C34.4795 15.0541 35.249 15.4035 35.8241 15.9883C36.3991 16.573 36.739 17.3517 36.7783 18.1741V62.2317C36.7783 63.1156 36.43 63.963 35.8101 64.5878C35.1902 65.2126 34.3494 65.5635 33.4727 65.5635C32.596 65.5635 31.7552 65.2126 31.1353 64.5878C30.5154 63.963 30.1671 63.1156 30.1671 62.2317V18.1741ZM46.8316 16.5219C46.8316 15.6383 47.1799 14.7908 47.7999 14.166C48.4199 13.5411 49.2603 13.19 50.1373 13.19C51.0138 13.19 51.8547 13.5411 52.4747 14.166C53.0947 14.7908 53.4429 15.6383 53.4429 16.5219V64.4348C53.4429 65.3183 53.0947 66.1656 52.4747 66.7909C51.8547 67.4156 51.0138 67.7665 50.1373 67.7665C49.2603 67.7665 48.4199 67.4156 47.7999 66.7909C47.1799 66.1656 46.8316 65.3183 46.8316 64.4348V16.5219ZM63.2229 18.1741C63.2229 17.2904 63.5712 16.443 64.1912 15.8181C64.8107 15.1933 65.6516 14.8422 66.5286 14.8422C67.4051 14.8422 68.246 15.1933 68.866 15.8181C69.4855 16.443 69.8338 17.2904 69.8338 18.1741V62.2317C69.8338 63.1156 69.4855 63.963 68.866 64.5878C68.246 65.2126 67.4051 65.5635 66.5286 65.5635C65.6516 65.5635 64.8107 65.2126 64.1912 64.5878C63.5712 63.963 63.2229 63.1156 63.2229 62.2317V18.1741ZM87.3455 0.000274971H12.8197C11.1958 -0.0106048 9.58579 0.301475 8.08174 0.918643C6.57766 1.53581 5.20918 2.44596 4.05457 3.59695C2.89997 4.74796 1.98195 6.11717 1.35307 7.6263C0.724186 9.13539 0.396798 10.7547 0.389648 12.3915V86.7391C0.396798 88.3756 0.724186 89.9952 1.35307 91.5043C1.98195 93.013 2.89997 94.3826 4.05457 95.5335C5.20918 96.6843 6.57766 97.5948 8.08174 98.2117C9.58579 98.8291 11.1958 99.1409 12.8197 99.13H87.3455C88.9668 99.1409 90.5746 98.83 92.0768 98.2143C93.5794 97.5991 94.9464 96.6913 96.1007 95.543C97.2551 94.3952 98.1738 93.0291 98.8042 91.523C99.4347 90.0174 99.7646 88.4009 99.7755 86.7665V12.3915C99.7681 10.757 99.4416 9.14 98.8147 7.6327C98.1873 6.12539 97.2716 4.75739 96.1199 3.60673C94.9686 2.4561 93.6029 1.54538 92.102 0.926587C90.6012 0.307788 88.9942 -0.00697322 87.3725 0.000274971" fill="black"/>
</g>
<defs>
<clipPath id="clip0_15910_61515">
<rect width="100" height="100" fill="white"/>
</clipPath>
</defs>
</svg>
