<svg width="100" height="100" viewBox="0 0 100 100" fill="none" xmlns="http://www.w3.org/2000/svg">
<g clip-path="url(#clip0_15910_61479)">
<path d="M59.3727 54.1787C56.8733 54.1787 54.6863 55.7404 53.4366 57.9278H16.5703C10.3218 57.9278 5.32296 52.6166 5.32296 46.368C5.32296 40.1195 10.3218 34.8083 16.5703 34.8083H21.8815C21.8815 33.5586 22.5064 32.3089 22.8188 31.0592C23.1312 30.7467 23.1312 30.1219 23.4437 29.8095C25.9431 25.1231 30.9419 21.9988 36.5656 21.9988C41.5644 21.9988 45.9383 24.4982 48.7502 28.2473C50.3123 27.6225 51.8744 26.9976 53.749 26.6852C50.3123 20.7491 44.0638 17 36.5656 17C28.1301 17 20.9443 22.3112 17.82 29.8095H16.5703C7.50994 29.8095 0.0117188 37.3077 0.0117188 46.6805C0.0117188 56.0533 7.50994 63.2391 16.5703 63.2391H53.749C54.6863 65.426 56.8733 66.9882 59.6851 66.9882C63.1222 66.9882 65.9336 64.1763 65.9336 60.4272C65.9336 56.6781 63.1218 54.1787 59.3727 54.1787ZM79.9928 41.3688C76.2437 33.8706 68.433 28.5594 59.6851 28.5594C48.7502 28.5594 39.6898 36.37 37.5028 46.6801C32.1916 47.3049 27.5052 50.1168 24.6934 54.1783H51.8744C53.749 51.6789 56.5612 50.4292 59.6851 50.4292C65.3088 50.4292 69.6827 55.1156 69.6827 60.7393C69.6827 66.3629 64.9963 71.0493 59.6851 71.0493C56.5608 71.0493 53.749 69.4872 51.8744 67.3002H21.5691C22.8188 76.0481 30.317 82.9215 39.065 82.9215H79.6804C90.9277 82.9215 99.988 73.8611 99.988 62.3014C99.988 50.7416 90.9277 41.6813 79.9928 41.3688Z" fill="#008CDB"/>
</g>
<defs>
<clipPath id="clip0_15910_61479">
<rect width="100" height="66" fill="white" transform="translate(0 17)"/>
</clipPath>
</defs>
</svg>
