<svg width="100" height="100" viewBox="0 0 100 100" fill="none" xmlns="http://www.w3.org/2000/svg">
<g clip-path="url(#clip0_15397_208536)">
<mask id="mask0_15397_208536" style="mask-type:luminance" maskUnits="userSpaceOnUse" x="0" y="29" width="100" height="42">
<path d="M100 29H0V70.6667H100V29Z" fill="white"/>
</mask>
<g mask="url(#mask0_15397_208536)">
<g filter="url(#filter0_dd_15397_208536)">
<path d="M73.0878 44.1232C73.0878 42.5203 73.4327 41.0899 74.1226 39.832C74.8327 38.574 75.7965 37.5798 77.0139 36.8494C78.2312 36.1189 79.611 35.7537 81.153 35.7537C82.7153 35.7537 84.095 36.1189 85.2925 36.8494C86.5091 37.5798 87.4633 38.574 88.1533 39.832C88.8633 41.0899 89.2183 42.5203 89.2183 44.1232C89.2183 45.7262 88.8633 47.1566 88.1533 48.4146C87.4633 49.6726 86.5091 50.6667 85.2925 51.3972C84.095 52.1276 82.7153 52.4928 81.153 52.4928C79.611 52.4928 78.2312 52.1276 77.0139 51.3972C75.7965 50.6667 74.8327 49.6726 74.1226 48.4146C73.4327 47.1566 73.0878 45.7262 73.0878 44.1232ZM70.3486 44.1232C70.3486 45.6653 70.6124 47.1059 71.14 48.445C71.6878 49.7842 72.4486 50.9508 73.4226 51.945C74.3965 52.9189 75.5428 53.6899 76.8616 54.2581C78.1806 54.8059 79.611 55.0798 81.153 55.0798C82.7153 55.0798 84.1458 54.8059 85.4441 54.2581C86.7633 53.6899 87.9091 52.9189 88.8833 51.945C89.8575 50.9508 90.6083 49.7842 91.1358 48.445C91.6833 47.1059 91.9575 45.6653 91.9575 44.1232C91.9575 42.5609 91.6833 41.1203 91.1358 39.8015C90.6083 38.4624 89.8575 37.3059 88.8833 36.332C87.9091 35.3378 86.7633 34.5667 85.4441 34.0189C84.1458 33.4508 82.7153 33.1667 81.153 33.1667C79.611 33.1667 78.1806 33.4508 76.8616 34.0189C75.5428 34.5667 74.3965 35.3378 73.4226 36.332C72.4486 37.3059 71.6878 38.4624 71.14 39.8015C70.6124 41.1203 70.3486 42.5609 70.3486 44.1232Z" fill="#FCAA00"/>
</g>
<path d="M1.25036 44.3058H14.1895V42.1492H1.25036V44.3058ZM12.653 34.6014V53.471H14.9443V34.6014H12.653ZM-0.0166016 34.6014V53.471H2.2747V34.6014H-0.0166016Z" fill="#0B2D3C"/>
<path d="M34.0793 38.8606L37.314 46.4623L37.5297 47.0014L40.2793 53.471H42.8401L34.0793 33.658L25.3184 53.471H27.8793L30.6827 46.8397L30.8984 46.3545L34.0793 38.8606Z" fill="#0B2D3C"/>
<path d="M53.2227 34.6014V53.471H62.927V51.3145H55.514V34.6014H53.2227Z" fill="#0B2D3C"/>
<path d="M73.9769 44.0362C73.9769 42.6164 74.2824 41.3495 74.8934 40.2352C75.5224 39.1211 76.3759 38.2405 77.4542 37.5935C78.5325 36.9466 79.7545 36.6231 81.1204 36.6231C82.5041 36.6231 83.7265 36.9466 84.7865 37.5935C85.8649 38.2405 86.709 39.1211 87.3207 40.2352C87.949 41.3495 88.264 42.6164 88.264 44.0362C88.264 45.4558 87.949 46.7228 87.3207 47.837C86.709 48.9512 85.8649 49.8318 84.7865 50.4787C83.7265 51.1257 82.5041 51.4492 81.1204 51.4492C79.7545 51.4492 78.5325 51.1257 77.4542 50.4787C76.3759 49.8318 75.5224 48.9512 74.8934 47.837C74.2824 46.7228 73.9769 45.4558 73.9769 44.0362ZM71.5508 44.0362C71.5508 45.4019 71.7844 46.6779 72.2516 47.864C72.7369 49.0501 73.4108 50.0834 74.2734 50.964C75.1359 51.8266 76.1514 52.5095 77.3194 53.0127C78.4876 53.4979 79.7545 53.7405 81.1204 53.7405C82.5041 53.7405 83.7707 53.4979 84.9215 53.0127C86.089 52.5095 87.1049 51.8266 87.9674 50.964C88.8299 50.0834 89.4949 49.0501 89.9624 47.864C90.4474 46.6779 90.6899 45.4019 90.6899 44.0362C90.6899 42.6524 90.4474 41.3764 89.9624 40.2083C89.4949 39.0222 88.8299 37.9979 87.9674 37.1353C87.1049 36.2547 86.089 35.5718 84.9215 35.0866C83.7707 34.5834 82.5041 34.3318 81.1204 34.3318C79.7545 34.3318 78.4876 34.5834 77.3194 35.0866C76.1514 35.5718 75.1359 36.2547 74.2734 37.1353C73.4108 37.9979 72.7369 39.0222 72.2516 40.2083C71.7844 41.3764 71.5508 42.6524 71.5508 44.0362Z" fill="#0B2D3C"/>
<g opacity="0.5">
<path d="M19.4298 68.25C19.0687 68.25 18.7076 68.2084 18.3465 68.125C17.9853 68.0473 17.6965 67.9361 17.4798 67.7917C17.4242 67.7584 17.3965 67.7223 17.3965 67.6834C17.3965 67.6667 17.4048 67.6417 17.4215 67.6084L17.6132 67.2917C17.6353 67.2528 17.6603 67.2334 17.6882 67.2334C17.7159 67.2334 17.7437 67.2445 17.7715 67.2667C17.9715 67.3945 18.2103 67.4945 18.4882 67.5667C18.7715 67.6334 19.0632 67.6667 19.3632 67.6667C19.802 67.6667 20.1326 67.5945 20.3548 67.45C20.577 67.3 20.6882 67.0584 20.6882 66.725C20.6882 66.514 20.6437 66.3445 20.5548 66.2167C20.4659 66.089 20.3298 65.9806 20.1465 65.8917C19.9632 65.7973 19.6659 65.675 19.2548 65.525C18.8937 65.3917 18.5992 65.2667 18.3715 65.15C18.1437 65.0278 17.9492 64.864 17.7882 64.6584C17.6326 64.4473 17.5548 64.1806 17.5548 63.8584C17.5548 63.3861 17.7353 63.014 18.0965 62.7417C18.4632 62.4695 18.9326 62.3334 19.5048 62.3334C20.2048 62.3334 20.7715 62.4723 21.2048 62.75C21.2603 62.789 21.2882 62.825 21.2882 62.8584C21.2882 62.8806 21.2798 62.9056 21.2632 62.9334L21.0715 63.25C21.0437 63.2945 21.0187 63.3167 20.9965 63.3167C20.9798 63.3167 20.952 63.3028 20.9132 63.275C20.5576 63.0361 20.0882 62.9167 19.5048 62.9167C19.1326 62.9167 18.8382 62.9945 18.6215 63.15C18.4048 63.3056 18.2965 63.5445 18.2965 63.8667C18.2965 64.0667 18.3353 64.225 18.4132 64.3417C18.4909 64.4584 18.602 64.5556 18.7465 64.6334C18.8909 64.7056 19.1242 64.8028 19.4465 64.925L19.7882 65.0584C20.1882 65.214 20.4992 65.3584 20.7215 65.4917C20.9437 65.6195 21.1187 65.7834 21.2465 65.9834C21.3742 66.1834 21.4382 66.439 21.4382 66.75C21.4382 67.2167 21.2632 67.5834 20.9132 67.85C20.5632 68.1167 20.0687 68.25 19.4298 68.25Z" fill="#072736"/>
<path d="M25.1387 68.1249C24.972 68.1249 24.8887 68.0416 24.8887 67.8749V62.7083C24.8887 62.5416 24.972 62.4583 25.1387 62.4583H28.6053C28.6943 62.4583 28.7553 62.4749 28.7887 62.5082C28.8276 62.5416 28.847 62.5999 28.847 62.6832V62.8249C28.847 62.9138 28.8276 62.9777 28.7887 63.0166C28.7553 63.0499 28.6943 63.0666 28.6053 63.0666H25.647V64.9833H27.872C27.9609 64.9833 28.0248 65.0027 28.0637 65.0416C28.1026 65.0749 28.122 65.1332 28.122 65.2166V65.3499C28.122 65.4332 28.1026 65.4943 28.0637 65.5333C28.0248 65.5722 27.9609 65.5916 27.872 65.5916H25.647V67.5166H28.6053C28.6943 67.5166 28.7553 67.536 28.7887 67.5749C28.8276 67.6083 28.847 67.6693 28.847 67.7582V67.8999C28.847 67.9833 28.8276 68.0416 28.7887 68.0749C28.7553 68.1083 28.6943 68.1249 28.6053 68.1249H25.1387Z" fill="#072736"/>
<path d="M34.5645 68.25C33.6423 68.25 32.9284 67.9917 32.4229 67.475C31.9229 66.9584 31.6729 66.2306 31.6729 65.2917C31.6729 64.3528 31.9229 63.625 32.4229 63.1084C32.9229 62.5917 33.6339 62.3334 34.5562 62.3334C34.9118 62.3334 35.2451 62.3695 35.5562 62.4417C35.8673 62.514 36.1284 62.6195 36.3395 62.7584C36.3839 62.7861 36.4062 62.8167 36.4062 62.85C36.4062 62.8723 36.3979 62.9 36.3812 62.9334L36.2062 63.225C36.1839 63.2695 36.1589 63.2917 36.1312 63.2917C36.1034 63.2917 36.0756 63.2806 36.0479 63.2584C35.8812 63.1584 35.6756 63.0778 35.4312 63.0167C35.1868 62.95 34.9145 62.9167 34.6145 62.9167C33.9312 62.9167 33.3923 63.114 32.9979 63.5084C32.6089 63.8973 32.4145 64.4917 32.4145 65.2917C32.4145 66.1028 32.6145 66.7028 33.0145 67.0917C33.4145 67.475 33.9534 67.6667 34.6312 67.6667C34.9645 67.6667 35.2534 67.639 35.4979 67.5834C35.7423 67.5223 35.9618 67.4334 36.1562 67.3167C36.1839 67.2945 36.2145 67.2834 36.2479 67.2834C36.2756 67.2834 36.3006 67.3028 36.3229 67.3417L36.5062 67.6584C36.5229 67.6806 36.5312 67.7028 36.5312 67.725C36.5312 67.7417 36.5229 67.7584 36.5062 67.775C36.4951 67.7861 36.4756 67.8 36.4479 67.8167C36.0145 68.1056 35.3868 68.25 34.5645 68.25Z" fill="#072736"/>
<path d="M42.3964 68.2499C41.913 68.2499 41.4853 68.1666 41.113 67.9999C40.7409 67.8277 40.4492 67.5832 40.238 67.2666C40.0325 66.9443 39.9297 66.5693 39.9297 66.1416V62.7083C39.9297 62.5416 40.013 62.4583 40.1797 62.4583H40.438C40.5269 62.4583 40.5909 62.4805 40.6297 62.5249C40.6686 62.5638 40.688 62.6249 40.688 62.7083V66.1749C40.688 66.636 40.838 66.9999 41.138 67.2666C41.438 67.5332 41.8575 67.6666 42.3964 67.6666C42.9353 67.6666 43.3547 67.5332 43.6547 67.2666C43.9547 66.9999 44.1047 66.636 44.1047 66.1749V62.7083C44.1047 62.6249 44.1242 62.5638 44.163 62.5249C44.2019 62.4805 44.2659 62.4583 44.3547 62.4583H44.6047C44.7769 62.4583 44.863 62.5416 44.863 62.7083V66.1416C44.863 66.5693 44.7575 66.9443 44.5464 67.2666C44.3409 67.5832 44.0519 67.8277 43.6797 67.9999C43.3075 68.1666 42.8797 68.2499 42.3964 68.2499Z" fill="#072736"/>
<path d="M48.6865 68.1249C48.5199 68.1249 48.4365 68.0416 48.4365 67.8749V62.7083C48.4365 62.5416 48.5199 62.4583 48.6865 62.4583H50.9199C51.4977 62.4583 51.9477 62.6027 52.2699 62.8916C52.5977 63.1805 52.7615 63.6055 52.7615 64.1666C52.7615 64.5555 52.6615 64.8888 52.4615 65.1666C52.2615 65.4388 51.9754 65.6388 51.6032 65.7666L52.5782 67.9499C52.5894 67.9833 52.5949 68.0083 52.5949 68.0249C52.5949 68.0916 52.5532 68.1249 52.4699 68.1249H52.0282C51.9671 68.1249 51.9199 68.1166 51.8865 68.0999C51.8588 68.0777 51.8338 68.036 51.8115 67.9749L50.8865 65.8583H49.1949V67.8749C49.1949 67.9583 49.1754 68.0222 49.1365 68.0666C49.0977 68.1055 49.0338 68.1249 48.9449 68.1249H48.6865ZM50.6949 65.2582C51.1504 65.2582 51.4838 65.1749 51.6949 65.0082C51.906 64.836 52.0115 64.5555 52.0115 64.1666C52.0115 63.7833 51.9171 63.5055 51.7282 63.3333C51.5449 63.1555 51.256 63.0666 50.8615 63.0666H49.1949V65.2582H50.6949Z" fill="#072736"/>
<path d="M56.46 68.1249C56.2933 68.1249 56.21 68.0416 56.21 67.8749V62.7083C56.21 62.5416 56.2933 62.4583 56.46 62.4583H56.7183C56.8071 62.4583 56.871 62.4805 56.91 62.5249C56.9488 62.5638 56.9683 62.6249 56.9683 62.7083V67.8749C56.9683 67.9583 56.9488 68.0222 56.91 68.0666C56.871 68.1055 56.8071 68.1249 56.7183 68.1249H56.46Z" fill="#072736"/>
<path d="M62.2907 68.1249C62.1185 68.1249 62.0324 68.0416 62.0324 67.8749V63.0666H60.4907C60.4019 63.0666 60.3379 63.0499 60.299 63.0166C60.2657 62.9833 60.249 62.9249 60.249 62.8416V62.6999C60.249 62.6166 60.2657 62.5555 60.299 62.5166C60.3379 62.4777 60.4019 62.4583 60.4907 62.4583H64.3324C64.4213 62.4583 64.4852 62.4777 64.524 62.5166C64.5629 62.5555 64.5824 62.6166 64.5824 62.6999V62.8416C64.5824 62.9249 64.5629 62.9833 64.524 63.0166C64.4852 63.0499 64.4213 63.0666 64.3324 63.0666H62.7907V67.8749C62.7907 67.9583 62.7713 68.0222 62.7324 68.0666C62.6935 68.1055 62.6296 68.1249 62.5407 68.1249H62.2907Z" fill="#072736"/>
<path d="M69.9941 68.1249C69.8219 68.1249 69.7358 68.0416 69.7358 67.8749V66.2416L67.6441 62.6499C67.6275 62.6166 67.6191 62.586 67.6191 62.5583C67.6191 62.4916 67.6636 62.4583 67.7525 62.4583H68.1941C68.2608 62.4583 68.3052 62.4666 68.3275 62.4833C68.3496 62.4943 68.3719 62.5193 68.3941 62.5583L70.1191 65.5416L71.8441 62.5583C71.8663 62.5193 71.8886 62.4943 71.9108 62.4833C71.933 62.4666 71.9775 62.4583 72.0441 62.4583H72.4858C72.5746 62.4583 72.6191 62.4916 72.6191 62.5583C72.6191 62.586 72.6108 62.6166 72.5941 62.6499L70.5025 66.2499V67.8749C70.5025 68.0416 70.4163 68.1249 70.2441 68.1249H69.9941Z" fill="#072736"/>
</g>
</g>
</g>
<defs>
<filter id="filter0_dd_15397_208536" x="66.182" y="29.0001" width="29.9417" height="30.2464" filterUnits="userSpaceOnUse" color-interpolation-filters="sRGB">
<feFlood flood-opacity="0" result="BackgroundImageFix"/>
<feColorMatrix in="SourceAlpha" type="matrix" values="0 0 0 0 0 0 0 0 0 0 0 0 0 0 0 0 0 0 127 0" result="hardAlpha"/>
<feOffset/>
<feGaussianBlur stdDeviation="2.08333"/>
<feColorMatrix type="matrix" values="0 0 0 0 0.988235 0 0 0 0 0.666667 0 0 0 0 0 0 0 0 1 0"/>
<feBlend mode="normal" in2="BackgroundImageFix" result="effect1_dropShadow_15397_208536"/>
<feColorMatrix in="SourceAlpha" type="matrix" values="0 0 0 0 0 0 0 0 0 0 0 0 0 0 0 0 0 0 127 0" result="hardAlpha"/>
<feOffset/>
<feGaussianBlur stdDeviation="2.08333"/>
<feComposite in2="hardAlpha" operator="out"/>
<feColorMatrix type="matrix" values="0 0 0 0 1 0 0 0 0 0.843333 0 0 0 0 0.0208333 0 0 0 1 0"/>
<feBlend mode="normal" in2="effect1_dropShadow_15397_208536" result="effect2_dropShadow_15397_208536"/>
<feBlend mode="normal" in="SourceGraphic" in2="effect2_dropShadow_15397_208536" result="shape"/>
</filter>
<clipPath id="clip0_15397_208536">
<rect width="100" height="41.6667" fill="white" transform="translate(0 29)"/>
</clipPath>
</defs>
</svg>
