<svg width="100" height="100" viewBox="0 0 100 100" fill="none" xmlns="http://www.w3.org/2000/svg">
<path d="M13.5347 98.9865C12.9941 98.9865 12.4198 98.8176 11.9468 98.5136C11.0009 97.9055 10.5279 96.7906 10.6968 95.6757L18.9063 45.2365C19.3455 42.5338 20.7306 40.1014 22.7914 38.3447C24.8522 36.5879 27.5211 35.6082 30.2238 35.6082H64.0414L65.9333 24.0203H62.7576C61.3387 24.0203 60.0211 23.4122 59.109 22.3311C58.1968 21.2501 57.7914 19.8649 58.0279 18.4798L60.1901 5.06763C60.5617 2.73655 62.5549 1.04736 64.9198 1.04736H77.5211C80.8995 1.04736 84.0752 2.53385 86.2711 5.10142C88.4671 7.66898 89.413 11.0474 88.8725 14.392L83.8049 45.6082C83.5684 46.9595 82.7914 48.1757 81.609 48.919L53.2982 66.3852C51.5752 67.4325 49.3793 67.3311 47.7914 66.0474L34.6157 55.5406C33.3657 54.5609 33.163 52.7366 34.1765 51.5203C35.1563 50.2703 36.9806 50.0676 38.1968 51.0811L50.8657 61.1825L78.2306 44.223L83.2306 13.446C83.5009 11.7906 83.0279 10.1014 81.9468 8.81763C80.8657 7.53385 79.2779 6.79061 77.5887 6.79061H65.7982L63.9401 18.2771H67.082C68.5009 18.2771 69.8184 18.8852 70.7306 19.9663C71.6428 21.0474 72.0482 22.4325 71.8117 23.8176L69.6157 37.2974C69.2441 39.6284 67.2509 41.3176 64.886 41.3176H30.2238C27.386 41.3176 25.0211 43.3447 24.5482 46.1487L17.3522 90.3717L27.4536 84.1217C28.1968 83.6487 29.0752 83.4122 29.9874 83.4122H66.9806C69.8184 83.4122 72.1833 81.3852 72.6563 78.5811L74.9536 64.4257C75.2239 62.8717 76.6766 61.7906 78.2306 62.0609C79.7847 62.3311 80.8657 63.7838 80.5955 65.3379L78.2982 79.4933C77.859 82.196 76.4739 84.6284 74.413 86.3852C72.3522 88.142 69.6833 89.1217 66.9806 89.1217H30.2238L15.0211 98.5474C14.582 98.8514 14.0414 98.9865 13.5347 98.9865Z" fill="#089949"/>
</svg>
