<svg width="103" height="100" viewBox="0 0 103 100" fill="none" xmlns="http://www.w3.org/2000/svg">
<g clip-path="url(#clip0_15910_61468)">
<mask id="mask0_15910_61468" style="mask-type:luminance" maskUnits="userSpaceOnUse" x="-10" y="25" width="123" height="51">
<path d="M-9.72656 25.8683H112.262V75.1329H-9.72656V25.8683Z" fill="white"/>
</mask>
<g mask="url(#mask0_15910_61468)">
<path d="M25.5123 55.288C25.4424 55.2573 24.9135 54.957 24.1278 54.957C23.064 54.957 22.327 55.6616 22.327 56.6128C22.327 57.5367 23.0316 58.2694 24.1278 58.2694C24.9015 58.2694 25.4398 57.9786 25.5123 57.9402V59.6088C25.305 59.6634 24.742 59.8289 24.0126 59.8289C22.1598 59.8289 20.5381 58.6158 20.5381 56.6128C20.5381 54.7599 22.0071 53.401 24.0126 53.401C24.783 53.401 25.3545 53.5801 25.5123 53.6245V55.288Z" fill="#88898D"/>
<path d="M8.34595 55.288C8.27941 55.2573 7.75136 54.957 6.96483 54.957C5.8985 54.957 5.16145 55.6616 5.16145 56.6128C5.16145 57.5367 5.86523 58.2694 6.96483 58.2694C7.73771 58.2694 8.276 57.9786 8.34595 57.9402V59.6088C8.14121 59.6634 7.57904 59.8289 6.8437 59.8289C4.9951 59.8289 3.37598 58.6158 3.37598 56.6128C3.37598 54.7599 4.84325 53.401 6.8437 53.401C7.62255 53.401 8.18984 53.5801 8.34595 53.6245V55.288Z" fill="#88898D"/>
<path d="M30.6829 54.9817C29.7078 54.9817 28.9844 55.712 28.9844 56.6128C28.9844 57.5179 29.7078 58.2473 30.6829 58.2473C31.6588 58.2473 32.3847 57.5179 32.3847 56.6128C32.3847 55.712 31.6588 54.9817 30.6829 54.9817ZM34.1258 56.6128C34.1258 58.3889 32.6876 59.8289 30.6829 59.8289C28.6799 59.8289 27.2441 58.3889 27.2441 56.6128C27.2441 54.841 28.6799 53.401 30.6829 53.401C32.6876 53.401 34.1258 54.841 34.1258 56.6128Z" fill="#88898D"/>
<path d="M18.4868 54.9212C18.4646 54.9143 17.7711 54.7326 17.2021 54.7326C16.5435 54.7326 16.1852 54.9416 16.1852 55.2428C16.1852 55.6198 16.6672 55.7503 16.9368 55.8339L17.3932 55.9687C18.4595 56.2929 18.9466 56.9898 18.9466 57.7457C18.9466 59.3051 17.5058 59.8289 16.2484 59.8289C15.3722 59.8289 14.5576 59.6745 14.4731 59.66V58.2311C14.619 58.2652 15.3074 58.4622 16.0257 58.4622C16.8421 58.4622 17.2208 58.2345 17.2208 57.8796C17.2208 57.5665 16.8958 57.3874 16.4855 57.2637C16.3865 57.233 16.239 57.1878 16.1332 57.1562C15.2187 56.8798 14.4561 56.3671 14.4561 55.3417C14.4561 54.1781 15.368 53.401 16.8856 53.401C17.6849 53.401 18.439 53.5835 18.4868 53.5963V54.9212Z" fill="#88898D"/>
<path d="M1.63107 46.8409C1.63107 46.4144 1.26595 46.0663 0.813827 46.0663C0.368525 46.0663 0 46.4144 0 46.8409V48.4694C0 48.8994 0.368525 49.2466 0.813827 49.2466C1.26595 49.2466 1.63107 48.8994 1.63107 48.4694V46.8409Z" fill="#88898D"/>
<path d="M6.11519 44.7014C6.11519 44.2749 5.75008 43.9286 5.30137 43.9286C4.84924 43.9286 4.48242 44.2749 4.48242 44.7014V48.4686C4.48242 48.8994 4.84924 49.2457 5.30137 49.2457C5.75008 49.2457 6.11519 48.8994 6.11519 48.4686V44.7014Z" fill="#88898D"/>
<path d="M10.5997 41.7771C10.5997 41.3472 10.2363 41.0009 9.78501 41.0009C9.3363 41.0009 8.96777 41.3472 8.96777 41.7771V50.0186C8.96777 50.4477 9.3363 50.7966 9.78501 50.7966C10.2363 50.7966 10.5997 50.4477 10.5997 50.0186V41.7771Z" fill="#88898D"/>
<path d="M15.0843 44.7014C15.0843 44.2749 14.7192 43.9286 14.2713 43.9286C13.8192 43.9286 13.4541 44.2749 13.4541 44.7014V48.4686C13.4541 48.8994 13.8192 49.2457 14.2713 49.2457C14.7192 49.2457 15.0843 48.8994 15.0843 48.4686V44.7014Z" fill="#88898D"/>
<path d="M19.565 46.8409C19.565 46.4144 19.2025 46.0663 18.7538 46.0663C18.3033 46.0663 17.9365 46.4144 17.9365 46.8409V48.4694C17.9365 48.8994 18.3033 49.2466 18.7538 49.2466C19.2025 49.2466 19.565 48.8994 19.565 48.4694V46.8409Z" fill="#88898D"/>
<path d="M24.0534 44.7014C24.0534 44.2749 23.6892 43.9286 23.2388 43.9286C22.79 43.9286 22.4258 44.2749 22.4258 44.7014V48.4686C22.4258 48.8994 22.79 49.2457 23.2388 49.2457C23.6892 49.2457 24.0534 48.8994 24.0534 48.4686V44.7014Z" fill="#88898D"/>
<path d="M28.5387 41.7771C28.5387 41.3472 28.177 41.0009 27.7231 41.0009C27.2778 41.0009 26.9102 41.3472 26.9102 41.7771V50.0186C26.9102 50.4477 27.2778 50.7966 27.7231 50.7966C28.177 50.7966 28.5387 50.4477 28.5387 50.0186V41.7771Z" fill="#88898D"/>
<path d="M33.027 44.7014C33.027 44.2749 32.6602 43.9286 32.1996 43.9286C31.7534 43.9286 31.3857 44.2749 31.3857 44.7014V48.4686C31.3857 48.8994 31.7534 49.2457 32.1996 49.2457C32.6602 49.2457 33.027 48.8994 33.027 48.4686V44.7014Z" fill="#88898D"/>
<path d="M37.5044 46.8409C37.5044 46.4144 37.1375 46.0663 36.6888 46.0663C36.2384 46.0663 35.875 46.4144 35.875 46.8409V48.4694C35.875 48.8994 36.2384 49.2466 36.6888 49.2466C37.1375 49.2466 37.5044 48.8994 37.5044 48.4694V46.8409Z" fill="#88898D"/>
<path d="M12.2527 59.7188H10.6055V53.5118H12.2527V59.7188Z" fill="#88898D"/>
<path d="M54.6067 59.7249L49.5232 47.7683V59.7249H48.4561V46.4196H50.0666L55.2081 58.6167L60.0586 46.4196H61.6112V59.7249H60.5636V47.8604L55.7703 59.7249H54.6067Z" fill="#62B144"/>
<path d="M72.8361 57.0999C72.3507 58.8564 70.7981 60.0004 68.6441 60.0004C65.9092 60.0004 63.8516 58.2098 63.8516 54.9195C63.8516 51.6301 65.8494 49.8386 68.4505 49.8386C71.0318 49.8386 73.011 51.5013 73.011 55.1609H64.9196C65.0169 57.8941 66.6454 59.1516 68.6637 59.1516C70.1779 59.1516 71.3415 58.3736 71.7296 57.0999H72.8361ZM64.9392 54.3275H71.9233C71.7885 51.8689 70.3323 50.6516 68.4505 50.6516C66.6078 50.6516 65.1329 51.9244 64.9392 54.3275Z" fill="#62B144"/>
<path d="M75.458 59.7249V50.115H76.3119L76.468 51.9636C77.0106 50.504 78.0385 49.8387 79.3002 49.8387C79.7071 49.8387 80.1141 49.912 80.3478 49.9871V50.9664C79.998 50.8726 79.6491 50.7984 79.2422 50.7984C77.7673 50.7984 76.5056 52.1675 76.5056 54.4759V59.7249H75.458Z" fill="#62B144"/>
<path d="M81.6708 52.6094C81.8252 50.9664 83.359 49.8386 85.5906 49.8386C87.8419 49.8386 89.3347 51.0389 89.3347 52.9984V59.7248H88.4808L88.3264 58.1364C87.7045 59.1319 86.5606 60.0004 84.7563 60.0004C82.796 60.0004 81.3799 58.9861 81.3799 57.2859C81.3799 55.6412 82.4275 54.6431 85.2596 54.1995L88.2872 53.7192V52.8875C88.2872 51.5013 87.2592 50.6516 85.5326 50.6516C83.922 50.6516 82.8924 51.4441 82.7567 52.6094H81.6708ZM88.2872 56.3057V54.5126L85.571 54.9562C83.1636 55.3443 82.4658 56.0652 82.4658 57.2125C82.4658 58.5049 83.5134 59.1516 85.0276 59.1516C86.6382 59.1516 88.2872 57.988 88.2872 56.3057Z" fill="#62B144"/>
<path d="M92.0186 59.7249V46.4196H93.0661V54.0315L97.8979 50.115H99.3148L94.1325 54.3113L99.9538 59.7249H98.5386L93.0661 54.6431V59.7249H92.0186Z" fill="#62B144"/>
<path d="M101.274 46.4196H102.536V47.7862H101.274V46.4196ZM101.37 50.115H102.418V59.7249H101.37V50.115Z" fill="#62B144"/>
</g>
</g>
<defs>
<clipPath id="clip0_15910_61468">
<rect width="102.537" height="19" fill="white" transform="translate(0 41)"/>
</clipPath>
</defs>
</svg>
