<svg width="100" height="100" viewBox="0 0 100 100" fill="none" xmlns="http://www.w3.org/2000/svg">
<path fill-rule="evenodd" clip-rule="evenodd" d="M36.3058 44.829L36.3895 46.3242C37.3439 45.1678 38.597 44.5896 40.148 44.5896C42.8357 44.5896 44.2038 46.1324 44.2514 49.2181V57.7678H41.3534V49.3855C41.3534 48.5644 41.1766 47.9569 40.8228 47.5617C40.4691 47.1671 39.8902 46.9698 39.0868 46.9698C37.9174 46.9698 37.0459 47.5004 36.4745 48.5603V57.7678H33.5752V44.829H36.3072H36.3058ZM52.8895 58.0072C51.0527 58.0072 49.563 57.4276 48.4221 56.2678C47.2806 55.1079 46.7099 53.563 46.7099 51.6338V51.2753C46.7099 49.9841 46.9582 48.8297 47.4555 47.8134C47.9521 46.797 48.6507 46.0059 49.5493 45.4392C50.448 44.8739 51.45 44.5909 52.5562 44.5909C54.3133 44.5909 55.6718 45.1528 56.6296 46.2766C57.5888 47.4011 58.0677 48.9909 58.0677 51.0481V52.2202H49.6323C49.7208 53.2882 50.0759 54.1331 50.7004 54.7549C51.3249 55.3766 52.1106 55.6875 53.0568 55.6875C54.3847 55.6875 55.4664 55.1501 56.3017 54.0732L57.8643 55.5685C57.3473 56.3413 56.6575 56.9412 55.7949 57.3678C54.9317 57.7943 53.963 58.0072 52.8895 58.0072ZM52.5439 46.9229C51.748 46.9229 51.1065 47.2018 50.6174 47.7596C50.1276 48.3174 49.816 49.095 49.6806 50.0916H55.2044V49.8759C55.1405 48.9032 54.882 48.1685 54.4289 47.6698C53.9752 47.1719 53.3473 46.9229 52.5439 46.9229ZM63.9487 41.6848V44.8297H66.2276V46.9821H63.9487V54.2045C63.9487 54.6984 64.0466 55.0549 64.2412 55.2746C64.4357 55.4936 64.784 55.6032 65.2854 55.6032C65.6267 55.6022 65.9668 55.562 66.299 55.4834V57.7317C65.6391 57.9154 65.0031 58.0066 64.3902 58.0066C62.1636 58.0066 61.05 56.7753 61.05 54.312V46.9814H58.9249V44.829H61.0487V41.6841H63.9473L63.9487 41.6848ZM71.5249 57.7685H68.6255V39.4011H71.5249V57.7685ZM77.7643 57.7685H74.865V44.8297H77.7643V57.7685ZM74.6861 41.4691C74.6861 41.0236 74.8269 40.6528 75.1092 40.3576C75.3922 40.063 75.7956 39.9154 76.3201 39.9154C76.8453 39.9154 77.2507 40.063 77.5378 40.3576C77.8235 40.6528 77.9664 41.0236 77.9664 41.4698C77.9664 41.9079 77.8235 42.2725 77.5378 42.5637C77.2507 42.8549 76.8453 43.0004 76.3201 43.0004C75.7956 43.0004 75.3922 42.8549 75.1092 42.5637C74.8269 42.2732 74.6861 41.9079 74.6861 41.4698V41.4691ZM81.9398 57.7685V46.9814H79.9711V44.829H81.9398V43.6453C81.9398 42.21 82.3371 41.1025 83.1323 40.3208C83.9283 39.5399 85.0412 39.1494 86.4725 39.1494C86.982 39.1494 87.5228 39.2208 88.0956 39.3644L88.0242 41.6365C87.6583 41.5686 87.2867 41.5367 86.9146 41.5413C85.5303 41.5413 84.8385 42.2542 84.8385 43.6814V44.829H87.4629V46.9814H84.8385V57.7678H81.9398V57.7685ZM94.0963 53.6072L96.7208 44.8297H99.8106L94.6813 59.7297C93.8936 61.9059 92.5575 62.9943 90.6725 62.9943C90.2507 62.9943 89.7854 62.9222 89.2766 62.7787V60.5304L89.8255 60.5664C90.5568 60.5664 91.1078 60.4331 91.4779 60.1657C91.8473 59.8991 92.1398 59.4508 92.3548 58.8208L92.7718 57.7086L88.2385 44.8297H91.3643L94.0963 53.6072Z" fill="#0E1E25"/>
<path d="M18.9709 45.6157L18.9614 45.6116C18.9559 45.6096 18.9505 45.6075 18.9457 45.6028C18.9379 45.5944 18.9321 45.5843 18.9288 45.5734C18.9255 45.5624 18.9248 45.5508 18.9267 45.5395L19.4525 42.3246L21.9185 44.7912L19.3539 45.8824C19.3468 45.8853 19.3391 45.8866 19.3314 45.8865H19.3212C19.3178 45.8844 19.3144 45.8817 19.3076 45.8749C19.2122 45.7686 19.098 45.6808 18.9709 45.6157ZM22.5478 45.4198L25.1845 48.0565C25.7321 48.6048 26.0063 48.8783 26.1063 49.1953C26.1212 49.2422 26.1335 49.2892 26.143 49.3375L19.8416 46.6688C19.8382 46.6674 19.8348 46.666 19.8314 46.6647C19.8063 46.6545 19.777 46.6429 19.777 46.6171C19.777 46.5912 19.8069 46.579 19.8321 46.5688L19.8403 46.5654L22.5478 45.4198ZM26.0355 50.1837C25.8995 50.4395 25.6341 50.7048 25.1852 51.1545L22.2124 54.1266L18.3675 53.3259L18.3471 53.3218C18.3131 53.3164 18.277 53.3103 18.277 53.2797C18.2624 53.121 18.2153 52.9671 18.1387 52.8275C18.062 52.6879 17.9574 52.5655 17.8314 52.4681C17.8158 52.4524 17.8199 52.428 17.8246 52.4055C17.8246 52.4021 17.8246 52.3987 17.826 52.396L18.5491 47.9565L18.5518 47.9416C18.5559 47.9075 18.562 47.8681 18.5927 47.8681C18.7476 47.8488 18.8972 47.7989 19.0327 47.7212C19.1682 47.6436 19.2868 47.5397 19.3818 47.4157C19.3879 47.4089 19.392 47.4014 19.4001 47.3973C19.4219 47.3871 19.4478 47.3973 19.4702 47.4069L26.0355 50.1837ZM21.5287 54.8103L16.6403 59.6987L17.477 54.5558L17.4784 54.549C17.479 54.5422 17.4804 54.5354 17.4824 54.5293C17.4893 54.513 17.5069 54.5062 17.5239 54.4994L17.5321 54.496C17.7153 54.4178 17.8774 54.2973 18.0049 54.1443C18.0212 54.1252 18.041 54.1069 18.0661 54.1035C18.0727 54.1024 18.0793 54.1024 18.0858 54.1035L21.528 54.8109L21.5287 54.8103ZM15.6056 60.7334L15.0546 61.2844L8.96272 52.4803C8.96052 52.4771 8.95825 52.4739 8.95592 52.4708C8.94639 52.4579 8.93619 52.445 8.93823 52.43C8.93823 52.4191 8.94571 52.4096 8.9532 52.4014L8.96 52.3926C8.97837 52.3654 8.99401 52.3382 9.01102 52.3089L9.02462 52.2851L9.02667 52.2831C9.03619 52.2667 9.04503 52.2511 9.06136 52.2422C9.07565 52.2354 9.09537 52.2382 9.11102 52.2416L15.86 53.6334C15.8789 53.6363 15.8967 53.6441 15.9117 53.6558C15.9205 53.6647 15.9226 53.6742 15.9246 53.6851C15.9717 53.8632 16.0593 54.028 16.1806 54.1667C16.3019 54.3054 16.4537 54.4141 16.6239 54.4844C16.643 54.4939 16.6348 54.515 16.626 54.5375C16.6216 54.5473 16.6182 54.5576 16.6158 54.5681C16.5307 55.0851 15.8015 59.5327 15.6056 60.7334ZM14.4546 61.8837C14.0484 62.2858 13.809 62.4987 13.5382 62.5844C13.2713 62.6688 12.9848 62.6688 12.7178 62.5844C12.4008 62.4837 12.1267 62.2103 11.579 61.662L5.46136 55.5443L7.05932 53.0661C7.0668 53.0538 7.07429 53.0429 7.08653 53.0341C7.10354 53.0218 7.12803 53.0273 7.14843 53.0341C7.51521 53.1447 7.90901 53.1248 8.26272 52.9776C8.28109 52.9708 8.29946 52.9661 8.31374 52.979C8.32088 52.9855 8.32727 52.9928 8.33279 53.0007L14.4546 61.8837ZM4.87156 54.9545L3.46816 53.5511L6.23959 52.3688C6.24667 52.3657 6.25431 52.3641 6.26204 52.364C6.28517 52.364 6.29877 52.3871 6.31102 52.4082C6.33887 52.4511 6.36837 52.4928 6.39946 52.5334L6.4083 52.5443C6.41646 52.5558 6.41102 52.5674 6.40286 52.5783L4.87156 54.9545ZM2.84707 52.93L1.07156 51.1545C0.769523 50.8524 0.550476 50.6334 0.398095 50.445L5.79673 51.5647C5.80352 51.5659 5.81032 51.5671 5.81714 51.5681C5.85048 51.5735 5.88721 51.5797 5.88721 51.6109C5.88721 51.645 5.84707 51.6606 5.81306 51.6735L5.79741 51.6803L2.84707 52.93ZM0.0878906 49.532C0.0940431 49.4177 0.114614 49.3045 0.149115 49.1953C0.249795 48.8783 0.523265 48.6048 1.07156 48.0565L3.34367 45.7844C4.38982 47.3027 5.4388 48.819 6.49061 50.3334C6.50898 50.3579 6.52939 50.3851 6.5083 50.4055C6.40898 50.515 6.30966 50.6348 6.23959 50.7647C6.23199 50.7814 6.22029 50.7959 6.20558 50.8069C6.19673 50.8123 6.18721 50.8103 6.17701 50.8082H6.17565L0.0878906 49.532ZM3.95184 45.1763L7.00558 42.1212C7.29333 42.247 8.33891 42.6885 9.27292 43.0831C9.98041 43.3824 10.6253 43.6545 10.828 43.7429C10.8484 43.7511 10.8668 43.7592 10.8756 43.7797C10.8811 43.7919 10.8784 43.8075 10.8756 43.8205C10.8273 44.041 10.8345 44.2701 10.8966 44.4871C10.9587 44.7042 11.0737 44.9024 11.2314 45.064C11.2518 45.0844 11.2314 45.1137 11.2137 45.1388L11.2042 45.1531L8.10218 49.9579C8.09401 49.9715 8.08653 49.9831 8.07292 49.9919C8.0566 50.0021 8.03347 49.9973 8.01442 49.9926C7.89377 49.961 7.76974 49.9441 7.64503 49.9422C7.53347 49.9422 7.41238 49.9627 7.28993 49.9851H7.28925C7.27565 49.9871 7.2634 49.9899 7.25252 49.9817C7.24049 49.9719 7.23015 49.9602 7.2219 49.947L3.95184 45.1763ZM7.62395 41.5041L11.579 37.549C12.1267 37.0014 12.4008 36.7273 12.7178 36.6273C12.9848 36.5429 13.2713 36.5429 13.5382 36.6273C13.8552 36.7273 14.1294 37.0014 14.677 37.549L15.5342 38.4062L12.7212 42.7627C12.7143 42.7753 12.7048 42.7864 12.6933 42.7953C12.6763 42.8069 12.6525 42.8021 12.6321 42.7953C12.4103 42.728 12.1755 42.7157 11.9479 42.7596C11.7203 42.8035 11.5069 42.9021 11.326 43.047C11.3076 43.0661 11.2804 43.0552 11.2573 43.045C10.8899 42.8851 8.03279 41.6776 7.62395 41.5041ZM16.1314 39.0035L18.7287 41.6007L18.1029 45.4769V45.4871C18.1023 45.496 18.1005 45.5047 18.0974 45.513C18.0906 45.5266 18.077 45.5293 18.0634 45.5334C17.9296 45.5739 17.8036 45.6367 17.6906 45.7191C17.6858 45.7226 17.6812 45.7264 17.677 45.7307C17.6695 45.7388 17.662 45.7463 17.6498 45.7477C17.6398 45.748 17.6299 45.7464 17.6205 45.7429L13.6627 44.0613L13.6552 44.0579C13.6301 44.0477 13.6001 44.0354 13.6001 44.0096C13.5769 43.789 13.5048 43.5764 13.3893 43.3871C13.3702 43.3558 13.3491 43.3232 13.3654 43.2912L16.1314 39.0035ZM13.4566 44.8579L17.1668 46.4293C17.1872 46.4388 17.2097 46.4477 17.2185 46.4688C17.222 46.4815 17.222 46.4949 17.2185 46.5075C17.2076 46.562 17.1981 46.6239 17.1981 46.6865V46.7905C17.1981 46.8164 17.1716 46.8273 17.1471 46.8375L17.1396 46.8402C16.5518 47.0912 8.88789 50.3592 8.87633 50.3592C8.86476 50.3592 8.85252 50.3592 8.84095 50.3477C8.82054 50.3273 8.84095 50.2987 8.85932 50.2729C8.86257 50.2684 8.86574 50.2638 8.86884 50.2592L11.9178 45.5382L11.9233 45.53C11.941 45.5014 11.9614 45.4695 11.994 45.4695L12.0246 45.4742C12.094 45.4837 12.1552 45.4926 12.2171 45.4926C12.6797 45.4926 13.1083 45.2674 13.3668 44.8824C13.373 44.8721 13.3808 44.8629 13.3899 44.8552C13.4083 44.8416 13.4355 44.8484 13.4566 44.8579ZM9.20762 51.1062L17.5614 47.5436C17.5614 47.5436 17.5736 47.5436 17.5852 47.5552C17.6307 47.6007 17.6695 47.6314 17.7069 47.6599L17.7253 47.6715C17.7423 47.681 17.7593 47.6919 17.7607 47.7096C17.7607 47.7164 17.7607 47.7205 17.7593 47.7266L17.0437 52.1225L17.041 52.1402C17.0362 52.1742 17.0314 52.213 16.9995 52.213C16.8087 52.2259 16.6239 52.2851 16.4611 52.3855C16.2984 52.4859 16.1626 52.6244 16.0654 52.7892L16.062 52.7946C16.0525 52.8103 16.0437 52.8252 16.028 52.8334C16.0137 52.8402 15.9954 52.8375 15.9804 52.8341L9.3185 51.4599C9.3117 51.4586 9.2151 51.1069 9.20762 51.1062Z" fill="url(#paint0_radial_15397_208531)"/>
<defs>
<radialGradient id="paint0_radial_15397_208531" cx="0" cy="0" r="1" gradientUnits="userSpaceOnUse" gradientTransform="translate(-0.786902 49.2378) rotate(90) scale(3830.1 4421.99)">
<stop stop-color="#20C6B7"/>
<stop offset="1" stop-color="#4D9ABF"/>
</radialGradient>
</defs>
</svg>
