<svg width="100" height="100" viewBox="0 0 100 100" fill="none" xmlns="http://www.w3.org/2000/svg">
<g clip-path="url(#clip0_15397_208512)">
<mask id="mask0_15397_208512" style="mask-type:luminance" maskUnits="userSpaceOnUse" x="1" y="45" width="98" height="11">
<path d="M98.5295 45H1.4707V56H98.5295V45Z" fill="white"/>
</mask>
<g mask="url(#mask0_15397_208512)">
<path d="M15.0976 50.4071L10.4801 46.3448C9.51141 45.4949 8.27003 45 6.88759 45C3.90642 45 1.4707 47.4187 1.4707 50.379C1.4707 53.3394 3.90642 55.7581 6.88759 55.7581C8.27003 55.7581 9.51141 55.2351 10.4801 54.4133L15.0976 50.4071ZM3.09765 50.4071C3.09765 48.3525 4.78102 46.6436 6.88759 46.6436C8.95656 46.6436 10.6775 48.3152 10.6775 50.4071C10.6775 52.4615 8.99415 54.1705 6.88759 54.1705C4.81865 54.1425 3.09765 52.4615 3.09765 50.4071Z" fill="#E5173F"/>
<path d="M18.056 53.161C17.5856 53.161 17.214 53.0417 16.9413 52.8031C16.6686 52.5644 16.5322 52.2303 16.5322 51.8008C16.5322 51.2281 16.8118 50.7577 17.3708 50.3895C17.9299 50.0145 18.8537 49.735 20.1423 49.5509V49.3055C20.1423 48.6373 19.8014 48.3032 19.1196 48.3032C18.4446 48.3032 17.7935 48.576 17.1663 49.1214L16.7061 48.5691C17.4356 47.901 18.2708 47.5669 19.2117 47.5669C20.4116 47.5669 21.0116 48.1669 21.0116 49.3668V51.7497C21.0116 52.3838 21.0627 52.8269 21.165 53.0792H20.265C20.1832 52.8201 20.1423 52.5713 20.1423 52.3326C19.5492 52.8849 18.8537 53.161 18.056 53.161ZM18.3117 52.4656C18.9935 52.4656 19.6037 52.2031 20.1423 51.6781V50.1645C19.1537 50.3213 18.4481 50.5225 18.0253 50.7679C17.6095 51.0134 17.4015 51.3133 17.4015 51.6679C17.4015 51.9269 17.4799 52.1247 17.6367 52.261C17.8004 52.3974 18.0253 52.4656 18.3117 52.4656Z" fill="#666666"/>
<path d="M24.6084 53.1917C23.9402 53.1917 23.3709 52.9428 22.9005 52.4451C22.4369 51.9474 22.2051 51.2588 22.2051 50.3793C22.2051 49.4589 22.4505 48.76 22.9414 48.2828C23.4323 47.8055 24.0118 47.5669 24.68 47.5669C25.6754 47.5669 26.381 48.0714 26.7969 49.0805L26.0504 49.3873C25.7777 48.6714 25.314 48.3134 24.6595 48.3134C24.2232 48.3134 23.8516 48.4805 23.5448 48.8146C23.2448 49.1487 23.0948 49.6702 23.0948 50.3793C23.0948 51.0338 23.2346 51.5451 23.5141 51.9133C23.8005 52.2747 24.1754 52.4553 24.6391 52.4553C24.9868 52.4553 25.2731 52.3735 25.4981 52.2099C25.7231 52.0395 25.9208 51.7599 26.0913 51.3713L26.8174 51.6576C26.5856 52.1485 26.2958 52.5269 25.9481 52.7928C25.6004 53.0587 25.1538 53.1917 24.6084 53.1917Z" fill="#666666"/>
<path d="M30.0019 53.1917C29.3338 53.1917 28.7645 52.9428 28.2941 52.4451C27.8304 51.9474 27.5986 51.2588 27.5986 50.3793C27.5986 49.4589 27.8441 48.76 28.335 48.2828C28.8258 47.8055 29.4054 47.5669 30.0735 47.5669C31.0689 47.5669 31.7746 48.0714 32.1905 49.0805L31.4439 49.3873C31.1712 48.6714 30.7076 48.3134 30.0531 48.3134C29.6167 48.3134 29.2451 48.4805 28.9383 48.8146C28.6384 49.1487 28.4884 49.6702 28.4884 50.3793C28.4884 51.0338 28.6281 51.5451 28.9077 51.9133C29.194 52.2747 29.569 52.4553 30.0326 52.4553C30.3803 52.4553 30.6667 52.3735 30.8917 52.2099C31.1167 52.0395 31.3144 51.7599 31.4848 51.3713L32.2109 51.6576C31.9791 52.1485 31.6894 52.5269 31.3417 52.7928C30.9939 53.0587 30.5474 53.1917 30.0019 53.1917Z" fill="#666666"/>
<path d="M35.4353 53.1917C34.7536 53.1917 34.1742 52.9462 33.6969 52.4553C33.2264 51.9644 32.9912 51.2724 32.9912 50.3793C32.9912 49.9089 33.0628 49.4895 33.206 49.1214C33.356 48.7464 33.5503 48.4498 33.7889 48.2316C34.0276 48.0135 34.2865 47.8498 34.566 47.7408C34.8526 47.6248 35.1422 47.5669 35.4353 47.5669C36.1105 47.5669 36.6524 47.8089 37.0614 48.293C37.4774 48.7703 37.6855 49.4793 37.6855 50.4202V50.6043H33.8707C33.8843 51.1906 34.0412 51.6508 34.3411 51.9849C34.6478 52.3122 35.0332 52.4758 35.4968 52.4758C35.865 52.4758 36.1717 52.4042 36.4172 52.261C36.6696 52.1179 36.9048 51.8963 37.1228 51.5963L37.6343 52.0463C37.1025 52.8099 36.3693 53.1917 35.4353 53.1917ZM33.8911 49.9191H36.8469C36.8126 49.4214 36.6728 49.0293 36.4276 48.743C36.1888 48.4498 35.8546 48.3032 35.4253 48.3032C35.0367 48.3032 34.699 48.4396 34.4126 48.7123C34.1263 48.985 33.9526 49.3873 33.8911 49.9191Z" fill="#666666"/>
<path d="M40.6612 53.1815C40.1908 53.1815 39.7611 53.0996 39.3726 52.936C38.9908 52.7656 38.6841 52.5406 38.4521 52.261L38.984 51.7292C39.4476 52.227 40.0099 52.4758 40.6716 52.4758C41.5373 52.4758 41.9702 52.1929 41.9702 51.627C41.9702 51.3679 41.8612 51.1736 41.6431 51.044C41.4315 50.9077 41.0773 50.7816 40.5794 50.6656C39.9181 50.5088 39.4305 50.3179 39.117 50.093C38.8032 49.8679 38.6466 49.5168 38.6466 49.0396C38.6466 48.6168 38.8171 48.2657 39.1578 47.9862C39.5056 47.7067 39.9659 47.5669 40.5386 47.5669C41.3636 47.5669 42.0521 47.826 42.6043 48.3441L42.1443 48.9271C41.6806 48.4975 41.1588 48.2828 40.5794 48.2828C40.2112 48.2828 39.9352 48.351 39.7511 48.4873C39.5738 48.6237 39.4852 48.7975 39.4852 49.0089C39.4852 49.2475 39.5839 49.4282 39.7819 49.5509C39.9795 49.6736 40.3066 49.7861 40.7634 49.8884C41.118 49.977 41.4008 50.0589 41.6124 50.1338C41.8236 50.202 42.0317 50.3009 42.2361 50.4304C42.4406 50.56 42.5872 50.7202 42.6758 50.9111C42.7713 51.0952 42.8191 51.3236 42.8191 51.5963C42.8191 52.1008 42.6179 52.4928 42.2158 52.7724C41.8133 53.0451 41.2953 53.1815 40.6612 53.1815Z" fill="#666666"/>
<path d="M45.795 53.1815C45.3246 53.1815 44.8949 53.0996 44.5064 52.936C44.1246 52.7656 43.8179 52.5406 43.5859 52.261L44.1178 51.7292C44.5814 52.227 45.1437 52.4758 45.8053 52.4758C46.6711 52.4758 47.104 52.1929 47.104 51.627C47.104 51.3679 46.995 51.1736 46.7769 51.044C46.5653 50.9077 46.2107 50.7816 45.7131 50.6656C45.0518 50.5088 44.5643 50.3179 44.2508 50.093C43.937 49.8679 43.7804 49.5168 43.7804 49.0396C43.7804 48.6168 43.9509 48.2657 44.2916 47.9862C44.6393 47.7067 45.0994 47.5669 45.6724 47.5669C46.4974 47.5669 47.1858 47.826 47.7381 48.3441L47.2777 48.9271C46.8141 48.4975 46.2926 48.2828 45.7131 48.2828C45.345 48.2828 45.069 48.351 44.8849 48.4873C44.7076 48.6237 44.619 48.7975 44.619 49.0089C44.619 49.2475 44.7176 49.4282 44.9153 49.5509C45.1133 49.6736 45.4404 49.7861 45.8972 49.8884C46.2518 49.977 46.5346 50.0589 46.7462 50.1338C46.9574 50.202 47.1655 50.3009 47.3699 50.4304C47.5744 50.56 47.721 50.7202 47.8096 50.9111C47.9051 51.0952 47.9529 51.3236 47.9529 51.5963C47.9529 52.1008 47.7517 52.4928 47.3496 52.7724C46.9471 53.0451 46.4291 53.1815 45.795 53.1815Z" fill="#666666"/>
<path d="M51.881 46.7122C52.6397 46.7122 53.2081 46.8576 53.586 47.1483C53.9642 47.439 54.1531 47.8911 54.1531 48.5046C54.1531 48.8186 54.102 49.0977 54.0004 49.3419C53.9014 49.5832 53.752 49.7868 53.5514 49.9525C53.3505 50.1182 53.0991 50.2432 52.7969 50.3275C52.4973 50.4118 52.1469 50.454 51.7458 50.454H50.7645V53.0881H50.3154V46.7122H51.881ZM51.8331 47.109H50.7645V50.0571H51.7021C52.1149 50.0571 52.4698 50.0106 52.7662 49.9176C53.0628 49.8216 53.2909 49.6617 53.4508 49.4379C53.6109 49.214 53.6908 48.9087 53.6908 48.522C53.6908 48.0307 53.5397 47.6731 53.2372 47.4492C52.9347 47.2224 52.4669 47.109 51.8331 47.109ZM56.8659 48.256C57.27 48.256 57.6058 48.3505 57.8734 48.5395C58.1439 48.7285 58.3445 48.9872 58.4752 49.3158C58.6091 49.6443 58.6758 50.0208 58.6758 50.4453V50.7636H55.2525C55.2525 51.4149 55.402 51.915 55.7015 52.2638C56.004 52.6127 56.4356 52.7872 56.997 52.7872C57.2904 52.7872 57.545 52.7639 57.7602 52.7174C57.9779 52.668 58.2193 52.5851 58.4839 52.4688V52.8744C58.2513 52.9791 58.0187 53.0547 57.786 53.1012C57.5534 53.1506 57.2862 53.1753 56.9837 53.1753C56.5039 53.1753 56.1014 53.0765 55.7756 52.8788C55.4531 52.6781 55.2088 52.3961 55.0432 52.0327C54.8801 51.6693 54.7989 51.2448 54.7989 50.7593C54.7989 50.2854 54.8772 49.8594 55.0344 49.4815C55.1943 49.1035 55.4269 48.8055 55.732 48.5875C56.0403 48.3665 56.4182 48.256 56.8659 48.256ZM56.8617 48.6354C56.4081 48.6354 56.0403 48.7866 55.7582 49.089C55.4793 49.3884 55.3149 49.8216 55.2654 50.3886H58.218C58.218 50.0426 58.1685 49.7373 58.0698 49.4727C57.9708 49.2082 57.821 49.0032 57.6204 48.8578C57.4227 48.7096 57.1697 48.6354 56.8617 48.6354ZM63.5562 50.7113C63.5562 51.0776 63.5112 51.412 63.421 51.7143C63.331 52.0138 63.1971 52.2726 63.0198 52.4906C62.8425 52.7087 62.6215 52.8773 62.3569 52.9965C62.0951 53.1157 61.79 53.1753 61.441 53.1753C61.1097 53.1753 60.8146 53.1172 60.5558 53.0009C60.297 52.8817 60.0776 52.713 59.8974 52.495C59.7198 52.2769 59.5849 52.0182 59.4917 51.7187C59.3985 51.4163 59.3523 51.0805 59.3523 50.7113C59.3523 50.2025 59.4364 49.7649 59.6049 49.3986C59.7767 49.0294 60.021 48.7474 60.3377 48.5526C60.6577 48.3548 61.0398 48.256 61.4846 48.256C61.944 48.256 62.3265 48.3607 62.6315 48.57C62.9399 48.7764 63.1709 49.0642 63.3252 49.4335C63.4792 49.8027 63.5562 50.2287 63.5562 50.7113ZM59.8058 50.7113C59.8058 51.127 59.8654 51.4905 59.9844 51.8016C60.1038 52.1126 60.284 52.3554 60.5254 52.5299C60.7696 52.7043 61.0776 52.7915 61.4497 52.7915C61.8308 52.7915 62.1433 52.7043 62.3876 52.5299C62.6315 52.3554 62.8121 52.1112 62.9282 51.7972C63.0444 51.4832 63.1026 51.1212 63.1026 50.7113C63.1026 50.313 63.0473 49.9583 62.937 49.6472C62.8263 49.3361 62.6519 49.0919 62.4135 48.9145C62.1754 48.7343 61.8641 48.6441 61.4804 48.6441C60.9308 48.6441 60.5137 48.8273 60.2287 49.1936C59.9466 49.56 59.8058 50.0659 59.8058 50.7113ZM66.6093 48.256C67.2198 48.256 67.6922 48.461 68.0267 48.8709C68.3638 49.2809 68.5327 49.8856 68.5327 50.6851C68.5327 51.2201 68.4525 51.6736 68.2927 52.0458C68.1328 52.415 67.9044 52.6956 67.6081 52.8875C67.3143 53.0793 66.961 53.1753 66.5482 53.1753C66.2635 53.1753 66.0147 53.1331 65.8025 53.0488C65.5931 52.9616 65.4188 52.8453 65.2793 52.6999C65.1395 52.5517 65.0321 52.3889 64.9564 52.2115H64.926C64.9348 52.3772 64.9419 52.5502 64.9477 52.7305C64.9535 52.9107 64.9564 53.0808 64.9564 53.2407V55.1857H64.5116V48.3476H64.8781L64.9302 49.294H64.9564C65.035 49.1137 65.1454 48.9436 65.288 48.7837C65.4304 48.6238 65.6106 48.4959 65.8287 48.3999C66.0467 48.304 66.3068 48.256 66.6093 48.256ZM66.5527 48.6441C66.1949 48.6441 65.8969 48.7226 65.6585 48.8796C65.423 49.0337 65.2473 49.2605 65.1308 49.56C65.0176 49.8565 64.9593 50.22 64.9564 50.6503V50.7244C64.9564 51.1867 65.013 51.5719 65.1266 51.8801C65.2428 52.1853 65.4158 52.4136 65.6455 52.5647C65.8782 52.7159 66.1661 52.7915 66.509 52.7915C66.8462 52.7915 67.1312 52.7087 67.3638 52.5429C67.5964 52.3772 67.7737 52.1374 67.8957 51.8234C68.018 51.5094 68.0791 51.1285 68.0791 50.6808C68.0791 50.015 67.951 49.5091 67.6951 49.1631C67.4424 48.8171 67.0613 48.6441 66.5527 48.6441ZM69.9197 53.0881H69.4748V46.3022H69.9197V53.0881ZM72.9337 48.256C73.3378 48.256 73.6736 48.3505 73.9408 48.5395C74.2113 48.7285 74.4119 48.9872 74.5429 49.3158C74.6765 49.6443 74.7435 50.0208 74.7435 50.4453V50.7636H71.3199C71.3199 51.4149 71.4697 51.915 71.7693 52.2638C72.0715 52.6127 72.5034 52.7872 73.0644 52.7872C73.3582 52.7872 73.6125 52.7639 73.8276 52.7174C74.0457 52.668 74.287 52.5851 74.5517 52.4688V52.8744C74.319 52.9791 74.0864 53.0547 73.8538 53.1012C73.6212 53.1506 73.3536 53.1753 73.0515 53.1753C72.5717 53.1753 72.1689 53.0765 71.8434 52.8788C71.5205 52.6781 71.2763 52.3961 71.1106 52.0327C70.9479 51.6693 70.8663 51.2448 70.8663 50.7593C70.8663 50.2854 70.945 49.8594 71.1019 49.4815C71.2617 49.1035 71.4943 48.8055 71.7997 48.5875C72.108 48.3665 72.4859 48.256 72.9337 48.256ZM72.9292 48.6354C72.4756 48.6354 72.108 48.7866 71.8259 49.089C71.5467 49.3884 71.3824 49.8216 71.3332 50.3886H74.2854C74.2854 50.0426 74.2362 49.7373 74.1372 49.4727C74.0385 49.2082 73.8888 49.0032 73.6882 48.8578C73.4905 48.7096 73.2375 48.6354 72.9292 48.6354ZM80.4263 53.0881H79.9769V49.9481H76.2528V53.0881H75.8034V46.7122H76.2528V49.5382H79.9769V46.7122H80.4263V53.0881ZM83.4225 46.7122C83.9285 46.7122 84.3501 46.7674 84.6875 46.8779C85.0275 46.9884 85.2835 47.1701 85.4549 47.423C85.6264 47.676 85.7121 48.0176 85.7121 48.4479C85.7121 48.7706 85.6526 49.0483 85.5335 49.2809C85.4171 49.5106 85.2556 49.6995 85.0492 49.8478C84.8428 49.9961 84.6044 50.1095 84.3342 50.188L86.0829 53.0881H85.551L83.9068 50.3144H82.3238V53.0881H81.8744V46.7122H83.4225ZM83.3792 47.109H82.3238V49.9176H83.5927C84.1133 49.9176 84.5186 49.7925 84.8095 49.5425C85.1033 49.2925 85.2498 48.9334 85.2498 48.4653C85.2498 47.9507 85.0958 47.596 84.7878 47.4012C84.4795 47.2064 84.01 47.109 83.3792 47.109Z" fill="#9B9B9A"/>
<path d="M96.4656 49.1881H89.8566C88.7003 49.1881 87.7627 48.2505 87.7627 47.094C87.7627 45.9375 88.7003 45 89.8566 45H96.4656C97.6223 45 98.5595 45.9375 98.5595 47.094C98.5595 48.2505 97.6223 49.1881 96.4656 49.1881Z" fill="#E5173F"/>
<path d="M96.4657 48.6477H92.0161C91.1578 48.6477 90.4619 47.9519 90.4619 47.0937C90.4619 46.2354 91.1578 45.5396 92.0161 45.5396H96.4657C97.324 45.5396 98.0196 46.2354 98.0196 47.0937C98.0196 47.9519 97.324 48.6477 96.4657 48.6477Z" fill="white"/>
<path d="M93.7852 47.6944L93.1543 46.0229H93.7671L94.2685 47.4444L94.7723 46.0229H95.3824L94.5759 48.1657H93.9631L93.7852 47.6944Z" fill="#1E1E1E"/>
<path d="M97.4744 47.0991C97.4744 47.6935 96.9923 48.1752 96.3983 48.1752C95.804 48.1752 95.3223 47.6935 95.3223 47.0991C95.3223 46.5047 95.8037 46.0229 96.3983 46.0229C96.9926 46.0229 97.4744 46.5047 97.4744 47.0991Z" fill="#1E1E1E"/>
<path d="M92.1884 47.7066C92.2993 47.7066 92.4022 47.6848 92.4967 47.6415C92.5915 47.5981 92.6581 47.5543 92.6963 47.5102L92.7581 47.4441L93.0632 47.8368L93.0237 47.8764C93.0059 47.8942 92.9681 47.9242 92.9095 47.9671C92.851 48.0097 92.7895 48.0477 92.7238 48.0813C92.6585 48.1147 92.5734 48.1443 92.4689 48.1698C92.3644 48.1955 92.2563 48.2083 92.1457 48.2083C91.8312 48.2083 91.563 48.0991 91.341 47.8808C91.1191 47.6624 91.0078 47.4001 91.0078 47.0944C91.0078 46.7886 91.1175 46.5263 91.3365 46.308C91.5555 46.0896 91.8179 45.9805 92.124 45.9805C92.43 45.9805 92.6847 46.0826 92.8878 46.2867C93.0913 46.4907 93.1929 46.7458 93.1929 47.0518L93.1719 47.2907H91.6203C91.6432 47.4074 91.705 47.506 91.806 47.5864C91.9069 47.6668 92.0344 47.707 92.188 47.707M91.8053 46.5924C91.718 46.6649 91.6565 46.7596 91.6209 46.8762H92.6048C92.5818 46.7625 92.5274 46.6684 92.4414 46.5946C92.3553 46.5206 92.2495 46.4837 92.1243 46.4837C91.9991 46.4837 91.893 46.52 91.8056 46.5924" fill="#1E1E1E"/>
<path d="M96.9489 47.099C96.9489 47.403 96.7024 47.6497 96.3983 47.6497C96.0939 47.6497 95.8477 47.4033 95.8477 47.099C95.8477 46.7948 96.0939 46.5483 96.3983 46.5483C96.7024 46.5483 96.9489 46.7948 96.9489 47.099Z" fill="white"/>
</g>
</g>
<defs>
<clipPath id="clip0_15397_208512">
<rect width="97.0588" height="11" fill="white" transform="translate(1.4707 45)"/>
</clipPath>
</defs>
</svg>
