<svg width="100" height="100" viewBox="0 0 100 100" fill="none" xmlns="http://www.w3.org/2000/svg">
<g clip-path="url(#clip0_15397_208517)">
<path d="M0 0H100V100H0V0Z" fill="#E30613"/>
<path d="M31.5625 81.5625C13.9531 81.5625 0 67.275 0 50C0 32.3906 14.2859 18.4375 31.5625 18.4375H68.4375C86.0469 18.4375 100 32.725 100 50C100 67.6094 85.7141 81.5625 68.4375 81.5625H31.5625ZM67.775 70.2656C79.0719 70.2656 88.3734 60.9641 88.3734 49.6672C88.3734 38.3703 79.0719 29.0687 67.775 29.0687H32.5578C21.2609 29.0687 11.9594 38.3703 11.9594 49.6672C11.9594 60.9641 21.2625 70.2656 32.5578 70.2656H67.775Z" fill="white"/>
</g>
<defs>
<clipPath id="clip0_15397_208517">
<rect width="100" height="100" fill="white"/>
</clipPath>
</defs>
</svg>
