<svg width="100" height="100" viewBox="0 0 100 100" fill="none" xmlns="http://www.w3.org/2000/svg">
<g clip-path="url(#clip0_15910_61485)">
<path d="M24.2074 35.695C24.211 35.6231 24.2421 35.5554 24.2943 35.5058C24.3464 35.4562 24.4157 35.4286 24.4877 35.4287H30.5896C30.6609 35.433 30.728 35.4644 30.777 35.5165C30.826 35.5686 30.8532 35.6375 30.853 35.709V65.3048C30.853 65.3746 30.8253 65.4416 30.7759 65.4911C30.7265 65.5405 30.6594 65.5682 30.5896 65.5682H24.4736C24.4021 65.5683 24.3333 65.5411 24.2812 65.4922C24.2291 65.4432 24.1977 65.3761 24.1934 65.3048L24.2074 35.695Z" fill="#24303A"/>
<path d="M12.1416 46.2254C12.1459 46.154 12.1773 46.087 12.2294 46.038C12.2815 45.989 12.3503 45.9618 12.4219 45.9619H18.5013C18.5699 45.9659 18.6346 45.995 18.6832 46.0435C18.7318 46.0921 18.7608 46.1568 18.7648 46.2254V65.2851C18.7648 65.3549 18.737 65.422 18.6876 65.4714C18.6382 65.5208 18.5712 65.5485 18.5013 65.5485H12.3994C12.3279 65.5487 12.2591 65.5215 12.207 65.4725C12.1548 65.4235 12.1234 65.3564 12.1191 65.2851L12.1416 46.2254Z" fill="#62B9E9"/>
<path d="M0.369141 56.0384C0.369141 55.9685 0.396899 55.9015 0.44631 55.8521C0.49572 55.8027 0.562735 55.7749 0.632613 55.7749H6.73451C6.80358 55.7782 6.86897 55.807 6.91813 55.8556C6.96728 55.9043 6.99672 55.9693 7.00079 56.0384V65.3047C6.99672 65.3738 6.96728 65.4389 6.91813 65.4875C6.86897 65.5361 6.80358 65.5649 6.73451 65.5682H0.632613C0.562735 65.5682 0.49572 65.5405 0.44631 65.491C0.396899 65.4416 0.369141 65.3746 0.369141 65.3047V56.0384Z" fill="#D70826"/>
<path d="M65.8535 35.6951C65.8535 35.6252 65.8813 35.5582 65.9307 35.5088C65.9801 35.4594 66.0471 35.4316 66.117 35.4316H72.2189C72.2888 35.4316 72.3558 35.4594 72.4052 35.5088C72.4546 35.5582 72.4824 35.6252 72.4824 35.6951V65.3049C72.4824 65.3748 72.4546 65.4418 72.4052 65.4912C72.3558 65.5406 72.2888 65.5684 72.2189 65.5684H66.117C66.0471 65.5684 65.9801 65.5406 65.9307 65.4912C65.8813 65.4418 65.8535 65.3748 65.8535 65.3049V35.6951Z" fill="#24303A"/>
<path d="M62.1839 65.3525L54.972 54.8052C58.8008 53.3842 61.4187 50.3206 61.4187 45.4632V45.3707C61.4187 42.5286 60.5162 40.1601 58.8372 38.4812C56.864 36.508 53.9041 35.4316 50.0614 35.4316H36.5486C36.4788 35.4316 36.4117 35.4594 36.3623 35.5088C36.3129 35.5582 36.2852 35.6252 36.2852 35.6951V65.3049C36.2852 65.3748 36.3129 65.4418 36.3623 65.4912C36.4117 65.5406 36.4788 65.5684 36.5486 65.5684H42.6505C42.7204 65.5684 42.7874 65.5406 42.8368 65.4912C42.8862 65.4418 42.914 65.3748 42.914 65.3049V55.9236H48.1246L54.5712 65.5684H62.0578C62.2147 65.5684 62.2652 65.4703 62.1839 65.3525ZM42.9392 50.0683L42.9729 41.4158H49.498C52.7297 41.4158 54.7086 42.8789 54.7086 45.7211V45.808C54.7086 48.3474 52.8587 50.0683 49.6297 50.0683H42.9392Z" fill="#24303A"/>
<path d="M90.0618 47.5289C84.8512 46.1948 83.5591 45.5473 83.5591 43.5684V43.4816C83.5591 42.0184 84.8961 40.8552 87.4355 40.8552C89.8236 40.8552 92.2873 41.8447 94.7903 43.5012L95.0958 43.7058C95.1484 43.7252 95.2057 43.7284 95.2602 43.7149C95.3147 43.7014 95.3638 43.6719 95.4013 43.6301L98.605 38.9969C98.6288 38.9522 98.6381 38.9012 98.6316 38.851C98.625 38.8007 98.603 38.7538 98.5686 38.7166C98.4761 38.6522 98.3864 38.5765 98.2883 38.5092L98.2603 38.4896C95.3004 36.2501 91.7099 35 87.5392 35C81.3728 35 76.9891 38.6157 76.9891 44.0842V44.1711C76.9891 50.1552 80.9132 51.8342 86.9786 53.3842C92.0238 54.6763 93.0497 55.5368 93.0497 57.2157V57.3026C93.0497 59.0684 91.4128 60.1448 88.6996 60.1448C85.4034 60.1448 82.6594 58.8386 80.0499 56.7645L79.8705 56.6215C79.8208 56.5951 79.764 56.5855 79.7084 56.5941C79.6528 56.6027 79.6015 56.629 79.5622 56.6692L75.9184 61.0052C75.8894 61.0504 75.874 61.1029 75.874 61.1566C75.874 61.2103 75.8894 61.2628 75.9184 61.308L76.1987 61.5518C79.6644 64.4381 84.0353 66.0128 88.5454 66C95.0482 66 99.6113 62.6365 99.6113 56.658V56.5823C99.6309 51.3184 96.1861 49.121 90.0618 47.5289Z" fill="#24303A"/>
</g>
<defs>
<clipPath id="clip0_15910_61485">
<rect width="99.2617" height="31" fill="white" transform="translate(0.369141 35)"/>
</clipPath>
</defs>
</svg>
