<svg width="100" height="100" viewBox="0 0 100 100" fill="none" xmlns="http://www.w3.org/2000/svg">
<g clip-path="url(#clip0_15397_208521)">
<path d="M6.92255 50.4029C6.6883 50.8714 6.0198 50.8714 5.78555 50.4029L5.2253 49.2826C5.18118 49.1943 5.1582 49.097 5.1582 48.9983C5.1582 48.8996 5.18118 48.8023 5.2253 48.7141L5.78555 47.5936C6.0198 47.1251 6.6883 47.1251 6.92255 47.5936L7.4828 48.7141C7.52694 48.8023 7.54992 48.8996 7.54992 48.9983C7.54992 49.097 7.52694 49.1943 7.4828 49.2826L6.92255 50.4029ZM6.92255 56.7574C6.6883 57.2258 6.0198 57.2258 5.78555 56.7574L5.2253 55.6369C5.18118 55.5487 5.1582 55.4514 5.1582 55.3527C5.1582 55.254 5.18118 55.1567 5.2253 55.0684L5.78555 53.9479C6.0198 53.4794 6.6883 53.4794 6.92255 53.9479L7.4828 55.0684C7.52694 55.1567 7.54992 55.254 7.54992 55.3527C7.54992 55.4514 7.52694 55.5487 7.4828 55.6369L6.92255 56.7574Z" fill="#1D4AFF"/>
<path d="M0 54.3452C0 53.7789 0.684625 53.4952 1.085 53.8957L3.99837 56.809C4.39887 57.2095 4.11525 57.894 3.549 57.894H0.635625C0.46709 57.894 0.305454 57.8271 0.186259 57.708C0.067063 57.5888 6.62871e-05 57.4272 0 57.2587L0 54.3452ZM0 51.2764C0 51.4452 0.067 51.6068 0.18625 51.7259L6.16825 57.7079C6.28743 57.8271 6.44907 57.8941 6.61763 57.8942H9.90337C10.4696 57.8942 10.7533 57.2095 10.3527 56.809L1.08512 47.5413C0.684625 47.1409 0 47.4245 0 47.9908V51.2765V51.2764ZM0 44.9222C0 45.0907 0.067 45.2524 0.18625 45.3715L12.5225 57.7079C12.6417 57.8272 12.8034 57.8941 12.972 57.8942H16.2576C16.8239 57.8942 17.1076 57.2095 16.7071 56.809L1.08512 41.187C0.684625 40.7865 0 41.0702 0 41.6364V44.9222ZM6.35437 44.9222C6.35437 45.0907 6.42138 45.2524 6.54063 45.3715L17.9781 56.809C18.3785 57.2095 19.0631 56.9259 19.0631 56.3595V53.0739C19.0631 52.9053 18.9961 52.7436 18.8769 52.6244L7.43937 41.1869C7.039 40.7865 6.35437 41.0702 6.35437 41.6364V44.9222ZM13.7937 41.187C13.3934 40.7865 12.7087 41.0702 12.7087 41.6364V44.9222C12.7087 45.0907 12.7758 45.2524 12.895 45.3715L17.978 50.4547C18.3785 50.8552 19.063 50.5715 19.063 50.0052V46.7195C19.063 46.551 18.9961 46.3893 18.8769 46.27L13.7937 41.187Z" fill="#F9BD2B"/>
<path d="M27.03 54.4233L21.047 48.4404C20.6465 48.0399 19.9619 48.3235 19.9619 48.8898V57.2588C19.9619 57.4274 20.0289 57.589 20.1481 57.7083C20.2673 57.8275 20.429 57.8944 20.5975 57.8944H29.8653C30.0339 57.8944 30.1955 57.8275 30.3147 57.7083C30.4339 57.589 30.5009 57.4274 30.5009 57.2588V56.4967C30.5009 56.1455 30.2152 55.8652 29.8672 55.8199C28.7932 55.6801 27.7957 55.1891 27.0299 54.4233H27.03ZM23.0119 55.861C22.7423 55.8609 22.4838 55.7537 22.2932 55.5631C22.1025 55.3724 21.9954 55.1139 21.9953 54.8443C21.9954 54.5747 22.1025 54.3162 22.2932 54.1255C22.4838 53.9348 22.7423 53.8277 23.0119 53.8275C23.2815 53.8276 23.5401 53.9348 23.7308 54.1255C23.9214 54.3161 24.0286 54.5747 24.0287 54.8443C24.0286 55.1139 23.9214 55.3725 23.7308 55.5631C23.5401 55.7538 23.2815 55.8609 23.0119 55.861Z" fill="black"/>
<path d="M0 57.259C0 57.4276 0.0669674 57.5892 0.18617 57.7084C0.305373 57.8277 0.467047 57.8946 0.635625 57.8946H3.549C4.11525 57.8946 4.39887 57.21 3.99837 56.8095L1.08512 53.8961C0.684625 53.4957 0 53.7794 0 54.3456V57.259ZM6.35437 46.4567L1.085 41.1875C0.684625 40.787 0 41.0706 0 41.6369V44.9226C0 45.0911 0.067 45.2529 0.18625 45.372L6.35437 51.5402V46.4567ZM1.085 47.5417C0.684625 47.1414 0 47.425 0 47.9912V51.277C0 51.4455 0.067 51.6072 0.18625 51.7264L6.35437 57.8946V52.8111L1.085 47.5417Z" fill="#1D4AFF"/>
<path d="M12.7089 46.72C12.7089 46.6365 12.6924 46.5538 12.6605 46.4767C12.6285 46.3996 12.5817 46.3295 12.5226 46.2705L7.43962 41.1875C7.03912 40.787 6.35449 41.0706 6.35449 41.6369V44.9226C6.35449 45.0911 6.42149 45.2529 6.54074 45.372L12.7089 51.5402V46.72ZM6.35449 57.8946H9.90349C10.4697 57.8946 10.7534 57.21 10.3529 56.8095L6.35449 52.8111V57.8946ZM6.35449 46.4567V51.277C6.35449 51.4455 6.42149 51.6072 6.54074 51.7264L12.7089 57.8946V53.0744C12.7089 52.9909 12.6924 52.9082 12.6605 52.8311C12.6285 52.754 12.5817 52.6839 12.5226 52.6249L6.35449 46.4567Z" fill="#F54E00"/>
<path d="M37.915 55.3571H40.526V51.0271H42.7075C45.1038 51.0271 46.6408 49.6058 46.6408 47.4078C46.6408 45.2098 45.1039 43.7886 42.7075 43.7886H37.915V55.3569V55.3571ZM40.526 48.7961V46.0196H42.4432C43.4347 46.0196 44.0297 46.5483 44.0297 47.4077C44.0297 48.2672 43.4347 48.7959 42.4432 48.7959H40.526V48.7961ZM51.3648 55.4892C53.9098 55.4892 55.7607 53.6713 55.7607 51.1923C55.7607 48.7134 53.9098 46.8956 51.3648 46.8956C48.7867 46.8956 46.9688 48.7134 46.9688 51.1923C46.9688 53.6713 48.7867 55.4892 51.3648 55.4892ZM49.3815 51.1923C49.3815 49.8702 50.1748 48.9613 51.3648 48.9613C52.538 48.9613 53.3314 49.8702 53.3314 51.1923C53.3314 52.5144 52.538 53.4234 51.3648 53.4234C50.1748 53.4234 49.3815 52.5144 49.3815 51.1923ZM59.9393 55.4892C61.8894 55.4892 63.2115 54.2662 63.2115 52.8284C63.2115 49.4572 58.7329 50.5478 58.7329 49.2257C58.7329 48.8622 59.1129 48.6308 59.6584 48.6308C60.2203 48.6308 60.8979 48.9778 61.1127 49.7381L63.0628 48.9282C62.6828 47.7219 61.2779 46.8956 59.5758 46.8956C57.7413 46.8956 56.601 47.9862 56.601 49.2918C56.601 52.4483 61.0135 51.5724 61.0135 52.8781C61.0135 53.3408 60.5839 53.6548 59.9393 53.6548C59.0139 53.6548 58.3693 53.0103 58.171 52.2336L56.2209 52.9937C56.6507 54.2497 57.9067 55.4892 59.9393 55.4892ZM69.493 55.2744L69.3279 53.1756C69.0469 53.3243 68.6833 53.3738 68.3859 53.3738C67.7909 53.3738 67.3943 52.9442 67.3943 52.2004V49.0439H69.4105V47.0277H67.3943V44.6149H64.9649V47.0277H63.6428V49.0439H64.9649V52.5145C64.9649 54.5307 66.3367 55.4892 68.1379 55.4892C68.6338 55.4892 69.0965 55.4067 69.4932 55.2744H69.493ZM77.9635 43.7886V48.2837H73.3692V43.7887H70.7579V55.3569H73.3692V50.5148H77.9635V55.3569H80.5912V43.7886H77.9635ZM86.3868 55.4892C88.9318 55.4892 90.7828 53.6713 90.7828 51.1923C90.7828 48.7134 88.9319 46.8956 86.3868 46.8956C83.8087 46.8956 81.9908 48.7134 81.9908 51.1923C81.9908 53.6713 83.8087 55.4892 86.3868 55.4892ZM84.4038 51.1923C84.4038 49.8702 85.197 48.9613 86.3869 48.9613C87.5603 48.9613 88.3535 49.8702 88.3535 51.1923C88.3535 52.5144 87.5603 53.4234 86.3869 53.4234C85.197 53.4234 84.4038 52.5144 84.4038 51.1923ZM95.4719 55.0926C96.3809 55.0926 97.1907 54.7786 97.6204 54.2332V55.0264C97.6204 55.9519 96.8767 56.5964 95.7364 56.5964C94.9265 56.5964 94.2159 56.1998 94.1002 55.5222L91.8858 55.8693C92.1833 57.4393 93.7863 58.4971 95.7364 58.4971C98.2979 58.4971 100 56.9931 100 54.7621V47.0277H97.6039V47.7383C97.1577 47.2261 96.3974 46.8956 95.4224 46.8956C93.1087 46.8956 91.6544 48.4821 91.6544 50.9941C91.6544 53.5061 93.1087 55.0926 95.4719 55.0926ZM94.0175 50.9941C94.0175 49.7546 94.7447 48.9613 95.8684 48.9613C97.0088 48.9613 97.7359 49.7546 97.7359 50.9941C97.7359 52.2336 97.0088 53.0268 95.8684 53.0268C94.7447 53.0268 94.0175 52.2336 94.0175 50.9941Z" fill="black"/>
</g>
<defs>
<clipPath id="clip0_15397_208521">
<rect width="100" height="17.5" fill="white" transform="translate(0 41)"/>
</clipPath>
</defs>
</svg>
