<svg width="101" height="101" viewBox="0 0 101 101" fill="none" xmlns="http://www.w3.org/2000/svg">
<path d="M50 100C77.6142 100 100 77.6142 100 50C100 22.3858 77.6142 0 50 0C22.3858 0 0 22.3858 0 50C0 77.6142 22.3858 100 50 100Z" fill="#F4B960"/>
<path d="M45.1977 90.3955C70.1598 90.3955 90.3955 70.1598 90.3955 45.1977C90.3955 20.2357 70.1598 0 45.1977 0C20.2357 0 0 20.2357 0 45.1977C0 70.1598 20.2357 90.3955 45.1977 90.3955Z" fill="#E66F32"/>
<path d="M50.8473 77.9661C72.3771 77.9661 89.8304 60.5128 89.8304 38.9831C89.8304 17.4533 72.3771 0 50.8473 0C29.3176 0 11.8643 17.4533 11.8643 38.9831C11.8643 60.5128 29.3176 77.9661 50.8473 77.9661Z" fill="#E43C41"/>
<path d="M53.9548 77.9661C73.7684 77.9661 89.8305 61.904 89.8305 42.0904C89.8305 22.2768 73.7684 6.21469 53.9548 6.21469C34.1412 6.21469 18.0791 22.2768 18.0791 42.0904C18.0791 61.904 34.1412 77.9661 53.9548 77.9661Z" fill="#BDD041"/>
<path d="M51.4124 77.9661C69.8219 77.9661 84.7458 63.0423 84.7458 44.6328C84.7458 26.2233 69.8219 11.2994 51.4124 11.2994C33.0029 11.2994 18.0791 26.2233 18.0791 44.6328C18.0791 63.0423 33.0029 77.9661 51.4124 77.9661Z" fill="#6DB54C"/>
<path d="M46.0452 67.7966C61.4905 67.7966 74.0113 55.2758 74.0113 39.8305C74.0113 24.3853 61.4905 11.8644 46.0452 11.8644C30.6 11.8644 18.0791 24.3853 18.0791 39.8305C18.0791 55.2758 30.6 67.7966 46.0452 67.7966Z" fill="#AEDAE6"/>
<path d="M51.1299 58.1921C64.079 58.1921 74.5762 47.6948 74.5762 34.7458C74.5762 21.7967 64.079 11.2994 51.1299 11.2994C38.1809 11.2994 27.6836 21.7967 27.6836 34.7458C27.6836 47.6948 38.1809 58.1921 51.1299 58.1921Z" fill="#56B8DE"/>
<path d="M53.9545 58.7571C65.3434 58.7571 74.5759 49.5245 74.5759 38.1356C74.5759 26.7467 65.3434 17.5141 53.9545 17.5141C42.5656 17.5141 33.333 26.7467 33.333 38.1356C33.333 49.5245 42.5656 58.7571 53.9545 58.7571Z" fill="#00B1D5"/>
<path d="M50.8471 58.1921C60.5199 58.1921 68.3613 50.3508 68.3613 40.678C68.3613 31.0052 60.5199 23.1638 50.8471 23.1638C41.1743 23.1638 33.333 31.0052 33.333 40.678C33.333 50.3508 41.1743 58.1921 50.8471 58.1921Z" fill="url(#paint0_radial_15381_206665)"/>
<path d="M50.8471 58.1921C60.5199 58.1921 68.3613 50.3508 68.3613 40.678C68.3613 31.0052 60.5199 23.1638 50.8471 23.1638C41.1743 23.1638 33.333 31.0052 33.333 40.678C33.333 50.3508 41.1743 58.1921 50.8471 58.1921Z" fill="#221F1F"/>
<path d="M60.9313 35.7682C62.154 33.0435 61.7114 30.1914 59.9427 29.3977C58.174 28.604 55.749 30.1693 54.5263 32.8939C53.3037 35.6186 53.7463 38.4707 55.515 39.2644C57.2837 40.0581 59.7087 38.4928 60.9313 35.7682Z" fill="white"/>
<defs>
<radialGradient id="paint0_radial_15381_206665" cx="0" cy="0" r="1" gradientUnits="userSpaceOnUse" gradientTransform="translate(1780.05 1772.68) scale(1748.58)">
<stop stop-color="#797979"/>
<stop offset="1" stop-color="#4C4C4C"/>
</radialGradient>
</defs>
</svg>
