<svg width="100" height="100" viewBox="0 0 100 100" fill="none" xmlns="http://www.w3.org/2000/svg">
<g clip-path="url(#clip0_18000_92053)">
<path d="M100 0H0V100H100V0Z" fill="#E7157B"/>
<path fill-rule="evenodd" clip-rule="evenodd" d="M72.4644 80.0026H80.0042V72.4056H72.4644V80.0026ZM47.4015 80.0026H55.096V72.4056H47.4015V80.0026ZM22.4958 80.0026H30.0881V72.4056H22.4958V80.0026ZM81.2521 69.9082H77.5084V63.6648C77.5084 62.9755 76.9493 62.4161 76.2605 62.4161H52.5503V57.4213H50.0545V62.4161H26.3443C25.653 62.4161 25.0964 62.9755 25.0964 63.6648V69.9082H21.2479C20.5566 69.9082 20 70.4676 20 71.1569V81.2513C20 81.9406 20.5566 82.5 21.2479 82.5H31.336C32.0248 82.5 32.5839 81.9406 32.5839 81.2513V71.1569C32.5839 70.4676 32.0248 69.9082 31.336 69.9082H27.5922V64.9135H50.0545V69.9082H46.1536C45.4647 69.9082 44.9057 70.4676 44.9057 71.1569V81.2513C44.9057 81.9406 45.4647 82.5 46.1536 82.5H56.3439C57.0353 82.5 57.5918 81.9406 57.5918 81.2513V71.1569C57.5918 70.4676 57.0353 69.9082 56.3439 69.9082H52.5503V64.9135H75.0126V69.9082H71.2165C70.5276 69.9082 69.9686 70.4676 69.9686 71.1569V81.2513C69.9686 81.9406 70.5276 82.5 71.2165 82.5H81.2521C81.9409 82.5 82.5 81.9406 82.5 81.2513V71.1569C82.5 70.4676 81.9409 69.9082 81.2521 69.9082ZM51.3423 22.6004L63.3122 27.5577L51.3049 33.5489L39.3675 27.5602L51.3423 22.6004ZM52.5853 51.5999L52.5528 35.7166L65.0693 29.4707V44.1752L52.5853 51.5999ZM37.6154 29.4757L50.057 35.7166L50.0895 51.5949L37.6154 44.1752V29.4757ZM50.7034 54.8665C50.9006 54.9814 51.1227 55.0413 51.3423 55.0413C51.562 55.0413 51.7841 54.9814 51.9813 54.8665L66.9561 45.9609C67.333 45.7361 67.5651 45.3265 67.5651 44.887V27.4528C67.5651 26.9483 67.2606 26.4913 66.7964 26.299L51.8215 20.0955C51.5146 19.9682 51.1726 19.9682 50.8656 20.0955L35.8908 26.299C35.4241 26.4913 35.1196 26.9483 35.1196 27.4528V44.887C35.1196 45.3265 35.3517 45.7361 35.7286 45.9609L50.7034 54.8665Z" fill="white"/>
</g>
<defs>
<clipPath id="clip0_18000_92053">
<rect width="100" height="100" fill="white"/>
</clipPath>
</defs>
</svg>
