<svg width="100" height="100" viewBox="0 0 100 100" fill="none" xmlns="http://www.w3.org/2000/svg">
<g clip-path="url(#clip0_15397_208508)">
<path fill-rule="evenodd" clip-rule="evenodd" d="M13.177 34C21.7592 34 26.0744 38.5919 26.0744 38.5919C26.0744 38.5919 26.5677 41.9908 26.2528 48.8346C25.7771 59.1729 13.18 65.3817 13.179 65.3823C13.1779 65.3829 0.580897 59.1729 0.105094 48.8346C-0.209895 41.9908 0.283574 38.5919 0.283574 38.5919C0.283574 38.5919 4.59482 34 13.177 34Z" fill="#ED2E26"/>
<path fill-rule="evenodd" clip-rule="evenodd" d="M42.2031 55.0425C39.239 55.0425 36.8275 52.631 36.8275 49.6669C36.8275 46.7029 39.239 44.2913 42.2031 44.2913C45.1674 44.2913 47.5788 46.7029 47.5788 49.6669C47.5788 52.631 45.1674 55.0425 42.2031 55.0425ZM42.2031 42.1182C38.0407 42.1182 34.6543 45.5046 34.6543 49.6669C34.6543 52.1865 35.7132 54.4315 37.7164 56.1595C39.5924 57.7776 42.2827 58.8931 45.3888 59.41C45.8329 59.166 46.6729 58.3427 46.9404 57.7788C44.6518 57.3839 43.6023 56.9921 43.6023 56.9921C43.6023 56.9921 43.8953 56.9803 44.4835 56.8153C47.5408 55.9578 49.782 52.938 49.752 49.6669C49.7137 45.5047 46.3656 42.1182 42.2031 42.1182Z" fill="#262626"/>
<mask id="mask0_15397_208508" style="mask-type:luminance" maskUnits="userSpaceOnUse" x="97" y="54" width="3" height="3">
<path d="M99.9883 56.3182V54.001H97.6953V56.3182H99.9883Z" fill="white"/>
</mask>
<g mask="url(#mask0_15397_208508)">
<path fill-rule="evenodd" clip-rule="evenodd" d="M98.6703 54.6818V55.0543H98.8957C98.9609 55.0543 99.0123 55.037 99.0499 55.0028C99.0875 54.9685 99.1062 54.9237 99.1062 54.868C99.1062 54.744 99.0361 54.6818 98.8957 54.6818H98.6703ZM99.3317 54.8585C99.3317 54.9531 99.3062 55.0341 99.2557 55.1007C99.2051 55.1677 99.1358 55.2145 99.0476 55.2406L99.3759 55.755H99.121L98.8221 55.2553H98.6703V55.755H98.4546V54.4808H98.925C99.046 54.4808 99.1438 54.5154 99.2191 54.584C99.2941 54.6525 99.3317 54.744 99.3317 54.8585ZM98.1852 55.8335C98.3551 56.0064 98.5739 56.0931 98.8419 56.0931C99.1097 56.0931 99.3283 56.0064 99.4982 55.8335C99.6681 55.6602 99.7531 55.4348 99.7531 55.1573C99.7531 54.8796 99.6681 54.6549 99.4982 54.4834C99.3283 54.3119 99.1097 54.2261 98.8419 54.2261C98.5739 54.2261 98.3551 54.3119 98.1852 54.4834C98.0153 54.6549 97.9305 54.8796 97.9305 55.1573C97.9305 55.4348 98.0153 55.6602 98.1852 55.8335ZM98.0187 54.3244C98.2342 54.1087 98.5085 54.001 98.8419 54.001C99.175 54.001 99.4493 54.1087 99.665 54.3244C99.8805 54.5397 99.9884 54.8177 99.9884 55.1573C99.9884 55.5001 99.8805 55.7793 99.665 55.9951C99.4493 56.2107 99.175 56.3182 98.8419 56.3182C98.5085 56.3182 98.2342 56.2107 98.0187 55.9951C97.8029 55.7793 97.6953 55.5001 97.6953 55.1573C97.6953 54.8177 97.8029 54.5397 98.0187 54.3244Z" fill="#262626"/>
</g>
<path fill-rule="evenodd" clip-rule="evenodd" d="M83.9493 53.1354L81.3998 46.3701H79.1279L82.8481 55.8134C82.8481 55.8134 81.2023 59.7255 81.203 59.7252C82.2856 59.7252 83.47 59.6487 83.9336 58.5078C85.0204 55.8319 88.8056 46.3701 88.8056 46.3701H86.5332L83.9493 53.1354Z" fill="#262626"/>
<path fill-rule="evenodd" clip-rule="evenodd" d="M75.4277 56.5104C75.4277 56.5104 77.5363 56.4713 77.5363 55.0405V42.189H75.4277V56.5104Z" fill="#262626"/>
<path fill-rule="evenodd" clip-rule="evenodd" d="M67.8953 54.5318C66.6205 54.5318 64.7133 53.681 64.6839 51.3371V51.3203C64.6839 49.4694 66.0494 48.0736 67.8602 48.0736C69.2128 48.0736 70.3117 48.7797 70.803 49.9697C70.9963 50.3721 71.0891 50.8436 71.0718 51.333C71.054 51.8302 70.9428 52.305 70.7482 52.7109C70.2516 53.8511 69.1852 54.5318 67.8953 54.5318ZM71.054 47.7022C70.4668 46.8832 69.3198 46.0884 67.631 46.0884C64.7488 46.0884 62.5752 48.33 62.5752 51.3026C62.5752 52.692 63.0502 53.9831 63.913 54.9382C64.8461 55.9711 66.1317 56.5172 67.631 56.5172C69.0835 56.5172 70.3273 55.9247 71.054 54.9097V56.5104C71.054 56.5104 73.1627 56.477 73.1627 55.0417V46.3703H71.054V47.7022Z" fill="#262626"/>
<path fill-rule="evenodd" clip-rule="evenodd" d="M58.7333 51.8666C58.7333 53.5694 57.8489 54.5159 56.2447 54.5317C54.6175 54.5317 53.8263 53.608 53.8263 51.708V46.3701H51.7178V52.131C51.7178 52.9625 51.8578 54.1484 52.5258 55.076C53.2084 56.0239 54.2874 56.5087 55.732 56.517C55.7517 56.5172 55.7715 56.5173 55.7912 56.5173C57.5189 56.5173 58.4088 55.734 58.8391 55.1254V56.5103C58.8391 56.5103 60.842 56.4761 60.842 55.1119V46.3701H58.7333V51.8666Z" fill="#262626"/>
<path fill-rule="evenodd" clip-rule="evenodd" d="M93.8607 50.3776C92.765 49.9039 91.9682 49.4943 91.9822 48.8588C91.9915 48.4384 92.5453 48.0358 93.1211 48.0557C93.7373 48.0769 94.1942 48.502 94.4492 48.8419C94.4492 48.8419 95.6013 47.8572 95.7407 47.7518C95.1439 46.7637 94.1302 46.2074 92.9931 46.1824C91.3716 46.1467 90.0238 47.4187 89.9885 49.0177C89.958 50.4028 90.7694 50.9746 91.8333 51.578L93.5846 52.5626C93.9885 52.8451 94.1792 53.0561 94.1696 53.4907C94.1546 54.1719 93.585 54.6134 92.8471 54.6571C92.3044 54.6891 91.8587 54.3753 91.4363 53.9333C90.6144 53.0732 89.3528 53.4867 88.9668 53.611C89.7695 55.4568 91.288 56.5316 92.8051 56.5651C94.7155 56.6072 96.2438 55.1971 96.2845 53.355C96.3038 52.4682 95.9152 51.3667 93.8607 50.3776Z" fill="#262626"/>
<path fill-rule="evenodd" clip-rule="evenodd" d="M6.73725 47.5899C6.73725 43.9344 9.62708 40.9605 13.1791 40.9605C16.7341 40.9605 19.6263 43.8527 19.6263 47.4076C19.6263 50.2457 17.1867 52.5807 15.3064 53.7805C16.0359 54.1967 17.6457 54.6338 19.187 54.775C21.4378 53.0331 22.8105 50.3405 22.8105 47.4076C22.8105 42.0969 18.4899 37.7764 13.1791 37.7764C7.86841 37.7764 3.54785 42.0969 3.54785 47.4076C3.54785 50.6151 4.8834 53.4645 7.40995 55.648C9.77216 57.6892 13.2275 59.0517 17.1617 59.6968C18.014 59.2258 19.4717 57.8353 20.0184 57.0212C16.7326 56.5986 13.623 55.7974 11.5384 54.7038C8.35267 53.0327 6.73725 50.6391 6.73725 47.5899Z" fill="white"/>
</g>
<defs>
<clipPath id="clip0_15397_208508">
<rect width="100" height="31.4775" fill="white" transform="translate(0 34)"/>
</clipPath>
</defs>
</svg>
