<svg width="100" height="100" viewBox="0 0 100 100" fill="none" xmlns="http://www.w3.org/2000/svg">
<g clip-path="url(#clip0_15910_61466)">
<g clip-path="url(#clip1_15910_61466)">
<mask id="mask0_15910_61466" style="mask-type:luminance" maskUnits="userSpaceOnUse" x="11" y="0" width="357" height="100">
<path d="M367.1 0H11.0029V100H367.1V0Z" fill="white"/>
</mask>
<g mask="url(#mask0_15910_61466)">
<path d="M58.9385 61.3365C61.1506 61.3365 62.9358 63.126 62.9358 65.3431V82.6949C62.9358 84.9123 61.1506 86.7018 58.9385 86.7018H15.0002C12.7882 86.7018 11.0029 84.9123 11.0029 82.6949V38.6476C11.0029 36.4305 12.7882 34.641 15.0002 34.641H32.3111C34.5231 34.641 36.3084 36.4305 36.3084 38.6476V58.6705C36.3084 60.1365 37.5056 61.3418 38.9732 61.3418H58.949L58.9385 61.3365Z" fill="#51A9E3"/>
<path d="M40.0665 34.8808H60.0423C61.5049 34.8808 62.7073 36.0808 62.7073 37.5521V57.575C62.7073 59.7921 64.4925 61.5816 66.7044 61.5816H84.0154C86.2273 61.5816 88.0125 59.7921 88.0125 57.575V13.5224C88.0125 11.3052 86.2273 9.51575 84.0154 9.51575H40.0665C37.8546 9.51575 36.0693 11.3052 36.0693 13.5224V30.8742C36.0693 33.0916 37.8546 34.8808 40.0665 34.8808Z" fill="#51A9E3"/>
</g>
</g>
</g>
<defs>
<clipPath id="clip0_15910_61466">
<rect width="78.9474" height="100" fill="white" transform="translate(11)"/>
</clipPath>
<clipPath id="clip1_15910_61466">
<rect width="78.9474" height="100" fill="white" transform="translate(11.001)"/>
</clipPath>
</defs>
</svg>
