<svg width="100" height="100" viewBox="0 0 100 100" fill="none" xmlns="http://www.w3.org/2000/svg">
<path d="M21.6992 50.832C22.5293 49.9922 22.9785 48.8594 22.959 47.6875C22.9785 46.6914 22.6074 45.7246 21.9141 45.0117C20.4102 43.5078 17.793 43.2832 14.668 43.2832H7.88086V59.0449C7.88086 59.1914 7.99805 59.3184 8.1543 59.3184H11.582V52.8242C11.582 52.8242 13.1445 52.8633 14.1211 52.8633C16.6113 52.873 19.7852 52.7656 21.6992 50.832ZM11.582 51.6133V44.543C12.2168 44.4844 12.8516 44.4648 13.4863 44.4844C15.498 44.4844 19.1992 44.7578 19.1992 47.9414C19.1992 51.2715 15.7617 51.6621 13.2324 51.6621C12.2559 51.6621 11.582 51.6133 11.582 51.6133Z" fill="#6D6E71"/>
<path d="M92.1387 48.8887C92.1387 48.7325 92.1387 48.6348 91.9434 48.5567C91.1133 48.293 90.2539 48.1856 89.3848 48.2149C87.8711 48.2247 86.377 48.459 84.9316 48.9082V48.6446C84.9316 48.4981 84.8047 48.3711 84.6582 48.3711H81.2207V59.0547C81.2207 59.2012 81.3379 59.3282 81.4844 59.3282H84.9121V52.6875C84.9121 50.6856 86.8457 49.8555 88.8672 49.8555C89.9805 49.875 91.084 50.0899 92.1289 50.4805L92.1387 48.8887Z" fill="#6D6E71"/>
<path d="M29.3164 48.0098C26.3965 48.0098 24.5508 48.7617 24.082 48.9863C23.9551 49.0449 23.877 49.1621 23.877 49.2988V50.9004C25.1953 50.1094 26.6992 49.6992 28.2324 49.6895C29.1602 49.6504 30.0684 49.9824 30.752 50.6074C31.1914 51.0469 31.4063 51.584 31.4063 52.6973C31.4063 52.6973 29.7363 52.5703 28.4277 52.5703C26.0449 52.5703 21.5039 53 21.5039 56.2227C21.5039 57.7559 22.666 59.4258 26.3672 59.4258C28.0859 59.4062 29.7852 59.0938 31.4063 58.5078V59.0449C31.4063 59.1914 31.5234 59.3184 31.6797 59.3184H35.1074V52.0918C35.0977 49.4355 33.3984 48.0098 29.3164 48.0098ZM31.416 57.1797C30.4199 57.6484 29.3457 57.9023 28.2422 57.9219C26.6504 57.9219 25.3125 57.375 25.3125 55.8906C25.3125 54.2598 26.7383 53.7227 30.0781 53.7227C30.752 53.7227 31.4258 53.752 31.4258 53.752V57.1797H31.416Z" fill="#6D6E71"/>
<path d="M47.9199 48.3711C47.7734 48.3711 47.6367 48.459 47.5684 48.5957L43.2324 56.6914C43.2324 56.6914 39.0039 48.8105 38.877 48.5957C38.8086 48.4687 38.6719 48.3809 38.5254 48.3906H35.5078L41.6211 59.6699L38.6914 64.9727H41.8652C42.041 64.9824 42.2168 64.8848 42.2949 64.7285L51.2305 48.3711H47.9199Z" fill="#6D6E71"/>
<path d="M49.6387 41.1934C50.4395 41.6719 50.7422 42.6875 50.332 43.5176L49.082 45.8125C49.043 45.9297 49.1113 46.0469 49.2285 46.0859C49.2578 46.0957 49.2969 46.0957 49.3262 46.0957L59.4824 43C59.7754 42.8926 59.9609 42.6191 59.9609 42.3164C59.9609 41.9941 59.7559 41.7109 59.4434 41.623L41.5234 36.0957C41.4941 36.0859 41.4648 36.0859 41.4453 36.0957C41.3086 36.0957 41.2012 36.2031 41.2012 36.3398C41.2012 36.4277 41.25 36.5059 41.3184 36.5449L49.6387 41.1934Z" fill="#F37322"/>
<path d="M71.8164 48.0098C66.6699 48.0098 64.3457 50.8711 64.3457 53.8984C64.3457 56.9258 66.7285 59.7285 71.9336 59.7285C77.1387 59.7285 79.7559 57.1602 79.7559 53.8594C79.7559 50.3926 76.8848 48.0098 71.8164 48.0098ZM72.0898 58.2051C69.873 58.2051 68.0859 56.2617 68.0859 53.8496C68.0859 51.4375 69.668 49.5918 72.1191 49.5918C74.6484 49.5918 76.0156 51.9355 76.0156 53.957C76.0156 56.1055 74.6777 58.2148 72.0898 58.2051Z" fill="#6D6E71"/>
<path d="M63.2813 56.6621C61.9434 57.4336 60.4297 57.8535 58.8867 57.873C56.3672 57.873 54.4336 56.3594 54.4336 53.8691C54.4336 51.3789 56.3672 49.582 59.2188 49.582C60.5859 49.5625 61.9336 49.9629 63.0664 50.7344L63.7988 49.4453C63.8574 49.3281 63.8086 49.1914 63.6914 49.1328C63.6914 49.1328 63.6914 49.1328 63.6816 49.1328C63.0371 48.8398 61.3672 48.0098 58.1738 48.0098C53.0273 48.0098 50.6934 50.8711 50.6934 53.8984C50.6934 56.9258 53.0762 59.7285 58.2813 59.7285C60.2051 59.7285 62.0898 59.1816 63.7207 58.166C63.8379 58.1074 63.8965 57.9609 63.8379 57.8438C63.8379 57.834 63.8281 57.834 63.8281 57.8242L63.2813 56.6621Z" fill="#6D6E71"/>
<path d="M87.832 57.873C87.832 57.6191 87.6758 57.5117 87.3535 57.5117H86.875V58.7617H87.0801V58.2246H87.2754L87.5977 58.7617H87.832L87.4805 58.2051C87.6563 58.2246 87.8125 58.0879 87.832 57.9121C87.8418 57.9121 87.8418 57.8926 87.832 57.873ZM87.1094 58.0586V57.6875H87.3535C87.4805 57.6875 87.627 57.6875 87.627 57.8535C87.627 58.0195 87.4902 58.0488 87.334 58.0488L87.1094 58.0586Z" fill="#6D6E71"/>
<path d="M87.3341 56.9843C86.7091 56.9745 86.1915 57.4726 86.1818 58.0976C86.172 58.7226 86.6701 59.2401 87.2951 59.2499C87.9201 59.2597 88.4376 58.7616 88.4474 58.1366C88.4474 58.1269 88.4474 58.1171 88.4474 58.1171C88.4669 57.5116 87.9884 57.0038 87.383 56.9843C87.3634 56.9843 87.3439 56.9843 87.3341 56.9843ZM87.3341 59.0546C86.8165 58.9667 86.465 58.4686 86.5626 57.9511C86.631 57.5604 86.9435 57.2479 87.3341 57.1796C87.8517 57.2675 88.2033 57.7655 88.1056 58.2831C88.0373 58.6737 87.7247 58.9862 87.3341 59.0546Z" fill="#6D6E71"/>
</svg>
