<svg width="100" height="100" viewBox="0 0 100 100" fill="none" xmlns="http://www.w3.org/2000/svg">
<path d="M6.75125 55.2501C8.00188 64.5001 12.5041 72.7501 18.7572 79.0001L33.2644 64.5001C33.2644 49.7501 41.0181 35.5001 54.525 27.5001L6.75125 55.2501Z" fill="#9B65C3"/>
<path d="M33.2631 64.4998C26.0094 64.4998 18.7559 62.7498 12.0025 58.7498C10.2516 57.7498 8.50062 56.4998 6.75 55.2498C8.00063 64.4998 12.5028 72.7498 18.7559 78.9998L33.2631 64.4998Z" fill="#9B65C3"/>
<path d="M33.263 64.5002L18.7559 79.0002C25.009 85.2502 33.263 89.7502 42.5177 91.0002L70.2815 43.2502C62.2774 56.7502 48.0205 64.5002 33.263 64.5002Z" fill="#BE63C5"/>
<path d="M39.0159 85.7496C35.014 78.9996 33.263 71.7496 33.263 64.4996L18.7559 78.9996C25.009 85.2496 33.263 89.7496 42.5177 90.9996C41.2671 89.4996 40.0165 87.7496 39.0159 85.7496Z" fill="#BF63C6"/>
<path d="M87.5403 8.49988L54.5247 27.4999C40.7678 35.4999 24.76 34.7499 12.0028 27.4999C8.25094 33.7499 6.25 40.9999 6.25 48.9999C6.25 51.2499 6.50012 53.2499 6.75025 55.2499C8.50113 56.4999 10.2521 57.7499 12.0027 58.7499C18.7562 62.7499 26.0096 64.4999 33.2634 64.4999L88.2915 9.49988C88.0415 8.99988 87.7903 8.74988 87.5403 8.49988Z" fill="#3278B1"/>
<path d="M12.0037 58.7501C18.7572 62.7501 26.0106 64.5001 33.2644 64.5001C33.2644 49.7501 41.0181 35.5001 54.525 27.5001L6.75 55.2501C8.25075 56.5001 10.0028 57.7501 12.0037 58.7501Z" fill="#3278B2"/>
<path d="M12.0028 27.5001C8.25094 33.7501 6.25 41.0001 6.25 49.0001C6.25 51.2501 6.50012 53.2501 6.75025 55.2501L54.5252 27.5001C41.0187 35.5001 24.76 35.0001 12.0028 27.5001Z" fill="#45A4EC"/>
<path d="M88.2901 9.5C88.0401 9.25 87.7898 9 87.2898 8.75C86.7894 8.5 86.5391 8 86.0391 7.75C84.5382 6.75 82.5373 6.25 80.7863 6.25H48.7707C33.0129 6.25 19.256 14.75 11.752 27.5C24.5082 34.75 40.7663 35.5 54.2738 27.5C40.5169 35.5 33.0132 49.75 33.0132 64.5C47.7704 64.5 62.0276 56.75 70.032 43.25L89.0413 10.25C89.0413 10 88.7904 9.75 88.2901 9.5Z" fill="#19BB7D"/>
<path d="M54.5254 27.4997L87.5411 8.49969C87.0407 8.24969 86.7907 7.74969 86.2904 7.49969L12.0029 27.4997C24.7592 34.9997 41.0182 35.4997 54.5254 27.4997Z" fill="#08C7FB"/>
<path d="M80.7863 6.25H48.7707C33.0129 6.25 19.256 14.75 11.752 27.5L86.0395 7.5C84.5388 6.75 82.7873 6.25 80.7863 6.25Z" fill="#59F2F6"/>
<path d="M70.2805 43.2499L89.2901 10.2499C89.0398 9.99988 88.7898 9.74988 88.5398 9.24988L33.5117 64.2499C33.5117 71.4999 35.2626 78.7499 39.2645 85.4999C40.2648 87.2499 41.5155 88.9999 42.7661 90.7499C44.7673 90.9999 47.0183 91.2499 49.0192 91.2499C56.7733 91.2499 64.0267 89.2499 70.2798 85.4999C62.7761 72.9999 62.2767 56.7499 70.2805 43.2499Z" fill="#DA3757"/>
<path d="M33.264 64.5002C33.264 71.7502 35.0149 79.0002 39.0168 85.7502C40.0174 87.5002 41.268 89.2502 42.5187 91.0002L70.2824 43.2502C62.2784 56.7502 48.0215 64.5002 33.264 64.5002Z" fill="#D33C4E"/>
<path d="M70.2816 43.2502L42.5176 91.0002C44.5188 91.2502 46.7698 91.5002 48.7707 91.5002C56.5248 91.5002 63.7782 89.5002 70.0313 85.7502C62.7779 73.0002 62.2776 56.7502 70.2816 43.2502Z" fill="#EE5A24"/>
<path d="M90.0444 11.4999C89.7941 10.9999 89.5441 10.4999 89.0438 10.2499C88.7938 9.99988 88.5435 9.74988 88.2935 9.24988C88.0432 8.99988 87.7932 8.74988 87.2929 8.49988L54.2772 27.4999C40.5204 35.4999 33.0166 49.7499 33.0166 64.4999C47.7741 64.4999 62.0313 56.7499 70.0354 43.2499C62.0313 56.9999 62.7816 72.9999 70.0354 85.7499C82.7916 78.4999 91.296 64.4999 91.296 48.7499V16.9999C91.546 14.9999 91.0447 13.2499 90.0444 11.4999Z" fill="#8BDF55"/>
<path d="M87.5399 8.49988L54.5243 27.4999C40.7674 35.4999 33.2637 49.7499 33.2637 64.4999L88.2918 9.49988C88.0418 8.99988 87.7899 8.74988 87.5399 8.49988Z" fill="#25C16F"/>
<path d="M33.264 64.4999C48.0212 64.4999 62.2784 56.7499 70.2827 43.2499L89.2924 10.2499C89.0421 9.99988 88.7921 9.74988 88.5418 9.24988L33.264 64.4999Z" fill="#8BDF55"/>
<path d="M89.2913 10.2501L70.2817 43.2501C62.2776 57.0001 63.0282 73.0001 70.2817 85.7501L90.2917 11.5001C89.7913 11.2501 89.5413 10.7501 89.2913 10.2501Z" fill="#FFBB00"/>
<path d="M70.2822 85.75C83.0388 78.5 91.5429 64.5 91.5429 48.75V17C91.5429 15 91.0429 13.25 90.0422 11.75L70.2822 85.75Z" fill="#FFA800"/>
</svg>
