<svg width="100" height="100" viewBox="0 0 100 100" fill="none" xmlns="http://www.w3.org/2000/svg">
<path d="M90.0032 48.784L79.0229 46.235L77.0621 45.4507L26.6699 45.8428V70.1566L90.0032 70.3526V48.784Z" fill="white"/>
<path d="M69.4146 68C69.73 67.1649 69.8412 66.2665 69.7389 65.3796C69.6366 64.4928 69.3237 63.6433 68.8263 62.902C68.3154 62.2895 67.6888 61.7837 66.9822 61.4136C66.2757 61.0435 65.5031 60.8163 64.7087 60.7451L30.591 60.353C30.3949 60.353 30.1989 60.1569 30.0028 60.1569C29.9571 60.1226 29.9201 60.0782 29.8945 60.0272C29.869 59.9761 29.8557 59.9198 29.8557 59.8628C29.8557 59.8057 29.869 59.7494 29.8945 59.6984C29.9201 59.6473 29.9571 59.6029 30.0028 59.5687C30.1989 59.1765 30.3949 58.9804 30.7871 58.9804L65.1008 58.5883C67.2793 58.3465 69.354 57.5288 71.1115 56.2192C72.8691 54.9097 74.2461 53.1555 75.1008 51.1373L77.0616 46.0392C77.0616 45.8432 77.2577 45.6471 77.0616 45.451C75.9956 40.7028 73.4087 36.4324 69.6941 33.2887C65.9794 30.1449 61.34 28.2997 56.4809 28.0335C51.6218 27.7672 46.8087 29.0945 42.7727 31.8135C38.7368 34.5326 35.6988 38.4948 34.1204 43.0981C32.0713 41.6346 29.5719 40.9403 27.0616 41.1373C24.7578 41.3942 22.6099 42.427 20.9708 44.0661C19.3317 45.7052 18.2989 47.8531 18.042 50.1569C17.9114 51.3361 17.9777 52.5288 18.2381 53.6863C14.5105 53.7893 10.9702 55.3427 8.3703 58.0158C5.77038 60.689 4.31599 64.271 4.31651 68C4.28434 68.7245 4.35029 69.4501 4.51259 70.1569C4.52159 70.31 4.58646 70.4544 4.69489 70.5628C4.80331 70.6713 4.94776 70.7361 5.10083 70.7451H68.042C68.4342 70.7451 68.8263 70.549 68.8263 70.1569L69.4146 68Z" fill="#F48120"/>
<path d="M80.1981 46.0391H79.2177C79.0216 46.0391 78.8255 46.2351 78.6295 46.4312L77.2569 51.1371C76.9414 51.9722 76.8302 52.8707 76.9326 53.7575C77.0349 54.6443 77.3478 55.4938 77.8452 56.2351C78.356 56.8477 78.9827 57.3534 79.6892 57.7235C80.3958 58.0936 81.1684 58.3208 81.9628 58.392L89.2177 58.7842C89.4138 58.7842 89.6099 58.9802 89.8059 58.9802C89.8516 59.0145 89.8887 59.0589 89.9142 59.1099C89.9397 59.161 89.953 59.2173 89.953 59.2744C89.953 59.3314 89.9397 59.3877 89.9142 59.4388C89.8887 59.4898 89.8516 59.5342 89.8059 59.5685C89.6099 59.9606 89.4138 60.1567 89.0216 60.1567L81.5706 60.5489C79.3922 60.7906 77.3175 61.6083 75.56 62.9179C73.8024 64.2275 72.4254 65.9816 71.5706 67.9998L71.1785 69.7646C70.9824 69.9606 71.1785 70.3528 71.5706 70.3528H97.453C97.5329 70.3642 97.6144 70.3569 97.6909 70.3313C97.7675 70.3058 97.8371 70.2628 97.8942 70.2057C97.9512 70.1486 97.9942 70.0791 98.0198 70.0025C98.0453 69.9259 98.0527 69.8445 98.0412 69.7646C98.5081 68.1032 98.7714 66.3913 98.8255 64.6665C98.7945 59.7358 96.822 55.0159 93.3354 51.5293C89.8487 48.0427 85.1288 46.0701 80.1981 46.0391Z" fill="#FAAD3F"/>
</svg>
