<svg width="100" height="100" viewBox="0 0 100 100" fill="none" xmlns="http://www.w3.org/2000/svg">
<path d="M68.205 98.4697C66.7792 98.4697 65.3855 98.047 64.1999 97.2548C63.0144 96.4627 62.0905 95.3369 61.5448 94.0196C60.9992 92.7024 60.8565 91.2529 61.1346 89.8545C61.4128 88.4561 62.0994 87.1716 63.1076 86.1634L86.1634 63.1075C87.5153 61.7556 89.349 60.9961 91.2609 60.9961C93.1728 60.9961 95.0064 61.7556 96.3584 63.1075C97.7103 64.4595 98.4698 66.2931 98.4698 68.205C98.4698 70.1169 97.7103 71.9505 96.3584 73.3025L73.3025 96.3575C72.6339 97.0281 71.8394 97.56 70.9646 97.9225C70.0898 98.285 69.1519 98.4709 68.205 98.4697Z" fill="#55E5BC"/>
<path d="M50.0731 100.001C49.4415 100 48.8127 99.9167 48.2029 99.7522L22.9243 92.9795C19.6119 92.0861 16.5919 90.3392 14.166 87.9131C11.7401 85.4871 9.99331 82.4669 9.10018 79.1544L0.662356 47.6607C-0.220678 44.3456 -0.218141 40.8567 0.669768 37.5429C1.55768 34.229 3.29985 31.2063 5.72211 28.7768L28.7762 5.72088C31.2062 3.29878 34.2292 1.55675 37.5433 0.668866C40.8574 -0.219023 44.3465 -0.221688 47.6619 0.661124L79.1558 9.09895C82.4681 9.99275 85.488 11.7399 87.914 14.1658C90.3399 16.5918 92.0869 19.6117 92.9807 22.924L99.7526 48.2016C99.9976 49.1159 100.06 50.0695 99.9367 51.008C99.8132 51.9465 99.5062 52.8514 99.0329 53.6712C98.5597 54.491 97.9296 55.2096 97.1787 55.7859C96.4277 56.3622 95.5707 56.7849 94.6564 57.03C93.7421 57.275 92.7885 57.3376 91.8501 57.2141C90.9116 57.0907 90.0066 56.7836 89.1868 56.3103C88.367 55.8371 87.6485 55.2071 87.0722 54.4561C86.4959 53.7052 86.0732 52.8482 85.8281 51.9339L79.0554 26.6563C78.8204 25.7862 78.3615 24.9931 77.7242 24.3559C77.0869 23.7187 76.2935 23.2599 75.4234 23.0252L43.9288 14.5911C43.0583 14.3596 42.1424 14.3603 41.2723 14.5933C40.4023 14.8262 39.6085 15.2832 38.9702 15.9186L15.9162 38.9699C15.2806 39.6081 14.8235 40.4019 14.5904 41.2719C14.3573 42.142 14.3563 43.0579 14.5877 43.9284L23.0265 75.4222C23.2609 76.2921 23.7195 77.0852 24.3566 77.7222C24.9936 78.3593 25.7867 78.8179 26.6566 79.0523L51.9342 85.8259C53.6226 86.2792 55.0888 87.3304 56.0599 88.784C57.031 90.2376 57.4409 91.9945 57.2133 93.7277C56.9857 95.461 56.136 97.0525 54.8226 98.2061C53.5091 99.3597 51.8212 99.9968 50.0731 99.9988V100.001Z" fill="#1F2D52"/>
</svg>
