<svg width="100" height="100" viewBox="0 0 100 100" fill="none" xmlns="http://www.w3.org/2000/svg">
<g clip-path="url(#clip0_15397_208504)">
<path fill-rule="evenodd" clip-rule="evenodd" d="M69.2502 3.9502C107.9 30.8502 91.7502 93.2502 50.4502 100C103.5 100.05 120.7 28.0502 69.2502 3.9502Z" fill="#FDCF1A"/>
<path fill-rule="evenodd" clip-rule="evenodd" d="M28.0996 3.54966C74.1996 -3.25034 93.0996 53.6997 72.8996 80.0497C106.25 46.3997 79.5496 -13.0503 28.0996 3.54966Z" fill="#0178B5"/>
<path fill-rule="evenodd" clip-rule="evenodd" d="M0.849609 31.3499C23.5996 -2.35011 70.7996 18.4999 75.4996 52.5499C80.9496 10.4999 25.5496 -12.8501 0.849609 31.3499Z" fill="#0A954C"/>
<path fill-rule="evenodd" clip-rule="evenodd" d="M-0.25 56.5004C5.25 21.5504 50.75 17.9004 67.1 42.4504C53.75 7.65035 0.65 11.9004 -0.25 56.5004Z" fill="#CA2033"/>
</g>
<defs>
<clipPath id="clip0_15397_208504">
<rect width="100" height="100" fill="white"/>
</clipPath>
</defs>
</svg>
