<svg width="100" height="100" viewBox="0 0 100 100" fill="none" xmlns="http://www.w3.org/2000/svg">
<path d="M69.2217 12.703V86.4481C69.2217 94.706 74.9132 99.2977 80.9539 99.2977C86.5406 99.2977 92.686 95.3869 92.686 86.4481V13.2617C92.686 5.7021 87.0993 0.970825 80.9539 0.970825C74.8084 0.970825 69.2217 6.19094 69.2217 12.703Z" fill="#F8AB00"/>
<path d="M38.4951 50.1343V86.4482C38.4951 94.7061 44.1866 99.2977 50.2273 99.2977C55.814 99.2977 61.9595 95.387 61.9595 86.4482V50.6929C61.9595 43.1334 56.3727 38.4021 50.2273 38.4021C44.0819 38.4021 38.4951 43.6222 38.4951 50.1343Z" fill="#E37300"/>
<path d="M31.2319 87.5655C31.2319 94.0427 25.9769 99.2977 19.4998 99.2977C13.0226 99.2977 7.76758 94.0427 7.76758 87.5655C7.76758 81.0884 13.0226 75.8334 19.4998 75.8334C25.9769 75.8334 31.2319 81.0884 31.2319 87.5655Z" fill="#E37300"/>
</svg>
