<svg width="100" height="100" viewBox="0 0 100 100" fill="none" xmlns="http://www.w3.org/2000/svg">
<path d="M39.4391 38.8571C39.4391 47.3476 43.7462 56.5068 53.2246 56.5068C60.2539 56.5068 67.3611 51.0191 67.3611 38.7325C67.3611 27.9604 61.774 20.7287 53.4585 20.7287C46.6827 20.7287 39.4391 25.4886 39.4391 38.8571ZM56.7977 5C73.7926 5 85.2199 18.4602 85.2199 38.4965C85.2199 58.218 73.1819 71.9864 55.9727 71.9864C47.7676 71.9864 42.5119 68.4722 39.7639 65.9283C39.7834 66.5315 39.7964 67.2068 39.7964 67.928V94.6714H22.1908V23.4168C22.1908 22.3809 21.8595 22.0531 20.8331 22.0531H14.7783V6.44897H29.5514C36.3532 6.44897 38.0943 9.9107 38.4256 12.5792C41.1866 9.48457 46.9101 5 56.7977 5Z" fill="#26292C"/>
</svg>
