<svg width="100" height="100" viewBox="0 0 100 100" fill="none" xmlns="http://www.w3.org/2000/svg">
<g clip-path="url(#clip0_15397_208538)">
<path d="M33.3447 50.6335C33.8873 53.9756 31.0091 55.8593 28.0944 56.0763C26.2393 59.923 19.7038 62.5207 14.0307 59.7228C11.6056 60.0928 10.2764 59.4813 9.25031 58.3147C11.3238 55.6238 17.6001 50.7803 25.2677 53.28C29.36 54.6147 30.421 51.4789 29.3949 50.3032C25.533 45.8786 16.815 49.8613 16.4997 50.1931C19.9251 44.9077 32.1761 43.4247 33.3447 50.6335ZM21.6029 44.5591C21.6241 44.5515 18.8187 43.5531 14.8946 45.2624C14.7367 45.2033 14.5819 45.1359 14.4309 45.0606C18.2048 42.5318 21.5135 41.4585 24.3417 41.8759C22.629 39.8868 14.399 38.4251 9.68386 43.1907C3.85462 42.0334 -0.222484 47.0161 0.00941021 51.5661C0.241305 56.1161 5.16263 58.9491 7.96658 58.1817C8.03397 58.1725 8.10229 58.1725 8.16968 58.1817C8.79109 55.1743 11.3283 48.178 21.6029 44.5591ZM45.0773 48.7147L45.6002 46.3969H36.8215L36.623 47.2943C36.3942 48.0878 37.0156 48.6505 37.6839 48.6321H41.7505L34.5421 55.0535L34.0555 57.2077H43.354L43.8891 54.8486H38.0083L45.0773 48.7147ZM50.9338 50.583C50.5215 50.4775 48.2132 50.1243 48.3572 49.3231C48.5194 48.4196 49.6136 48.334 50.1456 48.3508C51.2414 48.3829 51.5871 48.8691 51.6447 49.0404C51.7962 49.499 52.1463 49.7299 52.6587 49.7299H54.3895C54.5789 48.6489 54.6305 46.1553 50.6094 46.1553C49.3181 46.1553 47.5978 46.4825 46.4595 47.805C45.8534 48.5144 44.8 50.2757 45.8745 51.5997C46.4369 52.2679 47.9025 52.7908 49.4758 53.1011C50.4927 53.303 51.0308 53.7126 50.9187 54.1973C50.8504 54.523 50.4457 55.2569 48.9482 55.2553C48.2784 55.2553 46.8264 55.1483 47.1038 53.6301H44.3665C44.0452 55.0061 43.9269 57.4081 48.1011 57.4081C49.7107 57.4081 52.9875 57.2016 53.8408 53.7493C54.4561 51.2695 51.684 50.7787 50.9338 50.5876V50.583ZM60.6097 54.4053C60.3736 54.6253 60.0968 54.7961 59.7951 54.9079C59.4934 55.0196 59.1727 55.0701 58.8516 55.0566C56.7842 55.0764 57.0176 53.0125 57.2995 51.7664C57.5814 50.5204 58.2468 48.5129 60.2126 48.5175C61.6055 48.5175 61.7662 49.4272 61.8374 49.6947H64.655C64.555 46.695 62.2754 46.1217 60.6643 46.1614C56.2477 46.2715 54.97 49.9959 54.5744 51.7266C53.421 56.7827 56.6265 57.4142 58.1604 57.4142C59.4184 57.4142 62.1724 57.1083 63.7896 53.8793H61.7783C61.1978 53.8579 60.9295 54.1178 60.6097 54.4038V54.4053ZM72.1151 55.4419C71.3025 56.4089 70.1733 57.05 68.9322 57.2491C66.4844 57.6572 63.1196 57.5548 63.9669 54.0001C64.2382 52.8657 64.658 52.1226 65.5022 51.563C66.9163 50.6258 68.7943 50.4928 69.4035 50.4256C69.6112 50.4026 71.1511 50.2864 71.4148 49.3675C71.6725 48.4731 70.2599 48.3997 69.8643 48.3951C68.6517 48.3814 68.2411 48.8691 68.0455 49.1596H65.3476C66.4374 46.2669 69.4399 46.1538 70.2584 46.1538C71.1677 46.1538 74.8144 46.1538 74.1187 49.2024C73.0547 53.8595 73.0092 54.3242 72.1151 55.4419ZM70.9025 51.7725C70.4691 52.0126 69.3868 52.248 69.2141 52.2985C68.6594 52.4636 67.5984 52.537 67.083 53.0231C66.642 53.4436 65.863 55.1804 67.7135 55.2171C68.8595 55.2385 70.2902 54.5887 70.6964 52.7021C70.7813 52.2755 70.9086 51.7725 70.9086 51.7725H70.9025ZM77.8442 43.2366H76.3891L73.2275 57.2092H76.0451L78.9021 44.5775C79.0264 44.1799 78.9461 43.2748 77.8442 43.2366ZM85.1482 53.8778H87.1624C86.5289 55.1682 84.889 57.4142 81.5302 57.4126C77.244 57.4126 77.5077 53.5552 77.9457 51.7251C79.1583 46.64 82.5336 46.1599 84.0371 46.1599C86.0408 46.1599 89.1797 46.9977 87.5853 52.537H80.6133C80.4435 53.2709 80.298 55.0764 82.2199 55.0551C83.2309 55.0443 83.6098 54.6759 83.7007 54.6285C83.9674 54.4939 84.21 53.8946 85.1482 53.8778ZM81.0331 50.7099H85.139C85.4907 48.7223 84.2706 48.5159 83.5824 48.5159C82.9928 48.5159 81.5894 48.7315 81.0331 50.7099ZM91.1883 47.5818C89.301 48.8798 88.6766 50.9683 88.4598 51.9697C88.2871 52.7587 87.2731 57.2092 87.2731 57.2092H90.0933C90.0933 57.2092 91.1623 52.3168 91.3498 51.6456C91.5731 50.8613 92.2987 48.7407 95.1094 48.8278L95.7605 46.4014C93.487 46.3281 91.9865 47.0329 91.1865 47.5818H91.1883ZM96.1076 44.2946L96.1794 43.9552H97.6951L97.6215 44.2946H97.078L96.7749 45.7899H96.365L96.6762 44.2946H96.1076ZM98.6027 43.9552L98.7417 45.2838L99.4422 43.9552H100L99.6152 45.7899H99.2448L99.5785 44.3298L98.809 45.7899H98.5058L98.33 44.3298L98.0583 45.7899H97.6807L98.0628 43.9552H98.6027Z" fill="#236BF5"/>
</g>
<defs>
<clipPath id="clip0_15397_208538">
<rect width="100" height="20.8969" fill="white" transform="translate(0 40)"/>
</clipPath>
</defs>
</svg>
